<?xml version="1.0" encoding="UTF-8"?>
<svg width="783px" height="100px" viewBox="0 0 783 100" version="1.1" xmlns="http://www.w3.org/2000/svg" xmlns:xlink="http://www.w3.org/1999/xlink">
    <!-- Generator: Sketch 58 (84663) - https://sketch.com -->
    <title>Mask</title>
    <desc>Created with Sketch.</desc>
    <g id="Revamp-jan-2020" stroke="none" stroke-width="1" fill="none" fill-rule="evenodd">
        <g id="SG-Zoo-Nav-revamp---Desktop-1200---Homepage---Quick-Links-(Plan-your-visit)-V1" transform="translate(-340.000000, -729.000000)" fill="#FFFFFF">
            <path d="M745.696133,827.29657 C745.701966,827.344117 745.731003,827.38749 745.781663,827.426928 L745.833,827.461 C745.804989,827.404132 745.760559,827.35177 745.696133,827.29657 Z M815.307193,826.811473 L815.309,826.826 C815.259296,826.820697 815.260546,826.816135 815.307193,826.811473 Z M853.984102,826.740285 C854.036835,826.746274 854.070872,826.75205 854.08699,826.75763 L854.088,826.758 L853.984102,826.740285 L853.984102,826.740285 Z M772.99078,826.61113 L773.335659,826.634944 L773.335659,826.634944 L773.564,826.648 L773.532466,826.647493 C773.368053,826.64063 773.187524,826.628788 772.99078,826.61113 Z M963.163,826.235 L963.428488,826.25926 C963.773133,826.29223 964.120414,826.327122 964.470417,826.364005 C963.961307,826.316716 963.547616,826.278866 963.21473,826.241122 L963.163,826.235 Z M1109.99468,732.937721 C1109.6083,732.957862 1109.23587,732.978923 1108.87609,733.000825 L1110.35855,733.000322 C1110.25533,732.979231 1110.13454,732.958339 1109.99468,732.937721 Z M960.632,732.542 L960.505,732.554 L960.566498,732.547998 L960.566498,732.547998 L960.632,732.542 Z M960.663,732.539 L960.632,732.542 L960.638029,732.541812 L960.663,732.539 Z M550.925757,731.383785 C550.924779,731.404683 550.893214,731.424536 550.837213,731.443667 L550.816,731.449 L550.84514,731.428683 C550.88568,731.4013 550.925757,731.383785 550.925757,731.383785 Z M673.534,731.35 L673.144047,731.387285 L673.144047,731.387285 L672.986,731.397 L673.062303,731.388597 C673.181028,731.376346 673.308855,731.365934 673.439777,731.356872 L673.534,731.35 Z M674.583711,731.196662 C675.344264,731.28665 674.542362,731.293022 673.703966,731.340402 L673.534,731.35 L673.632346,731.341293 C673.793727,731.323186 673.953715,731.302228 674.112284,731.278198 Z M768.334,730.617 L768.398882,730.62212 C768.782587,730.64652 769.193403,730.66987 769.617053,730.692244 L768.790745,730.64215 L768.790745,730.64215 L768.334,730.617 Z M708.164231,729.561369 C707.682218,729.595607 707.164949,729.617981 706.610978,729.628376 L706.401,729.63 L706.488758,729.624669 C706.915779,729.596046 707.464506,729.574278 708.164231,729.561369 Z M340,813.976254 C340.017899,810.68126 340.032544,807.443217 340.047189,804.253989 C340.094378,797.874516 340.139939,791.689284 340.184416,785.625072 C340.271742,773.496649 340.315677,761.853322 340.109565,750.114399 C340.259267,748.448597 340.357984,745.966165 340.425242,743.008807 C340.458328,741.530128 340.483821,739.93348 340.503889,738.260559 C340.518534,735.885926 340.533179,733.404511 340.548909,730.876316 C342.725559,730.902757 344.977061,730.930215 347.114117,730.956657 C348.872035,730.981064 350.536118,731.013607 351.950697,731.084795 C354.779312,731.226155 356.610454,731.518026 356.2004,732.201432 C363.278718,732.219737 369.012428,731.802778 373.370611,730.956657 C371.957117,730.79089 370.153637,731.054286 368.721701,731.158017 C370.446188,730.663352 377.960629,730.553685 381.852195,730.547613 L382.644564,730.547833 C377.990231,731.021743 370.471483,731.430566 366.829811,732.22889 C373.256707,732.026512 382.225831,731.24446 385.808925,730.985132 L385.808925,730.985132 L387.448058,732.062107 C392.86609,731.272935 391.988487,732.931619 397.418995,731.869899 L397.418995,731.869899 L396.391689,731.548535 C406.330082,731.624808 406.458089,730.552918 415.704922,730.41461 L415.704922,730.41461 L415.298665,730.839705 C418.47767,731.009539 423.197092,730.002736 426.287686,730.975979 L426.287686,730.975979 L420.254572,731.016658 C420.8664,731.768201 425.480595,732.100752 427.560157,732.480083 C433.956678,732.28279 429.813286,731.250562 433.017784,731.150898 C434.375411,731.855661 433.351903,731.529213 431.127521,732.222788 C438.276894,731.971596 447.896898,731.672606 452.979185,730.768517 C453.297031,730.879367 452.935793,731.035981 452.935793,731.035981 C460.366129,731.163102 466.91615,729.888835 471.463631,730.4919 L471.463631,730.4919 L470.023017,730.595631 C475.973143,731.63091 485.418495,729.616286 486.644319,731.38887 C489.460459,731.71837 480.248339,731.318699 484.764903,732.189228 C493.607649,732.748564 490.614144,730.701396 498.384564,731.202764 C497.319291,731.146831 497.662088,731.253613 497.301392,731.415312 C502.933672,731.37565 510.40957,731.202764 516.614082,731.021743 C524.239682,732.464828 539.960601,730.661734 548.718189,732.342791 C546.202113,731.805271 550.010622,731.673975 550.790726,731.457886 L550.816,731.449 C550.757826,731.49871 550.721629,731.564372 550.840377,731.622131 L550.913282,731.650232 C554.105305,731.694979 554.496918,731.131576 555.695622,730.894621 C558.309447,731.406159 564.532401,730.343422 566.193229,730.681057 C566.238791,730.306811 568.794579,730.405457 571.638382,730.410542 C565.93342,730.829535 569.803985,731.211917 567.238434,731.797694 C575.754112,731.980749 577.005428,730.155282 585.863903,730.446136 L585.863903,730.446136 L590.761774,731.154966 C591.758163,730.079009 599.972267,730.51529 599.788393,730.11562 C601.304944,730.451221 603.525529,730.64648 603.194665,731.185476 C606.747926,730.926147 612.049885,731.477347 613.521416,730.836654 L613.521416,730.836654 L609.995275,730.556986 C620.966397,730.961741 627.528893,729.415942 635.977314,730.133925 L635.977314,730.133925 L635.805916,731.746845 C641.425721,732.405844 646.202637,730.861061 651.064167,731.837355 C649.363743,731.297343 648.993827,731.459041 652.593735,730.928181 C650.464815,730.816314 646.520483,731.235307 642.967764,731.226155 L642.967764,731.226155 L650.522852,730.279352 L638.750605,730.738007 C643.792754,730.103416 643.431516,730.262064 641.368227,729.611201 C648.529532,729.092545 649.094713,730.384101 655.907798,729.755611 C658.381141,729.978328 655.837828,730.560037 658.653969,730.888519 C663.864262,730.396885 668.642982,731.59982 672.647535,731.417512 L672.986,731.397 L672.946833,731.40148 C672.610863,731.442078 672.374827,731.500707 672.40091,731.590612 L672.419535,731.621757 C676.345968,731.469211 679.162108,731.53328 680.303318,731.049201 L680.303318,731.049201 L676.936099,730.871231 C679.886212,730.914961 680.375457,730.257996 686.007737,730.634276 C689.255628,730.264098 691.1025,729.465774 687.562256,729.455604 C688.995818,729.351873 692.147704,729.787137 691.031988,730.271217 C699.816696,730.290539 695.236672,728.550498 703.712755,729.31933 C703.135099,729.368144 702.517305,729.450519 702.835152,729.546115 C704.071643,729.612557 705.186873,729.641625 706.188595,729.633926 L706.401,729.63 L706.313115,729.63735 C702.60914,729.925309 709.352497,730.797269 701.990122,730.573997 L701.645669,730.563088 C702.618734,731.42243 708.379021,730.741058 711.195703,731.069541 C715.515376,730.489866 711.671931,729.836969 713.849124,729.411874 C713.809529,729.681372 715.598906,729.684423 717.711011,729.797307 L717.711011,729.797307 L715.6564,729.149495 C717.450659,729.151529 719.212916,729.155597 721.364617,729 L721.364617,729 L717.766878,729.261362 C721.668361,729.37628 727.600588,730.410542 734.431572,729.787137 C732.611821,730.050533 729.003234,730.575292 733.581089,730.909876 C741.078683,730.495968 735.330871,731.181408 739.562133,731.67464 C747.010911,731.53328 740.858469,730.517324 751.850745,730.919029 C753.036973,730.92208 751.939698,730.541731 750.748046,730.362744 C757.665397,730.653755 761.686371,730.2888 767.990467,730.599674 L768.334,730.617 L768.256292,730.61292 C765.901898,730.458766 764.67628,730.263191 768.065172,730.007952 L768.274071,729.992566 C766.439675,730.524443 774.249691,730.489866 777.065831,730.820382 L777.065831,730.820382 L777.80241,730.495968 C780.050115,730.846823 777.643487,730.986149 775.80909,731.104118 C775.867127,730.994285 775.209738,730.89157 773.848857,730.919029 C770.265221,731.178357 771.564811,732.41703 777.242653,732.537033 C783.319159,732.231941 782.337415,731.366497 781.297092,731.044116 C789.428209,731.387853 788.90859,729.558318 796.678468,730.060703 C798.454828,730.063754 804.36536,731.366497 810.037778,731.489551 C812.955347,730.746143 802.995258,730.934283 806.257251,730.299692 C815.645108,732.148549 825.552584,729.16475 837.884588,730.269183 L837.884588,730.269183 L836.337664,731.17734 C839.198823,731.235307 842.014963,731.297343 845.235734,731.196662 L845.235734,731.196662 L841.013151,730.701396 C843.878107,730.495968 850.617425,730.674955 848.41474,731.36548 C854.885028,730.629191 856.250248,731.060388 862.276311,731.293275 C855.88901,731.220053 862.16078,731.16717 857.497226,731.637012 C864.196949,732.081429 864.717111,731.779388 869.35463,731.57701 C868.587676,731.897357 871.028476,732.388555 872.822735,732.389572 C877.155425,731.809897 884.591727,731.936002 890.659012,731.627859 L890.659012,731.627859 L890.642741,731.897357 C900.806772,731.552603 911.84244,732.809582 922.085662,732.009224 L922.085662,732.009224 L922.266824,731.99638 C922.384946,731.988094 922.496801,731.98041 922.596603,731.97363 L922.596603,731.97363 L921.795478,731.917696 C918.273133,731.060388 929.745976,731.314631 932.870741,730.958691 C933.553081,731.17734 933.880148,731.552603 935.647287,731.556671 C935.748173,730.751228 939.600839,731.138695 941.063149,730.765466 C944.585494,731.042082 940.6135,731.729556 946.65258,731.689894 C948.988697,731.619723 949.266405,731.20073 948.988697,730.894621 C950.263336,731.302428 954.119257,731.621757 957.309111,731.71837 C956.225938,731.9299 954.480495,731.655317 953.758019,731.707183 C953.351761,732.135329 955.501834,731.980749 955.445967,732.519745 C958.275125,732.578729 956.587177,731.768201 960.125251,732.047869 L960.125251,732.047869 L956.843189,732.683477 C958.095176,732.825255 959.649518,732.636869 960.481556,732.556348 L960.502,732.554 L960.375388,732.568172 C959.629617,732.656297 959.262539,732.817291 959.109309,733.000131 L963.338866,733.000876 C963.71663,732.446415 960.982371,731.754522 961.268088,731.297343 C969.038509,731.797694 975.160034,730.956657 981.198572,730.914961 L981.198572,730.914961 L980.057905,731.66447 C983.000424,731.549552 984.415545,731.380734 985.486243,731.059371 L985.486243,731.059371 L990.023418,731.054286 C987.40905,731.322767 986.540668,731.558705 986.351371,732.159736 C991.17656,731.952273 997.805771,732.14143 999.049494,731.138695 L999.048,731.139 L998.860197,731.305478 C1005.20149,731.659808 1018.37238,731.870481 1018.29358,732.195655 L1018.28354,732.208551 C1025.19046,731.878034 1033.94805,732.456692 1034.14114,731.465143 C1038.25741,731.226155 1044.81611,732.744496 1047.76026,731.498703 C1052.64349,732.156685 1048.02061,731.767184 1046.52196,732.503473 C1051.40193,733.158404 1056.36815,731.4865 1057.9948,732.91433 C1063.69759,732.472964 1056.67135,732.618391 1058.58873,731.984817 C1059.79286,733.311967 1069.18017,732.198381 1074.52227,732.957043 C1076.91968,732.419064 1072.08527,732.626527 1076.21564,732.056005 C1075.80938,732.389572 1078.00448,732.452624 1079.11477,732.482117 L1079.11477,732.482117 L1080.17299,731.649215 L1083.742,733 L1089.03332,733.000358 C1089.83389,732.489832 1087.04584,732.18008 1094.34133,731.906849 L1094.71256,731.893289 L1094.06494,731.96346 C1096.98359,732.822803 1101.73339,731.316665 1109.48754,731.971596 C1106.83357,731.807863 1108.39894,732.371266 1107.55225,732.609238 L1107.55225,732.609238 L1111.87247,732.271603 C1111.48411,732.31635 1111.29427,732.371266 1111.71355,732.467879 C1115.51197,733.093317 1115.00429,732.129227 1119.42539,732.690596 C1118.36945,732.749127 1117.79033,732.863648 1117.54039,733.000591 L1123,733 L1123,825 L1118.876,825 L1117.99182,825.050076 C1118.11892,825.466853 1120.66487,825.711526 1122.42327,825.74762 L1122.61524,825.75077 C1124.25058,826.038574 1116.20245,827.127752 1111.84643,827.294536 C1100.12788,827.210127 1109.41485,825.810772 1101.38462,825.498561 L1101.38462,825.498561 L1091.02587,826.237901 L1090.89786,825.806704 C1089.24951,825.517883 1088.29814,825.99281 1087.86639,826.094507 C1088.57043,825.455848 1079.43045,825.888062 1075.21329,825.783314 L1075.21329,825.783314 L1076.72767,826.338581 C1064.98634,827.654544 1058.19983,824.936175 1048.92588,825.632801 L1048.92588,825.632801 L1042.38562,826.583671 L1041.02799,825.758906 C1037.20245,826.24807 1036.5239,826.890797 1030.25539,826.599943 C1008.20575,825.155841 984.501787,826.921307 962.155996,826.010099 C962.312207,826.105058 962.595417,826.165266 963.054953,826.222216 L963.164,826.235 L962.402375,826.16605 C944.411037,824.618825 933.581638,828.279812 917.068788,826.949144 L916.127942,826.868424 L917.340748,826.560281 C908.354266,826.725031 918.570368,826.253155 912.029568,825.798568 C910.791269,826.805372 900.606084,826.579604 895.417487,826.948765 C896.227832,826.742319 898.009616,826.763676 899.508267,826.619266 C898.538456,826.39248 898.15064,825.7945 895.554714,825.979589 C889.815581,827.42064 877.440185,827.274196 868.312679,827.704376 C867.214862,827.045377 859.329452,826.46672 855.238673,825.396864 C854.287303,825.634835 852.599355,826.141288 851.064905,826.63452 C847.758978,826.208408 845.291059,826.536891 842.929992,826.926391 C845.83834,826.906052 848.398468,826.888763 850.360328,826.875543 C850.284934,826.89995 850.214422,826.923341 850.156386,826.942663 C850.452536,826.896899 850.981376,826.885713 851.431025,826.863339 C853.124418,826.835617 854.129809,826.804943 854.097164,826.763145 L854.088,826.758 L854.187281,826.775952 C857.436226,827.356822 853.886243,827.268342 853.974365,827.973324 L853.984102,828.016587 C852.6683,828.004055 850.733896,828.048845 848.92131,828.053513 L849,828 C848.795411,828.145 848.56218,828.279 848.153588,828.379 C846.011837,828.486 845.293439,828.338 845,828.183 C846.011837,828.159 847.194359,828.13 848.746895,828.093 C848.774397,828.080688 848.814558,828.067409 848.856245,828.053674 C846.575176,828.058296 844.502963,827.997346 844.119475,827.675901 C842.329013,827.665731 841.144411,827.580305 839.279641,827.46437 C838.142228,827.582339 836.934303,827.647426 835.585897,827.578271 L835.585897,827.578271 L836.190673,827.498947 C835.97751,827.391148 835.701429,827.325045 835.418296,827.256908 C829.574479,826.927408 821.345731,828.075571 816.533016,828.604397 C821.302339,827.636239 815.307193,827.513185 815.307193,826.811473 L815.309,826.826 L815.330283,826.827817 C815.945717,826.874629 821.264467,826.909617 827.776485,826.926474 L828.14634,826.927408 C827.613704,826.851135 827.194971,826.725031 827.061541,826.473838 C820.636272,825.726363 816.086621,827.127752 806.744326,826.61113 C807.347474,826.531806 808.546178,826.371124 808.101953,826.110779 C804.809043,825.912469 801.749365,826.473838 800.996514,826.892831 C800.171524,826.20434 793.085612,825.708057 789.572488,826.012132 C786.495995,826.579604 786.940221,826.839949 781.35296,826.780964 L781.35296,826.780964 L783.806234,826.295868 C777.508311,825.907738 778.331223,826.914372 773.66263,826.654646 L773.564,826.648 L773.691511,826.652727 C775.125856,826.686665 775.159117,826.311134 773.870482,826.206363 L773.72736,826.196205 C766.850814,826.465703 766.693518,826.731133 761.769069,827.702342 L761.769069,827.702342 L762.677047,826.942663 C757.200994,827.369276 747.159113,828.214161 745.839473,827.465063 L745.833,827.461 L745.849802,827.502538 C746.202445,828.794768 733.04819,828.143414 728.053546,828.099296 L727.87233,828.097945 C729.62157,828.052181 729.939416,827.717597 730.114612,827.549796 C719.439639,828.595245 708.504858,827.582339 697.702421,827.600645 L697.702421,827.600645 L695.983556,826.447397 C690.271543,826.493161 688.644886,828.770164 682.452849,828.720332 L682.452849,828.720332 L684.691333,828.168116 C673.713159,828.353205 669.279582,828.255576 660.397242,828.058283 L660.397242,828.058283 L660.56864,827.285383 C657.391262,827.645392 653.41981,827.641324 650.215311,828.001332 C642.965052,826.124 621.444251,828.990847 608.160878,826.894865 L608.160878,826.894865 L607.323413,828.335916 C602.244923,828.306424 595.740463,828.593211 593.355531,827.513185 L593.355531,827.513185 L594.483723,827.533525 C594.985442,826.432142 589.401978,827.509117 586.237075,827.265044 C583.839667,827.386063 581.44226,828.104047 583.503922,828.321679 C570.018233,827.591492 549.984693,828.349137 541.593767,827.045377 C528.075534,827.516236 517.877332,828.660331 503.279724,828.511853 L503.279724,828.511853 L503.451122,828.342018 C498.5283,828.147776 488.664216,827.757259 488.691336,826.556213 C478.178541,826.835881 471.475564,828.488462 458.939617,827.953534 L458.939617,827.953534 L461.654871,827.49488 C458.477493,827.256908 453.377306,827.831498 452.108633,827.97184 C450.998341,827.947433 451.808686,827.709461 451.963812,827.540643 C448.961629,827.129786 447.185269,827.778615 444.787862,827.896584 L444.787862,827.896584 L445.762554,827.488778 C435.773718,826.662995 420.017544,828.29117 407.165378,828.089809 C409.403951,827.975331 408.400891,827.561462 407.480629,827.3535 L407.324301,827.31996 C402.052717,828.660331 387.592336,828.339984 382.214441,828.650161 L382.214441,828.650161 L385.528504,828.124386 C375.048796,829.004068 376.459036,826.715878 366.062315,827.603696 L366.062315,827.603696 L372.034137,828.373544 C367.793655,828.145742 364.197001,828.403037 365.206408,829 C360.283586,828.5566 364.601632,827.977942 357.162075,827.849803 C356.849653,827.475557 362.522071,827.593526 360.081271,827.107413 L360.081271,827.107413 L349.783809,826.110779 C349.480608,826.00298 348.184272,825.975521 344.786679,826.081287 C344.893532,826.28163 344.852852,826.435193 344.706946,826.552145 C344.634265,826.61113 344.535005,826.660961 344.414593,826.703674 C344.354386,826.72198 344.289298,826.741302 344.219329,826.762659 C344.142308,826.779947 344.096746,826.796219 343.961146,826.810457 C343.015743,826.926391 341.653235,826.944697 340.44965,826.95385 C340.444226,824.49074 340.444768,822.345944 340.390528,821.797795 C340.362866,821.526263 340.321643,821.647283 340.259267,822.389674 C340.196891,823.137149 340.112819,824.494808 340,826.859271 L340,826.838 Z" id="Mask"></path>
        </g>
    </g>
</svg>