<?xml version="1.0" encoding="utf-8"?>
<!-- Generator: Adobe Illustrator 23.0.4, SVG Export Plug-In . SVG Version: 6.00 Build 0)  -->
<svg version="1.1" id="Layer_1" xmlns="http://www.w3.org/2000/svg" xmlns:xlink="http://www.w3.org/1999/xlink" x="0px" y="0px"
	 viewBox="0 0 939 1237.6" style="enable-background:new 0 0 939 1237.6;" xml:space="preserve">
<style type="text/css">
	.st0{filter:url(#filter-1);}
	.st1{fill-rule:evenodd;clip-rule:evenodd;fill:#FFFFFF;}
</style>
<filter  filterUnits="objectBoundingBox" height="105.2%" id="filter-1" width="107.0%" x="-3.5%" y="-2.5%">
	<feOffset  dx="0" dy="0" in="SourceAlpha" result="shadowOffsetOuter1"></feOffset>
	<feGaussianBlur  in="shadowOffsetOuter1" result="shadowBlurOuter1" stdDeviation="7"></feGaussianBlur>
	
		<feColorMatrix  in="shadowBlurOuter1" result="shadowMatrixOuter1" type="matrix" values="0 0 0 0 0   0 0 0 0 0   0 0 0 0 0  0 0 0 0.5 0">
		</feColorMatrix>
	<feMerge>
		<feMergeNode  in="shadowMatrixOuter1"></feMergeNode>
		<feMergeNode  in="SourceGraphic"></feMergeNode>
	</feMerge>
</filter>
<title>Bitmap Copy@2x</title>
<desc>Created with Sketch.</desc>
<g id="In-park-Stories---Park-Homepage">
	<g id="Desktop-V5" transform="translate(-202.000000, -49.000000)">
		<g transform="translate(216.000000, 63.000000)" class="st0">
			<g id="Bitmap-Copy_1_">
				<g id="Mask_1_">
					<g>
						
							<image style="overflow:visible;" width="927" height="1235" xlink:href="8FA96C6A0852AF41.png"  transform="matrix(1 0 0 1 -8.19 -6.0915)">
						</image>
					</g>
					<g>
						<path class="st1" d="M906.7,191.3v42.9c0.1,9.5,0.2,19.4,0.4,28.4l-0.4-0.1v1.8c0.1,7.9,0.1,15.9,0,24v78.1
							c1.4-10.2,1,27.3,1.6,37.6c-0.4,2.3-1,3.4-1,9.3c1.4,0.3,0.7,13.3,1.4,18.2c-0.5,11.8-1.7-1.5-1.6,18.7
							c0.1,7.8,0.9,8.8,1.4,7.8c-0.7,4.3-1.3,17.2-1.4,27.9c-0.4-3.6,0.1-9.5,0-11.9c-0.1-0.2-0.2-0.2-0.3,0v27.3
							c0.4-1.4,0.7-2.4,1-2c-0.9,26.1,0.6,46.6,0.7,66.8l-1.3-3.8c0.2,9.9,0.5,14.6,1.1,18.2l0,15.2c-0.4-7.3-0.7-10.5-1.4-11.8
							v29.4c0.2,6.1,0.6,10.9,1.3,12.6l-0.3-0.6c-0.4,13.7-0.7,37-1,51.7v63.3c0.2,2,0.4,3.2,0.7,3.3c0.2,7.2-0.4,16.5-0.7,25.3
							v15.4c0.1,1.9,0.4,3.6,0.7,5c-0.4,5.3-0.6,7.2-0.7,7.3v100.4l0.4,1l-0.4,2.1v72.8c0.2,5.6,0.2,12,0,19.1v210.7h-2.3
							c-0.4,0.9-1,1.8-1.3,2.6l-7.5,0.7c0.2,1.3,5.4,2.1,8.7,2.2c3.1,0.9-12.1,4.3-20.4,4.8c-22.2-0.3-4.6-4.6-19.8-5.6l-19.6,2.3
							l-0.2-1.3c-3.1-0.9-4.9,0.6-5.7,0.9c1.3-2-16-0.6-23.9-1l2.9,1.7c-22.2,4.1-35-4.4-52.6-2.2l-12.4,3l-2.6-2.6
							c-7.2,1.5-8.5,3.5-20.4,2.6c-41.7-4.5-86.5,1-128.8-1.8c0.5,0.5,1.8,0.7,4.4,1.1c-37.1-6.4-58,6.6-91.4,1.6l2.3-1
							c-17,0.5,2.3-1-10-2.4c-2.3,3.1-21.6,2.4-31.4,3.6c1.5-0.6,4.9-0.6,7.7-1c-1.8-0.7-2.6-2.6-7.5-2c-10.8,4.5-34.2,4-51.5,5.4
							c-2.1-2-17-3.8-24.7-7.2c-1.8,0.7-5,2.3-7.9,3.8c-6.2-1.3-10.9-0.3-15.4,0.9c5.5-0.1,10.3-0.1,14-0.2
							c-0.1,0.1-0.3,0.2-0.4,0.2c0.6-0.1,1.6-0.2,2.4-0.2c3.8-0.1,5.7-0.2,4.8-0.4c6.9,2-0.5,1.6,0,4c-5.7-0.1-17.3,0.7-18.6-1.1
							c-3.4,0-5.6-0.3-9.2-0.7c-2.2,0.4-4.4,0.6-7,0.4l1.1-0.2c-0.4-0.3-0.9-0.5-1.5-0.8c-11-1-26.6,2.5-35.7,4.2
							c9-3-2.3-3.4-2.3-5.6c-1.1,0.2,10.2,0.3,24.3,0.4c-1-0.2-1.8-0.6-2-1.4c-12.1-2.3-20.8,2-38.4,0.4c1.1-0.2,3.4-0.7,2.6-1.6
							c-6.2-0.6-12,1.1-13.4,2.4c-1.6-2.1-15-3.7-21.6-2.7c-5.8,1.8-5,2.6-15.5,2.4l4.6-1.5c-12.4-1.3-10.2,2.2-20.4,1
							c4.1,0.6,4.5-1,1.4-1.3c-13,0.8-13.3,1.7-22.6,4.7l1.7-2.4c-11,1.4-31.9,4.3-32.1,1.1c3.5,4.9-24.1,2.6-33.7,2.5
							c3.3-0.1,3.9-1.2,4.2-1.7c-20.2,3.2-40.9,0.1-61.3,0.2l-3.2-3.6c-10.8,0.1-13.9,7.2-25.6,7.1l4.2-1.7
							c-20.8,0.6-29.1,0.3-45.9-0.3l0.3-2.4c-3,0.6-6.4,0.8-9.8,1.1c-4.5,0.4-9.1,0.8-13.1,1.1c-1.7-0.4-3.5-0.8-5.6-1.1
							c0.3-6.5,0.4-13.5,0.5-21c0-2.6,0.1-5.3,0.1-8.1c0-2.5,0-5.1,0-7.8c0-10.8-0.3-22.9-0.4-35.3c-0.3-25-0.5-51.5,1.2-72.2
							l-2.5-2.8c0.1-17-0.5-38.8,1.4-46.8l0,3.8c1.9,1.7,0-17,0.5-27.7c-0.2-8-1.5-16.1-1.9-9.2c1.3-45.2,0-112.4,2.2-140.5
							c-0.8-45.3-2.8-79.5-2.6-128.5l0.3,0.6c0.3-16.5,1-49.6,3.1-49.5c-0.5-35.3-3.4-57.7-2.4-99.8l0.8,9.1
							c0.4-10.7-0.6-27.8-0.8-32c0-3.7,0.5-1,0.8-0.5C3.3,536,2.1,530,1.9,522l0.7,3.3c1.4-33.5-1.4-86.3-1.1-129.4
							c0.2,7.9,1,3.7,1.3,0.5c-2.3-17.7-1.8-66.2-2.3-84.2l0.9,11.1C0,288.1,4,292.8,2.4,258l-1.3,20C1.5,263.8,1,251.7,0,255.1
							c0.8-16.5,1.8-2,2-27c0.7-1,0.4,18,1.3,9.8l1.7-34.5c0.2-1,0.2-5.4,0.1-16.8c-2.9,3-0.2-28.6-3-11.3
							C1.9,126.4,3.8,85.1,2.5,43.1c0.5-3,0.8-7.4,1-12.7c0-1.3,0.1-2.7,0.1-4.1c0-2.1,0.1-4.4,0.1-6.6c0-4.4,0.1-9.1,0.1-13.8
							C8.6,5.9,13.4,6,18,6.1c3.3,0.1,6.5,0.2,9.1,0.4c5.3,0.4,8.8,1.3,8,3.5C48.5,10,59.4,8.7,67.6,6.1c-2.7-0.5-6.1,0.3-8.8,0.6
							c3.5-1.7,19.6-1.9,26.3-1.9c-8.8,1.5-23,2.7-29.9,5.2C67.4,9.4,84.3,7,91.1,6.2l3.1,3.4c10.2-2.5,8.6,2.7,18.8-0.6l-1.9-1
							c18.8,0.2,19-3.1,36.5-3.5l-0.8,1.3c6,0.5,14.9-2.6,20.8,0.4l-11.4,0.1c1.2,2.3,9.9,3.4,13.8,4.6c12.1-0.6,4.3-3.8,10.3-4.1
							c2.6,2.2,0.6,1.2-3.6,3.3c13.5-0.8,31.7-1.7,41.3-4.5c0.6,0.3-0.1,0.8-0.1,0.8c14,0.4,26.4-3.6,35-1.7L250.3,5
							c11.3,3.2,29.1-3,31.4,2.5c5.3,1-12.1-0.2-3.6,2.5c16.7,1.7,11.1-4.6,25.8-3.1c-2-0.2-1.4,0.2-2,0.7
							c10.7-0.1,24.8-0.7,36.5-1.2c14.4,4.5,44.1-1.1,60.7,4.1c-5.3-1.9,4.1-2.2,4.2-3c0,0-0.7,0.5,0,0.8c6,0.1,6.8-1.6,9-2.4
							c4.9,1.6,16.7-1.7,19.8-0.7c0.1-1.2,4.9-0.9,10.3-0.8c-10.8,1.3-3.5,2.5-8.3,4.3c16.1,0.6,18.5-5.1,35.2-4.2l9.3,2.2
							c1.9-3.3,17.4-2,17.1-3.2c2.9,1,7.1,1.7,6.4,3.3c6.7-0.8,16.7,0.9,19.5-1.1L515,4.8c20.7,1.3,33.2-3.5,49.1-1.3l-0.3,5
							c10.6,2.1,19.7-2.8,28.9,0.3c-3.2-1.7-3.9-1.2,2.9-2.8c-4-0.3-11.5,1-18.2,0.9L591.6,4l-22.3,1.4c9.5-2,8.8-1.5,4.9-3.5
							c13.5-1.6,14.6,2.4,27.5,0.4c4.7,0.7-0.1,2.5,5.2,3.5c11.5-1.8,21.9,3.6,30.1,1c2.6,0.5-4.7,0.2-4.1,1.3
							c7.4-0.5,12.7-0.3,14.9-1.8l-6.4-0.6c5.6,0.1,6.5-1.9,17.2-0.7c6.1-1.2,9.6-3.6,2.9-3.7c2.7-0.3,8.7,1,6.6,2.5
							c16.6,0.1,7.9-5.3,24-3c-1.1,0.2-2.3,0.4-1.7,0.7c4,0.4,7.3,0.4,10.1,0c-14.2,0.4,4.4,4-12.3,3.1c1.8,2.7,12.7,0.6,18.1,1.6
							c8.2-1.8,0.9-3.8,5-5.2c-0.1,0.8,3.3,0.8,7.3,1.2l-3.9-2c3.4,0,6.7,0,10.8-0.5l-6.8,0.8c7.4,0.4,18.6,3.6,31.5,1.6
							c-3.4,0.8-10.3,2.5-1.6,3.5c14.2-1.3,3.3,0.8,11.3,2.4c14.1-0.4,2.4-3.6,23.2-2.4c2.2,0,0.2-1.2-2.1-1.7
							c14.2,1,21.9-0.4,35.7,1c-6-0.5-10.7-1.2-2.5-2.2c-3.5,1.7,11.3,1.5,16.6,2.6l1.4-1c4.3,1.1-0.3,1.5-3.8,1.9
							c0.1-0.3-1.1-0.7-3.7-0.6c-6.8,0.8-4.3,4.7,6.4,5c11.5-0.9,9.6-3.6,7.7-4.6c15.4,1.1,14.4-4.6,29.1-3.1
							c3.4,0,14.5,4.1,25.3,4.4C898.7,5.4,879.9,6,886,4c3,1,6.1,1.5,9.2,1.8l2.6,0.1c1.2,0,2.3,0,3.5,0c2.4-0.1,4.8-0.1,7.2-0.2
							c0.1,4.1,0.2,8.2,0.2,12.3c0,2.1,0.1,4.3,0.1,6.5l0.1,2.8l0.1,2.1c0.2,5.7,0.4,11.6,0.6,17.7c0.4,12.1,0.5,24.9-0.1,38.5
							l-1.6-5.2c-0.1,9.6-0.2,19,0,29.8l0.9-14.2c0.4,9.6,0,32.2-1.2,24.8c1.3,21.7,0.5,26.3,0.1,46.5c0.1-21.4,0.2-0.4-0.6-16
							c-0.8,22.5-0.2,24.2,0.1,39.8C907.1,190.4,906.9,190.6,906.7,191.3z M385.5,1218.2c-4.4,0.2-5.8-0.1-6.4-0.4
							c2.1,0,4.5-0.1,7.7-0.2c0.1-0.1,0.4-0.1,0.5-0.2C386.8,1217.8,386.3,1218.1,385.5,1218.2z"/>
					</g>
				</g>
			</g>
		</g>
	</g>
</g>
</svg>
