<?xml version="1.0" encoding="UTF-8"?>
<svg width="580px" height="580px" viewBox="0 0 580 580" version="1.1" xmlns="http://www.w3.org/2000/svg" xmlns:xlink="http://www.w3.org/1999/xlink">
    <!-- Generator: Sketch 45.1 (43504) - http://www.bohemiancoding.com/sketch -->
    <title>Mask</title>
    <desc>Created with Sketch.</desc>
    <defs>
        <path d="M576.602642,234.387222 L576.602642,241.128823 C577.232045,242.119508 578.041163,237.429365 578.569491,237.901296 C578.010017,250.313502 578.950604,260.09251 578.996338,269.740161 L578.159413,267.917333 C578.287467,272.617885 578.4765,274.879243 578.834746,276.588902 L578.840844,283.835755 C578.540527,279.66063 578.276796,278.27229 577.606037,277.97118 C577.837754,285.678792 577.625855,296.26817 578.746328,298.25671 L578.560344,297.953579 C578.159413,308.217596 577.923123,329.679275 577.551157,328.980053 C577.920074,340.014024 577.273706,354.004532 578.381984,354.313726 C578.648763,360.889649 576.952047,371.365858 578.343872,376.070452 C577.609086,383.871025 578.045079,376.484731 577.221875,374.092017 C576.490138,381.886527 578.357592,389.820477 576.763015,392.419321 C577.255413,401.529419 577.093821,390.305487 577.801167,393.36711 C576.317874,395.290982 577.561828,410.287886 576.714232,418.820015 C577.316391,422.651591 577.08315,414.927812 577.720371,421.525965 C577.348404,420.877264 577.27828,424.38348 577.244742,426.157807 L578.176182,427.847258 L576.602642,433.789504 L576.602642,441.838075 C577.221302,443.657434 577.583164,438.231672 577.903305,451.07518 L577.825558,450.038472 C576.863628,454.702649 578.546624,462.291029 577.814887,474.676964 C577.999346,470.437171 577.369747,472.936992 577.102968,471.585028 L577.481032,478.486311 C577.430725,477.865903 577.369747,477.562772 577.261511,478.231681 C576.561787,484.300365 577.639575,483.489995 577.013025,490.552948 C576.938577,488.636445 576.7835,487.702918 576.602642,487.406592 L576.602642,497.157169 L576.837713,499.412459 L576.602642,498.65139 L576.602642,571.19679 C577.038423,571.68408 576.902888,572.196385 576.602642,572.719018 L576.602642,573.874784 L575.83969,573.874784 C575.767424,573.993012 575.701721,574.11122 575.647115,574.229245 L570.845089,574.56269 C571.003632,575.201286 574.297974,575.569085 576.416964,575.599398 C578.388081,576.027823 568.689512,577.64048 563.440821,577.887027 C549.31829,577.761733 560.509298,575.688316 550.833596,575.227557 L538.349852,576.32085 L538.195882,575.682254 C536.20952,575.253828 535.063131,575.959113 534.543293,576.108658 C535.390889,575.162889 524.376717,575.803506 519.295716,575.647899 L521.120486,576.470394 C506.970514,578.420537 498.793349,574.394957 487.617585,575.425603 L479.736164,576.834152 L478.100426,575.613544 C473.490481,576.337017 472.67185,577.288848 465.118186,576.858402 C438.546973,574.718297 409.9833,577.333307 383.055365,575.985385 C383.38922,576.233952 384.207851,576.32085 385.843589,576.508791 C362.225241,573.449188 348.892376,579.639124 327.588148,577.256514 L329.050098,576.799797 C318.220385,577.044322 330.531866,576.343079 322.650445,575.670128 C321.158006,577.161533 308.883111,576.828089 302.63133,577.375746 C303.608505,577.068573 305.754934,577.100907 307.561411,576.886694 C306.392155,576.551229 305.925673,575.664066 302.795971,575.938905 C295.881053,578.072947 280.967331,577.856714 269.968404,578.493289 C268.645179,577.517207 259.143264,576.660356 254.213183,575.075991 C253.066795,575.427624 251.033175,576.179389 249.184013,576.908924 C245.200618,576.278411 242.226411,576.763421 239.381782,577.341391 C242.886499,577.311078 245.970467,577.284806 248.334893,577.264598 C248.244951,577.302994 248.159581,577.337349 248.089456,577.365641 C248.446178,577.298953 249.0834,577.280765 249.626105,577.248431 C252.02102,577.19993 253.27412,577.145366 252.700926,577.064531 C257.120315,578.002217 252.403658,577.820338 252.700926,578.956069 C249.098644,578.913631 241.648643,579.309722 240.814767,578.450851 C238.656142,578.436704 237.229254,578.309389 234.982211,578.139636 C233.611728,578.313431 232.155875,578.410433 230.530808,578.307369 L231.259497,578.190158 C231.003389,578.030509 230.671058,577.931486 230.328056,577.830442 C223.286609,577.343412 213.371567,579.042967 207.571024,579.827066 C213.318211,578.392245 206.093829,578.210367 206.093829,577.171638 C205.420021,577.254493 212.623061,577.31512 221.565501,577.343412 C220.923707,577.230243 220.419113,577.044322 220.259045,576.670461 C212.516349,575.565043 207.032892,577.64048 195.774808,576.874569 C196.501972,576.757358 197.947153,576.518895 197.41207,576.132908 C193.44392,575.839882 189.756268,576.670461 188.849219,577.290869 C187.853751,576.272349 179.315291,575.536751 175.081885,575.987406 C171.374416,576.828089 171.911023,577.214076 165.177515,577.127178 L168.133429,576.407747 C160.200176,575.807548 161.643833,577.464664 155.100882,576.874569 C157.70922,577.161533 157.951608,576.407747 155.988113,576.260223 C147.701187,576.658336 147.512155,577.052406 141.57746,578.491268 L142.672017,577.365641 C135.641241,578.038592 122.361732,579.414807 122.209287,577.889048 C124.434988,580.233261 106.858047,579.121781 100.729746,579.077321 C102.838065,579.008612 103.220702,578.513498 103.432601,578.26493 C90.5692681,579.812919 77.3918977,578.313431 64.3730704,578.339703 L62.3028634,576.632064 C55.4199588,576.698753 53.4595124,580.071591 45.9973158,579.99884 L48.6955973,579.180386 C35.4663955,579.453204 30.1231883,579.309722 19.4184804,579.018716 L19.625806,577.872881 C17.7110932,578.139636 15.5570413,578.270993 13.3999405,578.40437 C10.5172002,578.586249 7.6298865,578.770149 5.04898783,578.933839 C3.99559091,578.729731 2.82176222,578.56402 1.49548824,578.428621 C1.65555579,575.328601 1.75464523,572.016389 1.81104998,568.437421 C1.82781896,567.206709 1.84458794,565.915371 1.86288138,564.573511 C1.86288138,563.379174 1.86288138,562.136337 1.86288138,560.855103 C1.83391677,555.730167 1.69824047,549.968656 1.59000432,544.019204 C1.37200756,532.118279 1.26834477,519.463568 2.35223074,509.634038 L0.742408536,508.294199 C0.774422046,500.182412 0.454286948,489.791079 1.6616536,485.981732 L1.63878681,487.784351 C2.86902026,488.586638 1.66470251,479.666502 1.93757957,474.610276 C1.80342772,470.78072 1.00004107,466.951164 0.757653065,470.245188 C1.57323534,448.702675 0.727164008,416.698098 2.18454093,403.293642 C1.65708024,381.700607 0.379588759,365.408323 0.545754119,342.089461 L0.734786272,342.362279 C0.952783029,334.499059 1.38877654,318.740286 2.73029505,318.784745 C2.41778222,301.991285 0.571669818,291.282675 1.16925533,271.257837 L1.68147149,275.594632 C1.94825074,270.518197 1.30645609,262.372055 1.14943745,260.345119 C1.17535315,258.570792 1.44213239,259.866172 1.63116455,260.114739 C2.0885004,255.317185 1.3643853,252.479879 1.23328235,248.650323 L1.68909375,250.208416 C2.61138773,234.251598 0.79271548,209.079595 1.01681005,188.549539 C1.15248635,192.330593 1.6616536,190.323866 1.87660145,188.804169 C0.379588759,180.383188 0.737835178,157.28258 0.391784382,148.689825 L0.977174275,153.986535 C-0.00457335854,137.243597 2.55193407,139.496871 1.55951526,122.889331 L0.699723857,132.427855 C0.954307482,125.653886 0.666185894,119.908542 0,121.521199 C0.495447175,113.65798 1.14181518,120.555222 1.28511375,108.670463 C1.70281383,108.171307 1.57171089,117.232905 2.1144161,113.33464 L3.22726668,96.8847277 C3.34769845,96.399718 3.37818751,94.3283224 3.26080464,88.9022765 C1.39639881,90.3310342 3.1586663,75.2633998 1.34456741,83.5287733 C1.2058422,60.2240576 2.4376001,40.5447894 1.57323534,20.5401604 C1.88727262,19.1215071 2.09459821,17.0076732 2.23484787,14.4876437 C2.26533693,13.8530893 2.29582599,13.1942845 2.3278395,12.5152709 C2.35070629,11.4927088 2.37509754,10.4378127 2.39948878,9.36068705 C2.42997784,7.2428114 2.46199135,5.02995468 2.49400486,2.77668049 C5.4605901,2.81709796 8.52931368,2.85751543 11.4410186,2.89591203 C13.5600081,2.93228776 15.5646636,2.98078873 17.2690019,3.08587416 C20.6776784,3.29604503 22.8850861,3.72851201 22.3911634,4.73894886 C30.9204771,4.76724109 37.8292974,4.15087461 43.0810375,2.89591203 C41.3782236,2.65138631 39.2043539,3.04141494 37.4801977,3.19500134 C39.7089478,2.40888147 49.9761377,2.27954555 54.2568013,2.28964992 C48.6483393,2.99291397 39.5869915,3.59715521 35.1996162,4.78138721 C42.9438367,4.48027703 53.7522074,3.32433726 58.0709823,2.93835038 L60.0466732,4.53484062 C66.5743803,3.36475474 65.5179345,5.82213717 72.0608861,4.24989742 L70.8230304,3.77297123 C82.7991319,3.88614015 82.9546261,2.29773341 94.096852,2.09362517 L93.6075026,2.72413777 C97.4384526,2.97472611 103.124662,1.48332131 106.8489,2.92420427 L99.5787844,2.98483048 C100.31662,4.0983319 105.877824,4.59142508 108.3825,5.15322797 C116.091658,4.86020129 111.09755,3.33242076 114.960514,3.18489698 C116.596252,4.22766781 115.362969,3.74467899 112.681457,4.77128284 C121.297664,4.39944208 132.889604,3.95687074 139.014855,2.61905234 C139.397493,2.78274311 138.961499,3.01514358 138.961499,3.01514358 C147.916135,3.20308484 155.808228,1.31558879 161.288636,2.2067941 L159.552284,2.36240137 C166.72331,3.89624452 178.104875,0.911414046 179.58207,3.536529 C182.977026,4.02558044 171.874436,3.43346444 177.318257,4.72278187 C187.974183,5.5513401 184.367327,2.51800865 193.730517,3.2596693 C192.446927,3.17681348 192.860054,3.3364625 192.424061,3.5749256 C199.212449,3.51632027 208.220441,3.2596693 215.697882,2.99291397 C224.887284,5.13099836 243.83166,2.45940331 254.385447,4.94911973 C251.024028,4.06599792 257.030372,3.92453676 257.045617,3.53046638 C257.045617,3.53046638 256.611148,3.76286686 257.030372,3.92453676 C260.876567,3.99122559 261.349147,3.15458387 262.792804,2.80497272 C265.943848,3.56280036 273.442632,1.98853974 275.444238,2.48769554 C275.497594,1.93397615 278.578513,2.07947905 282.005483,2.08756255 C275.130201,2.70797078 279.795027,3.27381542 276.703436,4.14077024 C286.964528,4.41358819 288.472212,1.70965916 299.147956,2.14010526 L305.050637,3.1909596 C306.250381,1.59649024 316.148654,2.24316982 315.927608,1.65105383 C317.755427,2.14818876 320.430842,2.4371737 320.03296,3.23541882 C324.313623,2.85145281 330.702605,3.66788579 332.477068,2.71807515 L328.226894,2.30379604 C341.448473,2.90399553 349.35581,0.61434561 359.537631,1.67934606 L359.330305,4.06599792 C366.103449,5.04410079 371.859783,2.75445087 377.718255,4.20139645 C375.667866,3.40113046 375.222726,3.63959356 379.561319,2.85347369 C376.995665,2.68978292 372.242421,3.31019115 367.960233,3.29604503 L377.065789,1.89355867 L362.879231,2.57257224 C368.954176,1.63286596 368.519707,1.86728731 366.033324,0.903330551 C374.663252,0.135398539 375.344682,2.04916595 383.555385,1.11754316 C386.535691,1.44694558 383.470016,2.30985866 386.863448,2.79486835 C394.188444,1.94610139 400.806094,4.51261101 406.060883,3.25158581 C407.748452,3.4981324 403.047039,3.32433726 403.452544,3.88209841 C408.182921,3.65576055 411.577877,3.75074162 412.951409,3.03333145 L408.89484,2.77061786 C412.449864,2.83528582 413.039828,1.86122469 419.826692,2.41898584 C423.739962,1.86930819 425.965663,0.687097063 421.700244,0.672950947 C423.427449,0.519364545 427.224861,1.16402326 425.881819,1.88143343 C436.467619,1.90972566 430.947575,-0.666888326 441.161409,0.470863576 C440.466259,0.543615029 439.720801,0.664867452 440.104964,0.808349486 C442.658422,0.976082005 444.783509,0.982144626 446.525959,0.830579097 C437.492051,1.03468734 449.346197,2.74636738 438.670453,2.3139004 C439.842758,3.58705085 446.785116,2.57661399 450.178548,3.06364455 C455.384554,2.20477322 450.753267,1.23677471 453.37685,0.608282988 C453.329592,1.00841598 455.485168,1.01245773 458.031005,1.18019025 L455.555293,0.220275235 C457.716967,0.222296109 459.84053,0.22835873 462.433624,0 L458.098081,0.38598688 C462.799493,0.555740272 469.947653,2.08756255 478.179698,1.16402326 C475.987535,1.55405189 471.638271,2.33208827 477.155266,2.82720233 C486.190698,2.21487759 479.263584,3.2293562 484.362879,3.96091248 C493.338857,3.75074162 485.923918,2.2451907 499.171414,2.83932757 C500.599826,2.84539019 499.278125,2.28156642 497.842091,2.01683197 C506.872949,2.4836538 511.806079,1.81070285 520.580829,2.50386253 C516.751404,2.25529507 513.792441,1.92589265 518.96186,1.46917519 C516.751404,2.25529507 526.163376,2.20477322 529.556808,2.69382466 L530.444039,2.21487759 C533.152992,2.73424214 530.251958,2.94037126 528.041502,3.1141664 C528.111626,2.9524965 527.320435,2.7989101 525.680124,2.83932757 C521.361349,3.22531445 522.926962,5.06026778 529.770231,5.2360838 C537.092178,4.78542896 535.909203,3.50419502 534.656103,3.02524795 C544.453761,3.53450813 543.827211,0.824516476 553.1904,1.57021888 C555.332256,1.57426062 562.4545,3.50419502 569.290147,3.68607366 C572.805535,2.58469748 560.803518,2.86357805 564.733557,1.92387178 C566.658941,2.38867273 568.601094,2.64734457 570.57526,2.76455524 L572.252159,2.82720233 C572.989994,2.83124408 573.730878,2.83528582 574.476335,2.84134844 C575.988593,2.81103534 577.51457,2.78274311 579.057316,2.75243 C579.106099,4.69044789 579.156406,6.64665365 579.206713,8.62508902 C579.237202,9.64360937 579.269215,10.6681923 579.299704,11.6988379 L579.350011,13.0164476 L579.401842,14.0390097 C579.532945,16.7772936 579.668622,19.5802454 579.805822,22.4620113 C580.03449,28.2235223 580.124433,34.3002896 579.717404,40.7994194 L578.703643,38.3278909 C578.638092,42.8991072 578.569491,47.3975721 578.682301,52.5427166 L579.234153,45.7970401 C579.464345,50.3743191 579.264642,61.1395134 578.493269,57.6211723 C579.316473,67.9579413 578.833222,70.138464 578.574065,79.7638856 C578.654861,69.5604942 578.714314,79.579986 578.189902,72.1310455 C577.692931,82.8335927 578.031359,83.6641718 578.256978,91.0726949 C577.898732,89.8460245 577.349929,93.7463108 577.348404,96.6119097 C577.996297,103.533402 577.856047,115.412098 578.199049,125.106229 L577.898732,125.079958 C578.284419,141.315657 576.878873,158.945759 577.773727,175.308774 L577.773727,175.349191 L577.773727,175.308774 C577.787447,175.603822 577.801167,175.884723 577.813363,176.125207 L577.875865,174.843973 C578.833222,169.217861 578.549673,187.545164 578.947556,192.536722 C578.703643,193.627994 578.284419,194.14938 578.279845,196.97254 C579.179272,197.13421 578.746328,203.287771 579.164028,205.623901 C578.854564,211.250013 578.08624,204.90649 578.130449,214.552121 C578.208196,218.284674 578.676203,218.729267 579.019205,218.284674 C578.563393,220.321715 578.206671,226.481338 578.098435,231.575961 C577.862145,229.846093 578.16856,227.057287 578.110631,225.903368 C577.633477,225.254668 577.80574,228.690153 577.203581,228.601235 C577.13803,233.119908 578.042031,230.424063 577.731042,236.076447 L577.020647,230.832279 C576.840762,233.0997 577.134981,235.985507 577.191386,237.111134 C577.101846,235.341074 576.867024,234.611751 576.602642,234.387222 Z M576.602642,472.316684 L576.602642,476.442625 C576.647671,476.221749 576.692169,475.908745 576.735574,475.487335 C576.694513,474.360401 576.650028,473.307797 576.602642,472.316684 Z" id="path-1"></path>
    </defs>
    <g id="-" stroke="none" stroke-width="1" fill="none" fill-rule="evenodd">
        <g id="d-01-homepage-singaporeZoo" transform="translate(-129.000000, -1910.000000)">
            <g id="what's-on" transform="translate(0.000000, 1759.000000)">
                <g id="01" transform="translate(129.000000, 151.000000)">
                    <g id="img">
                        <mask id="mask-2" fill="white">
                            <use xlink:href="#path-1"></use>
                        </mask>
                        <use id="Mask" fill="#231F20" xlink:href="#path-1"></use>
                    </g>
                </g>
            </g>
        </g>
    </g>
</svg>