<?xml version="1.0" encoding="UTF-8"?>
<svg width="910px" height="512px" viewBox="0 0 910 512" version="1.1" xmlns="http://www.w3.org/2000/svg" xmlns:xlink="http://www.w3.org/1999/xlink">
    <!-- Generator: Sketch 45.1 (43504) - http://www.bohemiancoding.com/sketch -->
    <title>Mask</title>
    <desc>Created with Sketch.</desc>
    <defs>
        <path d="M908.02603,149.252885 L908.02603,156.316874 C908.506342,157.78294 909.141398,152.49876 909.552424,153.013939 C909.130906,166.148526 909.839057,176.497195 909.873544,186.705884 L909.2428,184.776588 C909.339366,189.751222 909.481916,192.143824 909.752454,193.953681 L909.756286,201.62218 C909.530199,197.203664 909.331702,195.73539 908.825113,195.415108 C909.000618,203.572778 908.841208,214.778828 909.685011,216.88158 L909.54476,216.560537 C909.2428,227.421962 909.064229,250.133043 908.784494,249.395102 C909.062696,261.070543 908.575268,275.875006 909.410641,276.201374 C909.611437,283.159319 908.33232,294.246691 909.382284,299.223607 C908.827412,307.478655 909.156197,299.663329 908.535415,297.130746 C907.983609,305.378947 909.393013,313.774736 908.18977,316.524136 C908.560706,326.164535 908.438849,314.287491 908.973028,317.528344 C907.854088,319.564148 908.792925,335.43292 908.152983,344.463186 C908.60669,348.515774 908.431952,340.34365 908.912483,347.32594 C908.631215,346.63897 908.5791,350.349976 908.553809,352.22678 L909.255828,354.015336 L908.02603,360.53289 L908.02603,368.622377 C908.518437,371.110317 908.800637,364.591574 909.049668,378.594092 L908.990655,377.498592 C908.26641,382.432906 909.535563,390.462007 908.983757,403.569966 C909.121709,399.083742 908.647309,401.729679 908.446513,400.297921 L908.730846,407.601254 C908.693293,406.944715 908.647309,406.624433 908.565305,407.332704 C908.038023,413.75355 908.850404,412.89617 908.378304,420.369913 C908.316377,418.133132 908.180395,417.161814 908.02603,416.965029 L908.02603,426.783241 L908.245717,429.744805 L908.02603,428.746707 L908.02603,507.010263 C908.715268,507.300113 908.489725,507.605908 908.02603,507.917872 L908.02603,508.196137 L907.569444,508.196137 C907.255558,508.377291 906.929098,508.559531 906.719054,508.740994 L899.933374,508.928902 C900.157928,509.291026 904.812258,509.497193 907.806571,509.515451 C910.592425,509.756613 896.886945,510.668008 889.468221,510.806467 C869.512774,510.736477 885.327378,509.565661 871.652554,509.304719 L854.011626,509.92246 L853.793202,509.561858 C850.986656,509.320696 849.366493,509.717814 848.631518,509.80302 C849.830929,509.268964 834.265404,509.631087 827.083497,509.542839 L829.66319,510.006904 C809.667123,511.10773 798.110621,508.834567 782.317475,509.416552 L771.179426,510.21155 L768.867206,509.522298 C762.352831,509.931589 761.197104,510.469449 750.522725,510.226004 C712.972332,509.017912 672.606197,510.494554 634.551515,509.732269 C635.025148,509.873771 636.181641,509.92246 638.493095,510.028206 C605.114968,508.301272 586.275394,511.796221 556.16825,510.45043 L558.23369,510.193292 C542.929507,510.330229 560.327487,509.935393 549.189438,509.555772 C547.080313,510.397176 529.734448,510.208507 520.898655,510.517377 C522.279703,510.344684 525.313869,510.362942 527.865205,510.24198 C526.214386,510.05255 525.553751,509.551968 521.132406,509.707164 C511.359311,510.912213 490.284156,510.78973 474.740857,511.149572 C472.871614,510.598018 459.442804,510.114172 452.476254,509.219514 C450.856091,509.418834 447.981335,509.842579 445.367921,510.254913 C439.738734,509.898876 435.536579,510.172751 431.515293,510.499119 C436.467752,510.481621 440.827018,510.467167 444.169276,510.455755 C444.039755,510.477056 443.920197,510.496076 443.822098,510.512052 C444.325621,510.474013 445.226904,510.464884 445.992535,510.445865 C449.376944,510.419238 451.148088,510.388047 450.339539,510.343162 C456.583376,510.871893 449.918021,510.76919 450.339539,511.411274 C447.81701,511.399212 443.959413,511.448034 440.565702,511.441332 C440.388077,511.485412 440.181125,511.525863 439.929335,511.561034 C436.758012,511.651566 435.6954,511.526039 435.260304,511.394425 C435.568975,511.390192 435.888412,511.385797 436.221185,511.381207 C434.845328,511.33457 433.856795,511.255398 433.540881,511.125227 C430.491387,511.116859 428.47423,511.045347 425.299046,510.94873 C423.361595,511.047629 421.305351,511.102404 419.008459,511.043825 L420.038497,510.9784 C419.675991,510.887869 419.205423,510.831572 418.722593,510.775276 C408.770926,510.499119 394.758122,511.459963 386.561505,511.901967 C394.684548,511.092514 384.474605,510.98905 384.474605,510.403262 C383.521207,510.448908 393.700494,510.484664 406.339148,510.499119 C405.432501,510.435975 404.718985,510.330229 404.491365,510.119497 C393.549513,509.49491 385.802771,510.668008 369.892368,510.234373 C370.91934,510.168947 372.961022,510.034292 372.204588,509.816713 C366.59686,509.650867 361.386126,510.119497 360.103944,510.47021 C358.699138,509.895072 346.632215,509.479695 340.649719,509.734551 C335.410629,510.208507 336.167063,510.426085 326.651476,510.377396 L330.829873,509.971149 C319.617484,509.632609 321.659166,510.567587 312.411052,510.234373 C316.097422,510.397176 316.441534,509.971149 313.665644,509.888225 C301.955862,510.113411 301.68839,510.335554 293.30094,511.14805 L294.847529,510.512052 C284.911191,510.892433 266.145191,511.669934 265.929833,510.807989 C269.075127,512.131718 244.23773,511.504088 235.576676,511.478982 C238.556428,511.440183 239.097504,511.160983 239.395633,511.019481 C221.216693,511.894359 202.595543,511.047629 184.19818,511.062845 L181.27131,510.098196 C171.544198,510.136234 168.774438,512.040426 158.229581,511.999345 L162.04164,511.537561 C143.346149,511.691996 135.795604,511.610594 120.669991,511.445509 L120.961988,510.79886 C115.551225,511.100122 108.78777,511.097079 103.330257,511.398341 C90.9835991,509.828125 54.3344894,512.225292 31.7135123,510.471731 L30.2864809,511.677542 C25.9624684,511.665369 21.0314694,511.719384 16.6737355,511.663087 C14.4948685,511.634939 12.4593178,511.579403 10.7142316,511.474418 C9.84207166,511.421925 9.04195308,511.35726 8.33380216,511.27738 C7.95520198,511.230213 7.60112652,511.186088 7.27310856,511.145768 C6.75195852,511.09784 6.28598908,511.045347 5.87826582,510.98905 L8.42193782,511.006548 C8.52923342,510.890912 8.47328643,510.804185 8.28398634,510.740281 C8.1889531,510.708329 8.06019839,510.682463 7.90155419,510.661161 C7.82261528,510.652032 7.73601241,510.642903 7.64174557,510.632252 C7.53828196,510.624645 7.47773659,510.617037 7.28383812,510.610951 C5.94417597,510.563023 3.9760682,510.583563 1.61939709,510.626166 C1.57341326,508.524176 1.52129826,506.145268 1.46994965,503.811244 C1.42856421,502.191578 1.41017068,500.602343 1.46151929,499.268724 C1.36035487,495.215374 0.754901152,491.162786 0.571732243,494.647845 C1.18714912,471.851558 0.54874033,437.986159 1.64775378,423.801718 C1.24999368,400.949896 0.286632518,383.710228 0.411555247,359.034094 L0.554871506,359.323945 C0.718880488,351.00195 1.04766485,334.326769 2.05930903,334.372415 C1.82402512,316.602495 0.431481572,305.270919 0.882123072,284.079844 L1.26838721,288.669531 C1.46918326,283.298539 0.984820284,274.676803 0.866795129,272.53145 C0.886721454,270.654645 1.08828389,272.024781 1.23006736,272.287244 C1.57571245,267.212189 1.02927132,264.209455 0.930406089,260.156866 L1.27375199,261.80468 C1.96887417,244.919528 0.597789744,218.283667 0.767163505,196.557775 C0.869094321,200.558632 1.25382567,198.43534 1.41553546,196.826325 C0.286632518,187.915499 0.556404301,163.470637 0.295062887,154.37951 L0.738040415,159.982535 C-0.00306558843,142.26739 1.92518954,144.650863 1.17641956,127.075698 L0.528047608,137.171034 C0.720413282,130.002357 0.502756503,123.923093 0,125.629486 C0.374001789,117.306731 0.86143035,124.60702 0.969492342,112.030834 C1.28524795,111.502864 1.18561633,121.091531 1.59487238,116.965148 L2.43484361,99.558112 C2.52527847,99.0453572 2.54827038,96.8543575 2.45936832,91.110591 C1.05302963,92.6245109 2.38272861,76.6789022 1.01470977,85.4254033 C0.909713367,60.7637241 1.83858666,39.9385766 1.18714912,18.7718461 C1.42396583,17.2700984 1.57954444,15.0319314 1.68530724,12.3654544 C1.73818864,11.0325962 1.77880769,9.59247042 1.81022997,8.08463662 C1.83322188,5.98949319 1.85698019,3.79925428 1.8807385,1.5686949 C5.5402847,1.59151781 9.32552001,1.61434073 12.9176233,1.63640288 C15.9119368,1.6569435 18.7453069,1.68433099 21.154093,1.74367057 C25.9716652,1.86158895 29.090135,2.10579412 28.3911809,2.67712772 C40.445841,2.69310376 50.2097401,2.34467395 57.6315297,1.63640288 C55.2242764,1.49718311 52.1533232,1.71856536 49.715414,1.80529243 C52.8660725,1.36024563 67.3739698,1.2872123 73.424675,1.29405918 C65.4985961,1.6904171 52.6943996,2.0327608 46.4934806,2.7007114 C57.4376313,2.53106107 72.7111592,1.87756499 78.8139794,1.65998655 L81.6051977,2.56149162 C90.8318525,1.90114867 89.3373781,3.28802103 98.585492,2.4002097 L96.8358074,2.13089933 C113.760155,2.19480349 113.978578,1.29862376 129.724973,1.18298767 L129.033683,1.53902511 C134.447512,1.68052718 142.483952,0.838361678 147.747567,1.65237892 L137.472481,1.68661329 C138.514781,2.31576493 146.372651,2.59268294 149.914938,2.9106822 C160.806974,2.74559646 153.751522,1.88212958 159.20827,1.79920632 C161.52049,2.38879825 159.776936,2.11568405 155.989402,2.69538605 C168.164386,2.48541525 184.546891,2.23512397 193.201813,1.47892478 C193.74289,1.57173796 193.127473,1.70335009 193.127473,1.70335009 C205.782222,1.80909625 216.935599,0.743266206 224.680042,1.24765259 L222.226805,1.33437966 C232.359341,2.2008896 248.444483,0.515037075 250.532149,1.99776567 C255.328262,2.27392292 239.640113,1.93918686 247.331675,2.66799855 C262.389845,3.13510751 257.292538,1.42262826 270.52515,1.8418091 C268.711089,1.7954025 269.295083,1.88441187 268.680433,2.01982782 C278.271892,1.98711498 291.003281,1.8418091 301.569598,1.6904171 C314.555431,2.89774921 341.327215,1.38991541 356.241302,2.79580687 C351.491173,2.2975066 359.979021,2.21686564 360.001246,1.99396185 C360.001246,1.99396185 359.38583,2.12557398 359.979021,2.21686564 C365.415076,2.25414306 366.081841,1.78246952 368.123523,1.58467094 C372.574757,2.01222018 383.172497,1.12288733 386.000502,1.40513069 C386.077908,1.09321754 390.431044,1.17538003 395.273141,1.17994461 C385.558291,1.53065671 392.149306,1.84941673 387.780842,2.3393486 C402.282609,2.49302289 404.413192,0.966169992 419.498953,1.20885364 L427.839653,1.80224938 C429.536456,0.902265835 443.524736,1.26743245 443.21128,0.93345715 C445.794038,1.21341822 449.575441,1.37698243 449.012906,1.82811535 C455.062845,1.61053691 464.092535,2.07155975 466.597887,1.53598206 L460.593932,1.30166682 C479.276395,1.64096746 490.451997,0.348429808 504.840337,0.948672425 L504.548339,2.2975066 C514.11834,2.84906033 522.252879,1.55576192 530.532267,2.37282221 C527.636052,1.92092853 527.006074,2.05634448 533.136484,1.61205844 C529.511426,1.51924526 522.793955,1.86995735 516.744017,1.86158895 L529.610291,1.07039463 L509.562109,1.45305881 C518.148823,0.922806457 517.534172,1.05594012 514.020241,0.511233256 C526.215918,0.0775979049 527.178513,1.15788246 538.780999,0.632194696 C542.993118,0.81858182 538.660675,1.30470987 543.456788,1.57934559 C553.808514,1.10006442 563.160857,2.5493194 570.584946,1.83724451 C572.97074,1.97570352 566.326844,1.87756499 566.899343,2.19328196 C573.585391,2.06547364 578.381504,2.11796634 580.325087,1.71400078 L574.590904,1.56489108 C579.614637,1.60216851 580.447711,1.05137553 590.039937,1.3670925 C595.570258,1.05670088 598.715552,0.389511052 592.687072,0.38114265 C595.128047,0.29441558 600.495893,0.658060664 598.595994,1.06278699 C613.555299,1.07952379 605.755676,-0.375817304 620.189999,0.266267321 C619.205945,0.308109328 618.154448,0.376578068 618.695525,0.456458264 C622.305255,0.551553736 625.308765,0.555357554 627.771199,0.469391248 C615.00379,0.585788105 631.755698,1.5519581 616.669937,1.30775293 C618.326888,2.02667469 628.137537,1.45610186 632.932884,1.73073758 C640.290296,1.2453703 633.744498,0.699902671 637.452328,0.344625989 C637.384885,0.569812066 640.431313,0.572855121 644.028781,0.666429065 L640.530178,0.124765259 C643.585804,0.126286786 646.586248,0.130090605 650.251159,0 L644.123814,0.218339203 C650.767711,0.314195438 660.869591,1.17994461 672.503499,0.658060664 C669.404189,0.878682158 663.258451,1.31764286 671.055009,1.59684316 C683.823185,1.25145641 674.033994,1.82431153 681.240426,2.23664549 C693.925065,2.11796634 683.44765,1.26895397 702.167666,1.6044508 C704.187889,1.60749385 702.318646,1.28873383 700.289226,1.13962413 C713.051271,1.40360916 720.023186,1.02246651 732.422724,1.41502062 C727.011961,1.27504008 722.830498,1.08865296 730.135029,0.829993277 C727.011961,1.27504008 740.31125,1.2453703 745.107363,1.52228831 L746.361955,1.25145641 C750.189342,1.54511122 746.091417,1.66074732 742.967582,1.75964661 C743.065681,1.66759419 741.946741,1.58162788 739.629156,1.6044508 C733.526336,1.82202924 735.739691,2.85742873 745.408557,2.95784955 C755.756451,2.70299369 754.084172,1.97950734 752.313795,1.7094362 C766.160292,1.9970049 765.275103,0.467108957 778.506949,0.887811323 C781.531918,0.890093615 791.597778,1.97950734 801.257447,2.08221045 C806.225233,1.46066644 789.264099,1.61814455 794.819711,1.08713143 C810.805989,2.63300342 827.678221,0.137698243 848.679035,1.06126546 L846.044928,1.82050771 C850.917681,1.86995735 855.713027,1.92092853 861.198131,1.83724451 L854.007027,1.42338902 C858.885911,1.25145641 870.362708,1.40056611 866.611961,1.97798581 C877.630452,1.36176715 879.954934,1.72312995 890.216991,1.91788547 C879.339517,1.85702437 890.020027,1.81213931 882.079387,2.20545418 C893.487974,2.57746766 894.373163,2.32413333 902.271652,2.15524377 C901.625579,2.28761667 902.31457,2.4549847 903.545404,2.59040065 C903.870356,2.62463502 904.154689,2.6565871 904.5969,2.68549612 C905.020718,2.70984056 905.469827,2.73494576 905.928899,2.7615725 C906.835546,2.80493603 907.759055,2.83232353 908.631981,2.83460582 C908.631215,2.87949088 908.631215,2.91981136 908.631215,2.95937108 C908.692527,3.95521086 908.744642,5.09863881 908.788326,6.36226744 C908.824347,7.46461414 908.8619,8.63542959 908.900987,9.86102003 C908.963831,12.2292777 909.00445,14.8082668 909.038172,17.4777869 C909.104848,22.8183486 909.143168,28.5248377 909.273456,33.653907 L909.046602,33.6265195 C909.337067,50.8076086 908.277139,69.4630578 908.952335,86.7788021 L908.952335,86.8214049 L908.952335,86.7788021 C908.963065,87.0899545 908.973028,87.3889346 908.982225,87.642269 L909.029741,86.2873487 C909.751687,80.3336114 909.537863,99.7270015 909.837524,105.009745 C909.653589,106.163824 909.337067,106.716138 909.333235,109.703658 C910.012262,109.874069 909.685011,116.386967 910,118.858689 C909.767015,124.812426 909.187619,118.098686 909.221341,128.307375 C909.279587,132.255739 909.632896,132.725891 909.891172,132.255739 C909.547826,134.410222 909.278054,140.929207 909.196816,146.3215 C909.018245,144.490342 909.250464,141.539339 909.206013,140.319074 C908.845806,139.632104 908.976093,143.267034 908.522386,143.171938 C908.471804,147.954099 909.154664,145.101235 908.91938,151.08236 L908.384435,145.53411 C908.248016,147.932798 908.470271,150.988025 908.512423,152.17786 C908.440523,150.17189 908.242584,149.429092 908.02603,149.252885 Z M908.02603,399.856221 L908.02603,405.684748 C908.074835,405.465439 908.123183,405.062934 908.169844,404.427347 C908.126575,402.762678 908.07828,401.251288 908.02603,399.856221 Z" id="path-1"></path>
    </defs>
    <g id="03.Animals-&amp;-Zones" stroke="none" stroke-width="1" fill="none" fill-rule="evenodd">
        <g id="d-03-animalhero" transform="translate(0.000000, -1463.000000)">
            <g id="content-carousel" transform="translate(0.000000, 1313.000000)">
                <g id="img" transform="translate(0.000000, 150.000000)">
                    <mask id="mask-2" fill="white">
                        <use xlink:href="#path-1"></use>
                    </mask>
                    <use id="Mask" fill="#231F20" xlink:href="#path-1"></use>
                </g>
            </g>
        </g>
    </g>
</svg>