<?xml version="1.0" encoding="UTF-8"?>
<svg width="78px" height="45px" viewBox="0 0 78 45" version="1.1" xmlns="http://www.w3.org/2000/svg" xmlns:xlink="http://www.w3.org/1999/xlink">
    <!-- Generator: Sketch 44.1 (41455) - http://www.bohemiancoding.com/sketch -->
    <title>logo-singaporezoo</title>
    <desc>Created with Sketch.</desc>
    <defs>
        <polygon id="path-1" points="7.55864615 0.473481481 0 0.473481481 0 16.4520333 7.55864615 16.4520333 7.55864615 0.473481481"></polygon>
        <path d="M54.0573555,36.1233503 C53.8594827,36.1233503 53.4701391,36.1000754 52.6809761,36.1981119 C50.1452953,36.5154962 47.7434697,37.998739 45.3166189,39.0094317 C45.0995409,38.1969278 45.3759808,37.4366161 45.7426273,36.5726254 C46.2774656,35.3143729 46.7971725,34.1252396 47.3104776,32.9875931 L47.3116416,32.9875931 C48.9679526,29.3165144 50.5474425,26.1920421 52.2875585,23.0379472 C52.5942613,22.4737084 53.3840062,20.5743395 53.3840062,19.8902 C53.3840062,19.4218818 53.1669282,18.6488746 52.5727281,18.1925465 C52.4441108,18.0966259 52.2532218,18.1135531 51.9453551,18.1135531 C51.6386524,18.1135531 50.3070854,18 49.7635174,18 L44.9523003,18.162924 C44.4971931,18.1608081 43.8488689,18.3540598 43.600946,18.9542689 C43.4618532,19.301981 43.2063646,19.7018853 43.2401193,20.2252168 C43.2849317,20.9305153 44.0176427,21.6287608 44.1369483,21.6760158 C44.5129065,21.8445821 44.8894467,21.8622146 45.3788907,21.908059 C46.3158762,21.9962213 46.8466407,21.6125389 47.7830442,21.7105754 C48.2724882,21.7627675 48.9097548,21.8593934 49.0255685,21.9644829 C47.4402588,25.6151079 45.5366069,29.3313257 44.1107593,32.9854772 C43.9350018,33.4333418 43.7679739,33.8812063 43.6085118,34.3276603 C43.1528225,35.6000188 42.5283595,36.789152 42.0732522,38.0735006 C41.5774065,39.4777499 40.5106397,41.0336384 41.2573182,42.5958746 C41.5494715,43.2073684 41.7764432,43.6150309 42.3211751,43.8675278 C42.6435913,44.0163458 43.0003441,43.9994186 43.1993808,43.9994186 C45.5569761,43.9994186 48.3824822,40.8446184 51.3633765,40.3494989 C52.3661257,40.1830484 53.7401771,40.7338866 53.9386318,40.7338866 C54.9984148,40.7338866 56,40.1936279 56,38.3330505 C56,36.999331 55.3254868,36.1233503 54.0573555,36.1233503" id="path-3"></path>
        <filter x="-3.3%" y="-1.9%" width="113.3%" height="107.7%" filterUnits="objectBoundingBox" id="filter-4">
            <feOffset dx="1" dy="1" in="SourceAlpha" result="shadowOffsetOuter1"></feOffset>
            <feColorMatrix values="0 0 0 0 0   0 0 0 0 0   0 0 0 0 0  0 0 0 1 0" type="matrix" in="shadowOffsetOuter1"></feColorMatrix>
        </filter>
        <path d="M59.0003229,25.5406872 C57.5962023,25.5406872 56.4588258,24.4033841 56.4588258,22.9993542 C56.4588258,21.5966159 57.5962023,20.458667 59.0003229,20.458667 C60.4031518,20.458667 61.5411742,21.5966159 61.5411742,22.9993542 C61.5411742,24.4033841 60.4031518,25.5406872 59.0003229,25.5406872 M58.9996771,18 C56.2385843,18 54,20.2384397 54,22.9993542 C54,25.7609145 56.2385843,28 58.9996771,28 C61.7614157,28 64,25.7609145 64,22.9993542 C64,20.2384397 61.7614157,18 58.9996771,18" id="path-5"></path>
        <filter x="-5.0%" y="-5.0%" width="120.0%" height="120.0%" filterUnits="objectBoundingBox" id="filter-6">
            <feOffset dx="1" dy="1" in="SourceAlpha" result="shadowOffsetOuter1"></feOffset>
            <feColorMatrix values="0 0 0 0 0   0 0 0 0 0   0 0 0 0 0  0 0 0 1 0" type="matrix" in="shadowOffsetOuter1"></feColorMatrix>
        </filter>
        <path d="M72,25.5406872 C70.5957887,25.5406872 69.4583387,24.4033841 69.4583387,22.9993542 C69.4583387,21.5966159 70.5957887,20.458667 72,20.458667 C73.4029195,20.458667 74.5416613,21.5966159 74.5416613,22.9993542 C74.5416613,24.4033841 73.4029195,25.5406872 72,25.5406872 M72,18 C69.2387288,18 67,20.2384397 67,22.9993542 C67,25.7609145 69.2387288,28 72,28 C74.7619171,28 77,25.7609145 77,22.9993542 C77,20.2384397 74.7619171,18 72,18" id="path-7"></path>
        <filter x="-5.0%" y="-5.0%" width="120.0%" height="120.0%" filterUnits="objectBoundingBox" id="filter-8">
            <feOffset dx="1" dy="1" in="SourceAlpha" result="shadowOffsetOuter1"></feOffset>
            <feColorMatrix values="0 0 0 0 0   0 0 0 0 0   0 0 0 0 0  0 0 0 1 0" type="matrix" in="shadowOffsetOuter1"></feColorMatrix>
        </filter>
    </defs>
    <g id="Symbols" stroke="none" stroke-width="1" fill="none" fill-rule="evenodd">
        <g id="menu/mobile" transform="translate(-20.000000, -10.000000)">
            <g id="logo-singaporezoo" transform="translate(20.000000, 10.000000)">
                <g id="Group-3">
                    <mask id="mask-2" fill="white">
                        <use xlink:href="#path-1"></use>
                    </mask>
                    <g id="Clip-2"></g>
                    <path d="M4.09095385,0.473292593 C4.63249231,0.473292593 5.09956923,0.574033333 5.50387692,0.792514815 C6.95495385,1.59781111 7.28849231,3.34755185 7.28849231,4.48655185 C7.28849231,5.0507 7.04110769,6.05118148 6.43372308,6.05118148 C5.11864615,6.05118148 5.01710769,2.73744074 4.09526154,2.73744074 C3.55556923,2.73744074 3.33464615,3.72784815 3.33095385,4.02692222 C3.31003077,5.46310741 5.61956923,6.99373704 6.28356923,7.55725556 C7.48664615,8.58166296 7.55864615,9.59536667 7.55864615,10.7910333 C7.55864615,12.6320704 6.59187692,16.4520333 3.55556923,16.4520333 C1.09341538,16.4520333 0.0749538462,13.3328481 0.00233846154,11.6189963 C-0.0192,11.1272556 0.0971076923,10.264663 0.389415385,9.66651481 C0.468184615,9.50532963 0.7008,9.18107037 1.01772308,9.09166296 C1.60849231,8.92481111 2.1568,9.61488519 2.21526154,10.1337 C2.27556923,10.672663 2.59926154,13.8749593 3.91556923,13.8749593 C4.94941538,13.8749593 5.20172308,12.6175889 5.2448,11.5768111 C5.27987692,10.7368852 4.9888,10.0751444 4.52541538,9.55192222 C3.67126154,8.58544074 3.18572308,8.45762593 2.46018462,7.50247778 C1.61526154,6.39055185 1.17156923,4.90147778 1.17156923,3.6119963 C1.17156923,1.71366296 2.77587692,0.473292593 4.09095385,0.473292593" id="Fill-1" fill="#FFFFFF" mask="url(#mask-2)"></path>
                </g>
                <path d="M9.74739919,8 C9.79906084,8.45874402 9.91261419,9.28625739 9.94483879,9.9636018 C10.0440701,12.0083075 10.0532771,13.3820051 9.59190271,15.5692763 C9.41185416,16.4259364 8.88193854,16.8200507 8.17657788,17 C8.07581207,16.3137848 8.00982837,15.7904112 8.00062134,15.0104196 C7.9878338,13.8268093 8.17504337,13.1722754 8.32082132,12.0038721 C8.49575485,10.6067305 8.17146286,9.0391439 8.84459892,8.43720079 C9.15098836,8.16347508 9.74739919,8 9.74739919,8" id="Fill-4" fill="#FFFFFF"></path>
                <path d="M54.3281668,6.0143233 C54.4371994,6.51893794 54.5314805,6.93454144 54.5308391,7.53209418 C54.5301978,7.98369484 54.4378407,7.96078756 54.4115446,8.6826941 C54.8066275,8.33057649 55.1779797,7.91366401 56.1252806,7.91366401 C57.0283271,7.91366401 58,8.59499195 58,9.30053615 C58,9.53942635 57.8787814,10.1107993 57.7703902,10.3824142 C56.9738108,10.4877877 55.453768,9.62974648 54.925922,10.9452788 C54.1524319,12.8825802 54.7957242,15.1497463 52.5958311,17 C52.2058792,16.372995 52,16.431245 52,14.4186769 C52,14.4186769 52.4271513,11.0918854 52.5772314,8.953 C52.6125067,8.45623928 52.6567611,7.67870077 52.6567611,7.67870077 C52.6567611,6.67470744 52.8716195,5.88277007 54.3281668,6.0143233" id="Fill-6" fill="#FFFFFF"></path>
                <path d="M17.5505324,6 C19.076305,6 19.3120794,9.36000238 19.3120794,9.92207483 L19.2080094,12.9856641 C19.2080094,14.8753792 20,14.4055678 20,15.7083457 C20,16.1029088 19.581368,17 19.0539622,17 C17.7116352,17 17.3165219,14.5645708 17.3600314,13.6072809 L17.470569,8.3771935 C16.930228,8.34643983 16.6362449,8.71155791 16.5004246,8.82541193 C15.2968576,9.82981381 14.9105638,10.689608 14.523682,12.9856641 C14.3055465,14.2799358 13.7934278,16.3810005 12.4640361,16.805663 C12.2670674,16.2017132 11.8672503,15.6200107 12.0060103,14.8465885 C12.4181747,12.5557671 12.9696871,10.2054012 13.0196642,9.97245851 C13.2771934,8.77764559 12.4287581,8.89673428 11.9448618,8.6821129 C11.4615535,8.46618286 11.4562618,7.95972875 11,7.72482303 C11.7984582,7.29819761 12.9520481,6.67003748 13.1672437,6.67003748 C13.7258117,6.67003748 14.5495525,7.32175361 14.8082577,8.10499078 C15.3056771,7.49776932 16.7661854,6 17.5505324,6" id="Fill-8" fill="#FFFFFF"></path>
                <path d="M41.7794231,13.5584328 C41.2981066,13.3863545 41.2392359,12.550114 41.3459795,11.885952 C41.5245324,10.7713672 42.2445664,9.81195492 43.6361147,9.94176842 C44.0242732,9.97739165 44.1083742,10.3275862 44.1083742,10.3825305 C44.1083742,11.7181001 42.2807945,13.7377566 41.7794231,13.5584328 M43.7777925,8 C43.0021224,8 42.6010253,8.2185697 41.8382938,8.26385348 C40.5761318,8.33872266 38.6029927,8.04649135 38.6029927,8.04649135 C38.7453174,8.62008587 38.9128725,9.19307661 39.1709979,9.50342144 C39.6316127,10.0570911 39.9201439,10.3626057 39.7383563,10.8269153 C39.7383563,10.8269153 37.1849202,21.1975044 36.5444587,22.6145847 C36.2636907,23.2346706 36.2015853,23.4550517 36.0502035,23.9773246 C35.858712,24.6402791 36.2617499,25.4451228 36.4752371,26 C37.8117962,25.5833892 38.4464354,24.1131759 38.5874663,23.1416879 C38.9193418,20.8696498 39.460823,18.5589695 40.1937956,16.2645914 C40.2410216,16.1214947 40.7501562,14.9712867 40.7501562,14.9712867 C41.1376677,15.1258554 41.5555851,15.2369516 41.7917148,15.2369516 C44.0617952,15.2369516 46,11.8720649 46,10.3384543 C46,9.16892526 45.3258981,8 43.7777925,8" id="Fill-10" fill="#FFFFFF"></path>
                <path d="M32.8161372,15.7666903 L32.8161372,14.4841354 C32.8082654,13.9982307 32.973011,12.5515452 33.958673,12.5515452 C34.1639022,12.5515452 34.3466404,12.6514508 34.5282541,12.7636825 C34.5338769,12.883699 34.6159685,12.8363411 34.6159685,13.0731305 C34.6159685,13.5473579 33.3947146,15.5967209 32.8161372,15.7666903 M36.2600506,15.727766 C36.198763,11.7445152 36.4242339,10.7026421 36.4242339,10.4652041 C36.4242339,9.52907525 36.3016587,8 34.6980602,8 C34.0615687,8 32.7790273,9.10155697 32.5687377,10.0649328 C33.5302221,10.4684477 33.9176272,10.2757726 34.4641552,10.2615004 C34.4523475,10.3231305 34.5338769,10.2757726 34.5338769,10.5125619 C34.5338769,10.7616773 31,10.5599198 31,15.0647558 C31,15.9418495 31.2344672,17.1673154 32.0059039,17.7245813 C32.2313748,17.8906582 32.426483,18.0035386 32.7261737,18.0508964 C33.5999438,18.1897264 34.3601349,16.8611111 34.5659263,16.5328497 C34.699747,17.2458127 34.7705932,19 35.8900759,19 C36.445038,19 37,18.5731305 37,17.8154046 C37,17.5773178 36.2707338,16.4154282 36.2600506,15.727766" id="Fill-12" fill="#FFFFFF"></path>
                <path d="M62.2466628,8.09157577 C62.383197,7.82288778 62.7368326,7.80193505 62.9625445,7.80193505 C63.2651336,7.80193505 63.4225784,8.10020336 63.411508,8.38737906 C63.4022827,8.62032415 63.2805091,8.76329574 63.0824731,8.8853146 C62.8979675,8.99932212 62.7294524,9.05663401 62.5320315,8.9666605 C62.3727416,8.89517471 62.3339955,8.81321255 62.2448178,8.62402169 C62.2448178,8.62402169 62.15195,8.27645283 62.2466628,8.09157577 M65.3475865,10.6854009 C64.038827,11.0810378 63.1304445,12.7498613 62.2036115,13.8381709 C61.9680594,13.322364 61.7933942,12.3961299 61.7933942,12.1711962 C61.7933942,11.4785234 62.1156639,11.1081531 62.3973424,10.9731928 C62.9035027,10.7254576 63.7922045,10.6730757 64.2184124,10.2453935 C64.701817,9.76101559 64.9213786,9.33826339 64.9853405,8.65113699 C65.099119,7.41615825 64.4010729,6 63.2313076,6 L63.2313076,6 C62.5123509,6 61.1304041,6.36174277 60.728182,7.6269181 C60.2109514,9.20330314 60,10.5313367 60,12.0627349 C60,12.9637025 60.2540027,16 61.9280832,16 C63.3887523,16 64.5480623,13.770999 65.099734,12.9039256 C65.2565637,12.6568066 65.9220138,12.0072718 65.9773655,11.4618845 C66.0167267,11.0736427 66.0899139,10.6213102 65.3475865,10.6854009" id="Fill-14" fill="#FFFFFF"></path>
                <path d="M25.9818152,10.3421246 C25.9879894,10.8407979 24.9050306,13.0608357 24.1826464,13.0608357 C23.6979698,13.0608357 23.5516407,12.738915 23.5516407,12.439468 C23.5516407,12.1509543 24.8260005,9.86471021 25.6724866,9.86471021 C25.8978457,9.86471021 25.8527739,9.95339024 25.9818152,9.96614558 L25.9818152,10.3421246 Z M22.936688,24.9986254 C22.8070293,24.6104984 22.6069845,23.6708545 22.8761807,22.6486046 C23.2379902,21.2758863 23.4707584,20.6247562 24.3796041,19.5460183 C24.2845211,21.8207218 24.110408,22.598798 22.936688,24.9986254 L22.936688,24.9986254 Z M28.1341496,14.0405678 C27.864336,14.0405678 27.3222392,14.1741952 27.2061638,14.0739746 C27.4420191,13.22787 28.0186916,11.0078322 28.0186916,9.77603018 C28.0186916,8.89894824 27.6581169,8 26.484397,8 C26.2590378,8 25.3921768,8.03462166 24.7500576,8.26968447 C22.7545484,8.99856143 21.8815132,11.0078322 21.8815132,12.8391356 C21.8815132,13.793357 22.2544363,15.0148333 23.5516407,15.0148333 C24.0925027,15.0148333 24.6580616,14.7190307 25.1884274,14.3879991 C25.1884274,14.3879991 25.2464651,14.8842428 24.9303449,15.5499504 C23.4664364,18.6367443 21.0776293,20.1825709 21.0004515,23.8895176 C20.980694,24.8249097 21.6110822,27 22.5606778,27 C23.1916835,27 23.9591395,26.5013267 24.2301879,26.0226975 C26.0552885,22.8059205 25.4452751,22.4262971 26.0552885,19.5958249 C26.2584204,18.6197372 26.4238896,17.6187462 26.8641118,16.6748505 C26.9542554,16.4640836 27.0518082,15.993958 27.5475983,15.8609379 C28.3267854,15.6604968 28.8114619,16.3043381 30,15.8779451 C29.4795129,14.9261533 29.0713968,14.0405678 28.1341496,14.0405678 L28.1341496,14.0405678 Z" id="Fill-16" fill="#FFFFFF"></path>
                <path d="M8,6.99938348 C8,6.44759556 8.44748858,6 8.9997314,6 C9.55197421,6 10,6.44759556 10,6.99938348 C10,7.55178792 9.55197421,8 8.9997314,8 C8.44748858,8 8,7.55178792 8,6.99938348" id="Fill-18" fill="#FFFFFF"></path>
                <path d="M48.1533353,15.8362031 C47.7060066,15.8130471 47.7639602,14.7562343 47.7639602,14.5208153 C47.7639602,12.899254 48.6290371,10.310931 49.3359493,9.92435492 C50.0422578,9.53777884 50.3235738,10.2195936 50.3235738,10.7129444 C50.3235738,11.9826635 49.0129792,15.8812286 48.1533353,15.8362031 M50.5354663,8.03071103 C49.9728343,7.92522271 49.644431,8.11818914 49.4560821,8.20759692 C49.2671295,8.2970047 48.9761545,8.43336764 48.3851494,8.8881252 C46.1961968,10.5688628 46,12.8021276 46,15.0379653 C46,15.9198219 46.1098702,18 47.720495,18 C50.0839119,18 52,13.6338129 52,10.7129444 C52,9.97259653 51.351645,8.18379773 50.5354663,8.03071103" id="Fill-20" fill="#FFFFFF"></path>
                <g id="Fill-22">
                    <use fill="black" fill-opacity="1" filter="url(#filter-4)" xlink:href="#path-3"></use>
                    <use fill="#49A942" fill-rule="evenodd" xlink:href="#path-3"></use>
                </g>
                <g id="Fill-24">
                    <use fill="black" fill-opacity="1" filter="url(#filter-6)" xlink:href="#path-5"></use>
                    <use fill="#49A942" fill-rule="evenodd" xlink:href="#path-5"></use>
                </g>
                <g id="Fill-26">
                    <use fill="black" fill-opacity="1" filter="url(#filter-8)" xlink:href="#path-7"></use>
                    <use fill="#49A942" fill-rule="evenodd" xlink:href="#path-7"></use>
                </g>
            </g>
        </g>
    </g>
</svg>