<svg version="1.1" id="logo" xmlns="http://www.w3.org/2000/svg" xmlns:xlink="http://www.w3.org/1999/xlink" x="0px" y="0px" viewBox="0 0 881 85" style="enable-background:new 0 0 881 85;" xml:space="preserve" width="100%" height="50px">
<style type="text/css">
  .st0{stroke-width:0.5;}
   #logo .st0 {display:none;}
</style>
<path d="M15.4,73.8l5.2-7.3v-48l-5.2-7.3h20.2l-5.2,7.3v48l5.2,7.3H15.4z"></path>
<path d="M72.1,73.7c-5.6-9.6-22.3-34.8-22.3-34.8v34.9h-7.4V28.2L37.2,21h11.2l22,33.4V21h7.5v52.7H72.1z"></path>
<path d="M106.5,73.8h-6.8L84.1,25.6L80.8,21h11.4L104,58.2l10.4-32.6l-3.3-4.6h12.5L106.5,73.8z"></path>
<path d="M154.2,73.8h-25.9V21h27.3l-2.8,7h-15.4v15.4h15.1l-2.9,7.3h-12.1v15.5h19.9L154.2,73.8z"></path>
<path d="M173.3,74.9c-4.8,0-9.9-1-13.6-2.9l2.4-8c5.4,5.2,20.4,5.2,20.4-3.2c0-11.2-22.6-10.1-22.6-27c0-8.5,6.6-13.9,16.8-13.9
  c4,0,8.2,0.6,11.7,2.5l-2.8,7.9c-3.8-4.5-16.9-4.9-16.9,2.6c0,9.8,22.5,10.8,22.5,25.5C191.1,67.8,184.9,74.9,173.3,74.9z"></path>
<path d="M213.5,28v45.8h-9V28h-13.8l2.1-7h31.9l2.4,7H213.5z"></path>
<path d="M245.9,74.8c-14.8,0-19.6-16.1-19.6-28.1c0-12.1,6.1-26.8,20.2-26.8c14.8,0,19.6,16.1,19.6,28.1
  C266.1,60.1,260,74.8,245.9,74.8z M245.9,27.3c-9.1,0-10.3,12.5-10.3,19.1c0,6.6,1.3,21.1,10.9,21.1c9.1,0,10.3-12.5,10.3-19.1
  C256.8,41.7,255.5,27.3,245.9,27.3z"></path>
<path d="M299.1,73.8l-16-23.6v23.6h-9V26.5l-3.9-5.5h19.6c8.8,0,15.6,6,15.6,14.8c0,7.8-3.6,13.9-11.5,15.3l16.6,22.6H299.1z
   M288.3,27.9h-5.2V45h5.5c4.3,0,8.1-3.1,8.1-8.8C296.6,31.5,293.6,27.9,288.3,27.9z"></path>
<path d="M310,37.5c1.5-2.7,2.2-5.9,2.2-8.6c-3.5-0.3-5.2-2.2-5.2-4.9c0-3.2,2.3-4.9,4.7-4.9c2.8,0,5.7,2.2,5.7,7
  C317.5,30.3,315,35.3,310,37.5z"></path>
<path d="M334.7,74.9c-4.8,0-9.9-1-13.6-2.9l2.4-8c5.4,5.2,20.4,5.2,20.4-3.2c0-11.2-22.6-10.1-22.6-27c0-8.5,6.6-13.9,16.8-13.9
  c4,0,8.2,0.6,11.7,2.5l-2.9,7.9c-3.8-4.5-16.9-4.9-16.9,2.6c0,9.8,22.5,10.8,22.5,25.5C352.6,67.8,346.3,74.9,334.7,74.9z"></path>
<g>
  <path d="M392.4,73.3h-21.1l4.9-6.8V17.6l-4.9-6.8h21.5c12.7,0,18.4,7.4,18.4,15.4c0,7.9-4,12.7-8.9,14.2c6.1,1.4,11.4,7.5,11.4,15
    C413.7,66.5,406.8,73.3,392.4,73.3z M392.5,17.9h-6.8v19.4h5.6c6.4,0,10.3-4.2,10.3-10.7C401.7,22.1,398.8,17.9,392.5,17.9z
     M394,44.9h-8.3v20.8h7.5c7,0,10.9-4.3,10.9-10.1C404.1,49.4,400.1,44.9,394,44.9z"></path>
  <path d="M437.9,74.1c-11.2,0-17.7-7-17.7-20.5V25.1l-3.3-4.7h12.3v33c0,8.5,3.1,12.9,9.1,12.9c6,0,9.3-4.5,9.3-12.5V26.2l-4-5.7
    h12.1v33.7C455.6,66.1,449.8,74.1,437.9,74.1z"></path>
  <path d="M474.3,74.4c-4.8,0-9.9-1-13.6-2.9l2.4-8c5.4,5.2,20.4,5.2,20.4-3.2c0-11.2-22.6-10.1-22.6-27c0-8.5,6.6-13.9,16.8-13.9
    c4,0,8.2,0.6,11.7,2.5l-2.8,7.9c-3.8-4.5-16.9-4.9-16.9,2.6c0,9.8,22.5,10.8,22.5,25.5C492.2,67.3,486,74.4,474.3,74.4z"></path>
  <path d="M499.2,73.3V25.6l-3.7-5.1h12.7v52.8H499.2z"></path>
  <path d="M548,73.2c-5.6-9.6-22.3-34.8-22.3-34.8v34.9h-7.4V27.7l-5.2-7.2h11.2l22,33.4V20.5h7.5v52.7H548z"></path>
  <path d="M589.2,73.3h-25.9V23.4l-2.1-2.9h29.4l-2.9,7h-15.4v15.4h15.1l-2.9,7.3h-12.1v15.5h19.9L589.2,73.3z"></path>
  <path d="M608.3,74.4c-4.8,0-9.9-1-13.6-2.9l2.4-8c5.4,5.2,20.4,5.2,20.4-3.2c0-11.2-22.6-10.1-22.6-27c0-8.5,6.6-13.9,16.8-13.9
    c4,0,8.2,0.6,11.7,2.5l-2.8,7.9c-3.8-4.5-16.9-4.9-16.9,2.6c0,9.8,22.5,10.8,22.5,25.5C626.1,67.3,619.9,74.4,608.3,74.4z"></path>
  <path d="M641.1,74.4c-4.8,0-9.9-1-13.6-2.9l2.4-8c5.4,5.2,20.4,5.2,20.4-3.2c0-11.2-22.6-10.1-22.6-27c0-8.5,6.6-13.9,16.8-13.9
    c4,0,8.2,0.6,11.7,2.5l-2.8,7.9c-3.8-4.5-16.9-4.9-16.9,2.6c0,9.8,22.5,10.8,22.5,25.5C659,67.3,652.8,74.4,641.1,74.4z"></path>
</g>
<path d="M695.5,74.8h-21.2l4.7-7V19.2l-4.7-7h20.2c18.2,0,26.8,11.5,26.8,30C721.3,63.4,712.3,74.8,695.5,74.8z M693.8,19.7h-4.9
  v47.5h5.7c10.3,0,16.3-7.1,16.3-24C710.9,28,705.6,19.7,693.8,19.7z"></path>
<path d="M754.2,74.8l-4-13.4h-15.1l-4,13.4h-9.3l17.1-47.8L737,22h10.7l16.7,52.8H754.2z M742.7,35.8l-5.9,18.8h11.6L742.7,35.8z"></path>
<path d="M770.2,74.8V27.1l-3.7-5.1h12.7v52.8H770.2z"></path>
<path d="M812.8,74.8h-24.8V24.5l-1.9-2.6h10.9v45.1h18.6L812.8,74.8z"></path>
<path d="M832.8,52.6v22.1h-9v-22l-14.3-26.5l-3.1-4.3h11l11.8,22.7l9.8-18.5l-3.1-4.2h13.7L832.8,52.6z"></path>
<path class="st0" d="M861.4,29.8c-2.9,0-5-2.2-5-5.1c0-2.9,2.1-5.1,5-5.1c2.9,0,5,2.2,5,5.1C866.3,27.6,864.2,29.8,861.4,29.8z
   M861.4,30.6c3.3,0,5.9-2.6,5.9-5.9c0-3.2-2.6-5.9-5.9-5.9c-3.3,0-5.9,2.6-5.9,5.9C855.4,28,858.1,30.6,861.4,30.6z M862.1,25
  c1.2,0,2.1-0.5,2.1-1.8c0-1.1-0.6-1.7-2.3-1.7H859V28h0.8v-3h1.5l1.9,3h1L862.1,25z M859.8,24.3V22h1.9c0.8,0,1.7,0.1,1.7,1.2
  c0,1.3-1.4,1.2-2.3,1.2H859.8z"></path>
</svg>