<?xml version="1.0" encoding="utf-8"?>
<!-- Generator: Adobe Illustrator 19.2.1, SVG Export Plug-In . SVG Version: 6.00 Build 0)  -->
<svg version="1.1" id="Layer_1" xmlns="http://www.w3.org/2000/svg" xmlns:xlink="http://www.w3.org/1999/xlink" x="0px" y="0px"
	 viewBox="0 0 17 17" style="enable-background:new 0 0 17 17;" xml:space="default">
<style type="text/css">
	.st0{fill:#1B75BB;stroke:#1B75BB;stroke-width:0.5;stroke-miterlimit:10;}
	.st1{fill:#FFFFFF;}
</style>
<g id="_x32__5_">
	<path class="st0" d="M14.6,16.5H2.4c-1,0-1.9-0.9-1.9-1.9V2.3c0-1,0.8-1.8,1.8-1.8h12.3c1,0,1.9,0.9,1.9,1.9v12.2
		C16.5,15.6,15.6,16.5,14.6,16.5z"/>
	<path class="st1" d="M14.9,6.4c0,1.1-0.5,2.1-1.5,2.8c-0.6,0.4-1.3,0.6-2,0.6l-6,0V14H2.8l0-11.1h8.6c1,0,1.8,0.4,2.5,1.1
		C14.6,4.7,14.9,5.5,14.9,6.4z M12.3,6.5c0-0.4-0.1-0.8-0.4-1.1C11.6,5.1,11.2,5,10.7,5H5.4v2.9h5.4c0.4,0,0.7-0.1,1-0.4
		C12.2,7.2,12.3,6.8,12.3,6.5z"/>
</g>
</svg>
