<?xml version="1.0" encoding="utf-8"?>
<!-- Generator: Adobe Illustrator 19.1.0, SVG Export Plug-In . SVG Version: 6.00 Build 0)  -->
<svg version="1.1" xmlns="http://www.w3.org/2000/svg" xmlns:xlink="http://www.w3.org/1999/xlink" x="0px" y="0px"
	 viewBox="0 0 26 26" style="enable-background:new 0 0 26 26;" xml:space="preserve">
<style type="text/css">
	.st0{display:none;}
	.st1{display:inline;}
	.st2{fill:#FFFFFF;}
	.st3{fill:#868686;stroke:#868686;stroke-miterlimit:10;}
	.st4{fill:#24408F;}
	.st5{clip-path:url(#SVGID_2_);}
	.st6{fill:none;stroke:#BC5FA4;stroke-miterlimit:10;}
	.st7{fill:none;stroke:#114E8F;stroke-miterlimit:10;}
	.st8{fill:#BEBDBF;}
	.st9{fill:#F07723;}
	.st10{fill:#124E8E;}
	.st11{fill:#10743D;}
</style>
<g id="Layer_1" class="st0">
	<g class="st1">
		<path class="st2" d="M0.6,4.4c0,0,0.1-4.4,4-4.4s17.2,0,17.2,0S25,2,25,4.1s0,17.9,0,17.9S24,25,21.6,25S3.9,25,3.9,25
			s-3.5-1.2-3.5-3.5S0.6,4.4,0.6,4.4z"/>
		<g>
			<g>
				<path class="st3" d="M25.5,21.7c0,2.1-1.7,3.8-3.8,3.8H4.3c-2.1,0-3.8-1.7-3.8-3.8V4.3c0-2.1,1.7-3.8,3.8-3.8h17.4
					c2.1,0,3.8,1.7,3.8,3.8V21.7z M24.5,3.7c0-1.8-1.4-3.2-3.2-3.2H3.7c-1.8,0-3.2,1.4-3.2,3.2v17.6c0,1.8,1.4,3.2,3.2,3.2h17.6
					c1.8,0,3.2-1.4,3.2-3.2V3.7z"/>
			</g>
			<polygon class="st4" points="6,9.9 6,15.7 10.5,20.2 19,11.5 19,5.9 10.4,14.4 			"/>
		</g>
	</g>
</g>
<g id="Layer_2">
	<g>
		<path class="st2" d="M0.6,4.7c0,0,0.1-3.7,4-3.7s17.2,0,17.2,0S25,1.8,25,3.8s0,17.9,0,17.9S24,25,21.6,25S3.9,25,3.9,25
			s-3.5-1-3.5-3.3S0.6,4.7,0.6,4.7z"/>
		<g>
			<path class="st3" d="M25.5,21.7c0,2.1-1.7,3.8-3.8,3.8H4.3c-2.1,0-3.8-1.7-3.8-3.8V4.3c0-2.1,1.7-3.8,3.8-3.8h17.4
				c2.1,0,3.8,1.7,3.8,3.8V21.7z M25.5,3.7c0-1.8-1.4-3.2-3.2-3.2H4.7c-1.8,0-3.2,1.4-3.2,3.2v17.6c0,1.8,1.4,3.2,3.2,3.2h17.6
				c1.8,0,3.2-1.4,3.2-3.2V3.7z"/>
		</g>
		<g>
			<defs>
				<rect id="SVGID_1_" x="1" y="2" width="23" height="21"/>
			</defs>
			<clipPath id="SVGID_2_">
				<use xlink:href="#SVGID_1_"  style="overflow:visible;"/>
			</clipPath>
			<g class="st5">
				<polyline class="st6" points="-0.2,8.1 12.8,20.2 20.4,10.4 26.3,16 				"/>
				<polyline class="st7" points="-0.2,20.9 7.9,12.2 12.5,16.9 17.3,10.8 19.7,14.3 28,3.6 				"/>
			</g>
		</g>
	</g>
</g>
<g id="Layer_3" class="st0">
	<g class="st1">
		<path class="st2" d="M1.1,4.1c0,0,0.1-4.1,4-4.1s17.2,0,17.2,0S25,1.6,25,3.6s0,17.9,0,17.9S24.5,25,22.1,25S4.4,25,4.4,25
			s-3.5-1.3-3.5-3.6S1.1,4.1,1.1,4.1z"/>
		<g>
			<g>
				<path class="st3" d="M25.5,21.7c0,2.1-1.7,3.8-3.8,3.8H4.3c-2.1,0-3.8-1.7-3.8-3.8V4.3c0-2.1,1.7-3.8,3.8-3.8h17.4
					c2.1,0,3.8,1.7,3.8,3.8V21.7z M25.5,3.7c0-1.8-1.4-3.2-3.2-3.2H4.7c-1.8,0-3.2,1.4-3.2,3.2v17.6c0,1.8,1.4,3.2,3.2,3.2h17.6
					c1.8,0,3.2-1.4,3.2-3.2V3.7z"/>
			</g>
			<g>
				<path class="st8" d="M20.7,20.8c-0.2,0-0.3-0.1-0.4-0.2L7,7.1v12.6c0,0.5-0.5,0.8-1,0.8s-1-0.4-1-0.8V5.1c0-0.3,0.2-0.6,0.5-0.8
					c0.3-0.1,0.7-0.1,0.9,0.2l14.8,14.8c0.3,0.3,0.3,0.9,0,1.2C21.1,20.7,20.9,20.8,20.7,20.8z"/>
			</g>
			<g>
				<path class="st8" d="M13.2,20.6c-0.3,0-0.6-0.2-0.7-0.5L5.1,5.5C4.9,5.1,5,4.6,5.4,4.4c0.4-0.2,0.9,0,1.1,0.4L14,19.4
					c0.2,0.4,0,0.9-0.4,1.1C13.5,20.6,13.4,20.6,13.2,20.6z"/>
			</g>
			<g>
				<path class="st9" d="M20.5,20.6c-0.5,0-0.5-0.4-0.5-0.8V7.1L6.5,20.3c-0.3,0.3-0.9,0.3-1.2,0c-0.3-0.3-0.3-0.9,0-1.2L20.1,4.5
					c0.2-0.2,0.3-0.3,0.7-0.2C21,4.5,21,4.8,21,5.1v14.7C21,20.3,21,20.6,20.5,20.6z"/>
			</g>
			<g>
				<path class="st9" d="M13.2,20.6c-0.1,0-0.3,0-0.4-0.1c-0.4-0.2-0.6-0.7-0.4-1.1l7.4-14.7c0.2-0.4,0.7-0.6,1.1-0.4
					c0.4,0.2,0.6,0.7,0.4,1.1L14,20.2C13.8,20.5,13.5,20.6,13.2,20.6z"/>
			</g>
		</g>
	</g>
</g>
<g id="Layer_4" class="st0">
	<g class="st1">
		<path class="st2" d="M0.6,4.1c0,0,0.1-4.1,4-4.1s17.2,0,17.2,0S25,1.6,25,3.6s0,17.9,0,17.9S24,25,21.6,25S3.9,25,3.9,25
			s-3.5-1.3-3.5-3.6S0.6,4.1,0.6,4.1z"/>
		<g>
			<g>
				<path class="st3" d="M25.5,21.7c0,2.1-1.7,3.8-3.8,3.8H4.3c-2.1,0-3.8-1.7-3.8-3.8V4.3c0-2.1,1.7-3.8,3.8-3.8h17.4
					c2.1,0,3.8,1.7,3.8,3.8V21.7z M24.5,3.7c0-1.8-1.4-3.2-3.2-3.2H3.7c-1.8,0-3.2,1.4-3.2,3.2v17.6c0,1.8,1.4,3.2,3.2,3.2h17.6
					c1.8,0,3.2-1.4,3.2-3.2V3.7z"/>
			</g>
			<g>
				<path class="st10" d="M11,20v-6H5v-3h6V5h3v6h6v3h-6v6H11z"/>
			</g>
		</g>
	</g>
</g>
<g id="Layer_5" class="st0">
	<g class="st1">
		<path class="st2" d="M0.7,4.1c0,0,0.1-4.1,4-4.1S22,0,22,0s3,1.6,3,3.6s0,17.9,0,17.9S24.1,25,21.8,25S4,25,4,25s-3.5-1.3-3.5-3.6
			S0.7,4.1,0.7,4.1z"/>
		<g>
			<g>
				<path class="st3" d="M25.5,21.7c0,2.1-1.7,3.8-3.8,3.8H4.3c-2.1,0-3.8-1.7-3.8-3.8V4.3c0-2.1,1.7-3.8,3.8-3.8h17.4
					c2.1,0,3.8,1.7,3.8,3.8V21.7z M24.5,3.7c0-1.8-1.4-3.2-3.2-3.2H3.7c-1.8,0-3.2,1.4-3.2,3.2v17.6c0,1.8,1.4,3.2,3.2,3.2h17.6
					c1.8,0,3.2-1.4,3.2-3.2V3.7z"/>
			</g>
			<g>
				<g>
					<path class="st11" d="M8,20V5h4v11h6v4H8z"/>
				</g>
			</g>
		</g>
	</g>
</g>
</svg>
