<svg xmlns="http://www.w3.org/2000/svg" width="64" height="64" viewBox="0 0 64 64"><path fill="#919191" d="M32 3c16 0 29 13 29 29S48 61 32 61 3 48 3 32 16 3 32 3m0-3C14.3 0 0 14.3 0 32s14.3 32 32 32 32-14.3 32-32S49.7 0 32 0m-9 18.5h18l9 9V41c0 1.2-.4 2.3-1.3 3.2-.9.9-1.9 1.3-3.2 1.3h-27c-1.2 0-2.3-.4-3.2-1.3-.9-.9-1.3-1.9-1.3-3.2V27.5l9-9zM47 41V30.5h-6.6c-.7 1.7-1.8 3.2-3.3 4.3-1.5 1.1-3.2 1.7-5.1 1.7-1.2 0-2.4-.3-3.6-.8-1.2-.5-2.2-1.2-3-2.2-.9-.9-1.5-1.9-1.9-3.1H17V41c0 .4.1.8.4 1.1.3.3.6.4 1.1.4h27c.4 0 .8-.1 1.1-.4.3-.3.4-.7.4-1.1zm-1.2-13.5l-5.9-6H24.2l-6 6H26c0 1 .3 2 .8 2.9.5.9 1.3 1.7 2.2 2.3.9.6 1.9.9 3 .9s2.1-.3 3-.9c.9-.6 1.7-1.3 2.2-2.3.5-.9.8-1.9.8-2.9h7.8z"/></svg>