<svg enable-background="new 0 0 96 96" viewBox="0 0 96 96" xmlns="http://www.w3.org/2000/svg"><g transform="translate(15 15)"><g clip-rule="evenodd" fill-rule="evenodd"><path d="m79.08 34.091c0-3.404-.305-6.676-.873-9.818h-45.207v18.567h25.833c-1.113 6-4.495 11.084-9.578 14.487v12.044h15.513c9.076-8.356 14.312-20.662 14.312-35.28z" fill="#4285f4"/><path d="m33 81c12.96 0 23.825-4.298 31.767-11.629l-15.512-12.044c-4.298 2.88-9.796 4.582-16.255 4.582-12.502 0-23.084-8.444-26.858-19.789h-16.037v12.436c7.899 15.688 24.131 26.444 42.895 26.444z" fill="#34a853"/><path d="m6.142 42.12c-.96-2.88-1.505-5.956-1.505-9.12s.545-6.24 1.505-9.12v-12.436h-16.037c-3.25 6.48-5.105 13.811-5.105 21.556s1.855 15.076 5.105 21.556z" fill="#fbbc05"/><path d="m33 4.091c7.047 0 13.375 2.422 18.349 7.178l13.767-13.767c-8.312-7.746-19.178-12.502-32.116-12.502-18.764 0-34.996 10.756-42.895 26.444l16.037 12.436c3.774-11.345 14.356-19.789 26.858-19.789z" fill="#ea4335"/></g><path d="m-15-15h96v96h-96z" fill="none"/></g></svg>