<svg xmlns="http://www.w3.org/2000/svg" viewBox="0 0 64 64"><path fill="#919191" d="M32 3c16 0 29 13 29 29S48 61 32 61 3 48 3 32 16 3 32 3m0-3C14.3 0 0 14.3 0 32s14.3 32 32 32 32-14.3 32-32S49.7 0 32 0m11.8 40c-.1-3.6-.3-7.1-.4-10.7 0-1.1-.3-1.4-1.5-1.4h-1.2v-3.7c-.3-5.4-5.4-9.2-10.6-8-2.4.6-4.3 1.9-5.6 4-1.2 1.8-1.3 3.8-1.3 7.7H22c-1 0-1.4.3-1.4 1.3-.1 3.5-.3 6.9-.4 10.4-.1 2.1.7 3.8 2.4 5.2 5.5 4.4 13.9 4.2 19.3-.3 1.3-1.1 2-2.8 1.9-4.5zM26.1 28v-3.7c.1-1.7.8-3 2.1-4.1 1.9-1.5 4-1.8 6.2-.8 2.2 1.1 3.4 2.9 3.4 5.4V28H26.1zm7.8 10.4c-.5.5-.6.9-.5 1.6.1.5.1 1 .1 1.6 0 .8-.5 1.2-1.5 1.2-.9 0-1.4-.4-1.4-1.2 0-.4.1-.7.1-1.1.2-.8 0-1.5-.7-2.2-.9-.9-.7-2.6.3-3.5 1-.9 2.6-.8 3.6.2.9.9 1 2.5 0 3.4z"/></svg>