<svg xmlns="http://www.w3.org/2000/svg" width="64" height="64" viewBox="0 0 64 64"><path fill="#0276ee" d="M32 0C14.4 0 0 14.4 0 32s14.4 32 32 32 32-14.4 32-32S49.6 0 32 0M14.3 52.2c.4-5 3.3-8.6 8.1-10.5 0 0 3.4-1.6 9.1-1.6 6.3 0 9.7 1.5 9.7 1.5 4.6 1.7 8.2 5 8.7 10.5l-.3 1.6C44.8 57.7 38.7 60 32 60c-6.6 0-12.7-2.3-17.5-6.2l-.2-1.6zm14.6-30.6c.3.6.7 1.2 1.3 1.8 2.3 2.6 6 4 10.7 4h1.4c-.3 5.6-5 10.1-10.7 10.1-5.7 0-10.4-4.5-10.7-10.2 2.8-.4 6.2-2 8-5.7m-7.7 2.9c.7-3.5 3.1-6.3 6.3-7.6-.5 5.5-4.1 7.1-6.3 7.6m9.1-8.2V16c.5-.1.9-.1 1.4-.1 5.2.1 9.6 3.8 10.5 8.8H41c-4 0-7-1-8.7-3-1.6-1.8-2-4.2-2-5.4m22 35c-.9-6.8-5.8-11.5-13.7-13.2 3.8-2.3 6.4-6.6 6.4-11.4 0-7.4-6-13.4-13.4-13.4-6.9 0-12.6 5.3-13.3 12 0 .2-.1 1.4-.1 1.4 0 4.9 2.6 9.1 6.5 11.5-7.5 1.7-12.2 6.4-13.1 13.1C6.9 46.2 4 39.5 4 32 4 16.6 16.6 4 32 4s28 12.6 28 28c0 7.5-2.9 14.2-7.7 19.3"/></svg>