<svg xmlns="http://www.w3.org/2000/svg" width="48" height="48" viewBox="0 0 48 48"><path fill="#fff" d="M43 40.562V20h-4.656c.417 2 .625 2.833.625 4.25 0 2.625-.667 5.125-2 7.344-1.334 2.22-3.147 4.014-5.44 5.305-2.292 1.292-4.792 1.957-7.5 1.957-4.103 0-7.614-1.4-10.53-4.224-2.917-2.823-4.375-6.387-4.375-10.386 0-1.417.208-2.247.625-4.247H5v20.564c0 .54.354.76.72 1.123S6.707 42 7.25 42h33.406c.52 0 1.188.052 1.562-.312s.782-.583.782-1.124v-.002zm-9.312-16.656c0-2.583-.942-4.787-2.828-6.61-1.885-1.822-4.16-2.733-6.827-2.733-2.646 0-4.912.91-6.797 2.734s-2.828 4.026-2.828 6.61c0 2.582.942 4.785 2.828 6.608 1.885 1.822 4.15 2.733 6.797 2.733 2.667 0 4.942-.91 6.827-2.733 1.885-1.823 2.828-4.026 2.828-6.61zM43 12.656V7.5c0-.583-.427-1.26-.844-1.688C41.74 5.385 41.012 5 40.406 5H34.97c-.605 0-1.022.385-1.44.812C33.116 6.24 33 6.917 33 7.5v5.156c0 .604.115 1.208.53 1.625.418.417.835.72 1.44.72h5.437c.604 0 1.333-.303 1.75-.72.416-.416.843-1.02.843-1.624zm5-6.5v35.687c0 1.688-.604 3.136-1.812 4.345C44.978 47.396 43.53 48 41.843 48H6.156c-1.688 0-3.135-.604-4.344-1.812C.604 44.978 0 43.53 0 41.843V6.156C0 4.468.604 3.02 1.812 1.812S4.47 0 6.156 0h35.687c1.688 0 3.136.604 4.345 1.812C47.396 3.022 48 4.47 48 6.156z"></path></svg>