<svg xmlns="http://www.w3.org/2000/svg" viewBox="0 0 624.55 66.79"><defs><style>.cls-1{fill:#25211f;}</style></defs><title>Rokt Calendar Logo Black</title><g id="Layer_2" data-name="Layer 2"><g id="Layer_1-2" data-name="Layer 1"><path class="cls-1" d="M287.53,0c13.81,0,22.68,7.23,25.34,21.22L301.8,23c-1.74-9.51-6.41-14.27-14.18-14.27-9.7,0-16.1,7.78-16.1,24.61v.18c0,17.38,6.77,24.61,16.1,24.61,7.41,0,12.81-4.49,14.73-14.82l11.07,1.65c-2.57,14.54-12.54,21.86-26,21.86-16.84,0-28.54-12-28.54-33.3V33.3C258.9,13.08,269.69,0,287.53,0Z"/><path class="cls-1" d="M348.73,58c-2.93,5.67-8.23,8.59-14.91,8.59-8.69,0-15.46-5.21-15.46-13.63s5.4-14.91,26.35-15.73l3.75-.18V35.4c0-6.13-2.57-9.15-8.24-9.15-4.48,0-7.13,2.66-9,7.14L321.2,31.56c2.37-7.59,8.78-13.17,19-13.17,13.36,0,19.49,6.77,19.49,19.76V65.41h-11Zm-.27-10V43.18l-3,.18c-12.72.64-15.74,4.48-15.74,9.15,0,4.3,3.3,6.77,7.69,6.77C344,59.28,348.46,54.61,348.46,48Z"/><path class="cls-1" d="M370.05,65.41v-64H381.3v64Z"/><path class="cls-1" d="M390.27,42.9v-.64c0-14,8.87-23.87,22.41-23.87,14,0,21.59,8.87,21.59,24v2H401.7c.37,10.06,4.94,15.09,12.17,15.09,4.11,0,8-2.47,11.71-8.87l8.32,3.66a22,22,0,0,1-20.31,12.53C399.41,66.78,390.27,57.45,390.27,42.9ZM402,38h20.86c-.64-8.69-3.84-12.35-10.06-12.35C406.91,25.61,403,30,402,38Z"/><path class="cls-1" d="M442.87,65.41V19.76h11.25v8.78c3.11-6.86,8.42-10.15,15-10.15,10.52,0,15.28,7.13,15.28,16.28V65.41H473.06V36.77c0-6.58-2.38-9.78-8-9.78-6.77,0-11,5.3-11,13.53V65.41Z"/><path class="cls-1" d="M526.48,57.17a16.47,16.47,0,0,1-15,9.61c-11.53,0-19-10.43-19-23.7v-1c0-13.36,7.5-23.69,19-23.69a16.39,16.39,0,0,1,15,9.51V1.37h11.25v64H526.48ZM504.07,42.08v1c0,11,4.57,16.38,11.43,16.38,6.22,0,11.26-6.31,11.26-16.38v-1c0-10.16-5-16.38-11.26-16.38C508.64,25.7,504.07,31.1,504.07,42.08Z"/><path class="cls-1" d="M575.7,58c-2.93,5.67-8.23,8.59-14.91,8.59-8.69,0-15.46-5.21-15.46-13.63s5.4-14.91,26.34-15.73l3.75-.18V35.4c0-6.13-2.56-9.15-8.23-9.15-4.48,0-7.13,2.66-9,7.14l-10.07-1.83c2.38-7.59,8.79-13.17,19-13.17,13.36,0,19.49,6.77,19.49,19.76V65.41h-11Zm-.28-10V43.18l-3,.18c-12.72.64-15.74,4.48-15.74,9.15,0,4.3,3.3,6.77,7.69,6.77C570.94,59.28,575.42,54.61,575.42,48Z"/><path class="cls-1" d="M596.56,65.41V19.76h11.25V30.64c2.75-7.77,8-11.52,14.73-11.52a12.81,12.81,0,0,1,2,.18V29.91c-1-.09-2.74-.27-3.75-.27-8,0-13,4.39-13,14.27v21.5Z"/><path class="cls-1" d="M35.23,23.5c0-5.32-2.7-8.12-9.25-8.14l-8.37,0-.05,16.32,8.37,0c6.55,0,9.28-2.68,9.3-8.18m18.28.23c0,7.69-4.23,12.82-12.24,15.85L56,65.38l-18.83-.06L25.35,42.85l-7.82,0-.07,22.43L0,65.21.19,4.11l28.55.08c17.1.06,24.8,8,24.77,19.54"/><path class="cls-1" d="M88.17,14.45c-7.27,0-11.75,6.08-11.79,20.66v.17C76.33,49.86,80.77,56,88,56S99.7,49.93,99.75,35.35v-.17c0-14.58-4.39-20.7-11.58-20.73m-21.72-2.9C71.92,5.9,79.2,3,88.21,3.07S104.48,6,109.82,11.69s8.15,13.38,8.11,23.24v.17q0,14.81-8.25,23.29C104.3,64,97,66.81,88,66.78S71.74,63.94,66.3,58.25s-8.14-13.47-8.11-23.33v-.17c0-9.87,2.78-17.54,8.26-23.2"/><polygon class="cls-1" points="184.81 4.82 184.77 17.73 202.05 17.79 201.9 65.97 219.45 66.02 219.6 17.84 236.97 17.89 237.01 4.97 184.81 4.82"/><polygon class="cls-1" points="142.62 65.64 142.77 33.98 165.97 15.86 150.21 38.5 150.2 38.99 163.27 65.71 182.97 65.77 165.86 31.98 180.4 4.79 170.46 4.76 142.81 23.82 142.9 4.67 125.45 4.62 125.27 65.59 142.62 65.64"/></g></g></svg>