<svg xmlns="http://www.w3.org/2000/svg" viewBox="0 0 12.87 10.46"><path d="M106.56,95.24a5.1,5.1,0,0,1-1.52.41,2.56,2.56,0,0,0,1.16-1.46,4.83,4.83,0,0,1-1.67.64A2.65,2.65,0,0,0,100,96.64a2.35,2.35,0,0,0,.07.6,7.51,7.51,0,0,1-5.45-2.76,2.72,2.72,0,0,0-.35,1.33A2.63,2.63,0,0,0,95.4,98a2.52,2.52,0,0,1-1.19-.33v0a2.64,2.64,0,0,0,2.11,2.59,2.61,2.61,0,0,1-.69.09,2.74,2.74,0,0,1-.5,0,2.64,2.64,0,0,0,2.47,1.83,5.3,5.3,0,0,1-3.28,1.13,4.44,4.44,0,0,1-.63,0A7.5,7.5,0,0,0,105.25,97c0-.12,0-.23,0-.34A5.37,5.37,0,0,0,106.56,95.24Z" transform="translate(-93.69 -94)" style="fill: #eb5f07"/></svg>