<svg xmlns="http://www.w3.org/2000/svg" viewBox="0 0 14 14"><path d="M100.81,99.05v0Z" transform="translate(-93 -93)" style="fill: #eb5f07"/><path d="M105.68,93H94.31A1.31,1.31,0,0,0,93,94.31v11.38A1.31,1.31,0,0,0,94.31,107h11.38a1.31,1.31,0,0,0,1.31-1.31V94.31A1.32,1.32,0,0,0,105.68,93Zm-9.82,2.18a1.12,1.12,0,0,1,0,2.24h0a1.12,1.12,0,0,1,0-2.24Zm1.23,9.64H94.85v-6.7h2.24v6.7Zm8.17,0h-2.21v-3.49c0-.88-.25-1.48-1-1.48a1.21,1.21,0,0,0-1.13.8,1.66,1.66,0,0,0-.07.53v3.64H98.54s0-6.1,0-6.72h2.27v.93a2.21,2.21,0,0,1,2-1.08c1.45,0,2.46,1.12,2.46,3.13v3.74Z" transform="translate(-93 -93)" style="fill: #eb5f07"/></svg>