<?xml version="1.0" encoding="utf-8"?>
<!-- Generator: Adobe Illustrator 22.1.0, SVG Export Plug-In . SVG Version: 6.00 Build 0)  -->
<svg version="1.1" id="Layer_1" xmlns="http://www.w3.org/2000/svg" xmlns:xlink="http://www.w3.org/1999/xlink" x="0px" y="0px"
	 viewBox="0 0 705 500" style="enable-background:new 0 0 705 500;" xml:space="preserve">
<style type="text/css">
	.st0{fill:#231F20;}
	.st1{fill:url(#SVGID_1_);}
	.st2{fill:url(#SVGID_2_);}
	.st3{fill:url(#SVGID_3_);}
	.st4{fill:url(#SVGID_4_);}
	.st5{fill:url(#SVGID_5_);}
	.st6{fill:url(#SVGID_6_);}
	.st7{fill:url(#SVGID_7_);}
	.st8{fill:url(#SVGID_8_);}
	.st9{fill:url(#SVGID_9_);}
	.st10{fill:url(#SVGID_10_);}
	.st11{fill:url(#SVGID_11_);}
	.st12{fill:url(#SVGID_12_);}
	.st13{fill:url(#SVGID_13_);}
	.st14{fill:url(#SVGID_14_);}
	.st15{fill:url(#SVGID_15_);}
	.st16{fill:url(#SVGID_16_);}
	.st17{fill:url(#SVGID_17_);}
	.st18{fill:url(#SVGID_18_);}
	.st19{fill:url(#SVGID_19_);}
	.st20{fill:url(#SVGID_20_);}
	.st21{fill:url(#SVGID_21_);}
	.st22{fill:url(#SVGID_22_);}
	.st23{fill:url(#SVGID_23_);}
	.st24{fill:url(#SVGID_24_);}
	.st25{fill:url(#SVGID_25_);}
	.st26{fill:url(#SVGID_26_);}
</style>
<g>
	<path class="st0" d="M681.6,67.8H551.4V0.3l-391.2,0l0.1,67.5H0.2L0,86.8l11.2,10c2.9,2.6,5.9,5.2,8.8,7.8l1.4,1.2l-0.2,133.9
		l20.3-4.6c15.9-3.6,32-7,47.9-10.1l4.3-0.8l1-0.3l16.8-2.9c7.5-1.3,15.2-2.6,23.1-3.8l11.8-1.8c7.4-1.1,15-2.2,23.1-3.3l12.4-1.6
		c11.3-1.4,23.7-2.7,37.7-4.1l4-0.3l3.5,24.4c1.8,12.7,6.9,24.7,14.7,34.6l2.3,2.9l-87,87l40.6-10.3l-4.7,86.4l25.2-22.2l3.8,63.8
		l25.7-32.3l40.2,53.2l6.4-21.2l47.8,27l0.3-18.6h3.8l6.9-0.6c5-0.4,11.2-1,11.7-1l11.4-1.7c22.3-3.4,43.4-11.6,60.9-23.9
		c22.9-16,38.5-36.8,46.2-61.9l0.5-1.6l6-3.4l4.4-13.5l19.5-11.6l-0.6-8.1l20.9-10.4l-58.4-60.2l-5.2-1c-5.1-1-11-2.4-16.2-4
		l-0.9-0.3L428.2,254l-91.1-34.5l-0.7-0.3l-4,0.4c-2.3,0.2-14.5,1.4-29.7,1.4c-13.6,0-38.5-1-51.6-7.8l-16-8.2l17.5-1.5
		c19.4-1.4,39.1-2.4,58.5-3l12.5-0.3c7.8-0.2,15.6-0.3,23.3-0.3l6,0l6,0c7.7,0,15.5,0.1,23.3,0.3l19.6,0.4l0.3,0
		c0.8,0.1,1.6,0.2,2.7,0.2c16.3,0.6,32.5,1.5,48.4,2.6l12.4,0.9c7.8,0.6,15.7,1.3,23.2,2.1l11.9,1.2c7.7,0.8,15.5,1.7,23.2,2.7
		l15.4,1.9l14.7,2.1c7.8,1.1,15.6,2.3,23.1,3.5l15.1,2.5l14.5,2.7c16,2.9,32.1,6.2,48,9.7l7.2,1.6l6-4.3
		c11.8-8.4,16.7-11.9,16.7-20.9l-0.1-48.5l-4.2-4.7c-3-3.3-6-6.7-9.1-10l-3.9-4.2l17.1-7.8l-0.1-32.7l3.9-1.7l16.6-6V68L681.6,67.8z
		"/>
	<g>
		<linearGradient id="SVGID_1_" gradientUnits="userSpaceOnUse" x1="211.4431" y1="349.6367" x2="506.409" y2="349.6367">
			<stop  offset="0" style="stop-color:#FAE300"/>
			<stop  offset="1" style="stop-color:#D7B828"/>
		</linearGradient>
		<path class="st1" d="M506.4,338.4l-38.9-40.2c0,0-23.2-4.3-32.1-10.2l1.5-3.1l-17.6-16.7l-85-32.1c0,0-62.1,6.6-90.7-8.2
			c2.4,16.6,11.4,30.6,24.9,39l-57,57l56.3-14.2l-17.8,8l-34.8,12.3l-3.4,62.5l40.5-35.6l24.8-16.2l-23.1,18.3L233.1,378l3,50.4
			l41.8-52.6l-24.2,44.6l27.9,37l12.5-41.4l4.4-12l-7.7,47l35.5,20.1l0.3-16.5c11.8,8,23.3,9.7,23.3,9.7s-28.1-17.6-15.8-60
			c0,0,6.8-1,10.2-4c-2.8-1.5-6-4.1-6.4-7.8c0,0,7.2-0.8,12.2-5.5c-3.4-2.2-5.3-5.1-5.7-9c0,0,16.7-30,50.1-40.8l11,5.9
			c0,0-0.8,5.6-3.3,10.5c0,0,6-1,13-5.3c0,0,1.8,3.1-0.3,9.9c0,0,5-0.6,7.7-3.8l13,10.1c0,0,10.8,47.6-49.1,94.6
			c0,0,68.6-15.5,83.4-80l6.5-3.7l4.3-13.3l16.1-9.6l-0.6-9L506.4,338.4z M394.3,290.6c-0.9-2.3-2.6-7.8-4.8-12.2
			c-9.7-11-26.8-18.2-26.8-18.2l30.8,13.1l22.5,18.8L394.3,290.6z M400.4,371.1c-4.8,4.1-9.2,8.6-13,13.4c-1.8,2.3-3.6,4.7-5.2,7.2
			l3.9,2.7l-3,3.7l-3.2-2.5l-3,5c-0.6,1.1-1.2,2.1-1.7,3.2l3.3,1.7l-2.6,4l-2.7-1.7c-0.1,0.2-0.1,0.3-0.2,0.5
			c-1.4,2.8-2.5,5.7-3.7,8.5c-2.3,5.8-4.4,11.7-6.5,17.7c0.4-6.3,1.7-12.6,3.5-18.8c0.9-3.1,2-6.1,3.2-9.1c0.1-0.3,0.3-0.6,0.4-1
			l-3.1-1.9h-0.5l2.8-4.2l2.8,1.9l0.6-1.1c0.4-0.8,0.8-1.6,1.2-2.4c0.6-1.1,1.2-2.1,1.9-3.2l1-1.9l-3-2.1l2.6-3.4l2.9,2
			c1.8-2.5,3.8-4.9,6-7.1C389.4,377.8,394.6,373.8,400.4,371.1z"/>
		<g>
			<linearGradient id="SVGID_2_" gradientUnits="userSpaceOnUse" x1="189.6767" y1="32.9526" x2="189.6767" y2="81.0352">
				<stop  offset="0" style="stop-color:#FFFFFF"/>
				<stop  offset="1" style="stop-color:#C4C4C4"/>
			</linearGradient>
			<path class="st2" d="M206.8,16.9v49.2H196V45.1h-8.4v21.1h-10.8V22.1l-4.3-3.1v-2.1h15.1v17.7h8.4V16.9H206.8z"/>
			<linearGradient id="SVGID_3_" gradientUnits="userSpaceOnUse" x1="243.903" y1="32.9526" x2="243.903" y2="81.0352">
				<stop  offset="0" style="stop-color:#FFFFFF"/>
				<stop  offset="1" style="stop-color:#C4C4C4"/>
			</linearGradient>
			<path class="st3" d="M252.9,16.9l5.4,5.5v38.2l-5.5,5.5h-17.7l-5.6-5.5V22.4l5.6-5.5H252.9z M240,57.1h7.8V25.8h-15.8l7.9,3.7
				V57.1z"/>
			<linearGradient id="SVGID_4_" gradientUnits="userSpaceOnUse" x1="297.5065" y1="32.9526" x2="297.5065" y2="81.0352">
				<stop  offset="0" style="stop-color:#FFFFFF"/>
				<stop  offset="1" style="stop-color:#C4C4C4"/>
			</linearGradient>
			<path class="st4" d="M314,16.9v43.6l-5.4,5.7h-18l-5.5-5.7V22l-4.2-3.1v-2.1h14.5v40.2h8.2V16.9H314z"/>
			<linearGradient id="SVGID_5_" gradientUnits="userSpaceOnUse" x1="351.8458" y1="32.9526" x2="351.8458" y2="81.0352">
				<stop  offset="0" style="stop-color:#FFFFFF"/>
				<stop  offset="1" style="stop-color:#C4C4C4"/>
			</linearGradient>
			<path class="st5" d="M360,16.9l6.9,5.6v7.8h-10.7v-4.2h-17.1l8.3,2.7v7.4l12.9,0.1l6.6,5.2v19.1l-6.8,5.4h-16.4l-7.1-5.7v-8.7
				h10.7v4.7h8.9V45.7H343l-6.2-5.2V22.4l5.9-5.5H360z"/>
			<linearGradient id="SVGID_6_" gradientUnits="userSpaceOnUse" x1="405.0063" y1="32.9526" x2="405.0063" y2="81.0352">
				<stop  offset="0" style="stop-color:#FFFFFF"/>
				<stop  offset="1" style="stop-color:#C4C4C4"/>
			</linearGradient>
			<path class="st6" d="M420.3,16.9v14.8h-1.7l-3.1-4.9h-5.1V62l2.7,2v2.1h-16.2V64l2.7-2V26.9h-5.2l-3.1,4.9h-1.7V16.9H420.3z"/>
			<linearGradient id="SVGID_7_" gradientUnits="userSpaceOnUse" x1="457.4128" y1="32.9526" x2="457.4128" y2="81.0352">
				<stop  offset="0" style="stop-color:#FFFFFF"/>
				<stop  offset="1" style="stop-color:#C4C4C4"/>
			</linearGradient>
			<path class="st7" d="M466.4,16.9l5.4,5.5v38.2l-5.5,5.5h-17.7l-5.6-5.5V22.4l5.6-5.5H466.4z M453.5,57.1h7.9V25.8h-15.8l7.9,3.7
				V57.1z"/>
			<linearGradient id="SVGID_8_" gradientUnits="userSpaceOnUse" x1="514.6386" y1="32.9526" x2="514.6386" y2="81.0352">
				<stop  offset="0" style="stop-color:#FFFFFF"/>
				<stop  offset="1" style="stop-color:#C4C4C4"/>
			</linearGradient>
			<path class="st8" d="M534.8,16.9v49.3h-13.7l-9.5-26.4l-3.3-12.3l1.7,12.4v26.3h-11V22.1l-4.4-3.2v-2h18.3l9.5,26l2.8,10.7
				l-1.4-11V21.8l-4.1-3v-2H534.8z"/>
		</g>
		<g>
			<g>
				
					<linearGradient id="SVGID_9_" gradientUnits="userSpaceOnUse" x1="526.7755" y1="98.8307" x2="526.7755" y2="200.0126" gradientTransform="matrix(1 0 0 1 11.0973 -15.2897)">
					<stop  offset="0" style="stop-color:#FAE300"/>
					<stop  offset="1" style="stop-color:#D7B828"/>
				</linearGradient>
				<path class="st9" d="M547.7,84.4c-6.5,0-13.1,0-19.6,0c2.5,2,5,4.1,7.5,6.2L547.7,84.4z"/>
			</g>
			<g>
				
					<linearGradient id="SVGID_10_" gradientUnits="userSpaceOnUse" x1="645.1353" y1="98.8307" x2="645.1353" y2="200.0126" gradientTransform="matrix(1 0 0 1 11.0973 -15.2897)">
					<stop  offset="0" style="stop-color:#FAE300"/>
					<stop  offset="1" style="stop-color:#D7B828"/>
				</linearGradient>
				<path class="st10" d="M667.9,108.1l-23.3,7.7c0,0.5,0,1,0,1.5c3.5,3.6,7.3,7.4,11.3,11.6l12.1-5.5
					C667.9,118.3,667.9,113.2,667.9,108.1z"/>
			</g>
			<g>
				
					<linearGradient id="SVGID_11_" gradientUnits="userSpaceOnUse" x1="556.6476" y1="98.8307" x2="556.6476" y2="200.0126" gradientTransform="matrix(1 0 0 1 11.0973 -15.2897)">
					<stop  offset="0" style="stop-color:#FAE300"/>
					<stop  offset="1" style="stop-color:#D7B828"/>
				</linearGradient>
				<path class="st11" d="M579.5,163.7c-0.1-8.8-0.1-17.6-0.2-26.3l-23.3,7.7c0.1,9.8,0.2,19.5,0.2,29.3L579.5,163.7z"/>
			</g>
			<g>
				
					<linearGradient id="SVGID_12_" gradientUnits="userSpaceOnUse" x1="634.2372" y1="98.8307" x2="634.2372" y2="200.0126" gradientTransform="matrix(1 0 0 1 11.0973 -15.2897)">
					<stop  offset="0" style="stop-color:#FAE300"/>
					<stop  offset="1" style="stop-color:#D7B828"/>
				</linearGradient>
				<path class="st12" d="M609.2,116.4l17.6-7.8c-1.6-1-3.1-2.1-4.7-3.1c3.4,0.1,6.8,0.2,10.1,0.3c0.1,0,0.2,0,0.3,0
					c0.1,0,0.3,0,0.4,0l48.6-21.5c-4.6,0-9.1,0-13.7,0c-4.3,0-8.6,0-12.9,0L609.1,101C609.1,106.2,609.2,111.3,609.2,116.4z"/>
			</g>
			<g>
				
					<linearGradient id="SVGID_13_" gradientUnits="userSpaceOnUse" x1="613.2016" y1="98.8307" x2="613.2016" y2="200.0126" gradientTransform="matrix(1 0 0 1 11.0973 -15.2897)">
					<stop  offset="0" style="stop-color:#FAE300"/>
					<stop  offset="1" style="stop-color:#D7B828"/>
				</linearGradient>
				<path class="st13" d="M632.6,129.6c0-3.3,0-6.6,0-9.9l-23.3,7.7c0,1.4,0,2.7,0,4.1c4.3,4.1,8.6,8.3,12.9,12.6l17.1-7.8
					C637.1,134.1,634.9,131.9,632.6,129.6z"/>
			</g>
			<g>
				
					<linearGradient id="SVGID_14_" gradientUnits="userSpaceOnUse" x1="556.063" y1="98.8307" x2="556.063" y2="200.0126" gradientTransform="matrix(1 0 0 1 11.0973 -15.2897)">
					<stop  offset="0" style="stop-color:#FAE300"/>
					<stop  offset="1" style="stop-color:#D7B828"/>
				</linearGradient>
				<path class="st14" d="M596.5,93c-3.3-2.9-6.6-5.8-9.9-8.6c-2.1,0-4.2,0-6.2,0l-42.6,14.2c0,1.5,0,3.1,0,4.6
					c6,0.1,11.9,0.3,17.9,0.4c0,2.9,0,5.7,0.1,8.6l40.8-18.8C596.5,93.3,596.5,93.1,596.5,93z"/>
			</g>
			<g>
				
					<linearGradient id="SVGID_15_" gradientUnits="userSpaceOnUse" x1="556.4288" y1="98.8307" x2="556.4288" y2="200.0126" gradientTransform="matrix(1 0 0 1 11.0973 -15.2897)">
					<stop  offset="0" style="stop-color:#FAE300"/>
					<stop  offset="1" style="stop-color:#D7B828"/>
				</linearGradient>
				<path class="st15" d="M579.3,129.7c0-5.9-0.1-11.9-0.1-17.8l-23.3,8.5c0.1,6.6,0.1,13.1,0.2,19.7L579.3,129.7z"/>
			</g>
			<g>
				
					<linearGradient id="SVGID_16_" gradientUnits="userSpaceOnUse" x1="596.7244" y1="98.8307" x2="596.7244" y2="200.0126" gradientTransform="matrix(1 0 0 1 11.0973 -15.2897)">
					<stop  offset="0" style="stop-color:#FAE300"/>
					<stop  offset="1" style="stop-color:#D7B828"/>
				</linearGradient>
				<path class="st16" d="M605.1,89.5l11.1-5.1c-5.6,0-11.2,0-16.8,0C601.3,86.1,603.2,87.8,605.1,89.5z"/>
			</g>
			<g>
				
					<linearGradient id="SVGID_17_" gradientUnits="userSpaceOnUse" x1="48.4627" y1="98.8307" x2="48.4627" y2="200.0126" gradientTransform="matrix(1 0 0 1 11.0973 -15.2897)">
					<stop  offset="0" style="stop-color:#FAE300"/>
					<stop  offset="1" style="stop-color:#D7B828"/>
				</linearGradient>
				<path class="st17" d="M22.2,84.4c5.3,4.7,10.6,9.3,15.8,13.8c0,12.7,0,25.4-0.1,38c11.7,10.5,23.4,20.5,35.1,29.9
					c0,7.9-0.1,15.8-0.1,23.7c-4,0.7-7.9,1.3-11.9,2c0-3.7,0-7.3,0-11c-6.8-5.6-14.5-11.9-23.2-19c0,19-0.1,38-0.1,57
					c16.1-3.7,32.3-7.1,48.5-10.2c6.6-6.9,9.9-10.4,9.9-10.6c0.1-12.8,0.1-25.6,0.2-38.4c-11.7-9.2-23.4-18.9-35.1-29.1
					c0-5.9,0-11.8,0.1-17.7c-3.4-2-6.7-4.1-10.1-6.1c3.4-0.1,6.7-0.2,10.1-0.4c2.1-0.1,4.3-0.1,6.4-0.2c1.9-0.1,3.7-0.1,5.6-0.2
					c0,3.6,0,7.2-0.1,10.8c6.8,6.2,14.5,12.7,23.3,19.6c0.1-14.4,0.2-28.8,0.3-43.1c-3.3-2.9-6.5-5.8-9.8-8.8
					C65.4,84.4,43.8,84.4,22.2,84.4z"/>
			</g>
			<g>
				
					<linearGradient id="SVGID_18_" gradientUnits="userSpaceOnUse" x1="337.1878" y1="98.8307" x2="337.1878" y2="200.0126" gradientTransform="matrix(1 0 0 1 11.0973 -15.2897)">
					<stop  offset="0" style="stop-color:#FAE300"/>
					<stop  offset="1" style="stop-color:#D7B828"/>
				</linearGradient>
				<path class="st18" d="M364,131.9c6.1-4.4,12.3-8.8,18.4-13.3c0-9.1,0-18.1-0.1-27.2c-6.4-4.7-9.7-7.1-9.9-7.1
					c-19.5,0-39,0-58.5,0c3.2,2.4,6.4,4.7,9.6,7.1c-0.1,30.7-0.1,61.5-0.2,92.2c7.9-0.2,15.7-0.3,23.6-0.3c0-14.6,0-29.2,0-43.9
					c8,5.5,12,8.4,12,8.6c0,11.8,0,23.5,0,35.3c7.9,0,15.7,0.1,23.6,0.3c0-12.8-0.1-25.5-0.1-38.3
					C376.3,140.9,370.2,136.4,364,131.9z M350.2,122c-2.1-1.4-3.2-2.1-3.2-2.3c0-4.5,0-9.1,0-13.6c-3.4-1.6-6.7-3.3-10.1-4.9
					c3.3,0,6.7,0,10.1,0c0,0,0.1,0,0.1,0c2.1,0,4.3,0,6.4,0c1.8,0,3.7,0,5.5,0c0,4.8,0,9.7,0,14.5C353.3,119.9,350.4,122,350.2,122z
					"/>
			</g>
			<g>
				
					<linearGradient id="SVGID_19_" gradientUnits="userSpaceOnUse" x1="497.3658" y1="98.8307" x2="497.3658" y2="200.0126" gradientTransform="matrix(1 0 0 1 11.0973 -15.2897)">
					<stop  offset="0" style="stop-color:#FAE300"/>
					<stop  offset="1" style="stop-color:#D7B828"/>
				</linearGradient>
				<path class="st19" d="M511.4,159.8l14.3-6.3c-0.1-7.4-0.1-14.8-0.2-22.1l-34.6,12.5c7.5,6,11.3,9.1,11.3,9.3
					c0.1,12.7,0.2,25.4,0.3,38.1c7.8,0.8,15.6,1.7,23.5,2.7c-0.1-13-0.2-25.9-0.3-38.9L511.4,159.8z"/>
			</g>
			<g>
				
					<linearGradient id="SVGID_20_" gradientUnits="userSpaceOnUse" x1="556.9034" y1="98.8307" x2="556.9034" y2="200.0126" gradientTransform="matrix(1 0 0 1 11.0973 -15.2897)">
					<stop  offset="0" style="stop-color:#FAE300"/>
					<stop  offset="1" style="stop-color:#D7B828"/>
				</linearGradient>
				<path class="st20" d="M556.2,175.6c0.1,7.5,0.1,14.9,0.2,22.4c7.8,1.1,15.6,2.3,23.4,3.6c-0.1-10.9-0.2-21.7-0.2-32.6
					L556.2,175.6z"/>
			</g>
			<g>
				
					<linearGradient id="SVGID_21_" gradientUnits="userSpaceOnUse" x1="627.6627" y1="98.8307" x2="627.6627" y2="200.0126" gradientTransform="matrix(1 0 0 1 11.0973 -15.2897)">
					<stop  offset="0" style="stop-color:#FAE300"/>
					<stop  offset="1" style="stop-color:#D7B828"/>
				</linearGradient>
				<path class="st21" d="M651.3,148.8l-19.2,5.4c4.2,4.4,8.5,8.8,12.7,13.4c0,8.1,0.1,16.1,0.1,24.2c-4-0.7-7.9-1.4-11.9-2
					c0-3.6,0-7.2-0.1-10.8c-5.6-6.2-12-12.8-18.9-19.7l-4.5,1.3c0.1,15.4,0.2,30.8,0.3,46.2c16.2,3,32.4,6.3,48.6,9.8
					c6.5-4.6,9.8-7.2,9.8-7.4c0-14.1,0-28.1-0.1-42.2C662.4,160.8,656.9,154.7,651.3,148.8z"/>
			</g>
			<g>
				
					<linearGradient id="SVGID_22_" gradientUnits="userSpaceOnUse" x1="479.9878" y1="98.8307" x2="479.9878" y2="200.0126" gradientTransform="matrix(1 0 0 1 11.0973 -15.2897)">
					<stop  offset="0" style="stop-color:#FAE300"/>
					<stop  offset="1" style="stop-color:#D7B828"/>
				</linearGradient>
				<path class="st22" d="M473.8,150.1l51.7-23.8c-0.1-7.8-0.1-15.6-0.2-23.4l-23.4,7.8c0.1,7,0.1,14.1,0.2,21.1
					c-8.1-6.3-12.1-9.5-12.1-9.7c0-2.5,0-5-0.1-7.4l-2.7,0.9l2.7-1.4c0-2.2,0-4.4,0-6.6c-3.4-1.8-6.7-3.6-10.1-5.4
					c3.3,0,6.7,0.1,10.1,0.2c0,0,0.1,0,0.1,0c2.1,0,4.3,0.1,6.4,0.1c1.8,0,3.7,0.1,5.5,0.1c0,1.8,0,3.6,0,5.5l23.3-12
					c0-1.2,0-2.5,0-3.7c-6.4-5.3-9.7-7.8-9.9-7.8c-19.5,0-39,0-58.5,0c3.2,2.4,6.4,4.9,9.6,7.4c0.2,32.1,0.4,64.1,0.7,96.2
					c7.8,0.6,15.7,1.3,23.5,2.1c-0.1-15.3-0.2-30.6-0.3-45.9L473.8,150.1z"/>
			</g>
			<g>
				
					<linearGradient id="SVGID_23_" gradientUnits="userSpaceOnUse" x1="408.7752" y1="98.8307" x2="408.7752" y2="200.0126" gradientTransform="matrix(1 0 0 1 11.0973 -15.2897)">
					<stop  offset="0" style="stop-color:#FAE300"/>
					<stop  offset="1" style="stop-color:#D7B828"/>
				</linearGradient>
				<path class="st23" d="M430.6,139.3c0.1,9.7,0.1,19.4,0.1,29c-4-0.2-8-0.4-12.1-0.5c-0.1-20.5-0.2-41-0.3-61.5
					c-3.3-1.7-6.6-3.4-9.9-5c3.3,0,6.6,0.1,9.9,0.1c0.1,0,0.1,0,0.2,0c2.1,0,4.3,0,6.4,0.1c1.8,0,3.6,0,5.3,0c0,4,0,7.9,0.1,11.9
					c6.9,5.3,14.7,11.2,23.6,17.8c-0.1-13.2-0.2-26.4-0.2-39.5c-3.3-2.5-6.6-4.9-9.9-7.3c-19.5,0-39,0-58.5,0
					c3.2,2.4,6.4,4.7,9.6,7.1c0.1,28.5,0.2,56.9,0.2,85.4c6.4,4.9,9.7,7.4,10,7.5c16.4,0.6,32.8,1.5,49.2,2.7
					c-0.1-9.8-0.1-19.6-0.2-29.5C447.3,151.9,439.4,145.8,430.6,139.3z"/>
			</g>
			<g>
				
					<linearGradient id="SVGID_24_" gradientUnits="userSpaceOnUse" x1="122.9558" y1="98.8307" x2="122.9558" y2="200.0126" gradientTransform="matrix(1 0 0 1 11.0973 -15.2897)">
					<stop  offset="0" style="stop-color:#FAE300"/>
					<stop  offset="1" style="stop-color:#D7B828"/>
				</linearGradient>
				<path class="st24" d="M99.9,84.4c3.2,2.9,6.3,5.8,9.5,8.6c-0.2,37.2-0.5,74.4-0.7,111.6c7.8-1.4,15.6-2.6,23.3-3.9
					c0.1-17.2,0.3-34.4,0.4-51.5c7.9,5.8,11.9,8.7,11.9,8.9c-0.1,13.6-0.2,27.2-0.3,40.8c7.8-1.2,15.6-2.3,23.4-3.3
					c0.3-34.4,0.6-68.8,0.8-103.2c-6.3-5.3-9.6-8-9.8-8C138.9,84.4,119.4,84.4,99.9,84.4z M144.5,135.1c-8-5.9-11.9-9.1-11.9-9.2
					c0-5.3,0.1-10.6,0.1-15.9c0,0,0,0,0,0c-3.4-1.8-6.7-3.7-10.1-5.6c3.4-0.1,6.8-0.2,10.1-0.3c0,0,0,0,0,0c2.1-0.1,4.3-0.1,6.4-0.2
					c1.9,0,3.7-0.1,5.6-0.1C144.6,114.2,144.6,124.7,144.5,135.1z"/>
			</g>
			<g>
				
					<linearGradient id="SVGID_25_" gradientUnits="userSpaceOnUse" x1="194.3311" y1="98.8307" x2="194.3311" y2="200.0126" gradientTransform="matrix(1 0 0 1 11.0973 -15.2897)">
					<stop  offset="0" style="stop-color:#FAE300"/>
					<stop  offset="1" style="stop-color:#D7B828"/>
				</linearGradient>
				<path class="st25" d="M171.3,84.4c3.2,2.6,6.3,5.3,9.5,7.8c-0.3,33.9-0.5,67.8-0.8,101.7c16.3-2,32.7-3.7,49.1-5.2
					c6.6-5.4,10-8.1,10-8.2c0.1-10.8,0.1-21.7,0.2-32.5c-6.1-4.4-12.2-8.7-18.3-13.2c6.2-5,12.3-9.9,18.5-14.7
					c0.1-9.4,0.1-18.9,0.2-28.3c-6.3-4.9-9.6-7.4-9.8-7.4C210.3,84.4,190.8,84.4,171.3,84.4z M215.6,172.1c-4,0.3-8,0.7-12,1
					c0.1-9.8,0.1-19.5,0.2-29.2c8,5.5,12,8.3,12,8.5C215.7,159,215.6,165.6,215.6,172.1z M216,117.8c-5.7,4.7-8.6,7.1-8.9,7.1
					c-2.1-1.4-3.2-2.2-3.2-2.3c0-4.9,0.1-9.8,0.1-14.7c-3.3-1.7-6.7-3.4-10-5.2c3.4-0.1,6.7-0.1,10.1-0.2c0,0,0,0,0,0
					c2.1,0,4.3-0.1,6.4-0.1c1.8,0,3.7-0.1,5.5-0.1C216.1,107.5,216,112.6,216,117.8z"/>
			</g>
			<g>
				
					<linearGradient id="SVGID_26_" gradientUnits="userSpaceOnUse" x1="265.7122" y1="98.8307" x2="265.7122" y2="200.0126" gradientTransform="matrix(1 0 0 1 11.0973 -15.2897)">
					<stop  offset="0" style="stop-color:#FAE300"/>
					<stop  offset="1" style="stop-color:#D7B828"/>
				</linearGradient>
				<path class="st26" d="M242.6,84.4c3.2,2.5,6.4,4.9,9.5,7.3c-0.2,31.8-0.4,63.5-0.6,95.3c19.7-1.4,39.4-2.4,59.2-3
					c0-14.1,0.1-28.1,0.1-42.2c-7.1,5.1-15,10.9-23.6,17.6c0,2.8,0,5.7,0,8.5c-4,0.2-8,0.3-12.1,0.5c0-8.3,0.1-16.6,0.1-24.9
					c5.3-0.2,10.5-0.3,15.8-0.5c3.9-2.9,7.9-5.7,11.8-8.6c-7.6-5.5-11.5-8.3-11.7-8.3c-5.3,0.1-10.5,0.2-15.8,0.3
					c0-6.6,0.1-13.2,0.1-19.9c-3.4-1.6-6.7-3.3-10.1-5c3.4,0,6.7-0.1,10.1-0.1c0,0,0,0,0,0c2.1,0,4.3,0,6.4-0.1c1.8,0,3.7,0,5.5,0
					c0,2.8,0,5.7,0,8.5c6.8,5.1,14.6,10.6,23.4,16.7c0-11.7,0.1-23.4,0.1-35.1c-3.3-2.4-6.6-4.7-9.9-7.1
					C281.6,84.4,262.1,84.4,242.6,84.4z"/>
			</g>
		</g>
	</g>
</g>
</svg>
