<?xml version="1.0" encoding="utf-8"?>
<!-- Generator: Adobe Illustrator 21.1.0, SVG Export Plug-In . SVG Version: 6.00 Build 0)  -->
<svg version="1.1" id="Layer_1" xmlns="http://www.w3.org/2000/svg" xmlns:xlink="http://www.w3.org/1999/xlink" x="0px" y="0px"
	 viewBox="0 0 1380 612" style="enable-background:new 0 0 1380 612;" xml:space="preserve">
<g>
	<path d="M124.8,362.1c-8.6-8.7-17.1-17.5-25.7-26.2c-12.2-12.3-24.3-24.7-36.5-37c-10.8-11-21.6-22-32.4-32.9
		c-3.9-4-7.9-7.9-11.8-11.8c-3.8-3.8-7.6-7.6-11.3-11.4v14.5c0.1-0.5,0.1-0.9,0.2-1.1c0.7,0.7,1.4,1.3,2,1.9
		c5.5,5.7,11,11.4,16.5,17c10.7,10.9,21.4,21.7,32.1,32.6c11.6,11.8,23.2,23.6,34.9,35.4c9.2,9.2,18.4,18.4,27.5,27.6
		c0.9,0.9,1.6,1.9,2.5,2.8c0.8,0.8,1.3,1.9,2.7,2c0.7-1.7,0.8-8.7,0.3-12.2C125.5,362.8,125.2,362.4,124.8,362.1z"/>
	<path d="M218.1,582.3c6.5,6.5,13,12.9,19.7,19.6c3.7,0,7.6,0,12.1,0c-1.2-1.4-1.9-2.5-2.8-3.5c-11-11.2-22.1-22.4-33.1-33.6
		c-11.6-11.8-23.3-23.6-34.9-35.4c-12.5-12.7-25-25.4-37.5-38.1c-8.1-8.2-16.2-16.6-24.3-24.8c-8.6-8.6-17.2-17.2-25.8-25.8
		c-0.4-0.4-0.9-0.7-1.3-1c-0.7,1.8-0.9,7.5-0.4,11.7c0.6,0.8,1.4,1.8,2.2,2.7c5.8,6,11.6,12,17.4,17.9
		c11.6,11.8,23.3,23.6,34.9,35.4c10.2,10.4,20.4,20.8,30.7,31.2C189.3,553.2,203.7,567.8,218.1,582.3z"/>
	<path d="M265.7,593.3c2.9,2.9,5.8,5.7,8.7,8.6c4,0,8,0,12.3,0c-0.3-0.5-0.5-0.8-0.7-1c-3.2-3.4-6.4-6.8-9.6-10.1
		c-10.8-11.1-21.7-22.1-32.6-33.1c-10.3-10.4-20.5-20.9-30.8-31.3c-11.2-11.4-22.4-22.8-33.7-34.2c-10.6-10.7-21.1-21.5-31.7-32.2
		c-12.7-12.9-25.5-25.9-38.3-38.8c-8.6-8.6-17.2-17.2-25.8-25.8c-0.7-0.6-1.1-1.7-2.5-1.6c0,4,0,7.9,0,11.9c0.4,0.5,0.7,0.8,1.1,1.2
		c7,7.2,14.1,14.4,21.1,21.6c10.7,10.9,21.4,21.7,32,32.5c11.5,11.6,22.9,23.2,34.4,34.9c11,11.2,22.1,22.4,33.1,33.6
		c12.5,12.7,25,25.4,37.6,38c7.7,7.8,15.4,15.4,23.1,23.2C264.3,591.6,264.9,592.5,265.7,593.3z"/>
	<path d="M257.8,435.5c5.6,5.7,11.1,11.5,16.7,17.2c11.4,11.6,22.8,23.1,34.2,34.7c10.6,10.7,21.1,21.5,31.7,32.2
		c6.4,6.5,12.8,12.9,19.3,19.3c0.5,0.5,1.1,0.9,1.9,1.7c0.2-1,0.4-1.6,0.4-2.2c0-2.6,0-5.1,0-7.7c0-1.6-0.5-2.9-1.7-4
		c-4.9-5.1-9.8-10.2-14.8-15.2c-11.1-11.3-22.3-22.6-33.4-34c-10.5-10.7-21-21.4-31.5-32c-7.1-7.2-14.4-14.4-21.6-21.6
		c-0.6-0.6-1.2-1.1-2.2-2c-0.7,4.4-0.2,8.4-0.4,12.2C257,434.6,257.4,435.1,257.8,435.5z"/>
	<path d="M189.8,465.5c-7.1-7.2-14.1-14.4-21.1-21.6c-10.2-10.3-20.3-20.7-30.5-31c-11.8-12-23.6-23.9-35.4-35.9
		c-10.7-10.9-21.4-21.7-32.1-32.6c-11.8-12-23.6-24-35.4-35.9c-9.4-9.5-18.8-18.8-28.2-28.2v13.5c0.1,0,0.2-0.1,0.3-0.1
		c0.6,0.6,1.3,1.1,1.9,1.8c7.4,7.6,14.8,15.1,22.2,22.7c13,13.2,26,26.3,38.9,39.5c12,12.2,24.1,24.4,36.1,36.6
		c10.2,10.4,20.4,20.8,30.6,31.1c9.2,9.3,18.5,18.5,27.7,27.8c1.6,1.6,3.1,3.5,4.7,5.1c1,1,2.2,1.8,3.2,2.8
		c5.6,5.7,11.2,11.4,16.8,17.1c0.4,0.4,1,0.6,1.9,1c0.1-1.2,0.2-1.9,0.2-2.6c0-2.2-0.1-4.5,0-6.7C191.6,468.1,191,466.7,189.8,465.5
		z"/>
	<path d="M9.2,108.4c9,9.2,18.1,18.4,27.1,27.6c9,9.2,18.1,18.4,27.1,27.6c11.9,12.1,23.8,24.2,35.8,36.3
		c9.2,9.3,18.5,18.5,27.7,27.7c0.6,0.6,1,1.3,1.6,1.9c2.5,2.3,5,4.6,7.6,6.9c0.1-0.6,0.3-1.3,0.3-2.1c0-2.5-0.1-5,0-7.5
		c0.1-1.8-0.6-3.2-1.8-4.4c-11.2-11.4-22.4-22.7-33.7-34.1c-10.3-10.4-20.6-20.9-30.8-31.3c-11.5-11.7-23-23.4-34.6-35.1
		c-7.1-7.2-14.3-14.3-21.4-21.4c-2.5-2.5-4.9-5-7.3-7.4v15.7c0-1.3,0.1-2.1,0.1-2.2C7.9,107.2,8.5,107.8,9.2,108.4z"/>
	<path d="M304.2,431.9c-10-10.2-20-20.3-30-30.5c-11.1-11.3-22.2-22.5-33.3-33.8c-10.9-11.1-21.8-22.2-32.8-33.2
		c-12.6-12.7-25.1-25.5-37.7-38.2c-9.4-9.5-18.8-19.1-28.2-28.7c-10.4-10.6-20.8-21.1-31.2-31.7c-11.5-11.6-22.9-23.3-34.4-34.9
		c-10.5-10.6-20.9-21.3-31.4-31.8c-8.3-8.4-16.7-16.8-25.1-25.1c-0.6-0.6-1.2-1.1-2.1-1.9c0,4.2,0,8,0,12.2c0.6,0.8,1.2,1.8,2,2.6
		c6,6.2,11.9,12.3,17.9,18.4C48.7,186.2,59.4,197,70,207.8c12.4,12.6,24.9,25.2,37.3,37.8c10.5,10.7,21,21.4,31.5,32
		c8.9,9.1,17.8,18.2,26.8,27.3c11.7,11.9,23.5,23.8,35.2,35.8c10.9,11.1,21.9,22.2,32.8,33.3c10.4,10.6,20.8,21.1,31.2,31.7
		c12,12.2,24,24.3,36,36.5c8.2,8.2,16.4,16.4,24.6,24.6c0.6,0.6,1.2,1.1,2.2,2c0.2-1.2,0.4-1.9,0.4-2.6c0-2.5,0-5,0-7.5
		c0-1.6-0.6-2.9-1.7-4C318.9,447,311.6,439.5,304.2,431.9z"/>
	<path d="M294.9,24.2c10.5,10.6,20.9,21.2,31.4,31.8c8.1,8.2,16.4,16.4,24.5,24.6c0.9,0.9,1.6,1.9,2.5,2.8c0.8,0.8,1.3,1.9,3,2
		c0.1-0.8,0.2-1.6,0.2-2.4c0-2.3-0.1-4.7,0-7c0.1-1.9-0.6-3.3-1.9-4.7c-11.1-11.2-22.2-22.5-33.3-33.8c-7.1-7.2-14.3-14.2-21.3-21.4
		c-1.9-1.9-3.6-4.1-5.4-6.1c-0.5,0-1,0-1.5,0c0,3.2,0.1,6.3,0,9.5C292.9,21.4,293.6,22.8,294.9,24.2z"/>
	<path d="M351.9,568.6c4.6,4.6,9.2,9.2,13.8,13.8c0.4,0.4,1,0.8,1.7,1.4c0-4.4,0-8.5,0-12.5c-0.3-0.3-0.4-0.6-0.7-0.8
		c-4.5-4.7-9-9.4-13.5-14c-11-11.2-22.1-22.4-33.1-33.6c-11.4-11.6-22.8-23.1-34.2-34.7c-10.1-10.3-20.2-20.5-30.3-30.8
		c-10.9-11.1-21.9-22.2-32.8-33.3c-11.8-11.9-23.5-23.8-35.3-35.8c-11.6-11.7-23.1-23.5-34.7-35.2c-8.1-8.2-16.2-16.3-24.4-24.4
		c-0.6-0.6-1-1.5-2.3-1.4c0,4,0,7.9,0,11.9c0.5,0.5,0.9,1,1.3,1.4c7.3,7.5,14.6,15,22,22.5c10.7,10.9,21.5,21.8,32.3,32.8
		c11.2,11.4,22.4,22.8,33.7,34.2c11.6,11.7,23.2,23.5,34.7,35.2c11.1,11.3,22.2,22.5,33.3,33.8c10.6,10.8,21.3,21.6,31.9,32.4
		C327.5,543.9,339.7,556.3,351.9,568.6z"/>
	<path d="M365,57.7c0.5,0.5,1.1,1,1.7,1.5c0.1,0,0.2,0.1,0.2,0.1c0.1,0,0.2,0,0.4-0.1c0.1-0.2,0.2-0.5,0.2-0.8c0-3.7,0-7.3,0-10.9
		c-3-3.2-5.8-6.4-8.8-9.4c-4.5-4.6-9-9.1-13.6-13.6c-0.8-0.8-1.9-1.7-2.9-1.8c-3.4-0.2-6.8,0-10.2,0.1c-0.1,0-0.2,0.2-0.3,0.4
		c0,0.1-0.1,0.2-0.1,0.2c0,0.2,0,0.4,0.1,0.5c8.4,8.6,16.7,17.2,25.1,25.7C359.5,52.3,362.2,55,365,57.7z"/>
	<path d="M362.1,116.8c-1.8-1.9-3.6-3.9-5.4-5.8c-9.1-9.3-18.3-18.7-27.5-28c-11.9-12-23.7-24.1-35.6-36.1
		c-10-10.1-20.1-20.1-30.2-30.2c-2.1-2.1-4-4.4-6-6.7c-4.3,0-8.7,0-13,0c3.6,3.8,7.1,7.7,10.7,11.4c9.8,10.1,19.7,20.1,29.6,30.1
		c13.1,13.3,26.3,26.6,39.4,39.9c4.5,4.5,9,8.9,13.4,13.4c9.1,9.2,18.1,18.4,27.1,27.6c0.7,0.7,1.4,1.3,2.2,2
		c0.7-2.2,0.7-10.5,0.2-12.7C365.4,120.1,363.7,118.5,362.1,116.8z"/>
	<path d="M7,18.5v14.3c0.1-0.6,0.2-1,0.3-1.2c0.6,0.6,1.3,1.1,1.8,1.7c3.1,3.2,6.2,6.5,9.3,9.8C29.8,54.7,41.3,66.4,52.8,78
		C63,88.4,73.2,98.8,83.4,109.1c12.4,12.6,24.9,25.2,37.3,37.9c12,12.2,24.1,24.4,36.1,36.6c8.4,8.5,16.7,17,25,25.5
		c11.6,11.8,23.2,23.5,34.7,35.2c10.6,10.7,21.1,21.5,31.7,32.2c13,13.2,26,26.3,39,39.5c9.6,9.8,19.2,19.6,28.9,29.4
		c7.9,7.9,15.8,15.8,23.7,23.7c0.5,0.5,1.1,0.9,1.7,1.3c1-1.8,1.3-7.4,0.7-11.8c-0.3-0.3-0.6-0.7-0.9-1.1
		c-6.7-6.9-13.4-13.7-20.1-20.6c-10.9-11.1-21.7-22.1-32.6-33.1c-11.3-11.5-22.6-22.9-33.8-34.3c-10.6-10.7-21.1-21.5-31.7-32.2
		c-12.1-12.3-24.2-24.6-36.3-36.8c-10.2-10.4-20.4-20.8-30.7-31.2c-11.4-11.6-22.8-23.1-34.2-34.7c-10.9-11.1-21.8-22.2-32.8-33.3
		c-10.8-11-21.6-22-32.4-32.9C41.5,53.2,26.2,38,10.9,22.7C9.7,21.4,8.5,20.1,7,18.5z"/>
	<path d="M176.4,601.9c-0.5-0.6-0.7-0.9-0.9-1.1c-4.7-4.9-9.5-9.8-14.2-14.7c-10.6-10.8-21.1-21.5-31.7-32.2
		c-12.3-12.5-24.6-24.9-36.9-37.4c-10.2-10.3-20.3-20.7-30.5-31c-11-11.2-22-22.3-33-33.5c-6.9-7-13.9-13.9-20.9-20.9
		c-0.4-0.4-0.9-0.7-1.4-1v12.7c0.9,0.8,1.5,1.4,2.1,2c5.5,5.7,11,11.4,16.5,17c10.9,11.1,21.9,22.2,32.8,33.3
		c11.7,11.9,23.5,23.8,35.2,35.8c10.2,10.4,20.4,20.8,30.6,31.1c12.5,12.7,25,25.4,37.6,38.1c0.6,0.6,1.3,1.2,2,1.9h5.8
		c0.1,0,0.2,0,0.2,0C172,602,174,602,176.4,601.9z"/>
	<path d="M232.3,148c11.4,11.6,22.8,23.1,34.2,34.7c10.5,10.6,20.9,21.2,31.4,31.9c11.9,12.1,23.8,24.2,35.8,36.3
		c8.2,8.3,16.5,16.5,24.7,24.8c2.5,2.5,4.8,5.1,7.2,7.6c0.4,0.4,1,0.7,1.8,1.4c0-4.5,0-8.5,0-12.8c-0.4-0.4-0.7-0.9-1.1-1.3
		c-10.9-11-21.7-22.1-32.6-33.1c-9.5-9.6-19.1-19.1-28.6-28.6c-2.5-2.5-4.8-5.2-7.3-7.8c-9.6-9.8-19.2-19.6-28.9-29.4c-3-3-6-6-9-9
		c-9.2-9.3-18.3-18.6-27.5-27.9c-0.4-0.4-0.9-0.5-1.4-0.7c-1.3,2-0.9,4-0.9,6c0,1.4,0.2,2.8,0.3,4.1c-0.2,0.1-0.3,0.1-0.5,0.2
		C230.7,145.6,231.3,147,232.3,148z"/>
	<path d="M55.1,39.6c-0.5,0-1,0.4-1.9,0.7c1,1.3,1.7,2.4,2.6,3.3c7.3,7.5,14.6,15,22,22.5c11.4,11.6,22.9,23.2,34.4,34.9
		c11.4,11.6,22.8,23.1,34.2,34.7c10.2,10.4,20.4,20.8,30.7,31.2c10.8,11,21.6,22,32.4,32.9c11.9,12,23.7,24.1,35.6,36.1
		c10.8,10.9,21.5,21.8,32.3,32.8c11.9,12.1,23.9,24.2,35.8,36.3c10.1,10.2,20.1,20.4,30.1,30.6c7.4,7.5,14.9,15,22.4,22.5
		c0.4,0.4,0.9,0.8,1.6,1.3c0-4.4,0-8.5,0-12.5c-0.5-0.6-1-1.1-1.4-1.5c-6.9-7.1-13.8-14.2-20.7-21.2c-9.5-9.7-19-19.4-28.5-29
		c-11.2-11.4-22.4-22.8-33.7-34.2c-12.2-12.4-24.4-24.8-36.7-37.2c-9.8-9.9-19.5-19.8-29.3-29.7c-11.6-11.8-23.3-23.6-34.9-35.4
		c-10.8-11-21.6-22-32.4-32.9c-11.9-12.1-23.9-24.2-35.8-36.3c-10.4-10.6-20.8-21.1-31.2-31.7c-5.3-5.3-10.6-10.6-15.9-15.9
		c-1.2-1.2-2.6-2.1-4.4-2c-1.4,0.1-2.8-0.1-4.2-0.1C57.3,39.6,56.2,39.5,55.1,39.6z"/>
	<path d="M103.3,41.1c-7.6-7.6-15.2-15.2-22.8-22.8c-1.4-1.4-2.7-3-4-4.4c-1.2-1.3-2.4-2.5-3.5-3.8c-4.2,0-8.3,0-12.5,0
		c0.5,0.8,0.9,1.6,1.5,2.2c4.2,4.4,8.4,8.8,12.6,13.1c9.6,9.8,19.1,19.5,28.7,29.2c12.5,12.6,24.9,25.3,37.4,37.9
		c9.4,9.5,18.9,19,28.4,28.5c0.2,0.2,0.6,0.2,1.2,0.5c0.1-1,0.2-1.8,0.2-2.6c0-2.2-0.1-4.5,0-6.7c0.1-2-0.6-3.5-2-4.9
		c-8.8-8.9-17.6-17.9-26.4-26.9C129.2,67.3,116.3,54.2,103.3,41.1z"/>
	<path d="M171,35.2c-3.6-3.7-7.1-7.5-10.7-11.2c-0.6-0.6-1.3-1.1-2.1-1.7c-0.8,2-1,8.9-0.4,12.5c0.3,0.3,0.6,0.7,0.9,1.1
		c9.7,9.9,19.5,19.8,29.2,29.7c11.2,11.3,22.3,22.6,33.5,34c11.4,11.6,22.8,23.1,34.2,34.7c10.1,10.3,20.2,20.5,30.3,30.8
		c12.6,12.7,25.1,25.5,37.7,38.2c10.4,10.5,20.8,21.1,31.2,31.7c3.6,3.6,7.2,7.2,10.8,10.8c0.4,0.4,1,0.7,1.8,1.3
		c0-4.3,0-8.2,0-12.5c-1.9-2.1-3.8-4.3-5.8-6.3c-10.3-10.5-20.7-21-31-31.5c-9.8-10-19.6-20-29.4-29.9c-12.8-13-25.6-25.9-38.4-38.9
		c-10-10.1-20-20.3-30-30.4C221.1,85.7,209.6,74,198,62.3C189,53.2,179.9,44.2,171,35.2z"/>
	<path d="M286.8,128.6c10,10.2,20.1,20.4,30.1,30.6c7.5,7.6,15.1,15.1,22.6,22.6c0.6,0.6,1.2,1.1,1.8,1.6c0.2,0,0.5-0.1,0.7-0.1
		c0.2-0.8,0.4-1.5,0.4-2.3c0.1-2.3,0-4.7,0-7c0-1.6-0.6-2.9-1.7-4c-6.2-6.3-12.4-12.8-18.6-19.1c-9.4-9.5-18.9-18.9-28.4-28.4
		c-2.5-2.5-4.8-5.1-7.2-7.6c-0.5-0.5-1.1-0.9-2-1.7c-0.3,1.2-0.5,2-0.5,2.7c-0.1,1.9,0.1,3.8-0.1,5.7
		C283.7,124.5,284.9,126.6,286.8,128.6z"/>
	<path d="M231.7,34.9c7.8,7.9,15.5,15.8,23.2,23.7c10.8,11,21.6,21.9,32.4,32.9c11.3,11.5,22.6,23,34,34.5
		c10.5,10.6,21.1,21.2,31.7,31.8c3.3,3.3,6.5,6.7,9.7,10c0.6,0.6,1.3,1.1,2.2,1.7c0.3-0.7,0.5-0.9,0.5-1.2c0-3.1,0.1-6.2,0-9.2
		c0-0.9-0.6-1.9-1.2-2.7c-1.8-2.2-3.7-4.2-5.7-6.3c-10.7-10.9-21.3-21.7-32-32.5c-16.1-16.3-32.2-32.5-48.3-48.8
		c-6.5-6.6-12.8-13.2-19.3-19.8c-8.7-8.8-17.5-17.6-26.3-26.3c-0.5-0.5-1.1-0.9-2.2-1.7c-0.1,2.7-0.2,4.8-0.2,6.9
		c0,0.7,0.2,1.5,0,2.2C229.8,32.1,230.3,33.6,231.7,34.9z"/>
	<path d="M148,535.2c-8.5-8.6-16.9-17.2-25.4-25.8c-10.8-11-21.6-22-32.4-32.9c-11-11.2-22.1-22.4-33.1-33.6
		c-13.5-13.7-27-27.4-40.6-41.1c-3.1-3.1-6.2-6.3-9.5-9.6v14.6c0.1-0.5,0.1-0.9,0.2-1.1c0.6,0.6,1.3,1.1,1.8,1.7
		c2.8,2.9,5.6,6,8.4,8.9C30.2,429.1,43,442,55.7,454.9c10.2,10.4,20.4,20.8,30.6,31.1c10.7,10.9,21.4,21.7,32.1,32.6
		c1.2,1.2,2.5,2.2,3.6,3.4c2.3,2.4,4.6,4.8,6.9,7.2c5.9,6.1,11.9,12.2,17.8,18.2c0.6,0.6,1.4,1,2.6,1.8c0.3-1.1,0.5-1.9,0.6-2.6
		c0.1-2.2-0.1-4.3,0-6.5C150.1,538.1,149.4,536.6,148,535.2z"/>
	<path d="M19,555.2c-0.1,4.1-0.1,7.9,0,11.8c3.6,4.4,20,20.5,21.8,21.2c0-4,0-8,0-11.9C37.8,572.6,21.1,556.2,19,555.2z"/>
	<path d="M9,70.8c4.7,4.9,9.5,9.8,14.2,14.7c12.3,12.5,24.5,24.9,36.9,37.4c7.4,7.5,15,15,22.4,22.5c2.2,2.2,4.2,4.5,6.3,6.7
		c0.6,0.7,1.4,1.3,2.5,2.3c0-4.8,0-8.9,0-13.1c-0.4-0.5-0.9-1-1.3-1.5c-9-9.1-17.9-18.3-26.9-27.4c-11-11.2-22-22.3-33-33.5
		c-7.2-7.3-14.5-14.5-21.7-21.8c-0.5-0.5-1-1-1.4-1.4v14.5c0.1-0.5,0.1-0.9,0.2-1.1C7.8,69.7,8.5,70.2,9,70.8z"/>
	<path d="M7,579.1v14.1c3,2.9,6.1,6,9.1,8.8h6.4c0,0,0.1,0,0.1,0c0.4,0,0.8,0,1.2,0h3c0.7,0,1.4-0.1,2.1-0.3
		C21.4,594,14.2,586.5,7,579.1z"/>
	<path d="M69.1,567.3c-7.8-7.8-15.5-15.8-23.3-23.7c-10.7-10.9-21.4-21.7-32.1-32.6c-2.2-2.3-4.5-4.5-6.7-6.7v13.5
		c0.8,0.7,1.4,1.3,1.9,1.8c9.5,9.6,18.9,19.3,28.4,28.8c8.7,8.8,17.4,17.4,26.1,26.2c2.2,2.2,4.2,4.5,6.4,6.7
		c0.3,0.3,0.8,0.3,1.5,0.6c0.1-1,0.2-1.7,0.2-2.4c0-2.1-0.1-4.2,0-6.2C71.7,570.8,70.8,569,69.1,567.3z"/>
	<path d="M125.6,587.4c-9.2-9.4-18.4-18.7-27.6-28.1c-9.9-10.1-19.8-20.2-29.8-30.3c-11-11.2-22-22.3-33-33.5
		c-9.5-9.6-19-19.1-28.2-28.4v14.7c0.1-0.6,0.2-1,0.3-1.3c0.7,0.7,1.4,1.3,2,1.9c6.6,6.7,13.1,13.5,19.7,20.2
		c10.6,10.8,21.3,21.6,31.9,32.4c13.4,13.6,26.8,27.1,40.2,40.7c7.7,7.8,15.5,15.6,23.2,23.4c0.7,0.7,1.5,1.2,2.4,1.9
		c1.2-2.1,0.7-4,0.6-5.9c-0.1-0.9-0.2-1.8-0.1-2.7C127.7,590.5,127.1,588.9,125.6,587.4z"/>
</g>
<g>
	<path d="M1017.1,482.5c6.6,6.7,13.1,13.5,19.7,20.2c10.6,10.8,21.3,21.6,31.9,32.4c6.1,6.2,12.2,12.4,18.3,18.6v-13.5
		c-3.7-3.7-7.4-7.5-11-11.2c-11-11.2-22-22.3-33-33.5c-9.5-9.6-19-19.1-28.2-28.4v14.7c0.1-0.6,0.2-1,0.3-1.3
		C1015.7,481.3,1016.4,481.9,1017.1,482.5z"/>
	<path d="M1240.1,148c11.4,11.6,22.8,23.1,34.2,34.7c10.5,10.6,20.9,21.2,31.4,31.9c11.9,12.1,23.8,24.2,35.8,36.3
		c8.2,8.3,16.5,16.5,24.7,24.8c2.5,2.5,4.8,5.1,7.2,7.6c0.4,0.4,1,0.7,1.8,1.4c0-4.5,0-8.5,0-12.8c-0.4-0.4-0.7-0.9-1.1-1.3
		c-10.9-11-21.7-22.1-32.6-33.1c-9.5-9.6-19.1-19.1-28.6-28.6c-2.5-2.5-4.8-5.2-7.3-7.8c-9.6-9.8-19.2-19.6-28.9-29.4c-3-3-6-6-9-9
		c-9.2-9.3-18.3-18.6-27.5-27.9c-0.4-0.4-0.9-0.5-1.4-0.7c-1.3,2-0.9,4-0.9,6c0,1.4,0.2,2.8,0.3,4.1c-0.2,0.1-0.3,0.1-0.5,0.2
		C1238.4,145.6,1239.1,147,1240.1,148z"/>
	<path d="M1016.9,33.3c3.1,3.2,6.2,6.5,9.3,9.8c11.4,11.6,22.9,23.3,34.4,34.9c10.2,10.4,20.4,20.8,30.7,31.2
		c12.4,12.6,24.9,25.2,37.3,37.9c12,12.2,24.1,24.4,36.1,36.6c8.4,8.5,16.7,17,25,25.5c11.6,11.8,23.2,23.5,34.7,35.2
		c10.6,10.7,21.1,21.5,31.7,32.2c13,13.2,26,26.3,39,39.5c9.6,9.8,19.2,19.6,28.9,29.4c7.9,7.9,15.8,15.8,23.7,23.7
		c0.5,0.5,1.1,0.9,1.7,1.3c1-1.8,1.3-7.4,0.7-11.8c-0.3-0.3-0.6-0.7-0.9-1.1c-6.7-6.9-13.4-13.7-20.1-20.6
		c-10.9-11.1-21.7-22.1-32.6-33.1c-11.3-11.5-22.6-22.9-33.8-34.3c-10.6-10.7-21.1-21.5-31.7-32.2c-12.1-12.3-24.2-24.6-36.3-36.8
		c-10.2-10.4-20.4-20.8-30.7-31.2c-11.4-11.6-22.8-23.1-34.2-34.7c-10.9-11.1-21.8-22.2-32.8-33.3c-10.8-11-21.6-22-32.4-32.9
		c-15.2-15.3-30.5-30.5-45.8-45.8c-1.3-1.3-2.5-2.6-3.9-4.2v14.3c0.1-0.6,0.2-1,0.3-1.2C1015.7,32.2,1016.3,32.8,1016.9,33.3z"/>
	<path d="M1197.6,465.5c-7.1-7.2-14.1-14.4-21.1-21.6c-10.2-10.3-20.3-20.7-30.5-31c-11.8-12-23.6-23.9-35.4-35.9
		c-10.7-10.9-21.4-21.7-32.1-32.6c-11.8-12-23.6-24-35.4-35.9c-1.6-1.6-3.2-3.2-4.7-4.7v13.4c0.3,0.3,0.6,0.6,0.9,0.9
		c13,13.2,26,26.3,38.9,39.5c12,12.2,24.1,24.4,36.1,36.6c10.2,10.4,20.4,20.8,30.6,31.1c9.2,9.3,18.5,18.5,27.7,27.8
		c1.6,1.6,3.1,3.5,4.7,5.1c1,1,2.2,1.8,3.2,2.8c5.6,5.7,11.2,11.4,16.8,17.1c0.4,0.4,1,0.6,1.9,1c0.1-1.2,0.2-1.9,0.2-2.6
		c0-2.2-0.1-4.5,0-6.7C1199.4,468.1,1198.8,466.7,1197.6,465.5z"/>
	<path d="M1265.5,435.5c5.6,5.7,11.1,11.5,16.7,17.2c11.4,11.6,22.8,23.1,34.2,34.7c10.6,10.7,21.1,21.5,31.7,32.2
		c6.4,6.5,12.8,12.9,19.3,19.3c0.5,0.5,1.1,0.9,1.9,1.7c0.2-1,0.4-1.6,0.4-2.2c0-2.6,0-5.1,0-7.7c0-1.6-0.5-2.9-1.7-4
		c-4.9-5.1-9.8-10.2-14.8-15.2c-11.1-11.3-22.3-22.6-33.4-34c-10.5-10.7-21-21.4-31.5-32c-7.1-7.2-14.4-14.4-21.6-21.6
		c-0.6-0.6-1.2-1.1-2.2-2c-0.7,4.4-0.2,8.4-0.4,12.2C1264.8,434.6,1265.1,435.1,1265.5,435.5z"/>
	<path d="M1082.4,25.4c9.6,9.8,19.1,19.5,28.7,29.2c12.5,12.6,24.9,25.3,37.4,37.9c9.4,9.5,18.9,19,28.4,28.5
		c0.2,0.2,0.6,0.2,1.2,0.5c0.1-1,0.2-1.8,0.2-2.6c0-2.2-0.1-4.5,0-6.7c0.1-2-0.6-3.5-2-4.9c-8.8-8.9-17.6-17.9-26.4-26.9
		c-12.9-13.1-25.8-26.2-38.8-39.3c-7.6-7.6-15.2-15.2-22.8-22.8c-1.4-1.4-2.7-3-4-4.4c-1.2-1.3-2.4-2.5-3.5-3.8c-4.2,0-8.3,0-12.5,0
		c0.5,0.8,0.9,1.6,1.5,2.2C1074,16.7,1078.2,21,1082.4,25.4z"/>
	<path d="M1292.6,51.5c13.1,13.3,26.3,26.6,39.4,39.9c4.5,4.5,9,8.9,13.4,13.4c9.1,9.2,18.1,18.4,27.1,27.6c0.7,0.7,1.4,1.3,2.2,2
		c0.7-2.2,0.7-10.5,0.2-12.7c-1.8-1.7-3.5-3.3-5.1-5c-1.8-1.9-3.6-3.9-5.4-5.8c-9.1-9.3-18.3-18.7-27.5-28
		c-11.9-12-23.7-24.1-35.6-36.1c-10-10.1-20.1-20.1-30.2-30.2c-2.1-2.1-4-4.4-6-6.7c-4.3,0-8.7,0-13,0c3.6,3.8,7.1,7.7,10.7,11.4
		C1272.8,31.5,1282.7,41.5,1292.6,51.5z"/>
	<path d="M1302.7,24.2c10.5,10.6,20.9,21.2,31.4,31.8c8.1,8.2,16.4,16.4,24.5,24.6c0.9,0.9,1.6,1.9,2.5,2.8c0.8,0.8,1.3,1.9,3,2
		c0.1-0.8,0.2-1.6,0.2-2.4c0-2.3-0.1-4.7,0-7c0.1-1.9-0.6-3.3-1.9-4.7c-11.1-11.2-22.2-22.5-33.3-33.8c-7.1-7.2-14.3-14.2-21.3-21.4
		c-1.9-1.9-3.6-4.1-5.4-6.1c-0.5,0-1,0-1.5,0c0,3.2,0.1,6.3,0,9.5C1300.7,21.4,1301.3,22.8,1302.7,24.2z"/>
	<path d="M1166.5,35.9c9.7,9.9,19.5,19.8,29.2,29.7c11.2,11.3,22.3,22.6,33.5,34c11.4,11.6,22.8,23.1,34.2,34.7
		c10.1,10.3,20.2,20.5,30.3,30.8c12.6,12.7,25.1,25.5,37.7,38.2c10.4,10.5,20.8,21.1,31.2,31.7c3.6,3.6,7.2,7.2,10.8,10.8
		c0.4,0.4,1,0.7,1.8,1.3c0-4.3,0-8.2,0-12.5c-1.9-2.1-3.8-4.3-5.8-6.3c-10.3-10.5-20.7-21-31-31.5c-9.8-10-19.6-20-29.4-29.9
		c-12.8-13-25.6-25.9-38.4-38.9c-10-10.1-20-20.3-30-30.4c-11.6-11.7-23.1-23.5-34.7-35.2c-9-9.1-18-18-27-27.1
		c-3.6-3.7-7.1-7.5-10.7-11.2c-0.6-0.6-1.3-1.1-2.1-1.7c-0.8,2-1,8.9-0.4,12.5C1165.8,35.2,1166.1,35.6,1166.5,35.9z"/>
	<path d="M1364.6,49.5c2.7,2.7,5.4,5.5,8.1,8.2c0.5,0.5,1.1,1,1.7,1.5c0.1,0,0.2,0.1,0.2,0.1c0.1,0,0.2,0,0.4-0.1
		c0.1-0.2,0.2-0.5,0.2-0.8c0-3.7,0-7.3,0-10.9c-3-3.2-5.8-6.4-8.8-9.4c-4.5-4.6-9-9.1-13.6-13.6c-0.8-0.8-1.9-1.7-2.9-1.8
		c-3.4-0.2-6.8,0-10.2,0.1c-0.1,0-0.2,0.2-0.3,0.4c0,0.1-0.1,0.2-0.1,0.2c0,0.2,0,0.4,0.1,0.5C1347.9,32.4,1356.3,41,1364.6,49.5z"
		/>
	<path d="M1239.5,34.9c7.8,7.9,15.5,15.8,23.2,23.7c10.8,11,21.6,21.9,32.4,32.9c11.3,11.5,22.6,23,34,34.5
		c10.5,10.6,21.1,21.2,31.7,31.8c3.3,3.3,6.5,6.7,9.7,10c0.6,0.6,1.3,1.1,2.2,1.7c0.3-0.7,0.5-0.9,0.5-1.2c0-3.1,0.1-6.2,0-9.2
		c0-0.9-0.6-1.9-1.2-2.7c-1.8-2.2-3.7-4.2-5.7-6.3c-10.7-10.9-21.3-21.7-32-32.5c-16.1-16.3-32.2-32.5-48.3-48.8
		c-6.5-6.6-12.8-13.2-19.3-19.8c-8.7-8.8-17.5-17.6-26.3-26.3c-0.5-0.5-1.1-0.9-2.2-1.7c-0.1,2.7-0.2,4.8-0.2,6.9
		c0,0.7,0.2,1.5,0,2.2C1237.5,32.1,1238.1,33.6,1239.5,34.9z"/>
	<path d="M1294.6,128.6c10,10.2,20.1,20.4,30.1,30.6c7.5,7.6,15.1,15.1,22.6,22.6c0.6,0.6,1.2,1.1,1.8,1.6c0.2,0,0.5-0.1,0.7-0.1
		c0.2-0.8,0.4-1.5,0.4-2.3c0.1-2.3,0-4.7,0-7c0-1.6-0.6-2.9-1.7-4c-6.2-6.3-12.4-12.8-18.6-19.1c-9.4-9.5-18.9-18.9-28.4-28.4
		c-2.5-2.5-4.8-5.1-7.2-7.6c-0.5-0.5-1.1-0.9-2-1.7c-0.3,1.2-0.5,2-0.5,2.7c-0.1,1.9,0.1,3.8-0.1,5.7
		C1291.5,124.5,1292.7,126.6,1294.6,128.6z"/>
	<path d="M1014.8,593.2c3,2.9,6.1,6,9.1,8.8h6.4c0,0,0.1,0,0.1,0c0.4,0,0.8,0,1.2,0h3c0.7,0,1.4-0.1,2.1-0.3
		c-7.5-7.7-14.7-15.1-21.9-22.5V593.2z"/>
	<path d="M1026.8,555.2c-0.1,4.1-0.1,7.9,0,11.8c3.6,4.4,20,20.5,21.8,21.2c0-4,0-8,0-11.9C1045.6,572.6,1028.9,556.2,1026.8,555.2z
		"/>
	<path d="M1221.8,564.8c-11.6-11.8-23.3-23.6-34.9-35.4c-12.5-12.7-25-25.4-37.5-38.1c-8.1-8.2-16.2-16.6-24.3-24.8
		c-8.6-8.6-17.2-17.2-25.8-25.8c-0.4-0.4-0.9-0.7-1.3-1c-0.7,1.8-0.9,7.5-0.4,11.7c0.6,0.8,1.4,1.8,2.2,2.7c5.8,6,11.6,12,17.4,17.9
		c11.6,11.8,23.3,23.6,34.9,35.4c10.2,10.4,20.4,20.8,30.7,31.2c14.4,14.6,28.8,29.2,43.2,43.7c6.5,6.5,13,12.9,19.7,19.6
		c3.7,0,7.6,0,12.1,0c-1.2-1.4-1.9-2.5-2.8-3.5C1243.9,587.2,1232.8,576,1221.8,564.8z"/>
	<path d="M1053.6,543.6c-10.7-10.9-21.4-21.7-32.1-32.6c-2.2-2.3-4.5-4.5-6.7-6.7v13.5c0.8,0.7,1.4,1.3,1.9,1.8
		c9.5,9.6,18.9,19.3,28.4,28.8c8.7,8.8,17.4,17.4,26.1,26.2c2.2,2.2,4.2,4.5,6.4,6.7c0.3,0.3,0.8,0.3,1.5,0.6c0.1-1,0.2-1.7,0.2-2.4
		c0-2.1-0.1-4.2,0-6.2c0.2-2.4-0.7-4.2-2.4-6C1069.1,559.5,1061.4,551.5,1053.6,543.6z"/>
	<path d="M1169.1,586.1c-10.6-10.8-21.1-21.5-31.7-32.2c-12.3-12.5-24.6-24.9-36.9-37.4c-10.2-10.3-20.3-20.7-30.5-31
		c-10.2-10.4-20.4-20.7-30.6-31v12.4h-1.1c9.3,9.4,18.6,18.9,27.9,28.3c11.7,11.9,23.5,23.8,35.2,35.8
		c10.2,10.4,20.4,20.8,30.6,31.1c12.5,12.7,25,25.4,37.6,38.1c0.6,0.6,1.3,1.2,2,1.9h5.8c0.1,0,0.2,0,0.2,0c2,0,4.1,0,6.4-0.1
		c-0.5-0.6-0.7-0.9-0.9-1.1C1178.6,595.9,1173.8,590.9,1169.1,586.1z"/>
	<path d="M1353,324c-9.5-9.7-19-19.4-28.5-29c-11.2-11.4-22.4-22.8-33.7-34.2c-12.2-12.4-24.4-24.8-36.7-37.2
		c-9.8-9.9-19.5-19.8-29.3-29.7c-11.6-11.8-23.3-23.6-34.9-35.4c-10.8-11-21.6-22-32.4-32.9c-11.9-12.1-23.9-24.2-35.8-36.3
		c-10.4-10.6-20.8-21.1-31.2-31.7c-5.3-5.3-10.6-10.6-15.9-15.9c-1.2-1.2-2.6-2.1-4.4-2c-1.4,0.1-2.8-0.1-4.2-0.1
		c-1.1,0-2.1-0.1-3.2,0c-0.5,0-1,0.4-1.9,0.7c1,1.3,1.7,2.4,2.6,3.3c7.3,7.5,14.6,15,22,22.5c11.4,11.6,22.9,23.2,34.4,34.9
		c11.4,11.6,22.8,23.1,34.2,34.7c10.2,10.4,20.4,20.8,30.7,31.2c10.8,11,21.6,22,32.4,32.9c11.9,12,23.7,24.1,35.6,36.1
		c10.8,10.9,21.5,21.8,32.3,32.8c11.9,12.1,23.9,24.2,35.8,36.3c10.1,10.2,20.1,20.4,30.1,30.6c7.4,7.5,14.9,15,22.4,22.5
		c0.4,0.4,0.9,0.8,1.6,1.3c0-4.4,0-8.5,0-12.5c-0.5-0.6-1-1.1-1.4-1.5C1366.9,338.2,1359.9,331.1,1353,324z"/>
	<path d="M1361,556.5c-11-11.2-22.1-22.4-33.1-33.6c-11.4-11.6-22.8-23.1-34.2-34.7c-10.1-10.3-20.2-20.5-30.3-30.8
		c-10.9-11.1-21.9-22.2-32.8-33.3c-11.8-11.9-23.5-23.8-35.3-35.8c-11.6-11.7-23.1-23.5-34.7-35.2c-8.1-8.2-16.2-16.3-24.4-24.4
		c-0.6-0.6-1-1.5-2.3-1.4c0,4,0,7.9,0,11.9c0.5,0.5,0.9,1,1.3,1.4c7.3,7.5,14.6,15,22,22.5c10.7,10.9,21.5,21.8,32.3,32.8
		c11.2,11.4,22.4,22.8,33.7,34.2c11.6,11.7,23.2,23.5,34.7,35.2c11.1,11.3,22.2,22.5,33.3,33.8c10.6,10.8,21.3,21.6,31.9,32.4
		c12.2,12.4,24.4,24.8,36.7,37.2c4.6,4.6,9.2,9.2,13.8,13.8c0.4,0.4,1,0.8,1.7,1.4c0-4.4,0-8.5,0-12.5c-0.3-0.3-0.4-0.6-0.7-0.8
		C1370,565.8,1365.5,561.1,1361,556.5z"/>
	<path d="M1284.3,590.8c-10.8-11.1-21.7-22.1-32.6-33.1c-10.3-10.4-20.5-20.9-30.8-31.3c-11.2-11.4-22.4-22.8-33.7-34.2
		c-10.6-10.7-21.1-21.5-31.7-32.2c-12.7-12.9-25.5-25.9-38.3-38.8c-8.6-8.6-17.2-17.2-25.8-25.8c-0.7-0.6-1.1-1.7-2.5-1.6
		c0,4,0,7.9,0,11.9c0.4,0.5,0.7,0.8,1.1,1.2c7,7.2,14.1,14.4,21.1,21.6c10.7,10.9,21.4,21.7,32,32.5c11.5,11.6,22.9,23.2,34.4,34.9
		c11,11.2,22.1,22.4,33.1,33.6c12.5,12.7,25,25.4,37.6,38c7.7,7.8,15.4,15.4,23.1,23.2c0.8,0.8,1.4,1.7,2.1,2.4
		c2.9,2.9,5.8,5.7,8.7,8.6c4,0,8,0,12.3,0c-0.3-0.5-0.5-0.8-0.7-1C1290.7,597.5,1287.5,594.1,1284.3,590.8z"/>
	<path d="M1130.4,509.4c-10.8-11-21.6-22-32.4-32.9c-11-11.2-22.1-22.4-33.1-33.6c-8.5-8.6-17-17.2-25.4-25.8v13.5
		c8,8.1,16.1,16.3,24.1,24.4c10.2,10.4,20.4,20.8,30.6,31.1c10.7,10.9,21.4,21.7,32.1,32.6c1.2,1.2,2.5,2.2,3.6,3.4
		c2.3,2.4,4.6,4.8,6.9,7.2c5.9,6.1,11.9,12.2,17.8,18.2c0.6,0.6,1.4,1,2.6,1.8c0.3-1.1,0.5-1.9,0.6-2.6c0.1-2.2-0.1-4.3,0-6.5
		c0.1-2-0.6-3.5-2-4.9C1147.3,526.7,1138.9,518,1130.4,509.4z"/>
	<path d="M1016.9,108.4c9,9.2,18.1,18.4,27.1,27.6c9,9.2,18.1,18.4,27.1,27.6c11.9,12.1,23.8,24.2,35.8,36.3
		c9.2,9.3,18.5,18.5,27.7,27.7c0.6,0.6,1,1.3,1.6,1.9c2.5,2.3,5,4.6,7.6,6.9c0.1-0.6,0.3-1.3,0.3-2.1c0-2.5-0.1-5,0-7.5
		c0.1-1.8-0.6-3.2-1.8-4.4c-11.2-11.4-22.4-22.7-33.7-34.1c-10.3-10.4-20.6-20.9-30.8-31.3c-11.5-11.7-23-23.4-34.6-35.1
		c-7.1-7.2-14.3-14.3-21.4-21.4c-2.5-2.5-4.9-5-7.3-7.4v15.7c0-1.3,0.1-2.1,0.1-2.2C1015.7,107.2,1016.3,107.8,1016.9,108.4z"/>
	<path d="M1132.6,362.1c-8.6-8.7-17.1-17.5-25.7-26.2c-12.2-12.3-24.3-24.7-36.5-37c-10.7-10.9-21.4-21.7-32.1-32.6v13.5
		c9.1,9.3,18.2,18.5,27.3,27.8c11.6,11.8,23.2,23.6,34.9,35.4c9.2,9.2,18.4,18.4,27.5,27.6c0.9,0.9,1.6,1.9,2.5,2.8
		c0.8,0.8,1.3,1.9,2.7,2c0.7-1.7,0.8-8.7,0.3-12.2C1133.2,362.8,1132.9,362.4,1132.6,362.1z"/>
	<path d="M1016.8,70.8c4.7,4.9,9.5,9.8,14.2,14.7c12.3,12.5,24.5,24.9,36.9,37.4c7.4,7.5,15,15,22.4,22.5c2.2,2.2,4.2,4.5,6.3,6.7
		c0.6,0.7,1.4,1.3,2.5,2.3c0-4.8,0-8.9,0-13.1c-0.4-0.5-0.9-1-1.3-1.5c-9-9.1-17.9-18.3-26.9-27.4c-11-11.2-22-22.3-33-33.5
		c-7.2-7.3-14.5-14.5-21.7-21.8c-0.5-0.5-1-1-1.4-1.4v14.5c0.1-0.5,0.1-0.9,0.2-1.1C1015.6,69.7,1016.3,70.2,1016.8,70.8z"/>
	<path d="M1173.5,304.9c11.7,11.9,23.5,23.8,35.2,35.8c10.9,11.1,21.9,22.2,32.8,33.3c1.9,1.9,3.7,3.8,5.6,5.7v-13.6
		c-10.4-10.5-20.8-21.1-31.2-31.6c-12.6-12.7-25.1-25.5-37.7-38.2c-9.4-9.5-18.8-19.1-28.2-28.7c-10.4-10.6-20.8-21.1-31.2-31.7
		c-11.5-11.6-22.9-23.3-34.4-34.9c-10.5-10.6-20.9-21.3-31.4-31.8c-8.3-8.4-16.7-16.8-25.1-25.1c-0.6-0.6-1.2-1.1-2.1-1.9
		c0,4.2,0,8,0,12.2c0.6,0.8,1.2,1.8,2,2.6c6,6.2,11.9,12.3,17.9,18.4c10.6,10.8,21.3,21.6,31.9,32.4c12.4,12.6,24.9,25.2,37.3,37.8
		c10.5,10.7,21,21.4,31.5,32C1155.6,286.7,1164.5,295.8,1173.5,304.9z"/>
</g>
</svg>
