<?xml version="1.0" encoding="utf-8"?>
<!-- Generator: Adobe Illustrator 23.0.0, SVG Export Plug-In . SVG Version: 6.00 Build 0)  -->
<svg version="1.1" id="Layer_1" xmlns="http://www.w3.org/2000/svg" xmlns:xlink="http://www.w3.org/1999/xlink" x="0px" y="0px"
	 viewBox="0 0 368.9 119.5" style="enable-background:new 0 0 368.9 119.5;" xml:space="preserve">
<style type="text/css">
	.st0{fill:#082E3B;}
</style>
<g>
	<g>
		<g>
			<path class="st0" d="M104.8,114.5L64.3,6.6C64,5.7,63,5,62,5H43.3c-0.9,0-2,0.7-2.3,1.6l-40.9,108c-0.4,0.9,0.2,1.6,1.1,1.6h24.1
				c0.9,0,2.2-0.6,2.8-1.3c0,0,13.1-15.6,24.6-15.6s24.6,15.6,24.6,15.6c0.6,0.7,1.9,1.3,2.8,1.3h23.7
				C104.7,116.1,105.2,115.4,104.8,114.5z M69.7,61.6H36.6c-0.4,1.3-0.4,1.5-0.4,3c0,1.7,0.1,2.5,0.6,4.1h32.5
				c-2.2,7.3-8.9,12.5-16.9,12.5c-9.8,0-17.7-7.9-17.7-17.7s7.9-17.7,17.7-17.7c8.1,0,14.9,5.4,17,12.8h8.6c0.2,0.9,0.4,2,0.4,2.9
				h-3.5H69.7z M76.7,53.9l-2,0.8c-0.9-2.3-2.2-4.6-4-6.6c-1.7-2-3.7-3.7-5.9-5l1.1-1.8C70.8,44.2,74.5,48.7,76.7,53.9z M51.8,37.8
				c1.5-0.1,3.1,0.1,4.6,0.2l-0.2,1.7c-2.5-0.4-5-0.3-7.7,0.2c-2.6,0.5-5,1.4-7.2,2.6l-0.9-1.6C43.9,39,47.7,37.9,51.8,37.8z
				 M32.1,47.9l1.4,1.1c-1.5,2-2.8,4.3-3.7,6.7c-0.9,2.5-1.3,5-1.4,7.6h-1.8c0-0.1,0-0.3,0-0.4C26.9,57.2,28.9,52.1,32.1,47.9z
				 M28.6,73.4l1.7-0.7c0.9,2.3,2.2,4.6,4,6.6c1.7,2,3.7,3.7,5.9,5l-1,1.7C34.5,83,30.7,78.6,28.6,73.4z M49,89.4l0.3-2
				c2.5,0.4,5,0.3,7.7-0.2c2.6-0.5,5-1.4,7.2-2.6l1,1.8c-3.5,1.9-7.4,3.1-11.6,3.2C52,89.7,50.5,89.6,49,89.4z M73.1,79.7l-1.7-1.3
				c1.5-2,2.8-4.3,3.7-6.7c0.9-2.5,1.3-5,1.4-7.6l2.2,0.1c0,0.1,0,0.3,0,0.4C78.4,70.2,76.4,75.5,73.1,79.7z"/>
			<g>
				<g>
					<path class="st0" d="M143.6,34l-6-16.1L131.7,34H143.6z M159.6,51.2h-9.5l-3.7-9.9h-17.3l-3.6,9.9h-9.2L133.2,8h9.2L159.6,51.2
						z"/>
					<path class="st0" d="M181.8,51.2v-4.7c-1.1,1.7-2.6,3-4.5,4c-1.8,1-3.8,1.4-5.9,1.4c-2.1,0-4-0.5-5.7-1.4s-2.9-2.2-3.6-3.9
						c-0.7-1.7-1.1-4-1.1-6.9V19.8h8.3v14.4c0,4.4,0.2,7.1,0.5,8.1s0.9,1.8,1.7,2.4s1.8,0.9,3,0.9c1.4,0,2.7-0.4,3.8-1.1
						c1.1-0.8,1.9-1.7,2.3-2.9c0.4-1.1,0.6-4,0.6-8.4V20h8.3v31.3L181.8,51.2L181.8,51.2z"/>
					<path class="st0" d="M209.4,19.8v6.6h-5.7V39c0,2.6,0.1,4.1,0.2,4.5c0.1,0.4,0.3,0.7,0.7,1s0.9,0.4,1.4,0.4
						c0.7,0,1.9-0.3,3.3-0.8l0.7,6.4c-2,0.8-4.1,1.3-6.5,1.3c-1.5,0-2.9-0.2-4-0.7c-1.2-0.5-2.1-1.1-2.6-2c-0.6-0.8-1-1.9-1.1-3.2
						c-0.2-1-0.3-2.9-0.3-5.9V26.3h-3.8v-6.5h3.8v-6.2l8.3-4.8v11.1L209.4,19.8L209.4,19.8z"/>
					<path class="st0" d="M220.4,7.9v15.9c2.7-3.1,5.9-4.7,9.6-4.7c1.9,0,3.6,0.3,5.2,1.1c1.5,0.7,2.7,1.6,3.4,2.7
						c0.8,1.1,1.3,2.3,1.6,3.7c0.3,1.3,0.4,3.4,0.4,6.2v18.4h-8.3V34.7c0-3.3-0.2-5.4-0.5-6.3s-0.9-1.6-1.7-2.1s-1.8-0.8-3-0.8
						c-1.4,0-2.6,0.3-3.7,1c-1.1,0.7-1.9,1.7-2.4,3s-0.7,3.3-0.7,6v15.7H212V7.8h8.3L220.4,7.9L220.4,7.9z"/>
					<path class="st0" d="M264.6,32.8c-0.1-2.4-0.7-4.2-1.8-5.4c-1.2-1.3-2.6-1.9-4.3-1.9c-1.8,0-3.3,0.6-4.5,2
						c-1.2,1.3-1.8,3.1-1.7,5.4h12.3V32.8z M264.1,41.2l8.3,1.4c-1.1,3-2.8,5.3-5,6.9c-2.3,1.6-5.2,2.4-8.6,2.4
						c-5.4,0-9.5-1.8-12.1-5.3c-2.1-2.9-3.1-6.4-3.1-10.8c0-5.2,1.4-9.2,4.1-12.2c2.7-2.9,6.1-4.4,10.3-4.4c4.6,0,8.3,1.5,11,4.6
						c2.7,3.1,4,7.8,3.8,14.2H252c0.1,2.5,0.7,4.4,2,5.7c1.3,1.4,2.9,2.1,4.8,2.1c1.3,0,2.4-0.3,3.3-1.1
						C263,43.9,263.7,42.7,264.1,41.2"/>
					<path class="st0" d="M305,51.2h-8.3v-16c0-3.4-0.2-5.6-0.5-6.5c-0.3-1-0.9-1.8-1.7-2.3c-0.8-0.6-1.8-0.8-2.9-0.8
						c-1.4,0-2.7,0.4-3.8,1.2c-1.1,0.8-2,1.8-2.4,3.2c-0.4,1.3-0.6,3.7-0.6,7.2v14.2h-8.3V20.1h7.7v4.6c2.8-3.6,6.2-5.3,10.3-5.3
						c1.8,0,3.5,0.3,5,1c1.5,0.6,2.6,1.5,3.4,2.5s1.3,2.2,1.6,3.5c0.3,1.3,0.5,3.2,0.5,5.6V51.2L305,51.2z"/>
					<path class="st0" d="M324.8,19.8v6.6h-5.7V39c0,2.6,0.1,4.1,0.2,4.5c0.1,0.4,0.3,0.7,0.7,1s0.9,0.4,1.4,0.4
						c0.7,0,1.9-0.3,3.3-0.8l0.7,6.4c-2,0.8-4.1,1.3-6.5,1.3c-1.5,0-2.9-0.2-4-0.7c-1.2-0.5-2.1-1.1-2.6-2c-0.6-0.8-1-1.9-1.1-3.2
						c-0.2-1-0.3-2.9-0.3-5.9V26.3H307v-6.5h3.8v-6.2l8.3-4.8v11.1L324.8,19.8L324.8,19.8z"/>
					<path class="st0" d="M327.5,19.8h8.3v31.3h-8.3V19.8z M327.5,7.9h8.3v7.7h-8.3V7.9z"/>
					<path class="st0" d="M368.6,29.1l-8.1,1.5c-0.3-1.6-0.9-2.9-1.9-3.7c-1-0.8-2.2-1.3-3.8-1.3c-2.1,0-3.7,0.7-4.9,2.1
						c-1.2,1.4-1.8,3.8-1.8,7.2c0,3.7,0.6,6.4,1.9,7.9s2.9,2.3,5,2.3c1.5,0,2.9-0.5,3.8-1.3c1-0.9,1.7-2.4,2.1-4.6l8.1,1.4
						c-0.9,3.7-2.5,6.5-4.9,8.5c-2.4,1.9-5.6,2.9-9.6,2.9c-4.6,0-8.3-1.4-11-4.4c-2.7-2.9-4.1-6.9-4.1-12c0-5.2,1.4-9.2,4.1-12.1
						c2.8-2.9,6.4-4.3,11.1-4.3c3.8,0,6.8,0.8,9.1,2.5C366,23.2,367.6,25.7,368.6,29.1"/>
				</g>
				<g>
					<path class="st0" d="M135.2,89.7v-5l18.3-0.1v16.1c-2.8,2.2-5.7,3.9-8.7,5s-6.1,1.7-9.2,1.7c-4.2,0-8.1-0.9-11.6-2.8
						c-3.5-1.8-6.1-4.5-7.9-7.9s-2.6-7.3-2.6-11.5s0.9-8.1,2.6-11.8c1.8-3.7,4.3-6.4,7.6-8.1c3.3-1.8,7.1-2.6,11.4-2.6
						c3.1,0,6,0.5,8.5,1.5c2.5,1,4.5,2.4,6,4.2c1.4,1.8,2.5,4.2,3.3,7.1l-5.2,1.4c-0.6-2.2-1.4-4-2.4-5.2c-1-1.3-2.4-2.2-4.1-3
						c-1.8-0.7-3.8-1.1-6-1.1c-2.6,0-4.9,0.4-6.8,1.2c-1.9,0.8-3.4,1.8-4.6,3.2c-1.1,1.3-2.1,2.7-2.8,4.3c-1.1,2.7-1.7,5.6-1.7,8.7
						c0,3.8,0.7,7.1,2,9.7s3.3,4.5,5.8,5.8c2.5,1.3,5.2,1.9,8.1,1.9c2.5,0,4.9-0.5,7.2-1.4c2.4-1,4.1-2,5.4-3v-8h-12.7v-0.3H135.2z"
						/>
					<path class="st0" d="M178.2,90.9c-2,0.8-4.8,1.4-8.7,2c-2.2,0.3-3.7,0.7-4.6,1.1s-1.6,1-2.1,1.7s-0.7,1.6-0.7,2.5
						c0,1.4,0.5,2.6,1.6,3.6c1.1,0.9,2.6,1.4,4.7,1.4s3.8-0.5,5.4-1.3c1.6-0.9,2.8-2.1,3.5-3.7c0.6-1.2,0.9-3,0.9-5.3L178.2,90.9
						L178.2,90.9z M178.6,102.8c-2,1.7-3.8,2.9-5.7,3.6c-1.8,0.7-3.8,1-5.9,1c-3.4,0-6.1-0.9-7.9-2.5c-1.8-1.7-2.8-3.8-2.8-6.4
						c0-1.5,0.3-2.9,1-4.2c0.7-1.3,1.6-2.3,2.8-3c1.1-0.7,2.4-1.3,3.8-1.7c1-0.3,2.6-0.5,4.7-0.8c4.3-0.5,7.5-1.1,9.5-1.8
						c0-0.7,0.1-1.2,0.1-1.4c0-2.2-0.5-3.7-1.5-4.6c-1.4-1.2-3.4-1.8-6-1.8c-2.5,0-4.4,0.5-5.5,1.3c-1.2,0.9-2.1,2.4-2.6,4.6
						l-5.2-0.7c0.5-2.2,1.3-4,2.4-5.4s2.6-2.4,4.7-3.2c2.1-0.7,4.4-1.1,7.1-1.1s4.8,0.3,6.5,0.9s2.9,1.4,3.7,2.4
						c0.7,0.9,1.3,2.2,1.7,3.6c0.2,0.9,0.3,2.5,0.3,4.9v7.1c0,4.9,0.1,8,0.3,9.3c0.2,1.3,0.7,2.6,1.3,3.8h-5.7
						C179.2,105.5,178.8,104.3,178.6,102.8"/>
					<path class="st0" d="M188.8,106.7V75.3h4.8v4.4c1-1.5,2.3-2.8,3.9-3.7c1.6-0.9,3.5-1.4,5.6-1.4c2.3,0,4.2,0.5,5.7,1.4
						c1.5,1,2.5,2.3,3.2,4c2.5-3.7,5.7-5.5,9.7-5.5c3.1,0,5.5,0.9,7.2,2.6s2.5,4.4,2.5,8v21.5h-5.3V86.9c0-2.1-0.2-3.7-0.5-4.6
						s-1-1.7-1.9-2.2c-0.9-0.6-1.9-0.9-3.2-0.9c-2.2,0-4,0.7-5.5,2.2c-1.4,1.5-2.2,3.8-2.2,7.1v18.2h-5.3V86.3
						c0-2.4-0.5-4.1-1.3-5.3c-0.9-1.2-2.3-1.8-4.2-1.8c-1.5,0-2.9,0.4-4.1,1.2c-1.3,0.8-2.2,2-2.8,3.4c-0.6,1.5-0.9,3.7-0.9,6.5
						v16.2L188.8,106.7L188.8,106.7z"/>
					<path class="st0" d="M236.1,75.3h5.3v31.3h-5.3V75.3z M236.1,63.4h5.3v6.1h-5.3V63.4z"/>
					<path class="st0" d="M246.5,106.7V75.3h4.8v4.5c2.3-3.4,5.6-5.2,10-5.2c1.9,0,3.6,0.3,5.2,1s2.8,1.5,3.6,2.7
						c0.8,1.1,1.3,2.4,1.7,3.9c0.2,1,0.3,2.7,0.3,5.2v19.3h-5.3v-19c0-2.2-0.2-3.8-0.6-4.9s-1.1-2-2.2-2.6c-1-0.6-2.3-1-3.7-1
						c-2.2,0-4.2,0.7-5.9,2.2c-1.7,1.4-2.5,4.1-2.5,8.1v17.1L246.5,106.7L246.5,106.7z"/>
					<path class="st0" d="M280.5,90.4c0,4.1,0.8,7.1,2.5,9c1.6,1.9,3.7,2.8,6.1,2.8c2.5,0,4.5-0.9,6.1-2.8c1.7-1.9,2.5-4.8,2.5-8.8
						c0-3.8-0.9-6.7-2.5-8.7c-1.7-2-3.7-2.9-6.1-2.9s-4.4,1-6,2.9C281.3,83.8,280.5,86.6,280.5,90.4 M276.1,109.2l5.2,0.7
						c0.2,1.6,0.8,2.8,1.8,3.5c1.3,1,3.1,1.5,5.4,1.5c2.5,0,4.4-0.5,5.7-1.5c1.3-1,2.2-2.4,2.7-4.1c0.3-1.1,0.4-3.3,0.4-6.8
						c-2.3,2.8-5.2,4.1-8.7,4.1c-4.3,0-7.6-1.5-10-4.6s-3.6-6.8-3.6-11.2c0-3,0.5-5.7,1.6-8.3c1.1-2.5,2.6-4.5,4.7-5.9
						s4.5-2.1,7.2-2.1c3.7,0,6.8,1.5,9.1,4.5v-3.7h4.9v27.1c0,4.9-0.5,8.3-1.5,10.4c-1,2-2.6,3.6-4.7,4.8c-2.2,1.2-4.8,1.8-8,1.8
						c-3.7,0-6.8-0.9-9.1-2.5C277.1,115.1,276,112.6,276.1,109.2"/>
				</g>
			</g>
		</g>
	</g>
</g>
</svg>
