<?xml version="1.0" encoding="utf-8"?>
<!-- Generator: Adobe Illustrator 18.1.1, SVG Export Plug-In . SVG Version: 6.00 Build 0)  -->
<svg version="1.1" id="Ebene_1" xmlns="http://www.w3.org/2000/svg" xmlns:xlink="http://www.w3.org/1999/xlink" x="0px" y="0px"
	 viewBox="-290.1 -72.1 600.3 184.1" enable-background="new -290.1 -72.1 600.3 184.1" xml:space="preserve">
<g>
	<path display="none" fill="#082E3B" d="M-49,113c-78.5,0-157.1,0-235.6,0.1c-3.9,0-4.5-1.1-4.5-4.7c0.2-15.1,0.1-30.3,0.1-45.4
		c3.6,1.3,2.7,4.9,3.6,7.5c3.6,9.8,11.7,15.9,21.7,15.1c9.3-0.7,17.2-4.7,23.8-11.4c7.7-8,12-17.9,16.2-27.9
		c5.4-12.6,11.1-25,17.2-37.2c4.3-8.6,9.7-16.3,19.5-21.5c-7.2-0.1-12.1,2.6-16.6,6.5c-6.1,5.3-10.8,11.7-14.8,18.7
		c-7.1,12.3-12.7,25.3-18.4,38.2c-3,6.9-6.3,13.6-10.2,20c-2.4,4-5.8,6.8-9.8,9.1c-10,5.7-21.4-0.3-22.4-11.8
		c-0.5-6.2,0.1-12.3,2.3-18.2c9.7-25.7,24.9-47.5,46.9-64c13.4-10.1,28.6-16.5,45.8-16.2c9.6,0.1,17.3,4.1,20.9,13.5
		c3.4,9,1.6,17.2-5.1,24.5c-6.5,7-14.9,10.5-23.5,13.7c-3.1,1.2-6.3,2.1-9.3,3.7c-4.9,2.7-5.3,6-1.3,9.9c1.7,1.6,3.7,2.9,5.1,4.8
		c6.6,9.1,2.9,24.8-7.1,30.1c-3.1,1.6-5.8,1.3-8-1.5c-0.7-0.9-1.3-1.9-2.1-2.8c-2.5-2.7-5.5-2.9-7.9-0.6c-2.5,2.4-2.6,6-0.2,8.5
		c2.1,2.1,4.9,2.9,7.7,3c11.1,0.5,20.2-3.5,26.9-12.5c5.8-7.9,4.7-17.7-2.5-24.4c-2.1-2-4.4-3.6-6.7-5.2c-1.7-1.2-3.1-2.7-2.6-5
		c0.4-2.4,2.4-3,4.3-3.6c2.2-0.7,4.6-0.9,6.9-1.2c12.2-1.5,23.3-5.3,31.7-15.1c7.8-9.2,8.9-23.1,1.7-31.8c-5-6.1-11.9-8.9-19.5-10.4
		c-13.3-2.7-26.4-0.9-38.9,3.6c-29.7,10.6-51.8,30.2-66.5,58c-3.1,5.9-5,12.3-6.5,18.8c-0.4,1.6,0.3,3.9-2.4,4.2
		c0-39.8,0-79.7-0.1-119.5c0-3,0.6-3.6,3.6-3.6c197.7,0.1,395.3,0.1,593,0c3,0,3.6,0.6,3.6,3.6c0,58.7,0,117.6,0.1,176.4
		c0,3.4-0.7,4.1-4.1,4.1C190.3,113,73.7,113-43,113c-0.4-0.4-0.4-0.9-0.1-1.4c1.3-1.7,2.6-3.4,3.6-5.4
		c11.7-24.1,24.6-47.7,36.4-71.8c0.1-0.3,0.3-0.6,0.4-0.9c0.9-2.5,3.6-5.1-0.1-7.4c-3-1.9-6.7-0.8-8.9,2.8c-5,8.3-9.7,16.7-15,24.8
		c-2.2,3.3-4.3,6.8-7.5,9.3c-2.2,1.7-4.8,2.9-7.3,0.9c-2.4-2-1.5-4.5-0.4-6.9c3.7-8.4,8.8-16.1,12.6-24.4c1-2.2,3.5-5-0.1-6.8
		c-3-1.5-5.7-0.3-7.6,2.8c-4.9,8.3-9.5,16.8-14.5,25.1c-2,3.3-4.2,6.4-6.6,9.4c-1.8,2.3-4,4-6.8,4.9c-3.9,1.3-7.6,0.2-9.7-2.9
		c-2.3-3.3-2-6.6,1.1-9.9c5.7-6.1,11.9-11.6,17.1-18.2c7.6-9.7,13.6-20.2,16.3-32.3C-39.3,1-38-3.4-41.8-5.9s-7.4,0.2-10.3,2.8
		c-18.7,16.2-30.3,36.4-34.5,60.9c-1.3,7.6-9.2,13.7-16.8,13.1c-7-0.6-11.4-9.7-7.4-15.6c2.9-4.2,6.7-7.9,9.9-11.9
		c11.5-13.9,22.9-27.7,30-44.6c2.5-5.9,4.2-11.9,3.6-18.4c-0.5-5.4-2.5-6.8-7.6-4.8c-8.3,3.2-13.8,9.9-19.3,16.3
		c-16.6,19.5-26,42.1-27.7,67.7c-0.4,5.7-9.9,13.3-15.4,12.4c-3.7-0.5-5.6-3.7-4.5-8c1.3-5,4-9.5,6.5-14c1.2-2.2,3.7-4.7,0.1-6.8
		c-3.2-1.9-5.8-0.3-7.5,2.7c-3.8,6.7-7.9,13.1-12.6,19.2c-1.7,2.3-3.7,4.4-6.4,5.4c-4.1,1.5-6.9-0.2-7.4-4.6c-0.2-2,0.2-4,0.8-5.9
		c3.3-11.2,9.2-20.6,18.7-27.6c4.6-3.4,6.8-3.2,10.7,0.9c1.7,1.8,3.3,3.5,6,2.3c2.1-1,2.7-2.9,2.3-5c-0.5-3-2.8-3.9-5.4-4.2
		c-5.3-0.6-10.4,0.6-14.9,3.2c-12.2,6.8-21.4,16.3-25.7,29.9c-0.7,2.2-1.2,4.5-1,6.9c0.5,8.8,7.2,12.8,15,8.7c0.6-0.3,1.2-0.7,1.7-1
		c5.6-3.6,5.6-3.6,10.1,1.3c2.9,3.1,6.4,3.9,10.5,2.9c5.3-1.3,9.8-4.2,14.1-7.3c2.2-1.6,4.2-2,5.9,0.7c4.9,8.2,13.2,8,21.1,4
		c3-1.5,5.8-3.4,8.5-5.2c2.5-1.6,4.5-1.3,6.5,1c5.5,6.3,11.1,6.9,18.4,2.5c2.3-1.4,4.4-3.1,6.4-4.8c2.4-2,4-1.4,5.8,0.9
		c4.1,5.4,7.8,6,13.7,2.6c1.9-1.1,3.5-2.6,5.3-3.7c1.1-0.6,2.4-1.8,3.6-0.6c1.1,1.1,0.1,2.5-0.5,3.7c-5.2,10.4-11.1,20.5-16.2,31
		c-1.3,2.8-2.4,5.5-1,8.6C-48.5,112.1-48.6,112.6-49,113z"/>
	<path fill="#082E3B" d="M-289,52c1.3-4.7,2.1-9.6,4-14.1c16.5-39.5,45.5-64.1,87.9-72c10-1.9,19.9-1.4,29.5,2
		c19.5,6.9,24.9,27.2,11.5,43c-8.4,9.9-19.9,13.4-32.2,15c-2.6,0.4-5.3,0.6-7.8,1.4c-3.6,1.1-3.9,3.4-1,5.7c2.2,1.7,4.7,3.1,6.9,4.9
		c8.8,7.5,9.8,19.7,2.3,28.5c-6.9,8.1-15.7,12-26.4,11.6c-2.9-0.1-5.6-0.8-8-2.4c-2.8-1.8-4-4.5-3.4-7.7c0.6-3,2.4-5.2,5.5-5.8
		c3.3-0.7,5.7,0.6,7.6,3.4c3.9,5.9,5.4,6,10.6,1.2c9.9-9.1,9.7-21.5-0.4-30.2c-6.4-5.4-5.9-9.4,1.7-12.9c5.4-2.5,11.1-4.3,16.6-6.6
		c6.5-2.7,12.5-6.3,16.8-12c5.2-6.9,6.2-14.5,2.5-22.5S-175.3-29-183.7-29c-21.3,0.1-39.1,9-54.2,23.1c-18.3,17.2-32.3,37.5-39.3,62
		c-1.2,4.1-1.3,8.2-0.8,12.4c1.3,9.6,10.3,14.8,19.2,11.1c5.3-2.2,9-6.1,11.8-11c5.1-8.8,9.2-18,13.1-27.4
		c4.8-11.3,10.4-22.3,16.7-32.9c5.9-9.8,13-18.6,24.8-21.9c2.8-0.8,5.7-1.2,9.2,0.6c-14,6-20.3,17.8-25.8,30.2
		c-6.2,13.9-12.3,27.9-19,41.6c-5.8,11.9-13.7,22-27.1,26.3c-16.3,5.3-30.1-2.9-32.8-19.7c-0.2-0.9,0.2-2-1-2.6c0-0.7,0-1.3,0-2
		c0.8-2.3,0.8-4.7,0-7C-289,53.3-289,52.7-289,52z"/>
	<path display="none" fill="#082E3B" d="M-289,54c1.6,2.3,1.6,4.7,0,7C-289,58.7-289,56.3-289,54z"/>
	<path display="none" fill="#082E3B" d="M-49,113c-0.1-0.3-0.1-0.6-0.2-0.9c2.1-1.9,4.2-1.8,6.3,0c-0.1,0.3-0.2,0.6-0.1,0.9
		C-45,113-47,113-49,113z"/>
	<path fill="#082E3B" d="M49.6-70.3C54.5-58,60-46.5,66.2-35.3c3.6,6.5,7.5,12.9,11.2,19.4c1.1,1.9,1.8,2.4,3.6,0.5
		c16.9-17.8,38.8-25.5,62.2-29.7c1.3-0.2,2.5-0.5,4.6-0.9c-4.5,4.8-8.6,8.9-12.5,13.1c-12.6,13.6-21.9,29.2-26.7,47.3
		c-1,3.8-5.8,5.8-9.2,4.2c-1.9-0.9-0.8-2.3-0.6-3.5c1.9-14.5,7.5-27.5,17-38.9c-1.6-0.7-2.5,0.3-3.5,0.9
		C98.8-15.6,88.2-4.8,78.8,7.2c-2.5,3.2-3.5,2.7-5.4-0.2c-8.9-13.1-16-27.2-22.5-41.6c-0.7-1.6-1.5-3.3-2.6-5.5
		c-8.6,16.8-14.7,33.9-21,51.6C13.2-1.6-2-12.5-19.7-19.8c8.5,12.7,16,25.7,21.8,40.6c-4.8-2.3-9.2-3.3-13.8-1.1
		c-2.6,1.2-2.4-1.7-2.9-2.9C-21.5,1.6-29.4-13-38.9-26.7c-2.7-3.9-5.6-7.7-8.9-12.3c26.2,0.5,48.7,9.4,69.2,25.4
		c4-9.9,7.5-19.8,12.1-29.2C38-52.3,43-61.4,49.6-70.3z"/>
	<path fill="#082E3B" d="M5.7,31.1c2.5,6.1,3.6,12.2,5.1,18.1c0.3,1.2-0.1,2.8,1.6,3.4c1.5,0.5,5-0.5,3.2,2.9
		c-1.7,3.3,0.1,8.9-6.2,9.4c-7.7,0.7-6.7,0.4-9.7-6.4C-5.1,47.7,0.5,39.9,5.7,31.1z"/>
	<path display="none" fill="#082E3B" d="M51,33c-0.5,1.2-1.2,2.3-2.7,2.7c-0.1-1.6,0.5-2.8,1.4-4C50.2,32.1,50.6,32.6,51,33z"/>
	<path fill="#082E3B" d="M0,25.6c-3.4-3.1-9.6-2.4-12,1.6c-4.8,7.8-9.4,15.7-14.2,23.5c-2.5,4-5,8-8.5,11.1c-1.8,1.5-4,3.3-6.2,1.3
		c-2-1.7-0.8-4,0.2-5.9c4.4-8.4,8.8-16.8,13.3-25.1c1.1-2.1,2.6-4.4,1.1-6.5c-1.5-2.2-4.4-2-6.9-2.1c-2.7-0.1-3.7,1.8-4.8,3.7
		c-6.4,10.9-11.9,22.3-19.3,32.6c-2.2,3.1-4.6,6.1-8.6,7.2c-3.8,1.1-6.4-0.2-8.3-3.5c-1.8-3.2-1.1-5.4,1.6-7.8
		c8.5-7.5,16.2-15.8,22.5-25.3c5.7-8.5,9.9-17.7,11.8-27.8c0.8-3.8,1.1-8.1-2.6-10.4c-3.4-2-7-0.4-10.1,2c-0.5,0.4-1,0.9-1.5,1.3
		c-19,16.3-30.9,36.6-35.3,61.3c-1.4,7.8-6.4,12.3-14.4,12.8c-3.6,0.2-6.3-1.5-7.6-4.6c-1.4-3.1-2.9-6.2,0.2-9.6
		c5.1-5.5,9.9-11.2,14.6-17.1c10.3-13,20.6-26.1,26.4-42c2-5.7,3.4-11.5,2.6-17.6c-0.7-5.1-3.1-6.6-7.9-5.1c-4.2,1.3-7.8,3.7-11,6.6
		C-107,0.7-120.2,25.9-122.8,56c-0.6,7.2-4.3,10.6-9.6,13.6c-2.3,1.4-5.1,2.2-7.5,0.1c-2.4-2.1-1-4.6-0.2-6.9
		c1.8-5.2,4.5-9.9,7.4-14.6c2.3-3.8,1.1-5.8-2.8-7c-3.4-1-5.9-0.7-7.9,2.9c-4.4,8-9,16-15.3,22.7c-1.9,2-4.3,4.5-7.2,2.8
		c-2.8-1.6-2.3-4.9-1.6-7.7c2.8-11.5,8.9-20.9,18.2-28.4c4-3.2,6.8-3.5,9.8,1c1.7,2.6,4.2,3.8,7.4,2.4c2.9-1.2,3.7-3.6,3.4-6.5
		c-0.4-3.5-2.8-4.8-5.7-5.4c-2.9-0.6-6-0.7-8.9,0.2c-17.3,5.5-29,16.9-34.7,34.2c-0.9,2.6-1.2,5.2-1,7.9c0.6,8.4,7.9,12.9,15.6,9.6
		c2.5-1,4.7-2.5,6.6-4.4c1.1-1.1,1.7-1.4,2.9,0.3c5.2,7.6,9.4,8.7,18.1,5.2c4.9-1.9,8.8-5.3,13-8.2c5.2,9.7,12.6,12.2,22.5,7.5
		c3.5-1.7,6.9-3.9,10.2-6.1c2-1.3,3.1-1.5,4.7,0.8c4.7,6.6,10,7.8,17.4,4.6c4.5-1.9,7.9-5.4,11.6-8.5C-50,79-48.5,79-31,68.2
		c-1,2.2-1.8,3.7-2.6,5.3C-39,83.8-44.5,94-49.8,104.3c-1.3,2.5-3.2,5.5,0.6,7.8c2.1,0,4.2,0,6.3,0c2.3-0.4,3.1-2.3,4.2-4.3
		c3.9-7.6,7.8-15.3,11.7-23c8.9-17.6,17.8-35.3,26.7-52.9C0.7,29.9,2.4,27.9,0,25.6z M-51.6,4.1c1.1-1.2,2.6-2.9,4.2-1.8
		c1.4,1,0.6,3.2,0.2,4.7c-3.4,13.6-10.7,25-19.7,35.3c-2.3,2.6-4.7,5-7.1,7.5C-71.2,32.1-63.3,17.1-51.6,4.1z M-106,32.4
		c4.9-15.6,11.4-30.4,22.5-42.7c2.5-2.7,5-5.4,8.2-7.2c2.1-1.2,3.6-0.8,3.3,2c-0.2,1.8-0.5,3.6-1,5.3c-7.1,21.7-21.4,38.6-36,56.9
		C-108.6,40.8-107.3,36.6-106,32.4z"/>
	<g>
		<path fill="#082E3B" d="M106.5,23.2c-6.6,0-13.2,0-19.8,0c-0.5,0-1.1,0.2-1.4,0.5c-3.1,3.7-6.1,7.5-9.2,11.2
			c-0.1,0.2-0.5,0.2-1,0.4c0.4-4.2,3.1-7.7,3.1-12.1c-2,0-3.8,0.3-5.6,0C63.1,21.6,55.7,24.3,51,33c-1.7,0.8-1.3-0.4-1.3-1.1
			c0.5-1.5,0.7-3,1.4-4.3c1.6-3.2,1-4.4-2.8-4.2c-4.8,0.2-9.7,0.1-14.5,0c-2.2,0-3.2,0.8-3.9,2.9c-5,16.3-10.1,32.5-15.3,48.7
			c-0.9,2.8-0.4,3.6,2.4,3.5c5.3-0.2,10.7-0.3,16,0c4.1,0.2,6.9-0.9,9.1-4.5c1.8-3.1,4.2-5.7,6.7-8.9c0.6,3.7-0.5,6.6-0.9,9.5
			c-0.4,2.7,0.2,3.9,3.3,3.8c5.8-0.2,11.7-0.2,17.5,0c2.9,0.1,4.5-0.9,6-3.3c10.1-16.2,20.4-32.3,30.6-48.6
			C105.9,25.6,107.1,24.9,106.5,23.2z M85.3,52.4c-4.1,6.5-8.2,12.9-12.2,19.5c-1.4,2.4-3,3.7-5.9,3.4c-3.1-0.3-6.3-0.1-9.5-0.1
			c-6.4,0-6.3,0-5.6-6.5c0.3-3.1,0.6-6.3,0.9-9.4c0-0.1,0-0.1,0.1-0.2c-0.2-1.1,0.1-2.2-1-3.1c-4.2,5.4-8.5,10.7-12.5,16.2
			c-1.7,2.3-3.5,3.2-6.2,3c-4.3-0.2-8.7-0.1-13,0c-2,0-2.5-0.5-1.9-2.7c4.7-14.5,9.2-29.1,13.7-43.7c0.6-1.9,1.8-2.4,3.7-2.5
			c12.6-0.7,12.6-0.8,8.3,11.1c-1.3,3.7-2.6,7.4-4,11.3c2.5,0.6,3.2-1.5,4.2-2.7c4.7-5.6,9.3-11.3,13.9-17
			c1.8-2.2,12.6-3.9,14.9-2.5c1.7,1.1,0.5,2.4,0.1,3.5c-2,6.2-4,12.3-6.1,18.6c2.2,1,2.8-1,3.7-2.1c4.1-5.1,8.3-10,12-15.4
			c2.6-3.8,5.5-5.3,9.9-4.8c2.6,0.3,5.2,0.1,8.7,0.1C95.8,35.6,90.6,44,85.3,52.4z"/>
		<path fill="#082E3B" d="M53.6,57.3c-0.1,0.4-0.2,0.7-0.3,1.1C53.5,58,53.6,57.6,53.6,57.3z"/>
		<path fill="#082E3B" d="M157.3,23.3c-11.3-2.2-18,2.3-22.4,12.9c-3.5,8.5-9.1,16.2-13.9,24.1c-1.1,1.8-3.5,3.8-5.4,2.5
			c-2.1-1.4,0.1-3.6,1-5.1c5.7-10.3,11.5-20.6,17.4-30.8c1.6-2.8,1.2-3.5-2.1-3.6c-17-0.5-17-0.5-25.4,14.3
			C103,43.8,99.4,50,96,56.3c-1.3,2.3-2.5,4.7-3.3,7.2c-2.7,8.2,1,14.4,9.6,15.4c16,1.9,29.7-2.6,38.7-16.4
			c8-12.4,14.8-25.5,22.8-39.2C160.8,23.3,158.9,23.6,157.3,23.3z M137.3,62.3c-8.6,11.8-21,15.2-34.9,13.5c-6.4-0.8-9-5.3-6.9-11.6
			c1.6-4.9,4.6-9.2,7.1-13.7c2.7-4.8,5.4-9.5,8.1-14.3c6.1-11,6.1-11,19.6-9.4c-3.4,6.1-6.7,11.9-10,17.7c-2.7,4.8-5.4,9.5-7.9,14.4
			c-0.9,1.8-2,4.2,0,6c2.1,2,4.6,1.4,7,0.3c3.4-1.5,5.2-4.6,6.9-7.6c5-8.8,10.2-17.5,14.8-26.5c2-3.8,4.4-5.4,8.6-4.8
			c2.6,0.4,5.3,0.1,8.7,0.1C151,38.9,145.3,51.3,137.3,62.3z"/>
		<path fill="#082E3B" d="M241.5,56.2c2.5-4.6,5.1-9.2,8.2-14.6c-6.4,0-11.9,0-17.4,0c0-0.4,0-0.9-0.1-1.2c2-1,4.1-0.6,6.2-0.6
			C253,39.7,253,39.7,259.7,27c1.3-2.5,1.7-3.8-2-3.7c-11.3,0.2-22.6,0.2-33.9,0c-2.9,0-4.1,1.3-5.3,3.5
			c-8.8,15.7-17.7,31.4-26.6,47.2c-0.7,1.2-1.9,2.3-1.6,4.3c3.8,0,7.7-0.5,11.4,0.1c7,1.1,11.5-1.4,13.6-8.1
			c3.4-10.6,10.6-14.6,21.4-12.5c0.6,0.1,1.3-0.1,2,0C240,57.9,240.9,57.3,241.5,56.2z M230.7,54.8c-7.9-0.7-12.9,1.6-15.4,9.1
			c-0.3,0.8-0.8,1.4-1.2,2.2c-5.8,10.4-5.8,10.4-19,8.6c7.5-13.2,15.2-26.2,22-39.5c3.5-6.8,7.5-9.8,15.3-8.9
			c7.5,0.8,15.3,0.2,22.9,0.2c-1.6,8.1-4,10.2-11.6,10.2c-3.3,0-6.7,0-10,0c-1.5,0-3.1-0.2-3.8,1.6c-0.9,2.1-3.5,4-2.5,6
			c0.7,1.5,3.6,0.5,5.6,0.5c3.5,0.1,7,0,10.5,0C240.9,54.1,239.8,55.6,230.7,54.8z"/>
		<path fill="#082E3B" d="M307,23.2c-11.4,0.1-22.7,0.2-34,0c-2.8,0-4.1,1.3-5.3,3.5C261,38.9,254.1,51,247.2,63.1
			c-2.8,4.9-5.5,9.8-8.5,15.2c4.8,0,9-0.5,13,0.1c6.3,0.9,10.1-1.5,12.1-7.2c3.7-10.8,10.7-16,22.4-13.4c0.5,0.1,1-0.1,1.5,0
			c1.3,0.1,2.2-0.5,2.8-1.6c2.6-4.6,5.2-9.1,8-14.1c-6.1-1-11.8,0.4-18.2-1c3.1-2.1,5.5-1.4,7.7-1.4c14.1,0,14.1,0,20.8-12.7
			c0.1-0.2,0.1-0.4,0.2-0.5C310.9,23.8,309.8,23.2,307,23.2z M291.7,36.5c-3,0-6,0-9,0c-1.3,0-2.7-0.1-3.5,1.3c-1,2-3.2,4.5-2.7,6
			c0.6,1.8,3.8,0.7,5.8,0.8c3.4,0.2,6.9,0,10.5,0c-3.4,9.9-3.8,10.7-13.1,10c-7.6-0.6-12.8,1.3-15.1,8.9c-0.1,0.5-0.5,0.9-0.7,1.3
			c-6.2,11.1-6.2,11.1-19.8,10.1c8.9-15.8,17.5-31.1,26.1-46.4c0.8-1.4,1.9-2.1,3.6-2.1c10.3,0.1,20.5,0,30.9,0
			C301.7,36,300.9,36.5,291.7,36.5z"/>
		<path fill="#082E3B" d="M171.8,62.1c7.4-13.2,14.4-25.8,21.6-38.6c-7.6,0-15.4-2.2-20.5,0.6c-4.9,2.7-6.9,10.5-10.2,16.1
			c-1.4,2.2-2.6,4.6-3.9,6.9c-5.7,10.1-11.4,20.1-17.7,31.2c13.7,0,26.3,0,39.1,0.1c1.5,0,2.5-0.5,3.2-1.9c2.5-4.7,5.1-9.2,8-14.4
			C184.6,62.1,178.6,62.1,171.8,62.1z M172.6,75.2c-8.4,0-16.9,0-25.5,0c0.1-2.7,1.7-4.3,2.7-6.1c7-12.5,14.2-24.8,20.9-37.3
			c2.2-4,4.6-6.1,9.2-5.3c2.5,0.3,5-0.6,7.9,0.6c-7.1,12.7-14,24.9-21.3,37.9c6.7,0,12.7,0,18.8,0C182.3,74.6,181.4,75.2,172.6,75.2
			z"/>
		<path fill="#082E3B" d="M53.3,58.4c-0.1,0.2-0.2,0.5-0.3,0.7c0,0.1,0,0.1,0,0.2C53.2,59,53.2,58.7,53.3,58.4z"/>
		<path fill="#082E3B" d="M53.6,57.3c0.1-0.4,0.2-0.8,0.3-1.3c0.1-0.6,0.5-1.5-0.4-1.6c-0.9-0.1-1.2,0.8-1.4,1.6
			C53.3,56.2,53.6,56.7,53.6,57.3z"/>
	</g>
</g>
</svg>
