<?xml version="1.0" encoding="utf-8"?>
<!-- Generator: Adobe Illustrator 23.0.0, SVG Export Plug-In . SVG Version: 6.00 Build 0)  -->
<svg version="1.1" id="Ebene_1" xmlns="http://www.w3.org/2000/svg" xmlns:xlink="http://www.w3.org/1999/xlink" x="0px" y="0px"
	 viewBox="0 0 271.4 89.7" style="enable-background:new 0 0 271.4 89.7;" xml:space="preserve">
<style type="text/css">
	.st0{fill:#072E3B;}
	.st1{fill:#FFFFFF;}
	.st2{fill:#F6F6F5;}
</style>
<g>
	<path class="st0" d="M138.8,77.1c-1,0.8-1.8,1.7-2.7,2.3c-3.3,2.4-7,2.5-10.7,1c-3.1-1.2-4.1-4.9-2.5-7.9c1-1.8,2.6-2.9,4.4-3.8
		c3.2-1.6,6.6-2.4,10.2-2.9c1-0.1,1.2-0.4,1.1-1.3c-0.1-0.8,0-1.7,0-2.5c-0.2-2.2-1.4-3.8-3.6-4.4c-2.1-0.6-4.2-0.4-6.1,0.8
		c-1.1,0.7-1.2,1.1-0.5,2.1c0.1,0.1,0.1,0.2,0.2,0.3c0.9,1.3,0.9,2.6,0.1,3.5c-0.8,1-2.2,1.3-3.5,0.7c-1.2-0.5-1.9-1.8-1.8-3.2
		c0.1-1.6,0.9-2.9,2.1-3.9c3.4-3,10.1-3.8,14.1-1.6c2.1,1.2,3.4,2.9,3.4,5.5c0,4.2,0,8.4,0,12.6c0,0.7,0,1.4,0.3,2.1
		c0.3,1,0.9,1.7,2.1,1.7c1,0,1.9,0.1,2.9,0.1c1.4-0.1,2-0.7,2-2.1c0-5.2,0-10.3,0-15.5c0-1.8-0.5-2.5-2.3-2.8
		c-1-0.2-1.2-0.6-1.1-1.5c0.1-1.1,0.8-0.6,1.3-0.7c1.7-0.2,3.3-0.2,5-0.4c0.6-0.1,0.8,0.1,0.9,0.7c0.2,1.3,0.4,2.7,0.6,4.1
		c0.8-0.9,1.5-1.7,2.3-2.5c1.9-1.8,4.2-2.6,6.8-2.3c2.3,0.2,4,1.4,5.1,3.5c0.3,0.6,0.5,1.2,0.8,1.9c0.7-1.1,1.5-2,2.4-2.9
		c2.1-2,4.6-2.9,7.5-2.4c3.2,0.5,5.2,2.8,5.7,6.4c0.4,3.1,0.2,6.3,0.2,9.5c0,1.6,0,3.3,0,4.9c0,1.2,0.5,1.8,1.6,2
		c1.8,0.3,3.6,0.2,5.4,0.1c1.2-0.1,1.7-0.9,1.7-2c0-5.2,0-10.4,0-15.6c0-1.8-1.1-2.7-3.1-2.7c-1.1,0-1.6-0.7-1.2-1.8
		c0.1-0.4,0.4-0.3,0.7-0.3c2.4-0.1,4.8-0.1,7.2-0.3c0.9-0.1,1,0.2,1,1.1c0,6.5,0,13,0,19.6c0,1.6,0.5,2.1,2.1,2.1c1.2,0,2.5,0,3.7,0
		c1.9-0.1,2.6-0.8,2.6-2.6c0-4.7,0-9.4,0-14.2c0-2.9-0.8-3.8-3.7-3.9c-0.7,0-0.9-0.2-0.9-0.9c0-0.6,0.1-0.9,0.8-1
		c2.1-0.1,4.2-0.2,6.3-0.4c0.8-0.1,1.2,0.1,1.3,1c0.1,1.3,0.3,2.6,0.5,4c0.5-0.6,1-1.3,1.5-1.8c2.7-2.9,6.1-3.7,9.8-2.8
		c2.8,0.7,4.8,3.4,5.1,6.7c0.4,4.3,0.1,8.7,0.2,13.1c0,2.3,0.3,2.7,2.6,2.8c1.1,0.1,0.6,0.8,0.7,1.3c0.1,0.6-0.1,0.8-0.8,0.8
		c-3.1,0-6.2,0-9.4,0c-0.5,0-0.9,0-0.8-0.7c0.1-0.5-0.5-1.3,0.7-1.4c2.3-0.3,2.6-0.6,2.6-3c0-3.7,0-7.4-0.1-11
		c-0.1-3.2-1.8-5.5-4.3-5.8c-3.5-0.4-6.4,1.6-7.4,5.2c-0.3,1.2-0.5,2.4-0.5,3.7c0,2.7,0,5.4,0,8c0,2.3,0.4,2.8,2.7,3
		c0.9,0.1,0.6,0.7,0.6,1.1c0,0.4,0.3,1-0.6,1c-0.2,0-0.4,0-0.6,0c-11.8,0-23.6,0-35.4,0c-1.1,0-1.4-0.3-1.3-1.3
		c0-0.6,0.2-0.8,0.8-0.7c0.2,0,0.5,0,0.7,0c2.1-0.1,2.6-0.6,2.6-2.7c0-3.8,0-7.5,0-11.3c0-0.6,0-1.3-0.1-1.9
		c-0.4-2.1-1.6-3.5-3.7-3.9c-1.9-0.4-4.2,0.5-5.3,2.3c-1.1,1.7-1.8,3.5-1.7,5.5c0,3,0,6,0,9c0,2.6,0.4,3,3,3c0.8,0,1.1,0.1,1.1,1
		c0,0.8-0.2,1.1-1.1,1.1c-3.5,0-7,0-10.4,0c-0.8,0-1.2-0.1-1.2-1.1c0-1.1,0.5-1,1.3-1c0.5,0,1,0,1.5-0.2c0.8-0.2,1.3-0.8,1.3-1.7
		c0-4.2,0-8.4,0-12.6c-0.1-2.9-1.4-4.7-3.5-5.2c-2-0.5-3.8,0-5.2,1.7c-1.5,1.8-2.2,3.9-2.2,6.3c0,3,0,6,0,9c0,2.2,0.5,2.8,2.7,2.7
		c1.1,0,1.3,0.3,1.2,1.3c0,0.6-0.1,0.8-0.8,0.8c-4.7,0-9.4-0.1-14-0.1C141.2,80.7,139.3,79.9,138.8,77.1z"/>
	<path class="st0" d="M86.1,39.1c-4.8,0-9.6,0-14.4,0c-0.9,0-1.1-0.2-1-1.1c0-0.8,0.2-1.2,1.1-1.1c0.2,0,0.5,0,0.7,0
		c2.2,0,2.7-0.6,2.7-2.7c0-9.1,0-18.2,0-27.2c0-2-0.5-2.5-2.5-2.6c-0.3,0-0.6,0-0.8,0c-0.9,0.2-1.1-0.2-1.1-1.1c0-0.9,0.3-1,1.1-1
		c9.2,0,18.4,0,27.6,0c0.8,0,1.1,0.2,1.1,1c0.1,2.7,0.4,5.4,0.6,8.1c0,0.4,0.3,1-0.6,1c-0.6,0-1.3,0.3-1.4-0.8c-0.1-1-0.3-2-0.6-2.9
		c-0.7-2.7-2.3-4.2-5.1-4.2c-3.7-0.1-7.4-0.1-11,0c-1.1,0-1.6,0.7-1.6,1.7c0,4.1,0,8.2,0,12.4c0,0.3,0,0.5,0.4,0.6
		c2.3,0.6,5.9-0.4,7.3-2.1c1.1-1.4,1.5-3.1,1.6-4.8c0-1,0.6-0.8,1.2-0.8c0.8-0.1,0.8,0.3,0.8,0.9c0,5.4,0,10.8,0,16.2
		c0,0.7-0.2,1-0.9,0.9c-0.5-0.1-1.1,0.1-1.1-0.8c0-1.2-0.2-2.5-0.7-3.6c-0.9-2.4-2.8-3.8-5.3-3.9c-0.8,0-1.6,0-2.4,0
		c-0.6,0-0.9,0.1-0.9,0.8c0,4.4,0,8.9,0,13.3c0,1,0.4,1.7,1.5,1.7c3.3,0.1,6.7,0.4,9.9-0.1c4.5-0.7,6.8-3.2,7.7-7.9
		c0.1-0.4,0.2-0.8,0.2-1.2c0.2-1,0.9-1.4,1.8-1.1c0.4,0.1,0.3,0.4,0.3,0.7c-0.2,3.7-0.4,7.5-0.6,11.2c0,0.9-0.6,0.5-1,0.5
		C95.8,39.1,91,39.1,86.1,39.1z"/>
	<path class="st0" d="M112.6,46.9c0.6-1,1.2-2,1.6-3c0.4-1,1.2-0.8,1.9-0.7c0.7,0.1,0.4,0.8,0.5,1.2c0.3,4.4,0.6,8.8,0.8,13.3
		c0,0.4,0.4,1.1-0.5,1c-0.6,0-1.2,0.2-1.5-0.8c-0.7-2.5-1.6-4.9-3.1-7.1c-2-3-4.6-5.3-8.4-5.5c-4.5-0.3-7.8,1.8-9.9,5.7
		c-1.7,3.1-2.2,6.5-2.2,9.9c-0.1,4.3,0.1,8.4,1.9,12.4c3,6.4,9.4,7,13.9,5c3.4-1.5,4.6-4.5,4.8-8.1c0-1.1,0-2.2,0-3.4
		c0-1.1-0.6-1.8-1.7-2c-1.2-0.2-2.5-0.1-3.7-0.1c-0.8,0-0.8-0.4-0.8-1c0-0.6,0-1,0.8-1c4.6,0,9.2,0,13.8,0c0.8,0,0.7,0.5,0.8,1
		c0,0.6,0,1-0.8,0.9c-0.4,0-0.8,0-1.2,0.1c-1.5,0.2-1.9,0.7-1.9,2.2c0,4.4,0,8.9,0,13.3c0,0.4,0.4,1.1-0.6,1.1
		c-0.7,0-1.3,0.1-1.6-0.9c-0.4-1.8-1-3.6-1.6-5.5c-1.5,2.2-3,3.9-5.2,5c-4.4,2.1-8.9,1.7-13-0.4c-7.1-3.6-10.4-9.6-10.6-17.5
		C85.1,56.1,89.6,47,98,44.1c4.2-1.5,8.2-1.2,12.1,1.2C110.9,45.8,111.7,46.3,112.6,46.9z"/>
	<path class="st0" d="M45.5,72c-5.6,5.1-12.3,7.9-19.7,8.8c-8.1,1-15.9-0.2-23.2-4c-0.7-0.3-0.8-0.6-0.5-1.2c1.2-2.7,2.2-5.4,3.6-8
		c1.6-0.5,3.2-0.5,4.8-0.2c5.5,0.8,11.1,1.1,16.7,1.9c4.7,0.6,9.4,0.8,14.1,1.4c1.1,0.2,2.3,0.4,3.4,0.7C45,71.5,45.5,71.4,45.5,72z
		"/>
	<path class="st0" d="M237.3,80.6c-2.3-0.9-4.3-1.7-4.6-4.3c-0.3-3.2,1.8-4.6,4.5-5.6c-1.9-1.2-3.3-2.6-4-4.6
		c-1.4-4.6,1.7-9.4,6.8-10.4c3.2-0.6,6.3-0.4,9.1,1.4c0.6,0.4,0.9,0.2,1.3-0.2c1.9-1.5,4-2.7,6.3-3.5c1.4-0.5,2.7-0.4,3.9,0.6
		c1,0.9,1.4,2.1,1,3.3c-0.4,1.1-1.5,1.9-2.6,1.9c-1.3,0.1-2.5-0.6-2.9-1.8c-0.6-1.8-0.8-1.3-2.1-0.7c-0.2,0.1-0.4,0.2-0.6,0.4
		c-0.7,0.5-1.7,0.8-2,1.4c-0.4,0.7,0.6,1.3,0.9,2c1.5,3.1,0.7,7-2.1,9.1c-2.2,1.7-4.7,2.6-7.5,2.6c-1.7,0-3.4-0.2-5,0.2
		c-1.4,0.3-2.1,1.1-2.1,2.2c0,1.1,0.7,1.7,2.2,1.9c2.2,0.3,4.4,0,6.6,0c2,0,4,0,5.9,0.5c4.9,1.2,6.5,6.7,3,10.4
		c-1.6,1.6-3.5,2.6-5.7,3.1c-3.5,0.8-7,0.8-10.5-0.1c-1.2-0.3-2.3-0.8-3.3-1.6c-2.9-2.3-2.4-5.7,0.9-7.3
		C235.4,81.2,236.3,80.9,237.3,80.6z"/>
	<path class="st0" d="M217.3,25.2c0,3.1,0,6.2,0,9.2c0,2.3,0.3,2.6,2.5,2.6c0.9,0,1.2,0.2,1.2,1.1c0,0.9-0.3,1-1.1,1
		c-3.3,0-6.6,0-10,0c-0.7,0-1.1-0.1-1-1c0-0.7,0-1.2,1-1.2c2.6,0,2.8-0.3,2.8-2.9c0-4.6,0-9.2,0-13.8c0-2.1-0.8-3.1-2.9-3.1
		c-3.8-0.1-7.5-0.1-11.3-0.1c-0.4,0-0.7,0-0.7,0.5c0.1,5.3-0.2,10.6,0.1,15.9c0.1,1.9,1.1,3,2.6,3.3c1.5,0.3,3-0.4,3.9-1.9
		c0.7-1.2,1-2.5,1.1-3.9c0-1,0.4-1.3,1.4-1.2c1.2,0.1,0.5,0.9,0.5,1.3c-0.1,1.7-0.4,3.3-1.3,4.8c-1.9,3.4-6.5,4.7-9.9,2.8
		c-1.8-1.1-2.8-2.7-2.8-4.8c0-5.2,0-10.5,0-15.7c0-0.9-0.2-1.2-1.1-1.1c-0.7,0.1-1.5,0-2.3,0c-0.4,0-1,0.3-0.9-0.5
		c0.1-0.5-0.4-1.3,0.6-1.5c3.7-0.8,5.1-3.7,5.8-7c0.2-0.9,0.3-1.7,0.3-2.6c0-0.9,0.5-0.8,1.2-0.9c0.9-0.1,0.7,0.5,0.7,1
		c0,2.7,0,5.4,0,8c0,0.8,0.2,1,1,1c5.6,0,11.3,0,16.9-0.3c1.1,0,1.6,0.1,1.5,1.4C217.2,18.9,217.3,22,217.3,25.2z"/>
	<path class="st0" d="M253.3,19.1c0.6-0.7,1-1.3,1.5-1.8c2.7-2.9,6.1-3.7,9.8-2.9c3,0.7,5.2,3.9,5.2,7.6c0,4,0,8.1,0,12.1
		c0,1.8,0.6,3,2.6,2.8c1-0.1,0.7,0.6,0.7,1.1c0,0.5,0.1,1-0.7,1c-3.2,0-6.4,0-9.6,0c-0.7,0-0.8-0.3-0.7-0.8c0.1-0.5-0.4-1.2,0.6-1.3
		c2.4-0.2,2.7-0.6,2.7-3c0-3.2,0-6.5,0-9.7c0-1-0.1-1.9-0.3-2.9c-0.4-2-1.4-3.5-3.4-4.1c-2.2-0.6-4.2-0.2-5.9,1.4
		c-1.7,1.6-2.6,3.6-2.6,5.9c-0.1,3.4,0,6.9,0,10.3c0,1.4,0.7,2.1,2.1,2.1c1,0,1.3,0.3,1.3,1.3c0,1.2-0.8,0.8-1.4,0.8
		c-2.9,0-5.8,0-8.8,0c-0.7,0-1.1-0.1-1-0.9c0.1-0.6-0.2-1.3,0.9-1.3c1.9,0,2.4-0.6,2.4-2.4c0-4.9,0-9.8,0-14.8c0-2.4-1-3.4-3.4-3.4
		c-0.5,0-1.1,0.3-1.2-0.7c-0.1-0.9,0.3-1.2,1.1-1.2c2.2-0.1,4.3-0.2,6.5-0.3c0.6,0,0.8,0.1,0.9,0.7
		C252.9,16.1,253.1,17.5,253.3,19.1z"/>
	<path class="st0" d="M182.5,34.4c-1.7,1.8-3.3,3.3-5.3,4.3c-4.4,2.1-11.2,0.5-11.4-7.6c-0.1-3.7,0-7.4,0-11.2
		c0-2.4-0.8-3.2-3.2-3.4c-1-0.1-1.4-0.7-1.1-1.7c0.1-0.3,0.3-0.3,0.5-0.3c2.5-0.1,5.1-0.3,7.6-0.4c0.8-0.1,0.6,0.5,0.6,1
		c0,5.1,0,10.2,0,15.2c0,0.7,0,1.4,0.2,2c0.9,4.1,5.7,5.6,9.1,2.7c2.2-1.8,3-4.3,3-7c0-2.7,0-5.4,0-8c0-2.4-0.8-3.3-3.2-3.5
		c-0.7-0.1-1.2,0-1.3-1c0-1.1,0.7-1,1.3-1c2.1-0.1,4.2-0.2,6.3-0.3c0.9-0.1,1.2,0.2,1.2,1.1c0,6.1,0,12.2,0,18.2
		c0,2.8,0.7,3.5,3.5,3.5c0.8,0,1,0.2,1,1c0,0.9-0.3,0.9-1.1,1c-2.2,0-4.3,0.1-6.5,0.2c-0.6,0-0.8-0.2-0.9-0.8
		C182.7,37.1,182.6,35.9,182.5,34.4z"/>
	<path class="st0" d="M138,13.8c5.7,0,10.5,4.2,11.4,9.9c0.5,3.7,0.4,7.3-1.6,10.5c-2.4,4-7.2,6.2-11.7,5.4
		c-4.4-0.7-8.2-4.2-9.2-8.8c-1-4.6-0.7-9,2.3-12.8C131.4,15.2,134.4,13.8,138,13.8z"/>
	<path class="st0" d="M244.9,26.3c0,5.4-1.6,9.5-6,12c-6.8,3.8-15,0.2-16.7-7.5c-0.9-4-0.7-7.9,1.4-11.5c2.6-4.3,6.5-6,11.5-5.4
		c4.3,0.5,8.1,4,9.3,8.5C244.8,23.9,245,25.4,244.9,26.3z"/>
	<path class="st0" d="M116.2,33.1c1.9-4.5,3.8-9.1,5.7-13.6c0.4-0.9,0.1-1.8-0.8-2.2c-0.5-0.3-1.2-0.6-1.8-0.6c-1.1,0-1-0.7-1-1.5
		c0-1,0.8-0.6,1.2-0.6c2.7,0,5.4,0,8,0c0.4,0,1.1-0.2,1,0.6c-0.1,0.6,0.3,1.2-0.8,1.4c-1.6,0.2-2.6,1.3-3.2,2.7
		c-2.8,6.5-5.6,13-8.4,19.5c-0.2,0.5-0.3,1.1-1.2,1.1c-0.8,0-1-0.5-1.2-1c-2.9-6.5-5.9-13-8.8-19.6c-0.8-1.9-2-2.9-4.1-2.7
		c-1,0.1-1.3-0.3-1.2-1.3c0-0.6,0.3-0.7,0.8-0.7c4,0,7.9,0,11.9,0c0.7,0,0.8,0.2,0.8,0.8c0,0.5,0.2,1.1-0.8,1.1
		c-2.8-0.1-3.6,0.7-2.2,3.7c1.9,4,3.7,8.1,5.5,12.2C115.8,32.6,115.8,32.9,116.2,33.1z"/>
	<path class="st0" d="M157.8,19.1c0,5.1,0,10.2,0,15.4c0,2.2,0.3,2.5,2.5,2.5c0.9,0,1.2,0.2,1.1,1.1c0,0.7-0.2,1-1,1
		c-3.4,0-6.7-0.1-10.1,0c-0.8,0-1-0.3-0.9-1c0-0.6,0-1.1,0.9-1.1c2.6,0,3-0.4,3-3c0-8.7,0-17.4,0-26.2c0-2.4-0.9-3.3-3.3-3.3
		c-0.3,0-0.6,0-0.8,0c-0.7,0.1-1.2,0-1.1-1c0-0.8,0.1-1.2,1.1-1.2c2.6,0,5.2-0.1,7.8-0.3c0.9-0.1,1,0.2,1,0.9
		C157.8,8.3,157.8,13.7,157.8,19.1z"/>
	<path class="st0" d="M52.9,63.3c-1,1.6-1.9,3.3-3.4,4.6c-2.7-0.7-5.5-0.8-8.2-1c-1.9-0.2-3.9-0.4-5.8-0.6
		c-5.1-0.6-10.2-1.1-15.2-1.7c-3.5-0.4-7-0.7-10.5-1.1c-0.6-0.1-1.3-0.1-1.8-0.6c0.6-1.1,1.3-2.1,1.9-3.2c0.2,0,0.5-0.1,0.7-0.1
		c3.1,0.1,6.2-0.1,9.3-0.6c0.3,0,0.6,0,0.8,0c3.1,0.5,6.3,0.7,9.4,1.1c4.2,0.5,8.3,0.9,12.5,1.3c3.1,0.3,6.2,0.8,9.3,1.1
		C52.3,62.5,53.1,62.4,52.9,63.3z"/>
	<path class="st0" d="M8,62.8c3.8,0.5,7.7,0.9,11.6,1.2c3,0.3,6,1,9.1,1.1c2.8,0.1,5.6,0.8,8.4,0.9c2.5,0.1,5,0.5,7.6,0.8
		c1.2,0.1,2.4,0.3,3.5,0.4c0.6,0,1.1,0.1,1.4,0.7c-1.1,1.6-2.4,3-4,4.1c-4.2-1.1-8.4-1.4-12.7-1.8c-3-0.2-5.9-0.8-8.8-1.1
		c-2.1-0.2-4.2-0.3-6.3-0.6c-2.3-0.3-4.6-0.5-6.8-0.8c-1-0.2-2-0.2-3-0.1c-0.7,0-1.5,0-2.2,0C6.3,65.9,7.2,64.4,8,62.8z"/>
	<path class="st0" d="M8.1,20.1c-0.6-1.2-1.3-2.4-1.9-3.6c0.4-1.1,1.4-1.3,2.3-1.8c3.3-1.6,6.9-1.9,10.5-1.6c3.8,0.3,7.1,1.8,10,4.3
		c3.5,3,5.7,6.7,6.5,11.3c0.5,3,0.6,6.1-0.5,9.1c-0.1,0.4-0.3,0.8-0.6,1c-1.4-0.3-2.7-0.6-4.1-1c-0.1-0.1-0.2-0.2-0.1-0.3
		c0.7-1.4,0.3-2.9,0.8-4.3c0.6-1.7,0-3.3-0.4-4.8c-1.7-6.4-7.4-10.6-13.9-10.6c-2.7,0-5.1,0.7-7.4,2C8.9,19.9,8.6,20.2,8.1,20.1z"/>
	<path class="st0" d="M8.1,20.1c3.7-2.7,7.8-3.2,12.1-2.3c2,0.4,3.9,1.5,5.6,2.8c1.4,1.1,2.6,2.4,3.5,3.9c0.9,1.6,1.3,3.4,1.9,5.1
		c0.8,2.3-0.5,4.3-0.1,6.5c0.1,0.7-0.7,1.1-0.7,1.8c-1.8-0.5-3.6-1.1-5.3-1.9c-0.4-0.5-0.1-0.9,0-1.4c2-6.3-3.6-12.4-10.3-11.2
		c-0.8,0.1-1.4,0.6-2.1,0.9c-0.6,0.2-1.1,0.6-1.8,0.2C9.7,23.1,8.9,21.6,8.1,20.1z"/>
	<path class="st0" d="M34.5,38.8c0.1-1.2,0.6-2.3,0.8-3.4c0.6-3.4,0.2-6.7-0.9-9.9c-1-2.8-2.7-5.2-5-7.3c-1.8-1.6-3.8-2.9-6-3.9
		c-1.2-0.6-2.6-0.7-3.8-0.8c-3.1-0.3-6.2-0.4-9.2,0.8c-1.5,0.6-3,1-4.2,2.1c-0.5-1-1-2.1-1.4-3.1c0-0.6,0.3-0.9,0.8-1.1
		c3-1.3,6-2.5,9.3-2.7c2.2-0.1,4.4,0,6.5,0.5c3,0.6,5.8,1.6,8.2,3.5c5.1,3.7,8.5,8.6,9.4,14.9c0.5,3.4,0.4,6.9-0.8,10.2
		c-0.1,0.3-0.2,0.5-0.4,0.7C36.7,39.2,35.6,39,34.5,38.8z"/>
	<path class="st0" d="M52.9,63.3c-0.6-0.9-1.6-0.6-2.5-0.7c-4.7-0.6-9.4-1-14.2-1.6c-2.1-0.3-4.2-0.3-6.3-0.6
		c-3.1-0.4-6.2-0.4-9.3-1.2c0.3-0.6,0.9-0.6,1.4-0.7c2.9-0.8,5.7-1.8,8.3-3.3c0.6-0.3,1.1-0.9,1.9-0.7c1.4,0.3,2.8,0.3,4.3,0.4
		c4,0.4,8,1,12.1,1.4c1.7,0.2,3.4,0.3,5.1,0.5c0.7,0.1,1.4,0.3,2,0.8C55.2,59.6,54.2,61.5,52.9,63.3z"/>
	<path class="st0" d="M42.4,39.8c-0.5,0-1,0-1.5-0.1c-0.7-0.1-0.8-0.6-0.6-1.2c0.7-1.9,0.8-3.9,0.9-5.8c0.1-2,0-4-0.5-5.9
		c-1-4.5-3.2-8.2-6.2-11.6c-3.4-4-8-5.9-13-7.1c-2.4-0.6-4.9-0.4-7.4-0.4c-1.3,0-2.6,0.7-3.8,0.8C8.8,8.8,7.5,9.5,6.1,10
		c-0.3,0.1-0.6,0.4-0.9,0.6c-0.5,0.3-0.9,0.4-1.5,0.3C3.3,10.3,3.1,9.7,3,9.1c0.1-0.4,0.4-0.6,0.8-0.7c5.4-2.6,11-3.9,17.2-2.9
		C25.6,6.3,29.8,8,33.4,11c6,5,9.5,11.3,10,19.3c0.2,2.7,0,5.2-0.6,7.8C42.8,38.7,42.8,39.3,42.4,39.8z"/>
	<path class="st0" d="M55.8,57.6C54.6,57.3,53.3,57,52,57c-2.6,0-5.1-0.6-7.7-0.8c-1.5-0.1-3-0.2-4.4-0.5c-1.6-0.4-3.2-0.3-4.8-0.5
		c-0.9-0.1-2,0.3-2.8-0.5c-0.1-0.5,0.4-0.7,0.7-0.9c1.5-0.9,3-2,4.4-3.1c0.3-0.3,0.7-0.5,1.2-0.4c3.9,0.2,7.7,0.9,11.5,1.2
		c2.2,0.2,4.4,0.4,6.5,0.8c0.4,0.1,0.7,0.2,0.9,0.5C57.1,54.4,56.7,56.1,55.8,57.6z"/>
	<path class="st0" d="M10.9,24.5c0.7,0,1.3-0.3,1.9-0.6c3.5-2,8.2-0.7,10.7,2.2c2.3,2.6,2.8,5.6,1.8,8.9c-0.1,0.3-0.2,0.7-0.2,1
		c-2.8-1-5.3-2.7-7.7-4.5c-2.4-1.9-4.5-4.1-6.3-6.6C11,24.8,11,24.6,10.9,24.5z"/>
	<path class="st0" d="M57.5,52.8c-2.4-0.4-4.8-0.8-7.3-1c-2.5-0.1-5-0.6-7.5-0.9c-0.9-0.1-1.7-0.1-2.6-0.1c-0.6,0-1.3-0.1-1.8-0.5
		c-0.1-0.3,0-0.5,0.2-0.6c1.3-0.9,2.1-2.2,3.3-3.3c0.3-0.3,0.7-0.6,1.2-0.5c3.9,0.3,7.8,0.6,11.7,1.2c1.1,0.2,2.2,0,3.2,0.3
		c0.6,0.1,1,0.4,0.7,1.1C58.3,49.9,58.1,51.4,57.5,52.8z"/>
	<path class="st0" d="M51,16.7c1.9,2,3.1,4.5,4.3,7c1.6,3.4,2.6,7.1,3.4,10.8c0,0.2,0,0.3,0,0.5c-1.3,0-2.6-0.4-4-0.4
		c-1.3,0-2.7-0.3-3.9-0.7c-0.6-0.2-1.1-0.3-1.4-1c-0.2-1,0.5-1.8,0.6-2.7c0-0.4,0.2-0.8,0.2-1.3c0-1.3,0.5-2.6,0.6-4
		c0.1-0.7,0.2-1.5,0.1-2.2c0-1.6,0.1-3.1-0.2-4.7C50.7,17.5,50.7,17.1,51,16.7z"/>
	<path class="st0" d="M30.6,55.4c-1.7,1.3-3.8,2-5.8,2.6c-1.3,0.4-2.7,0.8-4.1,1.2c-3.2,0.5-6.4,0.9-9.6,0.7c-0.4,0-0.9,0.1-1.2-0.3
		c0.6-1.2,1.4-2.1,2.2-3.1c0.5-0.4,1.2-0.3,1.7-0.2c3.4,0.4,6.8,0.2,10.1-0.8c3.3-0.9,6.3-2.5,8.8-4.9c2.1-1.9,4.1-4,5.3-6.7
		c0.2-0.5,0.7-0.7,1.2-0.9c0.7,0,1.4-0.4,2.2-0.2c-1,2.9-2.7,5.3-4.7,7.5C34.9,52.5,32.7,53.9,30.6,55.4z"/>
	<path class="st0" d="M45.5,40c-0.5,0-1,0-1.4,0c-0.1-0.1-0.2-0.2-0.2-0.3c0.5-2.4,1.1-4.8,1.1-7.3c-0.2-7-2.4-13.2-6.9-18.6
		c-2.3-2.8-5.2-4.8-8.4-6.6c-2.5-1.4-5.3-2-8-2.8c-1.9-0.5-3.9-0.2-5.8-0.3c-2.7-0.1-5.3,0.5-7.9,1.2C6.3,5.6,5,6.7,3.5,7.3
		C3.1,7.4,2.8,7.8,2.3,7.6c-0.7-0.9-0.6-1.5,0.6-2C4.7,4.9,6.4,4,8.3,3.6c0.4,0.2,0.7,0,1-0.3c1.1-0.5,2.2-0.7,3.4-0.9
		c0.2,0.4,0.3,0,0.5-0.1C13.8,2,14.5,2,15.2,1.9c0.2,0.2,0.4,0.3,0.8,0.3C22.9,1.9,29,4.1,34.5,8c4.1,3,7.3,6.9,9.4,11.6
		c1.4,3.2,2.3,6.4,2.7,9.8c0.3,2.5,0.2,5.1-0.4,7.6C45.9,38,46.2,39.1,45.5,40z"/>
	<path class="st0" d="M37.8,39.4c-0.1-0.7,0.3-1.2,0.4-1.9c1-4.9,1.1-9.8-1.1-14.4c-2.7-5.6-6.8-10-12.9-12
		c-2.7-0.9-5.4-1.3-8.2-1.3c-3.6,0-6.7,1.3-9.9,2.5c-0.5,0.2-1,0.5-1.3,1c-0.2-0.6-0.5-1.1-0.7-1.7c2.2-1.5,4.7-2.3,7.3-2.9
		c8.5-2,15.8,0.4,22.1,6.1c3.9,3.8,6.2,8.4,7,13.8c0.4,2.6,0.3,5.3-0.2,8c-0.1,0.5-0.2,0.9-0.2,1.4c0,0.7-0.4,1.2-1,1.5
		C38.6,39.5,38.2,39.7,37.8,39.4z"/>
	<path class="st0" d="M2.3,7.6C5.4,5.8,8.6,4.5,12.2,4c2.8-0.4,5.7-0.5,8.4-0.1c3,0.4,5.9,1.2,8.7,2.7c2.4,1.2,4.4,2.9,6.5,4.5
		c2.2,1.7,3.7,4,5.2,6.4c2.1,3.3,3.3,7,3.9,10.8c0.5,3.1,0.6,6.2-0.3,9.2c-0.2,0.8-0.3,1.5-0.6,2.3c-1.2,0.1-1.4,0-1.2-1.1
		c0.6-2.6,0.7-5.3,0.6-8c0-4.8-1.5-9-4-13c-2.5-4-5.8-7.2-10-9.4C21.1,4,12.7,3.9,4.2,8.2c-0.5,0.3-1,0.7-1.7,0.2
		C2.5,8.1,2.4,7.9,2.3,7.6z"/>
	<path class="st0" d="M22,1.6c0.7,0,1.4,0,2.1,0.1c0.3,0.3,0.7-0.1,1,0.2c1.7,0.2,3.4,0.4,5,1c3.4,1.5,6.4,3.7,9.2,6.1
		c0.2,0.2,0.4,0.4,0.6,0.6c2,2.7,4.2,5.2,5.7,8.2c1.7,3.6,2.9,7.5,3.2,11.5c0.1,1.7-0.1,3.4,0.4,5c-0.5,2-1,4-2.7,5.4
		c-0.7-0.4-0.3-0.9-0.2-1.4c1.2-5.5,0.7-10.8-1.1-16.1c-1.2-3.6-3.1-6.8-5.4-9.6c-1.5-1.8-3.1-3.4-5.1-4.7c-3-2.1-6.2-3.8-9.8-4.9
		c-1-0.3-2.1-0.3-3-0.6c-0.3-0.1-0.7-0.3-0.5-0.7C21.4,1.4,21.7,1.5,22,1.6z"/>
	<path class="st0" d="M58.5,48.5c0-0.5-0.1-0.7-0.7-0.7c-3.3-0.1-6.5-0.7-9.8-1c-1.8-0.1-3.6-0.2-5.3-0.7c-0.2-0.2-0.2-0.4,0-0.5
		c0.7-1,1.2-2,2.2-2.8c3.6,0,7.1,0,10.7,0c1,0,2,0.3,3.1,0.2c0.5,0,0.7,0.3,0.7,0.7C59,45.3,59,46.9,58.5,48.5z"/>
	<path class="st0" d="M46.5,39.6c1.2-1.6,1.9-3.4,2.6-5.3c-0.2-0.6-0.2-1.2,0.5-1.4c1.1,1,2.5,1,3.7,1.3c1.8,0.3,3.7,0,5.4,0.9
		c0.2,1.3,0.5,2.6,0.5,3.9c0,0.7-0.2,0.9-0.9,0.9c-3.9,0.4-7.9,0.2-11.8,0.2C46.3,39.9,46.3,39.7,46.5,39.6z"/>
	<path class="st0" d="M13.8,54.7c0.8-1,1.7-1.9,2.9-2.7c4.7,0.1,8.8-1.5,12.5-4.3c1.3-0.9,2.1-2.4,3.4-3.4c1.2-0.3,2.4-0.7,3.6-0.7
		c0.5,0.6,0.1,1.1-0.3,1.6c-3.5,5-8.2,8.2-14.1,9.5c-2.2,0.5-4.6,0.5-6.9,0.4C14.4,55.2,14.1,55.1,13.8,54.7z"/>
	<path class="st0" d="M49.6,32.8c-0.3,0.4-0.4,0.9-0.5,1.4c-0.2,0-0.6,0.1-0.6-0.2c-0.1-2,0.1-4.1-0.2-6.1c-0.4-2.6-0.9-5.1-2-7.6
		c-0.8-2-1.7-4-3-5.7c-1.7-2.2-3.2-4.6-5.5-6.5c-2.4-1.9-4.9-3.7-7.8-4.9c-0.2-0.1-0.1-0.3,0-0.4c3.2,0.5,6.1,1.7,8.9,3.3
		c2.1,2.5,4.6,4.8,6.2,7.7c0.8,1.3,1.8,2.6,2.3,4.1c0.4,1.2,0.8,2.4,1.4,3.6c0.9,1.9,1.1,3.9,1.3,5.9c0,0.5,0,1.1,0.3,1.6
		C50.5,30.3,49.7,31.5,49.6,32.8z"/>
	<path class="st0" d="M13.8,54.7c1.7,0.5,3.3,0.3,5,0.2c4.2-0.3,8.1-1.8,11.5-4.3c2.2-1.6,4-3.6,5.6-5.8c0.3-0.4,0.3-0.7,0.3-1.1
		c1.1,0,2-0.5,3.1-0.5c-0.5,0.4-0.8,0.9-1.1,1.5c-1.3,2.7-3.3,4.8-5.5,6.7c-2.5,2.2-5.3,3.7-8.5,4.6c-3.1,0.9-6.3,1-9.4,0.9
		c-0.8,0-1.7-0.2-2.5-0.3C12.7,55.9,13.1,55.2,13.8,54.7z"/>
	<path class="st0" d="M46.5,39.6c0,0.2,0,0.3,0,0.5c-0.3,0-0.6,0-1,0c0.5-3.4,0.9-6.8,0.9-10.2c0-2-0.7-4-1.2-5.9
		c-1.3-4.3-3.3-8.2-6.4-11.5C35.6,9,32,6.5,27.7,4.7c-3.2-1.4-6.6-1.8-10-2.3c-0.5-0.1-1-0.1-1.5,0.1c-0.5,0.2-0.8,0-0.9-0.6
		c1.9-0.3,3.7-0.4,5.6-0.5c0.4,0,0.8-0.1,1.1,0.2c-0.2,0-0.5,0.1-0.5,0.1c-0.1,0.2,0.2,0.3,0.4,0.3C23.2,2.4,24.6,2.6,26,3
		c4.8,1.6,9,4.2,12.6,7.8c2.8,2.9,4.9,6.2,6.4,9.9c1.3,3.3,2.1,6.8,2.2,10.4c0.1,2.5,0,5.1-0.7,7.6C46.4,39,46.1,39.3,46.5,39.6z"/>
	<path class="st0" d="M2.6,8.4C3.9,8.4,4.8,7.5,5.8,7c4.4-1.9,8.9-2.5,13.6-2.1c3,0.3,5.9,1.1,8.5,2.3c2.3,1,4.6,2.4,6.6,4.2
		c3.5,3.2,6.2,7,7.8,11.4c0.8,2.1,1.4,4.3,1.4,6.6c0,2.5,0.2,4.9-0.2,7.4c-0.1,0.6-0.3,1.3-0.4,1.9c-0.3,1.1,0.3,0.9,0.9,1
		c0,0.1,0,0.1,0,0.2c-0.6,0.1-1.1-0.1-1.7-0.2c0-2.1,0.7-4.1,0.8-6.1c0.1-1.7-0.1-3.3-0.2-4.9c-0.1-2.1-0.7-4.2-1.5-6.2
		c-2.1-5.6-5.8-9.9-10.7-13.1c-1.9-1.2-4-2.2-6.1-2.8c-4.5-1.3-9-1.8-13.7-0.6c-2.8,0.7-5.5,1.8-8,3C2.8,8.9,2.7,8.6,2.6,8.4z"/>
	<path class="st0" d="M32.5,44.4c-1.3,1.7-2.5,3.3-4.4,4.4c-1.6,0.9-3,1.9-4.7,2.5c-1.3,0.4-2.5,0.8-3.8,0.8c-0.9,0-1.9,0.8-2.8,0
		c1.4-1.4,3-2.4,4.7-3.4C24.9,46.6,28.6,45.2,32.5,44.4z"/>
	<path class="st0" d="M33.2,15.1c-2.2-1.9-4.5-3.6-7.1-4.7c-1.9-0.8-4-1.4-6.1-1.7c-5-0.8-9.8,0.3-14.3,2.4c-0.6,0.3-1,0.8-1.7,0.7
		c-0.2-0.3-0.3-0.6-0.3-0.9c1.1-0.1,1.8-1,2.8-1.3C7.8,9,9.2,8.7,10.4,8.2c2.6-1.1,5.1-0.8,7.7-0.8c4.1,0.1,7.9,1.4,11.5,3.4
		c2,1.1,3.7,2.4,5.1,4.2C34.2,15.3,33.7,15.3,33.2,15.1z"/>
	<path class="st0" d="M50.5,29c-0.3,0.1-0.5,0.2-0.6-0.3c-0.1-1.3-0.2-2.6-0.3-3.9c0-1.4-0.7-2.5-1.2-3.7c-0.9-2.2-1.5-4.5-3-6.4
		c-1.1-1.5-1.9-3.2-3.3-4.5c-1.3-1.2-2.2-2.7-3.5-3.9c0,0,0-0.1,0-0.1c0.1,0,0.2,0,0.2-0.1C40.7,7,42.3,8,43.7,9.3
		c0.3,1.1,1.3,1.6,1.9,2.5c2.2,3.5,4.1,7.3,5.1,11.4c0.1-0.3,0.1-0.6,0.4-0.5C51.3,24.9,50.7,26.9,50.5,29z"/>
	<path class="st0" d="M33.2,15.1c0.5-0.2,1-0.2,1.4,0c2.8,2.9,4.7,6.2,5.9,10c0.8,2.4,1,4.8,0.9,7.2c-0.1,2-0.1,4.2-1,6.2
		c-0.2,0.5-0.1,0.9,0.3,1.2c-0.6-0.1-1.3-0.2-1.9-0.2c1.1-1.2,1-2.8,1.1-4.3c0.5-4.4,0-8.7-1.8-12.8c-1-2.3-2.4-4.4-4.1-6.3
		C33.9,15.8,33.6,15.5,33.2,15.1z"/>
	<path class="st0" d="M54.9,71.9c2.8,0,5,2.2,5,5c0,2.8-2.2,5-5,5.1c-2.8,0-5.1-2.3-5.1-5.1C49.8,74,52,71.9,54.9,71.9z"/>
	<path class="st0" d="M195.6,44.6c1.6,0,3,1.4,3,2.9c0,1.6-1.4,3-3,3c-1.7,0-3-1.3-3-3C192.6,45.8,193.9,44.6,195.6,44.6z"/>
	<path class="st0" d="M217.3,6c0,1.6-1.3,3-2.9,3c-1.6,0-3-1.4-3-2.9c0-1.6,1.3-3,2.9-3C215.9,3,217.3,4.3,217.3,6z"/>
	<path class="st0" d="M51.2,22.8c-0.4,0.3,0,0.9-0.5,1.4c-0.2-1.3-0.7-2.5-1.1-3.7c-1-3.3-2.7-6.2-4.6-9c-0.4-0.7-1.4-1.1-1.2-2.1
		c1.9,1.7,4,3.1,5.6,5.1c0.6,0.8,1.3,1.4,1.7,2.3C51.2,18.8,51.4,20.8,51.2,22.8z"/>
	<path class="st0" d="M44.7,42.7c-0.5,1.3-1.7,2.1-2.1,3.3c-1.6,1.3-2.7,3-4.3,4.3c-1.9,1.6-4,2.9-6,4.3c-0.7,0-1,0.7-1.7,0.7
		C30.4,55,30.8,55,31,54.9c3.8-2.5,6.9-5.7,9.2-9.7c0.4-0.7,0.3-1.8,1.2-2.2C42.5,42.9,43.6,42.8,44.7,42.7z"/>
	<path class="st0" d="M9.2,3.3C9,3.6,8.9,4.4,8.3,3.6C8.6,3.5,8.9,3.4,9.2,3.3z"/>
	<path class="st0" d="M13.1,2.3c-0.1,0.3-0.4,0.6-0.7,0.4c-0.2-0.1,0.2-0.2,0.2-0.4C12.8,2.4,12.9,2.3,13.1,2.3z"/>
	<path class="st0" d="M25.1,1.9c-0.3-0.2-0.8,0.5-1-0.2C24.5,1.7,24.8,1.6,25.1,1.9z"/>
	<path class="st1" d="M138.5,70.1c0.1,2.7-0.5,5.5-3.1,7.6c-1.4,1.1-3,1.7-4.8,1.6c-1.5-0.1-2.6-0.9-3.2-2.3c-0.9-2.3-0.1-5,1.9-6.4
		c2.6-1.8,5.7-2.3,8.7-2.8c0.4-0.1,0.5,0.1,0.5,0.5C138.5,68.7,138.5,69.2,138.5,70.1z"/>
	<path class="st1" d="M237.7,63.6c0-1.1,0.1-2.1,0.5-3.2c0.8-2,2.6-3.3,4.7-3.3c2.2,0,3.8,1.1,4.7,3.1c1,2.3,1,4.7,0,7
		c-0.8,2-2.4,3.2-4.6,3.2c-2.2,0-3.7-1.1-4.6-3C237.8,66.2,237.6,64.9,237.7,63.6z"/>
	<path class="st1" d="M243.8,89.3c-2.5,0-4.2-0.1-5.8-0.9c-1.3-0.6-2.3-1.5-2.4-3c-0.1-1.5,0.7-2.5,1.9-3.3c1.8-1.2,3.8-1.3,5.8-1.4
		c1.8-0.1,3.6,0,5.3,0.4c1.6,0.4,2.8,1.2,3.1,2.9c0.3,1.6-0.7,2.7-1.9,3.6C247.9,89,245.5,89.2,243.8,89.3z"/>
	<path class="st1" d="M144.7,26.7c0.1,2.1-0.1,4.3-0.8,6.4c-1.2,3.6-4.2,5.4-7.4,4.5c-2.1-0.6-3.4-2.1-4.1-4.1
		c-1.5-4.5-1.5-9,0-13.5c1-2.9,3.2-4.4,5.9-4.3c2.6,0.1,4.7,1.8,5.7,4.7C144.6,22.5,144.7,24.5,144.7,26.7z"/>
	<path class="st1" d="M226.7,26.7c-0.1-2.2,0.1-4.5,0.9-6.6c1.1-2.8,3.2-4.4,5.8-4.4c2.7,0,4.9,1.6,5.8,4.5c1.3,4.5,1.3,9-0.3,13.4
		c-0.9,2.6-3.1,4.2-5.6,4.2c-2.8,0-4.5-1.6-5.6-4C226.8,31.6,226.6,29.2,226.7,26.7z"/>
	<path class="st1" d="M54.8,80.9c-2.1,0-4-1.9-4-4c0-2.1,2-4,4-3.9c2.1,0,4,2,4,4C58.8,79.1,57,80.9,54.8,80.9z"/>
	<path class="st0" d="M56.9,79.3c-1.1,0.4-1.3-0.3-1.6-0.9c-0.2-0.4-0.3-0.9-0.9-0.8c-0.5,0.1-0.3,0.7-0.3,1c0,0.4,0,0.8-0.6,0.8
		c-0.6,0-0.6-0.4-0.6-0.8c0-1.3,0.1-2.5,0.1-3.8c0-0.2,0-0.4,0.2-0.5c0.4-0.3,2.9,0.1,3.2,0.5c0.5,0.8,0.6,1.6-0.1,2.4
		c-0.3,0.3-0.3,0.5-0.1,0.8C56.5,78.4,56.7,78.8,56.9,79.3z"/>
	<path class="st2" d="M54.1,75.8c-0.1-0.5,0.1-0.8,0.7-0.7c0.5,0.1,1,0.2,1,0.8c0,0.7-0.6,0.8-1.1,0.8C54,76.7,54.1,76.3,54.1,75.8z
		"/>
</g>
</svg>
