<?xml version="1.0" encoding="utf-8"?>
<!-- Generator: Adobe Illustrator 23.0.0, SVG Export Plug-In . SVG Version: 6.00 Build 0)  -->
<svg version="1.1" id="Ebene_1" xmlns="http://www.w3.org/2000/svg" xmlns:xlink="http://www.w3.org/1999/xlink" x="0px" y="0px"
	 viewBox="0 0 208.6 38.8" style="enable-background:new 0 0 208.6 38.8;" xml:space="preserve">
<style type="text/css">
	.st0{fill-rule:evenodd;clip-rule:evenodd;fill:#FFFFFF;}
</style>
<g id="Tiger" transform="translate(-47 -38)">
	<g id="Logo" transform="translate(-27 108)">
		<path id="Logo_Type_White" class="st0" d="M276.8-48.8l5.8,9.4l-6.6,0l-5.5-8.8h-0.1v8.8h-6v-22.9h8.9c2.1-0.1,4.1,0.5,5.8,1.7
			c1.5,1.3,2.3,3.3,2.2,5.3c0,1.5-0.4,3-1.3,4.3C279.4-49.8,278.2-49,276.8-48.8z M274.8-56.4c-0.2-0.4-0.6-0.7-0.9-0.9
			c-0.4-0.2-0.9-0.3-1.3-0.4c-0.5-0.1-1-0.1-1.5-0.1h-0.6v5.7h0.6c0.5,0,1,0,1.5-0.1c0.5-0.1,0.9-0.2,1.3-0.4
			c0.4-0.2,0.7-0.5,0.9-0.9C275.3-54.4,275.3-55.5,274.8-56.4L274.8-56.4z M247.8-62.3h13.1v5.1h-7.1v3.7h7.1v5.2h-7.1v3.7h7.1v5.2
			h-13.1V-62.3z M161.4-57.2h-7.1v3.7h7.1v5.2h-7.1v3.7h7.1v5.2h-13.1v-22.9h13.1V-57.2z M139.3-39.4l-5.5-8.8h-0.1v8.8h-6v-22.9
			h8.9c2.1-0.1,4.1,0.5,5.8,1.7c1.5,1.3,2.3,3.3,2.2,5.3c0,1.5-0.4,3-1.3,4.3c-0.9,1.2-2.2,2-3.7,2.2l6.3,9.4L139.3-39.4z
			 M138.1-56.4c-0.2-0.4-0.6-0.7-0.9-0.9c-0.4-0.2-0.9-0.3-1.3-0.4c-0.5-0.1-1-0.1-1.5-0.1h-0.6v5.7h0.6c0.5,0,1,0,1.5-0.1
			c0.5-0.1,0.9-0.2,1.3-0.4c0.4-0.2,0.7-0.5,0.9-0.9C138.6-54.4,138.6-55.4,138.1-56.4L138.1-56.4z M177.1-61.4
			c1.3,0.6,2.5,1.4,3.5,2.4c1,1.1,1.8,2.3,2.3,3.7c1.1,2.9,1.1,6.1,0,8.9c-0.5,1.4-1.3,2.6-2.3,3.7c-1,1-2.2,1.9-3.5,2.4
			c-1.3,0.6-2.7,0.9-4.1,0.9h-7.8v-22.9h7.8C174.3-62.3,175.8-62,177.1-61.4L177.1-61.4z M170.6-57.2v12.8h1.2
			c0.8,0,1.6-0.1,2.4-0.4c1.5-0.5,2.7-1.7,3.3-3.2c0.3-0.9,0.5-1.9,0.5-2.8c0.1-1.7-0.5-3.4-1.7-4.7c-1.2-1.2-2.8-1.8-4.4-1.7
			L170.6-57.2z M208.6-57.2h-4.9v17.9h-6v-17.9h-4.9v-5h15.8V-57.2z M218.2-39.4h-6v-23h6V-39.4z M225-59.1c1-1,2.3-1.8,3.7-2.4
			c1.5-0.6,3.1-0.8,4.7-0.8c2-0.1,4,0.5,5.8,1.5c1.7,1.1,3,2.6,3.8,4.5l-5.2,2.2c-0.3-1-1-1.9-1.8-2.5c-0.8-0.6-1.8-0.9-2.8-0.9
			c-0.8,0-1.6,0.2-2.3,0.6c-0.7,0.4-1.3,0.9-1.8,1.6c-0.5,0.7-0.8,1.4-1.1,2.2c-0.5,1.6-0.5,3.3,0,4.9c0.2,0.8,0.6,1.5,1.1,2.2
			c0.5,0.6,1.1,1.2,1.8,1.5c0.7,0.4,1.6,0.6,2.4,0.6c1.1,0,2.2-0.3,3.1-1c0.8-0.7,1.3-1.7,1.4-2.8h-4.5v-4.4h11
			c0,1.6-0.2,3.2-0.5,4.7c-0.3,1.4-0.9,2.6-1.7,3.8c-1,1.4-2.3,2.5-3.8,3.2c-1.6,0.7-3.3,1.1-5,1c-1.6,0-3.1-0.3-4.6-0.8
			c-1.4-0.5-2.6-1.3-3.6-2.3c-1-1-1.8-2.2-2.3-3.6c-0.6-1.5-0.8-3-0.8-4.6c0-1.6,0.3-3.2,0.8-4.7C223.1-56.8,224-58.1,225-59.1
			L225-59.1z"/>
		<path id="Logo_Symbol_Red_on_Black" class="st0" d="M103-57.3c0,0.6,0,1.3-0.9,1.6c-0.6,0.2-1.3-0.6-1.3-1.1
			c0.3-0.4,0.7-0.7,1.1-0.8C102.8-58,103-58,103-57.3z M86.3-55.6c-1-0.3-0.9-1-0.9-1.6c0-0.8,0.2-0.7,1.1-0.3
			c0.5,0.2,0.8,0.5,1.1,0.8C87.5-56.2,86.8-55.4,86.3-55.6L86.3-55.6z M108.3-37.4c0.6-0.3,1.1-0.7,1.6-1.1c2.3-2.4,2.7-5.2,3-8.5
			c0.1-0.8,0.1-1.7,0.1-2.6c0-0.1,0-0.7,0.1-0.7c0.2,0.2,0.3,0.4,0.4,0.7c0.3,0.8,0.5,1.5,0.5,2.3c0.3,1.6,0.3,3.2,0.1,4.8
			c-0.1,0.6-0.3,1.1-0.5,1.6c-1.4,2.4-3,4.6-4.5,6.9c-0.1,0.2-0.2-0.2-0.3-0.2l-0.1-0.1c-0.3-0.2-0.5-0.2-0.6-0.1
			c-0.1,0.1-0.1,0.2-0.1,0.3c-0.4,0.8-1,2-1.4,2.8c-0.1,0.1-0.2,0.2-0.4,0.1c-0.1,0-0.1-0.1-0.1-0.2c0-0.9,0-1.8,0-2.7
			c0-0.6,0-1.2-0.8-1.2c-0.8,0-0.8,0.7-0.8,1.2c0,0.5,0,1,0,1.6c0,0.1-0.1,0.3-0.3,0.3c-0.1,0-0.1,0-0.1,0c-0.6-0.5-1.3-0.9-2.1-1.1
			c-1.2-0.5-2.6-0.3-3.6,0.4l0.2-0.1c0.9-0.8,2.2-1.2,3.4-0.9c0.3,0.1,0.7,0.1,1,0.1c0.1,0,0.3-0.1,0.2-0.3c0,0,0-0.1,0-0.1
			c-0.5-1.2-1.9-5.8,1.1-7.3c0.1,0,0.1-0.1,0.1-0.2c0.1-0.8,1.6-4.4-2.5-6.8c-0.6,0.6-1.4,1.9-2.5,2.8c1.8,0.4,2.8-0.7,3.6-1.4
			c-0.4,2.1-2,2.3-3.3,3c1.1-0.5,2.2,0.2,3.6-0.5c-1,1.8-2.9,0.9-4,1.9c1.1,0.7,2.2,0.3,3.2,0.2c0.3,0,0.6,0,0.9,0
			c-0.2,0.4-0.5,0.7-0.8,1c-0.4,0.3-0.9,0.5-1.3,0.7c-0.5,0.2-1,0.2-1.5,0c-1.5-0.5-2.9-1-4.4-1.6c-0.3-0.1-0.5-0.4-0.6-0.7
			c-0.1-0.5,0-1,0-1.5c-0.1-0.6,0.3-1.2,0.9-1.3c1.4-0.4,2.5-1.2,3.4-2.3c0.3-0.4,0.5-0.9,0.6-1.3c0,0,0,0,0,0
			c0-0.4-0.1-0.9-0.2-1.3c-0.1-0.3-0.1-0.7,0-1l0-0.1c0,0,0,0,0,0h0l0.3-1.3c0.1-0.4,0.3-0.7,0.7-1l0.1-0.1c0,0,0.1-0.1,0.1-0.1
			c0.6-0.3,1.1-0.5,1.7-0.7c2.1-0.8,3.7-2.6,4.4-4.7c0.3-0.7,0.3-1.5,0.2-2.2c-0.2,0.4-0.5,1.2-0.7,1.6c-0.2,0.7-0.9,1.1-1.6,1
			c-1.9,0-3.8,0.3-4.8,2.3c-0.4,1.1-1.3,1.9-2.3,2.5c0-0.6,0.1-1.2,0.3-1.7c-0.9-0.4-0.5-0.9-0.1-1.4c0.6-0.7,1.3-1.4,2-2.1
			c-0.6-0.1-1.1-0.4-1.5-0.9h3.7c0,0,0-0.1,0-0.1c-1.1-0.2-2.2-0.6-3.3-1.2c1.7-1.1,5.4-0.5,6-0.7c0-0.1-0.5-0.3-1-0.4
			c-1.2-0.3-1.7-0.4-2.8-0.7c-1.2-0.3-2.3-0.8-3.4-1.4h4.9c-1.7-1-3.5-1.6-5.4-1.8c-1.1-0.1-1.9-0.1-2.5-0.1l0-0.3v0.3
			c-0.7,0-1.4,0-2.5,0.1c-1.9,0.2-3.8,0.8-5.4,1.8h4.9c-1.1,0.6-2.2,1.1-3.4,1.4c-1.2,0.3-1.6,0.4-2.8,0.7c-0.5,0.2-1,0.3-1,0.4
			c0.6,0.2,4.2-0.3,6,0.7c-1,0.6-2.1,1-3.3,1.2c0,0,0,0.1,0,0.1h3.7c-0.4,0.4-1,0.7-1.5,0.9c0.7,0.7,1.3,1.4,2,2.1
			c0.5,0.5,0.8,1-0.1,1.4c0.2,0.5,0.3,1.1,0.3,1.7c-1-0.5-1.8-1.4-2.3-2.5c-1-2-2.9-2.3-4.8-2.3c-0.7,0.1-1.3-0.3-1.6-1
			c-0.2-0.4-0.5-1.2-0.7-1.6c-0.1,0.7-0.1,1.5,0.2,2.2c0.7,2.2,2.3,3.9,4.4,4.7c0.6,0.2,1.2,0.4,1.7,0.7c0,0,0.1,0,0.1,0.1
			c0,0,0.1,0,0.1,0.1c0.3,0.2,0.6,0.6,0.7,1l0.3,1.3h0c0,0,0,0,0,0l0,0.1c0.1,0.3,0.1,0.7,0,1c-0.2,0.4-0.2,0.9-0.2,1.3c0,0,0,0,0,0
			c0.1,0.5,0.3,0.9,0.6,1.3c0.8,1.1,2,2,3.4,2.3c0.6,0.1,1,0.7,0.9,1.3c0,0.5,0.1,1,0,1.5c-0.1,0.3-0.3,0.5-0.6,0.7
			c-1.4,0.6-2.9,1.1-4.4,1.6c-0.5,0.1-1,0.1-1.5,0c-0.5-0.1-0.9-0.4-1.3-0.7c-0.3-0.3-0.6-0.6-0.8-1c0.3-0.1,0.6-0.1,0.9,0
			c1,0.1,2.1,0.5,3.2-0.2c-1.2-1-3.1-0.1-4-1.9c1.3,0.7,2.5,0,3.6,0.5c-1.3-0.8-2.9-0.9-3.3-3c0.9,0.7,1.8,1.8,3.6,1.4
			c-1-0.9-1.8-2.2-2.5-2.8c-4.1,2.4-2.6,6-2.5,6.8c0,0.1,0.1,0.2,0.1,0.2c3,1.5,1.5,6.1,1.1,7.3c0,0.1,0,0.2,0,0.2
			c0,0.1,0.1,0.1,0.2,0.1c0.3,0,0.7,0,1-0.1c1.2-0.3,2.5,0.1,3.4,0.9L90-33c-1.1-0.7-2.4-0.9-3.6-0.4c-0.7,0.3-1.4,0.7-2.1,1.1
			c-0.1,0.1-0.3,0-0.4-0.1c0,0,0-0.1,0-0.1c0-0.6,0-1.1,0-1.6c0-0.6,0-1.2-0.8-1.2c-0.8,0-0.8,0.7-0.8,1.2c0,0.9,0,1.8,0,2.7
			c0,0.1-0.1,0.3-0.3,0.3c-0.1,0-0.2,0-0.2-0.1c-0.4-0.8-1.1-2-1.4-2.8c0-0.1-0.1-0.2-0.1-0.3c-0.2-0.1-0.3-0.1-0.6,0.1l-0.1,0.1
			c-0.1,0.1-0.2,0.4-0.3,0.2c-1.5-2.3-3.1-4.5-4.5-6.9c-0.3-0.5-0.5-1-0.5-1.6c-0.2-1.6-0.1-3.2,0.1-4.8c0.1-0.8,0.2-1.6,0.5-2.3
			c0.1-0.2,0.2-0.5,0.4-0.7c0.1,0,0.1,0.6,0.1,0.7c0,0.9,0,1.7,0.1,2.6c0.3,3.2,0.7,6,3,8.5c0.5,0.5,1,0.9,1.6,1.1
			c0.1,0.1,0.3,0,0.3-0.1c0-0.1,0-0.1,0-0.2c-0.7-1.4-1.4-2.8-2-4.3c-0.6-1.5-1-3.1-1.4-4.6c0-0.1,0-0.3,0.2-0.3c0.1,0,0.1,0,0.2,0
			c0.3,0.1,0.8,0.3,1.1,0.4c0.1,0.1,0.3,0,0.3-0.2c0-0.1,0-0.1,0-0.2c-0.4-1.5-1.8-5.8-1.8-5.8c0.1,0.1,0.9,1.3,1,1.4
			c0.7,1.1,1.2,2.2,1.7,3.3c0.2,0.6,0.4,1,0.5,1.3c0,0.1,0.1,0.2,0,0.3c-1.2,1-0.2,2.9,0.3,3.5c0.7,0.8,1.2,1.8,1.4,2.8
			c0.1,0.2,0.2,0.5,0.3,0.8c0,0.1,0.2,0.2,0.3,0.2c0.1,0,0.2-0.1,0.2-0.2c-0.1-1.3-0.3-3.1-0.8-3.6c-0.7-0.6-0.5-2.8,0.2-3.2
			c0.7-0.4,0.9-0.8,0.5-1.4c-0.1-0.1,0-0.3,0.1-0.4c0,0,0,0,0,0l3.3-1.9c0.1-0.1,0.2-0.2,0.1-0.4c0-0.1-0.1-0.1-0.2-0.1
			c-1.1-0.1-2.3,0.2-3.1,0.9c-0.7,0.4-1.6,0.2-2-0.5c-0.1-0.1-0.1-0.2-0.1-0.3c-0.1-0.2-0.1-0.3-0.2-0.5c0-0.1,0.1-0.3,0.2-0.3
			c1.6-0.4,1.8-0.5,1.9-1c0-0.1-0.1-0.3-0.2-0.3c0,0,0,0,0,0c-0.6,0.1-1.1,0-1.6-0.2c-0.3-0.3-0.5-0.7-0.6-1.2c0-0.1,0-0.3,0.2-0.3
			c0.1,0,0.1,0,0.2,0c0.6,0.2,0.7,0.2,1,0c0.1-0.1,0.1-0.3,0-0.4c0,0,0,0,0,0c-0.1-0.1-0.1-0.2-0.2-0.2c-1.2-0.9-3-6-2.9-7.5
			c-0.5,0.4-0.8,0.9-1,1.5c-1.2-0.5-2.2-0.7-2-2.4l1.4,0.7c0,0,0.1-0.5-0.7-1.1c-1.6-1.3-1.8-3.1-1.9-5c-0.1-0.9,0.6-1.7,1.5-1.8
			c0.4,0,0.7,0.1,1,0.2c3.1,1.4,7.3,2.9,10.8,2.4l0.1,0l0,0l0,0c2.2-0.4,4.4-0.7,6.6-0.7h0c2.2,0,4.4,0.3,6.6,0.7l0,0l0,0l0.1,0
			c3.5,0.4,7.7-1,10.8-2.4c0.8-0.5,1.8-0.2,2.3,0.6c0.2,0.3,0.3,0.7,0.2,1c0,1.9-0.3,3.7-1.9,5c-0.7,0.6-0.7,1.1-0.7,1.1l1.4-0.7
			c0.2,1.7-0.8,1.9-2,2.4c-0.2-0.6-0.5-1.1-1-1.5c0.1,1.5-1.7,6.5-2.9,7.5c-0.1,0.1-0.2,0.2-0.2,0.2c0,0.1-0.1,0.1-0.1,0.2
			c0,0.1,0,0.1,0.1,0.2c0.3,0.2,0.5,0.2,1,0c0.1-0.1,0.3,0,0.3,0.1c0,0.1,0,0.1,0,0.2c-0.1,0.4-0.3,0.8-0.6,1.2
			c-0.5,0.2-1.1,0.3-1.6,0.2c-0.1,0-0.3,0.1-0.3,0.3c0,0,0,0,0,0c0.1,0.5,0.3,0.6,1.9,1c0.1,0,0.3,0.2,0.2,0.3
			c0,0.2-0.1,0.3-0.2,0.5c-0.2,0.8-1,1.2-1.8,0.9c-0.1,0-0.2-0.1-0.3-0.1c-0.9-0.7-2-1-3.1-0.9c-0.1,0-0.2,0.2-0.2,0.3
			c0,0.1,0.1,0.1,0.1,0.2l3.3,1.9c0.1,0.1,0.2,0.2,0.1,0.4c0,0,0,0,0,0c-0.4,0.6-0.2,1,0.5,1.4c0.8,0.4,0.9,2.6,0.2,3.2
			c-0.4,0.4-0.7,2.2-0.8,3.6c0,0.1,0.1,0.3,0.3,0.3c0.1,0,0.2-0.1,0.2-0.2c0.1-0.3,0.2-0.6,0.3-0.8c0.3-1,0.8-2,1.4-2.8
			c0.5-0.6,1.4-2.5,0.3-3.5c-0.1-0.1-0.1-0.2,0-0.3c0.1-0.2,0.3-0.7,0.5-1.3c0.5-1.2,1.1-2.3,1.7-3.3c0.1-0.1,0.9-1.3,1-1.4
			c0,0-1.4,4.4-1.8,5.8c0,0.1,0,0.3,0.2,0.3c0.1,0,0.1,0,0.2,0c0.3-0.1,0.8-0.3,1.1-0.4c0.1,0,0.3,0,0.3,0.2c0,0.1,0,0.1,0,0.2
			c-0.4,1.5-0.8,3.1-1.4,4.6c-0.6,1.5-1.3,2.9-2,4.3c-0.1,0.1,0,0.3,0.1,0.3C108.2-37.4,108.3-37.4,108.3-37.4L108.3-37.4z
			 M86.9-48.9l-0.1,0.1C86.9-48.8,86.9-48.9,86.9-48.9L86.9-48.9z M81.1-67.9c0.3,0.1,0.5,0.1,0.8,0.2
			C81.6-67.8,81.3-67.9,81.1-67.9L81.1-67.9z M80.7-67.6c-3.6-0.3-2.9,2.4-2.2,4l0.6,1c0,0,0.1,0.1,0.1,0.1c0,0,0,0,0,0l0,0
			c0.9,2.1,1.6,6.6,6,8.4c-0.2-0.1-0.3-0.2-0.5-0.3c-1.2-1.1-2.3-2.4-3-3.8c-1.9-3.9-1.4-6.3-1.7-7.3c0.4,0.1,1.7,0.4,2,0.5
			c0-0.1-2.3-1.1-3-1.4c0.3-0.2,0.6-0.3,1-0.4c1.5-0.2,2.1,0.3,3.1,0.5c0.7,0.1,1.3,0,2-0.2L80.7-67.6z M101.3-48.9
			c0,0,0.1,0,0.1,0.1L101.3-48.9z M106.4-67.8c0.3-0.1,0.5-0.1,0.8-0.2C107-67.9,106.7-67.8,106.4-67.8L106.4-67.8z M109.1-62.5
			L109.1-62.5C109.1-62.5,109.1-62.5,109.1-62.5c0-0.1,0.1-0.1,0.1-0.2l0.6-1c0.7-1.6,1.4-4.2-2.2-4l-4.3,1c0.6,0.2,1.3,0.2,2,0.2
			c1-0.1,1.6-0.6,3.1-0.5c0.3,0,0.7,0.2,1,0.4c-0.7,0.4-3,1.4-3,1.4c0.3-0.1,1.6-0.4,2-0.5c-0.2,1,0.3,3.4-1.7,7.3
			c-0.7,1.5-1.8,2.8-3,3.8c-0.2,0.1-0.3,0.2-0.5,0.3C107.5-55.8,108.2-60.4,109.1-62.5L109.1-62.5z M94.1-48.7c-0.5,0-1.1,0-1.8,0
			c-0.7,0-1.3-0.1-1.9-0.4c-0.3-0.2-0.5-0.6-0.4-1.1c0-0.5,0.7-0.9,0.7-0.9c0,1.3,1.1,1.6,3.4,1.6h0c2.3,0,3.4-0.4,3.4-1.6
			c0,0,0.7,0.4,0.7,0.9c0.1,0.4-0.1,0.8-0.4,1.1c-0.6,0.3-1.3,0.4-1.9,0.4C95.2-48.7,94.7-48.7,94.1-48.7L94.1-48.7L94.1-48.7z
			 M94.1-35c0.1,1.7-2.8,1.8-5.3,0.4c-0.1-0.5,0.1-1.4-0.2-1.6c-0.4-0.3-1.1,0.1-1.5,0.4s-0.7,0.8-1.1,1.1c0.2-2.6,2.8-5,6.8-5.2
			c0.4,0,0.9-0.1,1.3-0.1s0.9,0,1.3,0.1c4,0.2,6.6,2.6,6.8,5.2c-0.4-0.3-0.7-0.8-1.1-1.1s-1.1-0.7-1.5-0.4c-0.3,0.2,0,1.1-0.2,1.6
			C97-33.2,94.1-33.3,94.1-35z"/>
	</g>
</g>
</svg>
