<?xml version="1.0" standalone="no"?>
<!DOCTYPE svg PUBLIC "-//W3C//DTD SVG 1.1//EN" "http://www.w3.org/Graphics/SVG/1.1/DTD/svg11.dtd" >
<svg xmlns="http://www.w3.org/2000/svg">
<metadata>Generated by IcoMoon</metadata>
<defs>
<font id="icomoon" horiz-adv-x="1024">
<font-face units-per-em="1024" ascent="960" descent="-64" />
<missing-glyph horiz-adv-x="1024" />
<glyph unicode="&#x20;" horiz-adv-x="512" d="" />
<glyph unicode="&#xe600;" glyph-name="live-chat" horiz-adv-x="1152" d="M480 832c-50.666 0-99.582-7.95-145.386-23.628-42.924-14.694-81.114-35.436-113.502-61.646-60.044-48.59-93.112-110.802-93.112-175.174 0-35.99 10.066-70.948 29.92-103.898 20.686-34.34 51.898-65.794 90.26-90.958 30.44-19.968 50.936-51.952 56.362-87.95 0.902-5.99 1.63-12.006 2.18-18.032 2.722 2.52 5.424 5.114 8.114 7.794 24.138 24.040 56.688 37.312 90.322 37.312 5.348 0 10.718-0.336 16.094-1.018 19.36-2.452 39.124-3.696 58.748-3.696 50.666 0 99.58 7.948 145.384 23.628 42.926 14.692 81.116 35.434 113.504 61.644 60.046 48.59 93.112 110.802 93.112 175.174s-33.066 126.582-93.112 175.174c-32.388 26.212-70.578 46.952-113.504 61.646-45.804 15.678-94.718 23.628-145.384 23.628zM480 960v0c265.096 0 480-173.914 480-388.448s-214.904-388.448-480-388.448c-25.458 0-50.446 1.62-74.834 4.71-103.106-102.694-222.172-121.108-341.166-123.814v25.134c64.252 31.354 116 88.466 116 153.734 0 9.106-0.712 18.048-2.030 26.794-108.558 71.214-177.97 179.988-177.97 301.89 0 214.534 214.904 388.448 480 388.448zM996 89.314c0-55.942 36.314-104.898 92-131.772v-21.542c-103.126 2.318-197.786 18.102-287.142 106.126-21.14-2.65-42.794-4.040-64.858-4.040-95.47 0-183.408 25.758-253.614 69.040 144.674 0.506 281.26 46.854 384.834 130.672 52.208 42.252 93.394 91.826 122.414 147.348 30.766 58.866 46.366 121.582 46.366 186.406 0 10.448-0.45 20.836-1.258 31.168 72.57-59.934 117.258-141.622 117.258-231.676 0-104.488-60.158-197.722-154.24-258.764-1.142-7.496-1.76-15.16-1.76-22.966z" />
<glyph unicode="&#xe601;" glyph-name="search" d="M992.262 88.604l-242.552 206.294c-25.074 22.566-51.89 32.926-73.552 31.926 57.256 67.068 91.842 154.078 91.842 249.176 0 212.078-171.922 384-384 384-212.076 0-384-171.922-384-384s171.922-384 384-384c95.098 0 182.108 34.586 249.176 91.844-1-21.662 9.36-48.478 31.926-73.552l206.294-242.552c35.322-39.246 93.022-42.554 128.22-7.356s31.892 92.898-7.354 128.22zM384 320c-141.384 0-256 114.616-256 256s114.616 256 256 256 256-114.616 256-256-114.614-256-256-256z" />
<glyph unicode="&#xe602;" glyph-name="stars" horiz-adv-x="1043" d="M996.762 543.306c0 0-63.953-57.996-63.953-57.996s17.482-84.266 17.482-84.266c2.048-10.017-1.955-20.331-10.277-26.345-8.322-5.995-19.4-6.609-28.355-1.564 0 0-75.255 42.561-75.255 42.561s-75.217-42.561-75.217-42.561c-8.937-5.083-20.052-4.431-28.355 1.564-8.341 6.032-12.362 16.31-10.277 26.345 0 0 17.464 84.266 17.464 84.266s-63.953 57.996-63.953 57.996c-7.596 6.889-10.445 17.557-7.261 27.276 3.184 9.7 11.804 16.701 22.025 17.836 0 0 86.016 9.514 86.016 9.514s35.71 78.383 35.71 78.383c4.245 9.328 13.573 15.323 23.869 15.323s19.642-5.995 23.869-15.323c0 0 35.728-78.383 35.728-78.383s86.016-9.514 86.016-9.514c10.221-1.136 18.842-8.136 22.025-17.836 3.165-9.719 0.335-20.387-7.298-27.276zM709.409 196.673c3.668-11.264 0.391-23.626-8.415-31.614 0 0-74.063-67.156-74.063-67.156s20.219-97.615 20.219-97.615c2.439-11.581-2.234-23.515-11.878-30.497-9.626-6.945-22.491-7.652-32.842-1.806 0 0-87.133 49.264-87.133 49.264s-87.114-49.264-87.114-49.264c-10.37-5.846-23.217-5.139-32.861 1.806-9.644 6.982-14.28 18.916-11.878 30.497 0 0 20.219 97.615 20.219 97.615s-74.063 67.156-74.063 67.156c-8.825 7.987-12.102 20.331-8.415 31.614 3.705 11.264 13.666 19.326 25.507 20.629 0 0 99.626 11.041 99.626 11.041s41.314 90.782 41.314 90.782c4.934 10.78 15.732 17.706 27.667 17.706 11.916 0 22.714-6.926 27.648-17.706 0 0 41.351-90.782 41.351-90.782s99.607-11.041 99.607-11.041c11.841-1.266 21.839-9.384 25.507-20.629zM452.124 609.252c0 0 27.313-131.835 27.313-131.835 3.24-15.695-3.053-31.8-16.067-41.221-13.033-9.384-30.385-10.352-44.349-2.42 0 0-117.704 66.541-117.704 66.541s-117.704-66.541-117.704-66.541c-14.001-7.894-31.334-6.963-44.367 2.458-13.033 9.402-19.307 25.507-16.067 41.183 0 0 27.331 131.835 27.331 131.835s-100.073 90.708-100.073 90.708c-11.897 10.78-16.347 27.499-11.357 42.71 4.952 15.23 18.413 26.14 34.425 27.909 0 0 134.572 14.895 134.572 14.895s55.855 122.601 55.855 122.601c6.647 14.578 21.281 23.943 37.367 23.943s30.701-9.365 37.329-23.943c0 0 55.855-122.601 55.855-122.601s134.591-14.895 134.591-14.895c16.012-1.769 29.491-12.679 34.462-27.909 4.99-15.211 0.54-31.93-11.357-42.71 0 0-100.054-90.708-100.054-90.708z" />
<glyph unicode="&#xe603;" glyph-name="cubes" horiz-adv-x="1273" d="M1226.255 251.685c0 0-278.952-276.012-278.952-276.012-28.014-27.648-73.421-27.648-101.42 0 0 0-279.011 276.012-279.011 276.012-28.014 27.75-27.999 72.645 0 100.411 0 0 279.011 275.924 279.011 275.924 28.043 27.736 73.406 27.736 101.42 0 0 0 278.952-275.924 278.952-275.924 27.999-27.765 27.999-72.66 0-100.411zM833.17 88.62c20.977-20.743 55.091-20.743 76.098 0.059 20.992 20.729 20.992 54.448 0 75.249-21.021 20.743-55.077 20.743-76.069 0-21.007-20.802-21.021-54.55-0.029-75.308zM681.004 314.441c-21.007-20.816-21.007-54.535-0.029-75.264 21.036-20.816 55.15-20.816 76.156 0 21.007 20.743 21.007 54.462-0.029 75.264-21.007 20.773-55.12 20.773-76.098 0zM782.453 414.793c-20.977-20.802-20.977-54.477 0-75.293 21.021-20.758 55.091-20.758 76.112 0 20.992 20.846 20.992 54.506 0 75.293-21.036 20.787-55.106 20.787-76.112 0zM960 515.131c-21.021 20.787-55.091 20.787-76.069 0-21.036-20.758-21.036-54.477 0-75.279 21.007-20.787 55.077-20.787 76.069 0 21.007 20.831 21.007 54.491 0 75.279zM934.634 264.236c-21.021-20.787-21.021-54.491 0-75.235 21.007-20.802 55.062-20.802 76.069 0 21.007 20.787 21.021 54.462 0 75.235-21.021 20.816-55.062 20.831-76.069 0zM1112.137 364.603c-21.051 20.816-55.077 20.816-76.083 0-21.021-20.802-21.021-54.448 0-75.279 21.021-20.787 55.047-20.787 76.083 0 21.021 20.846 21.021 54.491 0 75.279zM502.126 397.414c0 0-402.11 0-402.11 0-39.6 0-71.709 31.788-71.709 70.963 0 0 0 397.795 0 397.795 0 39.205 32.11 70.978 71.709 70.978 0 0 402.125 0 402.125 0 39.614 0 71.739-31.773 71.739-70.978 0 0 0-397.809 0-397.809 0-39.175-32.124-70.949-71.753-70.949zM189.206 861.711c-29.667 0-53.789-23.859-53.789-53.219 0-29.374 24.123-53.219 53.789-53.219 29.725 0 53.789 23.845 53.789 53.219 0 29.36-24.079 53.219-53.789 53.219zM189.206 719.784c-29.667 0-53.789-23.845-53.789-53.219 0-29.36 24.123-53.233 53.789-53.233 29.725 0 53.789 23.845 53.789 53.233 0 29.374-24.079 53.219-53.789 53.219zM189.206 577.872c-29.667 0-53.789-23.903-53.789-53.219 0-29.389 24.123-53.233 53.789-53.233 29.725 0 53.789 23.845 53.789 53.233 0 29.345-24.079 53.219-53.789 53.219zM404.392 861.711c-29.667 0-53.804-23.859-53.804-53.219 0-29.374 24.137-53.219 53.804-53.219 29.725 0 53.789 23.845 53.789 53.219 0 29.36-24.079 53.219-53.789 53.219zM404.392 719.784c-29.667 0-53.804-23.845-53.804-53.219 0-29.36 24.137-53.233 53.804-53.233 29.725 0 53.789 23.845 53.789 53.233 0 29.374-24.079 53.219-53.789 53.219zM404.392 577.872c-29.667 0-53.804-23.903-53.804-53.219 0-29.389 24.137-53.233 53.804-53.233 29.725 0 53.789 23.845 53.789 53.233 0 29.345-24.079 53.219-53.789 53.219z" />
<glyph unicode="&#xe604;" glyph-name="moneybag-dollar" horiz-adv-x="743" d="M448.035 768.428c0 0 49.278 169.788 49.278 169.788s-263.364-1.445-263.364-1.445c0 0 37.734-165.159 37.734-165.159-27.269 30.916-94.32 96.621-155.283 73.854 0 0 6.621-18.474 6.621-18.474 51.859 19.456 115.291-46.655 137.567-72.536 0 0 12.19 13.045 12.19 13.045s175.258 0.926 175.258 0.926zM471.966 744.174c0 0 0-1.375 0-1.375s-218.042-1.164-218.042-1.164c0 0 6.705 12.863 6.705 12.863-37.173-13.873-85.357-23.931-113.874 1.894 0 0-12.905-14.883-12.905-14.883 16.917-15.374 38.421-20.662 61.019-20.578 13.242 0 26.876 2.174 40.020 5.12-123.862-86.086-210.355-277.266-209.527-422.112 0.926-192.231 155.802-347.164 345.439-346.126 189.917 0.926 342.942 157.598 342.030 349.871-0.926 154.989-102.077 362.552-240.864 436.491zM467.772 191.902c-18.222-16.356-40.988-26.68-67.851-31.281 0 0 0.351-55.338 0.351-55.338s-58.775-0.351-58.775-0.351c0 0-0.337 55.282-0.337 55.282-26.526 4.559-50.372 15.781-71.105 33.217-24.885 21.518-37.664 46.487-38.309 74.191 0 0 1.108 15.164 1.108 15.164s57.077 0.281 57.077 0.281c0 0 0.238-5.807 0.238-5.807 0.407-22.921 7.266-40.076 20.985-52.266 13.719-12.148 33.315-18.292 58.55-18.292 25.179 0.323 44.916 6.621 58.831 18.895 13.719 12.47 20.34 29.345 20.256 51.382-0.070 18.081-6.453 32.235-19.652 42.896-13.719 10.899-37.481 20.382-70.838 28.335-36.892 8.669-65.312 22.079-83.968 39.712-18.993 18.081-28.868 41.423-29.023 68.973-0.182 31.52 11.881 57.793 35.966 77.978 16.398 13.761 35.84 22.795 57.807 26.961 0 0-0.238 48.184-0.238 48.184s58.719 0.323 58.719 0.323c0 0 0.238-46.613 0.238-46.613 26.231-3.591 48.24-12.877 65.55-27.367 23.075-19.442 35.798-46.613 37.636-80.601 0 0 0.323-5.892 0.323-5.892s-57.582-0.323-57.582-0.323c0 0-0.631 4.853-0.631 4.853-2.791 21.237-9.805 37.088-21.181 47.188-11.124 9.875-27.578 15.079-48.942 14.883-22.163-0.042-40.006-5.527-52.14-15.907-12.134-10.254-17.885-24.127-17.815-42.741 0-16.061 5.597-28.616 16.749-38.098 11.306-9.651 31.562-18.039 60.149-24.786 41.844-9.805 73.546-24.366 94.559-43.415 21.013-19.372 31.898-43.948 31.968-73.181 0.238-34.9-12.709-63.965-38.674-86.437z" />
<glyph unicode="&#xe605;" glyph-name="jeton" horiz-adv-x="1041" d="M516.717 930.841c-267.449 0-484.251-216.366-484.251-483.261 0-266.878 216.803-483.227 484.251-483.227s484.268 216.349 484.268 483.227c0 266.895-216.819 483.261-484.268 483.261zM598.52 857.768c1.477-0.252 75.507-14.168 153.65-64.361 0 0-41.329-56.689-41.329-56.689-41.648 30.233-83.666 47.222-123.87 55.346 0 0 11.549 65.704 11.549 65.704zM450.896 863.19c0 0 9.602-63.74 9.602-63.74-58.553-8.796-105.036-30.468-141.866-57.864 0 0-38.476 53.936-38.476 53.936 1.293 0.923 70.857 49.102 170.739 67.668zM165.619 225.943c-0.823 1.175-40.507 58.318-61.826 143.209 0 0 68.809 10.307 68.809 10.307 7.067-46.802 22.478-85.815 42.42-118.431 0 0-49.404-35.085-49.404-35.085zM168.994 531.397c0 0-54.776 9.602-54.776 9.602 0.269 1.427 13.732 73.107 62.179 149.739 0 0 48.195-35.001 48.195-35.001-30.485-41.816-47.524-84.002-55.598-124.34zM431.574 33.918c-1.444 0.235-73.594 13.732-150.629 62.397 0 0 41.816 57.344 41.816 57.344 40.44-29.36 81.181-46.164 120.345-54.574 0 0-11.533-65.167-11.533-65.167zM604.261 44.678c0 0-8.863 58.922-8.863 58.922 68.793 17.643 114.99 49.622 115.947 50.294 0 0 40.070-56.253 40.070-56.253-40.322-24.912-88.769-44.183-147.154-52.963zM719.603 242.193c-113.664-111.834-296.658-110.508-408.71 2.921-112.052 113.463-110.743 296.054 2.954 407.871 113.664 111.834 296.658 110.491 408.71-2.971 112.036-113.395 110.71-296.003-2.954-407.821zM860.378 692.937c32.483-44.401 58.049-100.151 68.574-170.018 0 0-64.008-9.602-64.008-9.602-14.957 83.431-55.548 141.832-56.303 142.89 0 0 51.737 36.73 51.737 36.73zM816.883 262.639c40.339 63.454 51.569 123.081 51.754 124.257 0 0 66.442-11.65 66.442-11.65-10.089-48.531-30.854-99.16-67.483-149.437 0 0-50.713 36.83-50.713 36.83zM431.373 412.815c0-46.852-38.039-82.189-88.484-82.189-25.634 0-46.416 7.487-57.344 14.504 0 0-9.434 6.060-9.434 6.060s15.847 48.262 15.847 48.262c0 0 15.595-9.233 15.595-9.233 5.607-3.324 19.305-8.931 35.051-8.931 15.662 0 32.533 8.897 32.533 28.504-0.084 7.134-0.369 29.411-42.605 29.411-9.686 0-17.425-0.99-24.291-1.83 0 0-18.734-2.384-18.734-2.384s1.108 18.516 1.108 18.516c0 0 14.537 107.705 14.537 107.705s122.276 0 122.276 0c0 0 0-51.553 0-51.553s-77.807 0-77.807 0c0 0-3.122-20.715-3.122-20.715 18.633-0.151 35.706-4.549 49.421-12.758 22.41-12.708 35.454-35.874 35.454-63.37zM674.346 564.568c-40.574 0-69.632-29.495-79.687-77.858-8.796 49.37-36.26 77.858-77.153 77.858-50.797 0-83.615-46.147-83.615-117.71 0.823-85.68 41.984-116.232 80.258-116.232 21.521 0 67.383 8.729 80.124 78.663 10.744-57.126 44.703-78.663 76.699-78.663 25.113 0 83.582 11.617 83.582 119.086 0.017 71.898-29.981 114.856-80.208 114.856zM515.66 380.366c-15.427 0-25.801 26.658-25.801 66.308 0 46.835 13.53 68.138 26.104 68.138 23.3 0 25.801-46.365 25.801-66.325 0-15.964-1.897-68.121-26.104-68.121zM672.499 380.366c-15.444 0-25.818 26.658-25.818 66.308 0 46.835 13.547 68.138 26.104 68.138 23.3 0 25.818-46.365 25.818-66.325 0-15.964-1.88-68.121-26.104-68.121z" />
<glyph unicode="&#xe606;" glyph-name="star-full" d="M1024 562.95l-353.78 51.408-158.22 320.582-158.216-320.582-353.784-51.408 256-249.538-60.432-352.352 316.432 166.358 316.432-166.358-60.434 352.352 256.002 249.538z" />
<glyph unicode="&#xe607;" glyph-name="arrow-right" d="M621.254 82.746l320 320c24.994 24.992 24.994 65.516 0 90.51l-320 320c-24.994 24.992-65.516 24.992-90.51 0-24.994-24.994-24.994-65.516 0-90.51l210.746-210.746h-613.49c-35.346 0-64-28.654-64-64s28.654-64 64-64h613.49l-210.746-210.746c-12.496-12.496-18.744-28.876-18.744-45.254s6.248-32.758 18.744-45.254c24.994-24.994 65.516-24.994 90.51 0z" />
<glyph unicode="&#xe608;" glyph-name="info" d="M636.518 972.8c68.608 0 102.912-46.694 102.912-100.198 0-66.816-59.597-128.614-137.165-128.614-64.973 0-102.861 38.4-101.069 101.888 0 53.402 45.107 126.925 135.322 126.925zM425.421-51.2c-54.17 0-93.85 33.382-55.962 180.429l62.157 260.71c10.803 41.677 12.595 58.419 0 58.419-16.23 0-86.477-28.774-128.102-57.19l-27.034 45.056c131.686 111.923 283.187 177.51 348.211 177.51 54.118 0 63.13-65.178 36.096-165.376l-71.219-274.022c-12.595-48.384-7.219-65.075 5.427-65.075 16.23 0 69.478 20.070 121.805 61.798l30.72-41.677c-128.102-130.406-268.032-180.582-322.099-180.582z" />
<glyph unicode="&#xe609;" glyph-name="bell" d="M1025.5 160c0 288-256 224-256 448 0 18.56-1.788 34.42-5.048 47.928-16.83 113.018-92.156 203.72-189.772 231.36 0.866 3.948 1.32 8.032 1.32 12.21 0 33.278-28.8 60.502-64 60.502s-64-27.224-64-60.5c0-4.18 0.456-8.264 1.32-12.21-109.47-30.998-190.914-141.298-193.254-273.442-0.040-1.92-0.066-3.864-0.066-5.846 0-224.002-256-160.002-256-448.002 0-76.226 170.59-139.996 398.97-156.080 21.524-40.404 64.056-67.92 113.030-67.92s91.508 27.516 113.030 67.92c228.38 16.084 398.97 79.854 398.97 156.080 0 0.228-0.026 0.456-0.028 0.682l1.528-0.682zM826.246 105.904c-54.23-14.47-118.158-24.876-186.768-30.648-5.704 65.418-60.582 116.744-127.478 116.744s-121.774-51.326-127.478-116.744c-68.608 5.772-132.538 16.178-186.768 30.648-74.63 19.914-110.31 42.19-123.368 54.096 13.058 11.906 48.738 34.182 123.368 54.096 86.772 23.152 198.372 35.904 314.246 35.904s227.474-12.752 314.246-35.904c74.63-19.914 110.31-42.19 123.368-54.096-13.058-11.906-48.738-34.182-123.368-54.096z" />
<glyph unicode="&#xe60a;" glyph-name="eye" d="M512 768c-223.318 0-416.882-130.042-512-320 95.118-189.958 288.682-320 512-320 223.312 0 416.876 130.042 512 320-95.116 189.958-288.688 320-512 320zM764.45 598.296c60.162-38.374 111.142-89.774 149.434-150.296-38.292-60.522-89.274-111.922-149.436-150.296-75.594-48.218-162.89-73.704-252.448-73.704-89.56 0-176.858 25.486-252.452 73.704-60.158 38.372-111.138 89.772-149.432 150.296 38.292 60.524 89.274 111.924 149.434 150.296 3.918 2.5 7.876 4.922 11.86 7.3-9.96-27.328-15.41-56.822-15.41-87.596 0-141.382 114.616-256 256-256 141.382 0 256 114.618 256 256 0 30.774-5.452 60.268-15.408 87.598 3.978-2.378 7.938-4.802 11.858-7.302v0zM512 544c0-53.020-42.98-96-96-96s-96 42.98-96 96 42.98 96 96 96 96-42.982 96-96z" />
<glyph unicode="&#xe60b;" glyph-name="heart" d="M755.188 896c-107.63 0-200.258-87.554-243.164-179-42.938 91.444-135.578 179-243.216 179-148.382 0-268.808-120.44-268.808-268.832 0-301.846 304.5-380.994 512.022-679.418 196.154 296.576 511.978 387.206 511.978 679.418 0 148.392-120.43 268.832-268.812 268.832z" />
<glyph unicode="&#xe60c;" glyph-name="man" d="M576 864c0-53.019-42.981-96-96-96s-96 42.981-96 96c0 53.019 42.981 96 96 96s96-42.981 96-96zM576 704h-192c-35.346 0-64-28.654-64-64v-320h64v-384h80v384h32v-384h80v384h64v320c0 35.346-28.652 64-64 64z" />
<glyph unicode="&#xe60d;" glyph-name="mobile" d="M736 960h-448c-52.8 0-96-43.2-96-96v-832c0-52.8 43.2-96 96-96h448c52.8 0 96 43.2 96 96v832c0 52.8-43.2 96-96 96zM384 912h256v-32h-256v32zM512 0c-35.346 0-64 28.654-64 64s28.654 64 64 64 64-28.654 64-64-28.654-64-64-64zM768 192h-512v640h512v-640z" />
<glyph unicode="&#xe60e;" glyph-name="topgame" d="M321.008-64c-68.246 142.008-31.902 223.378 20.55 300.044 57.44 83.956 72.244 167.066 72.244 167.066s45.154-58.7 27.092-150.508c79.772 88.8 94.824 230.28 82.782 284.464 180.314-126.012 257.376-398.856 153.522-601.066 552.372 312.532 137.398 780.172 65.154 832.85 24.082-52.676 28.648-141.85-20-185.126-82.352 312.276-285.972 376.276-285.972 376.276 24.082-161.044-87.296-337.144-194.696-468.73-3.774 64.216-7.782 108.528-41.55 169.98-7.58-116.656-96.732-211.748-120.874-328.628-32.702-158.286 24.496-274.18 241.748-396.622z" />
<glyph unicode="&#xe60f;" glyph-name="menu" d="M64 768h896v-192h-896zM64 512h896v-192h-896zM64 256h896v-192h-896z" />
<glyph unicode="&#xe610;" glyph-name="close" d="M1014.662 137.34c-0.004 0.004-0.008 0.008-0.012 0.010l-310.644 310.65 310.644 310.65c0.004 0.004 0.008 0.006 0.012 0.010 3.344 3.346 5.762 7.254 7.312 11.416 4.246 11.376 1.824 24.682-7.324 33.83l-146.746 146.746c-9.148 9.146-22.45 11.566-33.828 7.32-4.16-1.55-8.070-3.968-11.418-7.31 0-0.004-0.004-0.006-0.008-0.010l-310.648-310.652-310.648 310.65c-0.004 0.004-0.006 0.006-0.010 0.010-3.346 3.342-7.254 5.76-11.414 7.31-11.38 4.248-24.682 1.826-33.83-7.32l-146.748-146.748c-9.148-9.148-11.568-22.452-7.322-33.828 1.552-4.16 3.97-8.072 7.312-11.416 0.004-0.002 0.006-0.006 0.010-0.010l310.65-310.648-310.65-310.652c-0.002-0.004-0.006-0.006-0.008-0.010-3.342-3.346-5.76-7.254-7.314-11.414-4.248-11.376-1.826-24.682 7.322-33.83l146.748-146.746c9.15-9.148 22.452-11.568 33.83-7.322 4.16 1.552 8.070 3.97 11.416 7.312 0.002 0.004 0.006 0.006 0.010 0.010l310.648 310.65 310.648-310.65c0.004-0.002 0.008-0.006 0.012-0.008 3.348-3.344 7.254-5.762 11.414-7.314 11.378-4.246 24.684-1.826 33.828 7.322l146.746 146.748c9.148 9.148 11.57 22.454 7.324 33.83-1.552 4.16-3.97 8.068-7.314 11.414z" />
<glyph unicode="&#xe800;" glyph-name="arrow-right-circle" d="M512 960c-282.77 0-512-229.23-512-512s229.23-512 512-512 512 229.23 512 512-229.23 512-512 512zM512 32c-229.75 0-416 186.25-416 416s186.25 416 416 416 416-186.25 416-416-186.25-416-416-416zM354.744 253.256l90.512-90.512 285.254 285.256-285.256 285.254-90.508-90.508 194.744-194.746z" />
<glyph unicode="&#xe801;" glyph-name="carret" d="M256 665.6h512l-256-460.8-256 460.8z" />
<glyph unicode="&#xe802;" glyph-name="lobby-man" d="M96.73-67.336c-10.007 0-16.678 6.671-16.678 16.678s6.671 16.678 16.678 16.678h100.065c10.007 0 16.678-6.671 16.678-16.678s-6.671-16.678-16.678-16.678h-100.065zM280.182-67.336c-10.007 0-16.678 6.671-16.678 16.678s6.671 16.678 16.678 16.678h550.358c10.007 0 16.678-6.671 16.678-16.678s-6.671-16.678-16.678-16.678h-550.358zM910.593-67.336h100.065c10.007 0 16.678 6.671 16.678 16.678v0c0 113.407-36.691 216.808-100.065 300.195-63.375 86.723-153.433 153.433-260.169 186.788-10.007 3.336-16.678-3.336-20.013-10.007-3.336-10.007 3.336-16.678 10.007-20.013 96.73-30.020 183.453-93.394 243.492-173.446 56.704-76.717 90.059-166.775 93.394-266.84h-83.388c-10.007 0-16.678-6.671-16.678-16.678 0-6.671 6.671-16.678 16.678-16.678v0zM356.899 439.661c-103.401-33.355-196.795-100.065-260.169-186.788-63.375-83.388-100.065-190.124-100.065-303.531 0-10.007 6.671-16.678 16.678-16.678s16.678 6.671 16.678 16.678c0 106.736 33.355 203.466 93.394 283.518s143.427 143.427 243.492 173.446c10.007 3.336 13.342 10.007 10.007 20.013 0 10.007-10.007 13.342-20.013 13.342zM513.668 960c73.381 0 140.091-30.020 186.788-76.717s76.717-113.407 76.717-186.788c0-73.381-30.020-140.091-76.717-186.788v0 0 0c-46.697-46.697-113.407-76.717-186.788-76.717s-140.091 30.020-186.788 76.717c-46.697 46.697-76.717 113.407-76.717 183.453 0 73.381 30.020 140.091 76.717 186.788v0c46.697 50.033 113.407 80.052 186.788 80.052v0zM677.107 859.935c-43.362 43.362-100.065 66.71-163.44 66.71s-123.414-26.684-163.44-66.71c-43.362-43.362-66.71-100.065-66.71-163.44s26.684-123.414 66.71-163.44c43.362-43.362 100.065-66.71 163.44-66.71s123.414 26.684 163.44 66.71v0c43.362 43.362 66.71 100.065 66.71 163.44 3.336 63.375-23.349 120.078-66.71 163.44zM513.668 960c60.039 0 116.743-20.013 160.104-53.368v0c43.362-33.355 76.717-83.388 93.394-140.091 3.336-10.007-3.336-16.678-10.007-20.013 0 0-3.336 0-3.336 0v0h-203.466c-40.026 0-73.381 16.678-100.065 40.026v0c-26.684 26.684-40.026 60.039-40.026 100.065v40.026c0 6.671 3.336 13.342 10.007 16.678 13.342 3.336 30.020 6.671 46.697 10.007 13.342 3.336 30.020 6.671 46.697 6.671v0zM653.759 879.948c-40.026 30.020-86.723 46.697-140.091 46.697-13.342 0-30.020 0-43.362-3.336-10.007-3.336-20.013-3.336-30.020-6.671v-30.020c0-30.020 13.342-56.704 33.355-76.717v0c20.013-20.013 46.697-33.355 76.717-33.355h180.117c-13.342 40.026-40.026 76.717-76.717 103.401v0zM260.169 766.541c10.007 40.026 30.020 76.717 60.039 106.736 26.684 30.020 63.375 53.368 100.065 70.046 6.671 3.336 16.678 0 20.013-10.007 0-3.336 0-3.336 0-6.671v0-40.026c0-40.026-16.678-73.381-40.026-100.065v0c-26.684-26.684-60.039-43.362-100.065-43.362h-26.684c-6.671 0-16.678 10.007-16.678 16.678 0 3.336 3.336 3.336 3.336 6.671v0zM340.221 849.928c-20.013-20.013-33.355-46.697-46.697-73.381h6.671c30.020 0 56.704 13.342 76.717 33.355v0c20.013 20.013 33.355 46.697 33.355 76.717v16.678c-26.684-13.342-50.033-33.355-70.046-53.368zM453.629 289.564l50.033 50.033c6.671 6.671 16.678 6.671 23.349 0l50.033-50.033c6.671-6.671 6.671-16.678 0-23.349l-50.033-50.033c-6.671-6.671-16.678-6.671-23.349 0l-50.033 50.033c-6.671 6.671-6.671 16.678 0 23.349v0zM513.668 306.241l-26.684-26.684 26.684-26.684 26.684 26.684-26.684 26.684zM583.713 22.723c3.336-6.671 0-16.678-10.007-20.013-6.671-3.336-16.678 0-20.013 10.007l-40.026 110.072-40.026-110.072c-3.336-6.671-13.342-13.342-20.013-10.007s-13.342 13.342-10.007 20.013l53.368 150.098c0 3.336 3.336 6.671 10.007 10.007s16.678 0 20.013-10.007l56.704-150.098zM577.042 543.062c6.671 3.336 16.678 0 20.013-10.007 3.336-6.671 0-16.678-10.007-20.013-13.342-6.671-23.349-10.007-36.691-10.007-13.342-3.336-26.684-3.336-40.026-3.336s-26.684 0-40.026 3.336c-13.342 3.336-26.684 6.671-36.691 10.007-6.671 3.336-13.342 13.342-10.007 20.013s13.342 13.342 20.013 10.007c10.007-3.336 20.013-6.671 30.020-10.007s20.013-3.336 33.355-3.336c10.007 0 23.349 0 33.355 3.336 16.678 3.336 26.684 6.671 36.691 10.007zM793.85 59.414c-3.336 6.671 0 16.678 10.007 20.013 6.671 3.336 16.678 0 20.013-10.007 6.671-20.013 13.342-40.026 20.013-60.039 3.336-20.013 6.671-40.026 6.671-63.375 0-10.007-6.671-16.678-16.678-16.678s-16.678 6.671-16.678 16.678c0 20.013-3.336 36.691-6.671 56.704-3.336 23.349-10.007 40.026-16.678 56.704zM213.472-50.658c0-10.007-6.671-16.678-16.678-16.678s-16.678 6.671-16.678 16.678c0 20.013 3.336 43.362 6.671 63.375s10.007 40.026 20.013 60.039c3.336 6.671 13.342 13.342 20.013 10.007 6.671-6.671 10.007-13.342 6.671-23.349-6.671-16.678-13.342-33.355-16.678-53.368-3.336-16.678-3.336-36.691-3.336-56.704zM356.899 409.642c-6.671 3.336-10.007 13.342-6.671 23.349 3.336 6.671 13.342 10.007 23.349 6.671 20.013-13.342 43.362-20.013 70.046-26.684v0 0c23.349-6.671 46.697-10.007 73.381-10.007s50.033 3.336 73.381 10.007v0c23.349 6.671 46.697 16.678 66.71 26.684 6.671 3.336 16.678 0 23.349-6.671 3.336-6.671 0-16.678-6.671-23.349-23.349-13.342-50.033-23.349-76.717-30.020v0c-26.684-6.671-53.368-10.007-83.388-10.007-26.684 0-56.704 3.336-83.388 10.007v0c-26.684 6.671-50.033 16.678-73.381 30.020z" />
<glyph unicode="&#xe803;" glyph-name="money" horiz-adv-x="1727" d="M0-41.495v0 647.033c0 16.879 16.879 28.132 28.132 28.132v0h1350.33c16.879 0 28.132-11.253 28.132-28.132v0-647.033c0-16.879-11.253-28.132-28.132-28.132v0h-1350.33c-11.253 0-28.132 11.253-28.132 28.132v0zM56.264 577.407v-596.396h1294.066v596.396h-1294.066zM135.033 689.934c-11.253 0-22.505 11.253-22.505 22.505 0 16.879 11.253 28.132 28.132 28.132h1350.33c16.879 0 28.132-11.253 28.132-28.132v0-647.033c0-16.879-11.253-28.132-28.132-28.132s-28.132 11.253-28.132 28.132v618.901h-1327.824zM247.56 796.835c-16.879 0-28.132 11.253-28.132 28.132s11.253 28.132 28.132 28.132h1350.33c16.879 0 28.132-11.253 28.132-28.132v0-647.033c0-16.879-11.253-28.132-28.132-28.132s-28.132 11.253-28.132 28.132v618.901h-1322.198zM354.462 903.736c-16.879 0-28.132 11.253-28.132 28.132s11.253 28.132 28.132 28.132h1350.33c16.879 0 28.132-11.253 28.132-28.132v0-647.033c0-16.879-11.253-28.132-28.132-28.132s-28.132 11.253-28.132 28.132v618.901h-1322.198zM247.56 200.44c-22.505 0-45.011 11.253-56.264 22.505-16.879 16.879-22.505 33.758-22.505 56.264s11.253 45.011 22.505 56.264c16.879 16.879 33.758 22.505 56.264 22.505s45.011-11.253 56.264-22.505v0 0 0c16.879-16.879 22.505-33.758 22.505-56.264s-11.253-45.011-22.505-56.264v0c-16.879-11.253-39.385-22.505-56.264-22.505v0zM225.055 262.33c5.626-5.626 11.253-5.626 16.879-5.626s11.253 0 16.879 5.626v0c5.626 5.626 5.626 11.253 5.626 16.879s-5.626 16.879-5.626 16.879v0c-5.626 5.626-11.253 5.626-16.879 5.626s-16.879-5.626-16.879-5.626c-5.626-5.626-5.626-11.253-5.626-16.879s0-11.253 5.626-16.879zM1164.659 200.44c-22.505 0-45.011 11.253-56.264 22.505v0 0c-16.879 16.879-22.505 33.758-22.505 56.264s11.253 45.011 22.505 56.264v0 0 0c16.879 16.879 33.758 22.505 56.264 22.505s45.011-11.253 56.264-22.505v0 0 0c16.879-16.879 22.505-33.758 22.505-56.264s-11.253-45.011-22.505-56.264v0c-16.879-11.253-33.758-22.505-56.264-22.505v0zM1142.154 262.33c5.626-5.626 11.253-5.626 16.879-5.626s11.253 0 16.879 5.626v0c5.626 5.626 5.626 11.253 5.626 16.879s-5.626 16.879-5.626 16.879v0c-5.626 5.626-11.253 5.626-16.879 5.626s-16.879-5.626-16.879-5.626v0c-5.626-5.626-5.626-11.253-5.626-16.879s5.626-11.253 5.626-16.879v0zM1159.033 605.538c0 16.879 11.253 28.132 28.132 28.132s28.132-11.253 28.132-28.132c0-45.011 16.879-90.022 50.637-118.154 28.132-28.132 73.143-50.637 118.154-50.637 16.879 0 28.132-11.253 28.132-28.132s-11.253-28.132-28.132-28.132c-61.89 0-118.154 22.505-157.538 67.516v0c-45.011 45.011-67.516 95.648-67.516 157.538zM196.923 605.538c0 16.879 11.253 28.132 28.132 28.132s28.132-11.253 28.132-28.132c0-61.89-22.505-118.154-67.516-157.538v0c-39.385-39.385-95.648-67.516-157.538-67.516-11.253 5.626-28.132 16.879-28.132 33.758s11.253 28.132 28.132 28.132c45.011 0 90.022 16.879 118.154 50.637v0c33.758 28.132 50.637 67.516 50.637 112.527zM1209.67-41.495c0-16.879-11.253-28.132-28.132-28.132s-28.132 11.253-28.132 28.132c0 61.89 22.505 118.154 67.516 157.538v0c39.385 39.385 95.648 67.516 157.538 67.516 16.879 0 28.132-11.253 28.132-28.132s-11.253-28.132-28.132-28.132c-45.011 0-90.022-16.879-118.154-50.637v0c-28.132-28.132-50.637-73.143-50.637-118.154zM253.187-41.495c0-16.879-11.253-28.132-28.132-28.132s-28.132 11.253-28.132 28.132c0 45.011-16.879 90.022-50.637 118.154v0c-28.132 28.132-73.143 50.637-118.154 50.637-16.879 0-28.132 11.253-28.132 28.132s11.253 28.132 28.132 28.132c61.89 0 118.154-22.505 157.538-67.516v0c39.385-39.385 67.516-95.648 67.516-157.538zM703.297 459.253c-22.505 0-39.385-5.626-50.637-22.505v0c-11.253-11.253-22.505-33.758-22.505-50.637 0-22.505 5.626-39.385 22.505-50.637v0 0c11.253-11.253 33.758-22.505 50.637-22.505 22.505 0 39.385 5.626 50.637 22.505v0c11.253 11.253 22.505 33.758 22.505 50.637 0 22.505-5.626 39.385-22.505 50.637v0c-11.253 16.879-28.132 22.505-50.637 22.505v0zM613.275 476.132c22.505 22.505 56.264 39.385 90.022 39.385s67.516-11.253 90.022-33.758v0c22.505-22.505 39.385-56.264 39.385-90.022s-16.879-67.516-39.385-90.022v0c-22.505-22.505-56.264-39.385-90.022-39.385s-67.516 16.879-90.022 39.385v0c-22.505 22.505-39.385 56.264-39.385 90.022 0 28.132 16.879 56.264 39.385 84.396v0zM573.89 194.813c-5.626-5.626-11.253-11.253-16.879-16.879v0c-5.626-5.626-11.253-16.879-11.253-28.132 16.879-22.505 39.385-39.385 67.516-50.637 28.132-16.879 61.89-22.505 95.648-22.505s67.516 5.626 95.648 22.505c28.132 11.253 50.637 33.758 67.516 50.637-5.626 11.253-11.253 16.879-16.879 28.132v0c-5.626 5.626-11.253 11.253-16.879 16.879-16.879-11.253-33.758-22.505-50.637-28.132-28.132-11.253-50.637-16.879-78.769-16.879s-56.264 5.626-78.769 16.879c-22.505 11.253-39.385 16.879-56.264 28.132v0zM512 206.066c11.253 16.879 22.505 33.758 39.385 45.011 11.253 11.253 28.132 11.253 33.758 0 16.879-11.253 33.758-22.505 56.264-33.758 16.879-5.626 39.385-11.253 61.89-11.253s45.011 5.626 61.89 11.253c22.505 5.626 39.385 16.879 56.264 33.758 11.253 11.253 28.132 11.253 33.758 0 16.879-11.253 28.132-28.132 39.385-45.011v0 0c11.253-16.879 22.505-33.758 28.132-56.264v0c0-5.626 0-16.879-5.626-22.505-22.505-33.758-56.264-61.89-95.648-78.769-33.758-16.879-78.769-28.132-118.154-28.132-45.011 0-84.396 11.253-118.154 28.132-39.385 16.879-67.516 45.011-95.648 78.769-5.626 5.626-5.626 16.879-5.626 22.505 11.253 22.505 16.879 39.385 28.132 56.264v0z" />
<glyph unicode="&#xe804;" glyph-name="platinpoints" d="M993.98 446.332c0 133.42-53.368 253.498-140.091 340.221s-206.801 140.091-340.221 140.091c-133.42 0-253.498-53.368-340.221-140.091s-140.091-206.801-140.091-340.221c0-133.42 53.368-253.498 140.091-340.221s206.801-140.091 340.221-140.091c133.42 0 253.498 53.368 340.221 140.091s140.091 206.801 140.091 340.221v0zM877.238 809.902c93.394-93.394 150.098-220.143 150.098-363.57 0-140.091-56.704-270.176-150.098-363.57s-220.143-150.098-363.57-150.098c-140.091 0-270.176 56.704-363.57 150.098-90.059 93.394-150.098 223.479-150.098 363.57s56.704 270.176 150.098 363.57c93.394 90.059 223.479 150.098 363.57 150.098s270.176-60.039 363.57-150.098zM496.99 222.853c10.007 0 16.678-6.671 16.678-16.678s-6.671-16.678-16.678-16.678h-126.749c-10.007 0-16.678 6.671-16.678 16.678s6.671 16.678 16.678 16.678h126.749zM560.365 382.958c-10.007 0-16.678 6.671-16.678 16.678s6.671 16.678 16.678 16.678c30.020 0 60.039 13.342 80.052 33.355v0c20.013 20.013 33.355 46.697 33.355 76.717s-13.342 60.039-33.355 80.052v0c-20.013 20.013-46.697 33.355-80.052 33.355h-193.459c-10.007 0-16.678 6.671-16.678 16.678s6.671 16.678 16.678 16.678h193.459c40.026 0 73.381-16.678 100.065-40.026v0c26.684-26.684 43.362-63.375 43.362-103.401s-16.678-73.381-40.026-100.065v0c-26.684-30.020-63.375-46.697-103.401-46.697zM370.241 382.958c-10.007 0-16.678 6.671-16.678 16.678s6.671 16.678 16.678 16.678h193.459c10.007 0 16.678-6.671 16.678-16.678s-6.671-16.678-16.678-16.678h-193.459zM450.293 206.176c0-10.007-6.671-16.678-16.678-16.678s-16.678 6.671-16.678 16.678v446.958c0 10.007 6.671 16.678 16.678 16.678s16.678-6.671 16.678-16.678v-446.958zM370.241 319.583c-10.007 0-16.678 6.671-16.678 16.678s6.671 16.678 16.678 16.678h223.479c10.007 0 16.678-6.671 16.678-16.678s-6.671-16.678-16.678-16.678h-223.479z" />
<glyph unicode="&#xe805;" glyph-name="lobby-woman" d="M306.866-67.336c-10.007 0-16.678 6.671-16.678 16.678s6.671 16.678 16.678 16.678h496.99c10.007 0 16.678-6.671 16.678-16.678s-6.671-16.678-16.678-16.678h-496.99zM887.244-67.336h63.375c10.007 0 16.678 6.671 16.678 16.678v0c0 116.743-23.349 223.479-76.717 310.202-50.033 80.052-120.078 143.427-220.143 180.117-6.671 3.336-16.678 0-20.013-10.007-3.336-6.671 0-16.678 10.007-20.013 90.059-33.355 156.769-90.059 203.466-163.44 46.697-76.717 70.046-170.111 70.046-276.847h-46.697c-10.007 0-16.678-6.671-16.678-16.678s6.671-20.013 16.678-20.013v0zM356.899 439.661c-96.73-36.691-170.111-96.73-220.143-180.117-50.033-86.723-76.717-190.124-76.717-310.202 0-10.007 6.671-16.678 16.678-16.678s16.678 6.671 16.678 16.678c0 113.407 23.349 213.472 70.046 293.524 43.362 73.381 110.072 130.085 203.466 163.44 6.671 3.336 13.342 13.342 10.007 20.013 0 10.007-10.007 13.342-20.013 13.342v0zM163.44-67.336c-10.007 0-16.678 6.671-16.678 16.678s6.671 16.678 16.678 16.678h63.375c10.007 0 16.678-6.671 16.678-16.678s-6.671-16.678-16.678-16.678h-63.375zM450.293 302.906l50.033 53.368c6.671 6.671 16.678 6.671 23.349 0l53.368-53.368c6.671-6.671 6.671-16.678 0-23.349l-53.368-50.033c-6.671-6.671-16.678-6.671-23.349 0l-50.033 50.033c-6.671 6.671-6.671 16.678 0 23.349v0zM513.668 319.583l-30.020-26.684 30.020-30.020 30.020 30.020-30.020 26.684zM587.049 26.059c3.336-6.671 0-16.678-10.007-20.013-6.671-3.336-16.678 0-20.013 10.007l-43.362 116.743-43.362-116.743c-3.336-6.671-13.342-13.342-20.013-10.007s-13.342 13.342-10.007 20.013l56.704 156.769c0 3.336 3.336 6.671 10.007 10.007s16.678 0 20.013-10.007l60.039-156.769zM763.831 66.085c-3.336 6.671 0 16.678 10.007 20.013 6.671 3.336 16.678 0 20.013-10.007 10.007-20.013 13.342-40.026 20.013-63.375 3.336-20.013 6.671-43.362 6.671-63.375 0-10.007-6.671-16.678-16.678-16.678s-16.678 6.671-16.678 16.678c0 20.013-3.336 40.026-6.671 60.039s-10.007 36.691-16.678 56.704zM240.156-50.658c0-10.007-6.671-16.678-16.678-16.678s-16.678 6.671-16.678 16.678c0 23.349 3.336 43.362 6.671 63.375s10.007 43.362 20.013 63.375c3.336 6.671 13.342 13.342 20.013 10.007s13.342-13.342 10.007-20.013c-6.671-16.678-13.342-36.691-16.678-56.704s-6.671-40.026-6.671-60.039zM250.163 696.495c0 10.007 6.671 16.678 16.678 16.678s16.678-6.671 16.678-16.678c0 0-3.336-123.414-63.375-173.446 13.342-3.336 30.020-6.671 43.362-10.007 23.349 0 43.362 3.336 53.368 23.349v0c3.336 6.671 13.342 10.007 20.013 6.671s10.007-13.342 6.671-20.013v0 0c-16.678-33.355-50.033-40.026-83.388-40.026-30.020 0-63.375 13.342-83.388 23.349v0 0h-3.336c-3.336 3.336-6.671 6.671-6.671 10.007-3.336 10.007 3.336 16.678 10.007 20.013 66.71 16.678 73.381 156.769 73.381 160.104zM747.153 693.16c0 10.007 6.671 16.678 16.678 16.678s16.678-6.671 16.678-16.678c0 0 6.671-143.427 70.046-163.44 10.007-3.336 13.342-10.007 10.007-20.013 0-3.336-3.336-6.671-6.671-10.007h-3.336c-20.013-10.007-53.368-23.349-83.388-23.349-33.355 0-66.71 6.671-83.388 40.026v0 0c-3.336 6.671 0 16.678 6.671 20.013s16.678 0 20.013-6.671v0c10.007-20.013 33.355-23.349 53.368-23.349 13.342 0 30.020 3.336 43.362 10.007-56.704 53.368-60.039 176.782-60.039 176.782zM513.668 960c73.381 0 140.091-30.020 186.788-76.717s76.717-113.407 76.717-186.788c0-73.381-30.020-140.091-76.717-186.788v0 0 0c-46.697-46.697-113.407-76.717-186.788-76.717s-140.091 30.020-186.788 76.717v0c-46.697 46.697-76.717 113.407-76.717 183.453 0 73.381 30.020 140.091 76.717 186.788v0c46.697 50.033 113.407 80.052 186.788 80.052v0zM677.107 859.935c-43.362 43.362-100.065 66.71-163.44 66.71s-123.414-26.684-163.44-66.71v0 0c-43.362-43.362-66.71-100.065-66.71-163.44s26.684-120.078 66.71-163.44v0c43.362-43.362 100.065-66.71 163.44-66.71s123.414 26.684 163.44 66.71v0c43.362 43.362 66.71 100.065 66.71 163.44 3.336 63.375-23.349 120.078-66.71 163.44zM513.668 960c60.039 0 116.743-20.013 160.104-53.368v0c43.362-33.355 76.717-83.388 93.394-140.091 3.336-10.007-3.336-16.678-10.007-20.013 0 0-3.336 0-3.336 0v0h-203.466c-40.026 0-73.381 16.678-100.065 40.026v0c-26.684 26.684-40.026 60.039-40.026 100.065v40.026c0 6.671 3.336 13.342 10.007 16.678 13.342 3.336 30.020 6.671 46.697 10.007 13.342 3.336 30.020 6.671 46.697 6.671v0zM653.759 879.948c-40.026 30.020-86.723 46.697-140.091 46.697-13.342 0-30.020 0-43.362-3.336-10.007-3.336-20.013-3.336-30.020-6.671v-30.020c0-30.020 13.342-56.704 33.355-76.717v0c20.013-20.013 46.697-33.355 76.717-33.355h180.117c-13.342 40.026-40.026 76.717-76.717 103.401v0zM260.169 766.541c10.007 40.026 30.020 76.717 60.039 106.736 26.684 30.020 63.375 53.368 100.065 70.046 6.671 3.336 16.678 0 20.013-10.007 0-3.336 0-3.336 0-6.671v0-40.026c0-40.026-16.678-73.381-40.026-100.065v0c-26.684-26.684-63.375-43.362-100.065-43.362h-26.684c-6.671 0-16.678 10.007-16.678 16.678 0 3.336 3.336 3.336 3.336 6.671v0zM340.221 849.928c-20.013-20.013-33.355-46.697-46.697-73.381h6.671c30.020 0 56.704 13.342 76.717 30.020v0c20.013 20.013 33.355 46.697 33.355 76.717v20.013c-26.684-13.342-50.033-33.355-70.046-53.368zM577.042 543.062c6.671 3.336 16.678 0 20.013-10.007 3.336-6.671 0-16.678-10.007-20.013-13.342-6.671-23.349-10.007-36.691-10.007-13.342-3.336-26.684-3.336-40.026-3.336s-26.684 0-40.026 3.336c-13.342 3.336-26.684 6.671-36.691 10.007-6.671 3.336-13.342 13.342-10.007 20.013s13.342 13.342 20.013 10.007c10.007-3.336 20.013-6.671 30.020-10.007s20.013-3.336 33.355-3.336c10.007 0 23.349 0 33.355 3.336 16.678 3.336 26.684 6.671 36.691 10.007zM356.899 409.642c-6.671 3.336-10.007 13.342-6.671 23.349 3.336 6.671 13.342 10.007 23.349 6.671 20.013-13.342 43.362-20.013 70.046-26.684v0 0c23.349-6.671 46.697-10.007 73.381-10.007s50.033 3.336 73.381 10.007v0c23.349 6.671 46.697 16.678 66.71 26.684 6.671 3.336 16.678 0 23.349-6.671 3.336-6.671 0-16.678-6.671-23.349-23.349-13.342-50.033-23.349-76.717-30.020v0c-26.684-6.671-53.368-10.007-83.388-10.007-26.684 0-56.704 3.336-83.388 10.007v0c-26.684 6.671-50.033 16.678-73.381 30.020z" />
<glyph unicode="&#xe806;" glyph-name="clock" d="M33.355 446.332c0-133.42 53.368-253.498 140.091-340.221s206.801-140.091 340.221-140.091c133.42 0 253.498 53.368 340.221 140.091s140.091 206.801 140.091 340.221-53.368 253.498-140.091 340.221c-86.723 86.723-206.801 140.091-340.221 140.091s-253.498-53.368-340.221-140.091c-86.723-86.723-140.091-206.801-140.091-340.221v0zM150.098 82.762c-90.059 93.394-150.098 223.479-150.098 363.57s60.039 270.176 150.098 363.57c93.394 90.059 223.479 150.098 363.57 150.098s270.176-56.704 363.57-150.098c93.394-93.394 150.098-220.143 150.098-363.57s-56.704-270.176-150.098-363.57c-93.394-93.394-220.143-150.098-363.57-150.098-140.091 0-270.176 60.039-363.57 150.098zM600.391 26.059c-10.007-3.336-16.678 3.336-20.013 13.342s3.336 16.678 13.342 20.013c90.059 20.013 170.111 70.046 230.15 136.756 56.704 70.046 90.059 156.769 90.059 250.163 0 110.072-43.362 210.137-116.743 280.182s-170.111 116.743-280.182 116.743-213.472-43.362-283.518-116.743c-73.381-73.381-116.743-170.111-116.743-280.182s43.362-210.137 116.743-280.182c73.381-73.381 170.111-116.743 280.182-116.743 10.007 0 16.678-6.671 16.678-16.678s-6.671-16.678-16.678-16.678c-120.078 0-226.814 46.697-303.531 126.749-76.717 76.717-126.749 183.453-126.749 303.531s50.033 226.814 126.749 303.531c76.717 76.717 186.788 126.749 303.531 126.749s226.814-46.697 303.531-126.749c76.717-76.717 126.749-186.788 126.749-303.531 0-103.401-36.691-196.795-96.73-270.176-63.375-76.717-150.098-130.085-246.827-150.098zM530.345 342.932c0-10.007-6.671-16.678-16.678-16.678s-16.678 6.671-16.678 16.678v350.228c0 10.007 6.671 16.678 16.678 16.678s16.678-6.671 16.678-16.678v-350.228zM410.267 429.655c-10.007 0-16.678 6.671-16.678 16.678s6.671 16.678 16.678 16.678h350.228c10.007 0 16.678-6.671 16.678-16.678s-6.671-16.678-16.678-16.678h-350.228zM163.44 463.010c10.007 0 16.678-6.671 16.678-16.678s-6.671-16.678-16.678-16.678h-53.368c-10.007 0-16.678 6.671-16.678 16.678s6.671 16.678 16.678 16.678h53.368zM917.264 463.010c10.007 0 16.678-6.671 16.678-16.678s-6.671-16.678-16.678-16.678h-50.033c-10.007 0-16.678 6.671-16.678 16.678s6.671 16.678 16.678 16.678h50.033zM496.99 96.104c0 10.007 6.671 16.678 16.678 16.678s16.678-6.671 16.678-16.678v-63.375c0-10.007-6.671-16.678-16.678-16.678s-16.678 6.671-16.678 16.678v63.375zM496.99 849.928c0 10.007 6.671 16.678 16.678 16.678s16.678-6.671 16.678-16.678v-50.033c0-10.007-6.671-16.678-16.678-16.678s-16.678 6.671-16.678 16.678v50.033zM253.498 209.511c6.671 6.671 16.678 6.671 23.349 0s6.671-16.678 0-23.349l-36.691-36.691c-6.671-6.671-16.678-6.671-23.349 0s-6.671 16.678 0 23.349l36.691 36.691zM787.179 743.192c6.671 6.671 16.678 6.671 23.349 0s6.671-16.678 0-23.349l-36.691-36.691c-6.671-6.671-16.678-6.671-23.349 0s-6.671 16.678 0 23.349l36.691 36.691zM276.847 706.502c6.671-6.671 6.671-16.678 0-23.349s-16.678-6.671-23.349 0l-36.691 36.691c-6.671 6.671-6.671 16.678 0 23.349s16.678 6.671 23.349 0l36.691-36.691zM810.528 172.821c6.671-6.671 6.671-16.678 0-23.349s-16.678-6.671-23.349 0l-36.691 36.691c-6.671 6.671-6.671 16.678 0 23.349s16.678 6.671 23.349 0l36.691-36.691z" />
<glyph unicode="&#xe900;" glyph-name="vip" d="M725.322 746.624h-426.645c-58.791 0-106.66-47.827-106.66-106.66v-597.301c0-58.835 47.869-106.66 106.66-106.66h426.643c58.791 0 106.66 47.827 106.66 106.66v597.299c0.002 58.835-47.867 106.662-106.658 106.662zM789.319 42.662c0-35.284-28.712-63.997-63.997-63.997h-426.645c-35.284 0-63.997 28.712-63.997 63.997v597.299c0 35.284 28.712 63.997 63.997 63.997h426.643c35.284 0 63.997-28.712 63.997-63.997v-597.299zM431.832 362.005c-11.477 2.858-22.997-4.054-25.855-15.529l-21.973-87.889-21.973 87.889c-2.858 11.433-14.463 18.303-25.855 15.529-11.433-2.858-18.389-14.421-15.529-25.855l42.664-170.657c2.39-9.513 10.921-16.169 20.693-16.169 9.769 0 18.303 6.656 20.693 16.169l42.664 170.657c2.86 11.391-4.094 22.995-15.529 25.855zM512 362.645c-11.775 0-21.333-9.557-21.333-21.333v-170.657c0-11.775 9.557-21.333 21.333-21.333s21.333 9.557 21.333 21.333v170.657c0 11.775-9.557 21.333-21.333 21.333zM639.993 362.645h-42.664c-11.775 0-21.333-9.557-21.333-21.333v-170.657c0-11.775 9.557-21.333 21.333-21.333s21.333 9.557 21.333 21.333v63.997h21.333c35.284 0 63.997 28.712 63.997 63.997-0.002 35.282-28.714 63.997-63.999 63.997zM639.993 277.315h-21.333v42.664h21.333c11.775 0 21.333-9.599 21.333-21.333 0-11.731-9.557-21.331-21.333-21.331zM725.322 447.972h-426.645c-11.775 0-21.333-9.557-21.333-21.333s9.557-21.333 21.333-21.333h426.643c11.775 0 21.333 9.557 21.333 21.333s-9.555 21.333-21.331 21.333zM725.322 106.659h-426.645c-11.775 0-21.333-9.557-21.333-21.333s9.557-21.333 21.333-21.333h426.643c11.775 0 21.333 9.557 21.333 21.333s-9.555 21.333-21.331 21.333zM512 661.294c-35.284 0-63.997-28.712-63.997-63.997s28.712-63.997 63.997-63.997c35.284 0 63.997 28.712 63.997 63.997s-28.712 63.997-63.997 63.997zM512 575.965c-11.775 0-21.333 9.599-21.333 21.333s9.557 21.333 21.333 21.333c11.775 0 21.333-9.599 21.333-21.333s-9.557-21.333-21.333-21.333zM692.214 957.726c-10.537 5.334-23.337 0.938-28.628-9.557l-170.657-341.315c-5.248-10.537-0.982-23.337 9.557-28.628 3.072-1.536 6.314-2.262 9.513-2.262 7.808 0 15.317 4.352 19.113 11.817l170.657 341.315c5.25 10.541 0.982 23.341-9.555 28.63zM467.074 734.848l-106.66 213.32c-5.248 10.495-18.089 14.847-28.628 9.513-10.537-5.29-14.805-18.089-9.557-28.628l106.66-213.322c3.754-7.424 11.263-11.775 19.113-11.775 3.242 0 6.486 0.726 9.513 2.262 10.539 5.292 14.849 18.091 9.559 28.63z" />
<glyph unicode="&#xe901;" glyph-name="moneybag" horiz-adv-x="868" d="M797.309 130.466v261.695c0 161.684-105.011 299.477-250.583 348.371 31.114 30.559 50.005 72.786 50.005 119.457v66.674c0 25.003-26.114 41.116-48.339 30.003-73.897-37.782-162.795-37.782-237.248-0.556-22.225 11.112-48.339-5.001-48.339-30.003v-66.674c0-46.672 19.447-88.899 50.005-119.457-145.571-48.894-250.583-186.687-250.583-348.371v-261.695c-38.893-13.89-66.674-51.117-66.674-94.455 0-55.006 45.005-100.011 100.011-100.011h667.85c55.006 0 100.011 45.005 100.011 100.011 0.556 43.894-27.225 81.12-66.118 95.010v0zM330.036 877.213c65.007-20.558 135.57-20.558 200.577 0v-17.224c0-55.006-45.005-100.011-100.011-100.011s-100.011 45.005-100.011 100.011l-0.556 17.224zM763.972 2.674h-667.85c-18.335 0-33.337 15.002-33.337 33.337s15.002 33.337 33.337 33.337c18.335 0 33.337 15.002 33.337 33.337v289.476c0 165.574 135.015 300.588 300.588 300.588s300.588-135.015 300.588-300.588v-289.476c0-18.335 15.002-33.337 33.337-33.337s33.337-15.002 33.337-33.337c0-18.335-15.002-33.337-33.337-33.337v0zM575.062 129.91c-22.78-12.779-61.673-25.558-105.011-25.558-66.118 0-126.68 26.67-164.462 76.675-18.335 22.78-31.67 51.672-37.782 87.232h-43.894v47.783h37.226c0 3.334 0 7.223 0 11.668 0 6.667 0.556 13.335 0.556 20.002h-37.782v47.783h45.005c8.89 36.115 25.003 67.23 46.672 92.232 38.337 43.338 92.232 68.896 155.572 68.896 41.116 0 76.675-9.445 101.122-20.002l-18.891-76.675c-17.224 7.223-45.005 16.113-74.453 16.113-32.226 0-61.673-10.557-82.787-36.115-9.445-10.557-16.668-26.114-21.669-43.894h167.796v-47.783h-177.797c-0.556-6.667-0.556-13.89-0.556-21.113 0-3.889 0-6.667 0-10.557h178.353v-47.783h-169.463c4.445-20.002 12.224-35.559 22.225-47.227 21.669-24.447 53.339-34.448 86.676-34.448 31.114 0 62.785 10.001 76.675 17.224l16.668-74.453z" />
<glyph unicode="&#xe902;" glyph-name="filter" horiz-adv-x="961" d="M354.945 727.558h603.092v100.515h-603.092v-100.515zM153.914 960l-47.117-94.233-106.798-15.706 75.387-75.387-15.706-106.798 94.233 50.258 94.233-50.258-18.847 106.798 75.387 75.387-103.656 15.706-47.117 94.233zM358.086 372.613h603.092v100.515h-603.092v-100.515zM106.798 507.681l-106.798-15.706 75.387-75.387-18.847-103.656 94.233 50.258 94.233-50.258-18.847 103.656 75.387 75.387-106.798 15.706-47.117 94.233-40.834-94.233zM358.086-4.319h603.092v100.515h-603.092v-100.515zM109.939 130.748l-106.798-15.706 75.387-75.387-15.706-103.656 94.233 50.258 94.233-50.258-18.847 103.656 75.387 75.387-106.798 15.706-47.117 94.233-43.975-94.233z" />
<glyph unicode="&#xe903;" glyph-name="new" horiz-adv-x="877" d="M305.698 330.369c-13.944 0-25.028-11.084-25.028-25.028v-113.341l-95.106 128c-6.436 8.581-17.877 12.156-27.888 8.939-10.369-3.218-17.162-12.872-17.162-23.598v-175.553c0-13.944 11.084-25.028 25.028-25.028s25.028 11.084 25.028 25.028v99.754l95.106-128.358c4.648-6.436 12.156-10.011 20.022-10.011 2.503 0 5.363 0.358 7.866 1.43 10.369 3.218 17.162 12.872 17.162 23.598v189.14c0 13.587-11.084 25.028-25.028 25.028zM711.508 330.369c-13.944 0-25.028-11.084-25.028-25.028v-77.944l-15.732 28.246c-4.291 7.866-12.514 12.872-21.81 12.872-8.939 0.358-17.52-4.648-21.81-12.514l-19.307-33.251v82.235c0 13.944-11.084 25.028-25.028 25.028s-25.028-11.084-25.028-25.028v-175.553c0-11.441 7.508-21.095 18.592-24.313 11.084-2.86 22.525 1.788 28.246 11.799l43.62 75.441 41.117-75.084c4.648-8.223 12.872-12.872 21.81-12.872 2.145 0 4.291 0.358 6.078 0.715 11.084 2.86 18.95 12.872 18.95 24.313v175.553c0.358 13.944-10.726 25.385-24.67 25.385v0zM500.559 280.313c13.944 0 25.028 11.084 25.028 25.028s-11.084 25.028-25.028 25.028h-104.402c-13.944 0-25.028-11.084-25.028-25.028v-175.553c0-13.944 11.084-25.028 25.028-25.028h104.402c13.944 0 25.028 11.084 25.028 25.028s-11.084 25.028-25.028 25.028h-79.374v37.542h79.374c13.944 0 25.028 11.084 25.028 25.028s-11.084 25.028-25.028 25.028h-79.374v37.542h79.374zM795.888 481.609l-337.162 468.022c-4.648 6.436-12.156 10.369-20.38 10.369s-15.732-3.933-20.38-10.369l-336.804-468.022c-46.48-11.799-81.162-53.989-81.162-104.045v-333.944c0-59.352 48.268-107.62 107.62-107.62h661.81c59.352 0 107.62 48.268 107.62 107.62v333.944c0 50.056-34.682 92.246-81.162 104.045v0zM438.346 892.067l293.184-407.24h-586.369l293.184 407.24zM826.994 43.62c0-31.821-25.743-57.564-57.564-57.564h-661.81c-31.821 0-57.564 25.743-57.564 57.564v333.944c0 31.821 25.743 57.564 57.564 57.564h661.81c31.821 0 57.564-25.743 57.564-57.564v-333.944zM96.536 415.464c-6.436 0-13.229-2.503-17.877-7.508-4.648-4.648-7.151-11.084-7.151-17.52s2.503-12.872 7.151-17.52c4.648-4.648 11.084-7.508 17.877-7.508s12.872 2.86 17.877 7.508c4.648 4.648 7.151 11.084 7.151 17.52 0 6.793-2.86 12.872-7.151 17.52-5.006 5.006-11.441 7.508-17.877 7.508zM780.514 415.464c-6.436 0-12.872-2.503-17.52-7.508-4.648-4.648-7.508-11.084-7.508-17.52s2.86-12.872 7.508-17.52c4.648-4.648 11.084-7.508 17.52-7.508s12.872 2.86 17.52 7.508c4.648 4.648 7.508 11.084 7.508 17.52 0 6.793-2.503 12.872-7.508 17.52-4.291 5.006-10.726 7.508-17.52 7.508z" />
<glyph unicode="&#xe904;" glyph-name="croupier" horiz-adv-x="899" d="M900.902 77.617v0.545c-28.868 208.068-73.532 287.047-78.979 295.762-27.779 55.013-76.255 59.37-86.604 59.915l-46.843 7.626c-4.357 0.545-15.796 2.723-92.596 4.902 54.468 55.557 77.345 133.447 86.604 177.021 116.562 337.157-231.489 333.889-231.489 333.889s-348.051 3.268-230.945-333.889c8.715-43.030 31.591-120.919 86.060-176.477-77.345-2.723-88.783-4.357-92.596-4.902l-46.843-7.626c-10.349-0.545-58.826-4.902-86.604-59.915-5.447-8.715-50.111-88.238-78.979-295.762v-0.545c0-2.179-1.634-21.243 10.894-34.86 2.723-3.268 62.638-68.63 160.681-68.63 6.536 0 13.617 0.545 20.698 1.089 19.064-14.706 77.345-42.485 247.83-42.485 0 0 0 0 0 0s3.813 0 9.804 0c5.991 0 9.26 0 9.26 0 171.030 0 229.311 27.779 248.374 42.485 7.081-0.545 14.162-1.089 20.698-1.089 98.043 0 157.957 65.906 160.681 68.63 13.072 12.528 11.438 32.136 10.894 34.315zM200.443 8.443l-3.813-0.545c-96.953-12.528-157.957 53.379-160.681 56.647-1.634 1.634-2.179 6.536-2.179 9.26 28.868 208.068 74.077 282.689 74.621 283.234l0.545 1.634c20.698 41.94 57.191 42.485 58.826 42.485 0 0 0 0 0 0h1.634l20.698 3.268c5.447-57.191 24.511-255.455 10.349-395.983zM250.553 637.004c7.626 27.779 21.787 56.102 49.021 68.085 0 0 22.877-46.298 151.421-46.298s151.421 46.298 151.421 46.298c27.779-12.528 41.94-40.306 49.021-68.63-8.17-43.030-34.315-137.804-103.489-189.004-0.545 0-0.545 0-1.089 0v-0.545c-2.723-1.634-4.902-3.268-7.626-5.447l-39.217-27.234c-4.357-2.723-17.974-9.804-27.234-9.804h-43.574c-9.804 0-23.421 7.081-27.779 9.804l-39.762 27.234c-74.621 50.111-102.4 150.877-111.115 195.54zM451.54 229.038c-122.009-0.545-142.706 133.447-146.519 185.191 11.438 0.545 24.511 0.545 39.217 1.089l39.217-27.234 0.545-0.545c2.179-1.634 23.966-14.706 45.209-14.706h43.574c21.243 0 42.485 13.072 45.209 14.706l39.762 27.779c15.796-0.545 29.957-1.089 41.94-1.089-3.268-198.264-148.153-185.191-148.153-185.191zM664.511 179.472h-119.83v21.787h119.83v-21.787zM866.043 64.545c-2.723-2.723-63.183-68.63-160.681-56.647l-3.268 1.089c-13.617 140.528 4.902 337.702 10.894 395.438l18.519-3.268h3.268c0 0 0 0 0 0 2.179 0 38.128-0.545 58.826-42.485l0.545-1.634c0.545-0.545 45.209-73.532 74.621-283.234 0-1.089-0.545-7.081-2.723-9.26zM529.43 372.834c-13.072 5.447-43.574-20.153-62.638-37.583-3.813 4.902-9.26 8.715-15.796 8.715s-11.983-3.268-15.796-8.715c-18.519 17.43-49.021 43.030-62.638 37.583 0 0-16.885-7.081-15.251-52.834-1.634-45.753 15.251-52.834 15.251-52.834 13.072-5.447 43.574 20.153 62.638 37.583 3.813-4.902 9.26-8.715 15.796-8.715s11.983 3.268 15.796 8.715c18.519-17.43 49.021-43.030 62.638-37.583 0 0 16.885 7.081 15.251 52.834 1.634 45.753-15.251 52.834-15.251 52.834z" />
<glyph unicode="&#xe905;" glyph-name="sun" d="M588.536 881.523c0.722 0.090 1.174-0.181 1.264-0.632 5.057-56.533 7.676-115.594 12.101-172.849 11.018 6.954 86.154 77.665 115.684 102.951-14.269-61.409-30.163-121.103-44.522-182.422 68.092 28.537 134.017 59.242 200.845 88.953 0.722-4.154-88.321-117.581-127.786-170.953 68.634-5.057 139.074-8.399 208.521-12.733-4.786-6.773-135.371-88.502-190.098-125.257 5.96-4.786 120.651-52.469 170.32-73.691-56.171-4.877-120.922-1.716-179.261-5.057 23.751-66.286 53.191-132.391 78.207-199.58-58.971 35.942-114.51 75.317-173.572 111.259 4.696-74.143 13.546-152.981 18.423-226.943-6.863 4.786-87.057 108.731-123.27 152.53-5.78-11.198-38.381-109.814-52.74-144.944-5.328 11.288-36.304 108.189-48.315 144.312-7.134-5.78-99.429-119.206-119.477-141.151 9.663 70.259 22.938 142.325 33.053 214.21-16.888-5.418-145.486-68.453-193.891-91.572 9.392 14.72 94.281 124.264 125.889 165.895-67.099-5.96-135.913-15.804-202.741-24.112 3.612 6.141 106.563 65.834 150.001 92.204-6.412 3.070-164.089 57.978-177.997 64.841 68.544 14.449 138.893 27.183 207.889 41.361-10.656 13.907-136.365 132.301-147.473 145.576 54.997-11.108 108.731-23.57 163.367-34.949-24.744 61.861-51.295 122.096-77.574 182.422 4.335 0.813 120.2-87.869 175.468-126.521 0.271 13.817-12.101 147.202-15.262 197.052 6.322-5.057 76.491-112.343 108.098-157.677 5.78 6.412 96.178 171.314 104.847 187.479zM451.9 652.050c-14.72-4.425-28.357-10.566-39.374-16.526-49.579-26.46-85.070-65.112-105.479-119.477-10.205-27.183-17.52-61.319-13.998-97.261 6.773-67.821 34.227-113.607 74.414-150.633 38.020-35.13 94.101-60.867 167.16-56.533 68.363 3.974 114.601 34.949 150.633 73.691 35.039 37.658 62.222 93.83 56.533 165.895-5.328 68.544-34.136 116.858-73.059 151.898-38.561 34.678-93.83 61.951-167.792 57.165-15.443-0.993-34.136-3.793-49.037-8.218z" />
<glyph unicode="&#xe906;" glyph-name="cubes-3d" horiz-adv-x="1389" d="M1313.28 576l-392.96 201.6-113.28-92.8-115.84 276.48-448.64-1.92-245.12-364.8 227.2-371.84 388.48-23.68 10.24-124.16 408.32-135.040 355.2 217.6-73.6 418.56zM1340.8 198.4l-354.56 145.92-40.32 376.96 332.8-170.88 62.080-352zM657.28 125.44l-29.44 364.16 279.68 227.84 40.32-377.6-290.56-214.4zM616.96 529.92c-1.28 1.28-2.56 1.92-3.84 2.56-16.64 8.32-34.56-7.040-39.68-34.56s3.84-56.96 20.48-65.92l9.6-115.84-127.36 257.92 198.4 325.76 101.12-240.64-158.72-129.28zM263.040 920.96l380.8 1.92-199.68-328.32-389.12 17.28 208 309.12zM55.040 573.44l387.2-17.28 156.8-318.080-352 21.76-192 313.6zM1026.56-17.92l-344.32 113.92 288.64 213.12 352.64-144.64-296.96-182.4zM1149.44 406.4c23.040-7.68 40.32 7.040 39.040 32.64s-21.12 52.48-43.52 60.16c-23.040 7.68-40.32-7.040-39.040-32.64s21.12-52.48 43.52-60.16zM1035.52 217.6c21.76 13.44 21.76 33.28-0.64 44.16-21.76 10.88-57.6 8.96-78.72-5.12-21.76-13.44-21.12-33.28 0.64-44.16s56.96-8.96 78.72 5.12zM1240.32 174.080c-19.2 9.6-50.56 7.68-69.12-4.48-19.2-12.16-18.56-29.44 0.64-38.4 19.2-9.6 50.56-7.68 69.12 4.48 18.56 11.52 18.56 28.8-0.64 38.4zM1140.48 113.92c-19.2 9.6-50.56 7.68-69.12-4.48-19.2-12.16-18.56-29.44 0.64-38.4 19.2-9.6 50.56-7.68 69.12 4.48 18.56 11.52 18.56 28.8-0.64 38.4zM1042.56 56.96c-19.2 9.6-50.56 7.68-69.12-4.48-19.2-12.16-18.56-29.44 0.64-38.4 19.2-9.6 50.56-7.68 69.12 4.48 18.56 11.52 18.56 28.8-0.64 38.4zM938.24 192.64c-21.12 10.24-55.68 8.32-76.8-4.48s-21.12-32 0.64-42.88c21.12-10.24 55.68-8.32 76.8 4.48 20.48 13.44 20.48 32.64-0.64 42.88zM844.16 128.64c-20.48 10.24-53.12 8.32-72.96-4.48-19.84-12.16-19.84-30.72 0.64-40.96s53.12-7.68 72.96 4.48c19.84 12.8 19.2 30.72-0.64 40.96zM638.080 794.24c-5.76-28.8 1.92-58.24 17.28-66.56s32.64 8.32 38.4 37.12c5.76 28.8-1.92 58.24-17.28 66.56-16 7.68-32.64-8.96-38.4-37.12zM700.16 622.72c14.72-8.32 31.36 7.68 37.12 35.84 5.76 27.52-1.92 56.32-16.64 64.64-14.72 7.68-31.36-7.68-37.12-35.84s1.28-56.96 16.64-64.64zM562.56 643.2c-16.64 8.96-35.2-8.32-40.96-38.4s2.56-62.080 19.2-71.040c16.64-8.96 35.2 8.32 40.96 38.4s-2.56 62.080-19.2 71.040zM324.48 725.76c24.96-8.32 57.6 3.84 72.32 26.88s5.76 48.64-19.2 56.96c-24.96 8.32-57.6-3.84-72.32-26.88s-5.76-48.64 19.2-56.96zM175.36 538.88c-24.32 13.44-50.56 12.16-58.88-3.84-8.32-15.36 5.12-39.040 29.44-52.48s50.56-12.16 58.88 3.84c7.68 15.36-5.12 39.040-29.44 52.48zM347.52 430.080c-24.32 13.44-50.56 12.16-58.88-3.84s5.12-39.040 29.44-52.48c24.32-13.44 50.56-12.16 58.88 3.84 8.32 15.36-5.12 39.040-29.44 52.48zM517.76 326.4c-24.32 13.44-50.56 12.16-58.88-3.84-7.68-15.36 5.12-39.040 29.44-52.48s50.56-12.16 58.88 3.84c8.32 15.36-5.12 39.040-29.44 52.48zM870.139 643.928c16.443-5.438 22.845-30.794 14.299-56.633s-28.804-42.378-45.247-36.939c-16.443 5.438-22.845 30.794-14.299 56.633s28.804 42.378 45.247 36.939zM791.264 459.333c16.445-5.437 22.851-30.793 14.307-56.635s-28.8-42.384-45.245-36.947c-16.445 5.437-22.851 30.793-14.307 56.635s28.8 42.384 45.245 36.947zM714.692 276.557c16.445-5.437 22.851-30.793 14.307-56.635s-28.8-42.384-45.245-36.947c-16.445 5.437-22.851 30.793-14.307 56.635s28.8 42.384 45.245 36.947z" />
<glyph unicode="&#xe907;" glyph-name="slots" horiz-adv-x="1263" d="M153.018 314.182c11.636 0 18.036 0.582 19.782 2.327 1.164 1.745 2.909 4.073 4.655 7.564 3.491 6.982 8.727 10.473 15.127 10.473h83.782l-32-46.545c-15.127-22.109-26.764-44.8-34.909-68.073-8.145-23.855-12.218-42.473-12.218-56.436 0-4.655-0.582-7.564-1.164-9.309s-2.327-3.491-4.655-4.073c-3.491-1.164-5.818-2.909-6.4-4.073s-1.164-4.073-1.164-8.727c0-4.655 0.582-6.982 1.164-8.145 1.164-0.582 2.909-1.164 6.4-1.164h85.527c3.491 0 5.818 0.582 6.4 1.164s1.164 4.073 1.164 9.891c0 4.655-1.164 7.564-4.073 8.727-4.073 1.745-6.982 4.073-8.727 6.982s-2.327 12.218-2.327 27.927c0 38.4 6.4 73.891 18.618 106.473 12.8 32.582 23.273 55.855 32.582 70.4 3.491 5.818 5.818 9.891 5.818 13.382v6.982c0 1.745-0.582 2.909-1.164 3.491s-2.327 0.582-5.236 0.582h-153.018c-5.818 0-9.309-0.582-11.055-1.745s-2.327-3.491-2.909-8.145l-5.818-54.109v-1.745c0-2.909 1.745-4.073 5.818-4.073zM543.418 314.182c11.636 0 18.036 0.582 19.782 2.327 1.164 1.745 2.909 4.073 4.655 7.564 3.491 6.982 8.727 10.473 15.127 10.473h83.782l-32-46.545c-15.127-22.109-26.764-44.8-34.909-68.073-8.145-23.855-12.218-42.473-12.218-56.436 0-4.655-0.582-7.564-1.164-9.309s-2.327-3.491-4.655-4.073c-3.491-1.164-5.818-2.909-6.4-4.073s-1.164-4.073-1.164-8.727c0-4.655 0.582-6.982 1.164-8.145 1.164-0.582 2.909-1.164 6.4-1.164h85.527c3.491 0 5.818 0.582 6.4 1.164s1.164 4.073 1.164 9.891c0 4.655-1.164 7.564-4.073 8.727-4.073 1.745-6.982 4.073-8.727 6.982s-2.327 12.218-2.327 27.927c0 38.4 6.4 73.891 18.618 106.473 12.8 32.582 23.273 55.855 32.582 70.4 3.491 5.818 5.818 9.891 5.818 13.382v6.982c0 1.745-0.582 2.909-1.164 3.491s-2.327 0.582-5.236 0.582h-153.6c-5.818 0-9.309-0.582-11.055-1.745s-2.327-3.491-2.909-8.145l-5.818-54.109v-1.745c0-2.909 2.327-4.073 6.4-4.073zM946.618 314.182c11.636 0 18.036 0.582 19.782 2.327 1.164 1.745 2.909 4.073 4.655 7.564 3.491 6.982 8.727 10.473 15.127 10.473h84.364l-32-46.545c-15.127-22.109-26.764-44.8-34.909-68.073-8.145-23.855-12.218-42.473-12.218-56.436 0-4.655-0.582-7.564-1.164-9.309s-2.327-3.491-4.655-4.073c-3.491-1.164-5.818-2.909-6.4-4.073s-1.164-4.073-1.164-8.727c0-4.655 0.582-6.982 1.164-8.145 1.164-0.582 2.909-1.164 6.4-1.164h85.527c3.491 0 5.818 0.582 6.4 1.164s1.164 4.073 1.164 9.891c0 4.655-1.164 7.564-4.073 8.727-4.073 1.745-6.982 4.073-8.727 6.982s-2.327 12.218-2.327 27.927c0 38.4 6.4 73.891 18.618 106.473 12.8 32.582 23.273 55.855 32.582 70.4 3.491 5.818 5.818 9.891 5.818 13.382v6.982c0 1.745-0.582 2.909-1.164 3.491s-2.327 0.582-5.236 0.582h-153.6c-5.818 0-9.309-0.582-11.055-1.745s-2.327-3.491-2.909-8.145l-5.818-54.109v-1.745c0-2.909 1.745-4.073 5.818-4.073zM1229.382 656.873h-269.382l-1.745 8.727 61.091 59.345-84.364 12.218-37.818 76.218-37.818-76.218-84.364-12.218 61.091-59.345-1.745-8.727h-91.345l-9.309 53.527 101.818 98.909-140.218 20.364-62.836 127.418-62.836-127.418-140.218-20.364 101.818-98.909-9.309-53.527h-91.345l-1.745 8.727 61.091 59.345-84.364 12.218-37.818 76.218-37.818-76.218-84.364-12.218 61.091-59.345-1.745-8.727h-268.8c-19.2 0-34.909-15.709-34.909-34.909v-653.964c0-19.2 15.709-34.909 34.909-34.909h1193.309c19.2 0 34.909 15.709 34.909 34.909v653.964c0 19.2-15.709 34.909-34.909 34.909zM399.127-31.418h-328.145v34.909h328.145v-34.909zM399.127 38.4h-328.145v442.182h328.145v-442.182zM399.127 515.491h-328.145v40.727h328.145v-40.727zM368.291 648.145l-43.636-22.691 8.145 48.873-35.491 34.327 48.873 6.982 22.109 44.218 21.527-44.218 48.873-6.982-35.491-34.327 8.145-48.873-43.055 22.691zM514.909 781.964l81.455 11.636 36.655 73.891 36.655-73.891 81.455-11.636-58.764-57.6 13.964-80.873-72.727 38.4-72.727-38.4 13.964 80.873-59.927 57.6zM796.509-31.418h-327.564v34.909h328.145v-34.909zM796.509 38.4h-327.564v442.182h328.145v-442.182zM796.509 515.491h-327.564v40.727h328.145v-40.727zM826.764 708.655l48.873 6.982 22.109 44.218 21.527-44.218 48.873-6.982-35.491-34.327 8.145-48.873-43.636 22.691-43.636-22.691 8.145 48.873-34.909 34.327zM1194.473-31.418h-328.145v34.909h328.145v-34.909zM1194.473 38.4h-328.145v442.182h328.145v-442.182zM1194.473 515.491h-328.145v40.727h328.145v-40.727z" />
<glyph unicode="&#xe908;" glyph-name="desktop" d="M0 896v-640h1024v640h-1024zM960 320h-896v512h896v-512zM672 192h-320l-32-128-64-64h512l-64 64z" />
<glyph unicode="&#xe909;" glyph-name="clipboard" d="M928 832h-288c0 70.692-57.306 128-128 128-70.692 0-128-57.308-128-128h-288c-17.672 0-32-14.328-32-32v-832c0-17.674 14.328-32 32-32h832c17.674 0 32 14.326 32 32v832c0 17.672-14.326 32-32 32zM512 896c35.346 0 64-28.654 64-64s-28.654-64-64-64c-35.346 0-64 28.654-64 64s28.654 64 64 64zM896 0h-768v768h128v-96c0-17.672 14.328-32 32-32h448c17.674 0 32 14.328 32 32v96h128v-768zM448 101.49l-205.254 237.254 58.508 58.51 146.746-114.744 274.742 242.744 58.514-58.508z" />
<glyph unicode="&#xe90a;" glyph-name="gift" horiz-adv-x="896" d="M832 704h-96c19.2 25.6 32 57.6 32 96 0 89.6-70.4 160-160 160s-160-70.4-160-160c0-38.4 12.8-70.4 32-96h-64c19.2 25.6 32 57.6 32 96 0 89.6-70.4 160-160 160s-160-70.4-160-160c0-38.4 12.8-70.4 32-96h-96c-38.4 0-64-25.6-64-64v-640c0-38.4 25.6-64 64-64h768c38.4 0 64 25.6 64 64v640c0 38.4-25.6 64-64 64zM499.2 800c0 57.6 44.8 108.8 108.8 108.8s108.8-44.8 108.8-108.8c0-44.8-25.6-76.8-64-96h-89.6c-38.4 19.2-64 51.2-64 96zM179.2 800c0 57.6 44.8 108.8 108.8 108.8s108.8-44.8 108.8-108.8c0-44.8-25.6-76.8-64-96h-89.6c-38.4 19.2-64 51.2-64 96zM64 640h320v-256h-320v256zM64 256h320v-256h-320v256zM832 0h-320v256h320v-256zM832 384h-320v256h320v-256z" />
<glyph unicode="&#xe90b;" glyph-name="earth" d="M512 960c-282.77 0-512-229.23-512-512s229.23-512 512-512 512 229.23 512 512-229.23 512-512 512zM512-0.002c-62.958 0-122.872 13.012-177.23 36.452l233.148 262.29c5.206 5.858 8.082 13.422 8.082 21.26v96c0 17.674-14.326 32-32 32-112.99 0-232.204 117.462-233.374 118.626-6 6.002-14.14 9.374-22.626 9.374h-128c-17.672 0-32-14.328-32-32v-192c0-12.122 6.848-23.202 17.69-28.622l110.31-55.156v-187.886c-116.052 80.956-192 215.432-192 367.664 0 68.714 15.49 133.806 43.138 192h116.862c8.488 0 16.626 3.372 22.628 9.372l128 128c6 6.002 9.372 14.14 9.372 22.628v77.412c40.562 12.074 83.518 18.588 128 18.588 70.406 0 137.004-16.26 196.282-45.2-4.144-3.502-8.176-7.164-12.046-11.036-36.266-36.264-56.236-84.478-56.236-135.764s19.97-99.5 56.236-135.764c36.434-36.432 85.218-56.264 135.634-56.26 3.166 0 6.342 0.080 9.518 0.236 13.814-51.802 38.752-186.656-8.404-372.334-0.444-1.744-0.696-3.488-0.842-5.224-81.324-83.080-194.7-134.656-320.142-134.656z" />
<glyph unicode="&#xe90c;" glyph-name="star-empty" d="M1024 562.95l-353.78 51.408-158.22 320.582-158.216-320.582-353.784-51.408 256-249.538-60.432-352.352 316.432 166.358 316.432-166.358-60.434 352.352 256.002 249.538zM512 206.502l-223.462-117.48 42.676 248.83-180.786 176.222 249.84 36.304 111.732 226.396 111.736-226.396 249.836-36.304-180.788-176.222 42.678-248.83-223.462 117.48z" />
<glyph unicode="&#xe90d;" glyph-name="checkmark" d="M864 832l-480-480-224 224-160-160 384-384 640 640z" />
<glyph unicode="&#xe90e;" glyph-name="tablet" d="M800 960h-640c-52.8 0-96-43.2-96-96v-832c0-52.8 43.2-96 96-96h640c52.8 0 96 43.2 96 96v832c0 52.8-43.2 96-96 96zM480-32c-17.672 0-32 14.326-32 32s14.328 32 32 32 32-14.326 32-32-14.328-32-32-32zM768 64h-576v768h576v-768z" />
<glyph unicode="&#xe90f;" glyph-name="ballywulff" d="M112 620.8h169.6c64 0 131.2-16 131.2-92.8 0-32-19.2-60.8-48-73.6 38.4-12.8 64-44.8 64-86.4 0-86.4-64-115.2-140.8-115.2h-176v368zM208 476.8h73.6c16 0 38.4 9.6 38.4 35.2s-19.2 35.2-38.4 35.2h-73.6v-70.4zM208 332.8h76.8c28.8 0 51.2 9.6 51.2 41.6s-22.4 41.6-51.2 41.6h-76.8v-83.2zM841.6 256h-96l-51.2 252.8-51.2-252.8h-96l-99.2 364.8h96l51.2-268.8 54.4 268.8h89.6l54.4-268.8 51.2 268.8h96l-99.2-364.8z" />
<glyph unicode="&#xe910;" glyph-name="blueprint" d="M505.6 835.2c19.2 0 35.2 0 57.6 0 19.2 0 41.6 0 60.8-3.2s38.4-6.4 54.4-9.6c16-3.2 32-9.6 44.8-16 25.6-16 51.2-38.4 67.2-67.2 19.2-28.8 28.8-64 28.8-105.6 0-44.8-9.6-83.2-32-112-22.4-32-51.2-54.4-89.6-70.4v-3.2c51.2-9.6 89.6-35.2 115.2-70.4s41.6-76.8 41.6-128c0-28.8-6.4-57.6-16-86.4s-25.6-54.4-48-76.8-48-38.4-76.8-54.4c-32-12.8-67.2-19.2-108.8-19.2h-396.8v822.4h297.6zM534.4 483.2c60.8 0 105.6 9.6 134.4 32s41.6 54.4 41.6 99.2c0 28.8-3.2 51.2-12.8 70.4-9.6 16-22.4 28.8-38.4 38.4s-35.2 16-54.4 19.2c-22.4 3.2-44.8 3.2-67.2 3.2h-217.6v-262.4h214.4zM592 105.6c48 0 86.4 12.8 112 38.4 28.8 25.6 41.6 60.8 41.6 108.8 0 25.6-6.4 48-16 67.2s-22.4 32-38.4 41.6c-16 9.6-35.2 19.2-57.6 22.4s-44.8 6.4-67.2 6.4h-249.6v-284.8h275.2z" />
<glyph unicode="&#xe911;" glyph-name="wild" d="M550.4 812.8c-6.4-3.2-9.6-6.4-16-9.6s-16-9.6-22.4-16c-6.4-6.4-16-9.6-22.4-12.8-16-9.6-32-19.2-44.8-28.8-16-9.6-32-19.2-44.8-28.8-16-9.6-32-22.4-48-35.2s-28.8-25.6-44.8-38.4c-9.6-9.6-19.2-16-32-25.6-9.6-9.6-19.2-16-32-25.6-16-12.8-28.8-25.6-44.8-41.6-12.8-12.8-25.6-28.8-38.4-48s-22.4-38.4-25.6-57.6c-3.2-9.6-3.2-22.4-3.2-32s0-22.4 3.2-32c3.2-12.8 3.2-22.4 6.4-35.2s6.4-22.4 9.6-35.2c6.4 0 12.8-3.2 16 0 3.2 0 9.6 3.2 12.8 3.2 9.6 3.2 16 6.4 25.6 9.6s19.2 6.4 25.6 12.8c6.4 3.2 16 9.6 22.4 16s12.8 12.8 19.2 19.2c9.6 12.8 22.4 22.4 32 35.2s19.2 22.4 25.6 38.4c9.6 16 19.2 32 25.6 44.8 9.6 16 12.8 32 19.2 48 0 3.2 0 3.2 0 6.4s0 6.4 0 9.6c-6.4-3.2-9.6-3.2-16-6.4s-9.6-3.2-12.8-6.4-9.6-6.4-16-6.4c-6.4-3.2-9.6-6.4-16-6.4-3.2 0-6.4-3.2-9.6-3.2s-6.4 0-9.6 0c-3.2 0-9.6 3.2-12.8 6.4 0 3.2 0 6.4 3.2 9.6 6.4 3.2 9.6 6.4 16 9.6s9.6 6.4 16 9.6 22.4 9.6 32 16c9.6 6.4 22.4 9.6 32 16 6.4 3.2 12.8 6.4 19.2 3.2 6.4 0 12.8-3.2 16-6.4 3.2 0 3.2-3.2 6.4-6.4 0-3.2 3.2-6.4 3.2-9.6 6.4-28.8 0-57.6-12.8-86.4 0-3.2-3.2-6.4-3.2-12.8-3.2-16-9.6-28.8-19.2-41.6s-19.2-22.4-25.6-35.2c-3.2-6.4-9.6-9.6-12.8-16s-9.6-9.6-12.8-16l-16-16c-6.4-6.4-12.8-9.6-19.2-16s-12.8-9.6-19.2-16-25.6-19.2-41.6-25.6c-16-6.4-28.8-9.6-44.8-16-6.4 0-16-3.2-22.4-3.2s-16 0-22.4-3.2c-9.6 0-19.2 0-25.6 3.2-9.6 3.2-16 6.4-25.6 9.6 0 0-3.2 3.2-3.2 3.2 0 3.2-3.2 3.2-3.2 6.4s-3.2 6.4-3.2 12.8c0 3.2-3.2 6.4-3.2 12.8-3.2 9.6-3.2 16-6.4 25.6s-3.2 19.2-6.4 28.8c-9.6 38.4-6.4 80 6.4 118.4 3.2 9.6 6.4 16 12.8 22.4 3.2 6.4 9.6 16 16 22.4 16 25.6 35.2 51.2 57.6 73.6 19.2 22.4 41.6 44.8 64 64 9.6 9.6 19.2 16 28.8 25.6s19.2 16 32 25.6c12.8 9.6 25.6 16 38.4 25.6s25.6 19.2 38.4 25.6c6.4 3.2 12.8 6.4 16 12.8 6.4 3.2 9.6 9.6 16 12.8 9.6 6.4 19.2 12.8 28.8 19.2s19.2 12.8 28.8 16c12.8 9.6 28.8 16 41.6 25.6s28.8 16 41.6 25.6c6.4 6.4 16 9.6 25.6 12.8s16 6.4 25.6 12.8c6.4 3.2 12.8 6.4 19.2 6.4s12.8 0 22.4 0c6.4 0 12.8-3.2 16-6.4 6.4-3.2 9.6-6.4 16-9.6 0 0 3.2-3.2 3.2-3.2s0-3.2 3.2-3.2c0-3.2 0-6.4 3.2-9.6 0-3.2 0-6.4 3.2-9.6v0c0-9.6 0-19.2 3.2-28.8s3.2-19.2 0-28.8c-3.2-9.6-3.2-22.4-6.4-32 0-9.6-3.2-22.4-6.4-32s-6.4-16-9.6-25.6c-3.2-9.6-6.4-16-9.6-25.6 0-6.4-3.2-12.8-6.4-19.2s-3.2-12.8-6.4-19.2c0-3.2 0-3.2 0-6.4s0-3.2 0-6.4c0 0 0-3.2 0-3.2s0-3.2-3.2-3.2c-6.4-6.4-9.6-9.6-9.6-16s-3.2-12.8-6.4-19.2l-25.6-67.2c-3.2-9.6-6.4-22.4-12.8-32-3.2-12.8-6.4-22.4-12.8-35.2-3.2-9.6-6.4-16-9.6-25.6s-6.4-16-9.6-25.6c-3.2-9.6-6.4-19.2-9.6-28.8s-6.4-19.2-9.6-32c0 0 0-3.2-3.2-6.4 0-3.2 0-3.2-3.2-6.4-3.2-12.8-6.4-22.4-9.6-35.2s-6.4-22.4-9.6-35.2c-3.2-12.8-6.4-28.8-12.8-41.6-3.2-12.8-6.4-28.8-12.8-41.6 0-6.4-3.2-12.8-3.2-16 0-6.4-3.2-12.8-9.6-19.2 0 0 0-3.2 0-3.2s0-3.2 0-3.2l-6.4-54.4c0-6.4-3.2-12.8-6.4-19.2-3.2-3.2-6.4-9.6-9.6-16s-3.2-9.6-3.2-16c0-3.2 0-6.4 0-9.6s0-6.4 0-9.6 0-9.6 3.2-12.8c3.2 0 3.2-3.2 6.4 0s3.2 3.2 6.4 3.2c6.4 6.4 12.8 12.8 16 19.2s6.4 12.8 9.6 19.2c3.2 6.4 6.4 12.8 9.6 19.2 6.4 9.6 9.6 19.2 16 28.8s9.6 19.2 16 28.8c3.2 9.6 9.6 19.2 12.8 28.8s9.6 19.2 12.8 28.8c6.4 9.6 9.6 22.4 16 32s12.8 22.4 16 32c3.2 9.6 6.4 16 9.6 25.6s6.4 19.2 9.6 25.6c3.2 12.8 9.6 25.6 12.8 38.4s9.6 25.6 16 38.4c12.8 28.8 22.4 60.8 32 89.6 6.4 19.2 16 38.4 25.6 57.6 3.2 6.4 6.4 9.6 9.6 12.8 3.2 9.6 9.6 12.8 19.2 12.8 12.8 0 22.4-3.2 28.8-12.8s6.4-19.2 3.2-28.8c0-3.2-3.2-6.4-3.2-9.6s0-6.4 0-9.6c0 0 0-3.2 0-3.2s0-3.2 0-3.2-3.2-6.4-3.2-12.8c0-3.2 3.2-9.6 6.4-12.8s3.2-9.6 3.2-12.8c0-6.4 0-9.6 0-16s0-12.8 0-19.2c0-6.4 0-12.8 0-19.2 0-16 0-28.8 3.2-38.4 0-6.4 0-16 0-25.6 0-12.8 0-25.6 3.2-35.2s6.4-22.4 9.6-35.2c6.4 9.6 16 19.2 19.2 28.8 6.4 9.6 9.6 19.2 16 28.8 3.2 9.6 6.4 19.2 12.8 28.8s6.4 19.2 12.8 28.8c0 3.2 3.2 6.4 3.2 9.6 6.4 19.2 9.6 35.2 16 54.4 3.2 19.2 9.6 35.2 16 54.4s12.8 35.2 19.2 51.2c6.4 16 12.8 35.2 19.2 51.2 6.4 19.2 12.8 35.2 16 54.4 6.4 19.2 9.6 38.4 9.6 57.6 0 9.6 3.2 22.4 3.2 32 0 12.8 3.2 22.4 3.2 32s6.4 16 12.8 19.2c3.2 0 6.4 0 9.6-3.2 3.2 0 6.4-3.2 9.6-3.2 6.4-3.2 9.6-9.6 12.8-16 3.2-3.2 3.2-9.6 0-16-3.2-19.2-6.4-41.6-9.6-60.8-6.4-25.6-12.8-54.4-19.2-80-6.4-19.2-9.6-35.2-16-51.2s-12.8-32-19.2-51.2c-3.2-9.6-6.4-19.2-9.6-28.8s-6.4-19.2-9.6-28.8c0-3.2-3.2-6.4-3.2-9.6s0-6.4-3.2-9.6c0-3.2-3.2-6.4-3.2-9.6s-3.2-6.4-6.4-6.4c-3.2 0-3.2-3.2-3.2-9.6 0-3.2-3.2-6.4-3.2-9.6s0-6.4-3.2-9.6c0-9.6-3.2-16-9.6-25.6s-9.6-16-12.8-25.6c0-3.2-3.2-9.6-6.4-12.8s-3.2-9.6-3.2-12.8c-3.2-19.2-9.6-38.4-19.2-51.2-3.2-3.2-6.4-9.6-6.4-16-3.2-6.4-3.2-9.6-6.4-16-6.4-12.8-19.2-25.6-32-32-9.6-6.4-16-9.6-25.6-6.4-6.4 0-16 3.2-25.6 3.2-3.2 0-6.4 3.2-12.8 9.6-3.2 3.2-6.4 6.4-9.6 9.6s-6.4 6.4-9.6 9.6c-9.6 9.6-16 22.4-19.2 32-6.4 12.8-9.6 22.4-9.6 38.4 0 6.4-3.2 16-3.2 22.4s0 16-3.2 22.4c0 0-3.2-3.2-3.2-3.2s-3.2 0-3.2-3.2c-3.2-6.4-6.4-12.8-6.4-16-3.2-6.4-6.4-9.6-6.4-16-3.2-16-9.6-28.8-16-41.6s-12.8-25.6-19.2-38.4c-3.2-9.6-6.4-16-12.8-25.6-3.2-6.4-6.4-16-12.8-25.6-3.2-9.6-6.4-16-12.8-22.4-3.2-6.4-9.6-16-12.8-22.4s-6.4-9.6-9.6-16c-3.2-6.4-6.4-9.6-9.6-16-6.4-12.8-12.8-25.6-19.2-41.6-6.4-12.8-16-28.8-25.6-38.4-3.2-6.4-9.6-12.8-16-16-6.4-6.4-12.8-9.6-19.2-12.8-3.2-3.2-6.4-3.2-6.4-3.2 0-3.2-3.2-6.4-6.4-6.4s-6.4 0-9.6-3.2c-6.4 0-12.8 0-16 3.2s-9.6 6.4-12.8 9.6-9.6 6.4-12.8 9.6c-6.4 3.2-9.6 9.6-12.8 16s-6.4 9.6-9.6 19.2c-3.2 6.4-6.4 16-9.6 22.4s-3.2 16-6.4 22.4c0 12.8-3.2 25.6-3.2 35.2s0 25.6 3.2 35.2c0 19.2 3.2 41.6 9.6 60.8s9.6 38.4 16 60.8c6.4 28.8 12.8 60.8 22.4 89.6s19.2 57.6 25.6 89.6c9.6 35.2 22.4 67.2 35.2 102.4 12.8 32 25.6 67.2 38.4 99.2 9.6 19.2 16 41.6 22.4 60.8s16 41.6 22.4 60.8c3.2 6.4 3.2 12.8 6.4 19.2s6.4 12.8 6.4 19.2c0 0 3.2 3.2 3.2 6.4s0 3.2 0 6.4h-3.2c6.4-3.2 0-6.4-3.2-9.6z" />
<glyph unicode="&#xe912;" glyph-name="shield-ok" d="M934.4 377.6c-28.8-272-416-422.4-416-422.4h-6.4c0 0-387.2 150.4-416 422.4-12.8 150.4-25.6 268.8-32 339.2 3.2 0 3.2 0 6.4 0 112 0 201.6 89.6 204.8 198.4 0 0 96 16 243.2 16s243.2-16 243.2-16c0-108.8 92.8-198.4 204.8-198.4 3.2 0 3.2 0 6.4 0-9.6-70.4-22.4-188.8-38.4-339.2zM934.4 700.8c-102.4 0-188.8 83.2-188.8 185.6 0 0-89.6 16-227.2 16s-227.2-16-227.2-16c0-102.4-86.4-185.6-188.8-185.6-3.2 0-3.2 0-6.4 0 6.4-67.2 19.2-176 32-320 25.6-256 384-393.6 384-393.6h6.4c0 0 358.4 140.8 384 393.6 12.8 140.8 25.6 249.6 32 320 3.2 0 0 0 0 0zM454.4 300.8c-6.4-6.4-16-6.4-22.4 0 0 0 0 0 0 0s0 0 0 0 0 0 0 0-3.2 3.2-3.2 3.2l-99.2 169.6c-3.2 6.4-3.2 19.2 6.4 22.4 6.4 3.2 19.2 3.2 22.4-6.4l89.6-153.6 265.6 262.4c6.4 6.4 16 6.4 22.4 0s6.4-16 0-22.4l-281.6-275.2z" />
<glyph unicode="&#xe913;" glyph-name="lock-closed" d="M512 352c-51.2 0-96-44.8-96-96 0-25.6 6.4-44.8 25.6-64 0 0 0-6.4 0-6.4 0-38.4 32-70.4 70.4-70.4s70.4 32 70.4 70.4c0 0 0 6.4 0 6.4 12.8 19.2 25.6 38.4 25.6 64 0 57.6-44.8 96-96 96zM537.6 224v-32c0-12.8-12.8-25.6-25.6-25.6s-25.6 12.8-25.6 25.6v32c-12.8 6.4-25.6 25.6-25.6 38.4 0 25.6 19.2 44.8 44.8 44.8s44.8-19.2 44.8-44.8c12.8-19.2 0-32-12.8-38.4zM793.6 544v134.4c0 153.6-128 281.6-281.6 281.6s-275.2-128-275.2-281.6v-140.8c-51.2 6.4-96-38.4-96-89.6v-416c0-51.2 44.8-96 96-96h556.8c51.2 0 96 44.8 96 96v416c-6.4 51.2-44.8 96-96 96zM281.6 678.4c0 128 102.4 230.4 230.4 230.4s230.4-102.4 230.4-230.4v-140.8h-460.8v140.8zM838.4 32c0-25.6-19.2-44.8-44.8-44.8h-556.8c-25.6 0-44.8 19.2-44.8 44.8v416c0 25.6 19.2 44.8 44.8 44.8h556.8c25.6 0 44.8-19.2 44.8-44.8v-416z" />
<glyph unicode="&#xe914;" glyph-name="help" d="M206.801 409.642l-100.065-80.052c-3.336-3.336-13.342-3.336-20.013 3.336-3.336 3.336-3.336 6.671-3.336 10.007v0 66.71c-20.013 3.336-40.026 13.342-53.368 26.684v0 0c-20.013 20.013-30.020 46.697-30.020 73.381v350.228c0 26.684 10.007 53.368 30.020 70.046v0c16.678 20.013 43.362 30.020 70.046 30.020h580.378c26.684 0 53.368-10.007 70.046-30.020 16.678-16.678 30.020-43.362 30.020-70.046v-350.228c0-26.684-10.007-53.368-30.020-70.046v0c-16.678-16.678-43.362-26.684-70.046-26.684h-473.642zM113.407 376.287l76.717 60.039c3.336 3.336 6.671 3.336 10.007 3.336h476.977c16.678 0 33.355 6.671 46.697 20.013v0c13.342 13.342 20.013 30.020 20.013 46.697v353.564c0 16.678-6.671 36.691-20.013 46.697-10.007 13.342-26.684 20.013-46.697 20.013h-577.042c-16.678 0-33.355-6.671-46.697-20.013v0c-13.342-10.007-20.013-26.684-20.013-46.697v-350.228c0-16.678 6.671-36.691 20.013-46.697v0c13.342-13.342 30.020-20.013 46.697-20.013v0c10.007 0 16.678-6.671 16.678-16.678v-50.033zM30.020 933.316h20.013c-3.336 3.336-13.342 3.336-20.013 0zM747.153 439.661h-20.013c3.336-6.671 13.342-6.671 20.013 0zM140.091 803.231c-10.007 0-16.678 6.671-16.678 16.678s6.671 16.678 16.678 16.678h496.99c10.007 0 16.678-6.671 16.678-16.678s-6.671-16.678-16.678-16.678h-496.99zM140.091 706.502c-10.007 0-16.678 6.671-16.678 16.678s6.671 16.678 16.678 16.678h496.99c10.007 0 16.678-6.671 16.678-16.678s-6.671-16.678-16.678-16.678h-496.99zM823.87 409.642c-10.007 0-16.678 6.671-16.678 16.678s6.671 16.678 16.678 16.678h63.375c10.007 0 16.678-6.671 16.678-16.678s-6.671-16.678-16.678-16.678h-63.375zM386.919 312.912c-10.007 0-16.678 6.671-16.678 16.678s6.671 16.678 16.678 16.678h496.99c10.007 0 16.678-6.671 16.678-16.678s-6.671-16.678-16.678-16.678h-496.99zM386.919 212.847c-10.007 0-16.678 6.671-16.678 16.678s6.671 16.678 16.678 16.678h496.99c10.007 0 16.678-6.671 16.678-16.678s-6.671-16.678-16.678-16.678h-496.99zM386.919 116.117c-10.007 0-16.678 6.671-16.678 16.678s6.671 16.678 16.678 16.678h350.228c10.007 0 16.678-6.671 16.678-16.678s-6.671-16.678-16.678-16.678h-350.228zM246.827 342.932c0 10.007 6.671 16.678 16.678 16.678s16.678-6.671 16.678-16.678v-226.814c0-16.678 6.671-33.355 20.013-46.697v0c13.342-10.007 30.020-20.013 46.697-20.013h476.977c3.336 0 10.007-3.336 10.007-3.336l76.717-60.039v50.033c0 10.007 6.671 16.678 16.678 16.678v0c16.678 0 36.691 6.671 46.697 20.013v0c13.342 13.342 20.013 30.020 20.013 46.697v330.215c0 16.678-6.671 36.691-20.013 46.697v0c-13.342 10.007-30.020 20.013-46.697 20.013h-83.388c-10.007 0-16.678 6.671-16.678 16.678s6.671 16.678 16.678 16.678h83.388c26.684 0 50.033-10.007 70.046-26.684v0c16.678-16.678 30.020-43.362 30.020-70.046v-330.215c0-26.684-10.007-53.368-30.020-70.046v0 0c-13.342-13.342-33.355-23.349-53.368-26.684v-66.71c0-3.336 0-6.671-3.336-10.007-6.671-6.671-16.678-6.671-23.349-3.336l-100.065 80.052h-470.306c-26.684 0-50.033 10.007-70.046 26.684v0c-16.678 16.678-30.020 43.362-30.020 70.046v220.143zM140.091 606.436c-10.007 0-16.678 6.671-16.678 16.678s6.671 16.678 16.678 16.678h350.228c10.007 0 16.678-6.671 16.678-16.678s-6.671-16.678-16.678-16.678h-350.228z" />
<glyph unicode="&#xe915;" glyph-name="login" d="M384 448h-320v128h320v128l192-192-192-192zM1024 960v-832l-384-192v192h-384v256h64v-192h320v576l256 128h-576v-256h-64v320z" />
<glyph unicode="&#xe916;" glyph-name="chevron-thin-up" d="M132.198 261.581c-13.926-13.722-36.301-13.722-50.125 0s-13.875 35.891 0 49.613l404.89 400.896c13.824 13.722 36.198 13.722 50.125 0l404.89-400.896c13.824-13.722 13.824-35.891 0-49.613-13.875-13.722-36.301-13.722-50.074 0l-379.904 365.619-379.802-365.619z" />
<glyph unicode="&#xe917;" glyph-name="chevron-thin-right" d="M678.4 460.8l-365.619 379.904c-13.722 13.824-13.722 36.198 0 50.125 13.722 13.824 35.891 13.824 49.613 0l400.896-404.89c13.722-13.875 13.722-36.301 0-50.125l-400.896-404.89c-13.722-13.875-35.891-13.824-49.613 0-13.722 13.773-13.722 36.198 0 50.125l365.619 379.75z" />
<glyph unicode="&#xe918;" glyph-name="chevron-thin-left" d="M711.219 80.998c13.722-13.926 13.722-36.301 0-50.125s-35.891-13.875-49.613 0l-400.896 404.89c-13.722 13.824-13.722 36.198 0 50.125l400.896 404.89c13.722 13.824 35.891 13.824 49.613 0 13.722-13.875 13.722-36.301 0-50.125l-365.619-379.853 365.619-379.802z" />
<glyph unicode="&#xe919;" glyph-name="cherry" horiz-adv-x="1165" d="M610.155 357.508c-5.306 94.913-8.253 386.137 129.695 530.57 14.149 9.432 22.991 14.738 22.991 14.738 14.149 8.253 18.275 26.528 10.022 40.677-4.127 6.485-10.022 10.611-16.507 12.38-10.611 5.895-24.17 5.306-33.603-2.948-7.074-5.895-14.149-12.38-20.633-18.865-83.712-55.415-316.573-223.429-414.434-430.351-50.109 21.812-161.529 51.878-239.346-57.184 0 0-168.603-246.42 124.389-360.788 0 0 66.616-22.402 139.717 11.201-11.79 54.826-8.253 99.629-8.253 103.756v0.59c11.79 102.577 71.332 153.276 124.979 178.036-17.096 30.066-44.804 62.489-90.197 94.913 58.363 126.158 175.678 240.525 272.359 318.931-65.437-156.223-64.847-346.639-60.721-430.351-36.55-0.59-185.699-12.38-202.796-168.014 0 0-27.118-297.709 284.739-254.674 0 0 179.215 34.192 159.761 263.516 0 0.59-4.716 124.979-182.162 153.865zM147.381 444.758c-1.179-0.59-56.594-40.088-61.9-108.472-0.59-9.432-8.253-16.507-17.686-16.507-0.59 0-1.179 0-1.179 0-10.022 0.59-17.096 9.432-16.507 18.865 6.485 86.070 74.28 132.642 77.227 135.001 8.253 5.306 18.865 3.537 24.76-4.716 5.306-7.664 3.537-18.275-4.716-24.17zM434.478 116.983c4.127-8.843 0-19.454-8.843-23.581-2.358-1.179-4.716-1.769-7.664-1.769-6.485 0-12.969 3.537-15.917 10.022-35.961 78.406 0 152.097 1.179 155.044 4.127 8.843 14.738 12.38 23.581 7.664 8.843-4.127 12.38-14.738 7.664-23.581 0.59 0-28.887-61.31 0-123.8zM801.161 893.384c18.275-137.359 231.682-281.202 231.682-281.202-145.612 37.14-295.351 212.228-295.351 212.228-9.432-393.801 427.404-268.822 427.404-268.822-91.376 394.98-363.735 337.796-363.735 337.796z" />
<glyph unicode="&#xe91a;" glyph-name="home" d="M1024 369.556l-512 397.426-512-397.428v162.038l512 397.426 512-397.428zM896 384v-384h-256v256h-256v-256h-256v384l384 288z" />
<glyph unicode="&#xe91b;" glyph-name="logout" d="M768 320v128h-320v128h320v128l192-192zM704 384v-256h-320v-192l-384 192v832h704v-320h-64v256h-512l256-128v-576h256v192z" />
<glyph unicode="&#xe91c;" glyph-name="megaphone" d="M994 478h-90c-16.568 0-30-13.432-30-30s13.432-30 30-30h90c16.568 0 30 13.432 30 30s-13.432 30-30 30zM955.214 289.212l-60 60c-11.714 11.714-30.71 11.714-42.426 0-11.718-11.714-11.718-30.71 0-42.426l60-60c11.714-11.716 30.712-11.716 42.426 0 11.716 11.716 11.716 30.71 0 42.426zM955.212 649.212c-11.714 11.714-30.71 11.714-42.426 0l-60-60c-11.716-11.716-11.716-30.71 0-42.426s30.712-11.714 42.426 0l60 60c11.716 11.716 11.716 30.71 0 42.426zM694 838c-45.062 0-82.49-33.29-88.994-76.568l-27.366-27.366c-47.63-47.63-117.774-76.066-187.64-76.066h-180c-39.11 0-72.456-25.082-84.84-60h-5.16c-66.168 0-120-53.832-120-120s53.832-120 120-120h5.16c9.054-25.528 29.312-45.786 54.84-54.84v-155.16c0-49.626 40.376-90 90.002-90 49.624 0 89.998 40.374 89.998 90v150h30c69.864 0 140.008-28.436 187.64-76.066l27.366-27.366c6.504-43.276 43.934-76.568 88.996-76.568 49.624 0 89.998 40.374 89.998 90v540c0 49.626-40.374 90-90 90zM120 418c-33.084 0-60 26.916-60 60s26.916 60 60 60v-120zM300 148c0-16.542-13.458-30-30-30s-30 13.458-30 30v150h60v-150zM360 358h-150c-16.542 0-30 13.458-30 30v180c0 16.542 13.458 30 30 30h150v-240zM604 279.308c-50.682 43.864-115.844 71.118-184.2 77.332l0.002 242.722c68.354 6.212 133.516 33.466 184.198 77.332v-397.386zM724 208c0-16.542-13.458-30-29.998-30h-0.002c-16.542 0-30 13.458-30 30v540c0 16.542 13.458 30 30.002 30 16.54 0 29.998-13.458 29.998-30v-540z" />
<glyph unicode="&#xe91d;" glyph-name="live-casino" d="M512.072 960c-0.021 0-0.047 0-0.072 0-282.77 0-512-229.23-512-512s229.23-512 512-512c282.744 0 511.959 229.189 512 511.924v0.004c0 0.021 0 0.047 0 0.072 0 282.744-229.189 511.959-511.924 512h-0.004zM512.072 23.994c-0.021 0-0.047 0-0.072 0-234.212 0-424.078 189.866-424.078 424.078s189.866 424.078 424.078 424.078c234.186 0 424.037-189.825 424.078-424.001v-0.004c0-234.201-189.816-424.068-423.998-424.15h-0.008zM613.287 512.081c4.678 4.713 7.57 11.205 7.57 18.372 0 14.404-11.677 26.080-26.080 26.080s-26.080-11.677-26.080-26.080c0-2.187 0.269-4.312 0.777-6.342l-0.038 0.18-40.746-40.818c-4.875 2.361-10.603 3.74-16.652 3.74s-11.778-1.38-16.886-3.842l0.233 0.101-40.746 40.818c0.474 1.861 0.745 3.998 0.745 6.199 0 14.444-11.709 26.153-26.153 26.153s-26.153-11.709-26.153-26.153c0-12.256 8.431-22.543 19.809-25.378l0.18-0.038c1.854-0.482 3.983-0.759 6.177-0.759s4.323 0.277 6.354 0.798l-0.177-0.038 40.746-40.746c-2.31-4.895-3.666-10.631-3.684-16.682v-0.006c0.006-6.040 1.391-11.754 3.858-16.848l-0.101 0.231-40.818-40.746c-1.861 0.474-3.998 0.745-6.199 0.745-14.444 0-26.153-11.709-26.153-26.153s11.709-26.153 26.153-26.153c12.256 0 22.543 8.431 25.378 19.809l0.038 0.18c0.482 1.854 0.759 3.983 0.759 6.177s-0.277 4.323-0.798 6.354l0.038-0.177 40.746 40.746c4.881-2.328 10.608-3.687 16.652-3.687s11.771 1.36 16.892 3.79l-0.239-0.102 40.746-40.746c-0.464-1.84-0.73-3.953-0.73-6.128 0-14.404 11.677-26.080 26.080-26.080s26.080 11.677 26.080 26.080c0 12.221-8.406 22.48-19.752 25.307l-0.18 0.038c-1.845 0.448-3.963 0.705-6.141 0.705s-4.296-0.257-6.325-0.742l0.184 0.037-40.746 40.818c2.328 4.881 3.687 10.608 3.687 16.652s-1.36 11.771-3.79 16.892l0.102-0.239 40.746 40.746c1.788-0.439 3.841-0.69 5.952-0.69 7.329 0 13.949 3.031 18.677 7.908l0.006 0.007zM512.072 813.559c-202.013 0-365.776-163.764-365.776-365.776s163.764-365.776 365.776-365.776c202.013 0 365.776 163.764 365.776 365.776v0c-0.206 201.93-163.846 365.571-365.756 365.776h-0.020zM741.017 717.763c35.322-29.963 64.377-66.077 85.76-106.845l0.934-1.955-57.29-33.088c-18.136 35.911-42.127 66.25-71.054 90.986l-0.397 0.331 42.408 50.571zM512.072 258.79c-0.021 0-0.047 0-0.072 0-104.537 0-189.282 84.744-189.282 189.282s84.744 189.282 189.282 189.282c104.512 0 189.241-84.703 189.282-189.205v-0.004c-0.041-104.51-84.711-189.231-189.198-189.354h-0.012zM606.93 192.253c-28.266-10.877-60.968-17.182-95.142-17.194h-6.651v72.245h6.647c0.019 0 0.041 0 0.062 0 25.366 0 49.63 4.718 71.962 13.323l-1.369-0.464zM242.96 394.033l-6.574-1.156-6.43-1.084c-3.538 16.965-5.563 36.46-5.563 56.428 0 10.661 0.577 21.187 1.702 31.549l-0.113-1.283 13.076-2.312c-0.924-8.456-1.452-18.264-1.452-28.194 0-19.092 1.949-37.729 5.659-55.723l-0.306 1.774zM240.792 475.959c4.059 38.791 15.729 74.111 33.5 105.524l-0.701-1.346 62.131-36.122c-12.978-23.369-21.556-50.874-23.869-80.142l-0.044-0.7-71.017 12.498zM325.608 646.674c26.482 25.109 58.176 45.017 93.258 57.911l1.889 0.607 24.563-67.477c-28.714-10.428-53.26-26.164-73.569-46.188l0.023 0.023zM315.421 406.82c6.073-28.32 17.372-53.292 32.92-75.015l-0.41 0.603-62.347-36.122c-19.093 28.017-33.321 60.996-40.592 96.509l-0.298 1.744 70.728 12.426zM384.415 293.035c19.594-16.257 42.761-29.009 68.075-36.896l1.425-0.383-24.563-67.549c-35.013 11.409-65.308 28.411-91.47 50.206l0.441-0.357zM505.787 648.696v71.811h6.647c37.257-0.043 72.735-7.608 105.014-21.257l-1.776 0.667-24.563-67.188c-23.278 10.37-50.426 16.471-78.982 16.616h-6.339zM643.052 600.581l46.092 54.978c27.936-23.926 50.771-52.902 67.262-85.622l0.721-1.577-62.347-36.122c-12.733 26.907-30.172 49.616-51.465 67.978l-0.263 0.221zM683.51 343.462l62.131-36.122c-18.696-30.682-42.132-56.489-69.603-77.235l-0.691-0.5-46.237 55.123c21.839 15.842 39.983 35.298 53.901 57.658l0.499 0.861zM705.183 394.033c4.587 16.005 7.226 34.388 7.226 53.387 0 0.229 0 0.459-0.001 0.688v-0.036c0 0.033 0 0.072 0 0.111 0 10.157-0.762 20.136-2.231 29.884l0.136-1.096 70.8 12.498c1.977-12.305 3.106-26.491 3.106-40.941 0-23.669-3.031-46.631-8.725-68.518l0.417 1.887-70.945 12.498zM777.934 381.173l6.574-1.156 6.502-1.084c-7.446-29.893-18.559-56.182-33.085-80.172l0.72 1.28-5.635 3.251-5.852 3.396c13.149 21.416 23.799 46.192 30.644 72.504l0.422 1.908zM789.637 490.408l-6.574-1.156c-4.633 29.863-13.421 56.743-25.857 81.473l0.715-1.57 5.78 3.396 5.707 3.251c12.473-24.411 21.816-52.747 26.521-82.624l0.209-1.614zM694.13 661.845l-4.335-5.129c-21.046 18.091-45.306 33.267-71.664 44.47l-1.809 0.683 2.24 6.285 2.24 6.141c29.72-12.374 55.325-28.265 77.915-47.579l-0.397 0.331-4.19-4.985zM505.787 802.073h6.647c0.195 0 0.425 0.001 0.655 0.001 47.143 0 92.11-9.316 133.161-26.208l-2.33 0.849-22.54-62.347c-32.197 13.632-69.63 21.591-108.913 21.673h-6.679zM505.787 735.535v-13.221c-30.754-0.687-59.961-6.402-87.126-16.351l1.877 0.601-2.312 6.285-2.24 6.213c26.646 9.789 57.415 15.767 89.486 16.466l0.315 0.005zM392.868 781.555l22.613-61.914c-38.79-14.039-72.068-34.763-100.068-61.045l0.153 0.142-42.408 50.571c33.536 30.774 73.358 55.323 117.247 71.453l2.463 0.792zM315.927 658.233l4.19-4.985 4.335-5.202c-20.446-19.186-37.86-41.272-51.663-65.671l-0.714-1.373-5.852 3.323-5.635 3.251c15.334 27.165 33.732 50.443 55.176 70.504l0.164 0.152zM203.008 620.449l57.146-32.582c-17.889-31.552-30.205-68.583-34.562-108.013l-0.116-1.294-65.020 11.487c6.008 48.684 21.088 92.783 43.535 132.135l-0.91-1.732zM214.929 255.612c-23.564 35.632-41.159 77.454-50.194 122.373l-0.378 2.25 65.020 11.415c7.904-39.054 22.761-73.633 43.336-104.023l-0.64 1.002-57.218-33.016zM278.215 291.734l5.78 3.396c15.246-22.477 32.807-41.829 52.728-58.447l0.445-0.361-4.335-5.202-4.19-4.985c-21.509 17.863-40.030 38.266-55.412 60.969l-0.65 1.017zM401.465 111.122c-44.45 14.936-82.883 36.753-116.157 64.54l0.565-0.459 42.408 50.571c27.058-22.548 58.909-40.455 93.683-51.938l2.042-0.584-22.613-62.058zM426.317 180.26l2.312 6.285c22.951-7.546 49.405-12.178 76.853-12.782l0.305-0.005v-13.221c-29.197 0.574-57.044 5.5-83.194 14.153l1.99-0.57 2.24 6.141zM511.928 93.566h-6.647v66.032h6.647c0.043 0 0.094 0 0.145 0 36.101 0 70.642 6.678 102.455 18.867l-1.963-0.661 22.54-61.986c-36.494-13.983-78.706-22.089-122.809-22.107h-0.007zM612.276 178.165l-2.24 6.141-2.312 6.285c26.215 9.921 48.886 22.59 69.316 38.063l-0.683-0.496 4.335-5.129 4.19-4.985c-20.78-15.917-44.644-29.363-70.289-39.219l-1.956-0.661zM727.868 167.112l-42.48 50.571c29.539 22.402 54.129 49.57 73.041 80.581l0.721 1.273 57.29-33.088c-23.668-39.058-53.127-72.015-87.617-98.803l-0.81-0.606zM791.805 378.428c5.425 20.836 8.539 44.755 8.539 69.403 0 15.385-1.214 30.487-3.55 45.215l0.213-1.627 65.020 11.487c2.755-16.603 4.33-35.735 4.33-55.235 0-28.636-3.395-56.478-9.805-83.147l0.491 2.417-65.020 11.487z" />
<glyph unicode="&#xe91e;" glyph-name="plus" d="M992 576h-352v352c0 17.672-14.328 32-32 32h-192c-17.672 0-32-14.328-32-32v-352h-352c-17.672 0-32-14.328-32-32v-192c0-17.672 14.328-32 32-32h352v-352c0-17.672 14.328-32 32-32h192c17.672 0 32 14.328 32 32v352h352c17.672 0 32 14.328 32 32v192c0 17.672-14.328 32-32 32z" />
<glyph unicode="&#xe91f;" glyph-name="arrow-left" d="M402.746 82.746l-320 320c-24.994 24.992-24.994 65.516 0 90.51l320 320c24.994 24.992 65.516 24.992 90.51 0 24.994-24.994 24.994-65.516 0-90.51l-210.746-210.746h613.49c35.346 0 64-28.654 64-64s-28.654-64-64-64h-613.49l210.746-210.746c12.496-12.496 18.744-28.876 18.744-45.254s-6.248-32.758-18.744-45.254c-24.994-24.994-65.516-24.994-90.51 0z" />
<glyph unicode="&#xe920;" glyph-name="facebook" d="M672 768c-88.366 0-160-71.634-160-160v-96h-128v-128h128v-448h128v448h144l32 128h-176v96c0 17.672 14.326 32 32 32h160v128h-160z" />
<glyph unicode="&#xe921;" glyph-name="pen" d="M814.729 165.977l-282.598 545.707-7.796 13.643-114.988 224.13c-5.847 9.745-17.541 13.643-25.336 7.796l-165.661-85.754c-3.898-1.949-7.796-5.847-9.745-11.694s-1.949-9.745 1.949-15.592l77.958-150.069 44.826-87.703 280.649-543.758c1.949-1.949 3.898-5.847 5.847-7.796l163.712-114.988c3.898-1.949 7.796-3.898 11.694-3.898s5.847 0 9.745 1.949c5.847 3.898 9.745 9.745 9.745 17.541l1.949 200.742c0 3.898 0 5.847-1.949 9.745zM253.43 846.162l130.58 68.213 60.418-114.988-130.58-68.213-60.418 114.988zM329.439 696.092l130.58 68.213 17.541-33.132 9.745-19.49-64.315-35.081-66.264-33.132-27.285 52.622zM773.801-5.531l-130.58 91.601-268.956 522.32 48.724 25.336 249.466-485.29c3.898-5.847 9.745-9.745 17.541-9.745 3.898 0 5.847 0 9.745 1.949 9.745 5.847 13.643 17.541 7.796 25.336l-249.466 485.29 48.724 25.336 268.956-522.32-1.949-159.814z" />
<glyph unicode="&#xe922;" glyph-name="news" d="M896 704v128h-896v-704c0-35.346 28.654-64 64-64h864c53.022 0 96 42.978 96 96v544h-128zM832 128h-768v640h768v-640zM128 640h640v-64h-640zM512 512h256v-64h-256zM512 384h256v-64h-256zM512 256h192v-64h-192zM128 512h320v-320h-320z" />
<glyph unicode="&#xe923;" glyph-name="game-controller" d="M995.533 493.517c-45.158 252.211-146.125 326.605-199.834 326.605-83.814 0-105.318-62.31-283.699-64.41-178.381 2.099-199.885 64.41-283.699 64.41-53.709 0-154.726-74.394-199.885-326.605-25.754-143.974-53.709-358.912 12.902-384.717 82.893-32.102 111.002 48.179 202.035 116.019 92.416 68.762 136.755 84.941 268.646 84.941s176.23-16.179 268.646-84.941c91.034-67.789 119.142-148.122 202.035-116.019 66.611 25.805 38.656 240.691 12.851 384.717zM307.2 460.8c-56.576 0-102.4 45.875-102.4 102.4 0 56.576 45.824 102.4 102.4 102.4s102.4-45.824 102.4-102.4c0-56.525-45.875-102.4-102.4-102.4zM665.6 460.8c-28.314 0-51.2 22.886-51.2 51.2s22.886 51.2 51.2 51.2c28.314 0 51.2-22.886 51.2-51.2s-22.886-51.2-51.2-51.2zM768 563.2c-28.314 0-51.2 22.886-51.2 51.2s22.886 51.2 51.2 51.2c28.314 0 51.2-22.886 51.2-51.2s-22.886-51.2-51.2-51.2z" />
<glyph unicode="&#xe924;" glyph-name="browser" d="M962.484-64.002h-898.616c-11.54 0-20.896 9.356-20.896 20.905v982.2c0 11.54 9.356 20.896 20.896 20.896h898.616c11.54 0 20.896-9.356 20.896-20.896v-982.2c0-11.549-9.356-20.905-20.896-20.905zM84.764-22.2h856.814v940.408h-856.814zM335.545 604.738h-271.677c-11.54 0-20.896 9.347-20.896 20.896v313.469c0 11.54 9.356 20.896 20.896 20.896h271.677c11.54 0 20.896-9.356 20.896-20.896v-313.469c0-11.549-9.356-20.896-20.896-20.896zM84.764 646.531h229.885v271.677h-229.885zM962.484-64.002h-271.677c-11.54 0-20.896 9.356-20.896 20.905v313.461c0 11.54 9.356 20.905 20.896 20.905h271.677c11.54 0 20.896-9.365 20.896-20.905v-313.469c0-11.54-9.356-20.896-20.896-20.896zM711.703-22.2h229.876v271.668h-229.876zM878.89 353.958h-731.428c-11.54 0-20.896 9.356-20.896 20.896v146.291c0 11.54 9.356 20.896 20.896 20.896h731.428c11.54 0 20.896-9.356 20.896-20.896v-146.291c0-11.54-9.356-20.896-20.896-20.896zM168.358 395.759h689.627v104.49h-689.627zM607.213 834.614h-188.083c-11.54 0-20.896 9.356-20.896 20.896s9.356 20.896 20.896 20.896h188.083c11.54 0 20.896-9.356 20.896-20.896s-9.356-20.896-20.896-20.896zM878.89 834.614h-208.98c-11.54 0-20.896 9.356-20.896 20.896s9.356 20.896 20.896 20.896h208.98c11.54 0 20.896-9.356 20.896-20.896s-9.356-20.896-20.896-20.896zM607.213 751.020h-188.083c-11.54 0-20.896 9.356-20.896 20.896 0 11.549 9.356 20.896 20.896 20.896h188.083c11.54 0 20.896-9.347 20.896-20.896 0-11.54-9.356-20.896-20.896-20.896zM878.89 751.020h-208.98c-11.54 0-20.896 9.356-20.896 20.896 0 11.549 9.356 20.896 20.896 20.896h208.98c11.54 0 20.896-9.347 20.896-20.896 0-11.54-9.356-20.896-20.896-20.896zM607.213 667.427h-188.083c-11.54 0-20.896 9.356-20.896 20.896s9.356 20.905 20.896 20.905h188.083c11.54 0 20.896-9.356 20.896-20.905 0-11.54-9.356-20.896-20.896-20.896zM878.89 667.427h-208.98c-11.54 0-20.896 9.356-20.896 20.896s9.356 20.905 20.896 20.905h208.98c11.54 0 20.896-9.356 20.896-20.905 0-11.54-9.356-20.896-20.896-20.896zM607.213 583.833h-188.083c-11.54 0-20.896 9.356-20.896 20.905 0 11.54 9.356 20.896 20.896 20.896h188.083c11.54 0 20.896-9.356 20.896-20.896 0-11.549-9.356-20.905-20.896-20.905zM878.89 583.833h-208.98c-11.54 0-20.896 9.356-20.896 20.905 0 11.54 9.356 20.896 20.896 20.896h208.98c11.54 0 20.896-9.356 20.896-20.896 0-11.549-9.356-20.905-20.896-20.905zM335.545 270.364h-188.083c-11.54 0-20.896 9.356-20.896 20.905 0 11.54 9.356 20.896 20.896 20.896h188.083c11.54 0 20.896-9.356 20.896-20.896 0-11.549-9.356-20.905-20.896-20.905zM607.213 270.364h-208.98c-11.54 0-20.896 9.356-20.896 20.905 0 11.54 9.356 20.896 20.896 20.896h208.98c11.54 0 20.896-9.356 20.896-20.896 0-11.549-9.356-20.905-20.896-20.905zM335.545 186.779h-188.083c-11.54 0-20.896 9.356-20.896 20.896s9.356 20.896 20.896 20.896h188.083c11.54 0 20.896-9.356 20.896-20.896s-9.356-20.896-20.896-20.896zM607.213 186.779h-208.98c-11.54 0-20.896 9.356-20.896 20.896s9.356 20.896 20.896 20.896h208.98c11.54 0 20.896-9.356 20.896-20.896s-9.356-20.896-20.896-20.896zM335.545 103.186h-188.083c-11.54 0-20.896 9.356-20.896 20.896s9.356 20.896 20.896 20.896h188.083c11.54 0 20.896-9.356 20.896-20.896s-9.356-20.896-20.896-20.896zM607.213 103.186h-208.98c-11.54 0-20.896 9.356-20.896 20.896s9.356 20.896 20.896 20.896h208.98c11.54 0 20.896-9.356 20.896-20.896s-9.356-20.896-20.896-20.896zM335.545 19.592h-188.083c-11.54 0-20.896 9.356-20.896 20.896s9.356 20.905 20.896 20.905h188.083c11.54 0 20.896-9.365 20.896-20.905s-9.356-20.896-20.896-20.896zM607.213 19.592h-208.98c-11.54 0-20.896 9.356-20.896 20.896s9.356 20.905 20.896 20.905h208.98c11.54 0 20.896-9.365 20.896-20.905s-9.356-20.896-20.896-20.896zM183.378 894.378h34.348l76.017-219.005h-39.978l-18.588 54.601h-69.824l-18.297-54.601h-39.986zM228.148 759.892l-27.6 86.060-28.719-86.060zM741.603 35.282l120.285 151.815h-116.99v37.881h164.694v-32.56l-116.391-151.815h117.29v-37.872h-168.887zM210.15 479.344h41.801v-62.689h-41.801zM293.744 479.344h41.801v-62.689h-41.801zM377.338 479.344h41.801v-62.689h-41.801z" />
<glyph unicode="&#xe925;" glyph-name="chevron-thin-down" d="M891.802 660.019c13.926 13.722 36.301 13.722 50.125 0s13.875-35.891 0-49.613l-404.89-400.896c-13.824-13.722-36.198-13.722-50.125 0l-404.89 400.896c-13.824 13.722-13.824 35.891 0 49.613 13.875 13.722 36.301 13.722 50.125 0l379.853-365.619 379.802 365.619z" />
<glyph unicode="&#xe926;" glyph-name="equals" d="M768 640h-512c-47.104 0-85.333-38.229-85.333-85.333s38.229-85.333 85.333-85.333h512c47.104 0 85.333 38.229 85.333 85.333s-38.229 85.333-85.333 85.333zM768 341.334h-512c-47.104 0-85.333-38.229-85.333-85.333s38.229-85.333 85.333-85.333h512c47.104 0 85.333 38.229 85.333 85.333s-38.229 85.333-85.333 85.333z" />
<glyph unicode="&#xe927;" glyph-name="key" d="M704.128 960c-176.736 0-320-143.296-320-320 0-41.12 8.608-80.032 22.816-116.128l-388.768-388.736c-11.232-11.264-18.176-21.952-18.176-39.136v-96c0-34.24 29.728-64 64-64h96c17.152 0 28 6.88 39.232 18.048l45.92 45.952h74.976c35.328 0 64 28.672 64 64v64h64c35.328 0 64 28.672 64 64v75.008l75.808 75.872c36.128-14.24 75.008-22.88 116.192-22.88 176.672 0 320 143.296 320 320s-143.328 320-320 320zM704.128 384c-47.36 0-91.264 13.76-129.312 36.224l-11.008-10.976-96.96-96.992c-12-12-18.752-28.256-18.752-45.248v-75.008h-64c-35.328 0-64-28.64-64-64v-64h-74.944c-16.96 0-33.248-6.752-45.248-18.752l-45.376-45.376-90.432 0.128-0.096 91.2 373.28 372.608c0 0 0-0.032 0.032-0.064l47.008 47.008c-22.464 38.048-36.224 81.92-36.224 129.28 0 141.376 114.656 256 256 256s256-114.624 256-256-114.592-256.032-255.968-256.032zM890.24 696.352c-35.872 49.984-79.552 93.6-129.76 129.728-8.16 5.92-18.72 7.392-28.224 4.064-44.448-15.648-74.88-46.048-90.432-90.496-1.184-3.328-1.76-6.784-1.76-10.208 0-6.368 1.984-12.672 5.824-18.016 36-50.048 79.616-93.696 129.696-129.696 8.192-5.888 18.688-7.392 28.192-4.096 44.512 15.552 74.944 46.016 90.56 90.496 1.184 3.328 1.76 6.784 1.76 10.208-0.032 6.368-2.048 12.672-5.856 18.016zM794.24 607.68c-47.296 34.016-88.48 75.2-122.24 121.376 12.384 35.296 35.552 58.464 69.824 71.072 47.328-34.080 88.448-75.168 122.112-121.952-12.512-35.040-35.616-58.080-69.696-70.496z" />
<glyph unicode="&#xe928;" glyph-name="percentage" d="M990.977 379.351c-12.435 25.19-25.275 51.233-25.275 68.659s12.84 43.469 25.232 68.637c21.329 43.32 45.516 92.419 25.616 140.389-20.583 49.612-73.586 67.421-120.36 83.12-24.486 8.212-52.235 17.533-63.412 28.688-11.112 11.112-20.433 38.862-28.645 63.326-15.677 46.775-33.465 99.799-83.098 120.382-47.991 19.9-97.069-4.287-140.367-25.595-25.19-12.414-51.233-25.232-68.701-25.232-17.426 0-43.469 12.819-68.637 25.211-43.298 21.329-92.441 45.495-140.389 25.616-49.612-20.583-67.4-73.607-83.098-120.382-8.233-24.465-17.533-52.214-28.688-63.348-11.112-11.155-38.883-20.455-63.369-28.688-46.754-15.698-99.778-33.508-120.382-83.098-19.9-47.991 4.308-97.069 25.659-140.41 12.414-25.19 25.254-51.211 25.254-68.637s-12.84-43.469-25.232-68.659c-21.287-43.298-45.474-92.377-25.574-140.346 20.583-49.633 73.586-67.443 120.382-83.141 24.465-8.212 52.214-17.533 63.348-28.645 11.134-11.155 20.455-38.904 28.688-63.39 15.677-46.775 33.487-99.778 83.098-120.36 12.584-5.204 25.232-7.401 37.817-7.401 35.47 0 70.6 17.298 102.551 33.018 25.168 12.414 51.19 25.232 68.637 25.232s43.49-12.84 68.68-25.232c43.32-21.329 92.419-45.495 140.325-25.616 49.612 20.561 67.421 73.586 83.12 120.36 8.233 24.486 17.554 52.235 28.709 63.39 11.134 11.134 38.883 20.433 63.348 28.666 46.775 15.698 99.799 33.487 120.382 83.098 19.9 47.969-4.287 97.069-25.616 140.389zM914.384 341.662c12.008-24.379 28.453-57.738 23.355-70.002-5.716-13.779-42.125-26-68.701-34.916-35.022-11.752-71.218-23.91-96.514-49.228-25.339-25.318-37.497-61.535-49.249-96.536-8.937-26.597-21.159-63.006-34.937-68.701-12.392-5.14-45.644 11.368-69.96 23.334-33.956 16.722-69.043 34.020-106.369 34.020-37.305 0-72.413-17.298-106.326-33.999-24.358-12.008-57.61-28.496-70.002-23.355-13.757 5.695-25.979 42.104-34.895 68.68-11.752 35.022-23.91 71.239-49.249 96.578-25.318 25.296-61.492 37.433-96.493 49.206-26.576 8.916-63.006 21.159-68.723 34.959-5.098 12.264 11.347 45.623 23.355 69.981 16.722 33.935 34.020 69.043 34.020 106.347s-17.319 72.413-34.041 106.347c-12.008 24.358-28.453 57.738-23.398 69.96 5.738 13.779 42.146 26.022 68.744 34.937 35.022 11.774 71.239 23.931 96.536 49.249 25.318 25.296 37.454 61.492 49.228 96.514 8.916 26.597 21.159 63.028 34.916 68.723 1.578 0.661 3.498 0.938 5.695 0.938 14.994 0 43.085-13.821 64.329-24.294 33.956-16.722 69.043-33.999 106.326-33.999 37.305 0 72.434 17.298 106.369 33.999 24.379 11.987 57.653 28.453 69.981 23.334 13.779-5.716 26-42.125 34.916-68.723 11.752-35.022 23.889-71.218 49.206-96.536 25.339-25.318 61.535-37.475 96.557-49.228 26.576-8.916 62.985-21.159 68.701-34.937 5.098-12.264-11.326-45.644-23.355-70.002-16.701-33.935-33.999-69.043-33.999-106.326-0.021-37.283 17.277-72.391 33.977-106.326zM708.728 644.856c-16.658 16.658-43.682 16.658-60.34-0.021l-333.098-333.375c-16.637-16.658-16.637-43.682 0.021-60.319 8.34-8.34 19.239-12.478 30.159-12.478s21.841 4.159 30.181 12.499l333.098 333.375c16.637 16.679 16.637 43.682-0.021 60.319zM362.471 688.837c-63.305 0-114.815-51.51-114.815-114.815 0-63.326 51.51-114.836 114.815-114.836s114.794 51.51 114.794 114.836c0 63.305-51.489 114.815-114.794 114.815zM362.471 544.502c-16.253 0-29.498 13.245-29.498 29.52s13.224 29.498 29.498 29.498c16.253 0 29.477-13.245 29.477-29.498 0-16.274-13.224-29.52-29.477-29.52zM661.548 436.833c-63.305 0-114.794-51.531-114.794-114.858 0-63.305 51.489-114.794 114.794-114.794s114.815 51.51 114.815 114.794c0 63.348-51.51 114.858-114.815 114.858zM661.548 292.498c-16.253 0-29.477 13.224-29.477 29.477 0 16.295 13.224 29.541 29.477 29.541 16.274 0 29.498-13.245 29.498-29.541 0-16.253-13.245-29.477-29.498-29.477z" />
<glyph unicode="&#xe929;" glyph-name="platinticket" horiz-adv-x="1676" d="M1163.627 680.746c-25.707 0-46.542-20.836-46.542-46.542v-93.085c0.135-25.707 21.039-46.475 46.745-46.339 25.571 0.135 46.204 20.768 46.339 46.339v93.085c0 25.639-20.768 46.542-46.542 46.542 0.068 0 0 0 0 0zM1163.627 401.491c-25.707 0-46.542-20.836-46.542-46.542v-93.085c-0.135-25.707 20.633-46.61 46.339-46.745s46.61 20.633 46.745 46.339c0 0.135 0 0.271 0 0.406v93.017c0 25.707-20.768 46.542-46.542 46.61 0.068 0 0 0 0 0zM1582.509 219.99v-190.905h-372.339v46.542c0.135 25.707-20.633 46.61-46.339 46.745s-46.678-20.633-46.745-46.339c0-0.135 0-0.271 0-0.406v-46.542h-1024v190.905c125.962 25.707 207.208 148.624 181.502 274.587-18.671 91.394-90.041 162.831-181.434 181.502v190.837h1024v-46.542c0.135-25.707 21.039-46.475 46.745-46.339 25.571 0.135 46.204 20.768 46.339 46.339v46.542h372.339v-190.905c-125.962-25.639-207.208-148.557-181.569-274.519 18.603-91.461 90.108-162.898 181.502-181.502v0zM1629.051 587.661c25.707 0 46.542 20.768 46.542 46.475 0 0.068 0 0.068 0 0.068v279.254c0 25.707-20.836 46.542-46.542 46.542h-1582.509c-25.707 0-46.542-20.836-46.542-46.542v-279.254c0-25.707 20.768-46.542 46.475-46.542 0 0 0.068 0 0.068 0 77.12 0 139.627-62.507 139.627-139.627s-62.507-139.627-139.627-139.627c-25.707 0-46.542-20.836-46.542-46.542 0 0 0-0.068 0-0.068v-279.254c0-25.707 20.836-46.542 46.542-46.542h1582.509c25.707 0 46.542 20.836 46.542 46.542v279.254c0 25.707-20.768 46.542-46.475 46.542 0 0-0.068 0-0.068 0-77.12 0-139.627 62.507-139.627 139.627 0 77.187 62.575 139.695 139.627 139.695zM676.556 517.103h33.080c16.574 0 43.16-2.165 43.16-33.080 0-13.327-6.494-28.818-18.333-37.41-10.824-8.253-21.242-8.253-30.916-8.659h-44.986l17.995 79.149zM867.934 448.846c0-93.829-76.037-169.934-169.866-169.934-26.315 0-51.075 6.156-73.264 16.777l23.001 96.129h55.743c19.415 0.744 37.816 1.082 57.231 8.997 32.404 14.003 55.81 44.242 55.81 85.643 0 16.912-3.991 34.163-14.071 47.489-20.159 26.248-51.481 27.736-70.152 28.412h-109.456l-50.872-227.3c-27.195 30.104-43.904 69.881-43.904 113.718 0 93.829 76.105 169.866 169.934 169.866s169.866-75.97 169.866-169.799zM1007.832 510.474l-109.456 21.377 62.305 92.476-109.32-22.121 22.121 109.32-92.476-62.305-21.377 109.456-61.628-92.949-61.628 92.949-21.377-109.456-92.476 62.305 22.121-109.32-109.253 22.121 62.305-92.476-109.456-21.377 92.949-61.628-92.949-61.628 109.456-21.377-62.305-92.476 109.253 22.121-22.121-109.253 92.476 62.305 21.377-109.456 61.628 92.949 61.628-92.949 21.377 109.456 92.476-62.305-22.121 109.253 109.32-22.121-62.305 92.476 109.456 21.377-92.949 61.628 92.949 61.628z" />
</font>
</defs>
</svg>
