<?xml version="1.0" encoding="utf-8"?>
<!-- Generator: Adobe Illustrator 23.0.0, SVG Export Plug-In . SVG Version: 6.00 Build 0)  -->
<svg version="1.1" id="icon-playson" xmlns="http://www.w3.org/2000/svg" xmlns:xlink="http://www.w3.org/1999/xlink" x="0px"
	 y="0px" viewBox="0 0 1338.2 273.3" style="enable-background:new 0 0 1338.2 273.3;" xml:space="preserve">
<style type="text/css">
	.st0{fill:#082D3F;}
</style>
<path class="st0" d="M141,69l20,0.2v107.7h111.6l-0.2,19.5H141.2L141,69z M417.5,69.5h23.7l47.1,57.4L535,69.5h23.9L498,148.8v47.6
	h-19.7v-47.6L417.5,69.5z M560.2,87.7c0-10.6,11.3-18.2,22.4-18.5c26.4,0,87.7-0.5,91.9,0.7c8.1,2.2,15,9.1,16.8,17.5
	c1,3.9,0.5,12.1,0.5,12.1h-20.5c0,0,0-6.4,0-9.1c0-1.7-2.7-2-4.4-2c-27.6,0-55,0-82.6,0c-2.5-0.2-4.7,2-4.4,4.4c0,8.6,0,17,0,25.6
	c-0.2,2.5,2,4.7,4.4,4.7c28.6,0,57.4,0,86,0c11.6,0.7,21.4,10.8,21.4,22.4c0,9.4,0,18.7,0,28.1c-0.2,8.9-6.4,17.3-14.5,20.5
	c-4.7,2-67.3,2-93.9,2c-9.1-0.2-18-5.7-21.7-14.3c-2.2-5.2-2-16.5-2-16.5h20c0,0-1.2,8.6,2.5,11.3c28.6,0,56.9,0,85.5,0
	c2,0,4.2-1.7,3.9-3.7c0-7.4,0-14.8,0-22.2c0-2.7,0.5-5.7-1.2-7.9c-1.7-0.5-3.5-0.7-5.4-0.7c-27.4,0-54.5,0-81.8,0
	c-10.8,0-22.9-6.4-22.9-18.5C560.4,118.5,560.2,87.7,560.2,87.7z M847.7,69.2h24.2l87.5,101v-101l20.2,0.2l-0.5,126.9h-22.9
	L867.7,95.1l-0.2,101.3h-19.7V69.2z M131.6,91.4c-0.2-12.1-11.6-21.9-23.2-21.9H0v126.7h19.5l0.5-45.8l87.5,0.2
	c12.6,0,24.2-9.6,24.2-22.2V91.4z M111.6,127.9c0,2.2-2,3.7-4.2,3.7c-28.3,0-84.8,0-84.8,0c-1.5-0.5-3-1.7-2.7-3.7v-36
	c0-2.5,2.7-3.5,4.9-3.5c0,0,55.2,0,82.8,0c2.5,0,3.9,2,3.9,4.2C111.6,104.7,111.6,116.3,111.6,127.9z M415.2,92.2
	c0-12.3-8.6-22.9-17-22.9h-92.2c-11.8,0.2-22.4,10.4-22.4,22.2c0,35,0,104.7,0,104.7h19.7v-44.4h91.9v34.7l0.5,9.6H415l0.2-24.9
	C415.2,171.3,415,118.5,415.2,92.2z M395.3,132.6h-91.9c0,0,0-26.4,0-39.7c-0.5-2.5,1.7-4.7,4.2-4.4c27.8,0,55.7,0,83.5,0
	c2.5-0.2,4.2,2.2,3.9,4.4C395.3,106.2,395.3,132.6,395.3,132.6z M835.2,168.8c0-16.3-0.2-70.2-0.2-81.1c0-10.1-11.8-18.2-22.4-18.5
	c-26.1,0-80.6,0-86,0c-10.1,0-23.2,12.3-23.2,20.9c0,12.1,0,67.8,0,83.5c0.2,12.1,11.3,22.2,23.2,22.4c28.3,0,56.7,0,85,0
	c9.6,0,19-6.4,22.2-15.5C835.4,176.9,835.2,172.8,835.2,168.8z M813,176.9c-27.4,0-58.7,0-87,0c-1.5,0-2.7-2-2.5-3.7
	c0-27.4,0-82.3,0-82.3c0.5-1.5,0-3.5,5.2-3.5h82.1c2.5,0,4.4,1,4.4,3.5c0,26.4,0,55.9,0,82.3C815.5,175,814.7,176.9,813,176.9z"/>
<g id="playson-logo">
	<path class="st0" d="M1040.5,0l100.1,45.6l-100.1,45.8V0z M1140.5,45.6l99.8,45.6l-99.8,45.6V45.6z M1040.5,91.4l100.1,45.3
		l-100.1,45.3V91.4z M1338.2,136.3l-97.8,46.1V91.2L1338.2,136.3z M1240.3,182.4l-99.8,45.6v-91.2L1240.3,182.4z M1140.5,228
		l-100.1,45.3v-91.2L1140.5,228z"/>
</g>
</svg>
