<?xml version="1.0" encoding="utf-8"?>
<!-- Generator: Adobe Illustrator 23.0.0, SVG Export Plug-In . SVG Version: 6.00 Build 0)  -->
<svg version="1.1" id="Ebene_1" xmlns="http://www.w3.org/2000/svg" xmlns:xlink="http://www.w3.org/1999/xlink" x="0px" y="0px"
	 viewBox="0 0 687.9 186.7" style="enable-background:new 0 0 687.9 186.7;" xml:space="preserve">
<style type="text/css">
	.st0{fill:#082D3F;}
</style>
<path class="st0" d="M249.4,51.5c-7.8-0.1-15.5,2.2-22,6.5c-8.2,5-13.3,13.7-13.5,23.3l-0.1,53.3h19.4v-30.4l3.8,1.3
	c4.9,1.7,10.2,2.7,15.4,2.7c4.6,0,9.2-0.8,13.5-2.6c7.9-3.2,14-9.8,16.6-17.9c2.4-8.8,0.5-18.1-4.9-24.2
	C270.8,55.9,260.6,51.5,249.4,51.5L249.4,51.5z M267.2,83.1v0.2c-1.6,7.1-8.2,11.9-16.6,11.9c-8,0-14.6-4.3-16.8-10.9
	c-1-2.8-0.8-6,0.7-8.6c2-3.7,5.4-6.5,9.4-7.8c7.1-2.4,14.9-0.5,20.1,4.9C266.6,75.6,267.7,79.3,267.2,83.1z M300.9,101.1
	c9,7.5,20.9,10.5,32.4,8.3h0.6l20.5,0.1h5.9V96.1L360.2,80c0-6.2-3.1-12.7-8.4-17.9c-13.7-12.7-34.4-14.2-49.7-3.4
	c-7,4.8-11.2,12.7-11.2,21.2v0.2C290.8,88.2,294.5,96,300.9,101.1L300.9,101.1z M307.6,76.5c2-4.2,5.7-7.3,10.1-8.6
	c2-0.7,4.1-1.1,6.2-1.1c8.3,0,17,5.4,17.2,14.5v0.4c-0.9,6.5-6.9,13.6-17.7,13.6c-7,0-13-3.5-15.7-9
	C306.3,83.2,306.2,79.6,307.6,76.5z M451.2,134.7H464v-30.5l3.8,1.5c4.8,1.8,9.8,2.8,14.9,2.8c9.5,0,17.9-3.3,23.7-9.2
	c8.8-8.7,10.5-23,3.9-32.7c-6.9-9.7-18.3-15.3-30.2-14.9c-6.3,0-12.5,1.5-18.1,4.3c-8.9,4.4-17.7,14.1-17.3,25.7v23.9
	c-0.2,9.8-0.1,19.6,0.1,29.4C446.9,134.7,449.1,134.6,451.2,134.7L451.2,134.7z M465.5,75.6c2.1-3.9,5.8-6.8,10.1-7.8
	c6.9-2,14.3-0.1,19.3,5c2.6,2.7,3.9,6.5,3.5,10.2v0.4c-1.7,7.2-8.4,12-16.8,12c-7.6,0-14.1-4-16.6-10.2
	C463.7,82.1,463.9,78.5,465.5,75.6z M561,102.2c6.3,4.6,13.7,7.2,21.5,7.4h1.4c4.8-0.2,9.9-0.3,16.5-0.3h18.5V80
	c-0.4-7.4-3.9-14.3-9.6-19c-7.2-6.1-16.4-9.5-25.9-9.4c-8.1-0.1-16,2.4-22.6,7.2c-7,4.8-11.3,12.8-11.3,21.3v0.2
	C549.6,89,553.9,97.2,561,102.2L561,102.2z M566.3,76.6c2-4.3,5.8-7.5,10.3-8.7c1.9-0.7,4-1,6-1c5.5,0,10.9,2.3,14.1,6.1
	c2.5,2.9,3.5,6.7,2.9,10.4v0.2c-2.3,8.2-10.3,11.8-17.3,11.8s-13-3.4-15.7-8.9C564.9,83.4,564.8,79.7,566.3,76.6z M522.6,109.3v-75
	l10.6-0.1h8.8v30.2c-0.1,14.7-0.1,29.9,0.1,44.9L522.6,109.3z M404.1,67.1c-4.3-0.1-8.5,1.3-11.8,4.1c-2.3,1.7-4.9,5.1-4.7,11.9
	v26.5H368l0.1-29.6c0.1-6.5,3.5-13.4,9.3-18.7c8.5-7.5,19.9-11,31.2-9.5l0.2,15.8C407.3,67.2,405.7,67,404.1,67.1L404.1,67.1z
	 M417.4,51.7h19.4v15.4h-19.4V51.7z M668.7,56H685v61.5c-1.5,9-6.6,16.5-13.6,20.2c-9.6,5.2-20.7,7.2-31.5,5.5
	c0.2-5.4,0.1-10.7,0-15.6l5.5,0.3c7.6,0,13.9-1.9,18.7-5.7c5-3.7,4.9-10.3,4.9-12.4v-3.2l-3.2,0.4l-1,0.1c-2.8,0.4-5.5,0.6-8.3,0.7
	c-2.1,0-4.2-0.3-6.3-0.8H650c-10.9-2.9-19.2-11.7-21.5-22.7c-0.9-3.6-0.7-18-0.4-28.2H645c-0.1,5.9-0.2,19.4,0.3,27.1
	c0.4,5.6,5.7,10.4,11.5,10.4c6.6-0.3,11.8-5.8,11.8-12.4C668.8,74.1,668.8,61.6,668.7,56L668.7,56z M417.4,75.8h19.4v33.6h-19.4
	V75.8z"/>
<path class="st0" d="M533.3,34.2h8.8v30.2c-0.1,14.7-0.1,29.9,0.1,44.9h-19.4v-75L533.3,34.2 M480.1,51.4c12.7,0,23.9,5.6,30.2,14.9
	c6.6,9.7,4.9,24-3.9,32.7c-5.8,6-14.2,9.2-23.7,9.2c-5.1,0-10.1-1-14.9-2.8l-3.8-1.5v30.5h-19.2c-0.3-9.8-0.2-19.8-0.1-29.4V81.1
	c-0.4-11.6,8.4-21.2,17.3-25.7C467.7,52.8,473.9,51.4,480.1,51.4 M481.4,95.4c8.4,0,15.1-4.8,16.8-12V83c0.3-3.7-0.9-7.4-3.5-10.2
	c-5-5.1-12.4-7-19.3-5c-4.3,1.1-8,3.9-10.1,7.8c-1.6,3-1.8,6.5-0.6,9.6C467.8,91.6,474.3,95.6,481.4,95.4 M403.7,51.4
	c1.6,0,3.3,0.1,4.9,0.3l0.2,15.8c-1.6-0.3-3.1-0.4-4.7-0.4c-4.3-0.1-8.5,1.3-11.8,4.1c-2.3,1.7-4.9,5.1-4.7,11.9v26.5H368l0.1-29.6
	c0.1-6.5,3.5-13.4,9.3-18.7C384.6,54.8,394,51.3,403.7,51.4 M249.4,51.5c11.2,0,21.4,4.4,28,12.1c5.5,6.8,7.4,15.8,4.9,24.2
	c-2.7,8.1-8.7,14.6-16.6,17.9c-4.3,1.8-8.9,2.6-13.5,2.6c-5.2,0-10.5-0.9-15.4-2.7l-3.8-1.3v30.4h-19.4l0.1-53.3
	c-0.2-8.8,5-17.7,13.5-23.3C233.8,53.8,241.5,51.5,249.4,51.5 M250.6,95.3c8.4,0,15-4.8,16.6-11.9v-0.2c0.4-3.7-0.7-7.4-3.2-10.2
	c-5.2-5.4-13-7.3-20.1-4.9c-4,1.2-7.4,4.1-9.4,7.8c-1.4,2.6-1.7,5.8-0.7,8.6C236,91,242.6,95.3,250.6,95.3 M583.4,51.5
	c9.5-0.1,18.7,3.3,25.9,9.4c6,5.4,9.5,12.3,9.6,19v29.3h-18.5c-6.6,0-11.7,0.1-16.5,0.3h-1.4c-9,0-16.7-4-21.5-7.4
	c-7.2-5-11.6-13.2-11.5-22v-0.2c-0.4-7.9,4-16,11.3-21.3C567.4,53.9,575.3,51.4,583.4,51.5 M582.1,95.5c7,0,15-3.7,17.3-11.8v-0.2
	c0.6-3.7-0.4-7.5-2.9-10.4c-5.1-5.6-13-7.6-20.1-5.1c-4.5,1.3-8.3,4.5-10.3,8.7c-1.5,3.1-1.4,6.8,0.1,9.9
	C569.1,92,575.1,95.5,582.1,95.5 M324.8,51.5c10.3,0,20.2,3.8,27,10.6c5.1,4.6,8.1,11.1,8.4,17.9l0.1,16.1v13.4h-5.9l-20.5-0.1h-0.6
	c-11.5,1.9-23.2-1.1-32.4-8.3c-6.4-5.1-10.1-12.8-10.1-20.9V80c0-8.5,4.2-16.4,11.2-21.2C308.6,54,316.6,51.4,324.8,51.5
	 M323.4,95.5c10.8,0,16.7-7,17.7-13.6v-0.4c-0.2-9.1-8.9-14.5-17.2-14.5c-2.1,0-4.2,0.4-6.2,1.1c-4.4,1.3-8.1,4.4-10.1,8.6
	c-1.5,3.1-1.5,6.8,0.1,9.9C310.4,92,316.4,95.5,323.4,95.5 M436.8,51.7v15.4h-19.4V51.7L436.8,51.7 M685,56v61.5
	c-1.5,9-6.6,16.5-13.6,20.2c-9.6,5.2-20.7,7.2-31.5,5.5c0.2-5.4,0.1-10.7,0-15.6l5.5,0.3c7.6,0,13.9-1.9,18.7-5.7
	c5-3.7,4.9-10.3,4.9-12.4v-3.2l-3.2,0.4l-1,0.1c-2.8,0.4-5.5,0.6-8.3,0.7c-2.1,0-4.2-0.3-6.3-0.8H650c-10.9-2.9-19.2-11.7-21.5-22.7
	c-0.9-3.6-0.7-18-0.4-28.2H645c-0.1,5.9-0.2,19.4,0.3,27.1c0.4,5.6,5.7,10.4,11.5,10.4c6.6-0.3,11.8-5.8,11.8-12.4l0.1-25.2L685,56
	 M436.8,75.8v33.6h-19.4V75.8L436.8,75.8 M533.3,31.4l-10.7,0.1h-2.8v80.7h25.1v-2.9c-0.2-15-0.1-30.2-0.1-44.8v-33h-5.7
	C539.1,31.5,533.3,31.4,533.3,31.4z M480.1,48.6c-6.7,0-13.4,1.5-19.4,4.6c-9.7,4.8-19.3,15.4-18.9,28.3v23.8
	c-0.1,9.7-0.2,19.7,0.1,29.6l0.1,2.8h24.8v-29.3c5.1,1.9,10.5,2.9,15.9,2.9c10.3,0,19.4-3.6,25.7-10.1c9.8-9.6,11.6-24.7,4.3-36.3
	C505.3,54.3,493,48.2,480.1,48.6L480.1,48.6z M481.4,92.5c-6.4,0-11.9-3.3-13.9-8.4c-0.9-2.4-0.8-5,0.5-7.2c1.7-3.2,4.7-5.5,8.2-6.4
	h0.2c5.8-1.7,12.1-0.1,16.3,4.2c2,2.1,3,5.1,2.8,8C494.1,88.6,488.5,92.5,481.4,92.5z M403.7,48.6c-10.4-0.1-20.5,3.7-28.2,10.6
	c-6.1,5.2-9.8,12.7-10.2,20.7l-0.1,29.6v2.8h25.2V83c-0.1-4.4,1.1-7.7,3.6-9.5l0.1-0.1l0.1-0.1c2.8-2.3,6.4-3.5,10-3.4
	c1.4,0,2.8,0.1,4.2,0.4l3.4,0.6v-3.5l-0.2-15.8v-2.5l-2.5-0.3L403.7,48.6z M249.4,48.6c-8.4,0-16.6,2.4-23.6,7
	c-8.9,5.5-14.5,15.2-14.8,25.7l-0.1,53.3v2.8h25v-29.2c5.2,1.9,10.7,2.8,16.3,2.9c5,0,10-0.9,14.6-2.8c8.7-3.5,15.3-10.7,18.2-19.6
	v-0.2c2.6-9.7,0.5-20-5.5-26.8C271.9,53.1,260.9,48.4,249.4,48.6L249.4,48.6z M250.6,92.5c-6.8,0-12.3-3.5-14.1-8.9
	c-0.8-2.1-0.6-4.5,0.5-6.5c1.6-3,4.4-5.3,7.7-6.3h0.2c1.6-0.6,3.3-0.9,5-0.8c4.5-0.1,8.8,1.7,12,4.9c2,2.2,2.9,5.1,2.5,8
	C263.2,88.6,257.6,92.5,250.6,92.5L250.6,92.5z M583.4,48.7c-8.7-0.1-17.2,2.6-24.3,7.7c-13.2,9.5-16.3,27.9-6.8,41.2
	c1.9,2.7,4.3,5,7,6.9c5.2,3.7,13.4,8,23.2,8h1.5c4.7-0.2,9.8-0.3,16.4-0.3h21.4l-0.1-2.9V79.9c-0.1-7.5-4-15.2-10.6-21.1
	C603.4,52.2,593.6,48.6,583.4,48.7L583.4,48.7z M582.1,92.6c-5.9,0-10.9-2.8-13.1-7.4c-1.2-2.4-1.2-5.1-0.1-7.5
	c1.7-3.4,4.7-6,8.4-7.1h0.2c6-2.1,12.6-0.5,16.9,4.2c1.9,2.2,2.8,5.2,2.2,8.1C594.8,89.6,588,92.6,582.1,92.6L582.1,92.6z
	 M324.8,48.7c-8.8-0.1-17.3,2.7-24.4,7.8c-7.7,5.4-12.3,14.2-12.3,23.6c-0.4,8.3,3.8,17,11.1,23.2c9.7,8,22.4,11.3,34.8,9l20.5,0.1
	h8.8V96.2L363.2,80c0-6.9-3.4-14.2-9.3-19.9C346,52.7,335.6,48.6,324.8,48.7z M323.4,92.6c-5.9,0-10.9-2.8-13.1-7.4
	c-1.2-2.4-1.2-5.1,0-7.5c1.6-3.4,4.7-6,8.3-7h0.2c1.7-0.6,3.4-0.9,5.2-0.9c6.9,0,14.2,4.4,14.4,11.8
	C337.5,86.8,332.5,92.6,323.4,92.6z M439.6,48.8h-25v21h25V48.8z M687.9,53.2H666V56l-0.1,25.1c0,4.1-2.6,7.7-6.5,9
	c-0.8,0.3-1.6,0.4-2.4,0.4c-4.3,0-8.4-3.6-8.7-7.8c-0.5-7.7-0.4-21.3-0.3-26.8V53h-22.6l-0.1,2.8c-0.1,4-0.7,24,0.5,29
	c2.6,12.1,11.7,21.7,23.6,24.9c2.3,0.6,4.7,0.9,7.1,0.9c2.9-0.1,5.8-0.3,8.7-0.7l1-0.1c0,3.1-0.3,7.6-3.8,10.1
	c-4.9,3.6-10.9,5.4-17,5.1l-5.2-0.3l-3.2-0.4l0.1,3.3V143l-0.1,2.6l2.6,0.3c11.4,1.7,23-0.3,33.2-5.7c8.2-4.7,13.8-12.9,15.1-22.2
	L687.9,53.2L687.9,53.2z M439.6,72.9h-25v39.2h25V72.9z"/>
<path class="st0" d="M190.9,69.9c-10-49-69-82.8-119.2-62.5C15.2,30.3-6.3,74.2,3.8,119.3c10.2,45.4,58.8,74.6,111.9,63.8
	C167.4,172,200.7,121.8,190.9,69.9z M113.3,171.1c-11.8,2.4-23.9,2.6-35.7,0.4c-0.3-14.5,0.1-29-0.2-43.5c4.2,1.4,8.5,2.6,12.8,3.5
	c22.5,3.2,47.8-3.7,61.1-22.9c2.9-4.7,5.1-9.8,6.5-15.2c4.2-18.5-8.3-36.1-15.3-42.6c-26.1-23.5-72.9-21.3-93.4,8.4
	c-3.3,5.3-5.6,11.2-6.9,17.3c0,0-0.1,72.2,0.5,79.5l-0.1,0.1c-13.2-9.9-22.5-24.1-26.2-40.2c-8.8-39,9.8-77.1,58.8-96.9
	c43.5-17.6,94.6,11.6,103.3,54.1S159.3,161.7,113.3,171.1z M77.9,82.6l1-3.1c7-15,28.8-17.1,40.9-7.2c2.2,2.1,4.1,4.5,5.6,7.2
	l1.2,3.1c1.2,5.7-0.5,11.7-4.6,15.9c-11.2,10.5-28.8,10.1-39.5-1c-1.9-2.2-3.4-4.7-4.3-7.5C77.7,87.6,77.6,85,77.9,82.6z"/>
<path class="st0" d="M93.6,186.7c-44.1,0-82-26.7-91.1-67.1c-5.4-22.1-2.1-45.5,9.1-65.3C23.4,33.8,44,17.1,71.2,6.1
	c24.7-9.6,52.5-7.7,75.7,5.2c23,11.9,39.6,33.2,45.5,58.4c4.8,24.9-0.3,50.7-14.1,72C160.1,170.7,127.9,187.8,93.6,186.7z
	 M102.9,2.8c-10.5,0-20.9,2-30.7,5.9C19.5,30-5.6,71.3,5.2,119c8.8,39.1,45.6,64.9,88.4,64.9c7.4,0,14.7-0.7,21.9-2.2
	c24.9-5.1,46.7-20.1,60.3-41.6c13.4-20.6,18.4-45.7,13.7-69.9c-5.7-24.3-21.8-44.9-44-56.4C132.5,6.7,117.8,2.9,102.9,2.8L102.9,2.8
	z M94.2,174.5c-5.7,0-11.3-0.5-16.9-1.6l-1.1-0.2v-1.2l-0.1-21.9c0-7.1,0.1-14.4-0.1-21.6v-2l1.9,0.6c4.1,1.4,8.3,2.5,12.6,3.4
	c24.5,3.5,47.9-5.3,59.7-22.3c2.2-3.8,5-9,6.2-14.7c3.8-16.7-6.8-33.8-14.9-41.2c-14-11.9-32.3-17.4-50.5-15.1
	c-16.3,1.5-31.2,10-40.7,23.3c-3.1,5.2-5.4,10.8-6.6,16.7c0,4-0.1,72.2,0.5,79.2l0.1,1.7l-1-0.1l-0.5,0.6l-1.1-0.8
	c-13.5-10.1-23-24.7-26.7-41.1c-4.6-19.2-1.8-39.5,7.9-56.7C33.1,41.7,51,27.2,74.6,17.6c21.5-8.4,45.6-6.7,65.7,4.5
	c20,10.3,34.4,28.8,39.5,50.7c8.8,46.6-21.9,91.4-68.4,100.2C105.7,174.1,100,174.6,94.2,174.5L94.2,174.5z M78.9,170.3
	c11.3,1.9,22.9,1.7,34.1-0.6c43.9-9.5,72.2-52.2,64-96.3c-5-21-18.8-38.8-38-48.7c-19.4-10.8-42.6-12.4-63.3-4.4
	C30.1,38.7,8.5,74.4,17.8,115.6c3.4,14.8,11.6,28,23.4,37.6c-0.5-15.3-0.4-73.9-0.4-76.6v-0.3c1.3-6.3,3.7-12.3,7.1-17.8
	c10-14,25.6-23,42.8-24.5c19-2.4,38.2,3.3,52.8,15.8c7.4,6.8,20.1,24.7,15.7,44c-1.5,5.5-3.7,10.7-6.6,15.6
	c-12.5,18-37,27.2-62.5,23.6c-3.8-0.7-7.5-1.7-11.2-2.9v19.7C78.8,156.4,78.8,163.4,78.9,170.3L78.9,170.3z M102.8,107.5h-0.6
	c-7.9-0.1-15.3-3.3-20.8-9c-2-2.3-3.6-5-4.6-7.9l-0.1-0.2c-0.6-2.6-0.7-5.3-0.4-8v-0.2l1-3.3C80.7,72,87.2,67,94.7,65.6
	c9.1-2,18.9,0.1,25.7,5.7c2.4,2.2,4.4,4.8,6,7.6l0.1,0.1l1.2,3.1l0.1,0.2c1.3,6.2-0.6,12.7-5,17.2
	C117.9,104.6,110.6,107.5,102.8,107.5L102.8,107.5z M79.6,89.7c0.9,2.5,2.2,4.9,3.9,6.9c4.9,5.2,11.7,8.1,18.8,8.1
	c7,0.3,13.7-2.3,18.7-7.2c3.7-3.9,5.2-9.3,4.2-14.5l-1.1-2.9c-1.4-2.5-3.2-4.8-5.3-6.7c-6-4.9-14.9-6.9-23.1-5
	C89,69.6,83.3,74,80.3,80.1L79.4,83C78.9,84.8,79.1,87,79.6,89.7L79.6,89.7z"/>
<path class="st0" d="M190.9,69.9c-10-49-69-82.8-119.2-62.5C15.2,30.3-6.3,74.2,3.8,119.3c10.2,45.4,58.8,74.6,111.9,63.8
	C167.4,172,200.7,121.8,190.9,69.9z M113.3,171.1c-11.8,2.4-23.9,2.6-35.7,0.4c-0.3-14.5,0.1-29-0.2-43.5c4.2,1.4,8.5,2.6,12.8,3.5
	c22.5,3.2,47.8-3.7,61.1-22.9c2.9-4.7,5.1-9.8,6.5-15.2c4.2-18.5-8.3-36.1-15.3-42.6c-26.1-23.5-72.9-21.3-93.4,8.4
	c-3.3,5.3-5.6,11.2-6.9,17.3c0,0-0.1,72.2,0.5,79.5l-0.1,0.1c-13.2-9.9-22.5-24.1-26.2-40.2c-8.8-39,9.8-77.1,58.8-96.9
	c43.5-17.6,94.6,11.6,103.3,54.1S159.3,161.7,113.3,171.1z M77.9,82.6l1-3.1c7-15,28.8-17.1,40.9-7.2c2.2,2.1,4.1,4.5,5.6,7.2
	l1.2,3.1c1.2,5.7-0.5,11.7-4.6,15.9c-11.2,10.5-28.8,10.1-39.5-1c-1.9-2.2-3.4-4.7-4.3-7.5C77.7,87.6,77.6,85,77.9,82.6z"/>
</svg>
