<?xml version="1.0" encoding="utf-8"?>
<!-- Generator: Adobe Illustrator 18.1.1, SVG Export Plug-In . SVG Version: 6.00 Build 0)  -->
<svg version="1.1" id="Ebene_1" xmlns="http://www.w3.org/2000/svg" xmlns:xlink="http://www.w3.org/1999/xlink" x="0px" y="0px"
	 viewBox="290 -91 600 222" enable-background="new 290 -91 600 222" xml:space="preserve">
<g id="Layer_x0020_1">
	<g id="_359090103376">
		<path fill="#082E3B" d="M804-44h86v25h-30V87h-26V-19h-30V-44z M693-44h23l51,80v-80h26V87h-23L719,7v80h-26V-44z M611-44h68v25
			h-60V9h51v25h-51v28h60v25h-68v44h-5V-91h5V-44z"/>
		<path fill="#082E3B" d="M404-44h86v25h-59V9h51v25h-51v28h59v25h-86V-44z M290-44h24l50,80v-80h26V87h-23L316,7v80h-26V-44z
			 M502-44h86v25h-30V87h-26V-19h-30V-44z"/>
	</g>
</g>
</svg>
