<?xml version="1.0" encoding="utf-8"?>
<!-- Generator: Adobe Illustrator 23.0.0, SVG Export Plug-In . SVG Version: 6.00 Build 0)  -->
<svg version="1.1" id="Ebene_1" xmlns="http://www.w3.org/2000/svg" xmlns:xlink="http://www.w3.org/1999/xlink" x="0px" y="0px"
	 viewBox="0 0 286.4 286.4" style="enable-background:new 0 0 286.4 286.4;" xml:space="preserve">
<style type="text/css">
	.st0{fill:#FFFFFF;}
</style>
<g>
	<path class="st0" d="M106.1,176.1c-3.9,0-7,3.1-7,7v31.7L72.4,179c-1.8-2.4-5-3.4-7.8-2.5c-2.9,0.9-4.8,3.6-4.8,6.6v49.1
		c0,3.9,3.1,7,7,7s7-3.1,7-7v-27.9l26.6,35.9c1.3,1.8,3.4,2.8,5.6,2.8c0.7,0,1.5-0.1,2.2-0.4c2.9-0.9,4.8-3.6,4.8-6.6v-52.9
		C113.1,179.3,109.9,176.1,106.1,176.1z"/>
	<path class="st0" d="M219.5,176.1c-3.9,0-7,3.1-7,7v21.8l-4.4-7.9c-1.2-2.2-3.5-3.6-6.1-3.6c-2.5-0.1-4.9,1.3-6.1,3.5l-5.4,9.3v-23
		c0-3.9-3.1-7-7-7s-7,3.1-7,7v49.1c0,3.2,2.1,5.9,5.2,6.8c3.1,0.8,6.3-0.5,7.9-3.3l12.2-21.1l11.5,21c1.3,2.3,3.6,3.6,6.1,3.6
		c0.6,0,1.2-0.1,1.7-0.2c3.1-0.8,5.3-3.6,5.3-6.8v-49.1C226.5,179.3,223.4,176.1,219.5,176.1L219.5,176.1z"/>
	<path class="st0" d="M160.6,190.1c3.9,0,7-3.1,7-7s-3.1-7-7-7h-29.2c-3.9,0-7,3.1-7,7v49.1c0,3.9,3.1,7,7,7h29.2c3.9,0,7-3.1,7-7
		s-3.1-7-7-7h-22.2v-10.5h22.2c3.9,0,7-3.1,7-7s-3.1-7-7-7h-22.2v-10.5H160.6z"/>
	<path class="st0" d="M243.1,133.8L148.9,2.9c-1.3-1.8-3.4-2.9-5.7-2.9s-4.4,1.1-5.7,2.9L43.3,133.8c-13,3.3-22.7,15.1-22.7,29.2
		v93.4c0,16.6,13.5,30.1,30.1,30.1h185.1c16.6,0,30.1-13.5,30.1-30.1v-93.4C265.8,148.9,256.1,137.1,243.1,133.8L243.1,133.8z
		 M143.2,19l82,113.9h-164L143.2,19z M251.8,256.3c0,8.9-7.2,16.1-16.1,16.1H50.6c-8.9,0-16.1-7.2-16.1-16.1v-93.4
		c0-8.9,7.2-16.1,16.1-16.1h185.1c8.9,0,16.1,7.2,16.1,16.1V256.3z"/>
	<path class="st0" d="M47.5,152.3c-1.8,0-3.7,0.7-5,2.1c-1.3,1.3-2,3.1-2,4.9c0,1.8,0.7,3.6,2,4.9c1.3,1.3,3.1,2.1,5,2.1
		s3.6-0.8,5-2.1c1.3-1.3,2-3.1,2-4.9c0-1.9-0.8-3.6-2-4.9C51.1,153,49.3,152.3,47.5,152.3z"/>
	<path class="st0" d="M238.9,152.3c-1.8,0-3.6,0.7-4.9,2.1c-1.3,1.3-2.1,3.1-2.1,4.9c0,1.8,0.8,3.6,2.1,4.9c1.3,1.3,3.1,2.1,4.9,2.1
		s3.6-0.8,4.9-2.1c1.3-1.3,2.1-3.1,2.1-4.9c0-1.9-0.7-3.6-2.1-4.9C242.5,153,240.7,152.3,238.9,152.3z"/>
</g>
</svg>
