<?xml version="1.0" encoding="utf-8"?>
<!-- Generator: Adobe Illustrator 23.0.0, SVG Export Plug-In . SVG Version: 6.00 Build 0)  -->
<svg version="1.1" id="Ebene_1" xmlns="http://www.w3.org/2000/svg" xmlns:xlink="http://www.w3.org/1999/xlink" x="0px" y="0px"
	 viewBox="0 0 20 20" style="enable-background:new 0 0 20 20;" xml:space="preserve">
<style type="text/css">
	.st0{fill:#FFFFFF;}
</style>
<g>
	<path class="st0" d="M13.3,6.6H6.9c0,0,1.1,0.5,1.3,1.5h0.9v5.8h1.5V8.1h0.8C11.9,7.2,13.3,6.6,13.3,6.6z"/>
	<polygon class="st0" points="8.5,5.6 10,4.5 11.4,5.6 10.9,3.9 12.3,2.8 10.5,2.8 10,1.1 9.4,2.8 7.6,2.8 9.1,3.9 	"/>
	<path class="st0" d="M7.2,9.8L7.2,9.8c0.2-0.1,0.4-0.3,0.5-0.5C7.9,9.1,8,8.9,8,8.5c0-0.6-0.3-1.2-0.9-1.6C6.6,6.6,6.5,6.4,5,6.5
		C3.6,6.6,3,7.6,3,7.6v5.5c0,0,1.1,0.7,2,0.7c0.8,0,1.5,0,2.1-0.2c0.5-0.1,0.9-0.5,1.2-1c0.2-0.4,0.3-0.7,0.3-1.1s-0.2-0.8-0.4-1.1
		C7.8,10.2,7.6,9.9,7.2,9.8z M4.6,8.5c0-0.2,0.1-0.3,0.3-0.4c0.3-0.2,0.8-0.2,1.1,0c0.2,0.1,0.2,0.4,0.2,0.6c0,0.5-0.6,0.6-1.2,0.6
		H4.6C4.6,9.3,4.6,8.7,4.6,8.5z M6.2,12.4c-0.2,0.1-0.7,0.1-1.3,0c-0.1,0-0.3-0.1-0.3-0.1v-1.8h0.8c0.3,0,0.7,0.1,0.9,0.3
		s0.3,0.3,0.3,0.9C6.7,12,6.5,12.3,6.2,12.4z"/>
	<polygon class="st0" points="13.2,5.4 13.9,5 14.6,5.6 14.4,4.7 15.2,4.3 14.3,4.2 14.1,3.3 13.8,4.1 12.9,4 13.5,4.6 	"/>
	<polygon class="st0" points="3.1,6.8 3.4,6.3 3.9,6.4 3.5,6 3.8,5.6 3.3,5.8 3,5.4 3,5.9 2.5,6.1 3,6.2 	"/>
	<polygon class="st0" points="5.4,5.6 6,5 6.8,5.4 6.4,4.6 7,4 6.2,4.1 5.8,3.3 5.6,4.2 4.7,4.3 5.5,4.7 	"/>
	<path class="st0" d="M14.7,11h0.9v1.4c-0.3,0.2-0.5,0.2-1,0.2s-1-0.2-1.4-0.6c-0.3-0.4-0.5-1-0.5-1.8c0-0.7,0.3-1.4,0.6-1.7
		c0.5-0.4,0.9-0.6,1.3-0.6c0.6,0,1.2,0.2,1.6,0.7l0.7-1.3c-0.7-0.4-1.1-0.8-2-0.8c-1.2,0-2.1,0.3-2.8,1c-0.7,0.6-1,1.5-1,2.7
		s0.3,2.1,0.9,2.7c0.6,0.6,1.4,1.1,2.5,1.1c0.4,0,1.8-0.1,2.7-0.7V9.7h-2.5C14.7,9.7,14.7,11,14.7,11z"/>
	<path class="st0" d="M16.8,3.2C15,1.4,12.6,0.4,10,0.4s-5,1-6.8,2.8S0.4,7.4,0.4,10s1,5,2.8,6.8s4.2,2.8,6.8,2.8s5-1,6.8-2.8
		s2.8-4.2,2.8-6.8C19.6,7.4,18.6,5,16.8,3.2z M4.3,17.3c0.2,0,0.4,0,0.6,0c1.3,0.1,2.8,0.8,4.1,1.9C7.3,19,5.6,18.3,4.3,17.3z
		 M12,19c-0.5-0.2-1-0.5-1.5-0.9c-1.4-0.9-3.2-2-4.7-2.4c1.3,0,2.7,0.5,4.1,1c1.5,0.5,3.2,1.1,4.8,1.2C13.8,18.4,12.9,18.8,12,19z
		 M15.9,17.1c-0.4,0-0.8,0-1.1,0c-1.5-0.1-3-0.6-4.5-1.1c-0.9-0.3-1.8-0.6-2.7-0.8c0.8,0.1,2.2,0.2,2.6,0.3c2.2,0.5,4.2,0.4,4.6,0.4
		c0.9,0,1.9-0.2,2.8-0.5C17,16,16.5,16.6,15.9,17.1z M9.7,15.1c-1.2-0.2-2.7-0.4-4.2-0.3c-1,0.1-2,0.3-2.9,0.7
		C1.4,13.9,0.8,12,0.8,10c0-5.1,4.1-9.2,9.2-9.2c1.7,0,3.4,0.5,4.9,1.4c4.3,2.7,5.6,8.4,2.9,12.7C15.1,16.1,11.8,15.3,9.7,15.1z"/>
	<polygon class="st0" points="17,5.4 16.6,5.8 16.1,5.6 16.4,6 16.1,6.4 16.6,6.3 16.9,6.8 16.9,6.2 17.4,6.1 16.9,5.9 	"/>
	<path class="st0" d="M10,0C4.5,0,0,4.5,0,10s4.5,10,10,10s10-4.5,10-10S15.5,0,10,0z M10,19.8c-5.4,0-9.8-4.4-9.8-9.8
		S4.6,0.2,10,0.2s9.8,4.4,9.8,9.8S15.4,19.8,10,19.8z"/>
</g>
</svg>
