<?xml version="1.0" encoding="utf-8"?>
<!-- Generator: Adobe Illustrator 19.0.0, SVG Export Plug-In . SVG Version: 6.00 Build 0)  -->
<svg version="1.1" id="Layer_1" xmlns="http://www.w3.org/2000/svg" xmlns:xlink="http://www.w3.org/1999/xlink" x="0px" y="0px"
	 viewBox="-317.9 225.4 173.2 68" style="enable-background:new -317.9 225.4 173.2 68;" xml:space="preserve">
<style type="text/css">
	.st0{opacity:0.39;fill:url(#XMLID_2_);}
	.st1{fill:url(#XMLID_3_);}
	.st2{fill:url(#XMLID_4_);}
	.st3{fill:url(#XMLID_5_);}
</style>
<linearGradient id="XMLID_2_" gradientUnits="userSpaceOnUse" x1="-231.119" y1="286.968" x2="-231.119" y2="255.3973">
	<stop  offset="0.6687" style="stop-color:#082d3c"/>
	<stop  offset="1" style="stop-color:#082d3c"/>
</linearGradient>
<path id="XMLID_620_" class="st0" d="M-287.4,282c-0.3,0,0.7,0,3.1,0c1.7,0,2.1-1.8,2.1-3.5c0-1.8-0.7-3.5-2.1-3.5
	c-2.8-0.4-3.5,0-3.5-0.4L-287.4,282L-287.4,282z M-287.4,270.3c8.7,1.8,9.1-11.7,0-9.6V270.3L-287.4,270.3z M-262.6,267.1
	c0-1.8,0.3-2.8-0.3-4.3c-1-3.2-5.2-2.1-5.6,0C-269.6,266-267.2,267.5-262.6,267.1L-262.6,267.1z M-206.5,269.9
	c0,2.5,0.3,3.9,1.4,5.3c0.3,0.7,1.7,1.4,2.8,0C-200.9,274.2-204.8,271.4-206.5,269.9L-206.5,269.9z M-292.3,284.8v-27.3
	c0-1.1,0.7-1.8,2.1-1.8c3.1-0.4,2.8-0.4,6.3-0.4c4.2,0,5.9,1.8,8,6h2.4c1.7-7.1,10.1-5.7,10.8-3.5c1.4-2.8,4.5-1.1,4.9,0.4
	c0,1.4,0,2.1,0,3.2h4.9c0-1.4,0-1.8,0-2.8c0.3-3.9,5.2-2.5,4.9,0c0,0.4,0,1.1,0,2.8h8c1-3.5,3.8-5,7-5c3.1,0,5.9,1.1,7,5h2.4
	c0-1.8,0-1.8,0.3-3.2c0-3.2,4.5-2.1,4.5,0v3.2h8c1.4-2.8,3.5-4.3,6.6-4.6c3.1-0.4,5.9,1.4,7.3,4.6h1.4c1.7-3.2,4.2-4.6,7.7-4.3
	c3.1,0,5.2,1.4,7,4.3h3.8c-0.3-3.5,0-5.3,2.4-5.3c1.7,0.4,2.4,1.1,2.1,5.3v5.7v8.9c0,0,2.4,0,2.4,2.5c-0.3,2.5-2.4,2.5-2.4,2.5
	c0.4,3.5-0.3,4.6-2.4,4.3c-1.7,0-2.4-1.1-2.1-4.3c0,0-2.4,0-2.4-2.5c0.3-2.5,1.7-2.5,2.4-2.5v-8.9h-3.8c-2.4,5-4.5,4.3-7.3,6.7
	c-0.7,0.4-1.4,2.5,1,2.8c1.4,0.4,2.1-0.7,3.5-1.1c2.4-0.7,3.8,2.5,1.7,4.3c-2.1,1.8-5.2,1.4-6.6,1.1c-1-0.4-4.2-1.1-5.2-3.9
	c-1.4-4.6,1.4-6.7,4.5-8.5c1.7-1.4,4.2-2.5,3.5-4.6c-0.7-1.8-2.8-2.5-4.2-1.8c-2.1,1.4-1.7,2.1-2.1,3.9c0,1.1-0.3,1.1-2.4,1.1
	c-1.4,0-2.1,0-3.8,0c-1.4,0-2.1-0.4-2.1-1.4c0-2.1-1.4-4.3-3.1-3.9c-2.1,0.4-2.8,1.8-2.8,3.5c4.5,3.2,4.9,2.8,7.7,6
	c1.4,1.4,2.1,5.7-0.3,7.8c-1.7,1.8-3.5,2.5-6.3,1.8c-2.4-0.4-4.2-1.4-5.2-3.9c-1-3.5-0.7-5-1-9.9h-7.3c0,2.8,0,4.6,0,6
	c0,3.2,2.8,2.5,4.9,2.8c1.4,0,2.4,3.5-0.3,4.6c-1.7,0.7-3.8-0.4-4.5-1.8c-0.3,2.1-4.9,2.8-4.9-1.1c0-4.3,0-2.5,0-10.6h-4.5
	c-1,0-1.4-0.4-1.4-1.4c0-1.1,0-2.5-0.7-3.5c-1-1.1-3.1-1.1-4.2,0c-1,1.4-1.7,9.9,0,12.8c1,1.4,3.1,0.7,3.5-0.7
	c0-2.1,4.2-3.2,4.2,0.7c-0.3,3.2-1.4,3.5-2.8,4.6c-1.4,1.1-6.6,1.8-8.7-1.1c-2.4-3.2-2.1-5.3-2.4-11.4h-7.3c0.3,3.2-0.3,5.7,0.7,6.7
	c1.4,1.4,2.1,1.4,3.8,1.4c2.1,0,2.4,3.5,1,4.3c-1.7,1.4-3.5,1.1-5.9-1.1c-0.7,3.5-4.5,1.4-4.5-0.7c0.3-1.1,0-7.1,0-10.6h-5.2
	l0.3,7.8c0,2.8-2.4,5.3-8,5.3c-0.3,0-3.1,0-4.9-1.4c-2.8-2.5,0-5,1.7-4.3c3.1,1.4,5.9,1.8,6.3-0.7c0-1.1-0.3-2.8,0-2.8
	c-9.1,0.4-9.8-3.2-10.1-3.9h-3.1c0,0,0,2.5-1,3.9c-1,1.1-2.8,1.8-2.8,1.8c4.9,3.2,2.8,14.2-2.8,14.2h-8
	C-291.2,287-292.6,286.6-292.3,284.8L-292.3,284.8z"/>
<linearGradient id="XMLID_3_" gradientUnits="userSpaceOnUse" x1="-306.9722" y1="253.5334" x2="-155.6581" y2="253.5334">
	<stop  offset="0" style="stop-color:#082d3c"/>
	<stop  offset="0.25" style="stop-color:#082d3c"/>
	<stop  offset="0.5" style="stop-color:#082d3c"/>
	<stop  offset="0.75" style="stop-color:#082d3c"/>
	<stop  offset="1" style="stop-color:#082d3c"/>
</linearGradient>
<path id="XMLID_681_" class="st1" d="M-165,239.9c0.4-0.3,1-0.6,1.3-0.8c0.1,0,0-0.1,0-0.1c-0.6,0.1-1.8,0.5-2.1,0.3
	c-0.3-0.2-0.7-1.4-0.9-2c0-0.1-0.1,0-0.1,0c0.1,0.4,0.1,1,0,1.5c-15.2-8.2-40.6-10.8-40.6-10.8s26.1,3.5,40.4,11.5
	c-0.3,0.3-1.2,0.7-1.7,0.9c-0.1,0,0,0.1,0,0.1c0.6-0.1,2-0.5,2.4-0.3c0.3,0.2,0.4,1.3,0.7,1.8c0,0.1,0.1,0,0.1,0
	c-0.1-0.6-0.2-1.3,0-1.7c4.5,2.7,7.5,6,7.7,9.7c0.4,8.2-11.6,11.7-23.4,15.7c-14.5,3.2-31,4.9-50,4.9s-35.9-1.7-50-4.9
	c-11.8-4-22.7-7.2-22.7-15.7c0-14.3,50.1-22.1,50.1-22.1s-53,5.5-53,24.6c0,14.1,39,26.3,75.7,26.3c37.1-0.4,75.7-12.2,75.7-26.3
	C-155.7,247.4-159.5,243.2-165,239.9z"/>
<linearGradient id="XMLID_4_" gradientUnits="userSpaceOnUse" x1="-317.9001" y1="259.8087" x2="-144.7268" y2="259.8087">
	<stop  offset="0" style="stop-color:#082d3c"/>
	<stop  offset="0.25" style="stop-color:#082d3c"/>
	<stop  offset="0.5" style="stop-color:#082d3c"/>
	<stop  offset="0.75" style="stop-color:#082d3c"/>
	<stop  offset="1" style="stop-color:#082d3c"/>
</linearGradient>
<path id="XMLID_607_" class="st2" d="M-204,226.2c0,0,51.7,8.6,51.7,26.2c0,19.3-49.2,29.1-79,29.1c-28.8,0-79.2-9.8-79.2-29.1
	c0-18.9,53.3-26.2,53.3-26.2s-60.7,7.2-60.7,32.4c0,18.6,44.6,34.7,86.6,34.7c42.4-0.5,86.6-16.1,86.6-34.7
	C-144.7,233.2-204,226.2-204,226.2z"/>
<linearGradient id="XMLID_5_" gradientUnits="userSpaceOnUse" x1="-292.347" y1="241.1797" x2="-169.8909" y2="241.1797">
	<stop  offset="0" style="stop-color:#082d3c"/>
	<stop  offset="0.394" style="stop-color:#082d3c"/>
	<stop  offset="0.6994" style="stop-color:#082d3c"/>
	<stop  offset="1" style="stop-color:#082d3c"/>
</linearGradient>
<path id="XMLID_608_" class="st3" d="M-287.4,230.4l-0.3,7.4c0-0.4,0.7,0,3.5-0.4c1.4,0,2.1-1.8,2.1-3.5s-0.3-3.5-2.1-3.5
	C-286.7,230.4-287.8,230.4-287.4,230.4L-287.4,230.4z M-287.4,242.1v9.6C-278.3,253.8-278.7,240.3-287.4,242.1L-287.4,242.1z
	 M-262.6,245.3c-4.5-0.4-7,1.1-5.9,4.3C-268.2,251.6-262.6,252.1-262.6,245.3L-262.6,245.3z M-206.5,242.4c1.7-1.4,5.6-4.3,4.2-5.3
	c-1-1.4-2.4-0.7-2.8,0C-206.2,238.5-206.5,239.9-206.5,242.4L-206.5,242.4z M-292.3,227.5c-0.3-1.8,1-2.1,1.7-2.1h8
	c5.6,0,7.7,11,2.8,14.2c0,0,1.7,0.7,2.8,1.8c1,1.4,1,3.9,1,3.9h3.1c0.3-0.7,1-4.3,10.1-3.9c-0.3,0,0-1.8,0-2.8
	c-0.3-2.5-3.1-2.1-6.3-0.7c-1.7,0.7-4.5-1.8-1.7-4.3c1.7-1.4,4.5-1.4,4.9-1.4c5.6,0,8,2.5,8,5.3l-0.3,7.8h5.2c0-3.5,0.3-9.6,0-10.6
	c0-2.1,3.8-4.3,4.5-0.7c2.4-2.1,4.2-2.5,5.9-1.1c1.4,0.7,1,4.3-1,4.3c-1.7,0-2.4,0-3.8,1.4c-1,1.1-0.7,6.7-0.7,6.7h7.3
	c0.3-6,0-8.2,2.4-11.4c2.1-2.8,7.3-2.1,8.7-1.1c1.4,1.1,2.4,1.4,2.8,4.6c0,3.9-4.2,2.8-4.2,0.7c-0.3-1.4-2.4-2.1-3.5-0.7
	c-1.7,2.9-1,11.4,0,12.8c1,1.1,3.1,1.1,4.2,0c0.7-1.1,0.7-2.5,0.7-3.5c0-1.1,0.4-1.4,1.4-1.4h4.5c0-8.2,0-6.4,0-10.6
	c0-3.9,4.5-3.2,4.9-1.1c0.7-1.4,2.8-2.5,4.5-1.8c2.8,1.1,1.7,4.6,0.3,4.6c-2.1,0.4-4.9-0.4-4.9,2.8c0,1.4,0,3.2,0,6h7.3
	c0.3-5,0-6.4,1-9.9c1-2.5,2.8-3.5,5.2-3.9c2.8-0.7,4.5,0,6.3,1.8c2.4,2.1,1.7,6.4,0.3,7.8c-2.8,3.2-3.1,2.8-7.7,6
	c0,1.8,0.7,3.2,2.8,3.5c1.7,0.4,3.1-1.8,3.1-3.9c0-1.1,0.7-1.4,2.1-1.4c1.7,0,2.4,0,3.8,0c2.1,0,2.4,0,2.4,1.1
	c0.4,1.8,0,2.5,2.1,3.9c1.4,0.7,3.5,0,4.2-1.8c0.7-2.1-1.7-3.2-3.5-4.6c-3.1-1.8-5.9-3.9-4.5-8.5c1-2.8,4.2-3.5,5.2-3.9
	c1.4-0.4,4.5-0.7,6.6,1.1c2.1,1.8,0.7,5-1.7,4.3c-1.4-0.4-2.1-1.4-3.5-1.1c-2.4,0.4-1.7,2.5-1,2.8c2.8,2.5,4.9,1.8,7.3,6.7h3.8v-8.9
	c-0.7,0-2.1,0-2.4-2.5c0-2.5,2.4-2.5,2.4-2.5c-0.3-3.2,0.3-4.3,2.1-4.3c2.1-0.4,2.8,0.7,2.4,4.3c0,0,2.1,0,2.4,2.5
	c0,2.5-2.4,2.5-2.4,2.5v8.9v5.7c0.4,4.3-0.3,5-2.1,5.3c-2.4,0-2.8-1.8-2.4-5.3h-3.8c-1.7,2.8-3.8,4.3-7,4.3
	c-3.5,0.4-5.9-1.1-7.7-4.3h-1.4c-1.4,3.2-4.2,5-7.3,4.6c-3.1-0.4-5.2-1.8-6.6-4.6h-8v3.2c0,2.1-4.5,3.2-4.5,0
	c-0.3-1.4-0.3-1.4-0.3-3.2h-2.4c-1,3.9-3.8,5-7,5c-3.1,0-5.9-1.4-7-5h-8c0,1.8,0,2.5,0,2.8c0.3,2.5-4.5,3.9-4.9,0c0-1.1,0-1.4,0-2.8
	h-4.9v3.2c-0.3,1.4-3.5,3.2-4.9,0.4c-0.7,2.1-9.1,3.5-10.8-3.5h-2.4c-2.1,4.3-3.8,6-8,6c-3.5,0-3.1,0-6.3-0.4
	c-1.4,0-2.1-0.7-2.1-1.8L-292.3,227.5L-292.3,227.5z"/>
</svg>
