<svg xmlns="http://www.w3.org/2000/svg" width="334.51" height="132.11" viewBox="0 0 334.51 132.11">
  <title>elk_color</title>
  <g id="Layer_2" data-name="Layer 2">
    <g id="Layer_1-2" data-name="Layer 1">
      <g>
        <path d="M16.1,132.11c6.52,0,8.91-3.62,8.91-7.1,0-9-14.3-5.9-14.3-11.33,0-2.28,2.1-3.84,5-3.84a9.11,9.11,0,0,1,7,2.9l1.81-2.21a11.35,11.35,0,0,0-8.54-3.4c-4.78,0-8.33,2.75-8.33,6.73,0,8.62,14.3,5.14,14.3,11.37,0,1.88-1.38,4.2-5.68,4.2A10,10,0,0,1,8.64,126l-1.81,2.32A12,12,0,0,0,16.1,132.11Z" style="fill: #082d3c"/>
        <path d="M67.21,131.68V110.21h7.67v-2.68H56.57v2.68h7.64v21.47Z" style="fill: #082d3c"/>
        <path d="M117.68,132.11c6.55,0,9.88-3.84,9.88-9.85V107.53h-3v14.7c0,4.42-2.39,7.2-6.84,7.2s-6.81-2.79-6.81-7.2v-14.7h-3V122.3C107.83,128.24,111.16,132.11,117.68,132.11Z" style="fill: #082d3c"/>
        <path d="M170.42,131.68c7.53,0,12.38-5.18,12.38-12.06s-4.85-12.09-12.38-12.09h-8.25v24.15Zm0-2.68h-5.25V110.21h5.25c6,0,9.27,4.2,9.27,9.41S176.29,129,170.42,129Z" style="fill: #082d3c"/>
        <path d="M219.48,131.68V107.53h-3v24.15Z" style="fill: #082d3c"/>
        <path d="M265.09,132.11c7.13,0,12-5.36,12-12.49s-4.89-12.49-12-12.49-12,5.36-12,12.49S258,132.11,265.09,132.11Zm0-2.68c-5.43,0-8.87-4.2-8.87-9.81s3.44-9.81,8.87-9.81S274,114,274,119.62,270.48,129.43,265.09,129.43Z" style="fill: #082d3c"/>
        <path d="M318.56,132.11c6.52,0,8.91-3.62,8.91-7.1,0-9-14.3-5.9-14.3-11.33,0-2.28,2.1-3.84,5-3.84a9.11,9.11,0,0,1,7,2.9l1.81-2.21a11.35,11.35,0,0,0-8.54-3.4c-4.78,0-8.33,2.75-8.33,6.73,0,8.62,14.3,5.14,14.3,11.37,0,1.88-1.38,4.2-5.68,4.2A10,10,0,0,1,311.1,126l-1.81,2.32A12,12,0,0,0,318.56,132.11Z" style="fill: #082d3c"/>
        <path d="M146.13,0V50.55h61V.27h42.1q.07,10.32.13,20.65l.4-.4L276.59.27,334.51.4h-.27l-52,43.31,51.89,43.44H276.59L249,64.89V87.42H34.17c-5.49,0-12.86.86-17.43-.54-5.28-1.62-9.48-5.68-12.34-9.79C-.7,69.74.12,59.54.12,47.06V26.82c0-3.08-.39-6.88.27-9.52A23.26,23.26,0,0,1,8.3,5.23a24.3,24.3,0,0,1,9.65-5L28.41,0H146.13Z" style="fill: #082d3c;fill-rule: evenodd"/>
        <path d="M244.81,83.4V55.91L278.33,83h44.11l-.27-.4-46.79-39h.27L322.71,4.42H278.2L245.08,29.5V4.29H211.29V54.57H142.11V4.16H50l-30.17.13A20.66,20.66,0,0,0,4.94,17.83c-.74,2.46-.4,6.19-.4,9.25V46.39C4.54,57.71,3.45,68.28,8.16,75a20.94,20.94,0,0,0,9.65,7.78c4.34,1.51,11.6.67,17,.67h210Z" style="fill: #fff;fill-rule: evenodd"/>
        <path d="M106.84,9.12V27.89H51.47c-3.64,0-16-.75-17.43.94-1,1.19-.83,3.82-.8,6h73.48V53.23H33.1c0,2-.26,4.67.67,5.77,1.39,1.64,13.83.8,17.56.8h55.51V78.57H40.61c-15.54,0-26,1.72-30.44-9.92-2-5.2-.94-14.33-.94-21.05,0-14.76-2.15-29.12,6.44-35.67,5.39-4.11,17.41-2.82,26.82-2.82Z" style="fill: #082d3c;fill-rule: evenodd"/>
        <path d="M112.61,9.12h24.27V59.8h74.55V78.71H112.61Z" style="fill: #082d3c;fill-rule: evenodd"/>
        <path d="M216,9.52h23.73l.13,28.83.27-.27L279.81,9.52h29l-41,33.92.27.4,41.43,34.59H279L239.85,45.59h-.13V78.44H216Z" style="fill: #082d3c;fill-rule: evenodd"/>
      </g>
    </g>
  </g>
</svg>
