<?xml version="1.0" encoding="utf-8"?>
<!-- Generator: Adobe Illustrator 23.0.0, SVG Export Plug-In . SVG Version: 6.00 Build 0)  -->
<svg version="1.1" xmlns="http://www.w3.org/2000/svg" xmlns:xlink="http://www.w3.org/1999/xlink" x="0px" y="0px"
	 viewBox="0 0 83 29.8" style="enable-background:new 0 0 83 29.8;" xml:space="preserve">
<style type="text/css">
	.st0{display:none;}
	.st1{fill:#082E3B;}
	.st2{fill:#FFFFFF;}
</style>
<g id="Ebene_1" class="st0">
	
		<image style="display:inline;overflow:visible;" width="173" height="62" xlink:href="D:\Eigene Dateien\Downloads\next.png"  transform="matrix(0.48 0 0 0.48 -0.48 -0.12)">
	</image>
</g>
<g id="Ebene_2">
	<polygon class="st1" points="23.8,0.7 27.5,0.7 28.8,3.4 27,6.5 	"/>
	<polygon class="st1" points="32,9.4 35.8,16.7 32,16.7 29.9,12.5 	"/>
	<polygon class="st1" points="31.3,0.4 35.4,0.4 26.6,17 22.9,17 	"/>
	<polygon class="st1" points="36.6,0.4 45,0.4 45,3.6 42.3,3.6 42.3,16.7 39.2,16.7 39.2,3.6 36.6,3.6 	"/>
	<path class="st1" d="M52.9,7.8h5.8c0.1,0.8,0.1,1.9,0,3.2c-0.2,3.9-3.2,5.5-3.9,6.1c-0.8,0.2-2.1,0.4-3.6,0c-3.5-1-4.8-4.5-4.9-4.9
		c-0.3-1.1-0.3-2.7,0-5.3c0.2-1.7,1.1-5.2,3.9-6.4c2-0.9,4-0.1,4.3,0c2.5,1,3.5,3.5,3.7,3.9l-2.7,1.6c-0.2-0.5-0.7-0.9-1.2-1.4
		c-2.5-2.7-4.8,0.7-5.1,2.5c-0.4,2.8,0.2,6,2.3,6.4c1.3,0.2,2.7-0.7,3.8-2.4L52.8,11L52.9,7.8z"/>
	<polygon class="st1" points="61,0.4 67.6,0.4 67.6,3.6 63.9,3.6 63.9,6.8 67.6,6.8 67.6,10.3 64.3,10.3 64.3,13 67.6,13 67.6,16.7 
		61,16.7 	"/>
	<polygon class="st1" points="70.2,0.4 73.5,0.4 79.2,10.5 79.2,0.4 82.6,0.4 82.6,16.7 79.2,16.7 73.6,6.9 73.7,16.7 70.2,16.7 	
		"/>
	<polygon class="st1" points="24.5,29.4 26.7,23.6 28.8,29.4 28,29.4 27.4,28 26,28 25.4,29.4 	"/>
	<polygon class="st1" points="35.1,29.4 36,29.4 36,26 37.2,27.7 38.5,26 38.5,29.4 39.3,29.4 39.3,23.6 38.5,23.6 37.2,26.3 
		35.8,23.6 35.1,23.6 	"/>
	<rect x="45.9" y="23.6" class="st1" width="0.7" height="5.8"/>
	<polygon class="st1" points="53.5,23.6 53.5,29.4 54.3,29.4 54.3,25.9 56.5,29.4 57.2,29.4 57.2,23.6 56.3,23.6 56.4,27.4 
		54.5,23.6 	"/>
	<path class="st1" d="M66.1,26.3l0.1,0.8c0,0,0.7-0.2,0.8,0.1c0.1,0.4,0.1,0.9-0.5,0.9c-0.4,0-0.4,0.2-0.9,0.1
		c-0.7-0.1-0.7-0.9-0.8-1.3c-0.1-1.1,0.4-2.2,1.1-2.3c0.6-0.1,0.9,0.4,1.4,0.3c0.2-0.1,0.4-0.4,0.4-0.7c-0.1-0.6-1.3-1.1-2.3-0.8
		c-1.3,0.4-2,2-1.8,3.3c0,0.4,0.2,2.2,1.5,2.8c0.1,0,1.1,0,1.9,0c0.9,0,0.9-2,0.7-3.2H66.1z"/>
	<polygon class="st1" points="-0.5,0.7 2.9,0.7 8.6,10.6 8.6,0.7 11.9,0.7 11.9,16.7 8.6,16.7 2.9,7.2 2.6,16.7 -0.5,16.7 	"/>
	<polygon class="st1" points="14.4,0.7 21.2,0.7 21.2,3.9 17.2,3.9 17.1,6.6 21.2,6.6 21.2,10.4 17.2,10.4 17.1,13.7 21.2,13.7 
		21.2,16.7 14.4,16.7 	"/>
	<path class="st1" d="M16.5,26.4v0.7c0.1,0.1,0.6-0.1,0.9,0.1c0.3,0.3,0.2,1.1-0.4,1.1c-0.6,0-0.7,0.2-1,0c-0.6-0.3-0.8-1-0.7-1.4
		c0.1-0.9-0.1-2,0.7-2.3c0.5-0.2,1.1,0.5,1.6,0.3c0.2-0.1,0.7-0.2,0.7-0.4c-0.1-0.6-1.7-1.5-2.6-1.2c-1.3,0.4-1.6,2.4-1.5,3.6
		c0,0.4,0.2,2.1,1.5,2.6c0.1,0,0.9,0.4,1.6,0c0.9-0.4,1.3-2,1.1-3.2L16.5,26.4z"/>
	<polygon class="st2" points="26.6,25.3 25.9,27.2 27.3,27.2 	"/>
</g>
</svg>
