<?xml version="1.0" encoding="utf-8"?>
<!-- Generator: Adobe Illustrator 18.1.1, SVG Export Plug-In . SVG Version: 6.00 Build 0)  -->
<svg version="1.1" id="_3" xmlns="http://www.w3.org/2000/svg" xmlns:xlink="http://www.w3.org/1999/xlink" x="0px" y="0px"
	 viewBox="98 -27 216 94" enable-background="new 98 -27 216 94" xml:space="preserve">
<metadata><?xpacket begin="﻿" id="W5M0MpCehiHzreSzNTczkc9d"?>
<x:xmpmeta xmlns:x="adobe:ns:meta/" x:xmptk="Adobe XMP Core 5.6-c014 79.156821, 2014/08/29-03:07:50        ">
   <rdf:RDF xmlns:rdf="http://www.w3.org/1999/02/22-rdf-syntax-ns#">
      <rdf:Description rdf:about=""
            xmlns:xmp="http://ns.adobe.com/xap/1.0/"
            xmlns:xmpGImg="http://ns.adobe.com/xap/1.0/g/img/"
            xmlns:xmpTPg="http://ns.adobe.com/xap/1.0/t/pg/"
            xmlns:stDim="http://ns.adobe.com/xap/1.0/sType/Dimensions#"
            xmlns:xmpG="http://ns.adobe.com/xap/1.0/g/"
            xmlns:dc="http://purl.org/dc/elements/1.1/"
            xmlns:xmpMM="http://ns.adobe.com/xap/1.0/mm/"
            xmlns:stEvt="http://ns.adobe.com/xap/1.0/sType/ResourceEvent#">
         <xmp:CreatorTool>Adobe Illustrator CC 2014 (Windows)</xmp:CreatorTool>
         <xmp:CreateDate>2018-11-07T11:01:06+01:00</xmp:CreateDate>
         <xmp:Thumbnails>
            <rdf:Alt>
               <rdf:li rdf:parseType="Resource">
                  <xmpGImg:width>256</xmpGImg:width>
                  <xmpGImg:height>112</xmpGImg:height>
                  <xmpGImg:format>JPEG</xmpGImg:format>
                  <xmpGImg:image>/9j/4AAQSkZJRgABAgEASABIAAD/7QAsUGhvdG9zaG9wIDMuMAA4QklNA+0AAAAAABAASAAAAAEA&#xA;AQBIAAAAAQAB/+4ADkFkb2JlAGTAAAAAAf/bAIQABgQEBAUEBgUFBgkGBQYJCwgGBggLDAoKCwoK&#xA;DBAMDAwMDAwQDA4PEA8ODBMTFBQTExwbGxscHx8fHx8fHx8fHwEHBwcNDA0YEBAYGhURFRofHx8f&#xA;Hx8fHx8fHx8fHx8fHx8fHx8fHx8fHx8fHx8fHx8fHx8fHx8fHx8fHx8fHx8f/8AAEQgAcAEAAwER&#xA;AAIRAQMRAf/EAaIAAAAHAQEBAQEAAAAAAAAAAAQFAwIGAQAHCAkKCwEAAgIDAQEBAQEAAAAAAAAA&#xA;AQACAwQFBgcICQoLEAACAQMDAgQCBgcDBAIGAnMBAgMRBAAFIRIxQVEGE2EicYEUMpGhBxWxQiPB&#xA;UtHhMxZi8CRygvElQzRTkqKyY3PCNUQnk6OzNhdUZHTD0uIIJoMJChgZhJRFRqS0VtNVKBry4/PE&#xA;1OT0ZXWFlaW1xdXl9WZ2hpamtsbW5vY3R1dnd4eXp7fH1+f3OEhYaHiImKi4yNjo+Ck5SVlpeYmZ&#xA;qbnJ2en5KjpKWmp6ipqqusra6voRAAICAQIDBQUEBQYECAMDbQEAAhEDBCESMUEFURNhIgZxgZEy&#xA;obHwFMHR4SNCFVJicvEzJDRDghaSUyWiY7LCB3PSNeJEgxdUkwgJChgZJjZFGidkdFU38qOzwygp&#xA;0+PzhJSktMTU5PRldYWVpbXF1eX1RlZmdoaWprbG1ub2R1dnd4eXp7fH1+f3OEhYaHiImKi4yNjo&#xA;+DlJWWl5iZmpucnZ6fkqOkpaanqKmqq6ytrq+v/aAAwDAQACEQMRAD8A9U4q7FXYq7FXYq7FXYq7&#xA;FXYq7FXYq7FXYq7FXYq7FXYq7FXYq7FXYq7FXYq7FXYq7FXYq7FXYq7FXYq7FXYq7FXYq7FXYq7F&#xA;XYq7FXYq7FXYq7FXYq7FXYq7FXYq7FXYq7FXYq7FXYq7FXYq7FXYq7FXYq7FXYq7FXYq7FXYq7FX&#xA;Yq7FXYq7FXYq7FXYq7FXYq7FXYq7FXYq7FXYq7FXYq7FXYq7FXYq7FXYq7FXYq7FXYq7FXYq7FXY&#xA;q7FXYq7FXYq7FXYq7FXYq7FXYq7FXYq7FXYq7FXYq7FXYq7FXYq7FXYq7FXYq7FXYq7FXYq7FXYq&#xA;7FXYq7FXYq7FXYq7FXYq7FXYq7FXYq7FXYq7FXYq7FXYq7FXYq7FXYq7FXYq7FXYq7FXYq7FXYq7&#xA;FXYq7FXYq7FXYq7FXYq7FXYq7FXYq7FXYq7FXYq7FXYq7FXYq7FXYq7FXYq7FXYq7FXYq7FXYq7F&#xA;XYq7FXYq7FXYq7FXYq7FXYq7FXYq7FXYq7FXYq7FXYq7FXYq7FXYq7FXYq7FXYq7FXYq7FXYq7FX&#xA;Yq7FXYq7FXYq7FXYq7FXYq7FXYq7FXYq7FXYq7FXYq7FXYq7FXYq7FXYq7FXYq7FXYq7FXYq7FXY&#xA;q7FXYq7FXYq7FXYq7FXYq7FXYq7FXYq7FXYq7FXYq7FXYq7FXYq7FXYq7FXYq7FXYq7FXYq7FXYq&#xA;7FXYq7FXYq7FXYq7FXYq7FXYq7FXYq7FXYq7FXYq7FXYq7FXYq7FXYq7FXYq7FXYq7FXYq7FXYq7&#xA;FXYq7FXYq7FXYq7FXYq7FXYq7FXYq7FXYq7FXYq7FXYq7FXYq7FXYq7FXYq7FXYq7FXYq7FXYq7F&#xA;XYq7FXYq7FXYq7FXYq7FXYq7FXYq7FXYq7FXYq7FXYq7FXYq7FXYq7FXYq7FXYq7FXYq7FXYq7FX&#xA;Yq7FXYq7FXYq7FXYq7FXYq7FXYq7FXYq7FXYq7FXYq7FXYq7FXYq7FXYq7FXYq7FXYq7FXYq7FXY&#xA;q7FXYq7FXYq7FXYq7FXYq7FXYq7FXYq7FXYq7FXYq7FXYq7FXYq7FXYq7FXYq7FXYq7FXYq7FXYq&#xA;7FXYq7FXYq7FXYq7FXYq7FXYq7FXYq7FXYq7FX//2Q==</xmpGImg:image>
               </rdf:li>
            </rdf:Alt>
         </xmp:Thumbnails>
         <xmp:MetadataDate>2018-11-07T11:01:07+01:00</xmp:MetadataDate>
         <xmp:ModifyDate>2018-11-07T11:01:07+01:00</xmp:ModifyDate>
         <xmpTPg:MaxPageSize rdf:parseType="Resource">
            <stDim:w>216.000000</stDim:w>
            <stDim:h>94.000000</stDim:h>
            <stDim:unit>Pixels</stDim:unit>
         </xmpTPg:MaxPageSize>
         <xmpTPg:NPages>1</xmpTPg:NPages>
         <xmpTPg:HasVisibleTransparency>False</xmpTPg:HasVisibleTransparency>
         <xmpTPg:HasVisibleOverprint>False</xmpTPg:HasVisibleOverprint>
         <xmpTPg:SwatchGroups>
            <rdf:Seq>
               <rdf:li rdf:parseType="Resource">
                  <xmpG:groupName>Standard-Farbfeldgruppe</xmpG:groupName>
                  <xmpG:groupType>0</xmpG:groupType>
               </rdf:li>
            </rdf:Seq>
         </xmpTPg:SwatchGroups>
         <dc:format>image/svg+xml</dc:format>
         <xmpMM:DerivedFrom rdf:parseType="Resource"/>
         <xmpMM:DocumentID>xmp.did:a7b63b41-0017-bd4b-bd5f-ec9a76760a78</xmpMM:DocumentID>
         <xmpMM:InstanceID>xmp.iid:a7b63b41-0017-bd4b-bd5f-ec9a76760a78</xmpMM:InstanceID>
         <xmpMM:OriginalDocumentID>xmp.did:a7b63b41-0017-bd4b-bd5f-ec9a76760a78</xmpMM:OriginalDocumentID>
         <xmpMM:History>
            <rdf:Seq>
               <rdf:li rdf:parseType="Resource">
                  <stEvt:action>saved</stEvt:action>
                  <stEvt:instanceID>xmp.iid:a7b63b41-0017-bd4b-bd5f-ec9a76760a78</stEvt:instanceID>
                  <stEvt:when>2018-11-07T11:01:07+01:00</stEvt:when>
                  <stEvt:softwareAgent>Adobe Illustrator CC 2014 (Windows)</stEvt:softwareAgent>
                  <stEvt:changed>/</stEvt:changed>
               </rdf:li>
            </rdf:Seq>
         </xmpMM:History>
      </rdf:Description>
   </rdf:RDF>
</x:xmpmeta>
                                                                                                    
                                                                                                    
                                                                                                    
                                                                                                    
                                                                                                    
                                                                                                    
                                                                                                    
                                                                                                    
                                                                                                    
                                                                                                    
                                                                                                    
                                                                                                    
                                                                                                    
                                                                                                    
                                                                                                    
                                                                                                    
                                                                                                    
                                                                                                    
                                                                                                    
                                                                                                    
                           
<?xpacket end="w"?>
	</metadata>
<path id="_2" fill="#FFFFFF" d="M312.9,31.7l-0.6-3.7l-1.3,3.7h-1l-1.3-3.7l-0.7,3.7H307l1-5.9h1.1l1.4,4.1l1.4-4.1h1.1l1,5.9H312.9
	z M305.5,31.7h-1.2v-4.8h-1.1v-1.1h3.3v1.1h-1.1L305.5,31.7L305.5,31.7z M289.7,42.4h-3.2v-7.2l-5-9.4h3.5l3.2,6l3.2-6h3.4l-5,9.5
	L289.7,42.4L289.7,42.4z M280.5,42.4l-1.3-3.4h-6.9l-1.4,3.4h-3.4l6.5-16.7h3.3l6.5,16.7L280.5,42.4L280.5,42.4z M275.7,30.1
	l-2.3,5.7h4.5L275.7,30.1z M257.7,25.7h3.2v13.6h4.7v3h-7.9L257.7,25.7z M252.2,35.1c-1.1,0.2-2.3,0.3-3.4,0.3v7.1h-3.2V25.7h3.4
	c1.4-0.1,2.7,0.1,4,0.5c0.8,0.3,1.5,0.9,2,1.6c0.5,0.8,0.7,1.8,0.7,2.7c0,1.1-0.3,2.1-0.9,2.9C254,34.3,253.2,34.9,252.2,35.1
	L252.2,35.1z M251.7,29.1c-0.6-0.3-1.4-0.4-2.1-0.3h-0.9l0,3.5h1c0.6,0,1.1,0,1.7-0.2c0.3-0.1,0.6-0.3,0.7-0.6
	c0.2-0.3,0.3-0.6,0.3-1C252.5,30,252.2,29.4,251.7,29.1L251.7,29.1z M226.8,28.1c-3.2-0.1-5.8,2.5-5.9,5.6c0,0.1,0,0.1,0,0.2
	c0,1.1,0.2,2.1,0.7,3c0.5,0.9,1.2,1.6,2.1,2.1c0.9,0.5,2,0.8,3.1,0.8c0.9,0,1.8-0.2,2.6-0.5c1-0.5,1.9-1.2,2.6-2l2.2,2.3
	c-1,1.1-2.3,1.9-3.6,2.6c-1.2,0.5-2.6,0.7-3.9,0.7c-2.5,0.1-4.8-0.8-6.6-2.5c-3.5-3.4-3.6-9-0.2-12.5c0.6-0.7,1.4-1.2,2.2-1.6
	c1.4-0.8,3.1-1.2,4.7-1.2c2.9,0,5.6,1.2,7.5,3.4l-2.3,2.1C230.7,29,228.8,28.1,226.8,28.1L226.8,28.1z M234.4,28.4L234.4,28.4
	L234.4,28.4L234.4,28.4z M211.7,25.4h3.3v17h-3.3V25.4L211.7,25.4z M205.9,42.4h-3.3V28.5h-3.1v-3.2h9.6v3.2h-3.2L205.9,42.4
	L205.9,42.4z M196.5,42.4l-1.4-3.5h-7.1l-1.4,3.5h-3.4l6.7-17h3.3l6.7,17H196.5L196.5,42.4z M191.6,29.9l-2.3,5.9h4.6L191.6,29.9z
	 M176.2,31.6l-3.7,10.8h-2.9L166,31.6l-1.9,10.8h-3.3l3-17.1h3.2l4,11.9l4.1-11.9h3.2l2.9,17H178L176.2,31.6z M155.1,41.8
	c-1.4,0.7-2.9,1.1-4.4,1.1c-1.7,0-3.3-0.4-4.8-1.1c-1.4-0.8-2.6-1.9-3.3-3.3c-0.8-1.4-1.2-3-1.2-4.6c0-2.2,0.8-4.3,2.3-5.9
	c1.8-2,4.3-3,7-2.9c1.5,0,2.9,0.3,4.2,0.8c1.2,0.6,2.4,1.4,3.3,2.4l-2.3,2.3c-1.3-1.5-3.2-2.3-5.1-2.3c-1.6,0-3.1,0.6-4.3,1.7
	c-1.1,1-1.8,2.5-1.7,4.1c0,1.6,0.6,3.1,1.8,4.2c1.2,1.1,2.8,1.8,4.4,1.7c1,0,2-0.2,2.9-0.7c0.8-0.5,1.5-1.3,1.9-2.2h-5v-3h8.7v0.7
	C159.3,37.5,157.7,40.3,155.1,41.8L155.1,41.8z M136,38.9h-7l-1.4,3.5h-3.5l6.7-17h3.3l6.7,17h-3.4L136,38.9z M132.5,29.9l-2.3,5.9
	h4.6L132.5,29.9z M118.5,42.4l-3.9-7.2h-0.3v7.2H111v-17h3.5c1.4-0.1,2.8,0.1,4.1,0.5c0.8,0.3,1.5,0.9,2,1.7
	c0.5,0.8,0.8,1.8,0.7,2.8c0,1-0.3,2-0.8,2.8c-0.6,0.8-1.5,1.4-2.5,1.7l4.1,7.6L118.5,42.4L118.5,42.4z M118,30.3
	c0-0.7-0.4-1.3-1.1-1.6c-0.6-0.1-1.2-0.2-1.8-0.2h-0.9l0,3.5h1c0.7,0.1,1.5-0.1,2.2-0.4C117.9,31.3,118.1,30.8,118,30.3L118,30.3z
	 M104.8,34.9c-1.1,0.2-2.3,0.3-3.5,0.3v7.2H98v-17h3.5c1.4-0.1,2.8,0.1,4.1,0.5c0.8,0.3,1.5,0.9,2,1.7c0.5,0.8,0.8,1.8,0.7,2.8
	c0,1.1-0.3,2.1-0.9,2.9C106.7,34.1,105.8,34.7,104.8,34.9L104.8,34.9z M104.3,28.8c-0.7-0.3-1.4-0.4-2-0.3h-0.9V32h1
	c0.6,0,1.2,0,1.7-0.2c0.3-0.1,0.6-0.3,0.8-0.6c0.2-0.3,0.3-0.6,0.3-1C105.1,29.7,104.8,29.1,104.3,28.8L104.3,28.8z"/>
<path id="_1" fill="#FFFFFF" d="M269.5,67c-18.1,0.2-32.9-14.4-33.1-32.5s14.4-32.9,32.5-33.1C287,1.3,301.8,15.8,302,33.9
	c0,0.1,0,0.2,0,0.3C302.1,52.2,287.5,66.9,269.5,67z M269.5,4.9c-16.2,0.1-29.2,13.4-29.1,29.6c0.1,16,13.1,29,29.1,29.1v0h0
	c16.2,0,29.3-13.1,29.3-29.3C298.8,18,285.7,4.9,269.5,4.9L269.5,4.9L269.5,4.9z M279.3,22.8c-11.2,0.7-15.7-12.5-5.6-13.2
	C284.5,8.9,290.2,22.1,279.3,22.8L279.3,22.8z M267.4-2c-5.6,0.2-11.1,1.9-15.9,4.8c-0.7-2.2-3.8-10.6-11.8-15.3
	c5.7,0.3,10.9,3.6,13.6,8.7c0,0-3.1-13.2-2.3-23.2c6.3,7.8,11.1,20.5,11.1,20.5c-0.6-5.7,1.8-11.4,6.4-14.9
	C264.4-12.9,266.7-4.1,267.4-2z"/>
</svg>
