<?xml version="1.0" encoding="utf-8"?>
<!-- Generator: Adobe Illustrator 18.1.1, SVG Export Plug-In . SVG Version: 6.00 Build 0)  -->
<svg version="1.1" id="Ebene_1" xmlns="http://www.w3.org/2000/svg" xmlns:xlink="http://www.w3.org/1999/xlink" x="0px" y="0px"
	 viewBox="0 0 1277.1 420" enable-background="new 0 0 1277.1 420" xml:space="preserve">
<g>
	<path fill="none" d="M1082.2,65.6c0-1.6,0.3-2.8,1.8-3.8c1.3-0.9,2.2-2.4,3.5-3.1c1.6-0.8,3.5-1.2,5.2-1.2c27.3-0.1,54.7,0,82-0.1
		c4.2,0,7.2,1.8,9.7,4.9c0.3,0.4,0.5,0.9,0.6,1.3c0.3,2.6,0.9,5.3,0.9,7.9c0.1,25,0.1,50,0,75c0,2.5-0.6,5.1-1,7.6
		c-0.1,0.5-0.5,1.2-0.9,1.4c-2.5,1.2-4.6,3-7.7,3c-14.2-0.1-28.3-0.1-42.5-0.1c-14,0-28-0.1-42,0.1c-3,0-5.4-1.2-7.8-2.8
		c-1.5-1-2-2.5-2-4.3c0-17.4-0.1-34.8-0.1-52.2C1082,88.1,1082.2,76.9,1082.2,65.6z M230.3,87.9c-0.5,3.1-0.9,6.2-1.3,9.3
		c-0.3,2.3-0.6,2.5-2.7,1.4c-4.9-2.6-9.6-5.4-14.7-7.6c-3.6-1.6-7.5-2.4-11.2-3.5c-8.7-2.7-17.6-2.8-26.4-1.7
		c-11.1,1.4-20.2,6.8-24.8,17.4c-4.3,9.9-2.3,19.2,5,27.3c6.4,7.1,14,12.6,21.7,18.2c12.1,8.7,24.5,17.2,34.1,28.9
		c5,6,8.8,12.7,11.6,19.9c1.3,3.4,1.8,7.2,2.3,10.8c0.5,3.8,0.9,7.6,0.8,11.4c-0.2,6.3-1.5,12.5-3.6,18.6
		c-3.1,8.8-7.8,16.4-14.5,22.8c-5.8,5.5-12.4,9.8-19.8,12.9c-4.9,2-9.9,3.5-15,4.5c-8.5,1.7-17.2,1.9-25.8,0.9
		c-6.3-0.7-12.5-2.1-18.5-4c-6.6-2-13-4.7-19.3-7.6c-6.6-3-13-6.6-19.5-10c-2.3-1.2-2.4-2.3-1.6-4.6c2.3-6.2,4.5-12.4,6.8-18.6
		c1-2.7,2.1-5.3,3.3-8.3c2.7,1.7,5.1,3.2,7.5,4.8c6.9,4.5,14.1,8.4,21.9,11.2c5.4,1.9,11.1,3,16.6,4.5c5.2,1.4,10.6,1.4,15.8,0.7
		c11-1.4,20.2-6,25.3-16.6c1.4-3,1.6-6.2,1.7-9.4c0.2-6.4-2.1-11.8-5.8-16.8c-5.2-7.2-12.1-12.5-19-17.8
		c-8.5-6.5-17.1-13.1-25.6-19.6c-8.4-6.4-15.1-14.3-20.2-23.5c-2.7-5-4.7-10.2-5.8-15.8c-1.4-6.8-1.2-13.6-0.5-20.4
		c0.8-7.8,3.7-15,7.9-21.7c7.9-12.4,18.9-20.9,32.4-26.4c5.6-2.3,11.4-4,17.4-5.1c6.4-1.1,12.8-1.9,19.2-1.5
		c4.2,0.2,8.4,0.9,12.5,1.5c3.9,0.6,7.8,1.3,11.6,2.3c3.6,0.9,7.1,1.9,10.6,3.2c3.7,1.4,7.2,3.1,10.8,4.6c2.5,1.1,2.7,1.7,2.1,4.4
		c-0.7,3-1.1,6.1-1.7,9.2C231.5,81.3,230.8,84.6,230.3,87.9z M373.8,172.6c-0.5,5.5-1.2,11-2,16.5c-0.6,4.5-1.2,9-1.9,13.5
		c-0.9,5.6-1.8,11.2-2.7,16.9c-0.5,3.2-0.7,6.4-1.2,9.6c-0.6,4-1.2,8-1.8,12c-0.4,2.5-0.7,5.1-1.1,7.6c-0.4,3.5-0.8,7.1-1.2,10.6
		c-0.7,5.2-1.4,10.5-2.1,15.7c-0.2,1.6-1.2,1.7-2.5,1.7c-10.3,0-20.7,0-31,0c-0.6,0-1.3-0.1-2.2-0.2c0.3-3.1,0.6-6,1-8.9
		c0.5-3.1,1.2-6.2,1.6-9.3c0.5-3.8,0.8-7.7,1.3-11.6c0.8-5.6,1.8-11.2,2.7-16.9c0.4-2.6,0.8-5.2,1.1-7.9c0.5-3.9,0.8-7.7,1.3-11.6
		c0.8-5.5,1.8-11.1,2.6-16.6c0.5-3.3,0.9-6.6,1.2-9.9c0.4-4.8,1.1-9.6,0.9-14.3c-0.2-5.8-2.9-10.7-8.2-13.6c-3.5-1.9-7.5-2-11.4-1
		c-10.2,2.5-17.9,9-25.3,15.9c-3.4,3.1-6.5,6.6-9.6,9.9c-0.5,0.6-1,1.4-1.2,2.1c-0.5,2.9-0.7,5.7-1.2,8.6c-0.6,3.8-1.2,7.7-1.8,11.5
		c-0.4,2.6-0.8,5.2-1.1,7.9c-0.4,3.7-0.7,7.4-1.3,11.1c-0.8,5.7-1.8,11.4-2.7,17.1c-0.4,2.5-0.7,5.1-1.1,7.6
		c-0.4,3.5-0.7,7.1-1.2,10.6c-0.9,6.4-1.9,12.8-2.8,19.3c-11.9,0-23.4,0-35.4,0c0.3-2.2,0.7-4.2,1-6.2c0.4-2.5,0.8-5.1,1.1-7.6
		c0.4-3.2,0.7-6.4,1.2-9.6c0.5-3.8,1.2-7.5,1.8-11.3c0.4-2.5,0.8-5.1,1.1-7.6c0.5-3.7,0.7-7.4,1.3-11.1c0.8-5.7,1.8-11.4,2.7-17.1
		c0.4-2.5,0.8-5.1,1.1-7.6c0.4-3.5,0.7-7.1,1.2-10.6c0.8-5.7,1.8-11.4,2.7-17.1c0.4-2.5,0.8-4.9,1.1-7.4c0.4-3.6,0.7-7.3,1.3-10.9
		c0.9-5.9,1.9-11.7,2.8-17.5c0.4-2.4,0.7-4.9,1-7.4c0.4-3.5,0.7-7.1,1.3-10.6c0.8-5.7,1.8-11.4,2.7-17.1c0.4-2.5,0.7-5.1,1.1-7.6
		c0.4-3.5,0.7-6.9,1.2-10.4c0.9-6,1.9-11.9,2.7-17.8c0.4-2.8,0.6-5.5,1-8.4c11.9,0,23.4,0,35,0c0.1,0.6,0.3,1.1,0.2,1.5
		c-0.5,3.5-1.1,7-1.7,10.5c-0.4,2.5-0.8,5.1-1.1,7.6c-0.4,3.4-0.7,6.7-1.2,10.1c-0.9,5.9-1.8,11.7-2.7,17.6
		c-0.4,2.5-0.7,5.1-1.1,7.6c-0.4,3.4-0.7,6.9-1.2,10.3c-0.8,5.7-1.9,11.4-2.7,17.1c-0.6,3.9-0.9,7.8-1.4,11.7
		c0.2,0.1,0.4,0.2,0.6,0.3c1.5-1.3,3-2.5,4.4-3.9c7-6.8,15.1-11.8,24-15.4c4.2-1.7,8.8-2.5,13.3-3.3c3.3-0.6,6.8-1,10.1-0.8
		c10.4,0.6,19.5,4.1,26.1,12.8c3.5,4.6,5.8,9.7,7,15.4C373.6,160.7,374.4,166.6,373.8,172.6z M521.6,142.2c-0.1,0.6-0.3,1.3-0.4,1.9
		c-0.6,4.3-1.3,8.6-1.9,13c-0.4,2.6-0.7,5.2-1.1,7.9c-0.8,6.2-1.4,12.5-2.3,18.7c-0.8,5.5-1.8,11-2.6,16.6c-0.5,3.2-0.7,6.4-1.2,9.6
		c-0.5,3.8-1.2,7.5-1.8,11.3c-0.1,0.5-0.1,1-0.2,1.5c-0.6,4.5-1.3,9-1.9,13.4c-0.4,2.9-0.7,5.7-1.1,8.6c-0.6,4.2-1.2,8.3-1.8,12.5
		c-0.4,2.8-0.8,5.6-1.1,8.4c-0.4,3.2-0.7,6.4-1.2,9.6c-0.1,0.6-0.9,1.1-1.5,1.5c-0.1,0.1-0.5,0-0.7,0c-10.5,0-21,0-31.5,0
		c-0.3,0-0.6-0.1-1.5-0.2c0.9-6.9,1.8-13.8,2.7-20.7c-0.2-0.1-0.4-0.2-0.7-0.3c-1.5,1.3-3.1,2.5-4.5,3.8c-7,6.3-14.6,11.9-23.3,15.7
		c-4.1,1.8-8.2,3.4-12.7,3.8c-3.3,0.2-6.6,0.9-9.9,0.7c-14.4-0.6-25.2-7-31.5-20.3c-2.4-5-3.9-10.2-4-15.9c-0.1-2.5-0.7-5-0.6-7.4
		c0.3-5.4,1-10.9,1.5-16.3c0.3-2.8,0.7-5.6,1-8.4c0.4-3.6,0.8-7.2,1.3-10.8c0.8-5.2,1.8-10.4,2.6-15.6c0.4-2.4,0.7-4.9,1.1-7.3
		c0.8-5.7,1.4-11.5,2.3-17.2c0.8-5.3,1.8-10.5,2.7-15.8c0.5-3.4,0.8-6.9,1.3-10.3c0.2-1.2,0.5-2.4,0.8-3.4c11.8,0,23.1,0,34.8,0
		c-0.9,5.7-1.7,11.1-2.5,16.6c-0.5,3.2-0.7,6.4-1.2,9.6c-0.6,4.1-1.3,8.1-1.9,12.2c-0.4,2.4-0.7,4.9-1,7.4
		c-0.4,3.4-0.7,6.9-1.2,10.4c-0.9,6.1-1.8,12.2-2.7,18.3c-0.4,2.5-0.8,5.1-1,7.6c-0.5,4.3-0.9,8.6-1.3,12.9
		c-0.2,1.6-0.6,3.1-0.6,4.6c-0.2,5.6,0.4,11.2,3.7,16c2.9,4.1,6.9,5.7,11.9,5.5c5.1-0.2,9.5-2.4,13.8-4.7c7-3.8,13-9.2,18.7-14.7
		c2.4-2.4,4.6-5,6.8-7.6c0.3-0.3,0.6-0.8,0.7-1.2c0.4-2.7,0.7-5.4,1.1-8.1c0.9-6.1,1.9-12.2,2.8-18.3c0.4-2.4,0.7-4.9,1-7.3
		c0.4-3.4,0.7-6.9,1.2-10.3c0.8-5.8,1.8-11.5,2.7-17.3c0.4-2.7,0.8-5.4,1.1-8.1c0.4-3.6,0.8-7.2,1.3-10.8c0.6-4.1,1.4-8.3,2.1-12.5
		c11.5,0,23.1,0,34.9,0C522.6,134.6,522.1,138.4,521.6,142.2z M622.2,130.3c-0.1,2-0.1,3.6-0.3,5.2c-0.5,4.1-1.2,8.1-1.8,12.2
		c-0.4,3-0.8,6.1-1.1,9.1c-0.2,1.8-1.5,1.7-2.7,1.7c-8,0-16,0-24,0c-0.9,0-1.8,0-2.7,0c-0.5,2.5-1,4.7-1.3,7
		c-0.5,3.8-0.7,7.6-1.3,11.4c-0.8,6-1.8,12-2.7,18.1c-0.4,2.5-0.7,5.1-1,7.6c-0.4,3.8-0.7,7.6-1.3,11.3c-0.8,6-1.8,12.1-2.7,18.1
		c-0.4,2.7-0.8,5.4-1.1,8.1c-0.4,3.9-0.7,7.7-1.3,11.6c-0.8,5.9-1.8,11.7-2.7,17.6c-0.5,3.4-0.7,6.7-1.2,10.1
		c-0.5,3.9-1.2,7.8-1.8,11.7c-0.4,2.8-0.8,5.6-1.1,8.4c-0.4,3.8-0.7,7.6-1.3,11.4c-0.8,6-1.9,12.1-2.7,18.1
		c-0.5,3.7-0.9,7.4-1.3,11.3c-11.6,0-23.1,0-34.7,0c0.4-3.2,0.7-6.2,1-9.2c0.2-1.4,0.5-2.8,0.7-4.1c0.6-4.1,1.2-8.2,1.8-12.2
		c0.4-2.8,0.8-5.6,1.1-8.3c0.5-3.9,0.7-7.9,1.3-11.9c0.8-5.9,1.8-11.7,2.7-17.6c0.4-2.9,0.7-5.9,1.1-8.9c0.6-4.4,1.3-8.8,1.9-13.2
		c0.4-2.6,0.7-5.2,1-7.9c0.4-3.8,0.7-7.6,1.2-11.3c0.8-6,1.8-11.9,2.7-17.8c0.4-2.7,0.7-5.4,1.1-8.1c0.4-3.5,0.7-7.1,1.2-10.6
		c0.8-6.1,1.8-12.2,2.7-18.4c0.4-2.5,0.7-5.1,1-7.6c0.5-4.5,0.9-9.1,1.4-13.6c0-0.2-0.1-0.5-0.3-1c-8.3,0-16.7,0-25.5,0
		c1.3-9.5,2.6-18.6,3.9-28c8.8,0,17.5,0,26.2,0c0.5-4.2,0.8-7.9,1.5-11.6c1-5.1,2.2-10.1,3.7-15c1.5-4.7,3.2-9.4,5.3-13.9
		c3.8-8.4,9.3-15.7,16.1-21.8c6.1-5.5,13-9.6,21-11.9c4.9-1.5,9.8-2.8,15-2.9c3.5-0.1,7-0.8,10.4-0.5c5.6,0.4,11.3,0.7,16.8,2.5
		c4.7,1.5,9.4,2.8,14.1,4.1c1.4,0.4,1.7,1.1,1.5,2.3c-0.5,3.3-1.1,6.7-1.6,10c-0.5,2.9-0.9,5.9-1.3,8.8c-0.4,3.2-0.9,6.4-1.4,9.9
		c-0.8-0.1-1.6-0.1-2.3-0.4c-4.7-1.8-9.3-4.1-14.2-5.3c-5.9-1.5-12-1.7-18.2-0.6c-6.7,1.2-12.5,4-17.3,8.5c-3.9,3.7-7,8.1-8.7,13.3
		c-1.3,3.9-2.8,7.7-3.7,11.6c-0.9,4-1.2,8.2-1.8,12.6C603.3,130.3,612.6,130.3,622.2,130.3z M722.8,136.5c-0.5,3.9-1.2,7.8-1.7,11.7
		c-0.4,2.9-0.8,5.9-1.1,8.8c-0.1,1.2-0.9,1.5-1.9,1.5c-2.4,0-4.8,0-7.3,0c-5.9,0-11.8,0-17.8,0c-0.9,0-1.8,0.1-2.7,0.1
		c-0.5,3.2-0.9,6.2-1.3,9.2c-0.6,4.1-1.2,8.2-1.8,12.3c-0.4,2.8-0.8,5.6-1.1,8.4c-0.4,3.8-0.7,7.6-1.3,11.4
		c-0.8,6-1.8,12.1-2.7,18.1c-0.4,2.7-0.7,5.4-1,8.1c-0.8,6.3-1.4,12.7-2.3,19c-0.8,5.9-1.9,11.7-2.7,17.6c-0.5,3.5-0.7,7.1-1.2,10.6
		c-0.9,6.3-1.9,12.6-2.8,18.9c-0.4,2.9-0.8,5.7-1.1,8.6c-0.5,4-0.8,8.1-1.3,12.1c-0.8,5.6-1.8,11.2-2.6,16.9
		c-0.5,3.5-0.8,7-1.2,10.7c-11.8,0-23.2,0-34.6,0c0.6-5.3,1.2-10.4,1.8-15.4c0.6-4.9,1.3-9.8,2-14.7c0.7-5.1,1.4-10.2,2-15.2
		c0.6-4.8,1.3-9.7,1.9-14.5c0.7-5.2,1.4-10.3,2-15.5c0.7-4.9,1.3-9.8,2-14.7c0.8-5.6,1.8-11.2,2.6-16.9c0.5-3.4,0.7-6.9,1.2-10.3
		c0.5-4.1,1.2-8.2,1.8-12.2c0.4-2.5,0.7-5.1,1-7.6c0.4-3.9,0.7-7.7,1.3-11.6c0.8-6,1.8-11.9,2.7-17.9c0.5-3.7,0.8-7.4,1.3-11.1
		c0.1-1.2,0.3-2.4,0.5-4c-8.5,0-17.1,0-26.2,0c0.9-5.5,1.7-10.6,2.5-15.7c0.4-2.9,0.8-5.9,1.1-8.8c0.4-3.5-0.5-3.7,3.8-3.7
		c6.7,0,13.3,0,20,0c0.9,0,1.8,0,2.9,0c0.1-0.9,0.2-1.6,0.3-2.3c1-5.7,1.7-11.4,2.9-17c1.1-4.9,2.4-9.9,4.3-14.6
		c2.3-5.8,5.2-11.3,8.8-16.5c5.4-7.7,11.9-14.1,20.1-18.8c4.5-2.6,9.2-4.5,14.1-5.8c7.6-2.1,15.3-3,23.1-2.5
		c5.4,0.3,10.8,1.4,16.1,2.5c5.2,1.1,10.3,2.8,15.9,4.3c-0.9,10.3-3.1,20.4-4.4,31.1c-1.6-0.6-3.1-0.9-4.4-1.6
		c-8.2-3.8-16.7-6.3-25.8-5.6c-12.1,0.9-21.6,6.3-27.8,17c-2.9,5-4.9,10.3-6,15.9c-0.7,3.7-1.3,7.4-1.9,11.2c-0.1,0.8,0,1.6,0,2.7
		c9.4,0,18.6,0,28.2,0C723.1,132.6,723.1,134.6,722.8,136.5z M788.1,367.4c-4.3,0-8.5,0-12.9,0c0-12.2,0-24.4,0-36.6
		c-0.2-0.1-0.4-0.2-0.6-0.3c-5.2,7.8-10.4,15.7-15.9,24.1c-5.5-8.3-10.7-16.2-15.9-24c-0.2,0-0.3,0.1-0.5,0.1c0,12.2,0,24.4,0,36.7
		c-4.6,0-8.7,0-12.9,0c0-19.6,0-39,0-58.5c0.5-0.1,1-0.4,1.5-0.4c3.7,0,7.5,0,11.2,0c1.1,0,1.7,0.4,2.3,1.5
		c4.6,7.5,9.2,14.9,13.9,22.3c0.1,0.1,0.2,0.2,0.7,0.5c2.1-3.3,4.1-6.6,6.1-9.8c2.7-4.3,5.4-8.7,8.1-13c0.4-0.6,1.2-1.3,1.9-1.3
		c4.3-0.1,8.6-0.1,13.1-0.1C788.1,328.2,788.1,347.7,788.1,367.4z M799.9,137.8c-0.8,5.6-1.8,11.1-2.7,16.6
		c-0.4,2.7-0.8,5.4-1.1,8.1c-0.4,3.7-0.7,7.4-1.3,11.1c-0.8,5.5-1.8,11.1-2.6,16.6c-0.5,3.1-0.7,6.2-1.2,9.4
		c-0.5,3.8-1.2,7.7-1.8,11.5c-0.1,0.4-0.1,0.8-0.2,1.2c-0.8,6.2-1.5,12.5-2.3,18.7c-0.6,4.7-1.3,9.3-2,14c-1,7-2,14.1-3,21.1
		c-0.3,2.5-0.7,4.9-1,7.4c-0.1,1.3-0.5,2.2-2.1,2.2c-10.7,0-21.5,0-32.2,0c-0.4,0-0.8-0.2-1.5-0.3c0.6-3.4,1.1-6.7,1.7-9.9
		c0.1-0.4,0.1-0.8,0.1-1.2c0.8-6.1,1.5-12.1,2.3-18.2c0.6-4.6,1.3-9.2,2-13.7c0.9-5.6,1.8-11.1,2.7-16.6c0.5-3.1,0.7-6.2,1.2-9.4
		c0.6-4.1,1.3-8.1,1.9-12.2c0.4-2.5,0.7-5.1,1-7.6c0.4-3.7,0.7-7.4,1.3-11.1c0.8-5.5,1.8-11.1,2.6-16.6c0.5-3.1,0.7-6.2,1.2-9.4
		c0.5-3.8,1.2-7.7,1.8-11.5c0.4-2.7,0.8-5.4,1.1-8.1c0.5-3.8,0.7-7.6,1.3-11.3c0.8-5.5,1.8-11,2.6-16.6c0.5-3.1,0.7-6.2,1.2-9.3
		c0.5-3.8,1.2-7.7,1.8-11.5c0.4-2.6,0.8-5.2,1.1-7.9c0.4-3.6,0.8-7.2,1.2-10.9c0.2-1.7,0.5-3.4,0.9-5.1c0.1-0.5,0.8-1,1.3-1.2
		c0.6-0.2,1.3-0.2,2-0.2c9.7,0,19.3,0,29,0c2.7,0,3,0.2,2.6,2.9c-0.8,5.9-1.8,11.7-2.7,17.6c-0.4,2.4-0.7,4.9-1,7.4
		c-0.4,3.5-0.7,7.1-1.2,10.6c-0.9,6-1.9,11.9-2.8,17.8c-0.4,2.5-0.7,5.1-1,7.6C801.5,125.7,800.8,131.8,799.9,137.8z M878.1,367.6
		c-4.3,0-8.4,0-12.6,0c-1.9,0-1.7-1.9-2.2-2.8c-1.3-2.7-2.2-5.6-3.4-8.4c-0.3-0.8-1.3-1.8-2-1.8c-7.8-0.1-15.6-0.1-23.6-0.1
		c-1.5,3.7-2.9,7.3-4.3,10.9c-0.5,1.4-1.2,2.3-3,2.2c-3.6-0.2-7.3,0-11.5,0c1-2.6,1.8-4.8,2.7-6.9c3.3-7.8,6.6-15.6,9.9-23.3
		c2.5-5.8,5.1-11.5,7.5-17.2c1.5-3.4,2.9-6.9,4.3-10.4c0.5-1.4,1.4-2,2.8-2c2.8,0,5.7,0.1,8.5,0c1.6-0.1,2.2,1.2,2.7,2.2
		c3.1,7.2,6.1,14.5,9.2,21.8c2.2,5.1,4.4,10.1,6.6,15.2c2.8,6.6,5.5,13.2,8.3,19.8C878.1,366.8,878.1,367,878.1,367.6z M859.9,280.3
		c-16.9-1.9-31.3-9-42-22.7c-4.3-5.6-7.6-11.7-9.9-18.4c-2.1-5.9-3.3-12-4.2-18.2c-0.8-6-1-12-0.5-17.9c0.4-5.6,1.6-11.1,2.7-16.5
		c1.8-8.6,5.3-16.6,9.8-24.1c4.1-6.9,9.1-13.1,15.2-18.4c6.3-5.4,13.2-9.9,21.1-12.8c5.4-2,10.9-3.8,16.7-4c4.1-0.2,8.3-1,12.4-0.6
		c5.5,0.5,11,1.5,16.4,3.4c9.3,3.3,16.9,8.9,23,16.5c3.8,4.7,6.5,10,8.6,15.7c2.5,6.8,4.1,13.7,4.1,21c0,1.7,0.7,3.4,0.6,5.1
		c-0.4,5.1-1,10.2-1.7,15.2c-0.1,0.6-1,1.3-1.6,1.5c-0.8,0.3-1.8,0.1-2.7,0.1c-28.3,0-56.7,0-85,0c-1.1,0-2.3,0-3.3,0
		c-1.9,4.9-1.6,9.7-1.1,14.3c1,9.7,4.3,18.4,11.9,25c5.1,4.4,11,7.3,17.8,8c2.9,0.3,5.8,0.9,8.6,0.7c4.8-0.5,9.7-0.8,14.3-2.6
		c4.7-1.8,9.6-3.2,14.2-5.2c6-2.6,11.8-5.7,17.7-8.6c0.6-0.3,1.3-0.6,2.3-1.1c-0.5,2.8-0.8,5.3-1.2,7.7c-0.5,2.4-1.2,4.8-1.6,7.2
		c-0.8,4.4-1.7,8.7-2.2,13.2c-0.4,3.4-3,4.3-5.3,5.4c-7.1,3.4-14.5,6.2-22.1,8.4C881.8,280.9,870.8,281.5,859.9,280.3z M947.3,352.9
		c-0.9,5.8-3.9,9.9-8.9,12.5c-4.6,2.4-9.7,3.4-14.9,2.9c-7.7-0.7-14.8-3.1-21-7.9c-1.9-1.5-2-1.9-0.5-3.7c2.1-2.5,4.2-4.9,6.4-7.5
		c4.1,3.4,8.4,5.8,13.2,6.9c3.1,0.7,6.4,0.9,9.5-0.7c1.6-0.8,2.8-1.8,3-3.8c0.2-2.3-0.6-4.1-2.5-4.9c-3.1-1.3-6.5-2.3-9.7-3.3
		c-5.4-1.7-10.9-2.9-15.1-7c-2.3-2.2-3.3-5-3.6-7.9c-0.9-6.5,0.7-12.2,6-16.6c3-2.5,6.6-3.9,10.2-4.4c9.6-1.2,18.4,0.9,26.4,7.3
		c-2.1,3.1-4,6.1-6.2,9c-0.3,0.4-1.6,0.4-2.2,0.1c-2.9-1.3-5.5-3.2-8.5-4.1c-3.2-1-6.7-1.4-9.9,0.3c-1.7,0.9-2.9,2.1-2.8,4.2
		c0,2.1,1.2,3.4,3,4c2.7,1.1,5.5,2,8.3,2.9c5.5,1.7,11.3,2.9,15.7,7.1c2,1.9,3.6,4.2,3.9,7.1C947.4,348.1,947.7,350.4,947.3,352.9z
		 M965.2,65.6c0-3.8,1.8-6.7,5.1-8.5c1-0.5,2.4-0.6,3.6-0.6c14.5,0,29,0,43.5,0c14.4,0,28.8,0.2,43.2-0.1c4.4-0.1,8.6,4.1,8.6,8.6
		c-0.2,28.7-0.2,57.5-0.1,86.2c0,5.3-3.7,8.7-8.9,9.1c-0.3,0-0.7,0-1,0c-27.8,0-55.6,0-83.5,0c-3.7,0-7.4-0.7-9.2-4.5
		c-0.8-1.7-1.3-3.6-1.3-5.4C965.2,122.1,965.2,93.8,965.2,65.6z M966.1,267.8c0-7.9-0.2-15.8-0.2-23.7c0-6.7,0-13.5,0-20.2
		c0.1,0,0.1,0,0.2,0c0-13.8,0.2-27.7-0.1-41.5c-0.1-4.1,1.9-6.1,5-7.6c1.4-0.7,3.1-1.1,4.7-1.1c28-0.1,56,0,84-0.1
		c3.7,0,6.1,2.2,8.7,4.2c0.5,0.4,0.6,1.3,0.6,2c0.1,3,0.2,6,0.2,9c0,24.9,0,49.8-0.1,74.7c0,1.5,0,3-0.1,4.5
		c-0.1,1.7-0.9,2.9-2.4,3.8c-3.1,2-6.4,2.8-10,2.8c-26.2-0.1-52.3-0.1-78.5,0c-3.6,0-6.8-0.9-9.8-2.9
		C966.8,270.6,966.2,269.5,966.1,267.8z M1018.6,320.6c-4.3-0.1-8.7,0-13,0c-0.8,0-1.6,0-2.7,0c0,1.3,0,2.4,0,3.4
		c0,13.5,0,27,0,40.5c0,3,0,3-3.1,3.1c-2.6,0-5.2,0-7.7,0c-2.6,0-2.7-0.1-2.7-2.6c0-3.3,0-6.7,0-10c0-10.3,0-20.7,0-31
		c0-1,0-2,0-3.4c-5.3,0-10.2,0-15.1,0c-2.9,0-2.9-0.1-2.9-3c0-2.3,0-4.7,0-7c0-1.6,0.6-2.2,2.2-2.2c15.1,0,30.2,0,45.2,0
		c1.5,0,2.1,0.6,2.1,2.1c0,2.7-0.1,5.3,0,8C1020.9,320.1,1020.2,320.6,1018.6,320.6z M1094,366.5c0,0.2-0.1,0.5-0.2,0.9
		c-14.8,0-29.7,0-44.7,0c0-19.6,0-39.1,0-58.8c14.7,0,29.2,0,44.1,0c0,3.5,0.1,6.9,0,10.4c0,1.4-1.2,1.4-2.2,1.4
		c-4.2,0-8.5,0-12.7,0c-5.2,0-10.5,0-15.9,0c0,3.8,0,7.4,0,11.2c1,0,1.8,0.1,2.7,0.1c7.2,0,14.5,0,21.7,0c2.7,0,3.1,0.4,3.1,3.2
		c0,2.1,0,4.2,0,6.2c0,2.4-0.2,2.5-2.6,2.5c-7.6,0-15.2,0-22.7,0c-0.7,0-1.5,0-2.4,0c0,4,0,7.8,0,12c1.2,0,2.2,0,3.1,0
		c8.7,0,17.3,0,26,0c2.6,0,2.7,0.1,2.7,2.6C1094,361,1094,363.7,1094,366.5z M1090.5,275.5c-4.8,0-8.4-3.7-8.4-8.4
		c0-14.6,0-29.2,0-43.7c0,0,0,0-0.1,0c0-14.2,0.2-28.3-0.1-42.5c-0.1-5.3,4.7-9.3,9.5-9.3c21.3,0,42.6,0,64,0c6.7,0,13.3,0.1,20,0
		c6.8-0.1,10.7,4.2,10.7,10.7c-0.1,27.2,0,54.5-0.2,81.7c0,2.5-0.7,5.1-1.7,7.4c-1.3,3-4.1,4.2-7.4,4.2c-25.6,0-51.1,0-76.7,0
		C1096.9,275.5,1093.7,275.5,1090.5,275.5z M1160.4,367.5c-0.6,0-1.5-0.7-1.9-1.2c-3.6-5.2-7.1-10.5-10.5-15.8
		c-0.8-1.3-1.6-2.1-3.3-1.9c-2.4,0.2-4.8,0-7.5,0c0,6.2,0,12.3,0,18.5c-0.7,0.2-1.2,0.5-1.6,0.5c-3.4,0-6.8,0-10.2,0
		c-1.4,0-2-0.5-2-1.9c0-0.5,0-1,0-1.5c0-17.5,0-35,0-52.5c0-3.3,0-3.3,3.3-3.3c9.1,0,18.2-0.1,27.2,0.1c7,0.2,12.9,3,16.5,9.2
		c2.7,4.7,3.2,9.8,2,15.3c-1.4,6-4.9,10-10.2,12.5c-1.2,0.6-1.4,1.2-0.6,2.3c3.8,5.5,7.6,11.1,11.4,16.7c0.6,0.8,0.9,1.8,1.6,3
		C1169.5,367.6,1164.9,367.6,1160.4,367.5z M1176.6,315.8c-1.8,1.4-3.8,1.1-5.3-1.1c1.8,0,3.1,0,4.4,0c0.9-1.6,0-2.3-0.9-3
		c-0.5-0.4-1.2-0.6-1.7-0.9c-1.2-0.7-1.9-1.6-1.4-3c0.5-1.4,1.3-2.5,3-2.4c0.8,0,1.6,0.1,2.6,0.1c-0.1,0.7-0.2,1.1-0.3,1.8
		c-0.5-0.2-0.8-0.3-1.2-0.4c-1.2-0.6-1.8,0.4-2.4,1.1c-0.1,0.1,0.7,1.1,1.1,1.6c0.5,0.4,1.1,0.6,1.7,0.9
		C1178.6,311.8,1178.8,314.1,1176.6,315.8z M1189.7,316.4c-2.5-1.3-0.7-4.1-2.1-5.8c-0.9,2.1-1.8,4-2.6,6c-0.2,0-0.5,0-0.7,0
		c-0.9-2.2-1.7-4.3-2.6-6.5c-0.2,0-0.3,0-0.5,0c-0.1,1.6-0.1,3.3-0.3,4.9c-0.1,0.5-0.7,0.9-1.1,1.3c-0.2-0.5-0.7-1-0.7-1.4
		c0.3-3,0.6-6.1,0.9-9.1c2-0.2,3,1.4,4.7,6.7c0.7-1.7,1.6-3.3,2.1-5.1c0.3-1,0.5-2,1.8-1.9c1.4,0.2,1.2,1.4,1.2,2.4
		c0,2.6,0.1,5.2,0.1,7.7C1190.1,315.8,1189.9,316,1189.7,316.4z"/>
	<path fill="#082E3B" d="M97.4,226.2c2.7,1.7,5.1,3.2,7.5,4.8c6.9,4.5,14.1,8.4,21.9,11.2c5.4,1.9,11.1,3,16.6,4.5
		c5.2,1.4,10.6,1.4,15.8,0.7c11-1.4,20.2-6,25.3-16.6c1.4-3,1.6-6.2,1.7-9.4c0.2-6.4-2.1-11.8-5.8-16.8c-5.2-7.2-12.1-12.5-19-17.8
		c-8.5-6.5-17.1-13.1-25.6-19.6c-8.4-6.4-15.1-14.3-20.2-23.5c-2.7-5-4.7-10.2-5.8-15.8c-1.4-6.8-1.2-13.6-0.5-20.4
		c0.8-7.8,3.7-15,7.9-21.7c7.9-12.4,18.9-20.9,32.4-26.4c5.6-2.3,11.4-4,17.4-5.1c6.4-1.1,12.8-1.9,19.2-1.5
		c4.2,0.2,8.4,0.9,12.5,1.5c3.9,0.6,7.8,1.3,11.6,2.3c3.6,0.9,7.1,1.9,10.6,3.2c3.7,1.4,7.2,3.1,10.8,4.6c2.5,1.1,2.7,1.7,2.1,4.4
		c-0.7,3-1.1,6.1-1.7,9.2c-0.6,3.3-1.3,6.6-1.8,10c-0.5,3.1-0.9,6.2-1.3,9.3c-0.3,2.3-0.6,2.5-2.7,1.4c-4.9-2.6-9.6-5.4-14.7-7.6
		c-3.6-1.6-7.5-2.4-11.2-3.5c-8.7-2.7-17.6-2.8-26.4-1.7c-11.1,1.4-20.2,6.8-24.8,17.4c-4.3,9.9-2.3,19.2,5,27.3
		c6.4,7.1,14,12.6,21.7,18.2c12.1,8.7,24.5,17.2,34.1,28.9c5,6,8.8,12.7,11.6,19.9c1.3,3.4,1.8,7.2,2.3,10.8
		c0.5,3.8,0.9,7.6,0.8,11.4c-0.2,6.3-1.5,12.5-3.6,18.6c-3.1,8.8-7.8,16.4-14.5,22.8c-5.8,5.5-12.4,9.8-19.8,12.9
		c-4.9,2-9.9,3.5-15,4.5c-8.5,1.7-17.2,1.9-25.8,0.9c-6.3-0.7-12.5-2.1-18.5-4c-6.6-2-13-4.7-19.3-7.6c-6.6-3-13-6.6-19.5-10
		c-2.3-1.2-2.4-2.3-1.6-4.6c2.3-6.2,4.5-12.4,6.8-18.6C95.1,231.8,96.2,229.2,97.4,226.2z"/>
	<path fill="#082E3B" d="M324.2,276.4c0.4-3.1,0.6-6,1-8.9c0.5-3.1,1.2-6.2,1.6-9.3c0.5-3.8,0.8-7.7,1.3-11.6
		c0.8-5.6,1.8-11.2,2.7-16.9c0.4-2.6,0.8-5.2,1.1-7.9c0.5-3.9,0.8-7.7,1.3-11.6c0.8-5.5,1.8-11.1,2.6-16.6c0.5-3.3,0.9-6.6,1.2-9.9
		c0.4-4.8,1.1-9.6,0.9-14.3c-0.2-5.8-2.9-10.7-8.2-13.6c-3.5-1.9-7.5-2-11.4-1c-10.2,2.5-17.9,9-25.3,15.9c-3.4,3.1-6.5,6.6-9.6,9.9
		c-0.5,0.6-1,1.4-1.2,2.1c-0.5,2.9-0.7,5.7-1.2,8.6c-0.6,3.8-1.2,7.7-1.8,11.5c-0.4,2.6-0.8,5.2-1.1,7.9c-0.4,3.7-0.7,7.4-1.3,11.1
		c-0.8,5.7-1.8,11.4-2.7,17.1c-0.4,2.5-0.7,5.1-1.1,7.6c-0.4,3.5-0.7,7.1-1.2,10.6c-0.9,6.4-1.9,12.8-2.8,19.3
		c-11.9,0-23.4,0-35.4,0c0.3-2.2,0.7-4.2,1-6.2c0.4-2.5,0.8-5.1,1.1-7.6c0.4-3.2,0.7-6.4,1.2-9.6c0.5-3.8,1.2-7.5,1.8-11.3
		c0.4-2.5,0.8-5.1,1.1-7.6c0.5-3.7,0.7-7.4,1.3-11.1c0.8-5.7,1.8-11.4,2.7-17.1c0.4-2.5,0.8-5.1,1.1-7.6c0.4-3.5,0.7-7.1,1.2-10.6
		c0.8-5.7,1.8-11.4,2.7-17.1c0.4-2.5,0.8-4.9,1.1-7.4c0.4-3.6,0.7-7.3,1.3-10.9c0.9-5.9,1.9-11.7,2.8-17.5c0.4-2.4,0.7-4.9,1-7.4
		c0.4-3.5,0.7-7.1,1.3-10.6c0.8-5.7,1.8-11.4,2.7-17.1c0.4-2.5,0.7-5.1,1.1-7.6c0.4-3.5,0.7-6.9,1.2-10.4c0.9-6,1.9-11.9,2.7-17.8
		c0.4-2.8,0.6-5.5,1-8.4c11.9,0,23.4,0,35,0c0.1,0.6,0.3,1.1,0.2,1.5c-0.5,3.5-1.1,7-1.7,10.5c-0.4,2.5-0.8,5.1-1.1,7.6
		c-0.4,3.4-0.7,6.7-1.2,10.1c-0.9,5.9-1.8,11.7-2.7,17.6c-0.4,2.5-0.7,5.1-1.1,7.6c-0.4,3.4-0.7,6.9-1.2,10.3
		c-0.8,5.7-1.9,11.4-2.7,17.1c-0.6,3.9-0.9,7.8-1.4,11.7c0.2,0.1,0.4,0.2,0.6,0.3c1.5-1.3,3-2.5,4.4-3.9c7-6.8,15.1-11.8,24-15.4
		c4.2-1.7,8.8-2.5,13.3-3.3c3.3-0.6,6.8-1,10.1-0.8c10.4,0.6,19.5,4.1,26.1,12.8c3.5,4.6,5.8,9.7,7,15.4c1.3,5.9,2.1,11.7,1.5,17.7
		c-0.5,5.5-1.2,11-2,16.5c-0.6,4.5-1.2,9-1.9,13.5c-0.9,5.6-1.8,11.2-2.7,16.9c-0.5,3.2-0.7,6.4-1.2,9.6c-0.6,4-1.2,8-1.8,12
		c-0.4,2.5-0.7,5.1-1.1,7.6c-0.4,3.5-0.8,7.1-1.2,10.6c-0.7,5.2-1.4,10.5-2.1,15.7c-0.2,1.6-1.2,1.7-2.5,1.7c-10.3,0-20.7,0-31,0
		C325.7,276.6,325.1,276.5,324.2,276.4z"/>
	<path fill="#082E3B" d="M666.1,340.4c-11.8,0-23.2,0-34.6,0c0.6-5.3,1.2-10.4,1.8-15.4c0.6-4.9,1.3-9.8,2-14.7
		c0.7-5.1,1.4-10.2,2-15.2c0.6-4.8,1.3-9.7,1.9-14.5c0.7-5.2,1.4-10.3,2-15.5c0.7-4.9,1.3-9.8,2-14.7c0.8-5.6,1.8-11.2,2.6-16.9
		c0.5-3.4,0.7-6.9,1.2-10.3c0.5-4.1,1.2-8.2,1.8-12.2c0.4-2.5,0.7-5.1,1-7.6c0.4-3.9,0.7-7.7,1.3-11.6c0.8-6,1.8-11.9,2.7-17.9
		c0.5-3.7,0.8-7.4,1.3-11.1c0.1-1.2,0.3-2.4,0.5-4c-8.5,0-17.1,0-26.2,0c0.9-5.5,1.7-10.6,2.5-15.7c0.4-2.9,0.8-5.9,1.1-8.8
		c0.4-3.5-0.5-3.7,3.8-3.7c6.7,0,13.3,0,20,0c0.9,0,1.8,0,2.9,0c0.1-0.9,0.2-1.6,0.3-2.3c1-5.7,1.7-11.4,2.9-17
		c1.1-4.9,2.4-9.9,4.3-14.6c2.3-5.8,5.2-11.3,8.8-16.5c5.4-7.7,11.9-14.1,20.1-18.8c4.5-2.6,9.2-4.5,14.1-5.8
		c7.6-2.1,15.3-3,23.1-2.5c5.4,0.3,10.8,1.4,16.1,2.5c5.2,1.1,10.3,2.8,15.9,4.3c-0.9,10.3-3.1,20.4-4.4,31.1
		c-1.6-0.6-3.1-0.9-4.4-1.6c-8.2-3.8-16.7-6.3-25.8-5.6c-12.1,0.9-21.6,6.3-27.8,17c-2.9,5-4.9,10.3-6,15.9
		c-0.7,3.7-1.3,7.4-1.9,11.2c-0.1,0.8,0,1.6,0,2.7c9.4,0,18.6,0,28.2,0c-0.1,2.2-0.1,4.2-0.4,6.1c-0.5,3.9-1.2,7.8-1.7,11.7
		c-0.4,2.9-0.8,5.9-1.1,8.8c-0.1,1.2-0.9,1.5-1.9,1.5c-2.4,0-4.8,0-7.3,0c-5.9,0-11.8,0-17.8,0c-0.9,0-1.8,0.1-2.7,0.1
		c-0.5,3.2-0.9,6.2-1.3,9.2c-0.6,4.1-1.2,8.2-1.8,12.3c-0.4,2.8-0.8,5.6-1.1,8.4c-0.4,3.8-0.7,7.6-1.3,11.4
		c-0.8,6-1.8,12.1-2.7,18.1c-0.4,2.7-0.7,5.4-1,8.1c-0.8,6.3-1.4,12.7-2.3,19c-0.8,5.9-1.9,11.7-2.7,17.6c-0.5,3.5-0.7,7.1-1.2,10.6
		c-0.9,6.3-1.9,12.6-2.8,18.9c-0.4,2.9-0.8,5.7-1.1,8.6c-0.5,4-0.8,8.1-1.3,12.1c-0.8,5.6-1.8,11.2-2.6,16.9
		C666.8,333.2,666.5,336.8,666.1,340.4z"/>
	<path fill="#082E3B" d="M558.6,130.5c0.5-4.2,0.8-7.9,1.5-11.6c1-5.1,2.2-10.1,3.7-15c1.5-4.7,3.2-9.4,5.3-13.9
		c3.8-8.4,9.3-15.7,16.1-21.8c6.1-5.5,13-9.6,21-11.9c4.9-1.5,9.8-2.8,15-2.9c3.5-0.1,7-0.8,10.4-0.5c5.6,0.4,11.3,0.7,16.8,2.5
		c4.7,1.5,9.4,2.8,14.1,4.1c1.4,0.4,1.7,1.1,1.5,2.3c-0.5,3.3-1.1,6.7-1.6,10c-0.5,2.9-0.9,5.9-1.3,8.8c-0.4,3.2-0.9,6.4-1.4,9.9
		c-0.8-0.1-1.6-0.1-2.3-0.4c-4.7-1.8-9.3-4.1-14.2-5.3c-5.9-1.5-12-1.7-18.2-0.6c-6.7,1.2-12.5,4-17.3,8.5c-3.9,3.7-7,8.1-8.7,13.3
		c-1.3,3.9-2.8,7.7-3.7,11.6c-0.9,4-1.2,8.2-1.8,12.6c9.7,0,19,0,28.6,0c-0.1,2-0.1,3.6-0.3,5.2c-0.5,4.1-1.2,8.1-1.8,12.2
		c-0.4,3-0.8,6.1-1.1,9.1c-0.2,1.8-1.5,1.7-2.7,1.7c-8,0-16,0-24,0c-0.9,0-1.8,0-2.7,0c-0.5,2.5-1,4.7-1.3,7
		c-0.5,3.8-0.7,7.6-1.3,11.4c-0.8,6-1.8,12-2.7,18.1c-0.4,2.5-0.7,5.1-1,7.6c-0.4,3.8-0.7,7.6-1.3,11.3c-0.8,6-1.8,12.1-2.7,18.1
		c-0.4,2.7-0.8,5.4-1.1,8.1c-0.4,3.9-0.7,7.7-1.3,11.6c-0.8,5.9-1.8,11.7-2.7,17.6c-0.5,3.4-0.7,6.7-1.2,10.1
		c-0.5,3.9-1.2,7.8-1.8,11.7c-0.4,2.8-0.8,5.6-1.1,8.4c-0.4,3.8-0.7,7.6-1.3,11.4c-0.8,6-1.9,12.1-2.7,18.1
		c-0.5,3.7-0.9,7.4-1.3,11.3c-11.6,0-23.1,0-34.7,0c0.4-3.2,0.7-6.2,1-9.2c0.2-1.4,0.5-2.8,0.7-4.1c0.6-4.1,1.2-8.2,1.8-12.2
		c0.4-2.8,0.8-5.6,1.1-8.3c0.5-3.9,0.7-7.9,1.3-11.9c0.8-5.9,1.8-11.7,2.7-17.6c0.4-2.9,0.7-5.9,1.1-8.9c0.6-4.4,1.3-8.8,1.9-13.2
		c0.4-2.6,0.7-5.2,1-7.9c0.4-3.8,0.7-7.6,1.2-11.3c0.8-6,1.8-11.9,2.7-17.8c0.4-2.7,0.7-5.4,1.1-8.1c0.4-3.5,0.7-7.1,1.2-10.6
		c0.8-6.1,1.8-12.2,2.7-18.4c0.4-2.5,0.7-5.1,1-7.6c0.5-4.5,0.9-9.1,1.4-13.6c0-0.2-0.1-0.5-0.3-1c-8.3,0-16.7,0-25.5,0
		c1.3-9.5,2.6-18.6,3.9-28C541.1,130.5,549.8,130.5,558.6,130.5z"/>
	<path fill="#082E3B" d="M397.9,130.7c11.8,0,23.1,0,34.8,0c-0.9,5.7-1.7,11.1-2.5,16.6c-0.5,3.2-0.7,6.4-1.2,9.6
		c-0.6,4.1-1.3,8.1-1.9,12.2c-0.4,2.4-0.7,4.9-1,7.4c-0.4,3.4-0.7,6.9-1.2,10.4c-0.9,6.1-1.8,12.2-2.7,18.3c-0.4,2.5-0.8,5.1-1,7.6
		c-0.5,4.3-0.9,8.6-1.3,12.9c-0.2,1.6-0.6,3.1-0.6,4.6c-0.2,5.6,0.4,11.2,3.7,16c2.9,4.1,6.9,5.7,11.9,5.5c5.1-0.2,9.5-2.4,13.8-4.7
		c7-3.8,13-9.2,18.7-14.7c2.4-2.4,4.6-5,6.8-7.6c0.3-0.3,0.6-0.8,0.7-1.2c0.4-2.7,0.7-5.4,1.1-8.1c0.9-6.1,1.9-12.2,2.8-18.3
		c0.4-2.4,0.7-4.9,1-7.3c0.4-3.4,0.7-6.9,1.2-10.3c0.8-5.8,1.8-11.5,2.7-17.3c0.4-2.7,0.8-5.4,1.1-8.1c0.4-3.6,0.8-7.2,1.3-10.8
		c0.6-4.1,1.4-8.3,2.1-12.5c11.5,0,23.1,0,34.9,0c-0.5,4-1,7.8-1.5,11.6c-0.1,0.6-0.3,1.3-0.4,1.9c-0.6,4.3-1.3,8.6-1.9,13
		c-0.4,2.6-0.7,5.2-1.1,7.9c-0.8,6.2-1.4,12.5-2.3,18.7c-0.8,5.5-1.8,11-2.6,16.6c-0.5,3.2-0.7,6.4-1.2,9.6
		c-0.5,3.8-1.2,7.5-1.8,11.3c-0.1,0.5-0.1,1-0.2,1.5c-0.6,4.5-1.3,9-1.9,13.4c-0.4,2.9-0.7,5.7-1.1,8.6c-0.6,4.2-1.2,8.3-1.8,12.5
		c-0.4,2.8-0.8,5.6-1.1,8.4c-0.4,3.2-0.7,6.4-1.2,9.6c-0.1,0.6-0.9,1.1-1.5,1.5c-0.1,0.1-0.5,0-0.7,0c-10.5,0-21,0-31.5,0
		c-0.3,0-0.6-0.1-1.5-0.2c0.9-6.9,1.8-13.8,2.7-20.7c-0.2-0.1-0.4-0.2-0.7-0.3c-1.5,1.3-3.1,2.5-4.5,3.8c-7,6.3-14.6,11.9-23.3,15.7
		c-4.1,1.8-8.2,3.4-12.7,3.8c-3.3,0.2-6.6,0.9-9.9,0.7c-14.4-0.6-25.2-7-31.5-20.3c-2.4-5-3.9-10.2-4-15.9c-0.1-2.5-0.7-5-0.6-7.4
		c0.3-5.4,1-10.9,1.5-16.3c0.3-2.8,0.7-5.6,1-8.4c0.4-3.6,0.8-7.2,1.3-10.8c0.8-5.2,1.8-10.4,2.6-15.6c0.4-2.4,0.7-4.9,1.1-7.3
		c0.8-5.7,1.4-11.5,2.3-17.2c0.8-5.3,1.8-10.5,2.7-15.8c0.5-3.4,0.8-6.9,1.3-10.3C397.3,132.9,397.7,131.7,397.9,130.7z"/>
	<path fill="#082E3B" d="M925.1,235.9c-0.5,2.8-0.8,5.3-1.2,7.7c-0.5,2.4-1.2,4.8-1.6,7.2c-0.8,4.4-1.7,8.7-2.2,13.2
		c-0.4,3.4-3,4.3-5.3,5.4c-7.1,3.4-14.5,6.2-22.1,8.4c-10.8,3.1-21.8,3.8-32.8,2.6c-16.9-1.9-31.3-9-42-22.7
		c-4.3-5.6-7.6-11.7-9.9-18.4c-2.1-5.9-3.3-12-4.2-18.2c-0.8-6-1-12-0.5-17.9c0.4-5.6,1.6-11.1,2.7-16.5c1.8-8.6,5.3-16.6,9.8-24.1
		c4.1-6.9,9.1-13.1,15.2-18.4c6.3-5.4,13.2-9.9,21.1-12.8c5.4-2,10.9-3.8,16.7-4c4.1-0.2,8.3-1,12.4-0.6c5.5,0.5,11,1.5,16.4,3.4
		c9.3,3.3,16.9,8.9,23,16.5c3.8,4.7,6.5,10,8.6,15.7c2.5,6.8,4.1,13.7,4.1,21c0,1.7,0.7,3.4,0.6,5.1c-0.4,5.1-1,10.2-1.7,15.2
		c-0.1,0.6-1,1.3-1.6,1.5c-0.8,0.3-1.8,0.1-2.7,0.1c-28.3,0-56.7,0-85,0c-1.1,0-2.3,0-3.3,0c-1.9,4.9-1.6,9.7-1.1,14.3
		c1,9.7,4.3,18.4,11.9,25c5.1,4.4,11,7.3,17.8,8c2.9,0.3,5.8,0.9,8.6,0.7c4.8-0.5,9.7-0.8,14.3-2.6c4.7-1.8,9.6-3.2,14.2-5.2
		c6-2.6,11.8-5.7,17.7-8.6C923.4,236.7,924.1,236.4,925.1,235.9z M843.4,182.5c18.9,0,37.2,0,55.5,0c0.9-4.2,0.2-9.8-1.8-15.2
		c-3-8.3-9.8-13.2-18.3-13.8c-6.3-0.4-12.3,0.3-17.8,3.7C851.7,163.1,847.1,172.3,843.4,182.5z"/>
	<path fill="#082E3B" d="M1082,223.4c0-14.2,0.2-28.3-0.1-42.5c-0.1-5.3,4.7-9.3,9.5-9.3c21.3,0,42.6,0,64,0c6.7,0,13.3,0.1,20,0
		c6.8-0.1,10.7,4.2,10.7,10.7c-0.1,27.2,0,54.5-0.2,81.7c0,2.5-0.7,5.1-1.7,7.4c-1.3,3-4.1,4.2-7.4,4.2c-25.6,0-51.1,0-76.7,0
		c-3.2,0-6.3,0-9.5,0c-4.8,0-8.4-3.7-8.4-8.4C1082.1,252.5,1082.1,238,1082,223.4C1082.1,223.4,1082.1,223.4,1082,223.4z
		 M1133.8,251.6c0.7-0.9,1.3-1.7,2-2.5c3.8-5,7.5-10.2,11.5-15.1c2.8-3.3,6-6.3,9.1-9.4c1-1,1.2-1.8,0.2-2.7c-2.4-2.4-5-4.7-7.2-7.3
		c-3.6-4.1-7.1-8.4-10.5-12.7c-1.8-2.3-3.5-4.8-5.1-7c-3.1,4.2-6,8.6-9.4,12.5c-4.2,4.9-8.8,9.5-13.2,14.2c-1.2,1.3-1.3,2,0.1,3.3
		c4.2,4.3,8.4,8.6,12.3,13.2C1127.1,242.4,1130.3,247,1133.8,251.6z"/>
	<path fill="#082E3B" d="M1017.4,56.5c14.4,0,28.8,0.2,43.2-0.1c4.4-0.1,8.6,4.1,8.6,8.6c-0.2,28.7-0.2,57.5-0.1,86.2
		c0,5.3-3.7,8.7-8.9,9.1c-0.3,0-0.7,0-1,0c-27.8,0-55.6,0-83.5,0c-3.7,0-7.4-0.7-9.2-4.5c-0.8-1.7-1.3-3.6-1.3-5.4
		c-0.1-28.2-0.1-56.5-0.1-84.7c0-3.8,1.8-6.7,5.1-8.5c1-0.5,2.4-0.6,3.6-0.6C988.4,56.4,1002.9,56.5,1017.4,56.5z M1046.2,99.1
		c-0.3-6-3.1-10.4-7.6-13.5c-3.1-2.2-6.8-3.8-10.7-2.8c-2.8,0.7-5.4,2.2-8.1,3.4c-1.4,0.6-2.5,1-4,0c-2.8-1.9-5.9-3.3-9.3-3.6
		c-5.3-0.4-13,3.6-15.4,9.7c-1,2.4-2,5.1-1.7,7.5c0.7,5.4,3.4,10.1,7.5,13.8c5.9,5.3,11.9,10.6,17.7,15.9c3.5,3.2,2.8,2.9,6.1,0
		c6.3-5.6,12.6-11.2,18.7-17C1043.3,108.9,1045.7,104.3,1046.2,99.1z"/>
	<path d="M1133.9,158.7c-14,0-28-0.1-42,0.1c-3,0-5.4-1.2-7.8-2.8c-1.5-1-2-2.5-2-4.3c0-17.4-0.1-34.8-0.1-52.2
		c0-11.2,0.1-22.5,0.1-33.7c0-1.6,0.3-2.8,1.8-3.8c1.3-0.9,2.2-2.4,3.5-3.1c1.6-0.8,3.5-1.2,5.2-1.2c27.3-0.1,54.7,0,82-0.1
		c4.2,0,7.2,1.8,9.7,4.9c0.3,0.4,0.5,0.9,0.6,1.3c0.3,2.6,0.9,5.3,0.9,7.9c0.1,25,0.1,50,0,75c0,2.5-0.6,5.1-1,7.6
		c-0.1,0.5-0.5,1.2-0.9,1.4c-2.5,1.2-4.6,3-7.7,3C1162.2,158.6,1148,158.7,1133.9,158.7z M1125.3,103c-0.1,0.2-0.2,0.4-0.3,0.6
		c-1.2-0.1-2.5,0.1-3.7-0.3c-3-1.1-5.9-0.8-9,0.1c-3.8,1.1-7.7,5.1-8.2,9.1c-0.9,6.7,3.7,11.6,9.3,12.8c7,1.4,13.3-1,15.8-9.2
		c0.3-0.9,0.9-1.6,1.3-2.4c0.2,0.1,0.4,0.1,0.6,0.2c0,3.7,0.4,7.5-0.1,11.2c-0.5,3.5-2.1,6.9-3.3,10.4c3.6,0,7.4,0,11.3,0
		c-4.3-9.4-5.1-17.5-2.3-21.7c0.1,0,0.2,0.1,0.2,0.1c0.1,0.4,0.1,0.8,0.2,1.2c0.9,3.3,2.1,6.5,5.2,8.5c4.2,2.8,8.6,2.8,13.1,0.9
		c3.5-1.5,5.8-4.3,6.6-7.9c1.8-8.3-5.6-13.7-11.6-13.9c-3.3-0.1-6.7,0.7-10.6,1.1c2.9-3,4.9-6.1,5.3-10.1c0.4-4.2-1.5-7.4-3.7-10.6
		c0.5-0.4,0.9-0.7,1.2-1c-4-4.3-14.5-5-19,0.2c2,1,0.5,2.2-0.1,3c-4.1,4.6-2.8,11.1,0.3,15.7C1124.3,101.6,1124.8,102.3,1125.3,103z
		 M1123.5,139.1c6.5-2.5,12.9-2.6,19.5,0.1c0.3-0.5,0.6-1.1,0.9-1.7c-0.7-0.3-1.4-1-2.1-1c-5.8-0.1-11.6-0.1-17.4,0
		c-0.7,0-1.4,0.5-2.4,0.8C1122.7,138.2,1123.1,138.8,1123.5,139.1z"/>
	<path fill="#082E3B" d="M966.1,223.8c0-13.8,0.2-27.7-0.1-41.5c-0.1-4.1,1.9-6.1,5-7.6c1.4-0.7,3.1-1.1,4.7-1.1c28-0.1,56,0,84-0.1
		c3.7,0,6.1,2.2,8.7,4.2c0.5,0.4,0.6,1.3,0.6,2c0.1,3,0.2,6,0.2,9c0,24.9,0,49.8-0.1,74.7c0,1.5,0,3-0.1,4.5
		c-0.1,1.7-0.9,2.9-2.4,3.8c-3.1,2-6.4,2.8-10,2.8c-26.2-0.1-52.3-0.1-78.5,0c-3.6,0-6.8-0.9-9.8-2.9c-1.5-1-2.2-2.1-2.2-3.9
		c0-7.9-0.2-15.8-0.2-23.7c0-6.7,0-13.5,0-20.2C966,223.8,966,223.8,966.1,223.8z M1019.2,238.5c0.8,0.2,1.3,0.3,1.7,0.5
		c2.9,1.5,5.9,3.1,9.3,2.3c2.6-0.6,5.2-1.7,7.4-3.4c4.4-3.3,7-10.1,5.3-15.1c-1.6-4.7-4.7-8.5-8.2-11.9c-4.2-4-8.8-7.7-13.2-11.5
		c-1.3-1.2-2.6-2.5-3.9-3.8c-0.8,0.7-1.4,1.3-2,1.8c-1.9,1.8-3.8,3.5-5.7,5.3c-4.9,4.6-10.5,8.5-14.5,13.9
		c-5.1,6.9-4.7,16.1,1.9,21.2c2.4,1.9,5.2,3.2,8.2,3.5c2.2,0.2,4.5-0.7,6.6-1.3c1.2-0.3,2.3-0.9,3.8-1.6c0.2,4.6-0.9,8.4-2.5,12.1
		c-0.5,1.3-1,2.1-2.6,2.1c-0.5,0-1.5,1-1.5,1.4c0.2,0.9,0.8,1.1,1.9,0.6c4.1-1.7,8.4-1.4,12.4,0.2c1.4,0.5,1.7,0.1,2.4-1
		c-0.9-0.4-1.6-0.8-2.4-1.2c-0.5-0.3-1.3-0.5-1.6-1C1019.9,247.6,1018.8,243.4,1019.2,238.5z"/>
	<path fill="#082E3B" d="M745.1,275.3c0.6-3.4,1.1-6.7,1.7-9.9c0.1-0.4,0.1-0.8,0.1-1.2c0.8-6.1,1.5-12.1,2.3-18.2
		c0.6-4.6,1.3-9.2,2-13.7c0.9-5.6,1.8-11.1,2.7-16.6c0.5-3.1,0.7-6.2,1.2-9.4c0.6-4.1,1.3-8.1,1.9-12.2c0.4-2.5,0.7-5.1,1-7.6
		c0.4-3.7,0.7-7.4,1.3-11.1c0.8-5.5,1.8-11.1,2.6-16.6c0.5-3.1,0.7-6.2,1.2-9.4c0.5-3.8,1.2-7.7,1.8-11.5c0.4-2.7,0.8-5.4,1.1-8.1
		c0.5-3.8,0.7-7.6,1.3-11.3c0.8-5.5,1.8-11,2.6-16.6c0.5-3.1,0.7-6.2,1.2-9.3c0.5-3.8,1.2-7.7,1.8-11.5c0.4-2.6,0.8-5.2,1.1-7.9
		c0.4-3.6,0.8-7.2,1.2-10.9c0.2-1.7,0.5-3.4,0.9-5.1c0.1-0.5,0.8-1,1.3-1.2c0.6-0.2,1.3-0.2,2-0.2c9.7,0,19.3,0,29,0
		c2.7,0,3,0.2,2.6,2.9c-0.8,5.9-1.8,11.7-2.7,17.6c-0.4,2.4-0.7,4.9-1,7.4c-0.4,3.5-0.7,7.1-1.2,10.6c-0.9,6-1.9,11.9-2.8,17.8
		c-0.4,2.5-0.7,5.1-1,7.6c-0.8,6.1-1.4,12.2-2.3,18.2c-0.8,5.6-1.8,11.1-2.7,16.6c-0.4,2.7-0.8,5.4-1.1,8.1
		c-0.4,3.7-0.7,7.4-1.3,11.1c-0.8,5.5-1.8,11.1-2.6,16.6c-0.5,3.1-0.7,6.2-1.2,9.4c-0.5,3.8-1.2,7.7-1.8,11.5
		c-0.1,0.4-0.1,0.8-0.2,1.2c-0.8,6.2-1.5,12.5-2.3,18.7c-0.6,4.7-1.3,9.3-2,14c-1,7-2,14.1-3,21.1c-0.3,2.5-0.7,4.9-1,7.4
		c-0.1,1.3-0.5,2.2-2.1,2.2c-10.7,0-21.5,0-32.2,0C746.3,275.6,745.9,275.5,745.1,275.3z"/>
	<path fill="#082E3B" d="M742.2,367.4c-4.6,0-8.7,0-12.9,0c0-19.6,0-39,0-58.5c0.5-0.1,1-0.4,1.5-0.4c3.7,0,7.5,0,11.2,0
		c1.1,0,1.7,0.4,2.3,1.5c4.6,7.5,9.2,14.9,13.9,22.3c0.1,0.1,0.2,0.2,0.7,0.5c2.1-3.3,4.1-6.6,6.1-9.8c2.7-4.3,5.4-8.7,8.1-13
		c0.4-0.6,1.2-1.3,1.9-1.3c4.3-0.1,8.6-0.1,13.1-0.1c0,19.8,0,39.3,0,59c-4.3,0-8.5,0-12.9,0c0-12.2,0-24.4,0-36.6
		c-0.2-0.1-0.4-0.2-0.6-0.3c-5.2,7.8-10.4,15.7-15.9,24.1c-5.5-8.3-10.7-16.2-15.9-24c-0.2,0-0.3,0.1-0.5,0.1
		C742.2,342.9,742.2,355.1,742.2,367.4z"/>
	<path fill="#082E3B" d="M1174.6,367.6c-5.1,0-9.6,0-14.2-0.1c-0.6,0-1.5-0.7-1.9-1.2c-3.6-5.2-7.1-10.5-10.5-15.8
		c-0.8-1.3-1.6-2.1-3.3-1.9c-2.4,0.2-4.8,0-7.5,0c0,6.2,0,12.3,0,18.5c-0.7,0.2-1.2,0.5-1.6,0.5c-3.4,0-6.8,0-10.2,0
		c-1.4,0-2-0.5-2-1.9c0-0.5,0-1,0-1.5c0-17.5,0-35,0-52.5c0-3.3,0-3.3,3.3-3.3c9.1,0,18.2-0.1,27.2,0.1c7,0.2,12.9,3,16.5,9.2
		c2.7,4.7,3.2,9.8,2,15.3c-1.4,6-4.9,10-10.2,12.5c-1.2,0.6-1.4,1.2-0.6,2.3c3.8,5.5,7.6,11.1,11.4,16.7
		C1173.5,365.4,1173.9,366.3,1174.6,367.6z M1137.1,336.6c5.2,0,10.2,0,15.2,0c3.1,0,5.2-2,6.5-4.5c1.3-2.4,0.3-7.1-1.6-9
		c-1.5-1.5-3.3-2.4-5.4-2.5c-3.3-0.1-6.7-0.1-10-0.1c-1.5,0-3.1,0-4.7,0C1137.1,326,1137.1,331.1,1137.1,336.6z"/>
	<path fill="#082E3B" d="M1062.2,355.6c1.2,0,2.2,0,3.1,0c8.7,0,17.3,0,26,0c2.6,0,2.7,0.1,2.7,2.6c0,2.7,0,5.5,0,8.2
		c0,0.2-0.1,0.5-0.2,0.9c-14.8,0-29.7,0-44.7,0c0-19.6,0-39.1,0-58.8c14.7,0,29.2,0,44.1,0c0,3.5,0.1,6.9,0,10.4
		c0,1.4-1.2,1.4-2.2,1.4c-4.2,0-8.5,0-12.7,0c-5.2,0-10.5,0-15.9,0c0,3.8,0,7.4,0,11.2c1,0,1.8,0.1,2.7,0.1c7.2,0,14.5,0,21.7,0
		c2.7,0,3.1,0.4,3.1,3.2c0,2.1,0,4.2,0,6.2c0,2.4-0.2,2.5-2.6,2.5c-7.6,0-15.2,0-22.7,0c-0.7,0-1.5,0-2.4,0
		C1062.2,347.6,1062.2,351.4,1062.2,355.6z"/>
	<path fill="#082E3B" d="M878.1,367.6c-4.3,0-8.4,0-12.6,0c-1.9,0-1.7-1.9-2.2-2.8c-1.3-2.7-2.2-5.6-3.4-8.4c-0.3-0.8-1.3-1.8-2-1.8
		c-7.8-0.1-15.6-0.1-23.6-0.1c-1.5,3.7-2.9,7.3-4.3,10.9c-0.5,1.4-1.2,2.3-3,2.2c-3.6-0.2-7.3,0-11.5,0c1-2.6,1.8-4.8,2.7-6.9
		c3.3-7.8,6.6-15.6,9.9-23.3c2.5-5.8,5.1-11.5,7.5-17.2c1.5-3.4,2.9-6.9,4.3-10.4c0.5-1.4,1.4-2,2.8-2c2.8,0,5.7,0.1,8.5,0
		c1.6-0.1,2.2,1.2,2.7,2.2c3.1,7.2,6.1,14.5,9.2,21.8c2.2,5.1,4.4,10.1,6.6,15.2c2.8,6.6,5.5,13.2,8.3,19.8
		C878.1,366.8,878.1,367,878.1,367.6z M839.4,342.3c5,0,9.8,0,14.9,0c-2.5-6-4.9-11.8-7.3-17.5c-0.2,0.1-0.4,0.1-0.6,0.2
		C844.1,330.7,841.8,336.4,839.4,342.3z"/>
	<path fill="#082E3B" d="M908.5,349.3c4.1,3.4,8.4,5.8,13.2,6.9c3.1,0.7,6.4,0.9,9.5-0.7c1.6-0.8,2.8-1.8,3-3.8
		c0.2-2.3-0.6-4.1-2.5-4.9c-3.1-1.3-6.5-2.3-9.7-3.3c-5.4-1.7-10.9-2.9-15.1-7c-2.3-2.2-3.3-5-3.6-7.9c-0.9-6.5,0.7-12.2,6-16.6
		c3-2.5,6.6-3.9,10.2-4.4c9.6-1.2,18.4,0.9,26.4,7.3c-2.1,3.1-4,6.1-6.2,9c-0.3,0.4-1.6,0.4-2.2,0.1c-2.9-1.3-5.5-3.2-8.5-4.1
		c-3.2-1-6.7-1.4-9.9,0.3c-1.7,0.9-2.9,2.1-2.8,4.2c0,2.1,1.2,3.4,3,4c2.7,1.1,5.5,2,8.3,2.9c5.5,1.7,11.3,2.9,15.7,7.1
		c2,1.9,3.6,4.2,3.9,7.1c0.3,2.4,0.6,4.7,0.2,7.3c-0.9,5.8-3.9,9.9-8.9,12.5c-4.6,2.4-9.7,3.4-14.9,2.9c-7.7-0.7-14.8-3.1-21-7.9
		c-1.9-1.5-2-1.9-0.5-3.7C904.2,354.4,906.3,351.9,908.5,349.3z"/>
	<path fill="#082E3B" d="M989.3,320.6c-5.3,0-10.2,0-15.1,0c-2.9,0-2.9-0.1-2.9-3c0-2.3,0-4.7,0-7c0-1.6,0.6-2.2,2.2-2.2
		c15.1,0,30.2,0,45.2,0c1.5,0,2.1,0.6,2.1,2.1c0,2.7-0.1,5.3,0,8c0,1.6-0.7,2.2-2.3,2.2c-4.3-0.1-8.7,0-13,0c-0.8,0-1.6,0-2.7,0
		c0,1.3,0,2.4,0,3.4c0,13.5,0,27,0,40.5c0,3,0,3-3.1,3.1c-2.6,0-5.2,0-7.7,0c-2.6,0-2.7-0.1-2.7-2.6c0-3.3,0-6.7,0-10
		c0-10.3,0-20.7,0-31C989.3,322.9,989.3,322,989.3,320.6z"/>
	<path fill="#082E3B" d="M1181.3,310c-0.1,1.6-0.1,3.3-0.3,4.9c-0.1,0.5-0.7,0.9-1.1,1.3c-0.2-0.5-0.7-1-0.7-1.4
		c0.3-3,0.6-6.1,0.9-9.1c2-0.2,3,1.4,4.7,6.7c0.7-1.7,1.6-3.3,2.1-5.1c0.3-1,0.5-2,1.8-1.9c1.4,0.2,1.2,1.4,1.2,2.4
		c0,2.6,0.1,5.2,0.1,7.7c0,0.2-0.2,0.4-0.4,0.7c-2.5-1.3-0.7-4.1-2.1-5.8c-0.9,2.1-1.8,4-2.6,6c-0.2,0-0.5,0-0.7,0
		c-0.9-2.2-1.7-4.3-2.6-6.5C1181.6,310,1181.4,310,1181.3,310z"/>
	<path fill="#082E3B" d="M1171.3,314.6c1.8,0,3.1,0,4.4,0c0.9-1.6,0-2.3-0.9-3c-0.5-0.4-1.2-0.6-1.7-0.9c-1.2-0.7-1.9-1.6-1.4-3
		c0.5-1.4,1.3-2.5,3-2.4c0.8,0,1.6,0.1,2.6,0.1c-0.1,0.7-0.2,1.1-0.3,1.8c-0.5-0.2-0.8-0.3-1.2-0.4c-1.2-0.6-1.8,0.4-2.4,1.1
		c-0.1,0.1,0.7,1.1,1.1,1.6c0.5,0.4,1.1,0.6,1.7,0.9c2.4,1.3,2.6,3.6,0.4,5.3C1174.8,317.1,1172.8,316.9,1171.3,314.6z"/>
	<path fill="none" d="M843.4,182.5c3.7-10.3,8.3-19.4,17.6-25.3c5.5-3.5,11.5-4.2,17.8-3.7c8.6,0.6,15.4,5.6,18.3,13.8
		c2,5.4,2.6,11,1.8,15.2C880.6,182.5,862.3,182.5,843.4,182.5z"/>
	<path fill="none" d="M1133.8,251.6c-3.5-4.6-6.7-9.2-10.2-13.4c-3.9-4.6-8.1-9-12.3-13.2c-1.3-1.4-1.3-2.1-0.1-3.3
		c4.5-4.7,9-9.3,13.2-14.2c3.3-3.9,6.2-8.3,9.4-12.5c1.6,2.2,3.2,4.7,5.1,7c3.4,4.3,6.9,8.6,10.5,12.7c2.2,2.6,4.8,4.8,7.2,7.3
		c0.9,1,0.7,1.8-0.2,2.7c-3.1,3.1-6.3,6-9.1,9.4c-4,4.9-7.7,10.1-11.5,15.1C1135.1,249.9,1134.5,250.8,1133.8,251.6z"/>
	<path fill="none" d="M1046.2,99.1c-0.4,5.2-2.8,9.8-6.7,13.5c-6.1,5.8-12.4,11.4-18.7,17c-3.3,2.9-2.6,3.2-6.1,0
		c-5.9-5.4-11.9-10.6-17.7-15.9c-4.1-3.7-6.8-8.4-7.5-13.8c-0.3-2.4,0.7-5.2,1.7-7.5c2.5-6.1,10.1-10,15.4-9.7
		c3.4,0.2,6.5,1.7,9.3,3.6c1.5,1,2.6,0.6,4,0c2.7-1.2,5.3-2.7,8.1-3.4c3.9-1,7.5,0.6,10.7,2.8C1043.1,88.8,1045.9,93.1,1046.2,99.1z
		"/>
	<path display="none" fill="#FFFFFF" d="M1125.3,103c-0.5-0.7-0.9-1.5-1.4-2.2c-3.1-4.6-4.3-11.1-0.3-15.7c0.6-0.7,2.1-1.9,0.1-3
		c4.5-5.2,14.9-4.4,19-0.2c-0.4,0.3-0.7,0.6-1.2,1c2.2,3.1,4.2,6.4,3.7,10.6c-0.4,4-2.4,7.1-5.3,10.1c3.8-0.4,7.2-1.2,10.6-1.1
		c5.9,0.2,13.3,5.6,11.6,13.9c-0.8,3.6-3.1,6.4-6.6,7.9c-4.5,1.9-8.9,1.9-13.1-0.9c-3-2-4.3-5.2-5.2-8.5c-0.1-0.4-0.2-0.8-0.2-1.2
		c0,0-0.1-0.1-0.2-0.1c-2.8,4.3-1.9,12.4,2.3,21.7c-3.9,0-7.8,0-11.3,0c1.1-3.5,2.7-6.8,3.3-10.4c0.6-3.6,0.1-7.4,0.1-11.2
		c-0.2-0.1-0.4-0.1-0.6-0.2c-0.4,0.8-1,1.5-1.3,2.4c-2.5,8.2-8.8,10.6-15.8,9.2c-5.6-1.1-10.2-6-9.3-12.8c0.5-4,4.4-8,8.2-9.1
		c3-0.9,5.9-1.2,9-0.1c1.1,0.4,2.4,0.2,3.7,0.3C1125.1,103.4,1125.2,103.2,1125.3,103z"/>
	<path display="none" fill="#FFFFFF" d="M1123.5,139.1c-0.3-0.4-0.8-0.9-1.5-1.8c1-0.4,1.7-0.8,2.4-0.8c5.8-0.1,11.6-0.1,17.4,0
		c0.7,0,1.4,0.6,2.1,1c-0.3,0.6-0.6,1.2-0.9,1.7C1136.4,136.6,1130,136.6,1123.5,139.1z"/>
	<path fill="none" d="M1019.2,238.5c-0.5,4.9,0.7,9.1,2.9,13.1c0.3,0.5,1,0.7,1.6,1c0.8,0.4,1.5,0.8,2.4,1.2c-0.8,1.1-1,1.6-2.4,1
		c-4-1.5-8.3-1.9-12.4-0.2c-1,0.4-1.7,0.3-1.9-0.6c-0.1-0.4,0.9-1.4,1.5-1.4c1.6,0,2-0.9,2.6-2.1c1.6-3.7,2.7-7.5,2.5-12.1
		c-1.5,0.7-2.6,1.3-3.8,1.6c-2.2,0.6-4.5,1.5-6.6,1.3c-2.9-0.3-5.7-1.6-8.2-3.5c-6.6-5.1-7-14.3-1.9-21.2c4.1-5.5,9.7-9.3,14.5-13.9
		c1.9-1.8,3.8-3.5,5.7-5.3c0.6-0.5,1.2-1.1,2-1.8c1.4,1.3,2.6,2.7,3.9,3.8c4.4,3.9,9,7.5,13.2,11.5c3.5,3.4,6.6,7.1,8.2,11.9
		c1.7,5-0.9,11.7-5.3,15.1c-2.3,1.8-4.8,2.8-7.4,3.4c-3.4,0.8-6.4-0.9-9.3-2.3C1020.5,238.8,1020,238.7,1019.2,238.5z"/>
	<path fill="none" d="M1137.1,336.6c0-5.4,0-10.6,0-16.1c1.6,0,3.2,0,4.7,0c3.3,0,6.7,0,10,0.1c2.1,0,3.9,1,5.4,2.5
		c1.9,1.9,2.9,6.6,1.6,9c-1.4,2.5-3.4,4.5-6.5,4.5C1147.3,336.6,1142.4,336.6,1137.1,336.6z"/>
	<path fill="none" d="M839.4,342.3c2.4-5.9,4.7-11.6,7-17.3c0.2-0.1,0.4-0.1,0.6-0.2c2.4,5.7,4.8,11.5,7.3,17.5
		C849.2,342.3,844.4,342.3,839.4,342.3z"/>
</g>
<path display="none" fill="#FFFFFF" d="M1276.8,0.5c0,140,0,280,0,420"/>
<path display="none" fill="#FFFFFF" d="M1081.7,108.5C1081.7,108.5,1081.7,108.5,1081.7,108.5c0,14.5,0,29-0.1,43.5
	c0,2.3,0.9,4,2.5,5.4c1.9,1.7,4.2,2.1,6.7,2.1c28.3,0,56.7-0.1,85,0.1c5.2,0,9.9-3.9,9.9-9.7c-0.1-27.2-0.1-54.5-0.1-81.7
	c0-0.9,0-1.8-0.1-2.7c-0.3-5-4.7-8.5-8.4-8.5c-29.1-0.2-58.2-0.1-87.2-0.1c-4.1,0-8.2,4.3-8.3,8.3
	C1081.7,79.5,1081.7,94,1081.7,108.5z"/>
<path fill="#082E3B" d="M1081.7,108.5c0-14.5,0-29,0-43.5c0-4,4.2-8.3,8.3-8.3c29.1,0,58.2-0.1,87.2,0.1c3.6,0,8.1,3.5,8.4,8.5
	c0.1,0.9,0.1,1.8,0.1,2.7c0,27.2-0.1,54.5,0.1,81.7c0,5.9-4.7,9.8-9.9,9.7c-28.3-0.2-56.7-0.1-85-0.1c-2.5,0-4.8-0.4-6.7-2.1
	c-1.6-1.4-2.5-3.1-2.5-5.4C1081.8,137.5,1081.7,123,1081.7,108.5C1081.7,108.5,1081.7,108.5,1081.7,108.5z M1139.5,104.4
	c0.4-0.9,0.6-1.4,0.9-1.9c1.2-2.1,2.6-4.1,3.5-6.3c3.2-7.3-3.5-15.5-10.5-15.7c-7.7-0.3-16,8-11.1,18c0.8,1.7,1.8,3.2,3,5.3
	c-2.7-0.2-4.7,0.1-6.4-0.5c-3.5-1.3-6.5,0-9.4,1.5c-4.1,2.1-7,8.5-5.5,12.1c2.2,5.2,6.5,9.5,14,8.5c5.4-0.7,8.8-2.9,10.8-9.6
	c0.2-0.8,0.9-1.5,1.4-2.2c1.4,7.7,1.3,14.9-2.9,21.5c3.8,0,7.4,0,11.2,0c-3.4-5.7-4.1-11.7-3.7-18c0.1-1.2,0.7-2.4,1.1-3.6
	c0.7,0.5,0.8,0.7,0.9,0.9c1.9,9.2,9.2,13.7,18,9.9c7.3-3,10-12.4,2.8-18.5C1152.3,101.3,1146.2,102.5,1139.5,104.4z"/>
<path display="none" fill="#FFFFFF" d="M1139.5,104.4c6.7-1.9,12.7-3.1,18.1,1.5c7.2,6.1,4.4,15.4-2.8,18.5
	c-8.9,3.7-16.1-0.7-18-9.9c0-0.2-0.2-0.5-0.9-0.9c-0.4,1.2-1.1,2.4-1.1,3.6c-0.4,6.3,0.3,12.3,3.7,18c-3.8,0-7.4,0-11.2,0
	c4.3-6.6,4.3-13.8,2.9-21.5c-0.5,0.7-1.1,1.4-1.4,2.2c-2,6.7-5.4,8.9-10.8,9.6c-7.5,1-11.8-3.3-14-8.5c-1.5-3.6,1.3-10.1,5.5-12.1
	c2.9-1.4,5.9-2.7,9.4-1.5c1.7,0.6,3.8,0.3,6.4,0.5c-1.2-2.1-2.2-3.7-3-5.3c-4.9-9.9,3.4-18.2,11.1-18c7.1,0.2,13.8,8.4,10.5,15.7
	c-1,2.2-2.4,4.2-3.5,6.3C1140.2,103,1140,103.4,1139.5,104.4z"/>
</svg>
