<?xml version="1.0" encoding="utf-8"?>
<!-- Generator: Adobe Illustrator 23.0.0, SVG Export Plug-In . SVG Version: 6.00 Build 0)  -->
<svg version="1.1" id="Ebene_1" xmlns="http://www.w3.org/2000/svg" xmlns:xlink="http://www.w3.org/1999/xlink" x="0px" y="0px"
	 viewBox="0 0 255.8 75.8" style="enable-background:new 0 0 255.8 75.8;" xml:space="preserve">
<style type="text/css">
	.st0{fill:#082D3F;}
</style>
<g>
	<path class="st0" d="M83.4,7.7c-0.8,2.8-1.7,5.7-2.5,8.7c-4.7,16-9.5,32.1-14,48.2c-0.8,2.9-2.1,4-5.2,3.9
		c-6.4-0.2-12.7-0.1-19.1-0.1c-1.1,0-2.2-0.1-3.7-0.2c1.5-5.3,2.9-10.2,4.5-15c0.3-0.8,1.7-1.1,2.4-1.8c0.9-1,1.7-2.2,2.5-3.3
		c-1.1-0.8-2.1-2-3.4-2.3c-1.7-0.4-3.6,0.2-5.2-0.2c-1.1-0.3-2-1.7-3-2.5c1-0.9,1.9-2.5,3-2.7c3.6-0.3,7.2-0.2,10.9-0.1
		c2.2,0,4.5-0.3,4.1-3c-0.2-1.1-2.6-2.4-4.1-2.5c-4.5-0.3-9-0.1-13.5-0.1c-2.1,0-4.8,0.4-4.7-2.7c0.2-2.8,2.7-2.7,4.9-2.7
		c6.6,0,13.2,0,19.9,0c2.2,0,4.8,0.1,4.8-2.8c0.1-2.9-2.5-2.9-4.7-2.9c-10.4,0-20.7,0-31.1,0c-2,0-4.4,0.4-4.4-2.6
		c0.1-2.8,2.4-2.7,4.5-2.7c10.1,0,20.2,0,30.4,0c1.2,0,2.7,0.2,3.7-0.3c1.1-0.6,1.8-2,2.7-3.1c-1.1-0.8-2.1-2.4-3.2-2.4
		c-4.4-0.3-8.7,0.1-13.1-0.3c-1.2-0.1-2.4-1.6-3.5-2.4c1.1-1,2.3-2.7,3.4-2.7c12-0.2,24-0.1,36,0C82.6,7,82.8,7.3,83.4,7.7z"/>
	<path class="st0" d="M82.7,27.7c8.2,0.2,16.5,0.4,24.7,0.5c4.6,0.1,5.3,1,4.1,5.4c-2.8,10.2-5.6,20.4-8.4,30.7
		c-0.6,2.2-1.3,4.1-4.1,4.1c-9.5,0-18.9,0-28.7,0c0.1-1.2,0.1-2,0.3-2.8c3.5-11.8,7.1-23.7,10.7-35.5C81.5,29.3,82.2,28.6,82.7,27.7
		C82.7,27.8,82.7,27.7,82.7,27.7z"/>
	<path class="st0" d="M82.7,27.8c1-4.3,1.8-8.7,3.1-12.9c3-9.5,0.5-7.8,10.6-8c3-0.1,6,0,9,0c3,0,6,0,10.1,0c-2,1.2-3.2,1.9-4.3,2.6
		c-8.7,5.4-17.4,10.7-26,16.1C84.2,26.2,83.5,27,82.7,27.8C82.7,27.7,82.7,27.8,82.7,27.8z"/>
	<path class="st0" d="M187.5,29.2c1.1-5.2,2.2-10.5,3.3-15.8c3.8,1.6,8.4-2.6,11,2.2c1.8-0.9,3.1-1.8,4.6-2.2
		c3.5-0.9,6.6,1.5,6.2,4.9c-0.5,3.7-1.5,7.4-2.3,11.1c-0.5-0.1-0.9-0.2-1.4-0.3c0.5-2.3,1.1-4.7,1.4-7c0.4-2.4,1.9-5.4-1.7-6.7
		c-2.7-1-5.9,1.4-6.8,4.9c-0.8,3-1.4,6.1-2.2,9.2c-0.5-0.1-0.9-0.2-1.4-0.3c0.5-2.4,1-4.7,1.4-7.1c0.4-2.5,1.9-5.4-1.7-6.7
		c-2.6-1-5.9,1.4-6.8,4.9c-0.7,2.4-1.1,4.9-1.7,7.3c-0.2,0.7-0.7,1.3-1.1,2C188.1,29.4,187.8,29.3,187.5,29.2z"/>
	<path class="st0" d="M159,68.1c1.1-5.3,2.3-10.5,3.5-15.9c3.8,2.1,8.5-2.7,10.8,2.5c1.7-0.9,3.1-1.8,4.6-2.3c3.6-1,6.8,1.5,6.3,5.2
		c-0.5,3.6-1.5,7.2-2.3,10.8c-0.4-0.1-0.8-0.1-1.2-0.2c0.3-1.7,0.5-3.5,0.9-5.2c0.2-1,0.5-1.9,0.6-2.9c0.2-2.2,1.2-4.8-1.9-5.6
		c-2.9-0.8-5.3,0.7-6.3,3.4c-1,2.7-1.5,5.5-2.2,8.3c-0.2,0.8-0.6,1.6-1,2.4c-0.3-0.1-0.7-0.2-1-0.3c0.5-2.6,1.1-5.1,1.6-7.7
		c0.4-2.3,1.4-4.9-1.7-6.1c-2.4-0.9-5.7,1-6.7,4.1c-0.8,2.5-1.2,5.1-1.9,7.6c-0.2,0.8-0.7,1.6-1,2.4C159.7,68.4,159.3,68.3,159,68.1
		z"/>
	<path class="st0" d="M138,52.9c-1.5-4.3-4.6-5.3-8.4-4.4c-4.1,0.9-5.8,4-6.6,7.7c-0.1,0.6-0.2,1.2-0.3,1.8
		c-1.2,5.5-0.3,7.8,3.2,8.4c5.1,0.9,9.1-2.1,9.8-7.4c-1.9-0.2-3.8-0.4-5.6-0.6c0-0.4,0-0.9-0.1-1.3c2.6-0.2,5.1-0.3,7.7-0.5
		c-0.2,8.7-6.2,13.6-13.1,11.5c-3-0.9-4.6-3-4.3-5.8c0.5-3.8,1.3-7.7,2.8-11.2c1.9-4.4,8-6.2,12.2-4.1
		C137.6,48.1,139.1,49.7,138,52.9z"/>
	<path class="st0" d="M222,7.5c-0.3,2.3-0.6,4.6-1,7.3c3.8-1.6,7.3-2.8,10.1,0.8c1.8,2.3,0.6,8.3-2,11.2c-2.3,2.5-5.1,3.4-8.5,2.3
		c-1.3-0.4-2.7-0.3-4.6-0.5c1.5-6.7,3-14,4.6-21.3C221.2,7.3,221.6,7.4,222,7.5z M230.2,19.6c0.1-3-1-4.3-3.8-4.3
		c-4-0.1-7.3,3.2-7.5,7.8c-0.1,2.6,1.1,4.3,3.9,4.4C226.8,27.7,230,24.2,230.2,19.6z"/>
	<path class="st0" d="M144.7,8.1c-4.1,3.2-8.1,6.4-12.3,9.8c3.2,3.8,6.2,7.4,9.3,11c-0.2,0.2-0.4,0.4-0.7,0.7
		c-4.1-2.1-5.9-6.8-9.8-9.8c-0.9,3.4-1.8,6.6-2.6,9.8c-0.4-0.1-0.9-0.2-1.3-0.3c1.5-7.3,3.1-14.6,4.6-21.9c0.5,0.1,0.9,0.1,1.4,0.2
		c-0.4,2.5-0.7,5-1.3,8.5c4.3-3.3,8.1-6.2,11.9-9.1C144.1,7.2,144.4,7.7,144.7,8.1z"/>
	<path class="st0" d="M189.3,61c-0.8,5.7,0.6,6.1,10.1,3.3c-1.6,3.3-5.2,5-8.3,4c-3.2-1-4.3-3.4-3.7-7.5c0.7-4.4,3.5-7.6,7.3-8.4
		c3.6-0.7,6.5,1.1,6.9,4.4c0.4,3-0.3,4.8-3.9,4.4C194.9,60.8,192.1,61,189.3,61z M189.5,58.7c3.8,0,7.1,0,10.4,0
		c0.3-0.3,0.5-0.7,0.8-1c-1.1-1.1-2.1-3-3.3-3.3C194.1,53.7,191.3,55,189.5,58.7z"/>
	<path class="st0" d="M156.5,30.4c-1-1.5-1.4-2-1.7-2.4c-1.6,0.5-3.1,1.2-4.6,1.4c-3.4,0.3-5.4-1.6-5.6-5c-0.3-4.9,2.1-9.5,5.8-10.7
		c1.6-0.5,3.4-0.2,5.1-0.1c1.3,0,2.7,0.2,4.5,0.4C159,18.8,157.8,24.1,156.5,30.4z M157.2,19.1c-0.1-2.5-1.8-3.9-4.5-3.8
		c-3.7,0.2-6.8,4.2-6.6,8.6c0.1,2.7,1.6,3.7,4.2,3.6C154.1,27.3,157.3,23.4,157.2,19.1z"/>
	<path class="st0" d="M185.6,13.4c-1.2,5.5-2.3,10.7-3.3,15.3c-1.8,0.1-3.1-0.1-4.2,0.3c-5,1.8-8.4-0.6-8.1-6
		c0.5-7.6,5.3-11,12.2-8.7C183.1,14.6,184.2,13.8,185.6,13.4z M175.3,27.5c3.9,0.1,7.2-3.4,7.3-8c0.1-2.7-1.3-4.2-4-4.2
		c-3.8-0.1-6.9,3.6-7,8.2C171.6,26,172.7,27.4,175.3,27.5z"/>
	<path class="st0" d="M250.9,13.3c-1.2,5.5-2.3,10.8-3.3,15.5c-1.6,0-2.8-0.3-3.8,0.1c-5.4,2.1-8.9-0.5-8.4-6.3
		c0.7-7.4,5.4-10.5,12.2-8.2C248.3,14.6,249.3,13.8,250.9,13.3z M248,18.8c-0.2-2.4-1.7-3.6-4.4-3.5c-3.7,0.1-6.8,4.1-6.7,8.5
		c0.1,2.7,1.6,3.8,4.1,3.6C244.8,27.3,248,23.5,248,18.8z"/>
	<path class="st0" d="M156.4,52.2c-1.2,5.6-2.3,10.9-3.3,15.6c-1.7,0-2.9-0.3-3.8,0.1c-5.4,2.1-8.9-0.5-8.4-6.3
		c0.7-7.4,5.3-10.4,12.2-8.2C153.8,53.6,154.8,52.8,156.4,52.2z M146.1,66.5c3.9,0,7.2-3.5,7.3-8c0.1-2.7-1.3-4.2-4.1-4.2
		c-3.8-0.1-6.9,3.6-7,8.2C142.3,65.1,143.5,66.4,146.1,66.5z"/>
	<path class="st0" d="M27.6,11.8c-1.4,0-2.8,0.3-4.1-0.1c-1.2-0.4-2.1-1.6-3.2-2.4c1-1,1.8-2.7,2.9-2.8c2.9-0.4,6-0.4,8.9,0
		c1,0.1,1.9,1.9,2.8,2.9c-1.1,0.8-2.1,1.9-3.3,2.3C30.4,12.1,29,11.8,27.6,11.8z"/>
	<path class="st0" d="M204.8,64.7c2.1,0.6,4.4,1.6,6.6,1.5c1.3,0,2.5-1.8,3.8-2.8c-1.1-0.8-2.1-1.8-3.3-2.4c-1-0.5-2.3-0.5-3.1-1.1
		c-0.9-0.8-2-2.1-1.9-3.2c0.2-3.2,2.8-4.2,5.6-4.4c2.8-0.2,5,0.8,5.8,3.8c-2.5-0.6-4.6-1.5-6.7-1.5c-1.1,0-2.1,1.7-3.2,2.6
		c0.9,0.9,1.8,1.8,2.8,2.5c0.5,0.3,1.3,0.2,1.7,0.6c1.4,1.1,2.8,2.4,4.1,3.6c-1.5,1.5-2.7,3.6-4.5,4.3
		C208.5,69.6,205.4,67.9,204.8,64.7z"/>
	<path class="st0" d="M18.9,34.3c-1.5,0-3.1,0.3-4.5-0.1c-1-0.3-2.5-1.6-2.4-2.1c0.2-1.1,1.4-2.6,2.3-2.7c3.2-0.3,6.5-0.3,9.7,0
		c0.9,0.1,2.4,1.8,2.2,2.4c-0.2,1-1.5,2.2-2.5,2.5C22.2,34.6,20.5,34.3,18.9,34.3C18.9,34.3,18.9,34.3,18.9,34.3z"/>
	<path class="st0" d="M168.3,7.6c-1.6,7.3-3.1,14.6-4.7,21.9c-0.5-0.1-1-0.2-1.5-0.3c1.6-7.3,3.2-14.6,4.7-21.9
		C167.3,7.4,167.8,7.5,168.3,7.6z"/>
	<path class="st0" d="M9.8,24.6c-1.2-1.6-2.6-2.6-2.5-3.5c0-0.9,1.5-1.8,2.3-2.7c1,0.9,2.5,1.7,2.7,2.7
		C12.5,21.8,11.1,22.9,9.8,24.6z"/>
</g>
</svg>
