<?xml version="1.0" encoding="utf-8"?>
<!-- Generator: Adobe Illustrator 22.1.0, SVG Export Plug-In . SVG Version: 6.00 Build 0)  -->
<svg version="1.1" id="Selected_Items" xmlns="http://www.w3.org/2000/svg" xmlns:xlink="http://www.w3.org/1999/xlink" x="0px"
	 y="0px" viewBox="0 0 1615 695" style="enable-background:new 0 0 1615 695;" xml:space="preserve">
<style type="text/css">
	.st0{fill-rule:evenodd;clip-rule:evenodd;fill:#082d3c;}
	.st1{fill-rule:evenodd;clip-rule:evenodd;fill:#082d3c;}
</style>
<g>
	<path class="st0" d="M1546.2,115h-64.3v284.1h-33.6V115H1384V86.2h162.2V115z M1349.5,115h-109.3v106.6h80.8v28.6h-80.8v120.4
		h114.4v28.6h-148.1v-313h143V115z M1100.2,125.9c-8.8-7.4-23-11-42.7-10.8h-34v105.7h19.2c24,0.2,41.7-4.1,53.2-12.9
		c11.4-8.6,17-23.4,16.8-44.5C1113,145.8,1108.8,133.2,1100.2,125.9z M1073.2,86.2c23.4,0.4,41.5,7.5,54.3,21.3
		c12.6,14,19,32.6,19.2,55.9c0,16-3.7,30.2-11.1,42.6c-7.6,12.6-19.9,21.5-36.7,26.7v0.9c18.8,5.2,32.6,14.8,41.5,28.6
		c8.8,13.8,13.2,30.5,13.2,50.1c0,29-8.2,50.8-24.7,65.2c-16.4,14.4-41.7,21.6-76,21.6H990v-313H1073.2z M1057.5,249.3h-34v121.3h34
		c20.4,0,35.9-4.7,46.2-14.1c10.6-9.2,15.9-23.9,15.9-44.1c0.2-20.6-4.6-36.2-14.4-46.9C1095.3,254.7,1079.4,249.3,1057.5,249.3z
		 M65.2,115.6c-5.4,4.8-8.1,11.5-8.1,20.1c0,8.4,2.7,15,8.1,19.9c5.4,4.8,11.8,7.2,19.2,7.2c7.4,0,13.9-2.4,19.5-7.2
		c5.4-5,8.1-11.6,8.1-19.9c0-8.6-2.7-15.3-8.1-20.1c-5.6-4.8-12.1-7.2-19.5-7.2C77,108.5,70.6,110.9,65.2,115.6z M84.5,82.3
		c14,0,26.3,4.7,36.9,14.1c4,3.2,7.7,8.1,11.1,14.8c3.4,6.4,5.2,14.6,5.4,24.6c-0.2,10-2,18.2-5.4,24.6s-7.2,11.3-11.4,14.7
		c-10.4,9-22.6,13.6-36.6,13.8c-13.8-0.2-26-4.8-36.7-13.8c-4-3.4-7.7-8.3-11.1-14.7c-3.6-6.4-5.5-14.6-5.7-24.6
		c0.2-10,2.1-18.3,5.7-24.9c3.4-6.4,7.2-11.4,11.4-14.8C58.5,87.1,70.6,82.5,84.5,82.3z M100.1,213.2v186.5H67.4V213.2h0.3
		c5,1.6,10.4,2.4,16.2,2.4C89.5,215.6,94.9,214.9,100.1,213.2z"/>
	<path class="st1" d="M953.3,115h-64v284.1h-33.9V115h-64V86.2h161.9V115z M750.3,115H649.7v106.6H725v28.6h-75.3v149H616v-313
		h134.2V115z M833.6,507.5c0.6,0.3,1.2,0.6,1.8,1.1c0.4,0.4,0.7,0.9,0.9,1.3c0.2,0.4,0.2,0.7,0.2,0.8l-30.2,46.3v31.7
		c0,2.6-1.3,4-3.9,4H801c-2.5,0-3.7-1.3-3.7-4v-31.7l-30.2-46.3c0-0.1,0.1-0.4,0.2-0.8c0.1-0.4,0.4-0.9,0.9-1.3
		c0.4-0.5,1-0.8,1.8-1.1c0.7-0.4,1.6-0.7,2.6-0.7c1.7,0,3.2,1,4.4,3.1l24.9,38.9l24.7-38.7c1.5-2.2,3-3.2,4.6-3.2
		C832.2,506.8,833,507.1,833.6,507.5z M956.2,533c0,8.6-2.7,15.1-8.1,19.5c-5.4,4.5-13.4,6.8-24,6.8h-16.8v29.5
		c0,1.2-0.3,2.1-0.9,2.8c-0.7,0.7-1.8,1.1-3,1.1h-1.1c-2.6,0-3.9-1.3-3.9-4v-76.2c0-1.4,0.5-2.6,1.5-3.5c0.9-1,2-1.5,3.5-1.5h21.9
		c9.9,0,17.5,2.2,22.9,6.5C953.5,518.5,956.2,524.9,956.2,533z M907.2,515.3v36.1H925c7.4,0,13-1.5,16.6-4.6
		c3.8-3.1,5.7-7.5,5.7-13.3c0-12.1-7.4-18.2-22-18.2H907.2z M698.4,506.8c2.6,0,4,1.4,4,4.2v73h40.9c2.8,0,4.1,1.2,4.1,3.7v0.9
		c0,2.5-1.4,3.7-4.1,3.7h-44.8c-1.4,0-2.6-0.5-3.4-1.5c-1-0.9-1.6-2.1-1.6-3.5V511c0-2.8,1.3-4.2,4-4.2H698.4z M664.9,533
		c0,8.6-2.7,15.1-8.1,19.5c-5.4,4.5-13.4,6.8-24,6.8h-16.9v29.5c0,1.2-0.3,2.1-0.9,2.8c-0.7,0.7-1.8,1.1-3,1.1h-1.1
		c-2.6,0-3.9-1.3-3.9-4v-76.2c0-1.4,0.5-2.6,1.5-3.5c0.9-1,2-1.5,3.5-1.5h21.9c9.9,0,17.5,2.2,22.9,6.5
		C662.1,518.5,664.9,524.9,664.9,533z M655.9,533.5c0-12.1-7.4-18.2-22-18.2h-18v36.1h17.7c7.4,0,13-1.5,16.6-4.6
		C654,543.7,655.9,539.3,655.9,533.5z M1153.2,508.6c0.4-0.5,1-0.8,1.8-1.1c0.7-0.4,1.6-0.7,2.6-0.7c1.8,0,3.2,1,4.4,3.1l24.9,38.9
		l24.7-38.7c1.5-2.2,3-3.2,4.6-3.2c1,0,1.8,0.2,2.4,0.7c0.6,0.3,1.2,0.6,1.8,1.1c0.4,0.4,0.7,0.9,0.9,1.3c0.1,0.4,0.2,0.7,0.2,0.8
		l-30.1,46.3v31.7c0,2.6-1.3,4-4,4h-1.3c-2.5,0-3.7-1.3-3.7-4v-31.7l-30.2-46.3c0-0.1,0.1-0.4,0.2-0.8
		C1152.4,509.5,1152.7,509,1153.2,508.6z M988.8,506.8c2.6,0,4,1.4,4,4.2v73h40.8c2.8,0,4.2,1.2,4.2,3.7v0.9c0,2.5-1.4,3.7-4.2,3.7
		h-44.8c-1.5,0-2.6-0.5-3.5-1.5c-1-0.9-1.5-2.1-1.5-3.5V511c0-2.8,1.3-4.2,4-4.2H988.8z M1102.8,509.9l31,80.1
		c0.3,0.5-0.1,1-1.3,1.8c-1.2,0.6-2.4,0.9-3.8,0.9c-1,0-2-0.2-3-0.7c-1-0.7-1.8-1.8-2.4-3.3l-9.1-24.2h-36.5l-9.2,24.2
		c-0.6,1.5-1.4,2.6-2.4,3.3c-0.9,0.4-1.7,0.7-2.6,0.7c-1.5,0-2.7-0.3-3.7-0.9c-1.2-0.7-1.6-1.3-1.3-1.8l31-80.1c0.4-1,1.1-1.8,2-2.4
		c1-0.6,2.6-0.9,4.8-0.9c2.1,0,3.5,0.3,4.4,0.9C1101.7,508.1,1102.4,508.9,1102.8,509.9z M1096,516.7l-15.3,40h30.4L1096,516.7z
		 M502.2,121.4c-8-7.4-17.1-11-27.4-10.8c-10.2-0.4-19.4,3.2-27.6,10.8c-8.2,7.4-14.8,20.7-19.8,39.9c-4.8,19.2-7.2,46.3-7.2,81.4
		c0,35,2.5,62.1,7.5,81.3c4.8,19.2,11.3,32.7,19.5,40.2c8,7.4,17.2,11,27.6,10.5c10.2,0.4,19.4-3.1,27.6-10.5
		c8.2-7.6,14.7-21,19.5-40.2c4.8-19.2,7.2-46.3,7.2-81.3c0-35.1-2.4-62.2-7.2-81.4C517,142.1,510.5,128.8,502.2,121.4z M552.1,149.3
		c7.2,23.6,10.9,54.7,11.1,93.4c-0.2,38.6-3.9,69.8-11.1,93.4c-7.4,23.6-17.8,40.8-31,51.6c-13.2,10.6-28.6,15.8-46.2,15.6
		c-17.8,0.2-33.4-5-46.5-15.6c-13.2-10.8-23.6-28-31-51.6c-7.2-23.6-10.9-54.8-11.1-93.4c0.2-38.7,3.9-69.8,11.1-93.4
		c7.4-23.6,17.7-40.8,31-51.4c13.2-10.8,28.7-16.1,46.5-15.9c17.6-0.2,33,5.1,46.2,15.9C534.4,108.5,544.7,125.7,552.1,149.3z
		 M338.2,323.8c0,25-6.9,44.6-20.8,58.6c-13.6,13.8-33.4,20.8-59.5,21c-16.4,0-30.4-3.7-42-11.1c-11.6-7.4-20.6-17.7-27-31
		c-6.4-13.2-9.9-28.6-10.2-46.2H210c0.4,18.6,4.9,33.2,13.5,43.9c8.6,10.4,21.4,15.8,38.1,15.9c14.2,0,25.5-4.4,33.6-13.2
		c8.2-8.8,12.4-21.5,12.6-38.1c-0.4-14-4.7-26.1-12.9-36.3c-8.4-10.2-18.8-19.6-31.2-28.2c-12.4-8.4-24.8-17.3-37.2-26.8
		c-12.4-9.2-22.8-20-31.2-32.4c-8.2-12.2-12.5-27.2-12.9-45c0.4-22.2,7.3-39.9,20.8-52.9c13.6-13,31.8-19.6,54.6-19.8
		c22.8,0.2,41,7.5,54.4,21.9c13.6,14.6,21.2,35.7,22.9,63.1h-31.2c-1.2-16.4-5.5-29.9-12.9-40.2c-7.4-10.4-19.1-15.8-35.1-16.2
		c-13.2,0.2-23.6,4.1-31.2,11.7c-7.6,7.6-11.5,17.4-11.7,29.5c0.4,13.8,4.7,25.6,12.9,35.4c8.4,9.6,18.9,18.5,31.2,26.8
		c12.4,8.2,24.8,16.9,37.2,26.1c12.4,9.4,22.8,20.7,31.2,33.9C333.5,287.3,337.9,304,338.2,323.8z M564.8,506.8h1.8
		c1.9,0,3.4,0.6,4.6,1.8c1.2,1,1.8,2.3,1.8,3.9v76.2c0,2.6-1.2,4-3.7,4h-1.1c-2.5,0-3.8-1.3-3.8-4v-71.7l-22.1,48.5
		c-0.9,1.7-1.8,3.1-2.8,4.2c-1.2,0.9-2.8,1.3-5,1.3c-2.2,0-3.9-0.4-5.1-1.3c-1-1-1.9-2.4-2.6-4.2l-22.3-48.5v71.7c0,2.6-1.2,4-3.5,4
		h-1.5c-2.3,0-3.5-1.3-3.5-4v-76.2c0-1.6,0.6-2.9,1.8-3.9c1.2-1.2,2.8-1.8,4.8-1.8h2c2.3,0,4,0.6,5,1.8c0.9,1,1.8,2.7,2.8,5
		l22.3,49.4l22.3-49.4c1-2.3,1.9-4,2.8-5C560.8,507.4,562.5,506.8,564.8,506.8z M402.9,507.5c3.5,0.9,6.5,2.1,9,3.7
		c2.3,1.5,4.1,3,5.4,4.6c1.3,1.7,2,3.3,2,4.8c0,0.9-0.3,1.7-0.9,2.4c-0.6,0.7-1.1,1.3-1.8,1.8c-0.7,0.4-1.3,0.8-1.8,1.1
		c-0.6,0.1-0.9,0.1-0.9,0c-2-3.5-5-6.4-8.9-8.8c-3.9-2.3-8.5-3.5-13.8-3.5c-6,0-10.8,1.4-14.4,4.2s-5.4,6.5-5.4,11.2
		c0,2.8,0.5,5,1.5,6.8c1,1.8,2.5,3.2,4.4,4.4c1.9,1,4.2,2,7,2.9c2.6,0.7,5.5,1.4,8.7,2.1c3.5,0.7,6.9,1.7,10.3,2.9
		c3.2,1.2,6.1,2.7,8.8,4.6c2.6,1.7,4.7,4.1,6.3,7c1.6,2.8,2.4,6.2,2.4,10.5c0,3.7-0.6,7-1.9,9.8c-1.5,2.9-3.4,5.4-5.9,7.5
		c-2.6,2.2-5.8,3.8-9.4,4.8c-3.6,1.2-7.7,1.8-12.2,1.8c-4.6,0-8.8-0.6-12.6-1.8c-3.9-1-7.2-2.4-9.9-4.1c-2.6-1.8-4.6-3.6-6.1-5.5
		c-1.6-1.9-2.4-3.7-2.4-5.2c0-1,0.3-1.8,0.9-2.4c0.6-0.7,1.2-1.3,1.8-1.8c0.6-0.6,1.2-1,1.8-1.1c0.6-0.2,0.9-0.2,0.9,0
		c2.3,3.8,5.6,7.1,9.9,10c4.4,2.8,9.7,4.2,15.9,4.2c6.6,0,11.7-1.4,15.3-4.2c3.7-2.8,5.5-6.6,5.5-11.6c0-2.8-0.7-5.1-2-7
		c-1.2-1.9-2.8-3.4-5-4.6c-2.2-1.3-4.7-2.4-7.5-3.3c-2.9-0.7-5.8-1.5-8.8-2.2c-3.3-0.9-6.5-1.7-9.6-2.6c-3.1-1-5.8-2.5-8.3-4.3
		c-2.5-1.8-4.4-4-5.9-6.8c-1.6-2.8-2.4-6.3-2.4-10.5c0-3.2,0.7-6.2,2.2-9.1c1.4-2.8,3.4-5.2,5.9-7.5c2.6-2,5.7-3.6,9.2-4.8
		c3.5-1.3,7.2-2,11.1-2C395.5,505.8,399.4,506.3,402.9,507.5z M460.5,511v77.8c0,2.6-1.3,4-3.9,4h-1.3c-2.5,0-3.8-1.3-3.8-4V511
		c0-2.8,1.2-4.2,3.8-4.2h1.3C459.2,506.8,460.5,508.2,460.5,511z"/>
</g>
</svg>
