<?xml version="1.0" encoding="utf-8"?>
<!-- Generator: Adobe Illustrator 23.0.0, SVG Export Plug-In . SVG Version: 6.00 Build 0)  -->
<svg version="1.1" id="Ebene_1" xmlns="http://www.w3.org/2000/svg" xmlns:xlink="http://www.w3.org/1999/xlink" x="0px" y="0px"
	 viewBox="0 0 317.2 39.7" style="enable-background:new 0 0 317.2 39.7;" xml:space="preserve">
<style type="text/css">
	.st0{fill:#FFFFFF;}
</style>
<g>
	<path class="st0" d="M58.1,1.5h12.1l15.4,36.7H72.4l-1.9-4.9H57.7l-1.9,4.9h-13L58.1,1.5z M67.4,24.7l-3.3-8.9l-3.3,8.9H67.4z"/>
	<path class="st0" d="M254.8,1.5h12.1l15.4,36.7H269l-1.9-4.9h-12.8l-1.9,4.9h-13L254.8,1.5z M264,24.7l-3.3-8.9l-3.3,8.9H264z"/>
	<path class="st0" d="M294.1,11.9h-10.8V1.4h34v10.4h-10.8v26.4h-12.3V11.9L294.1,11.9z"/>
	<path class="st0" d="M92.4,1.4h12.8l7.9,12.9L121,1.4h12.8v36.8h-12.2V20l-8.5,13.1h-0.2L104.4,20v18.2h-12L92.4,1.4z"/>
	<path class="st0" d="M191.2,1.4H204l7.9,12.9l7.9-12.9h12.8v36.8h-12.2V20l-8.5,13.1h-0.2L203.2,20v18.2h-12V1.4z"/>
	<path class="st0" d="M162.5,0c-11,0-19.8,8.9-19.8,19.8c0,11,8.9,19.8,19.8,19.8c11,0,19.8-8.9,19.8-19.8S173.5,0,162.5,0z
		 M162.5,27.6c-4.3,0-7.8-3.5-7.8-7.8s3.5-7.8,7.8-7.8s7.8,3.5,7.8,7.8S166.8,27.6,162.5,27.6z"/>
	<path class="st0" d="M39.2,15.4H19.8v8.7h7.6c-1.5,2.7-4.3,4.5-7.6,4.5c-4.8,0-8.7-3.9-8.7-8.7s3.9-8.7,8.7-8.7
		c1.3,0,2.6,0.3,3.7,0.8l5.1-9.9C26,0.7,23,0,19.8,0C8.9,0,0,8.9,0,19.8c0,11,8.9,19.8,19.8,19.8c11,0,19.8-8.9,19.8-19.8
		C39.7,18.3,39.5,16.8,39.2,15.4z"/>
</g>
</svg>
