<?xml version="1.0" encoding="utf-8"?>
<!-- Generator: Adobe Illustrator 22.1.0, SVG Export Plug-In . SVG Version: 6.00 Build 0)  -->
<svg version="1.1" id="Ebene_1" xmlns="http://www.w3.org/2000/svg" xmlns:xlink="http://www.w3.org/1999/xlink" x="0px" y="0px"
	 viewBox="0 0 141.7 141.7" style="enable-background:new 0 0 141.7 141.7;" xml:space="preserve">
<style type="text/css">
	.st0{clip-path:url(#SVGID_2_);}
</style>
<g>
	<defs>
		<rect id="SVGID_1_" x="2" y="2" width="137.7" height="137.7"/>
	</defs>
	<clipPath id="SVGID_2_">
		<use xlink:href="#SVGID_1_"  style="overflow:visible;"/>
	</clipPath>
	<path d="M66.1,55.7h7.4c3.7,0,9.6,0.5,9.6,7.4c0,3-1.4,6.4-4.1,8.3c-2.4,1.8-4.7,1.8-6.9,1.9h-10L66.1,55.7z
		 M108.6,70.9c0,20.9-16.9,37.8-37.8,37.8c-5.8,0-11.4-1.4-16.3-3.7l5.1-21.4h12.4c4.3-0.2,8.4-0.2,12.7-2c7.2-3.1,12.4-9.8,12.4-19
		c0-3.8-0.9-7.6-3.1-10.6c-4.5-5.8-11.4-6.2-15.6-6.3H54.2L42.9,96.1c-6-6.7-9.8-15.5-9.8-25.3C33.1,50,50,33.1,70.9,33.1
		C91.7,33.1,108.6,50,108.6,70.9 M139.7,57.2l-24.3-4.7l13.8-20.6L105,36.8l4.9-24.3L89.3,26.3L84.6,2L70.9,22.7L57.2,2l-4.7,24.3
		L31.9,12.5l4.9,24.3l-24.3-4.9l13.8,20.6L2,57.2l20.7,13.7L2,84.6l24.3,4.7l-13.8,20.6l24.3-4.9l-4.9,24.3l20.6-13.8l4.7,24.3
		l13.7-20.7l13.7,20.7l4.8-24.3l20.6,13.8L105,105l24.3,4.9l-13.8-20.6l24.3-4.7l-20.7-13.7L139.7,57.2z" fill="#ffffff" />
</g>
</svg>
