<?xml version="1.0" encoding="utf-8"?>
<!-- Generator: Adobe Illustrator 23.0.0, SVG Export Plug-In . SVG Version: 6.00 Build 0)  -->
<svg version="1.1" id="Ebene_1" xmlns="http://www.w3.org/2000/svg" xmlns:xlink="http://www.w3.org/1999/xlink" x="0px" y="0px"
	 viewBox="0 0 445.2 81.2" style="enable-background:new 0 0 445.2 81.2;" xml:space="preserve">
<style type="text/css">
	.st0{display:none;}
	.st1{display:inline;fill:#FFFFFF;}
	.st2{fill:#FFFFFF;}
	.st3{display:none;fill:#FFFFFF;}
	.st4{display:inline;opacity:0.5;}
</style>
<title>Stakelogic_Logo_RGB</title>
<g>
	<g id="Layer_1">
		<g id="LOGIC_-_stroke" class="st0">
			<rect id="_Path_" x="356.4" y="0" class="st1" width="23.1" height="14"/>
			<path id="_Compound_Path_" class="st1" d="M430.7,35.7v-1.2c0-2.8-0.4-5.6-1.1-8.3c-0.8-2.5-2.2-4.8-4.1-6.7
				c-2.2-2-4.9-3.4-7.7-4.3c-3.8-1.1-7.8-1.6-11.8-1.5c-3.7,0-7.5,0.3-11.1,0.9c-3.3,0.5-6.5,1.8-9.3,3.8c-2.6,1.9-4.7,4.5-6,7.4V15
				h-44v3.7c-1.1-1.3-2.5-2.4-4.1-3.1c-2.7-1.2-5.7-1.9-8.7-1.8c-2.9,0-5.7,0.4-8.5,1.2c-2.5,0.8-4.8,2.3-6.6,4.2
				c-1.4,1.6-2.5,3.4-3.3,5.4c-0.6-1.1-1.2-2.2-2-3.2c-2.2-2.7-5.2-4.6-8.5-5.7c-3.6-1.3-8.6-2-14.8-2c-6,0-10.8,0.7-14.5,2.2
				c-3.3,1.2-6.2,3.3-8.5,5.9c-0.8,1-1.5,2.1-2.1,3.3V0h-23.1v64.1h23.1v-9.3c0.5,1,1.1,1.9,1.8,2.7c2.2,2.6,5.2,4.6,8.5,5.6
				c3.6,1.3,8.6,1.9,14.8,1.9c6,0,10.8-0.7,14.4-2.1c3.3-1.2,6.2-3.2,8.5-5.8c1.1-1.4,2-2.9,2.7-4.5c0.9,2.1,2.2,4,3.8,5.6
				c1.8,1.7,4,3,6.4,3.7c5,1.4,10.4,1.2,15.3-0.6c1.7-0.6,3.3-1.7,4.5-3.1v5.1c0,0.9-0.1,1.8-0.5,2.6c-0.5,1-1.4,1.8-2.6,1.9
				c-0.7,0.1-1.4,0.2-2.1,0.2c-1.1,0.1-2.2-0.2-3.1-0.7c-0.6-0.4-0.9-1-0.9-1.7v-1.2h-21.1v1.2c0,2.6,0.8,5.1,2.3,7.2
				c1.5,1.9,3.4,3.4,5.7,4.4c2.5,1.1,5.2,1.8,8,2.1c3.1,0.4,6.3,0.6,9.5,0.6c3.5,0,7-0.3,10.5-0.8c3-0.5,5.9-1.4,8.6-2.8
				c2.4-1.3,4.5-3.2,6-5.5c1.2-2,1.9-4.2,2.1-6.4h22.4v-9.8c1.2,2.5,3,4.7,5.3,6.4c2.7,1.9,5.8,3.1,9,3.5c3.7,0.6,7.4,0.8,11.1,0.8
				c9.1,0,15.8-1.7,19.9-4.9c2.2-1.8,3.8-4.2,4.6-6.9c0.9-3.2,1.4-6.5,1.3-9.8v-1.2h-21.1v4.2c0,3.3-0.7,4.6-1.2,5.2
				c-1,0.9-2.3,1.4-3.6,1.3c-0.8,0-1.6-0.1-2.4-0.5c-0.6-0.4-1.1-1-1.4-1.7c-0.5-1.3-0.8-2.7-0.9-4.1c-0.2-1.8-0.3-4.2-0.3-7
				s0.1-5.2,0.3-7c0.1-1.4,0.4-2.8,0.9-4.2c0.2-0.7,0.7-1.3,1.4-1.7c0.7-0.4,1.6-0.5,2.4-0.5c1.8,0,3,0.5,3.6,1.4
				c0.4,0.8,0.7,1.6,0.9,2.5c0.2,1.5,0.3,2.9,0.3,4.4v1.2L430.7,35.7z M334.7,38.3c0,1.9-0.1,3.9-0.3,5.8c-0.1,1.1-0.4,2.2-1,3.2
				c-0.3,0.5-0.7,1-1.3,1.2c-1.4,0.5-2.8,0.5-4.2,0c-0.5-0.3-1-0.7-1.3-1.2c-0.5-1-0.8-2.1-1-3.2c-0.3-1.9-0.4-3.9-0.4-5.8
				c0-1.9,0.1-3.8,0.4-5.7c0.2-1.1,0.5-2.2,1-3.2c0.3-0.5,0.7-1,1.2-1.3c0.7-0.3,1.4-0.4,2.1-0.4c0.7,0,1.4,0.1,2,0.4
				c0.6,0.3,1,0.7,1.3,1.3c0.5,1,0.8,2.1,1,3.2C334.6,34.4,334.8,36.4,334.7,38.3z M274.7,32.4c0.1-1.4,0.3-2.8,0.8-4.1
				c0.2-0.7,0.7-1.3,1.3-1.7c0.7-0.3,1.5-0.5,2.3-0.5c0.8,0,1.6,0.1,2.3,0.5c0.6,0.4,1,1,1.2,1.6c0.4,1.3,0.7,2.7,0.8,4.2
				c0.1,1.9,0.2,4.3,0.2,7.2s-0.1,5.3-0.2,7.1c-0.1,1.4-0.3,2.8-0.8,4.1c-0.2,0.7-0.6,1.2-1.2,1.6c-1.5,0.6-3.1,0.6-4.6,0
				c-0.6-0.4-1-1-1.3-1.7c-0.5-1.3-0.8-2.7-0.8-4.1c-0.1-1.8-0.2-4.2-0.2-7.1S274.6,34.3,274.7,32.4L274.7,32.4z"/>
		</g>
		<g id="LOGIC_-_white" class="st0">
			<path id="_Compound_Path_2" class="st1" d="M252.9,1.2v61.7h-20.8V1.2H252.9z"/>
			<path id="_Compound_Path_3" class="st1" d="M304.8,48.6c-0.5,2.9-1.8,5.6-3.6,7.8c-2.1,2.5-4.9,4.4-8,5.5c-3.5,1.3-8.2,2-14,2
				c-6.1,0-10.9-0.6-14.4-1.9c-3.1-0.9-5.9-2.7-8-5.2c-1.8-2.3-3-4.9-3.4-7.8c-0.5-3.2-0.8-6.4-0.8-9.6c0-3,0.3-6,0.9-9
				c0.5-2.9,1.8-5.6,3.6-7.9c2.1-2.5,4.9-4.4,8-5.6c3.5-1.4,8.2-2.1,14-2.1c6.1,0,10.9,0.6,14.4,2c3.1,1,5.9,2.8,8,5.3
				c1.8,2.3,3,5,3.4,7.8c0.5,3.2,0.8,6.4,0.8,9.5C305.6,42.6,305.3,45.6,304.8,48.6z M273.6,46.8c0.1,1.5,0.4,3,0.9,4.5
				c0.3,0.9,1,1.7,1.8,2.3c0.9,0.4,1.8,0.6,2.8,0.6c1,0,2-0.2,2.9-0.6c0.9-0.5,1.5-1.3,1.8-2.3c0.5-1.4,0.8-2.9,0.9-4.5
				c0.2-1.9,0.2-4.3,0.2-7.2c0-2.9-0.1-5.4-0.2-7.3c-0.1-1.5-0.4-3-0.9-4.5c-0.3-0.9-0.9-1.7-1.8-2.3c-0.9-0.4-1.9-0.6-2.9-0.6
				c-1,0-1.9,0.2-2.8,0.6c-0.8,0.5-1.5,1.3-1.8,2.3c-0.5,1.4-0.8,3-0.9,4.5c-0.2,1.9-0.2,4.3-0.2,7.3S273.4,44.9,273.6,46.8z"/>
			<path id="_Compound_Path_4" class="st1" d="M356,16.1v46c0.1,2.7-0.6,5.4-2,7.8c-1.4,2.2-3.3,3.9-5.5,5.1
				c-2.6,1.3-5.4,2.3-8.2,2.7c-3.4,0.6-6.8,0.8-10.3,0.8c-3.1,0-6.3-0.2-9.4-0.6c-2.6-0.3-5.2-1-7.7-2c-2-0.9-3.8-2.2-5.2-4
				c-1.3-1.9-2-4.2-2-6.5h18.7c0,1.1,0.5,2.1,1.4,2.7c1.1,0.7,2.5,1.1,3.8,1c0.8,0,1.5-0.1,2.3-0.2c1.5-0.2,2.8-1.1,3.5-2.5
				c0.4-1,0.6-2,0.6-3.1v-8.7h-0.2c-1.1,2.6-3.3,4.5-5.9,5.5c-2.6,1-5.4,1.5-8.2,1.5c-2.1,0-4.3-0.3-6.3-0.9
				c-2.2-0.6-4.2-1.8-5.9-3.4c-2-2-3.4-4.4-4.3-7c-1.2-3.8-1.8-7.8-1.7-11.8c-0.1-3.8,0.4-7.6,1.3-11.3c0.7-2.7,2-5.2,3.8-7.3
				c1.6-1.8,3.7-3.1,6-3.9c2.6-0.8,5.3-1.2,8.1-1.2c2.8,0,5.6,0.6,8.2,1.7c2.6,1.2,4.6,3.3,5.5,6h0.2v-6.5H356z M324.6,44.3
				c0.2,1.3,0.6,2.5,1.1,3.6c0.4,0.8,1.1,1.4,1.9,1.7c0.8,0.3,1.7,0.5,2.6,0.4c0.8,0,1.7-0.1,2.5-0.4c0.8-0.3,1.5-1,1.9-1.7
				c0.6-1.1,1-2.3,1.1-3.6c0.3-2,0.4-4,0.4-6c0-2-0.1-4-0.4-5.9c-0.1-1.3-0.5-2.5-1.1-3.6c-0.4-0.8-1.1-1.4-1.9-1.8
				c-0.8-0.3-1.6-0.5-2.5-0.5c-0.9,0-1.8,0.1-2.6,0.5c-0.8,0.4-1.4,1-1.9,1.8c-0.6,1.1-1,2.3-1.1,3.6c-0.3,2-0.4,3.9-0.4,5.9
				C324.1,40.3,324.3,42.3,324.6,44.3z"/>
			<path id="_Compound_Path_5" class="st1" d="M378.3,1.2v11.6h-20.8V1.2H378.3z M378.3,16.2v46.7h-20.8V16.1L378.3,16.2z"/>
			<path id="_Compound_Path_6" class="st1" d="M410.5,29.9c-0.2-1-0.5-2-1-2.9c-0.8-1.3-2.4-2-4.6-2c-1,0-2,0.2-2.9,0.6
				c-0.9,0.5-1.6,1.4-1.9,2.3c-0.5,1.4-0.9,3-1,4.5c-0.2,1.9-0.3,4.3-0.3,7.1c0,2.9,0.1,5.3,0.3,7.1c0.1,1.5,0.5,3,1,4.5
				c0.3,1,1,1.8,1.9,2.3c0.9,0.5,1.9,0.7,2.9,0.7c1.6,0.1,3.3-0.5,4.4-1.6c1-1.1,1.6-3.1,1.6-6v-3h18.7c0.1,3.2-0.4,6.4-1.3,9.4
				c-0.8,2.5-2.3,4.7-4.3,6.4c-3.9,3.1-10.3,4.7-19.1,4.7c-3.7,0-7.4-0.2-11-0.8c-3-0.4-6-1.6-8.5-3.3c-2.4-1.9-4.3-4.3-5.4-7.2
				c-1.3-3.1-2-7.2-2-12.2c0-5.5,0.7-10,2.2-13.3c1.2-3.1,3.3-5.7,5.9-7.7c2.6-1.8,5.7-3.1,8.9-3.5c3.6-0.6,7.3-0.9,11-0.9
				c3.9-0.1,7.7,0.4,11.5,1.4c2.7,0.8,5.2,2.1,7.3,4c1.8,1.7,3.1,3.8,3.8,6.1c0.8,2.6,1.1,5.3,1.1,8h-18.8
				C410.9,32.9,410.8,31.4,410.5,29.9z"/>
		</g>
		<g>
			<g id="LOGIC_-_green_inner_glow">
				<path id="_Compound_Path_7" class="st2" d="M252.9,1.2v61.7h-20.8V1.2H252.9z"/>
				<path id="_Compound_Path_8" class="st2" d="M304.8,48.6c-0.5,2.9-1.8,5.6-3.6,7.8c-2.1,2.5-4.9,4.4-8,5.5c-3.5,1.3-8.2,2-14,2
					c-6.1,0-10.9-0.6-14.4-1.9c-3.1-0.9-5.9-2.7-8-5.2c-1.8-2.3-3-4.9-3.4-7.8c-0.5-3.2-0.8-6.4-0.8-9.6c0-3,0.3-6,0.9-9
					c0.5-2.9,1.8-5.6,3.6-7.9c2.1-2.5,4.9-4.4,8-5.6c3.5-1.4,8.2-2.1,14-2.1c6.1,0,10.9,0.6,14.4,2c3.1,1,5.9,2.8,8,5.3
					c1.8,2.3,3,5,3.4,7.8c0.5,3.2,0.8,6.4,0.8,9.5C305.6,42.6,305.3,45.6,304.8,48.6z M273.6,46.8c0.1,1.5,0.4,3,0.9,4.5
					c0.3,0.9,1,1.7,1.8,2.3c0.9,0.4,1.8,0.6,2.8,0.6c1,0,2-0.2,2.9-0.6c0.9-0.5,1.5-1.3,1.8-2.3c0.5-1.4,0.8-2.9,0.9-4.5
					c0.2-1.9,0.2-4.3,0.2-7.2c0-2.9-0.1-5.4-0.2-7.3c-0.1-1.5-0.4-3-0.9-4.5c-0.3-0.9-0.9-1.7-1.8-2.3c-0.9-0.4-1.9-0.6-2.9-0.6
					c-1,0-1.9,0.2-2.8,0.6c-0.8,0.5-1.5,1.3-1.8,2.3c-0.5,1.4-0.8,3-0.9,4.5c-0.2,1.9-0.2,4.3-0.2,7.3S273.4,44.9,273.6,46.8z"/>
				<path id="_Compound_Path_9" class="st2" d="M356,16.1v46c0.1,2.7-0.6,5.4-2,7.8c-1.4,2.2-3.3,3.9-5.5,5.1
					c-2.6,1.3-5.4,2.3-8.2,2.7c-3.4,0.6-6.8,0.8-10.3,0.8c-3.1,0-6.3-0.2-9.4-0.6c-2.6-0.3-5.2-1-7.7-2c-2-0.9-3.8-2.2-5.2-4
					c-1.3-1.9-2-4.2-2-6.5h18.7c0,1.1,0.5,2.1,1.4,2.7c1.1,0.7,2.5,1.1,3.8,1c0.8,0,1.5-0.1,2.3-0.2c1.5-0.2,2.8-1.1,3.5-2.5
					c0.4-1,0.6-2,0.6-3.1v-8.7h-0.2c-1.1,2.6-3.3,4.5-5.9,5.5c-2.6,1-5.4,1.5-8.2,1.5c-2.1,0-4.3-0.3-6.3-0.9
					c-2.2-0.6-4.2-1.8-5.9-3.4c-2-2-3.4-4.4-4.3-7c-1.2-3.8-1.8-7.8-1.7-11.8c-0.1-3.8,0.4-7.6,1.3-11.3c0.7-2.7,2-5.2,3.8-7.3
					c1.6-1.8,3.7-3.1,6-3.9c2.6-0.8,5.3-1.2,8.1-1.2c2.8,0,5.6,0.6,8.2,1.7c2.6,1.2,4.6,3.3,5.5,6h0.2v-6.5H356z M324.6,44.3
					c0.2,1.3,0.6,2.5,1.1,3.6c0.4,0.8,1.1,1.4,1.9,1.7c0.8,0.3,1.7,0.5,2.6,0.4c0.8,0,1.7-0.1,2.5-0.4c0.8-0.3,1.5-1,1.9-1.7
					c0.6-1.1,1-2.3,1.1-3.6c0.3-2,0.4-4,0.4-6c0-2-0.1-4-0.4-5.9c-0.1-1.3-0.5-2.5-1.1-3.6c-0.4-0.8-1.1-1.4-1.9-1.8
					c-0.8-0.3-1.6-0.5-2.5-0.5c-0.9,0-1.8,0.1-2.6,0.5c-0.8,0.4-1.4,1-1.9,1.8c-0.6,1.1-1,2.3-1.1,3.6c-0.3,2-0.4,3.9-0.4,5.9
					C324.1,40.3,324.3,42.3,324.6,44.3z"/>
				<path id="_Compound_Path_10" class="st2" d="M378.3,1.2v11.6h-20.8V1.2H378.3z M378.3,16.2v46.7h-20.8V16.1L378.3,16.2z"/>
				<path id="_Compound_Path_11" class="st2" d="M410.5,29.9c-0.2-1-0.5-2-1-2.9c-0.8-1.3-2.4-2-4.6-2c-1,0-2,0.2-2.9,0.6
					c-0.9,0.5-1.6,1.4-1.9,2.3c-0.5,1.4-0.9,3-1,4.5c-0.2,1.9-0.3,4.3-0.3,7.1c0,2.9,0.1,5.3,0.3,7.1c0.1,1.5,0.5,3,1,4.5
					c0.3,1,1,1.8,1.9,2.3c0.9,0.5,1.9,0.7,2.9,0.7c1.6,0.1,3.3-0.5,4.4-1.6c1-1.1,1.6-3.1,1.6-6v-3h18.7c0.1,3.2-0.4,6.4-1.3,9.4
					c-0.8,2.5-2.3,4.7-4.3,6.4c-3.9,3.1-10.3,4.7-19.1,4.7c-3.7,0-7.4-0.2-11-0.8c-3-0.4-6-1.6-8.5-3.3c-2.4-1.9-4.3-4.3-5.4-7.2
					c-1.3-3.1-2-7.2-2-12.2c0-5.5,0.7-10,2.2-13.3c1.2-3.1,3.3-5.7,5.9-7.7c2.6-1.8,5.7-3.1,8.9-3.5c3.6-0.6,7.3-0.9,11-0.9
					c3.9-0.1,7.7,0.4,11.5,1.4c2.7,0.8,5.2,2.1,7.3,4c1.8,1.7,3.1,3.8,3.8,6.1c0.8,2.6,1.1,5.3,1.1,8h-18.8
					C410.9,32.9,410.8,31.4,410.5,29.9z"/>
			</g>
		</g>
		<path id="STAKE_-_stroke" class="st3" d="M231.6,43.4v-6c0.1-3.8-0.5-7.5-1.6-11.1c-1-2.9-2.7-5.5-5.1-7.4c-2.4-2-5.3-3.3-8.3-4
			c-7.8-1.6-15.8-1.5-23.5,0.2c-3.2,0.8-6.2,2.4-8.7,4.6c-2.4,2.2-4.1,5-5.1,8.1c-1.1,3.8-1.6,7.8-1.6,11.8c0,2.7,0.2,5.4,0.6,8.1
			l-8.6-12.2L188.1,15h-25.4l-10,14V0h-23.1v23.9c-0.3-0.7-0.6-1.4-1-2c-1.4-2.1-3.3-3.9-5.5-5c-2.6-1.3-5.4-2.1-8.2-2.5
			c-6-0.9-12-0.9-18-0.1c-2.8,0.4-5.5,1.2-8.1,2.4c-2,1-3.9,2.3-5.4,3.9V15h-8.2V1.2H52V15h-6.9v3.3C41,15.3,34.7,13.8,26,13.8
			c-3.8-0.1-7.6,0.3-11.3,1.1c-2.9,0.6-5.6,1.7-8.1,3.3c-2,1.2-3.7,3-4.9,5C0.6,25.1,0,27.3,0,29.6c-0.1,2.8,0.8,5.6,2.5,7.9
			c1.6,2,3.7,3.6,6,4.7c2.4,1.2,4.9,2.1,7.4,2.7c2.6,0.7,5,1.3,7.2,1.8c1.8,0.4,3.6,1.1,5.4,1.9c1.4,0.7,1.6,1.5,1.6,2.1
			c0,0.8-0.5,1.6-1.2,1.9c-1.1,0.6-2.3,0.9-3.6,0.9c-1.3,0.1-2.6-0.4-3.6-1.3c-0.4-0.4-0.7-0.9-0.8-1.5c-0.2-0.7-0.3-1.5-0.3-2.3
			v-1.2H0v1.2c0,5.5,2.1,9.8,6.2,12.6s10.4,4.1,19.4,4.1c3.6,0,7.3-0.3,10.8-1.1c2.9-0.6,5.7-1.7,8.2-3.3c2.1-1.4,3.9-3.2,5.3-5.3
			c1.3-2.1,1.9-4.5,1.9-6.9c0.1-2.9-0.8-5.7-2.5-8c-1.6-2-3.7-3.6-6-4.6c-2.4-1.1-4.9-2-7.5-2.5c-2.6-0.6-5-1.1-7.2-1.6
			c-1.8-0.4-3.6-0.9-5.4-1.7c-1.4-0.6-1.5-1.3-1.5-1.9c0-0.7,0.3-1.3,1-1.7c1-0.6,2.1-0.8,3.2-0.8c1.2-0.1,2.4,0.2,3.4,0.8
			c0.8,0.6,1,2,1,3.2v1.2h20.3v-1.2c0-0.6,0-1.2-0.1-1.8H52v23.7c-0.1,2.3,0.3,4.6,1.1,6.7c0.7,1.8,2,3.2,3.6,4.2
			c1.9,1,3.9,1.5,6,1.7c2.3,0.2,5,0.3,8.2,0.3c1.8,0,3.7,0,5.6-0.1c1.9-0.1,3.8-0.1,5.7-0.1h1.2v-1.7c1.3,0.7,2.6,1.3,4,1.7
			c2.7,0.7,5.5,1,8.3,1c3.1,0,6.1-0.5,9-1.7c1.7-0.7,3.2-1.7,4.5-3v0.3c0.2,1,0.5,1.9,0.9,2.8l0.3,0.7h42.3V51.3l2.1-2.5l10,15.3
			h25.1l-1.1-1.6c1.2,0.5,2.5,0.9,3.7,1.3c4.2,0.9,8.5,1.4,12.9,1.3c9,0,15.3-1.5,19.3-4.6s6.2-7.8,6.3-13.9v-1.2h-21.1v1.2
			c0,3.5-0.7,5-1.2,5.6c-0.9,0.9-2.2,1.4-3.4,1.3c-1.2,0-2.3-0.3-3.2-1c-1-0.7-1.2-2.6-1.2-4.1v-5L231.6,43.4z M205.2,25.6
			c1.8,0,3,0.4,3.6,1.2c0.8,1.5,1.1,3.1,1,4.8v0.9h-9v-0.9c-0.1-1.7,0.2-3.3,1-4.8C202.4,26,203.5,25.6,205.2,25.6z M100,31.9v-1.1
			c0.1-2.8,0.7-3.8,1.1-4.1c1-0.7,2.3-1.1,3.6-1c3.6,0,4.1,1.6,4.1,3.1c0.1,0.9-0.3,1.8-1,2.4c-1.2,0.8-2.7,1.4-4.2,1.5l-8.1,1.5
			c-2.9,0.5-5.7,1.2-8.5,2.2c-2.1,0.7-4,1.8-5.7,3.3c-1.4,1.3-2.5,2.9-3.2,4.7c-0.7,2-1,4-0.9,6.1c0,0.3,0,0.6,0,0.8
			c-0.5-0.1-1-0.2-1.4-0.5c-0.2-0.1-0.7-0.5-0.7-1.8V27.8h4.7c-0.1,1-0.2,1.9-0.2,2.9v1.2L100,31.9z M100.4,45.5
			c0.7-0.9,1.7-1.5,2.7-1.8c1.3-0.5,2.6-0.8,4-0.9c0.6-0.1,1.2-0.2,1.7-0.4V46c0,2.3-0.4,4-1.2,5.1s-2.1,1.5-4,1.5
			c-2,0.2-3.7-1.3-3.9-3.3c0-0.2,0-0.4,0-0.6C99.7,47.5,99.9,46.4,100.4,45.5L100.4,45.5z"/>
		<g id="STAKE_-_green_802c">
			<path id="_Compound_Path_12" class="st2" d="M19.8,51c0.2,0.8,0.6,1.4,1.1,2c1.2,1.2,2.8,1.8,4.4,1.6c1.5,0,2.9-0.3,4.2-1
				c1.1-0.6,1.8-1.7,1.8-2.9c0-1.5-0.9-2.8-2.3-3.3c-1.8-0.9-3.7-1.5-5.6-2c-2.2-0.6-4.6-1.2-7.2-1.8C13.7,43,11.3,42.1,9,41
				c-2.2-1-4.1-2.5-5.6-4.4c-1.6-2-2.4-4.6-2.3-7.1c0-2,0.5-4,1.5-5.8c1.1-1.9,2.7-3.5,4.6-4.6c2.4-1.5,5-2.5,7.8-3.1
				c3.6-0.8,7.3-1.2,11-1.1c15.6,0,23.4,4.9,23.4,14.7h-18c0-2-0.5-3.4-1.4-4.1c-1.2-0.8-2.6-1.2-4.1-1.1c-1.3,0-2.7,0.3-3.8,1
				c-1,0.6-1.5,1.6-1.5,2.7c0,1.4,0.9,2.6,2.3,3c1.8,0.8,3.7,1.4,5.6,1.8c2.2,0.5,4.6,1.1,7.2,1.6c2.5,0.5,4.9,1.4,7.2,2.5
				c2.2,1,4.1,2.5,5.6,4.3c1.6,2.1,2.4,4.6,2.3,7.2c0,2.2-0.6,4.4-1.7,6.3c-1.3,2-2.9,3.6-4.9,4.9c-2.4,1.5-5.1,2.6-7.8,3.1
				c-3.5,0.7-7,1.1-10.5,1c-8.7,0-14.9-1.3-18.7-3.9s-5.7-6.4-5.7-11.6h18.2C19.4,49.3,19.5,50.2,19.8,51z"/>
			<path id="_Compound_Path_13" class="st2" d="M53.2,16.1V2.4H74v13.7h8.2v10.5H74v22.3c-0.1,1.1,0.3,2.1,1.2,2.8
				c1.1,0.6,2.4,0.9,3.8,0.8h3.2v10.4c-1.9,0-3.8,0-5.8,0.1c-1.9,0.1-3.8,0.1-5.5,0.1c-3.2,0-5.8-0.1-8.1-0.3
				c-1.9-0.1-3.8-0.6-5.5-1.5c-1.4-0.8-2.5-2.1-3.1-3.6c-0.7-2-1.1-4.1-1-6.3V26.6h-6.9V16.1H53.2z"/>
			<path id="_Compound_Path_14" class="st2" d="M110.5,60.4c-0.2-0.9-0.3-1.8-0.5-2.8h-0.2c-1.2,2.1-3.2,3.8-5.5,4.7
				c-2.7,1.1-5.7,1.6-8.6,1.6c-2.7,0.1-5.4-0.3-8-0.9c-2-0.5-3.8-1.4-5.4-2.7c-1.4-1.2-2.4-2.6-3-4.3c-0.6-1.8-0.9-3.6-0.9-5.5
				c0-1.9,0.2-3.9,0.9-5.7c0.6-1.6,1.5-3.1,2.8-4.2c1.6-1.3,3.4-2.3,5.3-3c2.7-1,5.5-1.7,8.3-2.1l8.2-1.5c1.7-0.2,3.3-0.8,4.7-1.8
				c1-0.8,1.5-2.1,1.4-3.4c0-2.9-1.8-4.3-5.3-4.3c-1.6-0.1-3.1,0.3-4.4,1.3c-0.9,0.8-1.4,2.5-1.5,5h-18c-0.1-2.9,0.7-5.8,2.4-8.2
				c1.6-2,3.7-3.7,6-4.8c2.5-1.2,5.1-1.9,7.8-2.3c2.6-0.4,5.1-0.5,7.7-0.6c3.3,0,6.7,0.2,10,0.6c2.7,0.3,5.4,1.1,7.8,2.3
				c2.1,1,3.8,2.6,5.1,4.6c1.3,2.3,1.9,4.9,1.7,7.5v22.8c0,1.9,0.1,3.9,0.4,5.8c0.2,1.5,0.7,3,1.6,4.3h-20.1
				C110.9,62.1,110.6,61.3,110.5,60.4z M108.5,51.8c1-1.3,1.5-3.2,1.5-5.8v-5.7h-0.2c-0.8,0.7-1.8,1.1-2.8,1.2
				c-1.4,0.2-2.8,0.5-4.2,1c-1.3,0.4-2.5,1.2-3.3,2.3c-0.7,1.1-1,2.4-0.9,3.8c-0.2,2.6,1.8,4.9,4.4,5.1c0.2,0,0.4,0,0.7,0
				C105.8,53.7,107.5,53,108.5,51.8L108.5,51.8z"/>
			<path id="_Compound_Path_15" class="st2" d="M151.5,1.2v31.1h0.2l11.5-16.2h22.1l-17.3,19.3l19.5,27.5h-22.1L155,46.8l-3.5,4.1
				v12h-20.8V1.2H151.5z"/>
			<path id="_Compound_Path_16" class="st2" d="M199.6,48.3c0,2.5,0.6,4.2,1.7,5.1c1.1,0.8,2.5,1.3,3.9,1.3c1.6,0.1,3.2-0.5,4.3-1.7
				c1-1.1,1.6-3.3,1.6-6.4h18.7c-0.2,5.8-2.1,10.1-5.9,13c-3.8,2.9-10,4.4-18.6,4.4c-4.2,0.1-8.4-0.3-12.6-1.3
				c-3-0.7-5.9-2.1-8.2-4.2c-2.2-2.1-3.7-4.7-4.4-7.6c-1-3.7-1.4-7.5-1.3-11.3c-0.1-3.9,0.4-7.7,1.5-11.4c0.9-2.9,2.5-5.5,4.7-7.6
				c2.4-2.1,5.2-3.5,8.2-4.3c7.5-1.7,15.4-1.8,22.9-0.2c2.9,0.6,5.6,1.9,7.8,3.8c2.2,1.8,3.8,4.2,4.7,6.9c1.1,3.4,1.7,7.1,1.6,10.7
				v4.8h-30.8V48.3z M209.8,26.2c-0.8-1.2-2.3-1.7-4.6-1.7s-3.7,0.6-4.4,1.7c-0.8,1.2-1.2,3-1.2,5.4v2.1H211v-2.1
				C211,29.1,210.6,27.3,209.8,26.2L209.8,26.2z"/>
		</g>
		<g class="st0">
			<g id="STAKE_-_inner_shadow" class="st4">
				<path id="_Compound_Path_17" class="st2" d="M19.8,51c0.2,0.8,0.6,1.4,1.1,2c1.2,1.2,2.8,1.8,4.4,1.6c1.5,0,2.9-0.3,4.2-1
					c1.1-0.6,1.8-1.7,1.8-2.9c0-1.5-0.9-2.8-2.3-3.3c-1.8-0.9-3.7-1.5-5.6-2c-2.2-0.6-4.6-1.2-7.2-1.8C13.7,43,11.3,42.1,9,41
					c-2.2-1-4.1-2.5-5.6-4.4c-1.6-2-2.4-4.6-2.3-7.1c0-2,0.5-4,1.5-5.8c1.1-1.9,2.7-3.5,4.6-4.6c2.4-1.5,5-2.5,7.8-3.1
					c3.6-0.8,7.3-1.2,11-1.1c15.6,0,23.4,4.9,23.4,14.7h-18c0-2-0.5-3.4-1.4-4.1c-1.2-0.8-2.6-1.2-4.1-1.1c-1.3,0-2.7,0.3-3.8,1
					c-1,0.6-1.5,1.6-1.5,2.7c0,1.4,0.9,2.6,2.3,3c1.8,0.8,3.7,1.4,5.6,1.8c2.2,0.5,4.6,1.1,7.2,1.6c2.5,0.5,4.9,1.4,7.2,2.5
					c2.2,1,4.1,2.5,5.6,4.3c1.6,2.1,2.4,4.6,2.3,7.2c0,2.2-0.6,4.4-1.7,6.3c-1.3,2-2.9,3.6-4.9,4.9c-2.4,1.5-5.1,2.6-7.8,3.1
					c-3.5,0.7-7,1.1-10.5,1c-8.7,0-14.9-1.3-18.7-3.9s-5.7-6.4-5.7-11.6h18.2C19.4,49.3,19.5,50.2,19.8,51z"/>
				<path id="_Compound_Path_18" class="st2" d="M53.2,16.1V2.4H74v13.7h8.2v10.5H74v22.3c-0.1,1.1,0.3,2.1,1.2,2.8
					c1.1,0.6,2.4,0.9,3.8,0.8h3.2v10.4c-1.9,0-3.8,0-5.8,0.1c-1.9,0.1-3.8,0.1-5.5,0.1c-3.2,0-5.8-0.1-8.1-0.3
					c-1.9-0.1-3.8-0.6-5.5-1.5c-1.4-0.8-2.5-2.1-3.1-3.6c-0.7-2-1.1-4.1-1-6.3V26.6h-6.9V16.1H53.2z"/>
				<path id="_Compound_Path_19" class="st2" d="M110.5,60.4c-0.2-0.9-0.3-1.8-0.5-2.8h-0.2c-1.2,2.1-3.2,3.8-5.5,4.7
					c-2.7,1.1-5.7,1.6-8.6,1.6c-2.7,0.1-5.4-0.3-8-0.9c-2-0.5-3.8-1.4-5.4-2.7c-1.4-1.2-2.4-2.6-3-4.3c-0.6-1.8-0.9-3.6-0.9-5.5
					c0-1.9,0.2-3.9,0.9-5.7c0.6-1.6,1.5-3.1,2.8-4.2c1.6-1.3,3.4-2.3,5.3-3c2.7-1,5.5-1.7,8.3-2.1l8.2-1.5c1.7-0.2,3.3-0.8,4.7-1.8
					c1-0.8,1.5-2.1,1.4-3.4c0-2.9-1.8-4.3-5.3-4.3c-1.6-0.1-3.1,0.3-4.4,1.3c-0.9,0.8-1.4,2.5-1.5,5h-18c-0.1-2.9,0.7-5.8,2.4-8.2
					c1.6-2,3.7-3.7,6-4.8c2.5-1.2,5.1-1.9,7.8-2.3c2.6-0.4,5.1-0.5,7.7-0.6c3.3,0,6.7,0.2,10,0.6c2.7,0.3,5.4,1.1,7.8,2.3
					c2.1,1,3.8,2.6,5.1,4.6c1.3,2.3,1.9,4.9,1.7,7.5v22.8c0,1.9,0.1,3.9,0.4,5.8c0.2,1.5,0.7,3,1.6,4.3h-20.1
					C110.9,62.1,110.6,61.3,110.5,60.4z M108.5,51.8c1-1.3,1.5-3.2,1.5-5.8v-5.7h-0.2c-0.8,0.7-1.8,1.1-2.8,1.2
					c-1.4,0.2-2.8,0.5-4.2,1c-1.3,0.4-2.5,1.2-3.3,2.3c-0.7,1.1-1,2.4-0.9,3.8c-0.2,2.6,1.8,4.9,4.4,5.1c0.2,0,0.4,0,0.7,0
					C105.8,53.7,107.5,53,108.5,51.8L108.5,51.8z"/>
				<path id="_Compound_Path_20" class="st2" d="M151.5,1.2v31.1h0.2l11.5-16.2h22.1l-17.3,19.3l19.5,27.5h-22.1L155,46.8l-3.5,4.1
					v12h-20.8V1.2H151.5z"/>
				<path id="_Compound_Path_21" class="st2" d="M199.6,48.3c0,2.5,0.6,4.2,1.7,5.1c1.1,0.8,2.5,1.3,3.9,1.3
					c1.6,0.1,3.2-0.5,4.3-1.7c1-1.1,1.6-3.3,1.6-6.4h18.7c-0.2,5.8-2.1,10.1-5.9,13c-3.8,2.9-10,4.4-18.6,4.4
					c-4.2,0.1-8.4-0.3-12.6-1.3c-3-0.7-5.9-2.1-8.2-4.2c-2.2-2.1-3.7-4.7-4.4-7.6c-1-3.7-1.4-7.5-1.3-11.3
					c-0.1-3.9,0.4-7.7,1.5-11.4c0.9-2.9,2.5-5.5,4.7-7.6c2.4-2.1,5.2-3.5,8.2-4.3c7.5-1.7,15.4-1.8,22.9-0.2
					c2.9,0.6,5.6,1.9,7.8,3.8c2.2,1.8,3.8,4.2,4.7,6.9c1.1,3.4,1.7,7.1,1.6,10.7v4.8h-30.8V48.3z M209.8,26.2
					c-0.8-1.2-2.3-1.7-4.6-1.7s-3.7,0.6-4.4,1.7c-0.8,1.2-1.2,3-1.2,5.4v2.1H211v-2.1C211,29.1,210.6,27.3,209.8,26.2L209.8,26.2z"
					/>
			</g>
		</g>
		<g id="Novomatic_Interactive">
			<g id="_Group_3">
				<g id="_Group_4">
					<rect id="_Path_2" x="357.2" y="80" class="st2" width="73.6" height="1.1"/>
					<rect id="_Path_3" y="80" class="st2" width="305.6" height="1.1"/>
				</g>
			</g>
			<g id="_Group_5">
				<path id="_Compound_Path_22" class="st2" d="M433.5,9c2.7-2.7,7-2.7,9.7,0c1.3,1.3,2,3,2,4.9c0,1.8-0.7,3.6-2,4.8
					c-2.6,2.7-6.9,2.7-9.6,0.1c0,0-0.1-0.1-0.1-0.1c-1.3-1.3-2-3-2-4.8C431.5,12,432.2,10.3,433.5,9z M434.4,18
					c2.1,2.2,5.6,2.3,7.7,0.2c0.1-0.1,0.1-0.1,0.2-0.2c1.1-1.1,1.6-2.6,1.6-4.1c0-1.5-0.5-3-1.6-4.2c-2.1-2.2-5.6-2.2-7.8-0.1
					c0,0-0.1,0.1-0.1,0.1c-1.1,1.1-1.6,2.6-1.6,4.2C432.7,15.4,433.3,16.9,434.4,18L434.4,18z M435.7,9.8h3.1c1.8,0,2.8,0.8,2.8,2.3
					c0,0.6-0.2,1.1-0.5,1.6c-0.4,0.4-0.9,0.7-1.5,0.6l2.3,3.6h-1.4l-2.2-3.6H437v3.6h-1.3L435.7,9.8z M437,13.3h1.6
					c0.4,0,0.8-0.1,1.2-0.3c0.3-0.2,0.5-0.6,0.4-1c0.1-0.4-0.1-0.8-0.5-1c-0.4-0.2-0.8-0.2-1.2-0.2H437V13.3z"/>
			</g>
		</g>
	</g>
</g>
</svg>
