<?xml version="1.0" encoding="utf-8"?>
<!-- Generator: Adobe Illustrator 18.1.1, SVG Export Plug-In . SVG Version: 6.00 Build 0)  -->
<svg version="1.1" id="icon-quickspin" xmlns="http://www.w3.org/2000/svg" xmlns:xlink="http://www.w3.org/1999/xlink" x="0px"
	 y="0px" viewBox="0 17.6 20 4.8" enable-background="new 0 17.6 20 4.8" xml:space="preserve">
<path fill="#082D3C" d="M0.3,19.1c0.2,0,0.3-0.1,0.3-0.3c0-0.3,0.2-0.4,0.5-0.4l0,0c0.2,0,0.5,0.1,0.5,0.4c0,0.2,0.1,0.3,0.3,0.3
	s0.3-0.1,0.3-0.3c0-0.6-0.4-1-1.1-1l0,0c-0.6,0-1.1,0.4-1.1,1C0,18.9,0.1,19.1,0.3,19.1z M2.1,20.9c0-0.2-0.1-0.3-0.3-0.3
	s-0.3,0.1-0.3,0.3c0,0.3-0.2,0.4-0.5,0.4l0,0c-0.2,0-0.5-0.1-0.5-0.4c0-0.2-0.1-0.3-0.3-0.3S0,20.8,0,20.9c0,0.6,0.4,1,1.1,1l0,0
	c0.1,0,0.2,0,0.2,0l0.3,0.5c0.1,0.1,0.2,0.1,0.4,0c0.1-0.1,0.2-0.2,0.2-0.3l-0.3-0.5C2,21.4,2.1,21.2,2.1,20.9z"/>
<path fill="#082D3C" d="M0.6,20.6v-1.5c-0.1,0.1-0.2,0.1-0.3,0.1S0.1,19.1,0,19v1.6c0.1-0.1,0.2-0.1,0.3-0.1S0.5,20.5,0.6,20.6z
	 M1.5,19v1.6c0.1-0.1,0.2-0.1,0.3-0.1c0.1,0,0.2,0,0.3,0.1v-1.5c0,0-0.1,0.1-0.3,0.1C1.7,19.2,1.6,19.1,1.5,19z M6.8,19.1
	c0.2,0,0.3-0.1,0.3-0.3c0-0.3,0.2-0.4,0.5-0.4l0,0c0.2,0,0.5,0.1,0.5,0.4c-0.1,0.1,0.1,0.3,0.2,0.3c0.2,0,0.3-0.1,0.3-0.3
	c0-0.6-0.4-1-1.1-1l0,0c-0.6,0-1.1,0.4-1.1,1C6.5,18.9,6.6,19.1,6.8,19.1z M8.3,20.6c-0.2,0-0.3,0.1-0.3,0.3c0,0.3-0.2,0.4-0.5,0.4
	l0,0c-0.2,0-0.5-0.1-0.5-0.4c0-0.2-0.1-0.3-0.3-0.3c-0.2,0-0.3,0.1-0.3,0.3c0,0.6,0.4,1,1.1,1l0,0c0.6,0,1.1-0.4,1.1-1
	C8.6,20.8,8.5,20.6,8.3,20.6z"/>
<path fill="#082D3C" d="M7.1,20.6v-1.5c-0.1,0-0.2,0.1-0.3,0.1S6.6,19.1,6.5,19v1.6c0.1-0.1,0.2-0.1,0.3-0.1
	C6.9,20.5,7,20.6,7.1,20.6z M11.8,19.1c0.2,0,0.3-0.1,0.3-0.3c0-0.3,0.2-0.4,0.5-0.4l0,0c0.2,0,0.5,0.1,0.5,0.4
	c0,0.2,0.1,0.3,0.3,0.3s0.3-0.1,0.3-0.3c0-0.6-0.4-1-1.1-1l0,0c-0.6,0-1.1,0.4-1.1,1C11.5,18.9,11.6,19.1,11.8,19.1z"/>
<path fill="#082D3C" d="M12,19.2c-0.1,0.1-0.2,0.1-0.3,0l1.2,1.6c0-0.1,0.1-0.2,0.2-0.3c0.1-0.1,0.2-0.1,0.3,0l-1.2-1.6
	C12.2,19,12.1,19.1,12,19.2z"/>
<path fill="#082D3C" d="M13.3,20.6c-0.2,0-0.3,0.1-0.3,0.3c0,0.3-0.2,0.4-0.5,0.4l0,0c-0.2,0-0.5-0.1-0.5-0.4c0-0.2-0.1-0.3-0.3-0.3
	s-0.3,0.1-0.3,0.3c0,0.6,0.4,1,1.1,1l0,0c0.6,0,1.1-0.4,1.1-1C13.6,20.8,13.5,20.6,13.3,20.6z M4.5,20.6c-0.2,0-0.3,0.1-0.3,0.3
	c0,0.3-0.2,0.4-0.5,0.4l0,0c-0.2,0-0.5-0.1-0.5-0.4c0-0.2-0.1-0.3-0.3-0.3s-0.3,0.1-0.3,0.3c0,0.6,0.4,1,1.1,1l0,0
	c0.6,0,1.1-0.4,1.1-1C4.8,20.8,4.7,20.6,4.5,20.6z M4.5,17.8c-0.2,0-0.3,0.1-0.3,0.3v2.5c0.1-0.1,0.2-0.1,0.3-0.1
	c0.1,0,0.2,0,0.3,0.1v-2.5C4.8,17.9,4.7,17.8,4.5,17.8z M3.3,20.6v-2.5c0-0.2-0.1-0.3-0.3-0.3s-0.3,0.1-0.3,0.3v2.5
	c0.1-0.1,0.2-0.1,0.3-0.1S3.2,20.5,3.3,20.6z M6,19.2v-1.1c0-0.2-0.1-0.3-0.3-0.3c-0.2,0-0.3,0.1-0.3,0.3v3.5c0,0.2,0.1,0.3,0.3,0.3
	c0.2,0,0.3-0.1,0.3-0.3V19.2z M17.2,19.2v-1.1c0-0.2-0.1-0.3-0.3-0.3c-0.2,0-0.3,0.1-0.3,0.3v3.5c0,0.2,0.1,0.3,0.3,0.3
	c0.2,0,0.3-0.1,0.3-0.3V19.2z M18.3,19.7l-0.1-0.2L18,19.1l-0.3-0.7v3.2c0,0.2,0.1,0.3,0.3,0.3c0.2,0,0.3-0.1,0.3-0.3V19.7z
	 M19.4,20.3l-0.6-1.2l-0.1-0.3L18.3,18c-0.1-0.2-0.3-0.2-0.4-0.2c-0.1,0.1-0.2,0.3-0.1,0.4l0.4,0.8l0.1,0.3l0.6,1.3l0.5,1.1
	c0.1,0.2,0.3,0.2,0.4,0.2c0.1-0.1,0.2-0.3,0.1-0.4L19.4,20.3z M20,20.5v-2.4c0-0.2-0.1-0.3-0.3-0.3c-0.2,0-0.3,0.1-0.3,0.3v2
	l0.1,0.2l0.5,1C20,21.3,20,20.5,20,20.5z M9.6,19.4l-0.5,0.7c-0.1,0.1,0,0.3,0.1,0.4s0.3,0.1,0.4,0l0.5-0.8l0.6-0.8l0.1-0.2l0.4-0.6
	c0.1-0.1,0-0.3-0.1-0.4s-0.3-0.1-0.4,0l-0.4,0.6l-0.1,0.2C10.2,18.6,9.6,19.4,9.6,19.4z M10.9,20.9l-0.4-0.8l-0.1-0.2l-0.1-0.3
	l-0.1,0.2l-0.3,0.4l0.1,0.2l0.4,0.8l0.3,0.7c0.1,0.1,0.2,0.1,0.4,0c0.1-0.1,0.2-0.2,0.2-0.3C11.3,21.6,10.9,20.9,10.9,20.9z
	 M9.6,19.2v-1.1c0-0.2-0.1-0.3-0.3-0.3S9,17.9,9,18.1v2l0.5-0.7L9.6,19.2z"/>
<path fill="#082D3C" d="M9.1,20.7C9.1,20.6,9,20.6,9.1,20.7L9,21.6c0,0.2,0.1,0.3,0.3,0.3s0.3-0.1,0.3-0.3v-0.9
	c-0.1,0.1-0.2,0.1-0.3,0.1C9.3,20.7,9.2,20.7,9.1,20.7z M15.4,17.8L15.4,17.8h-1.1c-0.1,0-0.3,0.1-0.3,0.3s0.1,0.3,0.3,0.3h1
	c0.2,0,0.3,0.3,0.3,0.6l0,0c0,0.3-0.1,0.6-0.3,0.6h-1c-0.1,0-0.3,0.1-0.3,0.3s0.1,0.3,0.3,0.3h1.1l0,0c0.4-0.1,0.8-0.6,0.8-1.2l0,0
	C16.1,18.3,15.8,17.8,15.4,17.8z M14.7,20.3h-0.3c-0.1,0-0.2,0-0.3-0.1v1.4c0,0.2,0.1,0.3,0.3,0.3s0.3-0.1,0.3-0.3V20.3L14.7,20.3z"
	/>
<path fill="#082D3C" d="M14.7,19.4v-0.9h-0.3c-0.1,0-0.2,0-0.3-0.1v1.2c0.1-0.1,0.2-0.1,0.3-0.1h0.3V19.4z"/>
</svg>
