<?xml version="1.0" encoding="utf-8"?>
<!-- Generator: Adobe Illustrator 23.0.0, SVG Export Plug-In . SVG Version: 6.00 Build 0)  -->
<svg version="1.1" id="Layer_1" xmlns="http://www.w3.org/2000/svg" xmlns:xlink="http://www.w3.org/1999/xlink" x="0px" y="0px"
	 viewBox="0 0 3827 980" style="enable-background:new 0 0 3827 980;" xml:space="preserve">
<style type="text/css">
	.st0{fill:#082E3B;}
	.st1{fill:#FFFFFF;stroke:#000000;stroke-miterlimit:10;}
</style>
<g>
	<path class="st0" d="M977,1c-0.2,37.3-1.8,74.6-5.1,111.8c-4.8,52.5-12.7,104.4-24.3,155.9c-8.9,39.8-19.7,79.1-32.4,117.9
		c-1.5,4.6-3.6,5.6-8.1,5.6c-210.2-0.1-420.3-0.1-630.5,0c-4.4,0-6.3-1.3-7.9-5.4c-11.3-28.7-21.5-57.7-30.4-87.2
		c-1.9-6.2-2.6-5.7,4.4-5.7c197.5,0,395,0,592.5,0.1c5.4,0,7.3-1.6,8.6-6.7c15.5-60.3,26.1-121.4,32-183.3c0.4-4.3-0.8-5.3-5-5.3
		c-254.7,0.1-509.3,0.1-764,0c-4.2,0-5.4,1.1-5,5.3c3.8,40.5,9.5,80.7,17.5,120.6c20.6,102.5,54.8,200.2,102.6,293.2
		c43.6,84.7,97.1,162.7,160.3,233.9c32.2,36.3,66.6,70.4,103.1,102.4c2.7,2.4,4.2,2.3,6.9-0.1c86.9-76.1,160.6-163.2,221.2-261.6
		c0.4-0.7,0.8-1.4,1.3-2.1c1.4-2.1,1.3-3.4-1.7-3.2c-1.5,0.1-3,0-4.5,0c-108.5,0-217,0-325.5,0.1c-5,0-7.7-1.6-10.4-5.6
		c-19-28.4-36.9-57.5-53.2-87.5c-2.8-5.1-2.8-5.2,3.1-5.2c182.5,0,365,0,547.5,0c5.9,0,5.9,0,3.7,5.2
		c-57.3,130-134.7,246.7-232.2,350.1c-46,48.7-95.5,93.4-148.8,133.9c-1,0.8-1.9,1.8-2.8,2.7c-0.7,0-1.3,0-2,0
		c-11.3-3.7-19.3-12.4-28.3-19.5c-23.7-18.6-46.3-38.5-68.4-59c-20.3-18.8-39.9-38.3-58.9-58.4c-52.4-55.5-99.1-115.5-140.2-179.8
		c-19.6-30.6-37.7-62-54.6-94.2c-23.4-44.5-43.7-90.3-61.4-137.2c-14.6-38.7-27-78.1-37.5-118.1C28.1,273.9,19.4,232.7,13,191
		c-3.1-19.8-6.4-39.6-6.6-59.7c0-3.6-0.9-7.2-1.9-10.7c-1.3-4.8-1.7-9.7-1.5-14.6C2.5,86.1,1.3,66.2,1.5,46.4c0-0.8,0-1.7-0.5-2.4
		C1,30.5,1.1,17,0.9,3.5c0-2.2,0.4-2.9,2.6-2.5c0.6,0.1,1.3,0,2,0C329.3,1,653.2,1,977,1z"/>
	<path class="st0" d="M3828,443c-2.3,3.8-1.9,8.3-2.7,12.4c-10.3,50.7-49.3,89.4-100.2,98.5c-34.4,6.1-68.4,4.4-100-11.6
		c-46.1-23.4-73.9-60.7-79.2-112.9c-4.5-44.7,8-84,39.8-116.5c26.6-27.3,59.3-41.4,97.3-42.4c51.4-1.4,93.6,17,124,59.7
		c2.4,3.3,2.4,4.9-1.5,7c-13.1,7.2-26,14.9-39,22.4c-2,1.2-3.4,2.1-5.2-0.7c-13.4-19.9-32.7-30.5-55.8-34.2
		c-26.6-4.2-51.5,0.1-73.1,17.4c-24,19.2-33.7,45-33.3,75.2c0.6,38.6,25.1,71.5,62.2,82c23.3,6.6,46.8,6.5,69.7-2.3
		c19.3-7.4,32.8-21.1,40.5-40.4c1.5-3.7,1.3-5.1-3.3-5c-24.3,0.2-48.7,0-73,0.2c-4,0-5.5-0.9-5.4-5.2c0.3-12.7,0.3-25.3,0-38
		c-0.1-4.2,1.1-5.3,5.3-5.3c42.2,0.2,84.3,0.1,126.5,0.1c2.2,0,4.3-0.1,6.5-0.2C3828,416.3,3828,429.7,3828,443z"/>
	<path class="st0" d="M3001.4,404.8c2.3-1.2,2.9-3.4,4-5.2c24.1-39.9,48.3-79.8,72.3-119.7c1.8-2.9,3.6-4.1,7.1-4.1
		c15.7,0.2,31.3,0.2,47,0c3.7,0,4.8,1,4.8,4.8c-0.1,88.7-0.1,177.3,0,266c0,3.8-1.2,4.8-4.8,4.7c-14.5-0.2-29-0.3-43.5,0
		c-4.7,0.1-5.8-1.4-5.8-5.9c0.1-54.8,0.1-109.7,0.1-164.5c0-1.9,0.6-4-0.9-6.4c-6.7,11.1-13.3,21.8-19.8,32.6
		c-18.2,29.9-36.3,59.8-54.5,89.6c-3.5,5.7-7.8,5.7-11.2,0.1c-23.7-39-47.4-78-71.1-117c-0.8-1.3-1.2-3.1-3-3.8c-1,2-0.5,4-0.5,5.9
		c0,54.2,0,108.3,0,162.5c0,6.7,0,6.7-6.8,6.7c-14.5,0-29-0.1-43.5,0.1c-3.6,0-4.4-1.1-4.4-4.5c0.1-88.8,0.1-177.6,0-266.5
		c0-3.5,1.1-4.5,4.5-4.5c15.8,0.2,31.7,0.2,47.5,0c3.3,0,5,1.2,6.6,4c24.4,40.3,48.9,80.6,73.4,120.8
		C2999.6,402,3000.5,403.4,3001.4,404.8z"/>
	<path class="st0" d="M2506.5,403.2c21.3,0,42.7,0,64,0c2.1,0,4.9-0.9,5,3c0.3,22,0.7,44.1-6.9,65.2c-16.3,45.6-49,73-96.1,82.3
		c-36.7,7.3-73.1,4.3-106.1-14.7c-51-29.3-76.1-73.9-73.5-133.1c2.5-58.1,39.3-109.5,94.1-127.3c55.4-18,106.6-8.8,150.6,31.3
		c6.9,6.3,12.6,13.8,17.7,21.6c1.5,2.2,1.7,3.4-1,4.9c-13.6,7.7-27.2,15.5-40.7,23.4c-2,1.2-3.2,1.4-4.8-0.9
		c-18.6-26.3-45.1-36.3-76.2-35.6c-39.1,0.9-71.3,25-81.8,61.9c-11.4,39.8-0.4,81.9,37,105c17.8,11,37.5,14,58,13.3
		c15.4-0.6,30.1-3.7,43.4-11.7c14-8.5,24-20.3,29.9-35.7c1.4-3.7,0.5-4.5-3.2-4.5c-24.3,0.1-48.7,0-73,0.1c-4.5,0-6-1.1-5.9-5.8
		c0.3-12.3,0.4-24.7,0-37c-0.1-4.8,1.6-5.7,5.9-5.7C2464.2,403.3,2485.3,403.2,2506.5,403.2z"/>
	<path class="st0" d="M3452.2,441c0-2,0-4,0-6c0-51.2,0.1-102.3-0.1-153.5c0-4.6,1.1-5.9,5.8-5.8c14.8,0.3,29.7,0.2,44.5,0
		c3.4,0,4.6,0.9,4.6,4.5c-0.1,88.8-0.1,177.6,0,266.5c0,3.5-1,4.6-4.5,4.5c-11-0.2-22-0.2-33,0c-3.2,0.1-5.1-1-6.9-3.6
		c-36.3-51.9-72.6-103.7-108.9-155.5c-1.6-2.3-3.3-4.6-5.1-7.2c-1.5,2-0.9,4-0.9,5.8c0,51.3,0,102.7,0,154c0,6.5,0,6.5-6.4,6.5
		c-14.5,0-29-0.1-43.5,0.1c-3.2,0-4.7-0.5-4.7-4.2c0.1-89,0.1-178,0-267c0-3.2,0.9-4.3,4.2-4.2c10.7,0.2,21.3,0.3,32,0
		c4-0.1,6.3,1.3,8.5,4.5c36.4,52,73,103.8,109.5,155.7c1.3,1.9,2.6,3.7,3.9,5.5C3451.4,441.3,3451.8,441.2,3452.2,441z"/>
	<path class="st0" d="M2156,413.6c0,44-0.1,88,0.1,132c0,4.8-1.4,5.7-5.8,5.7c-14.5-0.3-29-0.2-43.5,0c-3.9,0.1-5-1-5-5
		c0.2-34.3,0-68.7,0.2-103c0-5.3-1.6-6.2-6.4-6.2c-30.2,0.2-60.3,0.2-90.5,0c-4.1,0-5.3,1.1-5.3,5.3c0.2,34.2,0.1,68.3,0.1,102.5
		c0,6.3,0,6.3-6.5,6.3c-14.3,0-28.7-0.1-43,0.1c-3.7,0-5.2-0.6-5.2-4.8c0.1-88.7,0.1-177.3,0-266c0-4,1.4-4.7,4.9-4.6
		c15,0.2,30,0.2,45,0c4.2-0.1,4.9,1.4,4.9,5.2c-0.1,32.8,0,65.7-0.2,98.5c0,4.6,1.3,5.7,5.8,5.7c30.3-0.2,60.7-0.2,91,0
		c4.5,0,5.5-1.3,5.4-5.6c-0.2-32.8,0-65.7-0.2-98.5c0-4.1,1-5.4,5.2-5.3c14.7,0.3,29.3,0.3,44,0c4.4-0.1,5.1,1.4,5.1,5.4
		C2155.9,325.3,2156,369.4,2156,413.6z"/>
	<path class="st0" d="M2711.2,501.8c-17.2,0-34.3,0.1-51.5-0.1c-3.8,0-5.5,1-6.7,4.7c-4.3,13.6-9,27.1-13.4,40.8
		c-1,3.1-2.5,4.1-5.7,4c-16.7-0.1-33.3-0.1-50,0c-3.8,0-4.5-0.8-3.2-4.5c31.2-89,62.4-178,93.4-267c1.1-3.1,2.7-3.9,5.8-3.9
		c19.5,0.1,39,0.2,58.5,0c3.6,0,5.2,1.1,6.4,4.5c21,60,42.1,119.9,63.3,179.8c10.1,28.7,20.2,57.4,30.5,86.1
		c1.6,4.4,0.8,5.2-3.7,5.1c-15.2-0.2-30.3-0.2-45.5,0c-3.4,0-4.9-0.9-6.1-4.2c-4.7-13.9-9.7-27.6-14.5-41.5c-1-2.8-2.3-3.8-5.3-3.8
		C2746.2,501.9,2728.7,501.8,2711.2,501.8z"/>
	<path class="st0" d="M1458.5,376.1c0-31.5,0.1-63-0.1-94.5c0-4.4,1-6,5.7-5.9c14.5,0.3,29,0.3,43.5,0c4.2-0.1,5.3,1.2,5.3,5.3
		c-0.1,58.5-0.1,117-0.1,175.4c0,5.2,0.3,10.3,1.7,15.3c4.5,16.6,15.3,26.5,32,30c11.6,2.4,23.2,2.4,34.7,0
		c21.5-4.4,33.6-20.9,33.6-45.6c0-57.6,0-115.3,0-172.9c0-1.3,0.1-2.7,0-4c-0.2-2.5,0.7-3.5,3.4-3.5c15.8,0.1,31.7,0.1,47.5,0
		c2.5,0,3.8,0.7,3.5,3.4c-0.1,1.3,0,2.7,0,4c0,59.1-0.4,118.3,0.1,177.4c0.5,56.7-39.6,87.5-81.6,94.3c-23,3.7-45.9,2.8-68-5.3
		c-39-14.1-61.1-46.1-61.2-88.6C1458.4,432.7,1458.5,404.4,1458.5,376.1z"/>
	<path class="st0" d="M1810,270.2c41.4,2,71.9,21.3,92,57.5c2.1,3.8,1.3,5.2-2.1,7.1c-12.5,6.9-25,14-37.2,21.4
		c-3.5,2.1-4.9,1.7-6.7-1.8c-8-15.6-20.1-26.4-37.7-30c-10.6-2.2-21.3-2.1-31.4,2c-9.7,4-16.2,10.9-17.1,21.9
		c-0.9,10.7,3.7,18.7,12.5,24.4c11.1,7.1,23.4,11.1,35.8,15c16.5,5.2,33.2,10,48.8,17.6c23.3,11.4,40.4,28.1,44.1,55.2
		c5.7,41.7-13.8,75.5-53.8,88.6c-40.8,13.4-80.8,11.2-117.7-13.3c-15.9-10.6-27-25.5-34.4-43.1c-1.2-2.8-1.3-4.6,1.8-6.4
		c13.3-7.5,26.5-15.3,39.7-23.2c2.6-1.6,3.9-1.5,5.1,1.5c12.6,29.8,37.4,39.9,66.8,38.5c6.8-0.3,13.7-1,20-3.7
		c10.6-4.3,17.9-11.5,18.7-23.6c0.8-11.6-4.8-19.7-14.7-25.1c-12.5-6.9-26-10.9-39.6-15c-19-5.7-37.7-11.8-54.8-22.3
		c-26.8-16.5-35.3-41.1-32.7-70.9c3.7-43,39.5-65.2,69.7-70.7C1793.4,270.6,1801.7,270,1810,270.2z"/>
	<path class="st0" d="M1228.8,413.6c0-44,0.1-88-0.1-131.9c0-4.3,0.7-6,5.6-5.9c34.6,0.3,69.3-0.4,103.9,0.4
		c51.5,1.3,91.3,48,87.4,99.3c-3.3,44-38,78.1-76.3,84c-10.3,1.6-20.6,1.5-30.9,1.5c-10.2,0-20.3,0.2-30.5-0.1
		c-4.1-0.1-4.9,1.3-4.9,5.1c0.1,26.5,0,53,0.2,79.5c0,4.5-1,5.9-5.7,5.8c-14.3-0.3-28.7-0.3-43,0c-4.5,0.1-5.9-1-5.8-5.7
		C1228.9,501.6,1228.8,457.6,1228.8,413.6z"/>
	<path class="st0" d="M3242,413.5c0,44-0.1,88,0.1,131.9c0,5-1.5,6-6.1,5.9c-14.2-0.3-28.3-0.3-42.5,0c-4.8,0.1-6.1-1.2-6.1-6.1
		c0.2-62.6,0.1-125.3,0.1-187.9c0-25.3,0.1-50.6-0.1-76c0-4.3,1-5.7,5.5-5.6c14.7,0.3,29.3,0.3,44,0c4.2-0.1,5.2,1.2,5.2,5.3
		C3241.9,325.2,3242,369.3,3242,413.5z"/>
	<path class="st1" d="M2710.2,339.5c5.3,15.1,10.3,29.1,15.3,43.2c7.4,21,14.8,42,22.4,63c1.5,4.1,1,5.3-3.7,5.3
		c-22.3-0.2-44.6-0.1-66.9-0.1c-2.7,0-5,0.5-3.5-3.9c11.9-34.9,23.6-70,35.3-105C2709.1,341.6,2709.4,341.1,2710.2,339.5z"/>
	<path class="st1" d="M1283.2,368.2c0-12,0.1-24-0.1-36c-0.1-3.9,0.7-5.5,5.1-5.5c14.7,0.3,29.3,0,44,0.1
		c21.8,0.2,38.3,16.5,39.3,38.4c1,23.9-13.6,42.8-35.9,44.3c-16.4,1.1-33,0.3-49.5,0.5c-3.1,0-3-1.8-3-3.9
		C1283.2,393.5,1283.2,380.8,1283.2,368.2z"/>
</g>
</svg>
