<?xml version="1.0" encoding="utf-8"?>
<!-- Generator: Adobe Illustrator 23.0.0, SVG Export Plug-In . SVG Version: 6.00 Build 0)  -->
<svg version="1.1" id="Ebene_1" xmlns="http://www.w3.org/2000/svg" xmlns:xlink="http://www.w3.org/1999/xlink" x="0px" y="0px"
	 viewBox="0 0 46.6 44.6" style="enable-background:new 0 0 46.6 44.6;" xml:space="preserve">
<style type="text/css">
	.st0{fill:#B5C3C6;}
	.st1{fill:#B6C8CC;}
	.st2{fill:#E3E9EC;}
	.st3{fill:#A3B8BE;}
	.st4{fill:#556080;}
	.st5{fill:#CFE1E5;}
	.st6{fill:#71C285;}
	.st7{fill:#4C8056;}
	.st8{fill:#D1D4D1;}
</style>
<g>
	<rect x="22.9" y="1.4" class="st0" width="6.4" height="41.6"/>
	<path class="st1" d="M22.9,3.8H0.6c-0.4,0-0.8,0.3-0.8,0.8v35.3c0,0.4,0.3,0.8,0.8,0.8h22.4V3.8z"/>
	<path class="st1" d="M36.4,3.8L42.1,7v30.4l-5.7,3.2h8.9c0.4,0,0.8-0.3,0.8-0.8V4.6c0-0.4-0.3-0.8-0.8-0.8H36.4z"/>
	<path class="st2" d="M29.4-0.1v44.5c0,0.1,0.1,0.1,0.1,0.1l12.7-7.1V7L29.5-0.1C29.4-0.2,29.4-0.1,29.4-0.1L29.4-0.1z"/>
	<path class="st3" d="M41.4,11.8h2.4c0.4,0,0.8-0.4,0.8-0.8s-0.4-0.8-0.8-0.8h-2.4c-0.4,0-0.8,0.4-0.8,0.8
		C40.5,11.5,40.9,11.8,41.4,11.8L41.4,11.8z"/>
	<path class="st3" d="M43.7,12.6h-2.4c-0.4,0-0.8,0.4-0.8,0.8c0,0.4,0.4,0.8,0.8,0.8h2.4c0.4,0,0.8-0.4,0.8-0.8S44.1,12.6,43.7,12.6
		L43.7,12.6z"/>
	<path class="st3" d="M43.7,30.2h-2.4c-0.4,0-0.8,0.4-0.8,0.8c0,0.4,0.4,0.8,0.8,0.8h2.4c0.4,0,0.8-0.4,0.8-0.8
		C44.5,30.6,44.1,30.2,43.7,30.2L43.7,30.2z"/>
	<path class="st3" d="M43.7,32.6h-2.4c-0.4,0-0.8,0.4-0.8,0.8c0,0.4,0.4,0.8,0.8,0.8h2.4c0.4,0,0.8-0.4,0.8-0.8S44.1,32.6,43.7,32.6
		L43.7,32.6z"/>
	<rect x="1.4" y="40.6" class="st4" width="6.4" height="3.2"/>
	<rect x="38.1" y="40.6" class="st4" width="6.4" height="3.2"/>
	<path class="st4" d="M26.9,3.8c0,0.4-0.4,0.8-0.8,0.8c-0.4,0-0.8-0.4-0.8-0.8S25.7,3,26.1,3S26.9,3.3,26.9,3.8L26.9,3.8z"/>
	<path class="st4" d="M26.9,8.6c0,0.4-0.4,0.8-0.8,0.8c-0.4,0-0.8-0.4-0.8-0.8s0.4-0.8,0.8-0.8S26.9,8.1,26.9,8.6L26.9,8.6z"/>
	<path class="st4" d="M26.9,35.8c0,0.4-0.4,0.8-0.8,0.8c-0.4,0-0.8-0.4-0.8-0.8c0-0.4,0.4-0.8,0.8-0.8S26.9,35.3,26.9,35.8
		L26.9,35.8z"/>
	<path class="st4" d="M26.9,31c0,0.4-0.4,0.8-0.8,0.8c-0.4,0-0.8-0.4-0.8-0.8c0-0.4,0.4-0.8,0.8-0.8S26.9,30.5,26.9,31L26.9,31z"/>
	<path class="st4" d="M26.9,13.4c0,0.4-0.4,0.8-0.8,0.8c-0.4,0-0.8-0.4-0.8-0.8c0-0.4,0.4-0.8,0.8-0.8S26.9,12.9,26.9,13.4
		L26.9,13.4z"/>
	<path class="st4" d="M26.9,40.6c0,0.4-0.4,0.8-0.8,0.8c-0.4,0-0.8-0.4-0.8-0.8c0-0.4,0.4-0.8,0.8-0.8S26.9,40.1,26.9,40.6
		L26.9,40.6z"/>
	<path class="st0" d="M31.7,14.2v3.2c1.3,0,2.4,1.1,2.4,2.4v4.8c0,1.3-1.1,2.4-2.4,2.4v3.2c3.1,0,5.6-2.5,5.6-5.6v-4.8
		C37.4,16.7,34.9,14.2,31.7,14.2L31.7,14.2z"/>
	<path class="st5" d="M32.6,15.4h-0.7l0,0h-0.2v0.8h0.9c1.3,0,3.1,1.5,3.1,2.8v6.3c0,1.3-1.9,2.9-3.1,2.9h-0.9V29h1
		c1.7-0.1,3.8-2,3.8-3.7V19C36.5,17.3,34.4,15.4,32.6,15.4L32.6,15.4z"/>
	<path class="st4" d="M22.9,7H4.1C3.4,7,2.9,7.5,2.9,8.1v28.2c0,0.6,0.5,1.1,1.1,1.1h18.9V7z"/>
	<rect x="5.4" y="7.8" class="st6" width="14.4" height="8"/>
	<rect x="5.4" y="12.6" class="st7" width="4.8" height="1.6"/>
	<rect x="5.4" y="9.4" class="st7" width="4.8" height="1.6"/>
	<rect x="14.9" y="12.6" class="st7" width="4.8" height="1.6"/>
	<rect x="14.9" y="9.4" class="st7" width="4.8" height="1.6"/>
	<rect x="10.1" y="7.8" class="st8" width="4.8" height="8"/>
	<rect x="5.4" y="18.2" class="st6" width="14.4" height="8"/>
	<rect x="5.4" y="23" class="st7" width="4.8" height="1.6"/>
	<rect x="5.4" y="19.8" class="st7" width="4.8" height="1.6"/>
	<rect x="14.9" y="23" class="st7" width="4.8" height="1.6"/>
	<rect x="14.9" y="19.8" class="st7" width="4.8" height="1.6"/>
	<rect x="10.1" y="18.2" class="st8" width="4.8" height="8"/>
	<rect x="5.4" y="29.4" class="st6" width="14.4" height="8"/>
	<rect x="5.4" y="34.2" class="st7" width="4.8" height="1.6"/>
	<rect x="5.4" y="31" class="st7" width="4.8" height="1.6"/>
	<rect x="14.9" y="34.2" class="st7" width="4.8" height="1.6"/>
	<rect x="14.9" y="31" class="st7" width="4.8" height="1.6"/>
	<rect x="10.1" y="29.4" class="st8" width="4.8" height="8"/>
	<rect x="2.9" y="26.2" class="st1" width="20" height="1.6"/>
	<rect x="2.9" y="15.8" class="st1" width="20" height="1.6"/>
</g>
</svg>
