<?xml version="1.0" encoding="utf-8"?>
<!-- Generator: Adobe Illustrator 21.1.0, SVG Export Plug-In . SVG Version: 6.00 Build 0)  -->
<svg version="1.1" id="Layer_1" xmlns="http://www.w3.org/2000/svg" xmlns:xlink="http://www.w3.org/1999/xlink" x="0px" y="0px"
	 viewBox="0 0 1354.9 148" style="enable-background:new 0 0 1354.9 148;" xml:space="preserve">
<style type="text/css">
	.st0{fill:#3DAAD4;}
	.st1{fill:#FFFFFF;}
	.st2{fill:#040707;}
</style>
<rect x="-6.9" y="-112.2" class="st0" width="1392.8" height="326.1"/>
<g>
	<g>
		<path class="st1" d="M347.5,66.4h-2.9c-0.2-4.3-0.9-7.4-2.2-9.3c-1.8-2.6-5-3.9-9.7-3.9v55.5h5.3v2.2h-19.3v-2.2h5.3V53.2
			c-4.7,0-7.9,1.3-9.7,3.9c-1.3,1.9-2.1,5-2.2,9.3h-2.9V50.8h38.4V66.4z"/>
		<path class="st1" d="M403.7,110.9h-18.5v-2.2h4.8V80.6H366v28.1h4.8v2.2h-18.5v-2.2h4.8V53.2h-4.8v-2.3h18.5v2.3H366V78h24.1V53.2
			h-4.8v-2.3h18.5v2.3h-4.8v55.5h4.8V110.9z"/>
		<path class="st1" d="M448.3,110.9h-39.9v-2.2h4.8V53.2h-4.8v-2.3h38.5v15.5h-2.7c-0.1-2.7-0.6-5.1-1.5-7.1
			c-1.7-4-5.1-6.1-10.3-6.1h-10.4V78h7.1c4.6,0,6.9-3.1,6.9-9.4h2.4v21.3h-2.4c0-6.3-2.3-9.4-6.9-9.4h-7.1v28.1h10.8
			c1.7,0,3.4-0.5,5.3-1.4c1.9-1,3.3-2.1,4.3-3.4c1.5-2.1,2.6-5.6,3.1-10.5h2.7V110.9z"/>
		<path class="st1" d="M543.6,53.2h-4.4l-19.3,59.4h-2.6l-10.4-35.7l-11.7,35.7h-2.6l-17.4-59.4h-4.3v-2.3h18.9v2.3h-5.3L497,96.8
			l8.2-25.8l-5.3-17.9h-3.8v-2.3h19.2v2.3h-6l12.4,43.7l13.8-43.7h-5.2v-2.3h13.2V53.2z"/>
		<path class="st1" d="M588,110.9h-39.9v-2.2h4.8V53.2h-4.8v-2.3h38.5v15.5h-2.7c-0.1-2.7-0.6-5.1-1.5-7.1c-1.7-4-5.1-6.1-10.3-6.1
			h-10.4V78h7.1c4.6,0,6.9-3.1,6.9-9.4h2.4v21.3h-2.4c0-6.3-2.3-9.4-6.9-9.4h-7.1v28.1h10.8c1.7,0,3.4-0.5,5.3-1.4
			c1.9-1,3.3-2.1,4.3-3.4c1.5-2.1,2.6-5.6,3.1-10.5h2.7V110.9z"/>
		<path class="st1" d="M630.3,92.6c0,6.5-2.2,11.5-6.7,15c-3.8,3-8.6,4.5-14.4,4.6c-4,0-9.4-1.3-16.3-3.9V91.9h2.8
			c0.5,3.8,1.3,6.9,2.3,9.2c2.4,5.7,6.2,8.5,11.6,8.4c3.7,0,6.8-1,9.4-3c3-2.3,4.6-5.5,4.6-9.7c0-5.1-2.6-8.9-7.8-11.4
			c-4.8-1.9-9.7-3.8-14.6-5.7c-5.2-2.8-7.8-7.1-7.8-12.8c0-6,1.9-10.6,5.7-13.8c3.3-2.7,7.6-4.1,12.9-4.2c3,0,8,1.2,15.2,3.5v14.7
			h-2.5c-1.9-10.4-6.4-15.5-13.6-15.4c-3,0-5.6,0.9-7.9,2.8c-2.6,2.1-3.8,4.8-3.8,8.1c0,4.5,2.6,7.9,7.9,10c5,1.9,10,3.8,14.9,5.6
			C627.7,81.4,630.3,86.1,630.3,92.6z"/>
		<path class="st1" d="M672.8,66.4h-2.9c-0.2-4.3-0.9-7.4-2.2-9.3c-1.8-2.6-5-3.9-9.7-3.9v55.5h5.3v2.2h-19.3v-2.2h5.3V53.2
			c-4.7,0-7.9,1.3-9.7,3.9c-1.3,1.9-2.1,5-2.2,9.3h-2.9V50.8h38.4V66.4z"/>
		<path class="st1" d="M717.5,110.9h-39.9v-2.2h4.8V53.2h-4.8v-2.3h38.5v15.5h-2.7c-0.1-2.7-0.6-5.1-1.5-7.1
			c-1.7-4-5.1-6.1-10.3-6.1h-10.4V78h7.1c4.6,0,6.9-3.1,6.9-9.4h2.4v21.3h-2.4c0-6.3-2.3-9.4-6.9-9.4h-7.1v28.1H702
			c1.7,0,3.4-0.5,5.3-1.4c1.9-1,3.3-2.1,4.3-3.4c1.5-2.1,2.6-5.6,3.1-10.5h2.7V110.9z"/>
		<path class="st1" d="M769.2,110.9h-12.4l-21-31.2v28.9h4.8v2.2h-18.5v-2.2h4.8V53.2h-4.8v-2.4h22.5c4.4,0,8.1,1,11.1,3.1
			c3.6,2.6,5.4,6.2,5.4,10.9c0,8.9-4.8,14.2-14.4,15.7l18.4,28.1h4V110.9z M752.3,65.4c0-4.1-1.1-7.2-3.4-9.3
			c-2-1.9-4.8-2.9-8.3-2.9h-4.8v25.2c4.9,0.1,8.6-0.5,11.1-2C750.5,74.5,752.3,70.8,752.3,65.4z"/>
		<path class="st1" d="M822.1,53.2h-4.8v57.9h-3.2l-33.6-55.2v52.9h5.3v2.2h-13.1v-2.2h4.8V53.2h-4.8v-2.3h14.6l27.1,44.3v-42h-5.2
			v-2.3h12.9V53.2z"/>
		<path class="st1" d="M868.4,53.2h-4.8v56.8c0,12.9-3.9,19.4-11.6,19.4h-5.1v-2.3h2.4c2.6,0,4.3-1.7,5-5.2
			c0.4-1.7,0.5-5.6,0.5-11.6V53.2H850v-2.6h18.4V53.2z"/>
		<path class="st1" d="M924.4,80.5c0,8.9-2.4,16.3-7.1,22.4c-4.9,6.3-11.1,9.5-18.5,9.5c-7.4,0-13.6-3.1-18.4-9.4
			c-4.8-6.1-7.1-13.5-7.1-22.3c0-8.9,2.4-16.5,7.2-22.6c4.8-6.1,10.9-9.2,18.3-9.2c7.5,0,13.6,3.1,18.4,9.2
			C922,64.1,924.4,71.6,924.4,80.5z M915.1,80.4c0-7.9-1.1-14.4-3.3-19.3c-2.9-6.4-7.1-9.6-12.9-9.6c-5.7,0-9.9,3.2-12.7,9.5
			c-2.3,5.1-3.4,11.6-3.5,19.3c-0.1,7.8,1,14.2,3.3,19.3c2.8,6.5,7.1,9.7,12.8,9.7c5.7,0,10-3.2,12.9-9.5
			C913.9,94.8,915.1,88.3,915.1,80.4z"/>
		<path class="st1" d="M976.8,53.2h-4.8v37.6c0,6.6-1.8,11.9-5.3,15.8c-3.5,3.9-8.1,5.9-13.7,5.9c-5.6,0-10.1-1.5-13.6-4.6
			c-3.9-3.4-5.8-8.2-5.8-14.6V53.2h-4.8v-2.3h18.5v2.3h-4.9v39.3c0,4.8,1.1,8.7,3.2,11.9c2.3,3.5,5.3,5.2,9.2,5.2
			c4.4,0,7.9-1.8,10.6-5.5c2.6-3.5,3.8-8,3.8-13.4V53.2H964v-2.3h12.8V53.2z"/>
		<path class="st1" d="M1028.9,110.9h-12.4l-21-31.2v28.9h4.8v2.2h-18.5v-2.2h4.8V53.2h-4.8v-2.4h22.5c4.4,0,8.1,1,11.1,3.1
			c3.6,2.6,5.4,6.2,5.4,10.9c0,8.9-4.8,14.2-14.4,15.7l18.4,28.1h4V110.9z M1012,65.4c0-4.1-1.1-7.2-3.4-9.3c-2-1.9-4.8-2.9-8.3-2.9
			h-4.8v25.2c4.9,0.1,8.6-0.5,11.1-2C1010.2,74.5,1012,70.8,1012,65.4z"/>
		<path class="st1" d="M1081.9,53.2h-4.8v57.9h-3.2l-33.6-55.2v52.9h5.3v2.2h-13.1v-2.2h4.8V53.2h-4.8v-2.3h14.6l27.1,44.3v-42h-5.2
			v-2.3h12.9V53.2z"/>
		<path class="st1" d="M1142,110.9h-19.6v-2.3h5.9l-8-23.8H1104l-9.4,23.8h5.2v2.3h-13.2v-2.3h4.4l23.5-59.4h3l20.2,59.4h4.4V110.9z
			 M1119.4,82.4l-6.7-19.9l-7.9,19.9H1119.4z"/>
		<path class="st1" d="M1184.6,110.9h-38v-2.2h4.8V53.2h-4.8v-2.3h18.5v2.3h-4.9v55.5h6c6.3,0,10.7-1.9,13-5.8
			c1.5-2.5,2.4-5.7,2.8-9.6h2.7V110.9z"/>
	</g>
	<path class="st1" d="M170.3,18.6v110.8h77v-2.3h2.4c2.6,0,4.2-1.7,4.9-5.1c0.4-1.7,0.5-5.5,0.5-11.5V54.1h-3.8l-19.3,59.4h-2.6
		L219,77.7l-11.7,35.8h-2.6l-17.5-59.6h-4.3v-2.3h19v2.3h-5.3L209,97.7l8.2-25.9L212,53.9h-3.9v-2.3h19.3v2.3h-6l12.5,43.8
		l13.9-43.8h-5.2v-2.3h7.8h5.4h12.7v2.5h-4.8v56.2c0,12.6-3.7,18.9-11.2,19.1h28.5V18.6H170.3z"/>
</g>
</svg>
