<?xml version="1.0" encoding="UTF-8"?>
<svg width="240px" height="80px" viewBox="0 0 240 80" version="1.1" xmlns="http://www.w3.org/2000/svg" xmlns:xlink="http://www.w3.org/1999/xlink">
    <!-- Generator: Sketch 55.2 (78181) - https://sketchapp.com -->
    <title>Logo / App / Apple</title>
    <desc>Created with Sketch.</desc>
    <defs>
        <polygon id="path-1" points="0 0 239.3276 0 239.3276 80 0 80"></polygon>
        <polygon id="path-3" points="0 80.0002 239.328 80.0002 239.328 0.000199999991 0 0.000199999991"></polygon>
    </defs>
    <g id="Logo-/-App-/-Apple" stroke="none" stroke-width="1" fill="none" fill-rule="evenodd">
        <g id="Group-44">
            <g id="Group-3" transform="translate(0.000000, 0.000200)">
                <mask id="mask-2" fill="white">
                    <use xlink:href="#path-1"></use>
                </mask>
                <g id="Clip-2"></g>
                <path d="M220.2696,0 L19.0696,0 C18.3356,0 17.6116,0 16.8796,0.004 C16.2676,0.008 15.6596,0.02 15.0416,0.03 C13.6996,0.044 12.3596,0.164 11.0336,0.382 C9.7116,0.608 8.4296,1.03 7.2316,1.636 C6.0376,2.25 4.9436,3.044 3.9956,3.994 C3.0416,4.942 2.2456,6.036 1.6396,7.236 C1.0316,8.434 0.6096,9.718 0.3896,11.042 C0.1656,12.366 0.0456,13.706 0.0296,15.046 C0.0116,15.66 0.00960000002,16.276 -0.000399999982,16.888 L-0.000399999982,63.118 C0.00960000002,63.738 0.0116,64.34 0.0296,64.96 C0.0456,66.302 0.1656,67.64 0.3896,68.964 C0.6076,70.292 1.0296,71.574 1.6396,72.774 C2.2456,73.97 3.0396,75.06 3.9956,76.002 C4.9416,76.956 6.0336,77.752 7.2316,78.36 C8.4296,78.968 9.7116,79.392 11.0336,79.622 C12.3596,79.838 13.6996,79.958 15.0416,79.974 C15.6596,79.988 16.2676,79.996 16.8796,79.996 C17.6116,80 18.3356,80 19.0696,80 L220.2696,80 C220.9876,80 221.7196,80 222.4376,79.996 C223.0476,79.996 223.6716,79.988 224.2816,79.974 C225.6216,79.958 226.9596,79.84 228.2816,79.622 C229.6096,79.392 230.8936,78.966 232.0976,78.36 C233.2956,77.752 234.3876,76.956 235.3316,76.002 C236.2856,75.056 237.0816,73.966 237.6956,72.774 C238.2996,71.574 238.7176,70.29 238.9336,68.964 C239.1556,67.64 239.2816,66.302 239.3056,64.96 C239.3116,64.34 239.3116,63.738 239.3116,63.118 C239.3276,62.39 239.3276,61.668 239.3276,60.93 L239.3276,19.072 C239.3276,18.34 239.3276,17.614 239.3116,16.888 C239.3116,16.276 239.3116,15.66 239.3056,15.046 C239.2816,13.706 239.1556,12.366 238.9336,11.042 C238.7176,9.718 238.2996,8.434 237.6956,7.236 C236.4616,4.83 234.5036,2.872 232.0976,1.636 C230.8936,1.032 229.6096,0.608 228.2816,0.382 C226.9596,0.162 225.6216,0.044 224.2816,0.03 C223.6716,0.02 223.0476,0.008 222.4376,0.004 C221.7196,0 220.9876,0 220.2696,0" id="Fill-1" fill="#A6A6A6" mask="url(#mask-2)"></path>
            </g>
            <path d="M16.8896,78.2502 C16.2796,78.2502 15.6856,78.2422 15.0816,78.2282 C13.8296,78.2122 12.5796,78.1042 11.3436,77.9022 C10.1896,77.7042 9.0736,77.3342 8.0296,76.8062 C6.9956,76.2842 6.0516,75.5962 5.2356,74.7742 C4.4076,73.9582 3.7176,73.0162 3.1936,71.9802 C2.6656,70.9382 2.2996,69.8202 2.1076,68.6662 C1.9016,67.4262 1.7916,66.1722 1.7756,64.9162 C1.7636,64.4942 1.7456,63.0902 1.7456,63.0902 L1.7456,16.8882 C1.7456,16.8882 1.7636,15.5062 1.7756,15.1002 C1.7916,13.8442 1.9016,12.5942 2.1056,11.3562 C2.2976,10.1982 2.6636,9.0782 3.1936,8.0322 C3.7156,6.9962 4.3996,6.0522 5.2236,5.2362 C6.0456,4.4122 6.9916,3.7222 8.0276,3.1902 C9.0696,2.6642 10.1836,2.2982 11.3356,2.1022 C12.5756,1.9002 13.8296,1.7902 15.0856,1.7742 L16.8896,1.7502 L222.4276,1.7502 L224.2536,1.7762 C225.4996,1.7902 226.7416,1.8982 227.9716,2.1002 C229.1336,2.2982 230.2596,2.6662 231.3116,3.1962 C233.3896,4.2662 235.0756,5.9582 236.1416,8.0362 C236.6636,9.0762 237.0256,10.1882 237.2136,11.3342 C237.4196,12.5822 237.5376,13.8442 237.5596,15.1082 C237.5656,15.6742 237.5656,16.2842 237.5656,16.8882 C237.5816,17.6382 237.5816,18.3522 237.5816,19.0722 L237.5816,60.9302 C237.5816,61.6562 237.5816,62.3662 237.5656,63.0802 C237.5656,63.7302 237.5656,64.3262 237.5576,64.9402 C237.5356,66.1822 237.4216,67.4202 237.2176,68.6462 C237.0296,69.8082 236.6656,70.9362 236.1376,71.9862 C235.6096,73.0122 234.9236,73.9482 234.1056,74.7582 C233.2896,75.5862 232.3436,76.2762 231.3056,76.8022 C230.2556,77.3342 229.1316,77.7062 227.9716,77.9022 C226.7336,78.1042 225.4836,78.2122 224.2316,78.2282 C223.6456,78.2422 223.0336,78.2502 222.4376,78.2502 L220.2696,78.2542 L16.8896,78.2502 Z" id="Fill-4" fill="#000000"></path>
            <path d="M49.538,40.6018 C49.58,37.2078 51.36,34.0738 54.25,32.2978 C52.418,29.6818 49.46,28.0818 46.268,27.9818 C42.91,27.6298 39.654,29.9918 37.942,29.9918 C36.198,29.9918 33.564,28.0178 30.726,28.0758 C26.992,28.1958 23.596,30.2678 21.78,33.5318 C17.912,40.2278 20.796,50.0698 24.502,55.4818 C26.356,58.1358 28.522,61.0958 31.358,60.9898 C34.132,60.8758 35.168,59.2218 38.516,59.2218 C41.834,59.2218 42.806,60.9898 45.698,60.9238 C48.674,60.8758 50.55,58.2598 52.34,55.5838 C53.67,53.6958 54.696,51.6098 55.376,49.3998 C51.84,47.9038 49.542,44.4398 49.538,40.6018" id="Fill-6" fill="#FFFFFF"></path>
            <path d="M44.0742,24.422 C45.6982,22.474 46.4962,19.968 46.3042,17.44 C43.8242,17.702 41.5322,18.886 39.8882,20.76 C38.2642,22.608 37.4422,25.028 37.6002,27.482 C40.1142,27.508 42.5002,26.38 44.0742,24.422" id="Fill-8" fill="#FFFFFF"></path>
            <path d="M76.1182,51.1818 L83.6222,51.1818 L79.9222,40.2878 L79.8202,40.2878 L76.1182,51.1818 Z M84.6042,54.2798 L75.1382,54.2798 L72.8642,60.9918 L68.8542,60.9918 L77.8222,36.1558 L81.9882,36.1558 L90.9542,60.9918 L86.8762,60.9918 L84.6042,54.2798 Z" id="Fill-10" fill="#FFFFFF"></path>
            <path d="M106.499,51.9396 C106.499,48.2736 104.605,45.8636 101.713,45.8636 C98.873,45.8636 96.963,48.3236 96.963,51.9396 C96.963,55.5876 98.873,58.0316 101.713,58.0316 C104.605,58.0316 106.499,55.6396 106.499,51.9396 M110.319,51.9396 C110.319,57.5656 107.307,61.1816 102.763,61.1816 C100.413,61.3056 98.201,60.0736 97.065,58.0136 L96.979,58.0136 L96.979,66.9816 L93.263,66.9816 L93.263,42.8856 L96.861,42.8856 L96.861,45.8976 L96.929,45.8976 C98.115,43.8496 100.331,42.6196 102.695,42.6956 C107.291,42.6956 110.319,46.3276 110.319,51.9396" id="Fill-12" fill="#FFFFFF"></path>
            <path d="M126.4296,51.9396 C126.4296,48.2736 124.5356,45.8636 121.6436,45.8636 C118.8036,45.8636 116.8936,48.3236 116.8936,51.9396 C116.8936,55.5876 118.8036,58.0316 121.6436,58.0316 C124.5356,58.0316 126.4296,55.6396 126.4296,51.9396 M130.2496,51.9396 C130.2496,57.5656 127.2376,61.1816 122.6936,61.1816 C120.3436,61.3056 118.1296,60.0736 116.9956,58.0136 L116.9096,58.0136 L116.9096,66.9816 L113.1916,66.9816 L113.1916,42.8856 L116.7896,42.8856 L116.7896,45.8976 L116.8576,45.8976 C118.0436,43.8496 120.2596,42.6196 122.6236,42.6956 C127.2216,42.6956 130.2496,46.3276 130.2496,51.9396" id="Fill-14" fill="#FFFFFF"></path>
            <path d="M143.4218,54.0724 C143.6978,56.5344 146.0898,58.1524 149.3598,58.1524 C152.4918,58.1524 154.7458,56.5344 154.7458,54.3144 C154.7458,52.3864 153.3858,51.2324 150.1678,50.4424 L146.9498,49.6664 C142.3878,48.5644 140.2718,46.4324 140.2718,42.9704 C140.2718,38.6864 144.0058,35.7424 149.3078,35.7424 C154.5538,35.7424 158.1538,38.6864 158.2758,42.9704 L154.5238,42.9704 C154.2978,40.4924 152.2498,38.9964 149.2538,38.9964 C146.2618,38.9964 144.2138,40.5104 144.2138,42.7124 C144.2138,44.4684 145.5218,45.5024 148.7218,46.2924 L151.4578,46.9644 C156.5538,48.1704 158.6718,50.2164 158.6718,53.8504 C158.6718,58.4964 154.9678,61.4064 149.0818,61.4064 C143.5738,61.4064 139.8558,58.5644 139.6178,54.0724 L143.4218,54.0724 Z" id="Fill-16" fill="#FFFFFF"></path>
            <path d="M166.6934,38.5998 L166.6934,42.8858 L170.1374,42.8858 L170.1374,45.8278 L166.6934,45.8278 L166.6934,55.8098 C166.6934,57.3618 167.3834,58.0838 168.8974,58.0838 C169.3054,58.0758 169.7134,58.0498 170.1194,57.9978 L170.1194,60.9238 C169.4374,61.0518 168.7454,61.1098 168.0554,61.0958 C164.3894,61.0958 162.9594,59.7198 162.9594,56.2078 L162.9594,45.8278 L160.3254,45.8278 L160.3254,42.8858 L162.9574,42.8858 L162.9574,38.5998 L166.6934,38.5998 Z" id="Fill-18" fill="#FFFFFF"></path>
            <path d="M185.5214,51.9396 C185.5214,48.0316 183.7294,45.7256 180.7194,45.7256 C177.7074,45.7256 175.9174,48.0496 175.9174,51.9396 C175.9174,55.8636 177.7074,58.1516 180.7194,58.1516 C183.7294,58.1516 185.5214,55.8636 185.5214,51.9396 M172.1314,51.9396 C172.1314,46.2416 175.4854,42.6616 180.7194,42.6616 C185.9694,42.6616 189.3094,46.2416 189.3094,51.9396 C189.3094,57.6516 185.9854,61.2176 180.7194,61.2176 C175.4534,61.2176 172.1314,57.6516 172.1314,51.9396" id="Fill-20" fill="#FFFFFF"></path>
            <path d="M192.373,42.885 L195.917,42.885 L195.917,45.967 L196.003,45.967 C196.499,43.983 198.315,42.617 200.359,42.695 C200.787,42.693 201.215,42.741 201.633,42.835 L201.633,46.311 C201.091,46.145 200.527,46.071 199.963,46.087 C197.895,46.003 196.153,47.609 196.069,49.677 C196.061,49.869 196.067,50.061 196.089,50.253 L196.089,60.993 L192.373,60.993 L192.373,42.885 Z" id="Fill-22" fill="#FFFFFF"></path>
            <path d="M206.205,50.2698 L215.257,50.2698 C215.391,47.8698 213.553,45.8118 211.151,45.6798 C211.039,45.6738 210.927,45.6718 210.817,45.6738 C208.283,45.6578 206.219,47.6998 206.205,50.2298 L206.205,50.2698 Z M218.769,55.6738 C218.269,58.9618 215.069,61.2178 210.973,61.2178 C205.705,61.2178 202.435,57.6878 202.435,52.0258 C202.435,46.3458 205.723,42.6618 210.817,42.6618 C215.827,42.6618 218.977,46.1038 218.977,51.5938 L218.977,52.8678 L206.187,52.8678 L206.187,53.0918 C205.957,55.6858 207.873,57.9778 210.469,58.2058 C210.663,58.2238 210.861,58.2278 211.059,58.2218 C212.861,58.3918 214.563,57.3538 215.241,55.6738 L218.769,55.6738 Z" id="Fill-24" fill="#FFFFFF"></path>
            <path d="M73.1954,27.7082 L75.4454,27.7082 C77.5134,27.8322 79.2914,26.2542 79.4134,24.1862 C79.4294,23.9302 79.4194,23.6702 79.3814,23.4162 C79.6634,21.3582 78.2234,19.4602 76.1654,19.1782 C75.9274,19.1442 75.6854,19.1342 75.4454,19.1482 L73.1954,19.1482 L73.1954,27.7082 Z M75.6534,17.4622 C78.5614,17.2522 81.0874,19.4422 81.2954,22.3502 C81.3214,22.6982 81.3114,23.0462 81.2674,23.3922 C81.2674,27.2042 79.2074,29.3962 75.6534,29.3962 L71.3414,29.3962 L71.3414,17.4622 L75.6534,17.4622 Z" id="Fill-26" fill="#FFFFFF"></path>
            <path d="M90.0274,24.8888 C90.0274,22.9368 89.1514,21.7948 87.6114,21.7948 C86.0674,21.7948 85.1974,22.9368 85.1974,24.8888 C85.1974,26.8568 86.0674,27.9888 87.6114,27.9888 C89.1514,27.9888 90.0274,26.8488 90.0274,24.8888 M83.3614,24.8888 C83.1374,22.5428 84.8574,20.4608 87.2014,20.2348 C89.5474,20.0108 91.6314,21.7308 91.8554,24.0768 C91.8814,24.3468 91.8814,24.6188 91.8554,24.8888 C92.0834,27.2348 90.3674,29.3208 88.0234,29.5508 C85.6774,29.7768 83.5894,28.0608 83.3614,25.7168 C83.3354,25.4408 83.3354,25.1648 83.3614,24.8888" id="Fill-28" fill="#FFFFFF"></path>
            <polygon id="Fill-30" fill="#FFFFFF" points="103.1464 29.3958 101.3024 29.3958 99.4404 22.7638 99.3004 22.7638 97.4464 29.3958 95.6204 29.3958 93.1384 20.3898 94.9404 20.3898 96.5544 27.2618 96.6884 27.2618 98.5384 20.3898 100.2444 20.3898 102.0964 27.2618 102.2364 27.2618 103.8424 20.3898 105.6184 20.3898"></polygon>
            <path d="M107.707,20.3898 L109.417,20.3898 L109.417,21.8198 L109.551,21.8198 C110.013,20.7658 111.091,20.1238 112.239,20.2158 C113.851,20.0958 115.257,21.3038 115.379,22.9178 C115.395,23.1338 115.387,23.3498 115.355,23.5658 L115.355,29.3958 L113.579,29.3958 L113.579,24.0118 C113.579,22.5638 112.949,21.8458 111.635,21.8458 C110.495,21.7918 109.529,22.6738 109.475,23.8118 C109.469,23.9178 109.473,24.0218 109.485,24.1278 L109.485,29.3958 L107.707,29.3958 L107.707,20.3898 Z" id="Fill-32" fill="#FFFFFF"></path>
            <mask id="mask-4" fill="white">
                <use xlink:href="#path-3"></use>
            </mask>
            <g id="Clip-35"></g>
            <polygon id="Fill-34" fill="#FFFFFF" mask="url(#mask-4)" points="118.188 29.3962 119.966 29.3962 119.966 16.8742 118.188 16.8742"></polygon>
            <path d="M129.1016,24.8888 C129.1016,22.9368 128.2256,21.7948 126.6856,21.7948 C125.1416,21.7948 124.2716,22.9368 124.2716,24.8888 C124.2716,26.8568 125.1416,27.9888 126.6856,27.9888 C128.2256,27.9888 129.1016,26.8488 129.1016,24.8888 M122.4356,24.8888 C122.2116,22.5428 123.9316,20.4588 126.2776,20.2348 C128.6236,20.0108 130.7076,21.7308 130.9316,24.0768 C130.9576,24.3468 130.9576,24.6188 130.9316,24.8888 C131.1576,27.2348 129.4416,29.3208 127.0956,29.5508 C124.7496,29.7768 122.6636,28.0608 122.4356,25.7148 C122.4076,25.4408 122.4076,25.1628 122.4356,24.8888" id="Fill-36" fill="#FFFFFF" mask="url(#mask-4)"></path>
            <path d="M138.5918,26.0794 L138.5918,25.3274 L136.3918,25.4674 C135.1518,25.5494 134.5898,25.9714 134.5898,26.7654 C134.5898,27.5774 135.2938,28.0474 136.2598,28.0474 C137.4258,28.1654 138.4678,27.3174 138.5838,26.1494 C138.5878,26.1254 138.5898,26.1034 138.5918,26.0794 M132.8018,26.8494 C132.8018,25.2274 134.0098,24.2934 136.1518,24.1614 L138.5918,24.0194 L138.5918,23.2434 C138.5918,22.2914 137.9638,21.7534 136.7478,21.7534 C135.7558,21.7534 135.0678,22.1194 134.8718,22.7554 L133.1498,22.7554 C133.3318,21.2074 134.7878,20.2154 136.8298,20.2154 C139.0878,20.2154 140.3618,21.3394 140.3618,23.2434 L140.3618,29.3954 L138.6498,29.3954 L138.6498,28.1294 L138.5098,28.1294 C137.9278,29.0534 136.8938,29.5954 135.8038,29.5434 C134.3078,29.6994 132.9718,28.6154 132.8158,27.1194 C132.8058,27.0294 132.8018,26.9394 132.8018,26.8494" id="Fill-37" fill="#FFFFFF" mask="url(#mask-4)"></path>
            <path d="M144.5332,24.8888 C144.5332,26.7988 145.4332,27.9488 146.9392,27.9488 C148.4372,27.9488 149.3632,26.7828 149.3632,24.8968 C149.3632,23.0188 148.4272,21.8368 146.9392,21.8368 C145.4432,21.8368 144.5332,22.9948 144.5332,24.8888 M142.6972,24.8888 C142.6972,22.0428 144.1592,20.2408 146.4352,20.2408 C147.5832,20.1868 148.6592,20.8028 149.1972,21.8208 L149.3292,21.8208 L149.3292,16.8748 L151.1072,16.8748 L151.1072,29.3948 L149.4052,29.3948 L149.4052,27.9728 L149.2632,27.9728 C148.6852,28.9808 147.5952,29.5868 146.4352,29.5448 C144.1452,29.5448 142.6972,27.7408 142.6972,24.8888" id="Fill-38" fill="#FFFFFF" mask="url(#mask-4)"></path>
            <path d="M165.127,24.8888 C165.127,22.9368 164.251,21.7948 162.711,21.7948 C161.167,21.7948 160.297,22.9368 160.297,24.8888 C160.297,26.8568 161.167,27.9888 162.711,27.9888 C164.251,27.9888 165.127,26.8488 165.127,24.8888 M158.461,24.8888 C158.237,22.5428 159.955,20.4608 162.301,20.2348 C164.647,20.0108 166.731,21.7308 166.955,24.0768 C166.981,24.3468 166.981,24.6188 166.955,24.8888 C167.181,27.2348 165.467,29.3208 163.121,29.5508 C160.775,29.7768 158.687,28.0608 158.461,25.7168 C158.433,25.4408 158.433,25.1648 158.461,24.8888" id="Fill-39" fill="#FFFFFF" mask="url(#mask-4)"></path>
            <path d="M169.3398,20.3898 L171.0498,20.3898 L171.0498,21.8198 L171.1838,21.8198 C171.6438,20.7658 172.7238,20.1238 173.8718,20.2158 C175.4818,20.0958 176.8878,21.3038 177.0098,22.9178 C177.0278,23.1338 177.0198,23.3498 176.9878,23.5658 L176.9878,29.3958 L175.2118,29.3958 L175.2118,24.0118 C175.2118,22.5638 174.5818,21.8458 173.2678,21.8458 C172.1278,21.7918 171.1598,22.6738 171.1078,23.8118 C171.1018,23.9178 171.1058,24.0218 171.1178,24.1278 L171.1178,29.3958 L169.3398,29.3958 L169.3398,20.3898 Z" id="Fill-40" fill="#FFFFFF" mask="url(#mask-4)"></path>
            <path d="M187.0312,18.1476 L187.0312,20.4316 L188.9832,20.4316 L188.9832,21.9276 L187.0312,21.9276 L187.0312,26.5596 C187.0312,27.5016 187.4192,27.9156 188.3052,27.9156 C188.5312,27.9136 188.7552,27.8996 188.9832,27.8736 L188.9832,29.3556 C188.6612,29.4116 188.3392,29.4416 188.0152,29.4456 C186.0392,29.4456 185.2512,28.7496 185.2512,27.0136 L185.2512,21.9276 L183.8232,21.9276 L183.8232,20.4316 L185.2512,20.4316 L185.2512,18.1476 L187.0312,18.1476 Z" id="Fill-41" fill="#FFFFFF" mask="url(#mask-4)"></path>
            <path d="M191.4102,16.8742 L193.1722,16.8742 L193.1722,21.8362 L193.3122,21.8362 C193.7942,20.7742 194.8942,20.1282 196.0562,20.2242 C197.6942,20.1342 199.0922,21.3882 199.1822,23.0242 C199.1922,23.2102 199.1842,23.3962 199.1582,23.5822 L199.1582,29.3962 L197.3802,29.3962 L197.3802,24.0202 C197.3802,22.5822 196.7102,21.8522 195.4542,21.8522 C194.2962,21.7582 193.2822,22.6202 193.1862,23.7782 C193.1762,23.8962 193.1762,24.0162 193.1882,24.1362 L193.1882,29.3962 L191.4102,29.3962 L191.4102,16.8742 Z" id="Fill-42" fill="#FFFFFF" mask="url(#mask-4)"></path>
            <path d="M203.2696,24.0618 L207.8176,24.0618 C207.9076,22.8638 207.0096,21.8218 205.8116,21.7338 C205.7416,21.7278 205.6716,21.7278 205.6016,21.7278 C204.3296,21.7138 203.2876,22.7298 203.2716,24.0038 C203.2696,24.0218 203.2696,24.0418 203.2716,24.0618 L203.2696,24.0618 Z M209.5236,26.9638 C209.0236,28.6638 207.3816,29.7598 205.6216,29.5698 C203.3616,29.6298 201.4816,27.8478 201.4236,25.5878 C201.4176,25.3658 201.4296,25.1418 201.4616,24.9218 C201.1556,22.6478 202.7516,20.5578 205.0256,20.2538 C205.2216,20.2278 205.4156,20.2138 205.6136,20.2158 C208.1196,20.2158 209.6316,21.9278 209.6316,24.7558 L209.6316,25.3758 L203.2716,25.3758 L203.2716,25.4758 C203.1596,26.7858 204.1336,27.9378 205.4436,28.0478 C205.5176,28.0538 205.5936,28.0578 205.6696,28.0558 C206.5396,28.1598 207.3856,27.7278 207.8116,26.9638 L209.5236,26.9638 Z" id="Fill-43" fill="#FFFFFF" mask="url(#mask-4)"></path>
        </g>
    </g>
</svg>