<svg id="svg2" xmlns="http://www.w3.org/2000/svg" viewBox="0 0 74.4 32.7"><style>.st0{fill:#fff}</style><path id="path14" class="st0" d="M25.4 2.8c.4-.8 1.1-1.7 1.9-2.5l.7-.6h-9.4v16.7c0 1.2 0 2.2-.1 2.8-.2 2.2-1 3.6-2.3 4.3-.6.4-1.4.5-2.4.5s-1.8-.2-2.4-.8c-1.1-.8-1.7-2.3-1.8-4.3V-.3H0v17c0 2.5.1 4.4.4 5.6.4 1.7 1 3.2 1.9 4.7.8 1.3 2 2.5 3.6 3.4 1.6.8 3.2 1.3 4.9 1.6 1.7.2 3.5.2 5.4.1 1.7-.1 3.4-.5 4.9-1.1 1.6-.6 2.8-1.6 3.8-2.8 1.1-1.1 1.8-2.3 2.4-3.8l.1-.4c1.4 1.3 2.8 2.3 3.8 2.9 1.7.8 3.2 1.1 4.7.8.7 0 1.4-.4 2.2-1 .5-.6.8-1.2 1.1-2 .1-.7 0-1.4-.4-2s-.7-1.1-1.3-1.4c-.7-.5-1.6-.8-2.6-1.2l-5.4-1.9-2.3-1.4c-1.1-1-2-2.3-2.6-4-.6-1.6-.8-3.2-.7-4.9.1-2.1.7-3.8 1.5-5.1"/><g id="g48"><path id="path50" class="st0" d="M63.02 9.51c2 1.6 3 4 2.8 7-.1 3-1.2 5.2-3.5 6.5-.8.6-1.9.8-3.1.8-1.4 0-2.8-.5-3.8-1.4-1.1-1-1.9-2.3-2.4-3.8-1.1-3.6-.5-6.5 2-8.8 1.2-1.2 2.5-1.8 4-1.8 1.3-.2 2.6.4 4 1.5zM52.92.31c-1.1.4-2.2 1-3.1 1.6-1.9 1.3-3.5 3.2-4.7 5.6-1.8-1.6-3.1-2.5-4.2-3-1.9-.7-3.6-.7-4.9-.1-.8.4-1.3.8-1.7 1.4-.5.6-.6 1.4-.5 2.3 0 .7.2 1.4.8 2 .6.5 1.2.8 2 1.1l5 1.8c1.8.6 3.4 1.4 4.4 2.5 2.4 2.3 3.4 5.3 2.8 9.2-.1 1.1-.4 1.9-.7 2.6l-.4.8.4.2.8.8c1.2.8 2.5 1.6 3.8 2.2 2.9 1.1 5.6 1.1 8.4.2 1.6-.6 2.9-1.4 4.1-2.6v2.8h9.2V-.19h-9.2v2.8c-1.2-1.1-2.5-1.9-3.8-2.4-1.2-.4-2.4-.6-3.7-.7-1.7-.1-3.3.2-4.8.8z"/></g></svg>