<svg id="Logos" xmlns="http://www.w3.org/2000/svg" viewBox="-529 181 200 200"><style>.st0{display:none}.st1{display:inline}.st2{fill:#d7182a}.st3{fill:#fff}</style><g class="st0"><g class="st1"><path class="st2" d="M-281.6 704.4l-1.6 3.6c2.9-.3 5.7-.5 8.2-.5l-1.7-3.8c-1.6.2-3.3.5-4.9.7zm14.8-1.3c-.6 1.6-1.3 3.1-1.8 4.6 6.1.5 9.7 1.4 9.7 1.4l2.8-6c-3.8-.1-7.4-.1-10.7 0zm-35.9 8.4c-1.3.9-1.6 1.3-1.7 1.3-.1.1 2.8-1 7.1-2.2 4.1-1.1 6.1-1.4 8.4-1.8-.4-.8-.7-1.7-1.1-2.7-7 1.9-10.8 4-12.7 5.4z"/><path d="M-278.9 677.3l7.4 19.1 13.6-26.8-13.5 17.8-7.5-17-7.6 17-13.5-17.8 13.7 26.8z"/><path d="M-266.8 703.1c1.4-3.7 2.8-7.3 3.5-9.1 2.5-6.6 8.9-24.3 8.9-24.3l-17.4 35.6c-1.9-4.9-7.2-17.8-7.2-17.8-.4.9-5.2 12.9-7.2 17.8l-17.4-35.6s6.3 17.7 8.9 24.3c1 2.4 2.9 7.5 4.8 12.2.4.9.7 1.8 1.1 2.7 1.4 3.7 2.5 6.6 2.5 6.6l3.2-7.3 1.6-3.6 2.6-6 2.3 5.4 1.7 3.8 3.4 7.8s1.3-3.4 2.9-7.6c.6-1.7 1.2-3.3 1.8-4.9z"/></g><path d="M-267.4 709.9c-.4 0-.7-.3-.7-.7s.3-.7.7-.7c.4 0 .7.3.7.7 0 .4-.3.7-.7.7zm0-1.2c-.3 0-.5.2-.5.6 0 .3.2.6.5.6s.5-.2.5-.6c0-.4-.2-.6-.5-.6zm-.1.9h-.1v-.7h.2c.2 0 .2.1.2.2s-.1.2-.2.2l.2.3h-.1l-.2-.3h-.1c.1.1.1.3.1.3zm.1-.4c.1 0 .2 0 .2-.1s-.1-.1-.1-.1h-.1v.2z" class="st1"/></g><path class="st2" d="M-438.1 328.4l-6.2 14.4c11.8-1.2 22.8-1.9 32.7-1.9l-6.7-15.1c-6.6.9-13.3 1.8-19.8 2.6zm59.3-5.1c-2.4 6.2-5 12.5-7.2 18.3 24.3 1.9 38.7 5.8 38.7 5.8l11.3-23.8c-15.4-.5-29.5-.5-42.8-.3zm-143.5 33.4c-5 3.6-6.5 5.3-6.7 5.3-.2.2 11.1-4.1 28.4-8.7 16.3-4.3 24.5-5.8 33.4-7.2-1.4-3.4-2.6-7-4.3-10.8-27.9 7.5-43.3 16.1-50.8 21.4z"/><path class="st3" d="M-427.3 220.4l29.3 76.2 54.6-106.9-54.1 70.9-29.8-68.1-30.1 68.1-54-70.9 54.3 106.9z"/><path class="st3" d="M-378.8 323.3c5.8-14.7 11.3-29.1 14.2-36.5 10.1-26.2 35.6-97.1 35.6-97.1l-69.5 142.1c-7.7-19.5-28.6-71.2-28.6-71.2-1.4 3.6-20.9 51.7-28.6 71.2l-69.7-142.1s25.2 70.9 35.6 97.1c3.8 9.6 11.8 30 19 48.6 1.4 3.6 2.9 7.2 4.3 10.8 5.8 14.7 10.1 26.2 10.1 26.2l13-29.1 6.2-14.4 10.6-24 9.4 21.4 6.7 14.9 13.5 31.2s5.3-13.7 11.8-30.3c1.4-6.1 4-12.3 6.4-18.8zm-2.6 28.4c-1.4 0-2.6-1.2-2.6-2.6s1.2-2.6 2.6-2.6 2.6 1.2 2.6 2.6-1.2 2.6-2.6 2.6zm0-5.1c-1.2 0-2.2 1-2.2 2.4 0 1.2 1 2.4 2.2 2.4s2.2-1 2.2-2.4-1.2-2.4-2.2-2.4zm-.5 3.9h-.5v-2.9h1c.7 0 1 .2 1 1 0 .7-.2.7-.7 1l1 1.2h-.5l-.7-1.2h-.5c-.1-.1-.1.9-.1.9zm.5-2c.2 0 .7 0 .7-.5 0-.2-.2-.2-.5-.2h-.5v1h.2v-.3z"/></svg>