<?xml version="1.0" encoding="UTF-8"?>
<svg width="128px" height="40px" viewBox="0 0 128 40" version="1.1" xmlns="http://www.w3.org/2000/svg" xmlns:xlink="http://www.w3.org/1999/xlink">
    <!-- Generator: Sketch 55.2 (78181) - https://sketchapp.com -->
    <title>icon-cable-provider-dark</title>
    <desc>Created with Sketch.</desc>
    <g id="Page-1" stroke="none" stroke-width="1" fill="none" fill-rule="evenodd">
        <g id="mvpd-light-bg" transform="translate(-19.000000, -19.000000)">
            <g id="icon-cable-provider-dark" transform="translate(19.000000, 19.000000)">
                <rect id="rectangle" fill="#FFFFFE" opacity="0" x="0" y="0" width="128" height="40"></rect>
                <path d="M59.4309439,22.9147525 L55.8502829,22.9147525 L55.8502829,26.5658333 L59.4309439,26.5658333 L59.4309439,22.9147525 L59.4309439,22.9147525 Z M53.1221602,26.5658333 L53.1221602,22.9147525 L49.4562454,22.9147525 L49.4562454,26.5658333 L53.1221602,26.5658333 C53.1221602,26.5658333 53.1221602,28.3913736 53.1221602,26.5658333 L53.1221602,26.5658333 Z M76.7374722,21.1316665 L76.7374722,28.3489192 C76.7374722,30.3018229 75.0323956,32 73.0715574,32 L47.6659149,32 C45.7050767,32 44,30.3018229 44,28.3489192 L44,21.1316665 C44,19.1787628 45.7050767,17.4805857 47.6659149,17.4805857 L73.0715574,17.4805857 C75.0323956,17.4805857 76.7374722,19.1787628 76.7374722,21.1316665 L76.7374722,21.1316665 Z M81.2353966,20.9483869 L79.1867297,20.9474158 C79.18587,19.1453699 78.3415563,17.5831969 77.1961686,16.4413585 C76.0507808,15.2995201 74.5440356,14.5179194 72.7363883,14.5170624 L72.7354141,12.4747439 C75.0251007,12.4758294 77.1946785,13.3178125 78.7620512,14.8803282 C80.3294239,16.442844 81.2343077,18.6657956 81.2353966,20.9483869 L81.2353966,20.9483869 L81.2353966,20.9483869 Z M82.9513331,20.7996386 C82.7691643,17.8562114 81.6230315,15.1525999 79.6939575,13.2295036 C77.7648834,11.3064073 75.1131517,10.2239229 72.1605752,10.0423186 L72.1596009,8 C75.7748954,8.00171396 78.9690647,9.38479641 81.2598401,11.6684733 C83.5506156,13.9521501 84.9982808,17.1965182 85,20.8006098 L82.9513331,20.7996386 L82.9513331,20.7996386 Z" id="Shape" fill="#000000" fill-rule="nonzero"></path>
            </g>
        </g>
    </g>
</svg>