<?xml version="1.0" standalone="no"?>
<!DOCTYPE svg PUBLIC "-//W3C//DTD SVG 1.1//EN" "http://www.w3.org/Graphics/SVG/1.1/DTD/svg11.dtd">
<svg xmlns="http://www.w3.org/2000/svg">
<metadata>Generated by Fontastic.me</metadata>
<defs>
<font id="icon-fonts" horiz-adv-x="512">
<font-face font-family="icon-fonts" units-per-em="512" ascent="480" descent="-32"/>
<missing-glyph horiz-adv-x="512" />

<glyph glyph-name="social-facebook" unicode="&#100;" d="M384 509l0-76-45 0c-17 0-28-3-33-10-6-7-9-17-9-31l0-54 84 0-11-85-73 0 0-216-87 0 0 216-73 0 0 85 73 0 0 62c0 36 10 63 29 83 20 19 47 29 80 29 28 0 49-1 65-3z"/>
<glyph glyph-name="social-pinterest" unicode="&#80;" d="M73 341c0 21 4 40 11 59 7 18 17 34 29 47 13 14 27 25 44 35 16 10 34 18 53 23 19 5 38 7 57 7 31 0 59-6 84-19 26-13 47-31 64-55 16-24 24-52 24-82 0-19-2-36-6-54-3-18-9-34-17-51-8-16-17-30-28-42-12-13-25-22-42-30-16-7-34-11-54-11-13 0-26 3-38 9-13 7-22 15-28 26-2-8-4-19-8-33-3-14-5-23-6-27-1-4-3-11-6-20-3-9-6-16-8-20-2-4-5-10-9-18-4-8-8-15-13-22-5-7-11-15-18-25l-4-1-2 2c-3 30-5 48-5 54 0 18 2 37 7 59 4 22 10 49 19 82 8 33 13 53 14 58-6 13-9 29-9 49 0 15 5 30 15 44 10 14 23 21 38 21 11 0 21-4 27-12 6-7 10-17 10-29 0-12-4-31-13-54-8-24-12-42-12-54 0-12 4-22 12-30 9-8 19-12 32-12 10 0 20 3 29 8 9 4 16 11 22 19 6 8 11 17 16 27 5 10 8 21 11 32 3 11 4 21 6 31 1 10 2 20 2 29 0 33-11 58-32 77-21 18-48 27-81 27-38 0-70-12-96-37-25-24-38-56-38-93 0-9 1-17 4-25 2-8 5-14 7-18 3-5 6-9 8-13 2-4 4-7 4-9 0-5-2-12-5-21-3-8-6-13-10-13-1 0-2 1-5 1-10 3-18 8-26 16-8 8-13 17-17 27-5 10-8 21-10 31-2 10-3 21-3 30z"/>
<glyph glyph-name="social-tumblr" unicode="&#84;" d="M379 132l23-67c-4-7-15-13-31-19-17-6-34-9-51-9-20-1-38 2-54 7-17 5-30 12-41 21-11 9-20 19-27 30-8 12-13 23-16 35-3 11-5 22-5 33l0 156-48 0 0 61c14 5 26 12 37 20 11 8 20 17 26 26 6 9 12 18 17 29 4 11 7 20 9 28 2 9 4 17 5 26 0 1 0 1 1 2 1 1 1 1 2 1l70 0 0-121 95 0 0-72-96 0 0-148c0-6 1-11 2-16 2-5 4-10 7-15 3-5 7-9 14-12 6-3 14-4 23-4 15 0 28 3 38 8z"/>
<glyph glyph-name="social-twitter" unicode="&#101;" d="M481 395c-13-18-28-34-46-47 0-3 0-7 0-12 0-25-3-50-11-74-7-25-18-49-33-71-14-23-32-43-52-61-21-17-45-31-74-41-29-11-60-16-92-16-52 0-99 14-142 42 7-1 14-2 22-2 43 0 81 14 115 40-20 0-38 6-54 18-16 12-27 27-33 46 7-1 13-2 18-2 8 0 16 1 24 4-21 4-39 15-53 31-14 17-21 37-21 59l0 1c13-7 27-11 42-11-13 8-23 19-30 32-8 14-11 29-11 44 0 17 4 33 12 47 23-28 51-51 84-68 33-17 69-27 107-29-2 8-3 15-3 22 0 25 9 47 27 65 18 18 40 27 66 27 26 0 49-10 67-29 21 4 40 11 59 22-7-22-21-39-41-51 18 2 35 7 53 14z"/>
<glyph glyph-name="social-spotify" unicode="&#83;" d="M359 166c0 6-3 11-9 15-37 22-79 33-128 33-25 0-52-4-82-10-8-2-12-7-12-15 0-4 2-7 4-10 3-2 6-4 10-4 1 0 5 1 11 2 25 6 48 8 69 8 43 0 81-10 114-29 3-2 6-3 9-3 4 0 7 1 10 3 2 3 4 6 4 10z m27 62c0 7-3 13-10 17-45 27-97 40-157 40-29 0-58-4-86-12-9-2-14-8-14-18 0-5 2-9 5-12 3-3 8-5 12-5 2 0 5 1 11 2 23 7 47 10 72 10 53 0 99-12 139-36 5-2 8-3 11-3 5 0 9 1 12 5 3 3 5 7 5 12z m31 71c0 9-4 15-12 20-24 13-51 24-83 31-32 7-65 11-98 11-39 0-74-5-104-14-5-1-8-3-11-7-3-3-5-8-5-14 0-6 2-11 6-15 4-4 9-6 15-6 2 0 6 1 11 3 26 7 55 10 88 10 30 0 60-3 88-9 29-7 53-16 73-28 4-2 8-3 11-3 6 0 11 2 15 6 4 4 6 9 6 15z m58-43c0-40-9-77-29-110-20-34-46-60-80-80-33-20-70-29-110-29-40 0-77 9-110 29-34 20-60 46-80 80-20 33-29 70-29 110 0 40 9 77 29 110 20 34 46 60 80 80 33 20 70 29 110 29 40 0 77-9 110-29 34-20 60-46 80-80 20-33 29-70 29-110z"/>
<glyph glyph-name="rss" unicode="&#87;" d="M165 128c0-15-6-28-16-39-11-11-24-16-39-16-16 0-28 5-39 16-11 11-16 24-16 39 0 15 5 28 16 39 11 11 23 16 39 16 15 0 28-5 39-16 10-11 16-24 16-39z m146-35c0-5-1-10-5-14-3-4-8-6-13-6l-39 0c-5 0-9 2-12 5-4 3-6 7-6 12-4 43-22 81-53 112-31 31-68 48-112 52-4 1-8 3-11 6-4 3-5 8-5 12l0 39c0 5 2 10 6 13 3 4 7 5 12 5l2 0c30-2 59-10 87-23 28-13 52-30 74-52 22-21 39-46 52-74 13-28 20-57 23-87z m146-1c1-5-1-9-5-13-3-4-8-6-13-6l-41 0c-5 0-9 2-13 5-3 3-5 8-5 12-3 41-12 80-29 117-17 37-39 69-66 96-27 27-59 49-96 66-37 17-76 27-117 29-5 0-9 2-12 6-3 3-5 8-5 12l0 41c0 5 2 10 6 13 3 4 7 5 12 5l1 0c50-2 98-13 143-34 46-20 86-48 122-84 35-35 63-76 84-121 20-46 32-94 34-144z"/>
<glyph glyph-name="pause" unicode="&#73;" d="M475 457l0-402c0-5-1-9-5-13-4-4-8-5-13-5l-146 0c-5 0-9 1-13 5-4 4-5 8-5 13l0 402c0 5 1 9 5 13 4 4 8 5 13 5l146 0c5 0 9-1 13-5 4-4 5-8 5-13z m-256 0l0-402c0-5-1-9-5-13-4-4-8-5-13-5l-146 0c-5 0-9 1-13 5-4 4-5 8-5 13l0 402c0 5 1 9 5 13 4 4 8 5 13 5l146 0c5 0 9-1 13-5 4-4 5-8 5-13z"/>
<glyph glyph-name="volume-off" unicode="&#115;" d="M366 411l0-310c0-5-2-10-6-13-3-4-8-6-13-6-5 0-9 2-12 6l-96 95-74 0c-5 0-10 2-13 5-4 4-6 8-6 13l0 110c0 5 2 9 6 13 3 3 8 5 13 5l74 0 96 95c3 4 7 6 12 6 5 0 10-2 13-6 4-3 6-8 6-13z"/>
<glyph glyph-name="key" unicode="&#81;" d="M134 136c48 5 87 39 101 84l47 0 13-15c5-5 14-5 18 1l21 24 33-28c6-4 15-4 20 1l30 27 61 0 34 40-36 40-248 0c-20 38-60 66-108 66-62 0-113-46-120-106l0-29c6-55 50-99 105-105z m-95 115c0 16 3 27 3 27 1 7 8 14 15 16 0 0 6 1 15 1 10 0 13-1 13-1 7-2 14-9 15-16 0 0 3-13 3-27 0-13-3-27-3-27-1-7-8-15-15-16 0 0-5-1-16-1-8 0-12 1-12 1-7 1-14 9-15 17 0 0-3 14-3 26z"/>
<glyph glyph-name="rewind" unicode="&#122;" d="M55 432l-27 27c-6 5-11 5-16 3-6-3-9-6-9-12l0-100c0-5 1-8 4-11 3-3 6-3 10-3l99 0c6 0 10 2 14 8 2 6 2 11-4 16l-26 26c5 3 8 7 11 9 37 36 82 54 136 54 54 0 100-20 139-57 38-37 57-82 57-136 0-52-19-97-57-135-39-37-85-56-139-56-36 0-71 10-102 29-5 3-13 11-24-1-8-9-15-17-24-28-9-11-2-17 3-20 45-29 94-45 147-45 73 0 134 26 185 76 51 49 77 109 77 180 0 71-26 132-77 180-51 50-112 76-185 76-72 0-133-24-183-72-3-3-6-5-9-8z m146-261l-24 0 0 126-5-6c-2-2-10-8-24-18l-11 15 45 35 19 0z m153 76c0-26-4-46-12-59-8-13-22-19-40-19-16 0-29 7-38 19-9 14-13 34-13 59 0 27 4 46 13 59 8 13 22 20 38 20 18 0 30-8 40-20 8-14 12-33 12-59z m-78 0c0-21 2-36 7-44 4-9 10-14 19-14 10 0 17 5 21 14 4 9 6 24 6 44 0 20-2 35-6 44-4 10-11 14-21 14-9 0-15-4-19-14-5-8-7-24-7-44z"/>
<glyph glyph-name="down-open-mini" unicode="&#107;" d="M344 317c8 9 16 9 25 0 9-7 9-15 0-24 0 0-101-98-101-98-7-8-15-8-24 0 0 0-101 98-101 98-9 9-9 17 0 24 9 9 17 9 26 0 0 0 87-79 87-79 0 0 88 79 88 79"/>
<glyph glyph-name="share" unicode="&#70;" d="M384 108c0 0 0 28 0 28 0 0 51 42 51 42 0 0 0-96 0-96 0-7-2-13-7-18-6-5-12-8-18-8 0 0-384 0-384 0-7 0-13 3-18 8-5 5-8 11-8 18 0 0 0 282 0 282 0 7 2 13 7 18 5 5 11 7 19 7 0 0 147 0 147 0-11-8-21-16-30-25-9-9-16-15-20-20 0 0-5-6-5-6 0 0-67 0-67 0 0 0 0-230 0-230 0 0 333 0 333 0m-42 178c-57 0-98-7-124-21-26-14-53-45-82-93 0 3 0 7 1 11 0 5 2 15 4 29 3 14 7 28 12 40 4 13 12 27 22 43 10 16 22 29 36 40 14 12 32 21 55 29 23 8 48 12 76 12 0 0 0 80 0 80 0 0 170-128 170-128 0 0-170-133-170-133 0 0 0 91 0 91"/>
<glyph glyph-name="link" unicode="&#71;" d="M249 445c-14-14-14-36-1-49l-5 5c13-13 36-13 49 0l31 31c0 0 44 39 91 0 47-38 0-98 0-98l-103-102c0 0-37-31-74-12-6 3-25 3-32-3-3-4-6-6-6-6-13-14-12-34 5-44 0 0 65-61 139 8 74 68 111 110 111 110 0 0 92 97 7 182-85 86-173 16-179 11-6-6-33-33-33-33z m15-377c14 13 14 35 0 49l6-6c-14 14-36 14-50 0l-31-31c0 0-43-38-90 0-47 39 0 98 0 98l102 103c0 0 37 31 74 12 6-3 26-3 32 3 3 3 6 6 6 6 14 14 12 34-4 44 0 0-65 60-140-8-74-68-111-111-111-111 0 0-92-97-7-182 85-85 173-16 179-10 6 6 34 33 34 33z"/>
<glyph glyph-name="notification" unicode="&#104;" d="M261 27c0 3-2 5-5 5-11 0-21 4-29 12-8 8-12 18-12 29 0 3-2 5-5 5-3 0-4-2-4-5 0-14 5-26 14-35 10-10 22-15 36-15 3 0 5 1 5 4z m233 83c0-10-4-19-11-26-7-7-16-11-26-11l-128 0c0-20-7-37-21-52-15-14-32-21-52-21-20 0-37 7-52 21-14 15-21 32-21 52l-128 0c-10 0-19 4-26 11-7 7-11 16-11 26 10 8 18 16 26 25 8 9 16 20 25 34 8 14 15 29 21 45 6 16 10 36 14 59 4 23 6 48 6 74 0 29 11 56 33 81 22 25 52 40 88 45-2 4-2 8-2 12 0 7 2 14 8 19 5 5 11 8 19 8 8 0 14-3 19-8 6-5 8-12 8-19 0-4 0-8-2-12 36-5 66-20 88-45 22-25 33-52 33-81 0-26 2-51 6-74 4-23 8-43 14-59 6-16 13-31 21-45 9-14 17-25 25-34 8-9 16-17 26-25z"/>
<glyph glyph-name="social-instagram" unicode="&#109;" d="M256 466c68 0 76 0 103-2 25-1 39-5 48-8 12-5 20-11 29-20 9-9 15-17 20-29 3-9 7-23 8-48 2-27 2-35 2-103 0-68 0-76-2-103-1-25-5-39-8-48-5-12-11-20-20-29-9-9-17-15-29-20-9-3-23-7-48-8-27-2-35-2-103-2-68 0-76 0-103 2-25 1-39 5-48 8-12 5-20 11-29 20-9 9-15 17-20 29-3 9-7 23-8 48-2 27-2 35-2 103 0 68 0 76 2 103 1 25 5 39 8 48 5 12 11 20 20 29 9 9 17 15 29 20 9 3 23 7 48 8 27 2 35 2 103 2z m0 46c-70 0-78 0-106-2-27-1-45-5-62-12-16-6-31-15-45-29-14-14-23-29-29-45-7-17-11-35-12-62-2-28-2-36-2-106 0-70 0-78 2-106 1-27 5-45 12-62 6-16 15-31 29-45 14-14 29-23 45-29 17-7 35-11 62-12 28-2 36-2 106-2 70 0 78 0 106 2 27 1 45 5 62 12 16 6 31 15 45 29 14 14 23 29 29 45 7 17 11 35 12 62 2 28 2 36 2 106 0 70 0 78-2 106-1 27-5 45-12 62-6 16-15 31-29 45-14 14-29 23-45 29-17 7-35 11-62 12-28 2-36 2-106 2z m0-125c-73 0-131-58-131-131 0-73 58-131 131-131 73 0 131 58 131 131 0 73-58 131-131 131z m0-216c-47 0-85 38-85 85 0 47 38 85 85 85 47 0 85-38 85-85 0-47-38-85-85-85z m167 222c0-17-13-31-30-31-17 0-31 14-31 31 0 17 14 30 31 30 17 0 30-13 30-30z"/>
<glyph glyph-name="youtube-dark" unicode="&#112;" d="M366 256c0 7-3 12-9 15l-146 92c-6 4-12 4-19 0-6-3-9-8-9-16l0-182c0-8 3-13 9-16 3-2 6-3 9-3 4 0 7 1 10 3l146 92c6 3 9 8 9 15z m146 0c0-18 0-33 0-43 0-10-1-23-3-39-1-16-3-30-6-42-3-14-10-26-20-35-10-10-22-15-35-17-43-4-106-7-192-7-86 0-149 3-192 7-13 2-25 7-35 17-10 9-17 21-20 35-3 12-5 26-6 42-2 16-3 29-3 39 0 10 0 25 0 43 0 18 0 33 0 43 0 10 1 23 3 39 1 16 3 30 6 42 3 14 10 26 20 35 10 10 22 15 35 17 43 4 106 7 192 7 86 0 149-3 192-7 13-2 25-7 35-17 10-9 17-21 20-35 3-12 5-26 6-42 2-16 3-29 3-39 0-10 0-25 0-43z"/>
<glyph glyph-name="info" unicode="&#65;" d="M261 461c0-31 25-52 56-52 31 0 56 21 56 52 0 30-25 51-56 51-31 0-56-21-56-51z m-122-175c0-7-1-22 0-31l49 55c11 10 22 17 28 15 6-2 10-8 8-14l-82-247c-9-29 9-58 52-64 63 0 100 39 137 90 0 6 3 22 1 31l-49-54c-10-10-23-17-29-15-5 1-8 7-7 13l81 248c7 31-11 60-50 63-41 0-102-40-139-90z"/>
<glyph glyph-name="embed" unicode="&#76;" d="M296 437c11-2 18-16 15-31l-65-309c-4-15-16-25-28-22-11 2-18 16-15 31l65 309c4 15 16 25 28 22z m-245-182l122 122c8 8 8 21 0 30-8 8-21 8-29 0l-136-137c0 0 0 0-1 0 0 0 0 0 0 0-8-8-8-22 0-30l136-136c8-8 22-8 30 0 8 8 8 21 0 30z m460 1c0 5-2 10-6 14l-136 137c-8 8-21 8-30 0-8-9-8-22 0-30l122-121-122-122c-8-8-8-21 0-29 9-8 22-8 30 0l136 136c4 4 6 9 6 15z"/>
<glyph glyph-name="casting" unicode="&#78;" d="M0 116l0-71 69 0c0 39-30 71-69 71z m0 93l0-46c65 0 116-53 116-118l47 0c0 91-73 164-163 164z m0 94l0-47c116 0 209-95 209-211l47 0c0 143-114 258-256 258z m465 164c26 0 47-21 47-47l0-328c0-26-21-47-47-47l-162 0 0 47 162 0 0 328-418 0 0-71-47 0 0 71c0 26 21 47 47 47z m-26-346l0-1-138 0c-45 190-224 221-224 221l0 50 362 0z"/>
<glyph glyph-name="avatar" unicode="&#106;" d="M256 215c0 0 120 0 165-103 0 0-75-30-165-30-90 0-165 30-165 30 45 103 165 103 165 103z m0 14c-45 0-75 44-75 118 0 74 75 74 75 74 0 0 75 0 75-74 0-74-30-118-75-118z"/>
<glyph glyph-name="fast-forward-10" unicode="&#97;" d="M459 432l28 27c6 5 11 5 16 3 6-3 9-6 9-12l0-100c0-5-1-8-4-11-3-3-6-3-10-3l-100 0c-6 0-10 2-15 8-2 6-2 11 5 16l26 26c-5 3-8 7-11 9-38 36-83 54-138 54-55 0-101-20-141-57-38-37-57-82-57-136 0-52 19-97 57-135 40-37 86-56 141-56 37 0 72 10 103 29 5 3 13 11 25-1 8-9 15-17 24-28 9-11 2-17-3-20-46-29-95-45-149-45-74 0-135 26-187 76-52 49-78 109-78 180 0 71 26 132 78 180 52 50 113 76 187 76 73 0 135-24 185-72 3-3 6-5 9-8z m-259-261l-24 0 0 126-5-6c-2-2-10-8-24-18l-11 15 45 35 19 0z m155 76c0-26-4-46-12-59-8-13-22-19-40-19-17 0-30 7-39 19-9 14-13 34-13 59 0 27 4 46 13 59 8 13 22 20 39 20 18 0 30-8 40-20 8-14 12-33 12-59z m-79 0c0-21 2-36 7-44 4-9 10-14 20-14 10 0 17 5 21 14 4 9 6 24 6 44 0 20-2 35-6 44-4 10-11 14-21 14-10 0-16-4-20-14-5-8-7-24-7-44z"/>
<glyph glyph-name="cancel-circled" unicode="&#99;" d="M402 350l-52 52-94-92-93 92-53-52 94-94-94-93 53-52 93 93 94-93 52 52-94 93z m-327 87c50 50 110 75 181 75 71 0 131-25 181-75 50-50 75-110 75-181 0-71-25-131-75-181-50-50-110-75-181-75-71 0-131 25-181 75-50 50-75 110-75 181 0 71 25 131 75 181z"/>
<glyph glyph-name="keyboard" unicode="&#102;" d="M476 414c19-1 35-16 36-36l0-236c0-9-4-18-11-25-7-6-16-10-25-10l-440 0c-9 0-18 4-25 10-7 7-11 16-11 25l0 236c1 20 17 35 36 36z m-425-52l0-51 51 0 0 51z m51-204l0 51-51 0 0-51z m26 128l-51 0 0-52 51 0z m0 76l0-51 51 0 0 51z m256-204l0 51-256 0 0-51z m-179 128l-51 0 0-52 51 0z m0 76l0-51 51 0 0 51z m77-76l-52 0 0-52 52 0z m0 76l0-51 51 0 0 51z m76-76l-51 0 0-52 51 0z m103 76l-103 0 0-51 103 0z m-77-128l51 0 0 52-51 0z m77-76l0 51-51 0 0-51z"/>
<glyph glyph-name="airplay" unicode="&#105;" d="M256 261l185-214-370 0z m256 204l0-302-128 0 0 12-12 0 0 11 116 0 0 257-464 0 0-257 116 0 0-11-12 0 0-12-128 0 0 302z"/>
<glyph glyph-name="play" unicode="&#72;" d="M457 277c9-5 12-13 12-22 0-8-3-15-12-20l-364-225c-13-10-25-12-35-7-10 7-15 18-15 35l0 437c0 16 5 28 15 34 10 5 22 4 35-5z"/>
<glyph glyph-name="arrowdown" unicode="&#108;" d="M256 196l203 207c4 5 11 5 15 0l35-35c4-4 4-11 0-15l-237-241c-5-4-10-7-16-7-6 0-11 3-16 7l-237 241c-4 4-4 11 0 15l35 35c4 5 11 5 15 0z"/>
<glyph glyph-name="arrowup" unicode="&#116;" d="M256 316l-203-207c-4-5-11-5-15 0l-35 35c-4 4-4 11 0 15l237 241c5 4 10 7 16 7 6 0 11-3 16-7l237-241c4-4 4-11 0-15l-35-35c-4-5-11-5-15 0z"/>
<glyph glyph-name="left-open-big" unicode="&#69;" d="M196 256l207-203c5-4 5-11 0-15l-35-35c-4-4-11-4-15 0l-241 237c-4 5-7 10-7 16 0 6 3 11 7 16l241 237c4 4 11 4 15 0l35-35c5-4 5-11 0-15z"/>
<glyph glyph-name="right-open-big" unicode="&#68;" d="M316 256l-207 203c-5 4-5 11 0 15l35 35c4 4 11 4 15 0l241-237c4-5 7-10 7-16 0-6-3-11-7-16l-241-237c-4-4-11-4-15 0l-35 35c-5 4-5 11 0 15z"/>
<glyph glyph-name="arrow-down-solid" unicode="&#66;" d="M0 384l512 0-256-256z"/>
<glyph glyph-name="asterisk" unicode="&#74;" d="M497 182c7-3 9-10 7-17l-1-3-41-70c-4-7-14-8-20-4-1 0-3 0-3 2l-126 71 0-147-2 0c0-7-4-13-11-14l-86 0c-7 0-15 7-15 14 0 2 0 3 2 4l0 143-130-73-1 0c-6-4-15-3-19 3l-42 73c-4 7-1 15 6 19 0 0 1 0 3 2l126 71-129 73c0 0 0 1 0 1-7 4-10 13-6 18l41 70c0 0 0 2 0 2 4 5 13 8 20 5l131-74 0 147c0 7 6 14 14 14l82 0c8 0 16-6 16-14l0-147 129 73c7 4 16 1 20-4l41-70c0 0 0-2 0-2 4-5 1-15-4-19l-130-73 128-73c0 0 0-1 0-1z"/>
<glyph glyph-name="calendar" unicode="&#90;" d="M56 37l82 0 0 82-82 0z m100 0l91 0 0 82-91 0z m-100 100l82 0 0 92-82 0z m100 0l91 0 0 92-91 0z m-100 110l82 0 0 82-82 0z m209-210l91 0 0 82-91 0z m-109 210l91 0 0 82-91 0z m218-210l82 0 0 82-82 0z m-109 100l91 0 0 92-91 0z m-100 247l0 82c0 3-1 5-3 7-2 2-4 2-6 2l-18 0c-2 0-4 0-6-2-2-2-3-4-3-7l0-82c0-2 1-5 3-6 2-2 4-3 6-3l18 0c2 0 4 1 6 3 2 1 3 4 3 6z m209-247l82 0 0 92-82 0z m-109 110l91 0 0 82-91 0z m109 0l82 0 0 82-82 0z m9 137l0 82c0 3-1 5-3 7-2 2-4 2-6 2l-18 0c-2 0-4 0-6-2-2-2-3-4-3-7l0-82c0-2 1-5 3-6 2-2 4-3 6-3l18 0c2 0 4 1 6 3 2 1 3 4 3 6z m110 18l0-365c0-10-4-19-11-26-7-7-16-11-26-11l-400 0c-10 0-19 4-26 11-7 7-11 16-11 26l0 365c0 10 4 19 11 26 7 7 16 11 26 11l36 0 0 27c0 13 5 24 14 33 9 9 20 13 32 13l18 0c12 0 23-4 32-13 9-9 13-20 13-33l0-27 110 0 0 27c0 13 4 24 13 33 9 9 20 13 32 13l18 0c12 0 23-4 32-13 9-9 14-20 14-33l0-27 36 0c10 0 19-4 26-11 7-7 11-16 11-26z"/>
<glyph glyph-name="cast" unicode="&#75;" d="M0 115l0-70 70 0c0 39-31 70-70 70z m0 94l0-47c64 0 116-52 116-117l47 0c0 91-73 164-163 164z m0 94l0-47c116 0 209-94 209-211l47 0c0 143-115 258-256 258z m465 164l-418 0c-26 0-47-21-47-47l0-70 47 0 0 70 418 0 0-328-162 0 0-47 162 0c26 0 47 21 47 47l0 328c0 26-21 47-47 47z"/>
<glyph glyph-name="closed-captioning" unicode="&#117;" d="M144 331c-20 0-36-7-47-20-9-13-14-30-14-54 0-51 19-76 61-76 7 0 17 2 26 7 10 6 17 15 24 26l62-29c-25-40-67-62-124-62-37 0-69 13-95 37-25 23-37 55-37 97 0 41 12 74 37 95 26 24 58 37 100 37 24 0 47-8 68-20 21-10 37-25 51-47l-57-30c-12 26-30 39-55 39z m256 0c-20 0-35-7-47-20-10-14-16-32-16-54 0-51 22-76 63-76 10 0 17 2 26 7 11 6 17 15 23 26l61-29c-23-40-64-62-117-62-42 0-75 13-98 37-25 25-39 58-39 97 0 41 14 74 39 95 23 24 56 37 99 37 25 0 48-8 69-20 20-11 37-27 49-47l-59-30c-7 26-27 39-53 39z"/>
<glyph glyph-name="check-mark" unicode="&#103;" d="M194 161l272 263c3 3 9 3 12 0l32-30c3-3 3-8 0-11l-304-293c-3-3-7-5-12-5-4 0-8 2-11 5l-181 174c-3 3-3 8 0 11l32 31c3 3 9 3 12 0z"/>
<glyph glyph-name="cancel" unicode="&#113;" d="M512 471l-215-215 215-215-41-41-215 215-215-215-41 41 215 215-215 215 41 41 215-215 215 215z"/>
<glyph glyph-name="cog" unicode="&#85;" d="M463 256c0-30 17-54 49-74-5-16-12-33-20-50-29 7-56-2-84-27-21-24-28-51-20-84-17-7-33-15-51-21-19 33-46 50-81 50-35 0-62-17-81-50-18 6-34 14-51 21 8 34 1 61-20 84-22 21-50 28-84 20-5 11-12 27-20 50 33 21 50 49 50 81 0 30-17 55-50 75 8 24 15 40 20 50 31-7 59 2 84 27 21 23 28 50 20 84 18 8 34 15 51 20 19-32 46-49 81-49 35 0 62 17 81 49 17-5 33-12 51-20-8-32-1-60 20-84 28-25 55-34 84-27 8-17 15-33 20-50-32-20-49-45-49-75z m-207-121c30 0 56 11 76 33 21 22 32 49 32 81 0 31-11 58-32 82-20 22-46 33-76 33-30 0-56-11-76-33-21-24-32-51-32-82 0-32 11-59 32-81 20-22 46-33 76-33z"/>
<glyph glyph-name="full-screen-exit" unicode="&#111;" d="M201 59c-1-3-3-6-7-7-3-1-6 0-9 2l-30 31-83-82c-3-4-9-4-13 0l-56 56c-4 4-4 10 0 13l82 83-31 30c-2 3-3 6-2 9 1 4 4 6 7 7l157 26c3 1 6 0 8-2 2-2 3-5 3-8z m110 394c1 3 3 6 7 7 3 1 6 0 9-2l30-31 83 82c3 4 9 4 13 0l56-56c4-4 4-10 0-13l-82-83 31-30c2-3 3-6 2-9-1-4-4-6-7-7l-157-26c-3-1-6 0-8 2-2 2-3 5-3 8z"/>
<glyph glyph-name="double-arrow" unicode="&#88;" d="M53 509l237-237c5-5 7-10 7-16 0-6-2-11-7-16l-237-237c-4-4-11-4-15 0l-35 35c-4 4-4 11 0 15l204 203-204 203c-4 4-4 11 0 15l35 35c4 4 11 4 15 0z m213 0l237-237c5-5 7-10 7-16 0-6-2-11-7-16l-237-237c-4-4-11-4-15 0l-35 35c-4 4-4 11 0 15l205 203-205 203c-4 4-4 11 0 15l35 35c4 4 11 4 15 0z"/>
<glyph glyph-name="download" unicode="&#89;" d="M256 512c71 0 130-26 180-76 50-50 76-109 76-180 0-71-26-130-76-180-50-50-109-76-180-76-71 0-130 26-180 76-50 50-76 109-76 180 0 71 26 130 76 180 50 50 109 76 180 76z m0-456c55 0 102 20 141 59 39 39 59 86 59 141 0 55-20 103-59 142-39 38-86 58-141 58-55 0-102-20-141-58-39-39-59-87-59-142 0-55 20-102 59-141 39-39 86-59 141-59z m50 307l0-114 62 0-112-105-112 105 62 0 0 114z"/>
<glyph glyph-name="mail" unicode="&#118;" d="M323 242l180-176c2-2 2-6 0-8-1-1-2-1-4-1l-486 0c-3 0-5 2-5 5 0 2 0 3 1 4l180 176c2 2 5 3 7 1l48-32c7-4 17-4 24 0l48 32c2 2 5 1 7-1z m183 108c2 0 4-1 4-4l0-216c0-1 0-2-1-3-2-1-5-1-6 1l-139 135c0 0-1 0-1 0-1 2 0 5 2 6l139 81c0 0 1 0 2 0z m-502 0c1 0 2 0 2 0l139-81c2-1 3-4 2-6 0 0 0 0-1 0l-138-135c-2-2-5-2-7-1 0 1-1 2-1 3l0 216c0 3 2 4 4 4z m487 105c11 0 21-9 21-21l0-30c0-2-1-3-3-4l-250-144c-2-1-4-1-6 0l-250 144c-2 1-3 2-3 4l0 30c0 12 10 21 21 21z"/>
<glyph glyph-name="error" unicode="&#67;" d="M266 485l245-446c0-2 1-4 1-6 0-6-5-12-11-12l-490 0c-2 0-4 1-6 2-5 3-7 10-4 16l245 446c1 2 3 3 4 4 6 3 12 1 16-4z m10-337l-40 0c-2 0-4-2-4-5l0-41c0-3 2-5 4-5l40 0c2 0 4 2 4 5l0 41c0 3-2 5-4 5z m0 152l-40 0c-2 0-4-2-4-5l0-92c0-2 2-5 4-5l40 0c2 0 4 3 4 5l0 92c0 3-2 5-4 5z"/>
<glyph glyph-name="full-screen" unicode="&#79;" d="M26 168c1 3 3 6 6 7 4 1 7 0 9-2l31-31 83 83c3 3 9 3 12 0l57-57c4-4 4-9 0-13l-82-82 30-31c3-2 4-6 3-9-1-3-4-6-7-6l-158-27c-2 0-5 1-7 3-2 2-3 5-3 7z m460 176c-1-3-3-6-6-7-4-1-7 0-9 2l-31 31-83-83c-3-3-9-3-12 0l-57 57c-4 4-4 9 0 13l82 82-30 31c-3 2-4 6-3 9 1 3 4 6 7 6l158 27c2 0 5-1 7-3 2-2 3-5 3-7z"/>
<glyph glyph-name="fast-forward" unicode="&#48;" d="M506 246l0-2-264-149c-4-2-7-3-9-3-8 0-12 4-12 11l0 105-200-112c-4-2-7-3-8-3-8 0-13 4-13 11l0 304c0 7 4 11 13 11 1 0 5-1 8-3l200-112 0 105c0 7 4 11 12 11 3 0 6-1 7-3l265-149c5-2 7-6 7-11 0-6-2-10-6-11z"/>
<glyph glyph-name="menu" unicode="&#114;" d="M477 152c19 0 35-15 35-35 0-19-16-34-35-34l-442 0c-19 0-35 15-35 34 0 20 16 35 35 35z m0 139c19 0 35-16 35-35 0-19-16-35-35-35l-442 0c-19 0-35 16-35 35 0 19 16 35 35 35z m0 138c19 0 35-15 35-34 0-20-16-35-35-35l-442 0c-19 0-35 15-35 35 0 19 16 34 35 34z"/>
<glyph glyph-name="infocircle" unicode="&#49;" d="M256 512c141 0 256-115 256-256 0-141-115-256-256-256-141 0-256 115-256 256 0 141 115 256 256 256z m24-201c-12 0-28-5-50-16-22-11-43-24-64-41 0 0 9-14 9-14 19 12 33 18 41 18 4 0 4-6 0-18 0 0-20-85-20-85-9-39-3-57 19-57 11 0 27 4 46 14 21 9 41 24 59 43 0 0-10 13-10 13-17-13-30-19-40-19-4 0-5 6-2 20 0 0 24 89 24 89 10 36 5 53-12 53z m2 116c-16 0-28-4-37-14-9-8-13-17-13-27 0-11 2-18 9-25 6-5 15-8 27-8 14 0 26 4 34 11 8 9 13 19 13 31 0 22-11 32-33 32z"/>
<glyph glyph-name="mic" unicode="&#50;" d="M427 261c0-87-63-159-146-171l0-38 91 0c13 0 24-12 24-25 0-15-11-27-24-27l-232 0c-13 1-24 12-24 27 0 13 11 25 24 25l91 0 0 38c-83 12-146 84-146 171l0 100c0 14 11 25 25 25 15 0 25-11 25-25l0-98c0-69 54-124 121-124 67 0 121 55 121 124l0 98c0 14 10 25 25 25 14 0 25-11 25-25z m-258 2c0 1 0 1 0 2l0 160c2 48 40 87 87 87 47 0 85-39 87-87l0-160c0-1 0-1 0-2 0-49-40-87-87-87-47 0-87 38-87 87z"/>
<glyph glyph-name="remove" unicode="&#82;" d="M498 329c7 0 14-7 14-14l0-118c0-4-1-7-4-10-3-3-6-4-10-4l-484 0c-4 0-7 1-10 4-3 3-4 6-4 10l0 118c0 7 7 14 14 14z"/>
<glyph glyph-name="remove-circle" unicode="&#51;" d="M256 512c141 0 256-115 256-256 0-141-115-256-256-256-141 0-256 115-256 256 0 141 115 256 256 256z m125-219l-249 0c-3 0-7-4-7-7l0-61c0-2 1-3 2-5 2-1 3-2 5-2l249 0c2 0 3 1 5 2 1 2 2 3 2 5l0 61c0 3-4 7-7 7z"/>
<glyph glyph-name="add" unicode="&#86;" d="M498 329c7 0 14-7 14-14l0-118c0-4-1-7-4-10-3-3-6-4-10-4l-169 0 0-169c0-4-1-7-4-10-3-3-6-4-10-4l-118 0c-4 0-7 1-10 4-3 3-4 6-4 10l0 169-169 0c-4 0-7 1-10 4-3 3-4 6-4 10l0 118c0 7 7 14 14 14l169 0 0 169c0 7 7 14 14 14l118 0c7 0 14-7 14-14l0-169z"/>
<glyph glyph-name="add-circle" unicode="&#52;" d="M256 512c141 0 256-115 256-256 0-141-115-256-256-256-141 0-256 115-256 256 0 141 115 256 256 256z m31-125l-61 0c-3 0-7-4-7-7l0-87-87 0c-3 0-7-4-7-7l0-61c0-2 1-3 2-5 2-1 3-2 5-2l87 0 0-87c0-2 1-3 2-5 2-1 3-2 5-2l61 0c2 0 3 1 5 2 1 2 2 3 2 5l0 87 87 0c2 0 3 1 5 2 1 2 2 3 2 5l0 61c0 3-4 7-7 7l-87 0 0 87c0 3-4 7-7 7z"/>
<glyph glyph-name="rewind-1" unicode="&#53;" d="M6 246l0-2 264-149c4-2 7-3 9-3 8 0 12 4 12 11l0 105 200-112c4-2 7-3 8-3 8 0 13 4 13 11l0 304c0 7-4 11-13 11-1 0-5-1-8-3l-200-112 0 105c0 7-4 11-12 11-3 0-6-1-7-3l-265-149c-5-2-7-6-7-11 0-6 2-10 6-11z"/>
<glyph glyph-name="icon-video-description" unicode="&#121;" d="M205 256c0-18-5-35-15-50-12-17-26-28-43-34-2-2-5-3-9-3-6 0-11 3-16 8-4 3-7 10-7 16 0 5 1 9 4 13 3 3 7 6 10 8 6 3 9 5 13 9 4 3 8 7 11 13 4 5 5 12 5 20 0 8-1 15-5 20-3 6-7 10-11 13-4 4-7 6-13 9-3 2-7 5-10 8-3 4-4 8-4 13 0 6 3 13 7 16 5 5 10 8 16 8 4 0 7-1 9-3 17-6 31-17 43-32 10-17 15-34 15-52z m97 0c0-37-12-71-32-102-22-30-49-53-84-68-4-2-8-2-10-2-7 0-13 3-17 7-5 5-8 10-8 16 0 10 6 17 15 22 14 7 24 12 29 16 18 13 32 29 43 48 10 20 15 40 15 63 0 23-5 43-15 63-11 19-25 35-43 48-5 4-15 9-29 16-9 5-15 12-15 22 0 6 3 11 8 16 4 4 10 7 17 7 2 0 6 0 10-2 35-15 62-38 84-68 20-31 32-65 32-102z m95 0c0-55-15-106-48-153-32-45-73-79-126-102-4-1-6-1-10-1-6 0-12 3-15 6-6 5-8 10-8 17 0 9 5 16 14 21 3 1 5 3 9 4 4 1 6 2 8 4 11 6 22 12 31 19 30 21 54 49 70 80 20 33 27 68 27 105 0 37-7 72-27 105-16 31-40 59-70 80-9 7-20 13-31 19-2 2-4 3-8 4-4 1-6 3-9 4-9 5-14 12-14 21 0 7 2 12 8 17 3 3 9 6 15 6 4 0 6 0 10-1 53-23 94-57 126-102 33-47 48-98 48-153z"/>
<glyph glyph-name="search" unicode="&#110;" d="M354 295c0 39-13 71-40 98-27 27-59 40-98 40-37 0-70-13-97-40-26-27-40-59-40-98 0-37 14-70 40-97 27-27 60-41 97-41 39 0 71 14 98 41 27 27 40 60 40 97z m158-255c0-11-4-21-12-28-7-8-17-12-28-12-11 0-20 4-28 12l-105 105c-37-25-78-38-123-38-29 0-57 5-84 17-27 12-49 27-69 46-19 20-34 42-46 69-11 27-17 55-17 84 0 31 6 59 17 84 12 27 27 51 46 70 20 20 42 35 69 47 27 11 55 16 84 16 30 0 58-5 85-16 26-12 50-27 69-47 19-19 34-43 46-70 11-25 17-53 17-84 0-45-12-86-38-123l105-105c8-8 12-16 12-27z"/>
<glyph glyph-name="star-circle" unicode="&#54;" d="M256 0c-141 0-256 115-256 256 0 141 115 256 256 256 141 0 256-115 256-256 0-141-115-256-256-256z m0 182l85-44-16 92 69 66-95 14-43 84-43-84-95-14 69-66-16-92z"/>
<glyph glyph-name="sushi" unicode="&#55;" d="M62 318c35 0 63-28 63-62 0-34-28-62-63-62-34 0-62 28-62 62 0 34 28 62 62 62z m194 0c34 0 62-28 62-62 0-34-28-62-62-62-34 0-62 28-62 62 0 34 28 62 62 62z m194 0c34 0 62-28 62-62 0-34-28-62-62-62-35 0-63 28-63 62 0 34 28 62 63 62z"/>
<glyph glyph-name="tv" unicode="&#77;" d="M0 158l0 263c1 4 2 7 4 10 5 10 15 16 26 15l443 0c16 0 28-13 28-28 0-86 0-171 0-256 0-4-1-7-2-10-4-12-15-20-28-19l-161 0 0-47 128 0 0-18-376 0 0 18 128 0 0 47-161 0c-10 0-19 4-24 13-2 3-4 8-5 12z m250 268l-190 0c-10 0-21 0-31 0-2 0-4 0-6-2-2-2-3-5-3-7 0-85 0-169 0-253 0-8 3-10 11-10l439 0c7 0 10 2 10 10 0 84 0 168 0 252 1 3 0 6-2 8-3 2-5 3-8 3z"/>
<glyph glyph-name="volume-full" unicode="&#120;" d="M233 412l0-312c0-5-3-10-7-13-3-4-8-6-14-6-5 0-9 2-13 6l-101 95-78 0c-5 0-10 2-14 6-4 4-6 8-6 12l0 112c0 4 2 8 6 12 4 4 9 6 14 6l78 0 101 95c4 4 8 6 13 6 6 0 11-2 14-6 4-3 7-8 7-13z m115-156c0-14-4-28-13-40-9-14-20-22-33-27-3-1-5-3-8-3-5 0-10 3-14 7-3 3-5 7-5 12 0 5 1 8 3 11 2 3 5 5 8 6 5 2 8 5 11 8 3 2 7 5 9 10 2 4 3 10 3 16 0 6-1 12-3 16-2 5-6 8-9 10-3 3-6 6-11 7-3 2-6 4-8 7-2 3-3 6-3 11 0 5 2 9 5 12 4 4 9 7 14 7 3 0 5-2 8-3 13-5 24-13 33-26 9-13 13-27 13-41z m16 208c42-19 75-46 100-83 27-39 39-80 39-125 0-45-12-86-39-125-25-37-58-64-100-83-3-1-5-1-9-1-5 0-8 2-12 5-4 4-6 8-6 14 0 7 4 13 12 16 1 1 3 3 6 4 4 1 6 2 7 3 9 5 18 10 25 16 24 17 43 40 57 66 15 26 20 56 20 85 0 29-5 59-20 85-14 26-33 49-57 66-7 6-16 11-25 16-1 1-3 2-7 3-3 1-5 2-6 4-8 3-12 9-12 16 0 6 2 10 6 14 4 3 7 5 12 5 4 0 6 0 9-1z m-40-71c2 0 6 0 8-1 29-13 50-31 68-55 17-25 25-52 25-81 0-29-8-56-25-81-18-24-39-42-68-55-2-1-6-1-8-1-5 0-11 2-14 5-3 5-5 9-5 13 0 8 3 14 11 18 11 5 19 9 23 13 15 10 26 23 35 37 8 17 13 33 13 51 0 18-5 34-13 51-9 14-20 27-35 37-4 4-12 8-23 13-8 4-11 10-11 18 0 4 2 8 5 13 3 3 9 5 14 5z"/>
<glyph glyph-name="volume-low" unicode="&#119;" d="M340 484l0-456c0-7-4-14-10-20-4-5-11-8-20-8-7 0-13 3-19 8l-147 140-115 0c-7 0-15 3-20 9-6 5-9 11-9 18l0 162c0 7 3 13 9 18 5 6 13 9 20 9l115 0 147 140c6 5 12 8 19 8 9 0 16-3 20-8 6-6 10-13 10-20z m168-228c0-21-5-41-18-59-13-19-29-32-49-39-4-1-7-4-12-4-7 0-14 4-20 10-4 4-7 11-7 18 0 7 1 11 4 15 3 4 8 7 12 10 7 3 11 7 16 11 4 3 10 7 13 14 4 6 5 16 5 24 0 8-1 18-5 24-3 7-9 11-13 14-5 4-9 8-16 11-4 3-9 6-12 10-3 4-4 8-4 15 0 7 3 14 7 18 6 6 13 10 20 10 5 0 8-3 12-4 20-7 36-20 49-38 13-19 18-39 18-60z"/>
<glyph glyph-name="volume-half" unicode="&#56;" d="M277 441l0-370c0-6-4-12-9-16-3-5-9-7-16-7-6 0-10 2-15 7l-120 113-94 0c-5 0-11 3-16 7-5 5-7 9-7 15l0 132c0 6 2 10 7 15 5 4 11 7 16 7l94 0 120 113c5 5 9 7 15 7 7 0 13-2 16-7 5-4 9-10 9-16z m136-185c0-17-5-33-15-48-11-16-23-26-40-32-3-1-6-3-9-3-6 0-12 3-16 8-4 3-6 9-6 15 0 5 1 9 3 12 3 4 6 6 10 8 5 2 9 6 12 9 4 3 9 6 11 12 3 4 5 12 5 19 0 7-2 15-5 19-2 6-7 9-11 12-3 3-7 7-12 9-4 2-7 4-10 8-2 3-3 7-3 12 0 6 2 12 6 15 4 5 10 8 16 8 3 0 6-2 9-3 17-6 29-16 40-31 10-16 15-32 15-49z m92 0c0-34-10-67-30-97-21-28-47-50-81-64-2-2-7-2-9-2-6 0-13 3-16 6-5 6-7 10-7 16 0 9 4 16 14 21 13 6 22 11 27 15 17 12 31 28 42 45 9 19 15 38 15 60 0 22-6 41-15 60-11 17-25 33-42 45-5 4-14 9-27 15-10 5-14 12-14 21 0 6 2 10 7 16 3 3 10 6 16 6 2 0 7 0 9-2 34-14 60-36 81-64 20-30 30-63 30-97z"/>
<glyph glyph-name="volume-mute" unicode="&#98;" d="M252 464c7 0 13-2 16-7 5-4 9-10 9-16l0-370c0-6-4-12-9-16-3-5-9-7-16-7-6 0-10 2-15 7l-120 113-94 0c-5 0-11 3-16 7-5 5-7 9-7 15l0 132c0 6 2 10 7 15 5 4 11 7 16 7l94 0 120 113c5 5 9 7 15 7z m115-126l43-42 45 42c7 7 17 7 25 0l13-12c6-7 6-18 0-25l-45-42 45-44c6-6 6-17 0-23l-13-13c-7-7-18-7-25 0l-45 43-43-43c-7-7-19-7-26 0l-12 13c-7 6-7 17 0 23l44 44-44 42c-7 7-7 18 0 25l12 12c7 7 19 7 26 0z"/>
<glyph glyph-name="replay" unicode="&#57;" d="M512 470l0-150c0-6-1-10-6-15-5-5-9-6-15-6l-150 0c-9 0-15 4-20 13-3 8-2 16 5 23l47 46c-33 30-73 46-117 46-23 0-46-5-67-13-21-10-38-21-53-38-17-15-28-32-38-53-8-21-13-44-13-67 0-23 5-46 13-67 10-21 21-38 38-53 15-17 32-28 53-38 21-8 44-13 67-13 27 0 51 6 75 18 23 10 44 27 59 49 3 1 5 3 9 3 3 0 5-1 8-3l45-46c3-2 4-3 4-7 0-2-1-4-2-7-25-29-54-52-89-69-34-16-70-23-109-23-35 0-68 6-99 20-32 14-60 31-82 55-24 22-41 50-55 82-14 31-20 64-20 99 0 35 6 68 20 99 14 32 31 60 55 82 22 24 50 41 82 55 31 14 64 20 99 20 33 0 64-6 95-18 30-12 58-30 82-52l43 43c7 7 14 8 23 5 9-5 13-11 13-20z"/>
<glyph glyph-name="cc-on" unicode="&#33;" d="M152 357c-18 0-33-6-44-18-8-12-13-28-13-50 0-48 18-70 57-70 6 0 16 1 24 6 10 5 16 14 23 24l57-27c-23-37-62-57-116-57-33 0-63 11-87 33-23 22-35 52-35 91 0 38 12 68 35 89 24 22 54 33 92 33 23 0 44-7 64-18 19-9 34-24 47-44l-53-27c-11 24-28 35-51 35z m342-238l0-28-476 0 0 28z m-110 292c23 0 45-7 65-18 17-10 33-25 45-44l-55-27c-6 24-25 35-50 35-17 0-32-6-43-18-9-13-15-30-15-50 0-48 21-70 58-70 10 0 16 1 25 6 10 5 16 14 21 24l57-27c-22-37-59-57-109-57-39 0-70 11-90 33-24 24-37 54-37 91 0 38 13 68 37 89 20 22 51 33 91 33z"/>
<glyph glyph-name="alert" unicode="&#34;" d="M252 420c25 2 47-18 50-44l0-10-15-137c-1-19-16-32-34-31-15 2-27 15-29 31l-13 137c-3 27 15 52 41 54z m-24-257c15 15 41 15 56 0 8-8 12-19 12-29 0-12-4-23-12-30-7-7-18-13-28-13-10 0-20 6-28 13-8 7-12 18-12 30 0 10 4 21 12 29z"/>
<glyph glyph-name="trash" unicode="&#35;" d="M388 341l-264 0c-7 0-12-5-12-12l0-256c0-6 5-12 12-12l264 0c7 0 12 6 12 12l0 256c0 7-5 12-12 12z m17 82l-101 0 0 16c0 6-5 12-12 12l-72 0c-7 0-12-6-12-12l0-16-100 0c-7 0-13-5-13-12l0-35c0-7 6-13 13-13l297 0c6 0 12 6 12 13l0 35c0 7-6 12-12 12z"/>
<glyph glyph-name="star" unicode="&#36;" d="M494 327c0-4-3-9-8-14l-103-101 24-143c0-1 0-3 0-5 0-4-1-8-3-10-2-3-4-5-8-5-4 0-8 2-12 4l-128 67-128-67c-4-2-8-4-12-4-4 0-7 2-9 5-2 2-3 6-3 10 0 1 0 3 1 5l24 143-104 101c-4 6-7 10-7 14 0 7 6 12 16 13l144 21 64 130c4 8 8 12 14 12 6 0 10-4 14-12l64-130 144-21c10-1 16-6 16-13z"/>
<glyph glyph-name="hourglass-o" unicode="&#37;" d="M439 475c0-49-10-93-31-131-20-39-45-68-76-88 31-20 56-49 76-88 21-38 31-82 31-131l27 0c3 0 5-1 7-3 2-2 2-4 2-7l0-18c0-3 0-5-2-6-2-2-4-3-7-3l-420 0c-3 0-5 1-7 3-2 1-2 3-2 6l0 18c0 3 0 5 2 7 2 2 4 3 7 3l27 0c0 49 10 93 31 131 20 39 45 68 76 88-31 20-56 49-76 88-21 38-31 82-31 131l-27 0c-3 0-5 1-7 3-2 2-2 4-2 7l0 18c0 3 0 5 2 6 2 2 4 3 7 3l420 0c3 0 5-1 7-3 2-1 2-3 2-6l0-18c0-3 0-5-2-7-2-2-4-3-7-3z m-153-202c15 6 29 14 43 27 14 12 26 26 37 43 11 17 20 37 26 60 7 23 10 47 10 72l-292 0c0-25 3-49 10-72 6-23 15-43 26-60 11-17 23-31 37-43 14-13 28-21 43-27 3-1 6-3 8-7 3-3 4-6 4-10 0-4-1-7-4-10-2-4-5-6-8-7-15-6-29-14-43-27-14-12-26-26-37-43-11-17-20-37-26-60-7-23-10-47-10-72l292 0c0 25-3 49-10 72-6 23-15 43-26 60-11 17-23 31-37 43-14 13-28 21-43 27-3 1-6 3-8 7-3 3-4 6-4 10 0 4 1 7 4 10 2 4 5 6 8 7z"/>
<glyph glyph-name="external-link" unicode="&#38;" d="M402 247l0-92c0-22-8-42-24-58-16-16-35-24-58-24l-238 0c-22 0-42 8-58 24-16 16-24 36-24 58l0 238c0 23 8 42 24 58 16 16 36 24 58 24l201 0c3 0 5 0 7-2 2-2 3-4 3-7l0-18c0-3-1-5-3-7-2-1-4-2-7-2l-201 0c-12 0-23-5-32-14-9-9-13-19-13-32l0-238c0-12 4-23 13-32 9-9 20-13 32-13l238 0c13 0 23 4 32 13 9 9 14 20 14 32l0 92c0 3 1 5 2 6 2 2 4 3 7 3l18 0c3 0 5-1 7-3 1-1 2-3 2-6z m110 247l0-147c0-5-2-9-5-12-4-4-8-6-13-6-5 0-10 2-13 6l-50 50-187-186c-2-2-4-3-6-3-3 0-5 1-7 3l-32 32c-2 2-3 4-3 7 0 2 1 4 3 6l186 187-50 50c-4 3-6 8-6 13 0 5 2 9 6 13 3 3 7 5 12 5l147 0c5 0 9-2 13-5 3-4 5-8 5-13z"/>
</font>
</defs>
</svg>
