<svg width="80" height="40" viewBox="0 0 80 40" xmlns="http://www.w3.org/2000/svg"><g fill="none" fill-rule="evenodd"><path d="M0 0h80v65H0z"/><path d="M35.815 28.15c0 3.182 2.92 6.057 6.055 6.057 2.19 0 3.61-.582 5.33-2.147l-7.748-9.7c-2.244 1.62-3.637 3.038-3.637 5.79M42.48 11.708c1.172-.837 2.13-1.82 2.13-3.126 0-1.724-1.135-3.11-3.02-3.11-1.986 0-3.03 1.376-3.03 3.102 0 1.358 1.118 2.663 2.392 4.18.507-.317 1.53-1.046 1.53-1.046M79.138 38.792c0-.222-.133-.32-.4-.32h-.425v1.12h.17v-.487h.194l.298.486h.19l-.322-.49c.167-.023.295-.106.295-.308m-.654.172v-.352h.233c.194 0 .246.062.246.17 0 .12-.067.182-.276.182h-.203" fill="#ffffff"/><path d="M78.69 38.062c-.532 0-.984.41-.984.968 0 .56.452.97.983.97.526 0 .976-.41.976-.97 0-.558-.45-.968-.977-.968m0 1.78c-.45 0-.796-.34-.796-.812 0-.465.347-.81.795-.81.444 0 .79.345.79.81 0 .47-.346.812-.79.812M57.406 32.594l6.112 7.397h13.154l.002-9.628-17.24-.004c-1.356 1.558-1.54 1.677-2.028 2.236M55.794 15.548V9.062h20.88V.006L47.072.01c3.1 1.6 4.895 4.682 4.895 8.446 0 3.16-1.623 5.285-4.084 7.122 0 0-1.847 1.432-2.854 2.125l7.746 9.264 3.055-3.238h19.59v-8.182H55.795M36.15.008L15.906.006 0 39.99l13.453.004 2.6-7.418h12.59c-.452-1.368-.686-2.903-.686-4.6 0-5.222 3.695-8.61 7.166-10.966-1.626-1.892-3.974-4.762-3.974-8.666 0-3.746 1.798-6.762 5-8.336M18.504 23.296l4.276-12.783 4.16 12.783h-8.437" fill="#ffffff"/></g></svg>
