<?xml version="1.0" encoding="UTF-8"?>
<svg width="250px" height="262px" viewBox="0 0 250 262" version="1.1" xmlns="http://www.w3.org/2000/svg" xmlns:xlink="http://www.w3.org/1999/xlink">

    <g id="Page-1" stroke="none" stroke-width="1" fill="none" fill-rule="evenodd">
        <g id="logo-black" fill="#1A1918">
            <path d="M245.413472,256.469212 C245.413472,256.469212 246.162424,256.440437 246.901076,256.460072 C247.136613,256.466333 247.361849,256.521005 247.361849,256.521005 C247.361849,256.521005 248.031296,256.736655 248.031296,257.448402 C248.031296,258.16015 247.361849,258.386994 247.361849,258.386994 L248.092974,259.457048 L247.25876,259.457048 L246.637698,258.490497 L246.066582,258.490497 L246.066582,259.452616 L245.413472,259.452616 L245.413472,256.469212 Z M246.053813,257.037719 L246.053813,257.996423 L246.848771,257.996423 C247.127989,257.996423 247.35447,257.78181 247.35447,257.517071 C247.35447,257.252871 247.128061,257.037719 246.848771,257.037719 L246.053813,257.037719 Z" id="Combined-Shape"></path>
            <path d="M246.645674,261.041296 C244.944358,261.041296 243.56517,259.661641 243.56517,257.959749 C243.56517,256.257858 244.944358,254.878202 246.645674,254.878202 C248.346989,254.878202 249.726177,256.257858 249.726177,257.959749 C249.726177,259.661641 248.346989,261.041296 246.645674,261.041296 Z M246.645674,260.424987 C248.006726,260.424987 249.110077,259.321262 249.110077,257.959749 C249.110077,256.598236 248.006726,255.494511 246.645674,255.494511 C245.284621,255.494511 244.181271,256.598236 244.181271,257.959749 C244.181271,259.321262 245.284621,260.424987 246.645674,260.424987 Z" id="Combined-Shape"></path>
            <polygon id="Shape" points="224.451116 245.135627 209.769783 223.314259 222.897804 223.314259 231.364854 236.207621 239.455753 223.314259 249.958999 223.314259 236.024789 244.235681 236.024789 261.241456 224.452152 261.241456 224.452152 245.135627"></polygon>
            <path d="M174.681771,223.314259 L194.065591,223.314259 C207.559397,223.314259 210.183394,229.334268 210.183394,234.250315 C210.183394,238.96649 207.023,242.12614 202.528861,243.784154 L210.076736,261.241456 L197.225985,261.241456 L191.496476,245.688644 L186.249518,245.688644 L186.249518,261.241456 L174.681771,261.241456 L174.681771,223.314259 L174.681771,223.314259 Z M186.249518,238.464218 L192.24619,238.464218 C195.562947,238.464218 197.97777,237.109639 197.97777,234.652133 C197.97777,232.245372 196.315767,230.535577 192.727705,230.535577 L186.249518,230.535577 L186.249518,238.464218 L186.249518,238.464218 Z" id="Shape"></path>
            <path d="M150.58944,262 C138.53758,262 131.252602,254.417295 131.252602,242.312337 C131.252602,230.206342 138.53758,222.624673 150.58944,222.624673 C162.6413,222.624673 169.925243,230.206342 169.925243,242.312337 C169.925243,254.416258 162.6413,262 150.58944,262 L150.58944,262 Z M143.468122,242.3113 C143.468122,252.505549 146.626362,254.468095 150.58944,254.468095 C154.500727,254.468095 157.711794,252.505549 157.711794,242.3113 C157.711794,232.667559 155.088042,230.157615 150.58944,230.157615 C145.930286,230.158652 143.468122,233.120613 143.468122,242.3113 L143.468122,242.3113 Z" id="Shape"></path>
            <polygon id="Shape" points="107.165838 231.437595 96.0267195 231.437595 96.0267195 223.314259 129.873898 223.314259 129.873898 231.437595 118.733743 231.437595 118.733743 261.241456 107.165838 261.241456 107.165838 231.437595"></polygon>
            <path d="M85.7542873,233.823227 C83.5041792,231.414947 80.8262191,230.457026 77.2904829,230.457026 C74.3980788,230.457026 72.4152487,231.414947 72.4152487,233.173209 C72.4152487,239.299136 94.6480157,233.875063 94.6480157,249.344867 C94.6480157,255.621116 89.2900235,262 77.4520929,262 C70.2200466,262 63.8447403,260.391024 59.5600041,254.618617 L66.5247724,249.544952 C69.0411225,252.45811 72.5778947,254.16661 76.7030928,254.16661 C81.2561431,254.16661 83.0773632,252.505799 83.0773632,250.851208 C83.0773632,245.07569 61.1678161,249.494153 61.1678161,235.128447 C61.1678161,227.697301 67.7554945,222.624673 77.4531289,222.624673 C83.1301972,222.624673 88.9170774,224.231576 92.5066836,228.598203 L85.7542873,233.823227 L85.7542873,233.823227 Z" id="Shape"></path>
            <polygon id="Shape" points="42.464077 223.314259 54.0451889 223.314259 54.0451889 261.241456 42.464077 261.241456"></polygon>
            <polygon id="Shape" points="0 223.314259 11.570377 223.314259 11.570377 237.711329 23.0340524 237.711329 23.0340524 223.314259 34.6054653 223.314259 34.6054653 261.241456 23.0340524 261.241456 23.0340524 246.14017 11.570377 246.14017 11.570377 261.241456 0 261.241456"></polygon>
            <path d="M23.9121912,0.136957658 L70.0701346,20.5436487 L70.0701346,173.57192 L116.840381,194.470909 L23.5487404,194.470909 L45.1522813,172.353012 L45.1522813,22.3753028 L23.9121912,0.136957658 Z M30.4627601,0.0684788291 L116.636033,0.0684788291 L95.700799,22.0006571 L95.700799,63.7476999 L148.272818,63.7476999 L168.560273,77.7635509 L74.2366165,77.7635509 L95.5566977,102.389669 L95.5566977,172.172434 L114.818835,189.734827 L74.09937,170.567215 L74.09937,18.5794108 L30.4627601,0.0684788291 Z M133.450321,0 L180.00291,20.7254719 L180.00291,173.723115 L226.265932,194.415045 L133.072734,194.415045 L154.483986,172.155739 L154.483986,102.320117 L100.119808,102.320117 L81.8044907,80.8428796 L179.50249,80.8703141 L154.532426,63.5933868 L154.532426,21.9983916 L133.450321,0 Z M140.197152,0.0684788291 L226.417948,0.0684788291 L204.852833,22.1125853 L204.852833,171.016039 L224.575433,189.562783 L184.015062,170.291693 L184.015062,18.4830132 L140.197152,0.0684788291 Z M14.7338538,203.656038 L235.119343,203.656038 L244.934283,214.201777 L4.99726177,214.201777 L14.7338538,203.656038 Z" id="H"></path>
        </g>
    </g>
</svg>