<?xml version="1.0" encoding="utf-8"?>
<!-- Generator: Adobe Illustrator 24.0.0, SVG Export Plug-In . SVG Version: 6.00 Build 0)  -->
<svg version="1.1" id="Layer_1" xmlns="http://www.w3.org/2000/svg" xmlns:xlink="http://www.w3.org/1999/xlink" x="0px" y="0px"
	 viewBox="0 0 372 372" style="enable-background:new 0 0 372 372;" xml:space="preserve">
<style type="text/css">
	.st0{fill:#F5B21A;}
	.st1{fill:#F9F9F9;}
</style>
<g>
	<circle class="st0" cx="186" cy="186" r="184"/>
</g>
<g>
	<path class="st1" d="M74.3,230c8.6-4.9,18.3-2,23.7,7.5c2.6,4.6,3.5,9.4,3.7,10.9l-7.2,4.1l-0.8-1.4c3.4-4.9,4.3-8.8,2.1-12.6
		c-2.9-5-8.5-5.1-16.1-0.8c-7.8,4.5-10.7,9.7-8.2,14c1.1,1.9,3.3,3.7,4.3,4l5.4-3.1c1.9-1.1,1.9-2,0.8-4.6l1.2-0.7l7.3,12.8
		l-1.2,0.7c-1.8-2.3-2.2-2.2-4.1-1.1l-6.1,3.5c-3.5-1.8-7.7-6.9-9.9-10.7C64.1,243.4,66.2,234.7,74.3,230z"/>
	<path class="st1" d="M109.9,294l-0.8,0.9l-7.6-4.8l-0.8-0.7l2.4-4l-0.1-0.1c-3.2,1.1-6.5,0.6-9.4-2c-4.2-3.7-3.7-7.6-0.1-11.6
		l5.8-6.5c1.4-1.5,1.9-3.5,0.6-5.2l0.8-0.9l8.3,5.4l1,0.9l-10.1,11.5c-2.2,2.5-2.4,4.4-0.7,6c2.2,2,5.3,0.9,8.4-2.6l3.8-4.3
		c1.4-1.5,1.9-3.5,0.6-5.2l0.8-0.9l8.3,5.4l1,0.9l-11.6,13.1C108.8,290.6,108.2,291.9,109.9,294z"/>
	<path class="st1" d="M142.5,309.2c-2.3,1.4-5.5,1.7-7.9,0.6c-2.3-1.1-2.9-3-2.4-5.2c-2.3,1.5-5,1.8-8.1,0.3c-3.8-1.8-5.6-4.9-4-8.4
		c2.1-4.4,7.3-4.4,13.1-1.7c0.9,0.4,1.7,0.9,2.6,1.4l1.8-3.9c1.5-3.2,0.8-5-0.7-5.7c-1.7-0.8-3.6,0.1-6.8,1.8l-2.4,1.3
		c-1.6-1.3-2-3.1-1.3-4.5c1.3-2.8,6.2-3.2,12.4-0.3c7.2,3.3,7.8,7.2,5.3,12.5l-3.6,7.8c-0.6,1.2-0.5,2.1,0.3,2.5
		c0.5,0.2,1.2,0.3,1.7,0.2L142.5,309.2z M134.7,298.6l0.1-0.3c-0.6-0.4-1.2-0.8-1.8-1c-2.8-1.3-4.1-0.3-5,1.6
		c-1,2.1-0.4,3.4,1.1,4.1C131.2,303.8,132.8,302.5,134.7,298.6z"/>
	<path class="st1" d="M174.7,298.4c-0.2,1.2-1,2.9-2.2,4.3l-2.6-1.9c-1-0.8-1.8-1.1-2.6-1.3c-2.2-0.4-3.2,1.1-3.5,2.9l-2,10.3
		c-0.4,2,0.2,2.7,2.6,3.6l-0.2,1.2l-14-2.7l0.2-1.2c2.6,0.1,3.1-0.4,3.5-2.4l2.4-12.3c0.4-2-0.1-4-2.1-4.8l0.2-1.2l9.9,0.4l1.1,0.2
		l-1,5.3l0.2,0c1.9-3,4.6-4.8,7.4-4.2C174.3,295,175.1,296.5,174.7,298.4z"/>
	<path class="st1" d="M205.7,314.7c-1.3,2.3-4,4.1-6.7,4.2c-2.6,0.1-4-1.3-4.6-3.5c-1.3,2.4-3.5,3.9-7,4.1c-4.2,0.2-7.3-1.7-7.5-5.5
		c-0.3-4.9,4.4-7.3,10.8-7.7c1-0.1,1.9-0.1,2.9,0l-0.2-4.3c-0.2-3.6-1.6-4.8-3.3-4.7c-1.9,0.1-3.1,1.8-5.1,4.8l-1.5,2.2
		c-2-0.4-3.2-1.8-3.3-3.4c-0.2-3.1,4-5.7,10.8-6.1c7.9-0.4,10.3,2.7,10.6,8.5l0.5,8.6c0.1,1.4,0.5,2.1,1.5,2.1
		c0.6,0,1.2-0.3,1.6-0.6L205.7,314.7z M193.8,309l0-0.3c-0.7,0-1.4-0.1-2.1-0.1c-3,0.2-3.8,1.7-3.7,3.7c0.1,2.3,1.2,3.2,2.9,3.1
		C193.2,315.3,194,313.4,193.8,309z"/>
	<path class="st1" d="M244.2,304.8l0.4,1.1l-12.9,4.6l-0.4-1.1c1.8-1.1,2.1-1.8,1.4-3.7l-3.7-10.1c-1.2-3.2-2.7-4.2-4.9-3.4
		c-3,1.1-3.5,4.3-1.9,8.7l2.8,7.7c0.7,1.9,1.5,2.2,3.6,1.9l0.4,1.1l-13,4.7l-0.4-1.1c2.3-1.3,2.5-1.9,1.8-3.9l-4.3-11.8
		c-0.7-1.9-2.1-3.3-4.3-3l-0.4-1.1l8.7-4.7l1.1-0.4l1.6,4.4l0.2-0.1c0.5-3.4,2.7-6.1,6.5-7.5c5.1-1.9,8.4,0.4,10.2,5.5l3.8,10.4
		C241.1,304.9,241.7,305.3,244.2,304.8z"/>
	<path class="st1" d="M265.9,286.6c-0.2,2.2-0.8,6.4-4.4,8.9c-3.4,2.4-7.4,1.6-9.8-1.9l-7.6-11.1l-2.5,1.7L240,282
		c2.9-2.5,3.4-3.6,3-11.7l1.6-1.1l4.2,6.1l5-3.4l1.4,3.1l-4.5,3.1l7.5,10.8c1.5,2.1,2.7,2.2,3.9,1.4c1.1-0.7,1.4-1.8,2-3.7
		L265.9,286.6z"/>
	<path class="st1" d="M286.7,263.4c1.4,5.7-0.3,9.6-3,12.5c-4.3,4.7-10.8,6.7-16.8,1.1c-5.8-5.3-5.8-12.6-0.4-18.5
		c5.7-6.2,11-3.9,15.2,0.4l-10.1,11c4.9,4.2,8.4,3.4,10.9,0.6c1.5-1.6,2.8-4,2.6-6.8L286.7,263.4z M269.9,268.5l5.1-5.6
		c-3.5-3.4-5.9-3.9-7.3-2.3C266,262.5,267.1,265.5,269.9,268.5z"/>
	<path class="st1" d="M303.6,233.8c2.8,5.1,2.3,9.3,0.4,12.9c-2.9,5.6-8.6,9.3-15.9,5.5c-7-3.6-8.9-10.6-5.3-17.7
		c3.9-7.5,9.6-6.7,14.8-3.6l-6.8,13.3c5.8,2.7,9,1.1,10.7-2.3c1-1.9,1.6-4.5,0.7-7.2L303.6,233.8z M288.7,243.2l3.5-6.7
		c-4.3-2.3-6.7-2.2-7.7-0.3C283.4,238.4,285.2,241,288.7,243.2z"/>
</g>
<g>
	<path class="st1" d="M124.7,163.7c0,10.3-7.6,16.2-20.7,16.2H89.5v-1.4c2.9-0.4,3.7-0.8,3.7-3.1v-23.1c0-2.3-0.8-2.6-3.7-3.1v-1.4
		h16.2C116.6,147.9,124.7,153.2,124.7,163.7z M115,164.3c0-9.7-3.8-14-11.2-14h-1.7v26.8c0.7,0.2,1.6,0.4,2.9,0.4
		C111.9,177.5,115,173.1,115,164.3z"/>
	<path class="st1" d="M154.1,174c-3.3,5-7.4,6.4-11.5,6.4c-6.5,0-12.5-3.5-12.5-11.9c0-8.1,5.5-13.1,13.6-13.1
		c8.6,0,10.6,5.6,10.2,11.8h-15.3c0.2,6.6,3.2,8.7,7.1,8.7c2.2,0,4.9-0.7,6.9-2.8L154.1,174z M138.7,164.9h7.7
		c0.1-5-1.1-7.1-3.3-7.1C140.5,157.7,139,160.7,138.7,164.9z"/>
	<path class="st1" d="M159.3,178.7c2.6-0.4,3.1-1,3.1-3.1v-22.1c0-2.1-0.9-4-3.1-4.4v-1.2l10-1.5h1.4v29.2c0,2.1,0.7,2.6,2.8,3.1
		v1.2h-14.2V178.7z"/>
	<path class="st1" d="M178.7,178.7c2.6-0.4,3.1-1,3.1-3.1v-12.9c0-2.1-0.9-4-3.1-4.4v-1.2l10-1.5h1.4v20c0,2.1,0.7,2.6,2.8,3.1v1.2
		h-14.2V178.7z M181.2,149.2c0-2.5,1.9-4.4,4.5-4.4s4.5,1.5,4.5,4.2c0,2.5-1.9,4.4-4.5,4.4S181.2,151.8,181.2,149.2z"/>
	<path class="st1" d="M222.9,158.2c-1,0-1.9,0.1-2.8,0.4c1.1,1.2,1.7,2.7,1.7,4.5c0,5.3-5.1,8.4-11.8,8.4c-1.1,0-2.3-0.1-3.3-0.3
		l-0.7,0.4c-1,0.5-1.5,1-1.5,1.5c0,0.5,0.5,0.8,2,0.9l8.6,0.4c5.5,0.3,8.6,2.2,8.6,6c0,5.3-6.1,8.9-15.9,8.9c-5.5,0-9.4-1.1-9.4-4.3
		c0-1.7,1.1-3,3.7-3c0.5,0,1.1,0,1.8,0.2c0,0.4-0.1,0.7-0.1,1.1c0,2.2,2.2,3.5,6.3,3.5c4.4,0,7.1-1.6,7.1-3.7c0-1.4-1.1-2.1-3.9-2.2
		l-9-0.4c-4.4-0.2-6.1-1.9-6.1-4.3c0-2.6,2.1-4.2,4.8-5.3l0.8-0.3c-2.9-1-5.5-3-5.5-6.8c0-5.3,5.1-8.4,12.1-8.4
		c2.8,0,5.3,0.5,7.2,1.5c0.8-1.6,2.2-3.1,4.2-3.1c2.6,0,3.3,2.1,2.6,4.4H222.9z M213.9,163.6c0-3.7-1.1-5.9-3.8-5.9
		c-2.6,0-3.7,2.2-3.7,5.6c0,3.7,1.1,6.1,3.8,6.1C212.8,169.4,213.9,167.1,213.9,163.6z"/>
	<path class="st1" d="M259.6,178.7v1.2h-14v-1.2c2.1-0.4,2.6-1,2.6-3.1v-11c0-3.5-1.1-5-3.5-5c-3.2,0-4.9,2.9-4.9,7.7v8.4
		c0,2.1,0.7,2.6,2.8,3.1v1.2h-14.2v-1.2c2.6-0.4,3.1-1,3.1-3.1v-22.1c0-2.1-0.9-4-3.1-4.4v-1.2l10-1.5h1.4v13.9
		c1.7-3,4.7-4.8,8.8-4.8c5.6,0,7.9,3.3,7.9,8.8v11.4C256.5,177.7,256.9,178.3,259.6,178.7z"/>
	<path class="st1" d="M282.5,175.5c-1.4,1.8-4.4,4.9-8.8,4.9c-4.3,0-7.2-2.9-7.2-7.3v-13.7h-3.1v-2.8c3.9-0.4,4.9-1.1,9.3-8.1h2v7.5
		h6.2l-0.6,3.4h-5.6v13.5c0,2.6,1,3.5,2.5,3.5c1.3,0,2.2-0.7,3.8-2L282.5,175.5z"/>
</g>
<polygon class="st1" points="186,214.8 189.6,222.1 197.7,223.3 191.8,229 193.2,237 186,233.2 178.8,237 180.2,229 174.3,223.3 
	182.4,222.1 "/>
</svg>
