<?xml version="1.0" encoding="utf-8"?>
<!-- Generator: Adobe Illustrator 22.0.1, SVG Export Plug-In . SVG Version: 6.00 Build 0)  -->
<svg version="1.1" id="Layer_1" xmlns="http://www.w3.org/2000/svg" xmlns:xlink="http://www.w3.org/1999/xlink" x="0px" y="0px"
	 viewBox="0 0 64 50" style="enable-background:new 0 0 64 50;" xml:space="preserve">
<style type="text/css">
	.st0{fill:#FFFFFF;}
	.st1{fill-rule:evenodd;clip-rule:evenodd;fill:#FFFFFF;}
</style>
<g>
	<path class="st0" d="M47,5.1c0,5.5,0,11,0,16.5c0,0.9-0.7,1.6-1.6,1.6c-14.1,0-14.1,0-28.2,0c-0.9,0-1.6-0.7-1.6-1.6
		c0-5.5,0-11.1,0-16.5c0-0.9,0.7-1.7,1.6-1.7h28.2C46.3,3.4,47,4.2,47,5.1z M26.3,7v12.7L39,13.4L26.3,7L26.3,7z"/>
	<path class="st1" d="M47,28H33.7c-0.4,1-1.3,1.7-2.4,1.7c-1.1,0-2-0.7-2.4-1.7H15.5v-1.8h13.3c0.4-1,1.3-1.7,2.4-1.7
		c1.1,0,2.1,0.7,2.4,1.7H47V28L47,28z"/>
</g>
<path class="st0" d="M12.4,46H5V34.8h2.3v9.2h5.1V46z"/>
<path class="st0" d="M13.8,34.8h2.3V46h-2.3V34.8z"/>
<path class="st0" d="M22.2,41.4l0.3,1.9h0.1l0.3-1.9l2.2-6.6h2.4l-4.4,11.3h-1.6l-4.4-11.3h2.7L22.2,41.4z"/>
<path class="st0" d="M28.5,34.8h6.9v2h-4.7v2.6H35v2h-4.2v2.7h4.7v2h-7V34.8z"/>
<path class="st0" d="M49.1,36.8h-3.4V46h-2.3v-9.2H40v-2h9.1V36.8z"/>
<path class="st0" d="M53.6,41.4l0.3,1.9H54l0.3-1.9l2.2-6.6H59l-4.4,11.3H53l-4.4-11.3h2.7L53.6,41.4z"/>
</svg>
