<?xml version="1.0" encoding="utf-8"?>
<!-- Generator: Adobe Illustrator 16.0.4, SVG Export Plug-In . SVG Version: 6.00 Build 0)  -->
<!DOCTYPE svg PUBLIC "-//W3C//DTD SVG 1.1//EN" "http://www.w3.org/Graphics/SVG/1.1/DTD/svg11.dtd">
<svg version="1.1" id="Layer_1" xmlns="http://www.w3.org/2000/svg" xmlns:xlink="http://www.w3.org/1999/xlink" x="0px" y="0px"
	 width="84.825px" height="18.324px" viewBox="0 0 84.825 18.324" enable-background="new 0 0 84.825 18.324" xml:space="preserve">
<polygon fill="#20407D" points="0,0 84.825,0 84.825,18.324 0,18.324 0,0 "/>
<path fill="#FFFFFF" d="M6.589,2.839H4.666l2.714,9.843l0.917-3.516L6.589,2.839L6.589,2.839z M9.511,6.25l0.969-3.411H8.455
	L9.511,6.25L9.511,6.25z M18.896,2.839h-1.3v5.61h1.223c1.352,0,1.914-0.863,1.914-2.722C20.732,3.412,20.23,2.839,18.896,2.839
	L18.896,2.839z M27.542,11.392L26.144,5.78l-1.504,5.611H27.542L27.542,11.392z M39.258,11.433l-0.155,4.73h-7.128h-1.45h-3.479
	v-0.586h1.585l-0.918-3.6h-3.26l-0.933,3.6h1.554l0.011,0.589c-0.479,0.142-1.103,0.231-1.566,0.249
	c-2.174,0.086-3.083-0.786-3.139-3.208c-0.039-1.722-0.216-2.994-0.605-3.438c-0.425-0.493-0.906-0.735-1.369-0.735h-0.81v6.542
	h1.518v0.586h-5.066v-0.586h1.518V2.839H14.4l-3.604,13.635h-0.527l-1.707-6.265l-1.676,6.265H6.343L2.663,2.839H1.49V2.253h10.495
	v0.586h-1.02L9.763,7.385l1.437,5.3l2.67-9.845h-1.231V2.253h1.409h1.511h3.66c1.673,0,3.698,0.271,3.698,3.184
	c0,2.328-1.788,3.155-3.209,3.379c2.361,0.522,2.888,2.289,2.888,5.634c0,0.601,0.079,0.964,0.398,1.126l3.662-13.634h0.573
	l3.512,13.634h1.234h0.068V2.839h-1.519V2.253h5.144v0.586h-1.595v12.738h1.975c2.327,0,2.626-2.576,2.666-4.144H39.258
	L39.258,11.433z"/>
<polygon fill="none" points="6.589,2.839 4.666,2.839 7.38,12.683 8.297,9.167 6.589,2.839 "/>
<polygon fill="none" points="9.511,6.25 10.48,2.839 8.455,2.839 9.511,6.25 "/>
<path fill="none" d="M18.896,2.839h-1.3v5.61h1.223c1.352,0,1.914-0.863,1.914-2.722C20.732,3.412,20.23,2.839,18.896,2.839
	L18.896,2.839z"/>
<polygon fill="none" points="27.542,11.392 26.144,5.78 24.64,11.392 27.542,11.392 "/>
<path fill="none" d="M39.258,11.433l-0.155,4.73h-7.128h-1.45h-3.479v-0.586h1.585l-0.918-3.6h-3.26l-0.933,3.6h1.554l0.011,0.589
	c-0.479,0.142-1.103,0.231-1.566,0.249c-2.174,0.086-3.083-0.786-3.139-3.208c-0.039-1.722-0.216-2.994-0.605-3.438
	c-0.425-0.493-0.906-0.735-1.369-0.735h-0.81v6.542h1.518v0.586h-5.066v-0.586h1.518V2.839H14.4l-3.604,13.635h-0.527l-1.707-6.265
	l-1.676,6.265H6.343L2.663,2.839H1.49V2.253h10.495v0.586h-1.02L9.763,7.385l1.437,5.3l2.67-9.845h-1.231V2.253h1.409h1.511h3.66
	c1.673,0,3.698,0.271,3.698,3.184c0,2.328-1.788,3.155-3.209,3.379c2.361,0.522,2.888,2.289,2.888,5.634
	c0,0.601,0.079,0.964,0.398,1.126l3.662-13.634h0.573l3.512,13.634h1.234h0.068V2.839h-1.519V2.253h5.144v0.586h-1.595v12.738h1.975
	c2.327,0,2.626-2.576,2.666-4.144H39.258L39.258,11.433z"/>
<g>
	<g>
		<path fill="#FFFFFF" d="M42.342,1.008v4.594c-0.002,0-0.005,0-0.007,0c-1.764,0-3.193,1.43-3.193,3.194
			c0,1.763,1.43,3.193,3.193,3.193c0.002,0,0.005,0,0.007,0v5.315h41.47V1.011L42.342,1.008z"/>
	</g>
</g>
<path fill="#EF4043" d="M40.362,8.743c0-1.046,0.849-1.895,1.895-1.895c1.047,0,1.896,0.849,1.896,1.895s-0.849,1.895-1.896,1.895
	C41.211,10.638,40.362,9.79,40.362,8.743L40.362,8.743z"/>
<g>
	<path fill="#23407D" d="M54.186,5.053c-0.728-0.173-1.494-0.268-2.555-0.268c-3.163,0-4.893,1.86-4.893,4.208
		c0,2.474,1.67,4.287,4.991,4.287c1.08,0,1.866-0.079,2.633-0.268l-0.118-1.75c-0.452,0.158-1.277,0.378-2.024,0.378
		c-1.847,0-2.73-1.15-2.73-2.647c0-1.529,1.041-2.569,2.672-2.569c0.806,0,1.316,0.126,1.788,0.299L54.186,5.053L54.186,5.053z"/>
	<path fill-rule="evenodd" clip-rule="evenodd" fill="#23407D" d="M54.475,9.087c0,2.333,1.945,4.192,5.286,4.192
		c3.359,0,5.305-1.859,5.305-4.192c0-2.679-2.299-4.303-5.305-4.303C56.774,4.785,54.475,6.408,54.475,9.087L54.475,9.087z
		 M57.226,8.835c0-1.213,0.825-2.411,2.535-2.411c1.729,0,2.554,1.166,2.554,2.411c0,1.355-0.53,2.805-2.554,2.805
		C57.757,11.64,57.226,10.175,57.226,8.835L57.226,8.835z"/>
	<path fill="#23407D" d="M66.098,13.09h2.634V9.15c0-1.056,0.216-2.727,1.965-2.727c1.513,0,1.513,1.072,1.513,1.828v4.838h2.633
		V9.15c0-1.056,0.216-2.727,1.965-2.727c1.513,0,1.513,1.072,1.513,1.828v4.838h2.633V7.968c0-1.812-0.707-3.184-3.203-3.184
		c-1.237,0-2.554,0.457-3.162,1.434c-0.57-1.008-1.572-1.434-2.987-1.434c-0.982,0-2.181,0.331-3.006,1.324h-0.04V4.974h-2.456
		V13.09L66.098,13.09z"/>
</g>
</svg>
