<?xml version="1.0" encoding="UTF-8" standalone="no"?>
<svg
   xmlns:dc="http://purl.org/dc/elements/1.1/"
   xmlns:cc="http://creativecommons.org/ns#"
   xmlns:rdf="http://www.w3.org/1999/02/22-rdf-syntax-ns#"
   xmlns:svg="http://www.w3.org/2000/svg"
   xmlns="http://www.w3.org/2000/svg"
   xmlns:sodipodi="http://sodipodi.sourceforge.net/DTD/sodipodi-0.dtd"
   xmlns:inkscape="http://www.inkscape.org/namespaces/inkscape"
   width="56"
   height="56"
   viewBox="0 0 56 56"
   id="svg4526"
   version="1.1"
   inkscape:version="0.91pre2+osxmenu r12820"
   sodipodi:docname="weather-night-mostly-clear.svg">
  <metadata
     id="metadata4534">
    <rdf:RDF>
      <cc:Work
         rdf:about="">
        <dc:format>image/svg+xml</dc:format>
        <dc:type
           rdf:resource="http://purl.org/dc/dcmitype/StillImage" />
        <dc:title></dc:title>
      </cc:Work>
    </rdf:RDF>
  </metadata>
  <defs
     id="defs4532" />
  <sodipodi:namedview
     pagecolor="#ffffff"
     bordercolor="#666666"
     borderopacity="1"
     objecttolerance="10"
     gridtolerance="10"
     guidetolerance="10"
     inkscape:pageopacity="0"
     inkscape:pageshadow="2"
     inkscape:window-width="687"
     inkscape:window-height="480"
     id="namedview4530"
     showgrid="false"
     inkscape:zoom="4.2142857"
     inkscape:cx="28"
     inkscape:cy="28"
     inkscape:window-x="519"
     inkscape:window-y="195"
     inkscape:window-maximized="0"
     inkscape:current-layer="svg4526" />
  <path
     d="M29.338 0c3.156 2.908 5.136 7.074 5.136 11.706 0 8.789-7.123 15.913-15.913 15.913-.991 0-1.958-.096-2.898-.27 2.835 2.612 6.617 4.207 10.776 4.207 8.788 0 15.913-7.124 15.913-15.913 0-7.796-5.612-14.281-13.014-15.643z"
     fill="#A8A7A8"
     id="path4528" />
  <path
     inkscape:connector-curvature="0"
     style="fill:#d8d9d9"
     d="m 49.091577,20.666678 c -0.493,0 -0.973,0.066 -1.43,0.191 -0.855,-2.519 -3.167,-4.323 -5.886,-4.323 -3.333,0 -6.055,2.709 -6.233,6.118 -0.204,-0.026 -0.41,-0.048 -0.622,-0.048 -2.593001,0.002 -4.694001,2.182 -4.694001,4.871 0,2.689 2.102,4.871 4.694001,4.871 l 14.172,0 c 3.11,0 5.63,-2.614 5.63,-5.841 0,-3.224 -2.521,-5.839 -5.631,-5.839 z"
     id="path5130" />
</svg>
