<svg xmlns="http://www.w3.org/2000/svg" viewBox="0 0 256 60"><path d="M147.9 16v35.8h9.1V60h-17.8V16h8.7zm-14.1-6.8v8.2H125V27h7.8v8.2H125v9.9h8.9v8.2h-17.6v-44l17.5-.1zM90.1 7.5l5.2 21.1c.8 2.5 1.1 5 1.6 7.5h.1c.5-2.6.6-5.1 1.3-7.6l5.3-21h9.1l-12.2 44h-7.1l-12.7-44h9.4zM73.4 40.6h-6.1l1.9-11.7.9-6.7h.1l1 6.7 2.2 11.7zm-7.5-29.7l-10.2 44h8.6l1.6-7.4h8.8l1.6 7.4h9.3L75 10.9h-9.1zm-29.8 5.5h1.2c4.4-.2 5.9 2.3 5.9 5.5 0 3.6-1.6 6.3-5.5 6.3l-1.7-.1.1-11.7zM36 53.2V32.9h.1l7.6 20.3h9.2l-7.6-20c4.3-2.4 6.2-6.5 6.2-11.4 0-12-9.9-12.6-15.5-12.6h-8.8v44H36zM23.4 13.4v8.2h-6.9v35.8H7.8V21.6H1v-8.2h22.4z"/><path d="M180.7 2.5l-15.1 35.8h13.8v8.2h-26.5l14.7-35.8h-12.8V2.5h25.9zm11.7 29.6c0-3.9.4-14.6 6.2-14.6s6.2 10.7 6.2 14.7c0 3.5-.4 14.6-6.2 14.6-5.8-.1-6.2-11.2-6.2-14.7zm6.2-22.7c-7.8 0-15.5 6.2-15.5 22.7s7.7 22.7 15.5 22.7 15.5-6.2 15.5-22.7-7.8-22.7-15.5-22.7zm27.8 20.1c0-3.9.4-14.6 6.2-14.6s6.2 10.7 6.2 14.6c0 3.5-.4 14.7-6.2 14.7s-6.2-11.2-6.2-14.7zm6.1-22.7c-7.8 0-15.5 6.2-15.5 22.7s7.7 22.7 15.5 22.7S248 46 248 29.5s-7.7-22.7-15.5-22.7z"/><path fill="#00C" stroke="#000" stroke-width=".257" d="M25.6 11.5v8.2h-6.9v35.8H10V19.7H3.2v-8.2h22.4zm12.7 2.9h1.2c4.4-.2 5.9 2.3 5.9 5.5 0 3.6-1.6 6.3-5.5 6.3l-1.5-.1-.1-11.7zm0 36.8V30.9h.1L46 51.2h9.2l-7.6-20c4.3-2.4 6.2-6.5 6.2-11.4 0-12-9.9-12.6-15.5-12.6h-8.8v44h8.8zm37.3-12.6h-6.1l1.9-11.7.9-6.7h.1l1 6.7 2.2 11.7zM68.1 8.9l-10.2 44h8.6l1.6-7.4h8.8l1.6 7.4h9.3l-10.6-44h-9.1zm24.2-3.3l5.2 21.1c.8 2.5 1 5 1.6 7.5h.1c.5-2.6.6-5.1 1.3-7.6l5.3-21h9.1l-12.2 44h-7.1l-12.7-44h9.4zm43.8 1.7v8.2h-8.8v9.6h7.8v8.2h-7.8v9.9h8.9v8.2h-17.6v-44l17.5-.1zm14 6.7v35.8h9.1V58h-17.8V14h8.7z"/><path fill="#F00" stroke="#000" stroke-width=".257" d="M182.9.5l-15.1 35.8h13.8v8.2h-26.5l14.7-35.8H157V.5h25.9zm11.7 29.6c0-3.9.4-14.7 6.2-14.7s6.2 10.7 6.2 14.7c0 3.5-.4 14.6-6.2 14.6-5.8.1-6.2-11.1-6.2-14.6zm6.2-22.7c-7.8 0-15.5 6.2-15.5 22.7s7.7 22.7 15.5 22.7 15.5-6.2 15.5-22.7-7.7-22.7-15.5-22.7zm27.8 20.2c0-3.9.4-14.6 6.2-14.6s6.2 10.7 6.2 14.6c0 3.5-.4 14.6-6.2 14.7-5.8-.1-6.2-11.2-6.2-14.7zm6.2-22.7c-7.8 0-15.5 6.2-15.5 22.7s7.7 22.7 15.5 22.7 15.5-6.2 15.5-22.7c-.1-16.5-7.8-22.7-15.5-22.7z"/><path d="M246.2 4.8c0-2.3 1.7-4 4-4 2.2 0 3.9 1.7 3.9 4s-1.7 4.1-3.9 4c-2.3.1-4-1.6-4-4zm3.9 4.9c2.6 0 4.9-2.1 4.9-4.9 0-2.8-2.3-4.8-4.9-4.8-2.7 0-4.9 2-4.9 4.8s2.2 4.9 4.9 4.9zm-1-4.5h1l1.5 2.4h1L251 5.1c.8-.1 1.4-.5 1.4-1.5 0-1.1-.7-1.6-2-1.6h-2.1v5.6h.9l-.1-2.4zm0-.7V2.8h1.2c.6 0 1.2.1 1.2.8 0 .9-.6.9-1.4.9h-1z"/></svg>