<svg id="Layer_1" data-name="Layer 1" xmlns="http://www.w3.org/2000/svg" width="132" height="132" viewBox="0 0 132 132"><defs><style>.cls-1{fill:#fff;}</style></defs><title>apple-icon-white</title><g id="Layer_2" data-name="Layer 2"><rect class="cls-1" width="132" height="132"/></g><g id="Layer_3" data-name="Layer 3"><g id="_Continue_with_Appl" data-name=" Continue with Appl"><path d="M87.94,49.86A13.18,13.18,0,0,0,81.66,61a12.89,12.89,0,0,0,7.79,11.81,31.1208,31.1208,0,0,1-4,8.27c-2.45,3.52-5.1,7.13-9.05,7.13s-5-2.33-9.55-2.33-6.06,2.41-9.67,2.41S51,84.94,48.12,80.88A35.75,35.75,0,0,1,42,61.55c0-11.32,7.37-17.34,14.63-17.34,3.83,0,7,2.52,9.47,2.52s5.9-2.67,10.3-2.67A13.68,13.68,0,0,1,87.94,49.86ZM66.43,43.42a4.2025,4.2025,0,0,1-.79-.07,5.8315,5.8315,0,0,1-.11-1.05,12.69,12.69,0,0,1,3.2-7.9A13,13,0,0,1,77.3,30a5.2488,5.2488,0,0,1,.11,1.16,13.16,13.16,0,0,1-3.08,8.17C72.38,41.65,69.07,43.42,66.43,43.42Z"/></g></g></svg>