<svg xmlns="http://www.w3.org/2000/svg" width="48" height="48" viewBox="0 0 48 48"><path fill="#fff" d="M47 9.7c-1.7.8-3.5 1.3-5.4 1.5 1.9-1.2 3.4-3 4.2-5.2-1.8 1.1-3.8 1.9-6 2.3-1.7-1.8-4.2-3-6.9-3-5.2 0-9.4 4.2-9.4 9.4 0 .7.1 1.5.2 2.2-7.9-.4-14.8-4.2-19.5-9.9-.8 1.4-1.3 3-1.3 4.7 0 3.3 1.7 6.2 4.2 7.9-1.5 0-3-.5-4.3-1.2v.1c0 4.6 3.3 8.4 7.6 9.3-.8.2-1.6.3-2.5.3-.6 0-1.2-.1-1.8-.2 1.2 3.7 4.7 6.5 8.8 6.6-3.2 2.5-7.3 4-11.7 4-.8 0-1.5 0-2.3-.1 4.2 2.7 9.1 4.2 14.5 4.2 17.4 0 26.9-14.4 26.9-26.9v-1.2c1.8-1.2 3.4-2.9 4.7-4.8z"/></svg>