<svg id="Layer_1" data-name="Layer 1" xmlns="http://www.w3.org/2000/svg" width="128.28" height="128.3287" viewBox="0 0 128.28 128.3287"><defs><style>.cls-1{fill:#2968b1;}</style></defs><title>linkedin</title><path class="cls-1" d="M0,119.7546c.0145-.3981.0416-.7961.0417-1.1941Q.0446,64.1642.0417,9.768C.0416,9.37.0145,8.9719,0,8.5739A9.3965,9.3965,0,0,1,9.6771.0025q54.509-.0049,109.0178,0A9.3212,9.3212,0,0,1,128.279,9.61q.002,54.5537,0,109.1073a9.3247,9.3247,0,0,1-9.5885,9.6085q-54.5688.0071-109.1376,0A9.3892,9.3892,0,0,1,0,119.7546Zm69.0177-10.5717v-1.4538c0-10.0184-.0256-20.0371.0234-30.0553a29.89,29.89,0,0,1,.5245-5.4628c.7671-3.9931,2.6458-7.2,6.8631-8.3787a18.9393,18.9393,0,0,1,3.5371-.5082c4.7578-.3912,8.3076,1.9844,9.4206,6.6336a34.7588,34.7588,0,0,1,.9156,7.6842c.1012,10.0574.0414,20.1164.0414,30.1748v1.3451h18.8332a2.2644,2.2644,0,0,0,.09-.4093c.0117-11.2552.125-22.5118-.027-33.7649a71.1265,71.1265,0,0,0-1.2062-12.3435c-1.4-7.317-5.307-12.8365-12.8513-14.8509a42.3652,42.3652,0,0,0-8.8585-1.1154,18.8668,18.8668,0,0,0-14.42,5.5729,56.33,56.33,0,0,0-3.6685,4.3154V48.2032H50.07v60.98Zm-31.0869-.009V48.2449H19.073v60.929ZM28.57,39.73A11.0011,11.0011,0,1,0,17.5359,28.8106,11.0478,11.0478,0,0,0,28.57,39.73Z"/></svg>