<svg xmlns="http://www.w3.org/2000/svg" width="48" height="48" viewBox="0 0 48 48"><path fill="#bd081c" d="M24 0C10.748 0 0 10.745 0 24c0 10.168 6.326 18.854 15.255 22.35-.21-1.898-.4-4.812.083-6.883.437-1.873 2.815-11.933 2.815-11.933s-.72-1.438-.72-3.562c0-3.337 1.935-5.83 4.344-5.83 2.048 0 3.037 1.537 3.037 3.38 0 2.06-1.31 5.14-1.988 7.992-.565 2.39 1.198 4.337 3.553 4.337 4.265 0 7.545-4.497 7.545-10.99 0-5.746-4.13-9.764-10.025-9.764-6.83 0-10.837 5.123-10.837 10.417 0 2.06.794 4.274 1.786 5.476.195.236.224.445.166.688-.183.758-.587 2.388-.667 2.72-.105.44-.35.533-.805.323-2.997-1.395-4.87-5.777-4.87-9.297 0-7.57 5.5-14.524 15.857-14.524 8.324 0 14.797 5.932 14.797 13.86 0 8.272-5.22 14.93-12.457 14.93-2.432 0-4.717-1.264-5.5-2.758 0 0-1.204 4.584-1.495 5.706-.543 2.085-2.006 4.698-2.985 6.292C19.14 47.625 21.526 48 24 48c13.256 0 24-10.743 24-24C48 10.745 37.256 0 24 0"></path></svg>