<svg xmlns="http://www.w3.org/2000/svg" width="48" height="48" viewBox="0 0 48 48"><path fill="#0276ee" d="M5.8 9.2C5.8 4.1 9.9 0 15 0c2.9 0 5.5 1.4 7.2 3.5-3 2.6-4.9 6.4-4.9 10.6 0 1.3.2 2.6.5 3.8-.8.3-1.8.5-2.8.5-5.1 0-9.2-4.1-9.2-9.2zm16 15.2c-1.2-1.1-2.2-2.4-2.9-3.9-1.2-.3-2.5-.5-3.9-.5-8.3 0-15 6.7-15 15 0 2.8 2.2 5 5 5h6.1c.8-6.8 4.9-12.5 10.7-15.6zm9.7 1.6C22.4 26 15 33.4 15 42.5c0 3 2.5 5.5 5.5 5.5h22.1c3 0 5.5-2.5 5.5-5.5C48 33.4 40.6 26 31.5 26zm10.1-11.9c0 5.6-4.5 10.1-10.1 10.1s-10.1-4.5-10.1-10.1C21.3 8.5 25.9 4 31.5 4 37 4 41.6 8.5 41.6 14.1z"/></svg>