<svg xmlns="http://www.w3.org/2000/svg" viewBox="0 0 96 78"><path fill="#fff" d="M85.8 69.4C92 65 96 58.4 96 51c0-13.4-13-24.2-29-24.2S38 37.6 38 51c0 13.4 13 24.2 29 24.2 3.5 0 6.8-.5 9.9-1.4.5-.2 1.1-.1 1.6.2l6.3 3.6c1.4.8 2.2.2 1.8-1.4L85.2 71c-.1-.6.1-1.2.6-1.6zM57.4 47.2c-2.2 0-3.9-1.8-3.9-3.9 0-2.2 1.8-3.9 3.9-3.9 2.2 0 3.9 1.8 3.9 3.9 0 2.1-1.8 3.9-3.9 3.9zm19.2 0c-2.2 0-3.9-1.8-3.9-3.9 0-2.2 1.8-3.9 3.9-3.9 2.2 0 3.9 1.8 3.9 3.9 0 2.1-1.8 3.9-3.9 3.9zM34.8.1C15.6.1 0 13.1 0 29.1c0 8.8 4.7 16.7 12.1 22 .7.5 1 1.4.8 2.2l-1.6 6.1c-.5 1.8.5 2.6 2.1 1.6l7.5-4.4c.7-.4 1.5-.5 2.2-.3 3.7 1.1 7.6 1.7 11.7 1.7h1.9c-.8-2.3-1.2-4.7-1.2-7.1 0-14.6 14.3-26.4 31.9-26.4h1.8C66.6 10.7 52.2.1 34.8.1zM23.1 24.4c-2.6 0-4.6-2.1-4.6-4.6 0-2.6 2.1-4.6 4.6-4.6s4.6 2.1 4.6 4.6c.1 2.5-2 4.6-4.6 4.6zm23.3 0c-2.6 0-4.6-2.1-4.6-4.6 0-2.6 2.1-4.6 4.6-4.6 2.6 0 4.6 2.1 4.6 4.6 0 2.5-2.1 4.6-4.6 4.6z"/></svg>