<svg xmlns="http://www.w3.org/2000/svg" width="64" height="64" viewBox="0 0 64 64"><path fill="#919191" d="M32 3c16 0 29 13 29 29S48 61 32 61 3 48 3 32 16 3 32 3m0-3C14.3 0 0 14.3 0 32s14.3 32 32 32 32-14.3 32-32S49.7 0 32 0m-3.9 39.8l-2 2 3.3 3.3-3.9 3.9-3.3-3.3-2.5 2.5c-1.1 1.1-2.9 1.1-4 0s-1.1-2.9 0-4l15.9-15.9c-.7-1.3-1-2.7-1-4.2 0-5.1 4.1-9.2 9.2-9.2S49 19 49 24.1s-4.1 9.2-9.2 9.2c-1.5 0-2.9-.4-4.2-1L32 35.9l2.6 2.6-3.9 3.9-2.6-2.6zm11.7-10.4c2.9 0 5.2-2.3 5.2-5.2 0-2.9-2.3-5.2-5.2-5.2s-5.2 2.3-5.2 5.2c0 2.8 2.4 5.2 5.2 5.2z"/></svg>