<?xml version="1.0" encoding="UTF-8"?>
<svg width="240px" height="80px" viewBox="0 0 240 80" version="1.1" xmlns="http://www.w3.org/2000/svg" xmlns:xlink="http://www.w3.org/1999/xlink">
    <!-- Generator: Sketch 55.2 (78181) - https://sketchapp.com -->
    <title>Logo / App / Android</title>
    <desc>Created with Sketch.</desc>
    <defs>
        <path d="M230.551562,77.3627323 L10.1455067,77.3627323 C5.38271061,77.3627323 1.52150091,73.5008272 1.52150091,68.7380311 L1.52150091,9.97184498 C1.52150091,5.2087012 5.38271061,1.34749149 10.1455067,1.34749149 L230.551562,1.34749149 C235.314706,1.34749149 239.175568,5.2087012 239.175568,9.97184498 L239.175568,68.7380311 C239.175568,73.5008272 235.314706,77.3627323 230.551562,77.3627323 Z" id="path-1"></path>
    </defs>
    <g id="Logo-/-App-/-Android" stroke="none" stroke-width="1" fill="none" fill-rule="evenodd">
        <mask id="mask-2" fill="white">
            <use xlink:href="#path-1"></use>
        </mask>
        <use id="BG" stroke="#FFFFFF" fill="#100F0D" xlink:href="#path-1"></use>
        <g id="Droid" mask="url(#mask-2)" fill="#FFFFFF">
            <g transform="translate(16.390800, 11.257298)">
                <path d="M59.7086534,29.3007171 L15.145669,29.3007171 C14.1554191,29.3007171 13.3518841,30.1049475 13.3518841,31.0948497 L13.3518841,68.464962 C13.3518841,69.456255 14.1554191,70.2604853 15.145669,70.2604853 L23.0906164,70.2604853 L23.0906164,82.8534879 C23.0906164,85.776255 25.459845,88.1451358 28.3812213,88.1451358 C31.3036407,88.1451358 33.6725216,85.776255 33.6725216,82.8534879 L33.6725216,70.2604853 L41.072623,70.2604853 L41.072623,82.8534879 C41.072623,85.776255 43.4418515,88.1451358 46.3635755,88.1451358 C49.2856472,88.1451358 51.6541804,85.776255 51.6541804,82.8534879 L51.6541804,70.2604853 L59.7086534,70.2604853 C60.7009895,70.2604853 61.5041767,69.456255 61.5041767,68.464962 L61.5041767,31.0948497 C61.5041767,30.1049475 60.7009895,29.3007171 59.7086534,29.3007171" id="Fill-13"></path>
                <path d="M69.048678,29.2915726 C66.1259109,29.2915726 63.7573778,31.6604535 63.7573778,34.5825252 L63.7573778,56.0731735 C63.7573778,58.9945498 66.1259109,61.3630829 69.048678,61.3630829 C71.9700543,61.3630829 74.3392829,58.9945498 74.3392829,56.0731735 L74.3392829,34.5825252 C74.3392829,31.6604535 71.9700543,29.2915726 69.048678,29.2915726" id="Fill-20"></path>
                <path d="M15.5071032,26.679406 L59.2436045,26.679406 C60.3833654,26.679406 61.234883,25.6286563 60.9998377,24.5114958 C59.553753,17.6169504 55.1647345,11.8058385 49.2072409,8.44879392 L52.9457124,1.70375951 C53.1991858,1.24722926 53.0340283,0.670742485 52.5771503,0.418659906 C52.1192293,0.164143426 51.5455241,0.330691778 51.2920507,0.786874321 L47.5250677,7.58302064 C44.4392293,6.151887 41.0008229,5.35217675 37.3760493,5.35217675 C33.7488417,5.35217675 30.3104353,6.151887 27.22564,7.58302064 L23.4579616,0.785831221 C23.2044882,0.329300978 22.6293922,0.165534227 22.1725143,0.417964506 C21.7159841,0.670742485 21.5511742,1.24653386 21.8039522,1.70271641 L25.5427715,8.44879392 C19.5863209,11.8058385 15.1955639,17.6169504 13.7494792,24.5114958 C13.5151293,25.6286563 14.3662992,26.679406 15.5071032,26.679406 M50.4248866,16.6263528 C50.4248866,17.7494241 49.5153032,18.6600507 48.3922318,18.6600507 C47.2688127,18.6600507 46.3581862,17.7494241 46.3581862,16.6263528 C46.3581862,15.5029337 47.2688127,14.5923071 48.3922318,14.5923071 C49.5153032,14.5923071 50.4248866,15.5029337 50.4248866,16.6263528 M26.3577805,14.5923071 C27.4811996,14.5923071 28.3918261,15.5029337 28.3918261,16.6263528 C28.3918261,17.7494241 27.4811996,18.6600507 26.3577805,18.6600507 C25.2354046,18.6600507 24.3237349,17.7494241 24.3237349,16.6263528 C24.3237349,15.5029337 25.2343615,14.5923071 26.3577805,14.5923071" id="Fill-22"></path>
                <path d="M5.80717421,29.2915726 C2.8854502,29.2915726 0.516221659,31.6604535 0.516221659,34.5825252 L0.516221659,56.0731735 C0.516221659,58.9945498 2.8844071,61.3630829 5.80717421,61.3630829 C8.72855053,61.3630829 11.0977791,58.9945498 11.0977791,56.0731735 L11.0977791,34.5825252 C11.0977791,31.6604535 8.72855053,29.2915726 5.80717421,29.2915726" id="Fill-16"></path>
            </g>
        </g>
        <g id="Android" mask="url(#mask-2)" font-family="ArialMT, Arial" font-size="32.5968852" font-weight="normal">
            <g transform="translate(110.916335, 24.553205)">
                <text id="A">
                    <tspan x="0.0122390438" y="30.1366711" fill="#FFFFFF">A</tspan>
                </text>
                <text id="n">
                    <tspan x="21.7543441" y="30.1366711" fill="#FFFFFF">n</tspan>
                </text>
                <text id="d">
                    <tspan x="39.8782122" y="30.1366711" fill="#FFFFFF">d</tspan>
                </text>
                <text id="r">
                    <tspan x="58.0020804" y="30.1366711" fill="#FFFFFF">r</tspan>
                </text>
                <text id="o">
                    <tspan x="68.8568606" y="30.1366711" fill="#FFFFFF">o</tspan>
                </text>
                <text id="i">
                    <tspan x="86.9807287" y="30.1366711" fill="#FFFFFF">i</tspan>
                </text>
                <text id="d">
                    <tspan x="94.2172372" y="30.1366711" fill="#FFFFFF">d</tspan>
                </text>
            </g>
        </g>
        <g id="Download" mask="url(#mask-2)" font-family="ArialMT, Arial" font-size="15.2118798" font-weight="normal">
            <g transform="translate(110.568635, 12.036001)">
                <text id="D">
                    <tspan x="0.309835567" y="14.1312383" fill="#FFFFFF">D</tspan>
                </text>
                <text id="o">
                    <tspan x="11.292778" y="14.1312383" fill="#FFFFFF">o</tspan>
                </text>
                <text id="w">
                    <tspan x="19.7506527" y="14.1312383" fill="#FFFFFF">w</tspan>
                </text>
                <text id="n">
                    <tspan x="30.7335951" y="14.1312383" fill="#FFFFFF">n</tspan>
                </text>
                <text id="l">
                    <tspan x="39.1914698" y="14.1312383" fill="#FFFFFF">l</tspan>
                </text>
                <text id="o">
                    <tspan x="42.5684723" y="14.1312383" fill="#FFFFFF">o</tspan>
                </text>
                <text id="a">
                    <tspan x="51.026347" y="14.1312383" fill="#FFFFFF">a</tspan>
                </text>
                <text id="d">
                    <tspan x="59.4840478" y="14.1312383" fill="#FFFFFF">d</tspan>
                </text>
                <text id="-"></text>
                <text id="f">
                    <tspan x="72.1710337" y="14.1312383" fill="#FFFFFF">f</tspan>
                </text>
                <text id="o">
                    <tspan x="76.4140529" y="14.1312383" fill="#FFFFFF">o</tspan>
                </text>
                <text id="r">
                    <tspan x="84.8721014" y="14.1312383" fill="#FFFFFF">r</tspan>
                </text>
            </g>
        </g>
    </g>
</svg>