<?xml version="1.0" encoding="utf-8"?>
<!-- Generator: Adobe Illustrator 16.0.0, SVG Export Plug-In . SVG Version: 6.00 Build 0)  -->
<!DOCTYPE svg PUBLIC "-//W3C//DTD SVG 1.1//EN" "http://www.w3.org/Graphics/SVG/1.1/DTD/svg11.dtd">
<svg version="1.1" id="Layer_1" xmlns="http://www.w3.org/2000/svg" xmlns:xlink="http://www.w3.org/1999/xlink" x="0px" y="0px"
	 width="178.152px" height="61.177px" viewBox="0 0 178.152 61.177" enable-background="new 0 0 178.152 61.177"
	 xml:space="preserve">
<g>
	<defs>
		<rect id="SVGID_1_" width="178.152" height="61.177"/>
	</defs>
	<clipPath id="SVGID_2_">
		<use xlink:href="#SVGID_1_"  overflow="visible"/>
	</clipPath>
	<path clip-path="url(#SVGID_2_)" fill-rule="evenodd" clip-rule="evenodd" fill="#FFFFFF" d="M43.3,31.01
		c0-12.255,4.538-19.98,9.946-20.782C47.841,3.562,38.798,0,30.583,0C21.546,0,13.42,3.919,7.82,10.156
		c5.347,1.068,7.166,5.544,7.166,12.462H8.449c0-4.074-0.86-6.198-3.28-6.198c-1.077,0-1.919,0.549-2.425,1.49
		c-0.077,0.159-0.153,0.322-0.213,0.486c-0.194,0.517-0.289,1.113-0.289,1.796c0,8.478,13.914,8.053,13.914,21.076
		c0,5.091-3.897,9.835-8.281,9.835c5.761,6.299,13.638,10.074,22.708,10.074c8.823,0,16.77-3.739,22.345-9.707
		C47.792,50.165,43.3,42.766,43.3,31.01 M40.393,51.207h-7.002V33.789h-7.569v17.418H18.82V11.03h7.002v16.192h7.569V11.03h7.002
		V51.207z"/>
	<path clip-path="url(#SVGID_2_)" fill-rule="evenodd" clip-rule="evenodd" fill="#FFFFFF" d="M6.046,44.798
		c1.953,0,3.342-1.713,3.342-4.212c0-5.174-4.529-6.189-9.387-10.553C-0.069,38.903,2.679,44.798,6.046,44.798"/>
	<path clip-path="url(#SVGID_2_)" fill-rule="evenodd" clip-rule="evenodd" fill="#FFFFFF" d="M50.249,30.358
		c0-6.748,1.976-13.515,5.562-13.515c4.281,0,5.356,10.448,5.356,13.746c0,7.244-2.282,13.794-5.356,13.794
		C52.134,44.383,50.249,37.494,50.249,30.358"/>
	<polygon clip-path="url(#SVGID_2_)" fill="#FFFFFF" points="120.161,11.592 90.655,11.592 87.857,34.523 87.746,34.523 
		84.627,11.592 78.208,11.592 74.792,34.523 74.685,34.523 72.168,11.592 65.684,11.592 70.901,50.669 77.152,50.669 80.675,25.908 
		80.781,25.908 84.179,50.669 90.655,50.669 94.973,17.624 101.027,17.624 101.027,50.669 108.156,50.669 108.156,17.624 
		114.697,17.624 114.697,50.669 121.817,50.669 121.817,11.592 	"/>
	<polygon clip-path="url(#SVGID_2_)" fill="#FFFFFF" points="125.338,11.592 134.829,11.592 138.017,31.619 138.122,31.619 
		141.477,11.592 150.748,11.592 150.748,50.669 144.38,50.669 144.38,22.015 144.273,22.015 139.443,50.669 135.487,50.669 
		130.713,22.015 130.604,22.015 130.604,50.669 125.338,50.669 	"/>
	<polygon clip-path="url(#SVGID_2_)" fill="#FFFFFF" points="154.247,11.592 170.38,11.592 170.38,17.624 161.383,17.624 
		161.383,27.616 168.027,27.616 168.027,33.986 161.383,33.986 161.383,44.628 170.765,44.628 170.765,50.669 154.247,50.669 	"/>
	<path clip-path="url(#SVGID_2_)" fill="#FFFFFF" d="M172.913,48.062c0-0.637,0.254-1.247,0.705-1.7
		c0.454-0.442,1.059-0.697,1.707-0.697c0.646,0,1.252,0.255,1.713,0.697c0.447,0.453,0.701,1.063,0.701,1.7
		c0,1.347-1.08,2.417-2.414,2.417c-0.648,0-1.253-0.239-1.707-0.693C173.167,49.331,172.913,48.721,172.913,48.062 M173.326,50.073
		c0.538,0.542,1.242,0.834,1.999,0.834c1.566,0,2.827-1.26,2.827-2.845c0-0.737-0.291-1.447-0.818-1.995
		c-0.546-0.528-1.251-0.826-2.009-0.826c-0.757,0-1.461,0.298-1.999,0.826c-0.534,0.548-0.832,1.258-0.832,1.995
		C172.494,48.825,172.792,49.53,173.326,50.073"/>
	<path clip-path="url(#SVGID_2_)" fill="#FFFFFF" d="M174.663,47.972v-1.139h0.794c0.165,0,0.307,0,0.446,0.096
		c0.152,0.096,0.229,0.26,0.229,0.435c0,0.161-0.052,0.317-0.174,0.436c-0.148,0.165-0.337,0.173-0.549,0.173H174.663
		 M176.556,49.679l-0.621-1.486c0.369-0.094,0.59-0.433,0.59-0.814c0-0.273-0.123-0.543-0.335-0.705
		c-0.218-0.16-0.464-0.195-0.732-0.195h-1.194v3.201h0.4v-1.377h0.885l0.591,1.377H176.556z"/>
</g>
</svg>
