<?xml version="1.0" encoding="utf-8"?>
<!-- Generator: Adobe Illustrator 22.1.0, SVG Export Plug-In . SVG Version: 6.00 Build 0)  -->
<svg version="1.1" id="Layer_1" xmlns="http://www.w3.org/2000/svg" xmlns:xlink="http://www.w3.org/1999/xlink" x="0px" y="0px"
	 viewBox="0 0 400 500" style="enable-background:new 0 0 400 500;" xml:space="preserve">
<style type="text/css">
	.st0{fill:#64B145;}
	.st1{fill:#1E2C56;}
	.st2{fill:#FFFFFF;}
	.st3{fill:#ADAFB1;}
</style>
<path class="st0" d="M20.5,16c28.1,12.1,64.4,57.2,71.8,84.7c-47,40.1-66.4,89.7-65.9,138.6c0.6,48.7,34.4,130.6,104.3,157.7
	c-110.6-86.7-55.6-270.5-6.9-290.6C120.4,78.9,48.3,13.2,20.5,16z"/>
<path class="st0" d="M189.9,218.3c-15.7,2.9-23.4,4.4-46.4,18.9c-23.1,14.5-68.1,90.4-6.9,143.6c-32-44.1-27.3-71.7-17.8-100.2
	c9.5-28.6,38.9-49.5,70.6-56.2C189.7,221.1,189.9,218.3,189.9,218.3z"/>
<path class="st0" d="M400,147.9c-18.9-14-28-27.4-35.3-40.4c-8.7-15.5-29.4-33.2-46.6-40.9c-25.3-11.2-50.4-17.9-94.5-15.5
	c-14.9,0.8-31.4,0.6-47-8.2c-11.8-6.7-51.6-30.3-60.3-34.6C94-2.5,49-5.5,19.3,16"/>
<path class="st1" d="M137.1,380.3c8.1-11.3,26-30.4,55.5-26.8c20.2,2.4,48.4,7.6,61.5,7.8c-15.9,23.2-40.3,39.8-85.8,46.8l0.2,1.4
	c12.5,20.4,3.4,70.8-9.5,89.9c-5.2-21.4-28.2-38.7-34.1-58.8c-5.2-17.5-0.8-35.8,4.8-48.4C131,389.2,136.1,381.7,137.1,380.3z"/>
<path class="st1" d="M184,217c13.2-6.8,10.4-13.4,18.7-15c16.4-3.2,24,4.5,34.2-4.7c13.2-11.7,38.4,3.3,44.9-9.1
	c9-17,32.7-18.5,57.5-20.8c18.8-1.7,48.7-0.6,60.7-19.6c-13-7.4-22.8-14.3-30.5-22.9c-8.3-9.2-18.3-22.9-24.9-29.2
	c-21.8-20.9-46.3-29.9-74.4-33c-33.4-3.7-54.8-1.3-66.2-0.2c-13.9,1.4-24.9-4.6-33.4-10c-8.5-5.3-51-36.4-67.4-42.8
	c-16.4-6.4-50.7-8-75.3,5c31.8,16.7,68.4,59.3,81.4,87.9c-31.2,23.2-59,55-68.8,100.8c-10.3,48,6.1,96.8,20.8,125.7
	c12.3,24.3,36.8,54.4,69.4,68.2c1.1-2.8,1.8-3.6,2.8-5.3c-43.5-34-65.9-79-41-136.3c-8,5.4-10.1,14.5-16,28.5
	c4.8-59.5,63.8-105.3,131.3-107.6C193,196,185.6,194.2,184,217z"/>
<path class="st1" d="M138.2,382.6c0,0-0.3-0.2-1-0.7c-0.6-0.5-1.7-1.1-2.9-2.1c-0.6-0.5-1.3-1-2.1-1.6c-0.7-0.6-1.5-1.3-2.4-2.1
	c-0.9-0.7-1.7-1.6-2.7-2.5c-0.9-0.9-1.9-1.9-2.9-3c-4-4.3-8.5-10-12.6-17.2c-4-7.2-7.8-15.9-10.1-25.9c-2.3-10-3.6-21.2-2-33.1
	c0.2-1.5,0.4-3,0.7-4.5l0.2-1.1l0.3-1.1c0.2-0.7,0.3-1.4,0.5-2.1c0.8-3.1,1.7-6,2.8-9c2.2-5.9,5.2-11.7,8.8-17.1
	c3.6-5.5,7.8-10.6,12.6-15.3c2.4-2.4,4.9-4.6,7.5-6.8c2.6-2.1,5.3-4.2,8.2-6.1c11.3-7.7,23.9-13.4,37-17.6c3.3-1,6.5-2,9.9-2.8
	c1.6-0.4,3.2-0.8,4.9-1.2c1.7-0.4,3.4-0.8,5-1.1c6.7-1.3,13.4-2.3,20-2.9c13.4-1.3,26.5-1,39.1-0.2c12.6,0.8,24.5,2.1,35.8,2.8
	c5.6,0.3,11.1,0.5,16.4,0.5c5.3,0,10.4-0.2,15.3-0.5c4.9-0.3,9.6-0.8,14-1.4c4.4-0.6,8.6-1.4,12.4-2.3c7.7-1.9,14.2-4.5,19.2-7.2
	c5-2.8,8.7-5.5,11.1-7.4c2.4-1.9,3.7-3,3.7-3s-0.3,0.3-0.8,0.9c-0.6,0.6-1.4,1.5-2.5,2.6c-2.2,2.2-5.6,5.4-10.5,8.7
	c-4.9,3.3-11.3,6.7-19.2,9.3c-3.9,1.3-8.2,2.5-12.7,3.5c-4.5,1-9.3,1.7-14.3,2.4c-5,0.6-10.2,1.2-15.7,1.5
	c-5.5,0.3-11.1,0.4-16.9,0.3c-5.8-0.1-11.7-0.3-17.7-0.6c-6-0.3-12.1-0.6-18.2-0.8c-6.2-0.2-12.4-0.3-18.7-0.2
	c-6.3,0.2-12.6,0.5-18.9,1.2c-6.3,0.7-12.7,1.7-19,3c-1.6,0.3-3.1,0.7-4.7,1c-1.5,0.3-3.2,0.8-4.8,1.2c-1.5,0.4-3.1,0.8-4.6,1.3
	c-1.5,0.4-3.1,0.9-4.6,1.4c-6.1,1.9-12.1,4.2-17.9,6.9c-5.8,2.7-11.4,5.7-16.6,9.2c-10.5,6.8-19.5,15.4-26.3,25
	c-3.4,4.8-6.2,9.9-8.5,15.1c-1.1,2.6-2.1,5.3-2.9,7.9c-0.2,0.7-0.4,1.4-0.6,2.1l-0.3,1l-0.2,1c-0.3,1.3-0.6,2.7-0.8,4
	c-1.8,10.7-1.4,21.3,0.2,30.8c1.7,9.5,4.5,18.1,7.8,25.3c3.4,7.2,7.1,13.1,10.6,17.6c3.5,4.5,6.6,7.9,8.9,10c1.1,1.1,2,1.9,2.6,2.4
	C137.9,382.3,138.2,382.6,138.2,382.6z"/>
<path class="st2" d="M136.3,381.1c1.1,0.9,5.1,3.2,5.8,3.5c6.8-9.9,21.5-20.6,41.6-23.4c-31.2,13.2-52.1,41.8-47.8,84.5
	c-9.2-23.5-1.3-46.7,0-51.3c-0.8-0.6-6.2-5.4-6.2-5.4L136.3,381.1z"/>
<path class="st1" d="M285.5,181.4c11.1,3.3,44.7,15.1,99.5,5.5c-20.2,9.9-66.4,11.5-103.5,0.7"/>
<path class="st3" d="M80.2,232.6c18.1-32.9,53.7-56.9,97.7-64.9C132.1,167.7,90.7,191.2,80.2,232.6z"/>
<path class="st3" d="M224.2,104.3c5.8-1.9,16.1-5.8,21.6-3.7c5.6,2.1,18.5,11.4,25.3,18.5c6.8,7.2,26.4,25.4,37.1,28.3
	c-20.2,3.3-41.6,5.9-60.7-1.5c-14.6-5.6-35.8-28.2-55.8-30c17.4-11.3,39.4-6.5,63.3,1.1C246.9,111.6,237.9,104.6,224.2,104.3z"/>
<path class="st3" d="M108,170.1c4.6-7.2,42.4-40.3,68.5-44.9c21.1,3.2,33.7,20.7,51.4,27.7c-20.5,0.2-45.1-8.2-62-6.9
	C149,147.3,121.4,154.8,108,170.1z"/>
<path class="st3" d="M63.3,187.2C97,129.1,164.9,69.5,264.5,77.2c-21.1-4.7-59.3-4-83.1-1.3c-25.1-10.4-48.2-41.4-69.6-44.7
	c7.8,5.5,22.2,29,25.5,38.8c1-5.8,0.8-10.1-1-15.1c5.3,4.5,20,21.3,23.2,28.9C113.1,106.1,77.5,140.8,63.3,187.2z"/>
<path class="st0" d="M385,186.9c-5.7,10-30.7,36-117.8,34.1c1.4-6.1,1.9-5.2,2.7-6.7C274.1,213.6,354,222.2,385,186.9z"/>
<path class="st1" d="M59.3,109.3c-32,29.6-60.5,75.6-50.9,139.2C-12.5,186.8,8.6,136.2,59.3,109.3z"/>
<g>
	<path class="st2" d="M300,99.8c4.7,2,10.1,7.3,13.8,10.5c1.4,16.1,8.4,26.7,15.2,31.2c9.7,6.4,23.6,5,35.2-0.8
		C349.9,137.4,330.4,103,300,99.8z"/>
	<path class="st1" d="M326.1,118.7c-1,5.5,1.2,14.7,7,19.1c5.8,4.3,12.7,4.7,22.2,2.4C347.3,138.1,337.8,124.2,326.1,118.7z"/>
</g>
<path class="st0" d="M161.2,232.9c-1,6,0,0-3.1,21.2c12.3-11.2,48.3-3.5,67.9-7c18.7-3.3,37.8-13.1,44.5-32.8
	C254.5,210.3,187.1,229.5,161.2,232.9z"/>
<path class="st1" d="M202.9,170.4c-19.2,18.2-33.5,62.9-39.6,87.5c14.9-5,24.8-5,33.6-5.3c17.6-0.5,36.7-2,49.1-10.1
	c15.9-10.4,28.7-33.9,37.9-46.1"/>
<path class="st3" d="M205.2,177c-10.4,10.2-17.6,31.5-21.3,47.2c9.4-15.7,20.5-25.7,30.1-31.3c-6.6,0.5-10,1.8-13.1,3.5
	c6.3-7.8,12.9-15.6,26.2-21.6C215,175.3,210.5,175.8,205.2,177z"/>
<path class="st1" d="M397.3,148.1c-0.2,0.9-0.5,1.8-0.7,2.8s-0.5,1.8-0.8,2.7c-0.3,0.9-0.6,1.8-0.9,2.7c-0.3,0.9-0.6,1.8-0.9,2.7
	c-0.3,0.9-0.7,1.8-1,2.7c-0.4,0.9-0.7,1.8-1.1,2.6c-0.8,1.7-1.6,3.5-2.4,5.2c-1.7,3.4-3.6,6.7-5.7,9.9c-1,1.6-2.1,3.2-3.3,4.7
	c-0.6,0.8-1.2,1.5-1.8,2.3c-0.6,0.8-1.2,1.5-1.9,2.2l-2.4,2.7l0.4-3.7c0.1-0.9,0.2-1.9,0.3-2.9c0.1-1,0.1-1.9,0.2-2.9
	c0.1-1.9,0.1-3.9,0.1-5.8c0-1.9-0.1-3.9-0.3-5.8c-0.2-1.9-0.4-3.8-1-5.5l2.9,0.1c-0.2,0.6-0.5,1.2-0.7,1.8c-0.3,0.6-0.5,1.1-0.8,1.7
	c-0.6,1.1-1.1,2.2-1.8,3.2c-0.6,1.1-1.2,2.1-1.9,3.1c-0.6,1-1.3,2-2,3c-0.7,1-1.4,2-2.1,3c-0.7,1-1.5,1.9-2.2,2.9
	c-0.8,1-1.5,1.9-2.4,2.8c-0.4,0.5-0.8,0.9-1.3,1.4c-0.4,0.5-0.9,0.9-1.4,1.3l-2.9,2.8l0.4-4.1c0.2-1.5,0.2-3,0.1-4.5
	c0-1.5-0.2-3.1-0.3-4.6c-0.3-3.1-0.9-6.1-1.7-9l2.9,0c-0.7,2.1-1.7,4-2.7,5.9c-1,1.8-2.1,3.6-3.4,5.4c-1.2,1.7-2.5,3.4-4,5
	c-0.7,0.8-1.5,1.6-2.3,2.3c-0.4,0.4-0.9,0.7-1.3,1c-0.5,0.3-1,0.6-1.5,0.9l-2.2,1.1l0.1-2.5c0.1-3.1-0.1-6.3-0.6-9.4
	c-0.5-3.1-1.2-6.2-2.3-9.1l2.8,0.1c-0.2,0.5-0.4,1-0.7,1.4c-0.2,0.5-0.5,0.9-0.7,1.4c-0.5,0.9-1,1.8-1.6,2.7
	c-0.6,0.9-1.1,1.7-1.7,2.6c-0.3,0.4-0.6,0.8-0.9,1.2c-0.3,0.4-0.6,0.8-1,1.2c-0.3,0.4-0.7,0.8-1,1.2c-0.4,0.4-0.7,0.8-1.1,1.1
	c-0.4,0.4-0.7,0.8-1.1,1.1c-0.4,0.4-0.8,0.7-1.2,1.1c-0.4,0.3-0.8,0.7-1.2,1l-1.3,1l-1.3,0.9l-1.4,0.8l-2.2,1.3l0-2.6
	c0-2.6-0.2-5.2-0.4-7.8c-0.3-2.6-0.7-5.1-1.4-7.5l2.8,0.2c-0.2,0.4-0.4,0.8-0.6,1.2c-0.2,0.4-0.4,0.8-0.6,1.2
	c-0.4,0.8-0.9,1.5-1.4,2.2c-0.5,0.7-1,1.4-1.5,2.1c-0.5,0.7-1.1,1.3-1.7,2c-0.6,0.6-1.2,1.3-1.8,1.9c-0.6,0.6-1.3,1.2-1.9,1.8
	c-0.7,0.6-1.3,1.1-2,1.6l-1.1,0.8l-1.1,0.7l-2.7,1.6l0.4-3.2c0.1-0.5,0.1-1.1,0.1-1.6c0-0.6,0-1.1,0.1-1.7c0-1.1,0-2.3,0-3.4
	c-0.1-1.1-0.2-2.3-0.3-3.4c-0.1-0.5-0.2-1.1-0.3-1.6c-0.1-0.3-0.1-0.5-0.2-0.8c-0.1-0.2-0.2-0.5-0.2-0.7l2.7,0.2
	c-0.4,0.6-0.8,1.2-1.2,1.8c-0.4,0.6-0.9,1.2-1.3,1.7c-0.9,1.1-2,2.2-3,3.2c-1.1,1-2.3,1.9-3.5,2.7c-0.6,0.4-1.3,0.8-1.9,1.1
	c-0.7,0.3-1.4,0.7-2.1,0.9l-2.2,0.9l0.2-2.4c0-0.7,0.1-1.3,0.2-1.9l0.2-1.8c0.1-1.2,0.2-2.4,0.2-3.5c0-0.6,0-1.1-0.1-1.7
	c0-0.3,0.1-0.6,0.1-0.8c0-0.3,0.1-0.6,0.1-0.9c0-0.6,0-1.1-0.1-1.7c-0.1-0.3-0.1-0.6-0.2-0.9c-0.1-0.3-0.2-0.6-0.4-0.8
	c0.3,0.1,0.6,0.3,0.9,0.5c0.3,0.2,0.5,0.4,0.8,0.7c0.5,0.5,0.9,1.1,1.2,1.7c0.2,0.3,0.3,0.6,0.5,0.9c0.1,0.3,0.3,0.6,0.3,1
	c0,0.3,0,0.7,0,1c0,0.3,0,0.7,0,1c0,1.3-0.1,2.6-0.2,3.8l-0.2,1.9c-0.1,0.6-0.2,1.2-0.2,1.7l-2-1.5c0.6-0.2,1.2-0.5,1.7-0.8
	c0.6-0.3,1.1-0.6,1.7-1c1.1-0.7,2.1-1.5,3.1-2.4c1-0.9,1.9-1.9,2.7-2.9c0.4-0.5,0.8-1,1.2-1.6c0.4-0.5,0.8-1.1,1.1-1.7l1.6-2.6
	l1,2.8c0.1,0.3,0.3,0.6,0.4,1c0.1,0.3,0.2,0.6,0.3,1c0.1,0.6,0.3,1.2,0.4,1.9c0.2,1.2,0.3,2.5,0.3,3.7c0.1,1.2,0.1,2.4,0.1,3.6
	c0,0.6,0,1.2-0.1,1.8c0,0.6-0.1,1.2-0.2,1.9l-2.2-1.5l1-0.6l1-0.7c0.6-0.5,1.2-1,1.9-1.5c0.6-0.5,1.2-1.1,1.8-1.6
	c0.6-0.6,1.1-1.1,1.7-1.7c0.5-0.6,1.1-1.2,1.5-1.8c0.5-0.6,1-1.3,1.4-1.9c0.5-0.7,0.9-1.3,1.3-2c0.2-0.3,0.4-0.7,0.6-1
	c0.2-0.3,0.3-0.7,0.5-1l1.7-3.7l1.1,3.8c0.8,2.7,1.2,5.4,1.5,8c0.3,2.7,0.4,5.4,0.4,8.1l-2.2-1.3l1.2-0.7l1.2-0.8l1.1-0.9
	c0.4-0.3,0.7-0.6,1.1-0.9c0.4-0.3,0.7-0.7,1.1-1c0.4-0.3,0.7-0.7,1-1c0.3-0.3,0.7-0.7,1-1.1c0.3-0.4,0.6-0.7,0.9-1.1
	c0.3-0.4,0.6-0.7,0.9-1.1c0.3-0.4,0.6-0.8,0.9-1.2c0.6-0.8,1.1-1.6,1.6-2.4c1-1.6,2-3.3,2.8-5.1l1.5-3.4l1.3,3.4
	c0.6,1.6,1.1,3.2,1.5,4.8c0.4,1.6,0.7,3.3,1,4.9c0.2,1.6,0.4,3.3,0.5,5c0.1,1.7,0.1,3.3,0.1,5l-2.1-1.4c0.4-0.2,0.7-0.4,1.1-0.7
	c0.4-0.2,0.7-0.5,1.1-0.8c0.7-0.6,1.4-1.3,2.1-2c1.3-1.4,2.6-3,3.7-4.7c1.1-1.6,2.2-3.3,3.2-5.1c1-1.7,1.9-3.5,2.5-5.3l1.5-4.4
	l1.4,4.5c0.5,1.6,0.8,3.2,1.1,4.8c0.3,1.6,0.5,3.2,0.7,4.8c0.2,1.6,0.3,3.2,0.3,4.8c0,1.6,0,3.3-0.1,4.9l-2.5-1.3
	c0.4-0.4,0.8-0.7,1.2-1.2c0.4-0.4,0.8-0.8,1.2-1.3c0.8-0.9,1.5-1.8,2.3-2.7c0.7-0.9,1.4-1.9,2.1-2.8c0.7-1,1.4-1.9,2-2.9
	c0.7-1,1.3-2,1.9-3c0.6-1,1.2-2,1.8-3c0.6-1,1.2-2,1.7-3.1c0.3-0.5,0.5-1,0.7-1.6c0.3-0.5,0.4-1,0.6-1.5l1.6-3.9l1.2,4
	c0.6,2,1,4.1,1.2,6.1c0.2,2,0.2,4.1,0.1,6.1c-0.1,2-0.2,4-0.4,6c-0.1,1-0.2,2-0.3,3c-0.1,1-0.3,2-0.4,3l-2-1c0.6-0.6,1.3-1.3,1.9-2
	c0.6-0.7,1.2-1.4,1.8-2.1c1.2-1.5,2.3-3,3.4-4.5c2.2-3,4.2-6.2,6.1-9.5c1.9-3.3,3.5-6.7,5.1-10.1c0.4-0.9,0.7-1.7,1.1-2.6
	c0.4-0.9,0.7-1.8,1-2.7c0.3-0.9,0.6-1.8,0.9-2.7C396.8,149.9,397,149,397.3,148.1z"/>
</svg>
