<?xml version="1.0" encoding="utf-8"?>
<!-- Generator: Adobe Illustrator 22.1.0, SVG Export Plug-In . SVG Version: 6.00 Build 0)  -->
<svg version="1.1" id="Layer_1" xmlns="http://www.w3.org/2000/svg" xmlns:xlink="http://www.w3.org/1999/xlink" x="0px" y="0px"
	 viewBox="0 0 671 500" style="enable-background:new 0 0 671 500;" xml:space="preserve">
<style type="text/css">
	.st0{fill:#FFFFFF;}
	.st1{fill:#B6C1C1;}
	.st2{fill:#C5161D;}
</style>
<g>
	<g>
		<path class="st0" d="M563.8,250.3l-29.5-87c-3.3-9.8-4.5-26.2-2.7-36.4l8.2-45.5c51,19.2,88.3,49,103.5,86.6
			c0.9,2.7,1.6,5.5,2.1,8.3c7.4,45-42.8,94.2-125.7,132.7c1.4-5.6,2.3-9.4,2.2-9.3c-0.2,0.1,6.7-4.5,15.4-10.2l16.8-10.9
			C562.7,272.8,567.1,260.2,563.8,250.3z"/>
	</g>
	<g>
		<path class="st0" d="M169.3,412.9c0,0.1,0,0.2-0.1,0.3c-70.6-17.2-123.3-52-142-98.6c-5.9-40.4,32-83.9,97.5-120.9l-19.2,56.6
			c-3.3,9.8,1.1,22.5,9.8,28.2l16.8,10.9c8.7,5.7,11.7,7.6,14.4,12c2.8,4.5,2.7,6.3,5.4,16.3l16.9,62.6
			C171.6,390.4,171.8,405.1,169.3,412.9z"/>
	</g>
	<path d="M669,186.7c-9.1-55.4-56.7-99.1-125.7-124.4l5.8-32.4c1.8-10.2-5.1-19.7-15.4-21c0,0-68.5-8.9-199.1-8.9
		C204.1,0,135.6,8.9,135.6,8.9c-10.3,1.3-17.2,10.8-15.4,21l13.2,73.1C43.6,153.3-10,225.7,1.6,296.2c11,67.1,78.6,117,172.3,137.9
		c1.4,2.1,3,4.1,4.9,5.8l54,48.7c7.7,7,22.5,12.2,32.9,11.7l50.3-2.4c10.4-0.5,27.3-0.5,37.7,0l50.3,2.4
		c10.4,0.5,25.2-4.8,32.9-11.7l54-48.7c7.7-7,12-19.1,9.4-27c-1.1-3.6-1.7-8.6-1.7-13.9C611,349.4,682.1,266.9,669,186.7z"/>
	<g>
		<path d="M137.1,123.3l0.7,3.6c1.3,7.4,1,18-0.5,27c-51.1,24.3-89.8,53.5-110.3,83.6C42.3,195.3,81.8,155,137.1,123.3z"/>
	</g>
	<g>
		<path class="st0" d="M169.3,412.9c0,0.1,0,0.2-0.1,0.3c-70.6-17.2-123.3-52-142-98.6c-5.9-40.4,32-83.9,97.5-120.9l-19.2,56.6
			c-3.3,9.8,1.1,22.5,9.8,28.2l16.8,10.9c8.7,5.7,11.7,7.6,14.4,12c2.8,4.5,2.7,6.3,5.4,16.3l16.9,62.6
			C171.6,390.4,171.8,405.1,169.3,412.9z"/>
	</g>
	<g>
		<path class="st0" d="M563.8,250.3l-29.5-87c-3.3-9.8-4.5-26.2-2.7-36.4l8.2-45.5c51,19.2,88.3,49,103.5,86.6
			c0.9,2.7,1.6,5.5,2.1,8.3c7.4,45-42.8,94.2-125.7,132.7c1.4-5.6,2.3-9.4,2.2-9.3c-0.2,0.1,6.7-4.5,15.4-10.2l16.8-10.9
			C562.7,272.8,567.1,260.2,563.8,250.3z"/>
	</g>
	<path class="st1" d="M365.2,229.4c-3.8-5.3-2-7.6,4.1-5.2l51.5,20.5c6,2.4,15.8,2.2,21.7-0.5l16.9-7.7c5.9-2.7,7.4-0.7,3.4,4.3
		L423,290.3c-4.1,5.1-10.5,4.9-14.3-0.4L365.2,229.4z"/>
	<g>
		<path class="st0" d="M396.5,203.1c-5.5,3.4-5,7.8,1.2,9.8l26.9,8.7c6.2,1.9,14.4-0.7,18.3-5.9l16.4-21.8c3.9-5.2,1.8-9.1-4.7-8.6
			l-21.1,1.4c-6.5,0.4-16.3,3.6-21.8,7L396.5,203.1z"/>
	</g>
	<g>
		<path class="st1" d="M405.8,39.6c-6.5,0-13.2,3.1-17.4,8l-25.5,26.3c-4.2,4.9-7.7,14.3-7.7,20.8v9c0,6.5,4.1,8.4,9,4.2l72.5-60.6
			c5-4.2,3.7-7.6-2.8-7.6H405.8z"/>
	</g>
	<path class="st0" d="M254.6,222.9c-5.9,2.7-13.4,0.3-16.6-5.4l-12.4-21.7c-3.2-5.6-0.6-9.9,5.9-9.5l4.2,0.3
		c6.5,0.4,16.3,3.6,21.8,7l16,9.9c5.5,3.4,5.2,8.4-0.7,11.1L254.6,222.9z"/>
	<path class="st0" d="M482.9,149.4L432.5,162c-10.1,2.5-25.2,9.6-33.6,15.7l-33.1,24c-8.4,6.1-15,11.1-20.9,11.1
		c-6.6,0-9.6,0-19.1,0c-3.8,0-13.9-5-22.3-11.1l-33.1-24c-8.4-6.1-23.5-13.1-33.6-15.7l-50.5-12.6c-10.1-2.5-17.1,3.8-15.7,14.1
		l0,0.2c1.5,10.3,5.9,19.1,9.9,19.2c16.7,0.2,17.7,6.1,45.6,51.1c6.3,8.3,19,11.3,28.3,6.7l27-13.3c9.3-4.6,19.4-6.8,22.4-5
		c3,1.8,3.8,4.7,2.8,7c-3.7,8.3-3,32.3,0.4,26.9c3.4-5.3,8.2-12.8,15.4-23.5s10.4-7.3,10.5,3.1l0.3,52.1
		c0.1,10.4,6.9,18.9,15.1,18.9c8.3,0,15,5.1,15,11.3c0,6.2-0.2,11.7-0.3,12.2c-0.3,1.9-47.4,0.9-51.9,0.9s-9.2-4.4-10.5-9.7
		c-1.3-5.3-9.1-10.1-17.3-10.6c-8.3-0.5-11.4-6.1-7-12.5s7.7-17.8,7.2-25.3c-0.4-7.5-5.9-6.8-12,1.5L243,313.5
		c-6.2,8.3-2.8,14.6,7.6,13.8l18.8-1.3c10.4-0.7,19.8,6.5,20.9,16.2c1.2,9.6,8.2,17.5,15.6,17.5c7.4,0,16.7,0,20.6,0
		s7.1,5.2,7.2,11.5c0,6.3,0,11.5,0,11.5s-8-3-17.7-6.8c0,0-12.2-4.7-26.5-6.2c-12.9-1.3-22.2,0-22.2,0c-10.3,1.4-17.9-2.5-16.3-8.5
		c2.9-10.8-10-0.4-17.8,6.4s-8.7,15.6-0.8,25.5c7.9,10,20,17.3,17.9,10.2c-2.4-8.2,3.5-11.9,15.5-13.3c0,0,9.5-1.5,21.7-0.2
		c10.5,1.1,25,6.2,34.9,10.1c6.5,2.6,6.5,2.6,6.5,2.6c2.6,1.2,4.7,2.2,4.7,2.2l0,0l0,0l0,0c0,0,22-8.6,32.4-12
		c1.1-0.3,6.1,6.3,11.2,14.6c5.1,8.3,5.2,15.1,0.2,15.1c-5,0-16.8,0-26.3,0s-24.6,0-33.7,0s-16.5,4.5-16.5,10.1
		c0,5.5,7.4,10.1,16.5,10.1s16.4,7.7,16.6,17.1c0.2,9.6,0.1,17.1-0.2,17.1c-10,1.4-42.8,2.2-42.8,2.2c-10.4,0.5-23.9-5.9-30-14.3
		l-8.3-11.3c-6.2-8.4-19.2-17.9-29.1-21.3l-17.8-5.7c-9.9-3.3-16.7-14.3-15.2-24.6l8-54.9c1.5-10.3-3.5-24.5-11-31.6l-41.3-39
		c-7.5-7.1-11.7-21.2-9.2-31.3l19.8-79.9c2.5-10.1,3.6-26.8,2.4-37.1l-8.7-78.3c-1.2-10.3,6.4-19,16.8-19.3L313,25.9
		c10.4-0.2,18.9,8.1,19,18.5l0.6,115.8c0.5,29.2,28.2,21.7,33.2,18.9c2.5-1.4,6.9-4.9,15.2-11l16.7-12.1
		c8.4-6.1,23.7-11.6,34.1-12.3l52.2-3.3C518.3,138.3,493,146.9,482.9,149.4z"/>
	<g>
		<path class="st2" d="M281.8,136c-4.4-4.8-12.7-11.2-18.4-14.2l-78.8-41c-5.8-3-9.6-0.2-8.5,6.2l2.7,16.1c1.1,6.4,6.9,13.5,13,15.7
			l50.3,18.5c6.1,2.2,15.2,7.4,20.3,11.4l29.2,23.1c5.1,4,13.8,7.3,19.4,7.3s6.5-3.9,2.2-8.7L281.8,136z"/>
	</g>
	<g>
		<path class="st2" d="M292.7,56.6c-4.2-4.9-13-9-19.5-9h-24.2c-6.5,0-7.8,3.5-2.9,7.8l62.1,54.2c4.9,4.3,8.9,2.4,8.9-4v-8.5
			c0-6.5-3.4-15.8-7.7-20.8L292.7,56.6z"/>
	</g>
	<g>
		<path class="st2" d="M203.9,242.7c-4.2-4.9-13-9-19.5-9h-24.2c-6.5,0-7.8,3.5-2.9,7.8l62.1,54.2c4.9,4.3,8.9,2.4,8.9-4v-8.5
			c0-6.5-3.4-15.8-7.7-20.8L203.9,242.7z"/>
	</g>
	<path class="st1" d="M501.6,376.2l9-33.1c55.1-21.9,98.7-49.6,124.6-79C611.9,307,564.4,346.8,501.6,376.2z"/>
	<g>
		<path class="st2" d="M169.2,413.2c0-0.1,0-0.2,0.1-0.3c2.5-7.9,2.3-22.5-0.4-32.5l-9-33.4c-49.3-2.3-93.9-10.8-129.4-25.1
			C51.5,364.8,102.3,396.9,169.2,413.2z"/>
	</g>
	<g>
		<g>
			<path class="st1" d="M582,161.7c4.2-19.5,0.2-45.3-1.9-34.9c-6.8,33.4-18.6,51.8-36,65.2l7.9,23.5
				C568.1,201.6,577,185.2,582,161.7z"/>
		</g>
		<path class="st2" d="M554,278.5l-16.8,10.9c-8.7,5.7-15.6,10.3-15.4,10.2c0.2,0-0.7,3.8-2.2,9.3c82.9-38.5,133.1-87.6,125.7-132.7
			c-0.5-2.8-1.2-5.6-2.1-8.3c-11.7-28.9-36.5-53.2-70.5-71.6c13.6,13,22.1,27.7,24.7,43.6c4.9,29.7-10.5,60.7-40.8,89.3l7.1,21
			C567.1,260.2,562.7,272.8,554,278.5z"/>
	</g>
	<g>
		<path class="st0" d="M137.1,123.3l0.7,3.6c1.3,7.4,1,18-0.5,27c-51.1,24.3-89.8,53.5-110.3,83.6C42.3,195.3,81.8,155,137.1,123.3z
			"/>
	</g>
</g>
</svg>
