<?xml version="1.0" encoding="utf-8"?>
<!-- Generator: Adobe Illustrator 22.1.0, SVG Export Plug-In . SVG Version: 6.00 Build 0)  -->
<svg version="1.1" id="Layer_1" xmlns="http://www.w3.org/2000/svg" xmlns:xlink="http://www.w3.org/1999/xlink" x="0px" y="0px"
	 viewBox="0 0 719 500" style="enable-background:new 0 0 719 500;" xml:space="preserve">
<style type="text/css">
	.st0{fill:#FFFFFF;}
	.st1{fill:#002A3A;}
	.st2{fill:#FFCD00;}
	.st3{fill:#004B87;}
</style>
<g>
	<path class="st0" d="M695.6,65.5c15.1-16.1,27-35.6,22.4-47.1c-1.9-4.7-6.2-7.6-11.2-7.6c-2.4,0-4.8,0.7-7.3,1.9
		c-3.8,2-5.3,5.6-6.9,9.3c-0.3,0.7-0.7,1.7-1,2.4c-6.5,4.5-32.9,21.3-50.7,24.4l-0.5,0.1l-0.5,0.2c-2.8,0.8-5.7,1.4-8.7,1.8
		c-1.9,0.2-3.9,0.3-5.9,0.3c-1.5,0-3.1-0.1-4.7-0.2c-1.4-0.1-2.8-0.2-4.4-0.2c-1.6,0-3.2,0-4.8,0.1c-1.4,0-2.8,0.1-4.1,0.1
		c-3,0-5.1-0.2-6.9-0.8c-1.7-0.5-3.6-1.7-5.7-3c-2.4-1.5-5.1-3.1-8.2-4.3c-3.1-1.2-6.1-1.3-8.3-1.4c-0.7,0-1.7-0.1-2.1-0.1
		c-1.6-0.6-3.2-1.3-4.8-1.9c-1.1-1.4-3.1-3.8-6.4-4.9c-3-1-5.8-1.2-7.9-1.2c-0.6,0-1.3,0-1.9,0c-0.5,0-0.9,0-1.4,0
		c-0.7,0-0.9,0-0.9,0c-2.4-0.6-4.6-0.9-6.8-1.1c-1.5-0.1-2.9-0.2-4.4-0.2c-6.4,0-11.8,1.4-15.6,2.8c-1.9-0.8-3.7-1-5-1
		c-4.1,0-8,1.8-12,5.5l-2.8,2.6l-0.2,3.8c-1,16.1-4.7,37.9-8.9,46.7c-7.7,15.8-19.3,26.3-32.1,29.3c-3.4-7.4-4.8-11.9-5.4-14.2
		c1.4-1.5,4.1-3.7,5.5-4.8c4.2-3.4,7.6-6.1,8.6-10.5c0.1-0.4,0.2-0.8,0.2-1.1c1.4-2,2.3-4.2,2.7-6.7c0.2-0.3,0.3-0.5,0.5-0.8
		c0.4,0.1,0.8,0.1,1.3,0.1c1.4,0,8.6-0.5,10.1-9.4l0.6-3.2l-1.1-2.6c-5.4-13.2-15.3-15.1-20.7-15.1c-5.4,0-10.6,1.9-14.5,3.6
		c-0.6-0.3-1.3-0.5-2-0.6c-1.3-0.3-2.8-0.5-4.5-0.5c-7.1,0-19.3,3-27.4,8c-1.2,0.8-3.2,2.3-10.6,8.4c-1.5,1.2-2.7,2.2-3.3,2.7
		l-2.8,1.9l-0.9,3.6c-0.5,2.2-0.2,4,0.2,5.3c-0.8,5-0.8,7-0.8,7.7c0,0.1,0,0.3-0.1,0.5c-0.3-0.3-0.6-0.5-0.8-0.7
		c-10.4-16.1-8.9-20.2-8.9-20.3c1.3-1.2,2.6-2.5,3.8-3.8l22.4-7.2l3.4-2.5l13.1-9.8l-3.4-1.4c0.1-0.1,0.2-0.1,0.2-0.2
		c2.5-2.5,3.6-6.1,3.2-9.4c0.2-0.2,0.3-0.4,0.5-0.6c2.4-3.3,2.7-7.8,1-12.8C428.4,6.1,416,2,406.7,2c-7,0-13.7,2.3-19.1,4.7
		c-1.7-1.1-3.6-2.1-5.5-3c-2.5-1.2-5.3-2.2-8.2-3l-1.4-0.4h-1.3c-6.4,0-30.1,10.6-39.9,15.4c-33.1,16.3-37.5,25.8-37.5,33
		c0,6,4.3,9.1,6.3,10.6c0.2,0.2,0.6,0.4,0.8,0.6c-0.1,1.9-0.4,4.3-0.9,6.8c-0.7-1.8-1.9-3.8-4.2-5.2c-9-5.8-20.7-7.9-27.8-9.2
		c-1.4-0.3-2.6-0.5-3.5-0.7c-0.9-0.2-1.8-0.3-2.8-0.3c-1,0-2,0.1-3.1,0.4c-0.4,0-0.7-0.1-1.1-0.1c-0.4,0-0.8,0-1.3,0.1
		c-0.4,0-0.7,0.1-1.1,0.2c-4.4-1.8-11.7-4.2-18.2-4.2c-9.4,0-13.8,4.8-15.6,7.7c-7.9,12.7-4,19.8-1.9,22.2l3.7,4.4l-0.1,0.2l0.4,0.1
		l1.4,1.7l1.1-0.7l8.7,3.1c2.2,3.8,6.1,9.6,13.1,19.5c1.6,2.3,3.5,4.9,3.8,5.5c0.4,0.7,1.2,2.9,1.7,4.2c0.2,0.5,0.4,1,0.6,1.5
		c-0.1,1-0.3,2.3-0.1,3.7c-0.1,0.3-0.3,0.6-0.4,0.9c-12.5-3.3-23.7-13.6-31.3-29.1c-4.3-8.8-7.9-30.6-8.9-46.7l-0.2-3.8l-2.8-2.6
		c-4-3.7-7.9-5.5-12-5.5c-1.3,0-3,0.2-5,1c-3.8-1.4-9.2-2.8-15.6-2.8c-1.5,0-2.9,0.1-4.4,0.2c-2.1,0.2-4.3,0.6-6.7,1.1
		c0,0-0.3,0-1,0c-0.5,0-0.9,0-1.4,0c-0.6,0-1.3,0-1.9,0c-2.1,0-4.9,0.1-7.9,1.2c-3.3,1.2-5.3,3.5-6.4,4.9c-1.6,0.6-3.2,1.2-4.8,1.9
		c-0.4,0.1-1.4,0.1-2.1,0.1c-2.2,0.1-5.2,0.2-8.3,1.4c-3.1,1.2-5.8,2.9-8.2,4.3c-2.1,1.3-4,2.5-5.7,3c-1.8,0.5-3.9,0.8-6.9,0.8
		c-1.4,0-2.8,0-4.1-0.1c-1.6-0.1-3.2-0.1-4.8-0.1c-1.6,0-3.1,0-4.4,0.2c-1.6,0.1-3.2,0.2-4.7,0.2c-2,0-4-0.1-5.9-0.3
		c-3-0.3-5.9-0.9-8.7-1.8l-0.5-0.2L78.1,49C60.3,45.8,33.9,29,27.4,24.5c-0.3-0.7-0.8-1.7-1-2.4c-1.6-3.8-3-7.3-6.9-9.3
		c-2.5-1.3-4.9-1.9-7.3-1.9c-5,0-9.3,2.9-11.2,7.6c-4.6,11.5,7.2,31,22.4,47.1c-3.7,0.2-6.9,2.4-8.7,5.8c-2.2,4.2-2.1,10.8-0.1,15.3
		c1.7,5.2,10.4,27.7,36.5,43.1c-1,1.1-2,2.3-2.8,3.8c-2.3,4.3-3.4,10.9,0.3,16.3c8.4,12.3,40,26.2,54,29.1c0.6,0.1,1.2,0.2,1.9,0.3
		c-0.1,1.4-0.1,2.8,0.2,4.2c0.8,3.8,3.1,6.9,6.4,8.6c1.4,0.7,3.1,1.6,4.6,2.4c1.8,0.9,3.4,1.7,4.1,2.1c3.8,2.1,8.2,4.2,12.1,5.8
		c0,25.4-0.1,60-0.2,62.8c-0.4,4.3,1.1,8.5,4.1,11.5c2.7,2.7,6.4,4.3,10.3,4.3l0.7,0l0.8-0.1c1.9-0.2,3.9-0.7,10.5-2.5
		c6.8-1.9,9.4-2.5,10.3-2.7c3.5-0.2,6.8-1.7,9.2-4.1c2.8-2.7,4.3-6.5,4.3-10.4c0,0,0-0.8,0-0.8c1.9,1.7,3.1,2.8,3.6,3.3
		c2.7,4.1,7,6.5,11.8,6.5c0.6,0,1.3,0,1.9-0.1l1,0l1.5-0.4c1.6-0.4,9.1-2.1,11.3-2.5c1.2-0.1,2.4-0.3,3.5-0.6
		c-0.8,1.9-1.3,4-1.3,6.2c0,2.2,0.4,4.2,0.8,5.6c-1.2,2.3-1.9,4.8-1.9,7.5l0,0.3c0,4.4,1.7,8.6,4.7,11.7l1.6,1.7l2,1.1
		c2.3,1.2,8.9,5.3,12.5,9.7c0.2,0.2,0.4,0.4,0.5,0.7c-1.4,2.4-2.9,5.7-2.9,9.5c0,2,0.4,4,1.2,5.8c3.4,8.2,10.6,9.6,13.9,10.3
		l1.4,0.3c0.9,0.2,1.9,0.3,2.9,0.3c1.6,0,3.4-0.3,5.3-1.2c2.3,1.8,5.2,2.7,8.2,2.7c4,0,7.6-1.7,9.8-3c3.1,4.4,6.7,8.7,10.7,13
		c-7.7,13.3-8.7,18.6-8.6,22.2c0.2,6.7,5.3,11.6,12.1,11.6c0.6,0,1.2,0,1.8-0.1c-1.9,2.9-3.6,5.7-5,8c-4.9,8.3,2.2,17.4,10.4,25.5
		c0.2,2.3,0.9,6.1,4.3,9.2c2.6,2.4,6.4,3.9,12.3,6.2c2,0.8,5.3,2,6.3,2.6c1.1,0.9,2.5,1.6,3.9,2c-1.7,7.2-1.7,10.5,1.8,13.5
		c1.5,2.4,5,9.7,7.3,14.7c6.2,13,8.5,17.7,11.1,20.1c0.3,0.5,0.7,1.3,1,1.9c2.9,5.6,6.9,13.3,14.8,13.8l0.4,0h0.3
		c8,0,12.2-7.3,15.2-12.6c0.3-0.6,0.7-1.2,1-1.7c3.2-2.7,5.7-8,11.4-20.4c2.3-5,5.7-12.5,7.2-14.8c4-3.6,3-8.4,2.1-12.4
		c-0.2-0.8-0.4-1.7-0.6-2.6c2-0.3,3.8-1.2,5.3-2.4c1-0.6,4-1.5,5.9-2c4.9-1.4,9.9-2.9,13.4-6.2c3.5-3.3,4.6-7.5,5.3-10.2
		c0.1-0.5,0.3-1.3,0.5-1.7c2.9-3.5,14.2-18.3,5.9-27.3c0,0,0,0,0,0c1.7,0.3,3.2,0.5,4.6,0.5c5.2,0,8.3-2.2,10-4
		c2.2-2.5,3.2-5.7,2.9-9.2c-0.4-3.9-2.2-10.2-11.8-24c3.8-4.1,7.2-8.2,10.1-12.3c2.2,1.4,5.9,3.3,10.3,3.3c3,0,5.9-0.9,8.2-2.7
		c1.5,0.7,3.3,1.1,5.3,1.1c1,0,1.9-0.1,2.9-0.3l1.3-0.3c3.4-0.7,10.6-2.1,14-10.3c0.8-1.8,1.1-3.8,1.1-5.8c0-4.7-2.1-8.6-3.8-10.9
		c-0.1-0.3-0.2-0.6-0.3-0.9c8.2-6.3,16.2-11.9,16.3-12l1-0.7l0.9-0.9c0.5-0.5,1-1.1,1.4-1.6c3.7,3.5,8.7,5.7,14.2,5.7
		c5.1,0,10.7-2.7,13.5-5c2-1.6,3.3-3.3,4.5-5.4c1.8-3,2.8-6.6,2.8-10.3c0-0.7,0-1.4-0.1-2.1c0.1,0,0.2,0,0.2,0c2,0.2,4,0.3,6,0.3
		c20,0,36.7-10.8,42.5-27.6c5.5-15.7-0.1-31.9-14.5-43.5c1-1.1,1.9-2.3,2.5-3.6c1.3,0.3,2.5,0.5,3.7,0.5c1.7,0,3.2-0.3,4.6-0.9
		c3.9-1.6,8.3-3.7,12.1-5.8c0.7-0.4,2.3-1.2,4.1-2.1c1.5-0.8,3.2-1.6,4.6-2.4c3.3-1.7,5.6-4.9,6.4-8.6c0.3-1.4,0.4-2.8,0.2-4.2
		c0.6-0.1,1.2-0.2,1.9-0.3c13.9-2.9,45.5-16.9,54-29.1c3.7-5.4,2.6-11.9,0.3-16.3c-0.8-1.5-1.7-2.7-2.8-3.8
		c26.1-15.4,34.8-37.9,36.5-43.1c2.1-4.5,2.1-11.1-0.1-15.3C702.5,67.8,699.3,65.7,695.6,65.5z"/>
	<g>
		<path class="st1" d="M498.1,278.1c-1-0.7-7.3-5.2-18.9-10.7H239.9c-2,2.5-4,4.9-5.9,7c-0.1,0.1-0.2,0.1-0.3,0.2l-1.6,1.1
			c0,0,0,0.2,0,0.2c-0.3,0.2-0.7,0.3-1,0.5c-3,2.2-4.7,3.7-5.1,4.1c-1.4,1.4-2.2,3.2-2.3,5.2c0,0,0,0.1,0,0.1c0,1.9,0.7,3.7,2.1,5.1
			l0.5,0.6l0.7,0.4c0.1,0,9.9,5.1,15.5,12.2c6.2,7.8,12.4,16.9,12.5,17l0.2,0.3l0.3,0.3c2.5,2.6,6.5,3,9.5,0.9
			c0.1-0.1,3.6-2.4,10.3-5.7c5.3,11,13.5,21.1,22.6,30.1c-6,9.9-11.1,19.4-11,23.4c0.2,7.3,17.8-4,26.7-9.8c0.8,0.6,1.6,1.2,2.3,1.8
			c-5.2,8-16.4,23.9-21.5,32.5c-2.1,3.5,9.1,14.2,10.3,15.4c2,1.9,0.4,5.5,2.6,7.5c2.8,2.6,15.1,5.9,18.1,8.3
			c1.7,1.4,6.4,0.8,8.2-4.5c2.9-9.1,8.1-26,12.5-39.9c0.7,0.4,1.3,0.7,2,1c-6.8,24.4-16.9,59.1-16.2,59.6c3,2.1,15.7,33.4,18.5,34.9
			c1.8,1,5.7,12.7,9.7,13c4,0.2,8-11.1,10-12c3.2-1.5,14.8-32.5,18.4-35c0.4-0.3-7.8-34-13.8-59.5c0.8-0.4,1.6-0.8,2.4-1.2
			c3.5,12.5,7.3,26.5,9.7,35.3c2,7.2,7.4,9,9.1,7.5c3.8-3.2,15.1-4.3,18.7-7.8c2.9-2.7,2.4-8.4,5-11c1.5-1.5,8.8-12.2,6.3-14.9
			c-7.4-8.1-20-25.8-19.3-26.5c0.3-0.3,35.3,17.7,34.4,8.3c-0.6-5.5-7.1-15.7-14.7-25.9c7.1-6.9,13.5-14.4,18.6-22.4
			c4.7-1.8,8.7-2.6,11.3-2.9c0.3,0.2,0.4,0.3,0.4,0.3c1,0.8,2.2,1.3,3.5,1.5l2,0.3l1.6-1.2c1.7-1.3,1.9-3.1,2-4.1
			c0.1-1.4,0.4-3.6,2.2-5.3c10-9.4,30.6-23.8,30.8-24l0.4-0.2l0.3-0.3c1.5-1.5,2.3-3.6,2.1-5.7C500.9,281.3,499.9,279.4,498.1,278.1
			L498.1,278.1z"/>
		<path class="st1" d="M693.7,75.5c-3,2.6-37.1,17-49.7,23c-22.3,10.6-60.2,13.5-64.5,10.7c28.8,1,74.9-17.1,104.1-45.2
			c27.7-26.7,30.9-48.4,20.2-42.8c-1.5,0.8-3.3,8.1-5.4,10.1c-0.6,0.6-33.3,23-56,27c-3.5,1-7,1.7-10.5,2.1
			c-4.1,0.4-8.2,0.5-12.3,0.2c-7.6-0.6-15.1,1.1-22.4-1.1c-5.3-1.6-9.5-5.7-14.5-7.6c-3.2-1.2-7.3-0.3-10.3-1.5
			c-2.2-0.9-4.3-1.7-6.3-2.5c-1.9-0.7-2.9-3.6-4.7-4.3c-3.6-1.3-7.9-0.1-11.1-0.8c-1.9-0.4-3.8-0.8-5.6-0.9
			c-11.8-1.2-20.2,4.1-20.2,4.1c-2.6-4-6-2.6-9.3,0.5c-0.9,14.4-4.3,38.9-9.9,50.3c-10.4,21.4-28,35.6-48.4,35.6
			c-0.2,0-0.4,0-0.6-0.1c-0.5-0.7-1-1.4-1.4-2c-1.3-1.8,1.7-3.1,1.6-3.4c-6.7-14.5-7.2-20.3-7-21c1.5-6,14.1-12.7,14.8-15.7
			c0.3-1,0.4-2.1,0.5-3.1c2.3-1.8,2.6-4.5,2.5-6.3c1-0.9,1.9-2,2-2.8c0.1-1.3,0.4-4.8,1.1-5.1c1.8-0.9,5.1,0.3,7.3,1.3
			c1.3,0.6,1.2-0.3,1.5-1.9c-6.3-15.4-19.7-7.7-26.6-4.7c-0.7-0.3-1.4-0.7-2.2-1c-1-0.4-0.6-0.7-1.7-1c-4.4-1.1-17.4,1.9-24.7,6.4
			c-1.5,0.9-12.7,10.3-13.3,10.7c-0.1,0.4,0.9,1.6,0.7,3.1c-0.5,2.4-1,5.7-0.9,7.5c0.1,2.2-0.8,4.7-1.5,7.8
			c-0.2,0.9-2.1,3.3-2.3,4.4c-0.1,1.3,1.5,1.3,1.6,2.8c0.1,1.6-3.1,2.1-3,3.7c-0.1,0.6-0.1,1,0,1.4c-2.2-0.9-4.1-1.9-4.8-2.9
			c-1.8-2.5,1-2-0.7-4.6c-0.9-1.3-6.4-5.6-7.2-6.8c-8.6-13.1-14.9-26.3-7.8-32.9c1.8-1.7,3.5-3.5,5-5.2l23.2-7.4l2.1-1.6
			c0,0-3.4-1.5-6.4-4.4c0.3-1.7,0.2-4.5,1.1-4.6c1.1-0.2,1.7-0.8,2.5-0.1c0.9,0.7,2.2,1.7,4.4,1.7c4.1,0,7.2-3.1,7.4-3.2
			c0.6-0.6,0.7-1.7,0.1-2.4c-0.6-0.7-1.6-0.8-2.2-0.1c0,0-2.4,2.3-5.3,2.3c-1.2,0-1.8-0.5-2.6-1.1c-1-0.8-2.3-1.8-4.6-1.5
			c-2.1,0.3-3.5,1.8-4.6,3c-0.1-0.4-0.3-0.9-0.4-1.3c-0.8-3.7-0.1-2.4,3.1-5.1c1.7-1.5,2.7-5.2,4.4-6c3.5-1.8,10.2,1.6,13.6,3.5
			c1.2,0.7,2-1.1,0.9-4.3c-8.9-25.1-27.9-16.5-39.9-10.8c-2.4-2.2-5.2-4-8.3-5.4c-2.1-1-4.3-1.8-6.8-2.4
			c-2.9-0.8-68.1,25.3-68.1,38.9c0,3,7.1,3.7,7.1,10.6c0,6.6-2.6,14.4-2.3,22.4c0.1,1.2,2.9,2.4,3,3.6c0.1,1.5,0.2,3.1,0.3,4.6
			c0.2,3.6-1.3,7.2-1,10.6c0.2,1.6,2.2,3.1,2.4,4.6c0.1,0.5-0.3,1.6-0.9,3.1c-0.9-0.6-1.7-1.2-1.9-1.6c-0.6-0.9,0.8-1.2-0.6-2.1
			c-1.4-0.9-5.6-2.3-6.1-3.1c-0.3-0.4,0.3-0.9,0.1-1.4c-2.3-3.6-5.8-7-6-9.8c-0.2-2.1,2.5-3.6,2.6-5.3c0.2-2.4-2.3-7.5-7.1-11
			c-0.9-0.6-1-3.9-2-4.6c-9.4-6-23.8-7.5-28.4-8.6c-0.8-0.2-1.8,0.2-2.8,0.9c-0.4-0.3-1.1-0.7-2.1-0.6c-1.7,0.2-2.2,1-2.2,1
			s-20.6-9.9-25.7-1.7c-5.1,8.2-2.7,11.1-2.7,11.1s1.6-1.1,3.7-2c2,0,6.9,0.3,9.1,2.8c-0.4,2.1-3.6,2.9-3.6,2.9l-0.5,1.3l6.2,2.2
			c1,4.1,16.9,25.4,18.3,27.8c1.2,2.2,2.5,6.3,3.5,8.7c0.5,1.1-0.5,3.6-0.2,4.7c0.3,0.9,1.9,0.5,2,1.5c0.1,0.6-2.9,2.4-3.4,4.4
			c-0.5,2.1-0.3,4.5,0,6.3c-20.4,0-37.9-14.2-48.3-35.6c-5.5-11.3-8.9-35.8-9.9-50.3c-3.3-3.1-6.7-4.5-9.3-0.5c0,0-8.4-5.3-20.2-4.1
			c-1.8,0.2-3.7,0.5-5.6,0.9c-3.2,0.7-7.5-0.4-11.1,0.8c-1.8,0.6-2.8,3.5-4.7,4.3c-2.1,0.8-4.2,1.6-6.3,2.5
			c-3.1,1.2-7.1,0.2-10.3,1.5c-5,1.9-9.3,6-14.5,7.6c-7.3,2.2-14.8,0.6-22.4,1.1c-4.1,0.3-8.2,0.3-12.3-0.2c-3.5-0.4-7-1.1-10.5-2.1
			c-22.7-4-55.3-26.4-56-27c-2.1-2-3.9-9.3-5.4-10.1C4.5,15.6,7.6,37.3,35.3,64c29.2,28.2,75.4,46.3,104.1,45.2
			c-4.3,2.8-42.2-0.2-64.5-10.7c-12.6-6-46.7-20.4-49.7-23c-3.2-2.8-3.3,5.4-1.8,7.5c0,0,9.9,35.3,54.4,47.7
			c16.7,10,65-3.5,65.2-3.4c0.9,1.3-32.4,13-48.6,12.7c-8.5-0.2-30.1-2.9-34.8-4.4c-2.2-0.6-5.2,5.6-3.1,8.6
			c6.3,9.2,35.1,22.5,48.1,25.2c15.6,3.3,31.8-16.6,31.9-16.5c0.5,0.4-14.8,16.1-21.4,24.4c-2,2.4-1.2,5.2,0.4,6.1
			c3.3,1.7,7.7,3.9,9,4.6c3.5,2,7.5,3.9,11,5.3c1.5,0.6,5.9-0.4,7.2-3.6c3.8-9.7,6.8-8.7,5.6,0.3c-0.3,2.5,2,5,3.3,5.2
			c9.3,1.8,21.1-5.4,21.5-7.9c1.4-9.3,8.1-4.7,7.6,0.1c-0.3,2.9,2.1,5.2,3.7,5.3c7.5,0.3,22.8,0.2,22.5-2.6
			c-1.2-9.9,4.9,6.4,5.8,6.2c13.1-2.2,22.8-0.3,29.5,2.2c0.6,5.5,0.9,11.5,0.9,17.7c0,4-0.2,7.9-0.5,11.7h239
			c-0.3-3.8-0.5-7.7-0.5-11.7c0-6.9,0.2-23.1,0.9-29.1c6.2-1.5,14.3,7.6,24.1,9.2c1,0.2,7-16.1,5.8-6.2c-0.3,2.8,14.9,2.9,22.5,2.6
			c1.6-0.1,4-2.4,3.7-5.3c-0.4-4.8,15.8-12.6,17.2-3.3c0.4,2.5,2.6,12.8,11.9,11c1.3-0.2,3.6-2.7,3.3-5.2c-1.2-9,1.8-10,5.6-0.3
			c1.3,3.2,5.6,4.2,7.2,3.6c3.5-1.4,7.5-3.3,11-5.3c1.3-0.7,5.7-2.9,9-4.6c1.6-0.9,2.4-3.6,0.4-6.1c-6.7-8.2-21.9-24-21.4-24.4
			c0.2-0.1,16.3,19.7,31.9,16.5c13-2.7,41.8-16.1,48.1-25.2c2.1-3-0.9-9.3-3.1-8.6c-4.8,1.4-26.3,4.2-34.8,4.4
			c-16.2,0.3-49.5-11.4-48.6-12.7c0.1-0.2,48.5,13.4,65.1,3.4c44.6-12.4,54.4-47.7,54.4-47.7C697,80.9,696.9,72.7,693.7,75.5
			L693.7,75.5z"/>
	</g>
	<path class="st0" d="M383.9,21.7l7.9-2.3c0,0,3.7,3.2,0.4,3.6C388.9,23.4,383.9,21.7,383.9,21.7L383.9,21.7z"/>
	<path class="st0" d="M368.8,33.5c-3,0.6-5.7-1.2-6.1-4c-0.3-2,0.7-3.9,2.3-5.1c0.3,0.2,0.7,0.3,1,0.5c-0.3,0.6-0.4,1.3-0.3,1.9
		c0.3,1.9,2.1,3,4,2.6c1.2-0.2,2.2-1,2.7-2c0.4,0.1,0.7,0.2,1.1,0.3C373.6,30.4,371.6,32.9,368.8,33.5L368.8,33.5z M378,27.5
		l-1.9-2.8c0,0,0.2-2.1-2.4-1.6c-7.5,1.3-16.5-1.4-16.5-1.4s-13.6,8-17.2,8.5c-3.6,0.5-2.3,1.2-1.9,2c0.4,0.9,7.7-0.6,7.7-0.6
		s-1.1,2.5,0.3,2.2c1.1-0.2,10.4-4.2,11.1-4.3c0.8-0.2,1.3-0.9,1.2-1.6c-0.1-0.4-0.3-0.8-0.7-1c0,0,0.1,0,0.1-0.1
		c0,0,3.1-0.9,2.8,0.5c-0.2,0.9-0.3,1.8-0.1,2.7c0.6,4,4.4,6.5,8.6,5.6c2.1-0.4,3.9-1.6,5-3.2c0.3,0.1,0.6,0.2,0.9,0.1
		c0.8-0.2,1.3-0.9,1.2-1.6c-0.1-0.5-0.4-0.8-0.8-1c0.1-0.5,0.2-1,0.3-1.5C379.8,29.5,378,27.5,378,27.5L378,27.5z"/>
	<path class="st0" d="M443.6,78.6c-1.7,0.2-3.2-0.8-3.3-2.3c-0.1-1,0.5-1.9,1.5-2.4c0.2,0.1,0.4,0.2,0.6,0.3c-0.2,0.3-0.3,0.6-0.3,1
		c0.1,0.9,1,1.6,2.2,1.5c0.7-0.1,1.3-0.4,1.6-0.9c0.2,0.1,0.4,0.1,0.6,0.2C446.5,77.3,445.2,78.4,443.6,78.6L443.6,78.6z M449,76
		l-0.9-1.5c0,0,0.2-1-1.3-0.9c-4.3,0.3-13.3-2.8-13.3-2.8s-4,4.7-6,4.8c-2,0.1-1.3,0.5-1.2,0.9c0.2,0.4,4.4,0,4.4,0
		s-0.7,1.2,0.1,1.1c0.6-0.1,6-1.6,6.5-1.6c0.5,0,0.8-0.4,0.8-0.8c0-0.2-0.2-0.4-0.4-0.5c0,0,0,0,0,0c0,0,1.8-0.3,1.5,0.4
		c-0.1,0.4-0.2,0.9-0.2,1.3c0.2,2,2.2,3.4,4.6,3.2c1.2-0.1,2.2-0.6,3-1.3c0.1,0.1,0.3,0.1,0.5,0.1c0.5,0,0.8-0.4,0.8-0.8
		c0-0.2-0.2-0.4-0.4-0.5c0.1-0.2,0.2-0.5,0.2-0.7C450,77.1,449,76,449,76L449,76z"/>
	<path class="st0" d="M262.9,69.1c-1,1.3-3.1,2-4.5,1.4c-1.3-0.5-1.4-1.8-0.5-2.9c0.2,0,0.4,0,0.6-0.1c-0.1,0.4,0.2,0.8,0.7,1
		c0.9,0.3,2.2-0.1,2.8-0.8c0.2-0.3,0.3-0.5,0.3-0.8c0.2,0,0.4-0.1,0.6-0.1C263.5,67.4,263.5,68.3,262.9,69.1L262.9,69.1z
		 M277.2,71.4c-2.6-0.6-8.7-7.3-8.7-7.3s-6.3,2.7-9.4,1.9c-1-0.3-1.5,0.4-1.5,0.4l-1.7,0.9c0,0-1.6,0.7,0.7,0.5
		c-0.2,0.2-0.3,0.4-0.4,0.6c-0.3,0-0.6,0.2-0.8,0.4c-0.3,0.3-0.4,0.7,0,0.8c0.1,0.1,0.3,0.1,0.5,0c0,0.8,0.5,1.6,1.5,2
		c2.1,0.9,5.3-0.2,6.6-2.2c0.3-0.4,0.4-0.8,0.5-1.2c0.1-0.6,1.6,0,1.6,0c0,0,0,0,0,0c-0.2,0.1-0.5,0.2-0.6,0.4
		c-0.2,0.3,0,0.7,0.4,0.8c0.4,0.1,5.9,3.2,6.7,3.5c1.1,0.4,0.3-1.4,0.3-1.4s5.6,1.8,5.8,1.3C279.1,72.4,280,72.1,277.2,71.4
		L277.2,71.4z"/>
	<path class="st1" d="M486.1,250.8c-0.1-0.2-6.9-25.4-6.9-54.5c0-28.6,6.6-51,6.8-51.9c0.5-1.7-0.3-3.4-1.9-4l-0.1-0.1
		c-5.6-2.5-56.5-24.7-105.7-26.1c-0.9,0-1.7,0.3-2.3,0.9c-0.6,0.6-1,1.5-1,2.4c-0.1,8.4-7.6,10.3-13.8,10.4
		c-6.2-0.1-13.7-2-13.8-10.4c0-0.9-0.4-1.8-1-2.4c-0.6-0.6-1.4-0.9-2.4-0.9c0,0,0,0,0,0c-49.1,1.4-99.9,23.6-105.6,26.1l-0.1,0.1
		c-1.6,0.7-2.4,2.4-1.9,4.1c0.1,0.2,6.8,23.2,6.8,51.9c0,28.8-6.8,54.3-6.8,54.5c-0.3,1.1,0,2.3,0.8,3.1l24.4,26.6
		c0.9,1,2.4,1.4,3.7,0.9l16.1-6.4l4.1,15.1c-4,1.9-13.6,6.6-13.6,6.6c-1.1,0.6-1.9,1.7-1.9,3c0,0.2,0,0.5,0.1,0.7
		c5.3,25,28.1,44.5,46.2,56.4c6.7,4.4,13.4,9,19.4,13c12.9,8.8,20.4,13.8,23.6,14.9l0.3,0.1c0,0,2.9,0.9,3.1,0.9l1.3-0.4
		c3.1-1.3,9.1-5.6,19.1-12.6c7-5,15-10.6,23.2-15.9c18.1-11.9,40.9-31.3,46.2-56.4c0.1-0.2,0.1-0.5,0.1-0.7c0-1.3-0.7-2.4-1.9-3
		c0,0-9.6-4.7-13.6-6.6c0.9-3.5,3-11.1,4.1-15.1l16.1,6.4c1.3,0.5,2.8,0.1,3.7-0.9l24.4-26.6C486.2,253.1,486.5,251.9,486.1,250.8
		L486.1,250.8z"/>
	<path class="st2" d="M362.2,375.3C362.2,375.3,362.2,375.3,362.2,375.3C362.2,375.3,362.2,375.3,362.2,375.3L362.2,375.3z
		 M360.4,375.3C360.4,375.3,360.4,375.3,360.4,375.3C360.4,375.3,360.4,375.3,360.4,375.3L360.4,375.3z M379.6,121.5
		c46.6,1.6,94.1,19.7,101.7,22.7c-1.4,5.1-6.7,26.2-6.7,52.1c0,27,5.8,50.8,6.8,55c-0.9,1-22.1,24.2-23.3,25.4
		c-1.6-0.6-18.7-7.4-18.7-7.4c-0.3-0.1-0.7-0.1-1.1,0c-0.3,0.2-0.6,0.5-0.7,0.8l-5.8,21.4c0,0.1,0,0.2,0,0.3c0,0.5,0.3,1,0.7,1.2
		c0,0,13.4,6.5,15.1,7.4c-9.9,42.2-73.8,70-86.4,73.9c-12.5-3.9-76.5-31.7-86.4-73.9c1.7-0.8,15.1-7.4,15.1-7.4
		c0.5-0.2,0.7-0.7,0.7-1.2c0-0.1,0-0.2,0-0.3l-5.8-21.4c-0.1-0.4-0.3-0.7-0.7-0.8c-0.3-0.2-0.7-0.2-1.1,0c0,0-17.2,6.8-18.7,7.4
		c-1.1-1.3-22.4-24.4-23.3-25.4c1.1-4.2,6.8-28,6.8-55c0-25.9-5.3-47-6.7-52.1c7.6-3,55-21,101.7-22.7c1,10.6,12.2,14.4,18.3,14.5
		C367.5,135.9,378.6,132.2,379.6,121.5L379.6,121.5z M377.5,116.6c-0.3,0.2-0.4,0.6-0.4,0.9c-0.1,7.9-5.9,12.2-15.8,12.4
		c-9.9-0.2-15.7-4.5-15.8-12.4c0-0.4-0.2-0.7-0.4-0.9c-0.3-0.2-0.6-0.4-1-0.4c-51.5,1.5-104.4,25.8-105,26c-0.6,0.3-1,1-0.8,1.6
		c0.1,0.2,6.9,23.3,6.9,52.5c0,29.2-6.9,54.8-6.9,55c-0.1,0.4,0,0.9,0.3,1.2l24.4,26.6c0.4,0.4,1,0.5,1.5,0.3c0,0,15.8-6.3,18.2-7.2
		c0.6,2.4,4.6,17.1,5.1,18.9c-1.7,0.8-15.1,7.3-15.1,7.3c-0.5,0.2-0.7,0.7-0.7,1.2c0,0.1,0,0.2,0,0.3c5.2,24.4,27.5,43.4,45.3,55.1
		c19.1,12.5,37.8,26.1,42.5,27.7c0,0.1,0.1-6,0.1-6c0.3,0.3,0.6,6.5,1,6.5c0,0,0.2,0,0.3-0.1c0.1,0,0.3-6.1,0.3-6.1
		c0.4,0.1,0.7,6.1,1,5.9c0.1-0.1,0.1,0.8,0.1,0.7c4.7-1.6,23.4-16.1,42.5-28.6c17.8-11.7,40.2-30.7,45.3-55.1c0-0.1,0-0.2,0-0.3
		c0-0.5-0.3-1-0.7-1.2c0,0-13.3-6.5-15.1-7.3c0.5-1.8,4.5-16.5,5.1-18.9c2.4,0.9,18.2,7.2,18.2,7.2c0.5,0.2,1.1,0.1,1.5-0.3
		l24.4-26.6c0.3-0.3,0.4-0.8,0.3-1.2c-0.1-0.3-6.9-25.8-6.9-55c0-29.2,6.8-52.3,6.9-52.5c0.2-0.7-0.1-1.3-0.8-1.6
		c-0.5-0.2-53.4-24.5-105-26C378.1,116.2,377.8,116.3,377.5,116.6L377.5,116.6z"/>
	<path class="st1" d="M379.6,121.5c46.6,1.6,94.1,19.7,101.7,22.7c-1.4,5.1-6.7,26.2-6.7,52.1c0,27,5.8,50.8,6.8,55
		c-0.9,1-22.1,24.2-23.3,25.4c-1.6-0.6-18.7-7.4-18.7-7.4c-0.3-0.1-0.7-0.1-1.1,0c-0.3,0.2-0.6,0.5-0.7,0.8l-5.8,21.4
		c0,0.1,0,0.2,0,0.3c0,0.5,0.3,1,0.7,1.2c0,0,13.4,6.5,15.1,7.4c-9.9,42.2-73.8,70-86.4,73.9c-12.5-3.9-76.5-31.7-86.4-73.9
		c1.7-0.8,15.1-7.4,15.1-7.4c0.5-0.2,0.7-0.7,0.7-1.2c0-0.1,0-0.2,0-0.3l-5.8-21.4c-0.1-0.4-0.3-0.7-0.7-0.8c-0.3-0.2-0.7-0.2-1.1,0
		c0,0-17.2,6.8-18.7,7.4c-1.1-1.3-22.4-24.4-23.3-25.4c1.1-4.2,6.8-28,6.8-55c0-25.9-5.3-47-6.7-52.1c7.6-3,55-21,101.7-22.7
		c1,10.6,12.2,14.4,18.3,14.5C367.5,135.9,378.6,132.2,379.6,121.5L379.6,121.5z"/>
	<path class="st3" d="M401.5,248.6v11.2c7.7,0.8,15,1.7,21.9,2.8c1,0.2,1.4,5.2,2.4,5.4c1.6,0.3,3.7-4.4,5.3-4.1
		c12,2.2,22.5,4.8,31.7,7.5c0.2,0.1,0.4,0.1,0.6,0.2c-2.1,2.3-3.7,4.1-4.5,5c2-2.2,9.4-10.3,15.1-16.5c0.1-0.2,0.3-0.4,0.3-0.5
		C457.9,255.9,429.9,250.6,401.5,248.6L401.5,248.6z"/>
	<path class="st3" d="M320.5,259.7v-12.5c-31.1,2.8-61.3,8.5-72.8,11.3c3.6,3.9,8.3,9,11.8,12.9C275.1,266.5,295.2,262,320.5,259.7
		L320.5,259.7z"/>
	<path class="st3" d="M401.3,305.9v48.3c15.7-10.1,31.8-23.6,40.4-39.8C431.4,310.7,417.9,308.3,401.3,305.9L401.3,305.9z"/>
	<path class="st3" d="M280.8,314.2c8.5,15.9,24.1,29.2,39.5,39.3v-47.2C304.6,308.7,291.4,310.8,280.8,314.2L280.8,314.2z"/>
	<path class="st0" d="M380.2,122.2c45.2,1.7,90.5,18.5,100.3,22.4c-1.7,6.5-6.6,26.8-6.6,51.7c0,26.4,5.5,49.7,6.8,54.8
		c-0.5,0.5-22.1,24.2-22.7,24.8c-0.8-0.3-18.3-7.2-18.3-7.2c-0.5-0.2-1.1-0.2-1.6,0.1c-0.5,0.3-0.9,0.7-1,1.3c0,0-5.8,21.4-5.8,21.4
		c0,0-0.1,0.5-0.1,0.5c0,0.8,0.4,1.5,1.1,1.8c0,0,12,5.8,14.6,7.1c-10.2,41.3-73,68.9-85.5,72.8c-12.5-3.9-75.4-31.5-85.5-72.8
		c1-0.5,14.6-7.1,14.6-7.1c0.7-0.3,1.1-1,1.1-1.8l-0.1-0.5l-5.8-21.4c-0.1-0.5-0.5-1-1-1.3c-0.5-0.3-1.1-0.3-1.6-0.1
		c0,0-15.6,6.2-18.3,7.2c-0.6-0.7-22.2-24.3-22.7-24.8c1.3-5.2,6.8-28.4,6.8-54.8c0-24.9-4.8-45.2-6.6-51.7
		c9.9-3.9,55.1-20.7,100.3-22.4c1.4,10.3,12.2,14.4,18.8,14.5C368,136.6,378.7,132.5,380.2,122.2L380.2,122.2z M379,121.5
		c-1,9.9-11.4,13.8-17.7,13.9c-6.3-0.1-16.7-4-17.6-13.9l-0.1-0.6l-0.6,0c-46.4,1.6-93,19.2-101.9,22.7l-0.6,0.2l0.2,0.6
		c1.6,5.7,6.7,26.4,6.7,51.9c0,26.8-5.7,50.4-6.8,54.9l-0.1,0.4l23.8,26l19.2-7.6c0.2-0.1,0.4-0.1,0.5,0c0.2,0.1,0.3,0.2,0.3,0.4
		l5.8,21.4l0,0.2c0,0.2-0.1,0.5-0.4,0.6l-15.6,7.6l0.1,0.5c9.9,42.4,74.5,70.6,86.8,74.4l0.2,0.1l0.2-0.1
		c12.3-3.8,76.9-32,86.8-74.4l0.1-0.5l-15.6-7.6c-0.2-0.1-0.4-0.3-0.4-0.6l0-0.2l5.8-21.4c0-0.2,0.2-0.3,0.3-0.4
		c0.2-0.1,0.4-0.1,0.5,0c0,0,19.2,7.6,19.2,7.6l23.8-26l-0.1-0.4c-1.1-4.5-6.8-28.1-6.8-54.9c0-25.5,5.1-46.2,6.7-51.9l0.2-0.6
		l-0.6-0.2c-8.9-3.5-55.5-21.1-101.9-22.7l-0.6,0L379,121.5L379,121.5z"/>
	<path class="st2" d="M474,195.7c-74.9,4.5-150.4,4.5-225.3,0.1c0,0.2,0,0.3,0,0.5c0,0.7,0,1.4,0,2.1c74.9,3.7,150.5,3.7,225.3-0.1
		c0-0.7,0-1.3,0-2C474,196.1,474,195.9,474,195.7L474,195.7z"/>
	<path class="st2" d="M248.6,190.7c0,0.9,0,1.7,0.1,2.6c74.9,5.1,150.5,5.1,225.4-0.1c0-0.9,0-1.7,0.1-2.6
		C399.1,196.4,323.5,196.4,248.6,190.7L248.6,190.7z"/>
	<path class="st2" d="M248.4,185.5c0,0.9,0.1,1.7,0.1,2.6c75,6.5,150.7,6.4,225.7-0.2c0-0.9,0.1-1.8,0.1-2.6
		C399.2,192.6,323.4,192.6,248.4,185.5L248.4,185.5z"/>
	<path class="st2" d="M248,180.3c0.1,0.9,0.1,1.7,0.2,2.6c75.2,7.9,151.1,7.8,226.2-0.2c0.1-0.9,0.1-1.8,0.2-2.6
		C399.3,188.8,323.3,188.9,248,180.3L248,180.3z"/>
	<path class="st2" d="M246.5,226.9c-0.1,0.9-0.2,1.8-0.4,2.6c76.6-4.6,153.9-4.6,230.5,0.1c-0.1-0.9-0.3-1.7-0.4-2.6
		C399.9,223.1,322.8,223.1,246.5,226.9L246.5,226.9z"/>
	<path class="st2" d="M244.8,237.5c-0.2,0.9-0.3,1.8-0.5,2.7c77.8-7.7,156.3-7.6,234.1,0.2c-0.2-0.9-0.3-1.8-0.5-2.7
		C400.4,230.7,322.2,230.6,244.8,237.5L244.8,237.5z"/>
	<path class="st2" d="M245.7,232.2c-0.1,0.9-0.3,1.8-0.4,2.6c77.1-6.1,155-6.1,232.1,0.2c-0.1-0.9-0.3-1.8-0.4-2.7
		C400.1,226.9,322.5,226.8,245.7,232.2L245.7,232.2z"/>
	<path class="st2" d="M243.7,242.9c-0.2,1-0.4,1.9-0.6,2.7c78.5-9.4,157.8-9.3,236.3,0.2c-0.2-0.8-0.4-1.7-0.6-2.7
		C400.8,234.4,321.9,234.3,243.7,242.9L243.7,242.9z"/>
	<path class="st2" d="M247.7,216.5c-0.1,0.9-0.2,1.7-0.3,2.6c75.7-1.7,152.1-1.7,227.8,0c-0.1-0.9-0.2-1.7-0.3-2.6
		C399.4,215.5,323.2,215.5,247.7,216.5L247.7,216.5z"/>
	<path class="st2" d="M248.4,206.1c0,0.9-0.1,1.7-0.1,2.6c75.1,1,151,1,226.1,0c-0.1-0.9-0.1-1.7-0.1-2.6
		C399.2,207.8,323.4,207.8,248.4,206.1L248.4,206.1z"/>
	<path class="st2" d="M247.1,221.7c-0.1,0.9-0.2,1.7-0.3,2.6c76.1-3.2,152.9-3.1,229,0.1c-0.1-0.9-0.2-1.7-0.3-2.6
		C399.6,219.3,323,219.3,247.1,221.7L247.1,221.7z"/>
	<path class="st2" d="M248.1,211.3c-0.1,0.9-0.1,1.7-0.2,2.6c75.4-0.3,151.5-0.3,226.8,0c-0.1-0.9-0.1-1.7-0.2-2.6
		C399.3,211.7,323.3,211.7,248.1,211.3L248.1,211.3z"/>
	<path class="st2" d="M248.6,201c0,0.9,0,1.7-0.1,2.6c75,2.4,150.6,2.4,225.6-0.1c0-0.9-0.1-1.7-0.1-2.6
		C399.1,204,323.5,204.1,248.6,201L248.6,201z"/>
	<path class="st0" d="M334,333c0,15.1,12.2,27.3,27.3,27.3c15.1,0,27.3-12.2,27.3-27.3c0-15.1-12.2-27.3-27.3-27.3
		C346.2,305.7,334,317.9,334,333L334,333z"/>
	<path class="st2" d="M338.4,333c0-12.6,10.3-22.9,22.9-22.9c12.6,0,22.9,10.3,22.9,22.9c0,12.6-10.3,22.9-22.9,22.9
		C348.7,355.9,338.4,345.6,338.4,333L338.4,333z M335.7,333c0,14.1,11.5,25.6,25.6,25.6c14.1,0,25.6-11.5,25.6-25.6
		c0-14.1-11.5-25.6-25.6-25.6C347.2,307.3,335.7,318.8,335.7,333L335.7,333z"/>
	<path class="st1" d="M367.8,338.1c1.9,1.2,4.4,1.4,6.4,0.4c1-0.4,1.9-1.4,2.5-2.3c0.6-1,0.9-2.2,1-3.3c0.1-2.4-1.1-4.6-3.1-6
		c-1-0.6-1.9-1-3.1-1l-0.4,0l-0.4,0l-0.4,0.1l-0.4,0.1l-0.4,0.1l-0.4,0.2l-0.4,0.2l-7.2,4.7l-7.7,4.8c-1.5,0.9-3.3,0.9-4.7,0
		c-2.8-2.4-1.9-6.9,1.6-8.1c0.8-0.2,1.7-0.1,2.4,0.4l5.7,3.7l2.1-1.3l-6.6-4.3l-0.4-0.2l-0.4-0.2l-0.4-0.1l-0.4-0.1l-0.4-0.1l-0.4,0
		c-1.3-0.1-2,0.1-3.1,0.7c-2.2,1.3-3.6,3.7-3.5,6.3c0,1.2,0.4,2.3,1,3.3c0.6,1,1.4,1.9,2.5,2.3c1.1,0.5,2.1,0.7,3.3,0.6l0.5,0
		l0.5-0.1l0.5-0.1l0.5-0.1l0.4-0.2l0.4-0.2l0.4-0.2l14.9-9.5c0.7-0.5,1.6-0.6,2.4-0.4c3.5,1.2,4.4,5.7,1.6,8.1
		c-1.3,1.1-3.3,0.9-4.7,0l-5-3.1l-2.1,1.4L367.8,338.1"/>
	<path class="st1" d="M358.6,339.2c-3.5,3-1.6,9,3.2,8.7c2.2-0.2,3.8-1.8,4.1-4c0.3-1.7-0.4-3.8-2.1-4.4v3.7h-2.4v-6.6
		c1.3-0.1,2.6,0.2,3.7,0.9c1,0.6,1.8,1.3,2.4,2.3c0.5,0.9,0.9,2.3,0.8,3.3c0,1.3-0.3,2.5-0.9,3.7c-0.6,1.1-1.5,1.9-2.5,2.6
		c-1.1,0.6-2.3,0.9-3.6,0.9c-1.6,0-3.3-0.6-4.6-1.7c-2.3-2.2-3-5.7-1.7-8.6c0.4-1,1.1-1.8,1.8-2.5L358.6,339.2"/>
	<path class="st1" d="M364.1,325.8c3.5-3,1.6-9-3.2-8.7c-2.2,0.2-3.8,1.8-4.1,4c-0.3,1.7,0.4,3.8,2.1,4.4v-3.7h2.4v6.6
		c-1.3,0.1-2.6-0.2-3.7-0.9c-1-0.6-1.8-1.3-2.4-2.3c-0.5-0.9-0.9-2.3-0.8-3.3c0-1.3,0.3-2.5,0.9-3.7c0.6-1.1,1.5-1.9,2.5-2.5
		c1.1-0.6,2.3-0.9,3.6-0.9c1.6,0,3.3,0.6,4.6,1.7c2.3,2.2,3,5.7,1.7,8.6c-0.4,0.9-1.1,1.8-1.8,2.5L364.1,325.8"/>
	<path class="st3" d="M474,146.5c-14.2-5.2-51.4-17.7-89.2-20l-1.4-0.1l-0.6,1.3c-4,9.4-15.1,12.9-21.5,13l0,2l-0.2-2
		c-6.4-0.1-17.5-3.7-21.5-13l-0.6-1.3l-1.4,0.1c-37.7,2.3-74.9,14.7-89.1,20l-1.7,0.6l0.4,1.7c1.1,4.6,2.6,12,3.7,21l0.1,0.7
		l0.6,0.5c1.2,1.1,2.1,2.5,2.7,4c0.2,0.4,8.7,1.2,8.7,1.2c0-2.7,0.9-2.9,2.9-4.8c1.8-1.7,4.1-2.6,6.5-2.6l1.2,0.1
		c0.4,0,1.9,0.1,6.8,0.1c5.6,0,13-0.1,17.6-0.1l4.7,0c3.4,0,6.9,0.3,10.3,0.9c2.8,0.5,5.4,1.2,7.9,2.2l1.2,0.5l0.9-0.8
		c1.8-1.6,4.1-2.5,6.4-2.5l0.9,0c1.2,0.1,9.3,0.3,25.7,0.3c15.8,0,24.7-0.2,26-0.3l0.2,0l0.6,0c2.7,0,5.2,1.1,7.1,3
		c0.2,0.2,0.4,0.5,0.6,0.7l1,1.3l1.5-0.7c2.3-1.1,4.8-2.1,7.5-2.8c5.2-1.5,10.9-2.3,16.9-2.3c6,0,11.7,0.8,17,2.3
		c4.4,1.2,8.4,3,12,5.3l2,1.3l0.9-2.2c0.5-1.3,1.3-2.4,2.4-3.3c1.8-1.6,4.1-2.5,6.4-2.5l1.2,0.1c0.4,0,2,0.1,6.6,0.1l5.7,0l0.2-1.7
		c0.9-6.5,2-12.8,3.4-18.7l0.4-1.7L474,146.5L474,146.5z"/>
	<path class="st2" d="M235.4,278.2c0,0-2.6,1.8-2.6,1.8c-2.8,2.1-4.3,3.5-4.8,3.9c-0.8,0.8-1.2,1.8-1.2,2.8c0,0,0,0,0,0.1
		c0,1.1,0.4,2,1.1,2.8c0.1,0.1,0.2,0.2,0.4,0.3c0.1,0.1,10.5,5.4,16.6,13.1c6.3,7.9,12.6,17.1,12.6,17.2c0,0.1,0.1,0.1,0.2,0.2
		c1.4,1.4,3.6,1.6,5.2,0.5c0.2-0.1,21.1-14.4,58.8-21.3c0,0,2.6-0.5,2.6-0.5l2.3-0.4c6.1-1,12.4-1.7,18.7-2.2
		c1.2-0.1,1.5-1.1,2.3-3.7c0.1-0.2,0.1-0.5,0.2-0.7c0.1,0.2,0.3,0.5,0.4,0.7c0.9,1.6,1.7,3.4,3.4,3.3l11.5-0.3
		c63.2,0,94.8,24.7,95.1,24.9c0.5,0.4,1.2,0.7,1.9,0.8c0.4,0.1,0.8,0,1.1-0.3c0.6-0.4,0.6-1,0.7-1.8c0.2-1.6,0.5-4.9,3.2-7.4
		c10.2-9.6,31-24.1,31.2-24.3c0.1,0,0.1-0.1,0.2-0.2c0.8-0.8,1.2-2,1.2-3.1c-0.1-1.2-0.7-2.2-1.6-2.9c-1.5-1.1-15-10.8-41.6-19.6
		c-9.1-3-18.9-5.5-28.9-7.6c-1.5-0.3-2.6,1.1-3.7,2.5c-0.2,0.3-0.5,0.7-0.8,1c-0.1-0.4-0.2-0.8-0.3-1.1c-0.5-2-0.9-3.5-2.2-3.7
		c-17.9-3.1-37-4.7-56.7-4.7C290,248.4,251.8,267.1,235.4,278.2L235.4,278.2z"/>
	<path class="st0" d="M491.5,286.3c-0.3,0.2-0.7,0.2-1-0.1c-10-11.9-63.4-25.7-64-25.8c-0.4-0.1-0.6-0.5-0.5-0.8
		c0.1-0.4,0.5-0.6,0.8-0.5c2.2,0.6,54.5,14,64.7,26.3C491.8,285.7,491.8,286.1,491.5,286.3L491.5,286.3z M458.7,312
		c0.3,0.2,0.4,0.6,0.3,0.9c-0.2,0.3-0.6,0.4-0.9,0.3c-46.2-25.6-95.8-23.5-96.3-23.5c-0.4,0-0.7-0.3-0.7-0.6c0-0.4,0.3-0.7,0.6-0.7
		C362.2,288.4,412.2,286.2,458.7,312L458.7,312z M319.2,294.2c-20,2.8-41.3,9.9-59.8,20.2c-0.3,0.2-0.7,0.1-0.9-0.3
		c-0.2-0.3-0.1-0.7,0.3-0.9c18.7-10.4,40.1-17.6,60.2-20.4c0.4-0.1,0.7,0.2,0.8,0.6C319.8,293.8,319.5,294.1,319.2,294.2
		L319.2,294.2z M494.8,284.8c0-0.4-0.2-0.7-0.5-0.9c-0.6-0.4-14.2-10.4-40.8-19.1c-9-2.9-18.5-5.4-28.3-7.4c-0.3,0.2-0.9,1-1.3,1.4
		c-1.1,1.4-2.2,2.9-3.8,2.6c-1.3-0.2-1.7-1.7-2.2-3.7c-0.1-0.6-0.3-1.3-0.5-1.8c-17.6-3.1-36.3-4.6-55.7-4.6
		c-73.6,0-111.8,20.5-124.8,29.3c0,0-2.5,1.8-2.5,1.8c-2.8,2-4.2,3.4-4.5,3.6c-0.2,0.2-0.4,0.6-0.4,0.9c0,0,0,0,0,0
		c0,0.3,0.1,0.6,0.3,0.8c0.2,0.1,0.6,0.3,1.1,0.6c1.9-1.7,14.3-12.7,32.1-18.8c26.1-8.9,54.8-13.9,85.2-14.7c0.4,0,0.7,0.3,0.7,0.7
		c0,0.4-0.3,0.7-0.7,0.7c-30.3,0.8-58.8,5.8-84.8,14.7c-16.8,5.7-28.7,15.9-31.4,18.2c0.6,0.4,1.3,0.8,2,1.3
		c2.2-1.8,7.9-6.1,14.8-7.9c0.4-0.1,0.7,0.1,0.8,0.5c0.1,0.4-0.1,0.7-0.5,0.8c-6.2,1.6-11.6,5.5-13.9,7.3c3.6,2.4,8.2,6,11.6,10.3
		c1,1.3,2,2.6,3,3.9c4.9-2.4,19.2-9.3,27-11c0.4-0.1,0.7,0.1,0.8,0.5c0.1,0.4-0.1,0.7-0.5,0.8c-7.4,1.7-21.4,8.3-26.5,10.8
		c0.9,1.2,1.8,2.4,2.6,3.5c3.1-1.7,25.9-14.2,49.8-18c0.4-0.1,0.7,0.2,0.8,0.6c0.1,0.4-0.2,0.7-0.6,0.8
		c-23.3,3.8-45.7,15.8-49.2,17.8c2.9,4,5.1,7.2,5.4,7.7c0.4,0.4,1.1,0.5,1.6,0.1c0.2-0.1,21.4-14.7,59.9-21.7l2.6-0.5l2.3-0.4
		c6-0.9,12.1-1.7,18.2-2.1c0.2-0.5,0.4-1.2,0.6-1.8c0.7-2.5,1.1-3.6,2.3-3.7c1.7-0.1,2.6,1.6,3.4,3.2c0.3,0.6,0.8,1.5,1.1,1.8
		c0.5,0,11.4-0.3,11.4-0.3c59.6,0,91.5,21.6,96.1,25c0.3-2,1-5.3,3.9-8c0.1-0.1,0.3-0.3,0.4-0.4c-1.5-0.9-25.4-14.4-50-18.4
		c-0.4-0.1-0.6-0.4-0.6-0.8c0.1-0.4,0.4-0.6,0.8-0.6c25.5,4.1,50.3,18.5,50.6,18.6c0.1,0.1,0.2,0.1,0.2,0.2c1.1-1,2.3-2,3.6-3.1
		c-2.6-1.4-19.1-10.1-27.6-12c-0.4-0.1-0.6-0.4-0.5-0.8c0.1-0.4,0.4-0.6,0.8-0.5c9.4,2.1,27.6,11.9,28.3,12.3c0,0,0.1,0.1,0.1,0.1
		c10.3-8.5,23.8-18.1,25.2-19.1C494.7,285.5,494.8,285.2,494.8,284.8C494.8,284.8,494.8,284.8,494.8,284.8L494.8,284.8z"/>
	<path class="st1" d="M263.3,286.5c0.1,0,0.1,0,0.2,0l0.3-0.1c0.7-0.3,1.1-0.7,1.2-1.2c0.1-0.6,0-1.2-0.3-2c-0.2-0.6-0.4-1-0.7-1.3
		c-0.2-0.3-0.5-0.5-0.7-0.6c-0.3-0.1-0.5-0.1-0.7-0.1c-0.2,0-0.5,0.1-0.7,0.2c-0.1,0-0.2,0.1-0.3,0.1c-0.1,0-0.2,0.1-0.3,0.1
		l1.9,4.9C263.2,286.5,263.2,286.5,263.3,286.5L263.3,286.5z M269,287.8c0.5,0.4,1,0.9,1.5,1.3c0.5,0.4,1,0.9,1.5,1.3
		c0.5,0.4,1,0.8,1.4,1.2c-0.4,0.1-0.8,0.2-1.2,0.3c-0.4,0.1-0.8,0.2-1.2,0.4c-0.4,0.1-0.7,0.3-1,0.5c-0.3,0.2-0.6,0.3-1,0.5
		c-0.8-0.9-1.7-1.7-2.5-2.6c-0.8-0.9-1.7-1.7-2.6-2.5l0,0c0.3,0.9,0.7,1.9,1.2,3c0.4,1.1,0.9,2.2,1.3,3.2c-0.3,0.1-0.7,0.1-1,0.2
		c-0.3,0.1-0.7,0.2-1,0.3c-0.3,0.1-0.6,0.3-0.9,0.4c-0.3,0.2-0.7,0.3-1,0.5c-0.2-0.7-0.5-1.5-0.8-2.5c-0.3-1-0.7-1.9-1-2.9
		c-0.2-0.4-0.4-1-0.6-1.7c-0.3-0.7-0.5-1.4-0.9-2.2c-0.3-0.8-0.7-1.6-1-2.5c-0.4-0.9-0.7-1.8-1.1-2.6c0.4-0.1,0.8-0.2,1.2-0.3
		c0.4-0.1,0.8-0.2,1.1-0.4c0.5-0.2,1-0.4,1.5-0.7c0.5-0.3,1-0.5,1.5-0.7c0.5-0.2,1.1-0.4,1.7-0.5c0.6-0.1,1.2-0.1,1.7,0
		c0.5,0.1,1.1,0.4,1.5,0.7c0.5,0.4,0.9,1,1.2,1.8c0.4,1,0.5,1.9,0.2,2.6c-0.3,0.7-0.7,1.4-1.5,1.9l0.6,0.6
		C268,286.9,268.5,287.3,269,287.8L269,287.8z"/>
	<path class="st1" d="M270.5,280.6c-0.4-1.3-0.9-2.6-1.4-3.8c0.4,0,0.8-0.1,1.1-0.2c0.3-0.1,0.7-0.2,1.1-0.3c0.4-0.1,0.7-0.2,1-0.4
		c0.3-0.1,0.7-0.3,1-0.5c0.1,0.3,0.1,0.8,0.3,1.2c0.1,0.5,0.2,1,0.4,1.5c0.1,0.5,0.3,1.1,0.4,1.6c0.2,0.5,0.3,1,0.4,1.4l0.4,1.4
		c0.2,0.8,0.5,1.4,0.7,2.1c0.2,0.6,0.5,1.2,0.8,1.6c0.3,0.4,0.7,0.7,1.1,0.9c0.4,0.2,1,0.1,1.6-0.1c0.4-0.1,0.8-0.4,1.1-0.7
		c0.3-0.3,0.5-0.8,0.5-1.3c0-0.4,0-0.8-0.1-1.2c-0.1-0.4-0.2-0.8-0.3-1.3c-0.1-0.3-0.1-0.5-0.2-0.7c-0.1-0.2-0.2-0.5-0.2-0.7
		l-0.5-1.5c-0.3-0.9-0.6-1.8-0.9-2.7c-0.3-0.9-0.7-1.9-1.1-3c0.2,0,0.5-0.1,0.7-0.1c0.2,0,0.5-0.1,0.7-0.1c0.2-0.1,0.4-0.1,0.6-0.2
		c0.2-0.1,0.4-0.2,0.5-0.3c0.2,0.6,0.3,1.3,0.5,2.1c0.2,0.7,0.4,1.5,0.6,2.2c0.2,0.7,0.4,1.4,0.6,2c0.2,0.6,0.3,1.1,0.4,1.4
		c0.2,0.6,0.4,1.2,0.5,1.7c0.1,0.5,0.2,1,0.3,1.4c0.1,0.4,0.1,0.9,0,1.3c0,0.4-0.1,0.8-0.3,1.3c-0.3,0.9-0.7,1.5-1.4,2.1
		c-0.6,0.5-1.4,0.9-2.3,1.2c-1.8,0.6-3.3,0.5-4.5-0.2c-1.2-0.7-2.1-2.2-2.8-4.4C271.4,283.5,270.9,281.9,270.5,280.6L270.5,280.6z"
		/>
	<path class="st1" d="M292.1,272.7c-0.6-0.3-1.3-0.3-2-0.1c-0.7,0.2-1.2,0.5-1.6,1c-0.4,0.5-0.6,1-0.7,1.6c-0.1,0.6-0.2,1.3-0.1,2
		c0.1,0.7,0.2,1.5,0.4,2.2c0.5,2,1.1,3.3,1.8,4.2c0.7,0.8,1.7,1.1,2.8,0.8c0.2-0.1,0.4-0.1,0.5-0.2c0.1-0.1,0.3-0.2,0.4-0.3
		c-0.2-0.8-0.4-1.6-0.7-2.4c-0.2-0.8-0.5-1.6-0.7-2.4c0.4,0,0.7-0.1,1-0.1c0.3,0,0.7-0.1,0.9-0.2c0.3-0.1,0.6-0.2,1-0.3
		c0.3-0.1,0.6-0.2,0.9-0.4c0.2,0.9,0.4,1.8,0.6,2.5c0.2,0.8,0.3,1.5,0.5,2.2c0,0.2,0.1,0.4,0.2,0.7c0.1,0.2,0.1,0.4,0.2,0.6
		c-0.3,0.2-0.6,0.4-1,0.6c-0.4,0.2-0.8,0.4-1.2,0.6c-0.4,0.2-0.8,0.4-1.2,0.5c-0.4,0.2-0.8,0.3-1.2,0.4c-1,0.2-1.9,0.3-2.8,0.2
		c-0.9-0.1-1.8-0.4-2.6-0.9c-0.8-0.5-1.5-1.1-2.1-2c-0.6-0.9-1.1-1.9-1.4-3.2c-0.3-1.2-0.4-2.3-0.3-3.3c0.1-1,0.4-2,0.9-2.8
		c0.5-0.8,1.1-1.5,1.9-2.1c0.8-0.6,1.7-1,2.7-1.3c0.8-0.2,1.7-0.3,2.5-0.3c0.9,0,1.7,0.1,2.6,0.3c-0.1,0.6-0.1,1.2-0.1,1.7
		c0,0.5,0,1.1,0.1,1.7l-0.6,0.2C293.3,273.5,292.7,272.9,292.1,272.7L292.1,272.7z"/>
	<path class="st1" d="M302.4,278.8l0.3,1.5c0.1,0.4,0.1,0.7,0.2,0.9c0,0.2,0.1,0.5,0.1,0.7c0.3-0.1,0.7-0.1,0.9-0.2
		c0.3-0.1,0.5-0.2,0.7-0.5c0.2-0.2,0.3-0.5,0.3-0.9c0-0.4,0-0.9-0.1-1.6c-0.2-0.8-0.4-1.4-0.8-1.8c-0.4-0.4-0.8-0.5-1.4-0.4
		l-0.7,0.1L302.4,278.8L302.4,278.8z M303.4,273.9c0.2-0.5,0.2-1.1,0.1-1.8c-0.1-0.3-0.2-0.6-0.3-0.9c-0.1-0.3-0.2-0.5-0.4-0.7
		c-0.2-0.2-0.4-0.3-0.6-0.4c-0.3-0.1-0.6-0.1-0.9,0l-0.3,0c0,0-0.1,0-0.1,0c0,0-0.1,0-0.1,0c0,0.2,0.1,0.4,0.1,0.6
		c0,0.2,0.1,0.5,0.2,0.8l0.3,1.3l0.4,2l0.6-0.1C302.8,274.6,303.2,274.4,303.4,273.9L303.4,273.9z M305.8,275.1
		c0.5,0.1,1,0.2,1.4,0.4c0.4,0.2,0.8,0.6,1.1,1c0.3,0.4,0.5,1,0.7,1.7c0.1,0.7,0.1,1.4,0,2c-0.2,0.6-0.5,1.1-0.8,1.5
		c-0.4,0.4-0.8,0.8-1.4,1c-0.5,0.3-1.1,0.4-1.6,0.5c-0.6,0.1-1.2,0.2-1.9,0.3c-0.7,0.1-1.4,0.2-2,0.3c-0.3,0.1-0.6,0.1-1,0.3
		c-0.3,0.1-0.6,0.2-0.9,0.3c-0.1-0.7-0.2-1.3-0.3-1.7c-0.1-0.4-0.1-0.8-0.2-1.2c-0.1-0.4-0.1-0.8-0.2-1.1c-0.1-0.4-0.2-0.9-0.3-1.4
		l-0.3-1.6l-0.4-2l-0.3-1.3c-0.1-0.4-0.1-0.7-0.2-0.9c-0.1-0.3-0.1-0.5-0.2-0.8l-0.7-2.9c0.8,0,1.7-0.1,2.4-0.3
		c0.6-0.1,1.1-0.2,1.6-0.4c0.5-0.2,1-0.3,1.5-0.4c0.4-0.1,0.9-0.1,1.5-0.2c0.5,0,1.1,0.1,1.6,0.2c0.5,0.2,1,0.5,1.4,0.9
		c0.4,0.4,0.7,1,0.8,1.8c0,0.3,0.1,0.6,0.1,1c0,0.4-0.1,0.8-0.3,1.2c-0.2,0.4-0.5,0.8-0.9,1.1c-0.4,0.4-1,0.6-1.8,0.8l0,0.1
		C304.8,275,305.3,275,305.8,275.1L305.8,275.1z"/>
	<path class="st1" d="M316.5,275.2c0,0.3,0.1,0.6,0.1,0.9c0.1,0.8,0.3,1.7,0.4,2.5c0.2,0.8,0.4,1.6,0.6,2.4c-0.4,0-0.8,0-1.2,0
		c-0.3,0-0.7,0.1-1,0.1c-0.4,0.1-0.7,0.1-1,0.2c-0.3,0.1-0.7,0.2-1,0.3c0-0.5-0.1-1.1-0.2-1.7c-0.1-0.6-0.2-1.2-0.2-1.8
		c-0.1-0.6-0.2-1.1-0.2-1.6c-0.1-0.5-0.1-0.8-0.2-1c0-0.1-0.1-0.2-0.2-0.4c-0.1-0.2-0.2-0.4-0.4-0.6c-0.4-0.7-0.8-1.3-1.2-2
		c-0.4-0.6-0.8-1.3-1.3-2c-0.4-0.6-0.8-1.2-1.2-1.7c-0.4-0.6-0.8-1.1-1.2-1.7c0.4,0,0.9,0,1.3-0.1c0.4,0,0.8-0.1,1.2-0.1
		c0.4-0.1,0.7-0.1,1.1-0.2c0.4-0.1,0.7-0.2,1-0.3c0.2,0.4,0.3,0.7,0.5,1c0.2,0.3,0.4,0.7,0.6,1.1c0.2,0.4,0.5,0.9,0.9,1.5
		c0.4,0.6,0.8,1.3,1.3,2.2c0.2-1.1,0.5-2.2,0.7-3.2c0.2-1.1,0.4-2.2,0.5-3.3c0.2,0,0.4,0,0.6,0c0.2,0,0.4,0,0.6,0
		c0.2,0,0.4-0.1,0.6-0.2s0.4-0.1,0.5-0.2c-0.5,1.4-0.9,2.8-1.2,4.2c-0.4,1.4-0.7,2.8-1.1,4.2l-0.2,0.6
		C316.4,274.6,316.4,274.9,316.5,275.2L316.5,275.2z"/>
	<path class="st1" d="M330.9,272.2c-0.4,0-0.7,0.1-1.1,0.1c0,0.4,0.1,1,0.2,1.6c0.1,0.6,0.2,1.3,0.2,2c0.1,0.7,0.2,1.3,0.3,2
		c0.1,0.6,0.2,1.1,0.3,1.6c-0.7-0.1-1.4,0-2.2,0c-0.3,0-0.7,0.1-1,0.2c-0.3,0.1-0.7,0.2-1,0.2c-0.1-1.5-0.2-3.1-0.3-4.5
		c-0.1-1.5-0.3-3-0.4-4.5c-0.1-1-0.2-2.1-0.4-3.1c-0.1-1-0.3-2.1-0.5-3.1c0.8,0,1.5,0,2.3-0.1c0.7,0,1.4-0.1,2-0.2
		c0.6-0.1,1.3-0.1,2-0.3c0.7-0.1,1.4-0.2,2-0.4c0,0.2,0,0.4,0,0.6c0,0.2,0,0.4,0,0.6c0,0.2,0,0.4,0.1,0.6c0,0.2,0.1,0.4,0.1,0.6
		c-0.4,0-0.8,0-1.2,0.1c-0.4,0-0.8,0-1.2,0.1c-0.4,0-0.7,0-1.1,0.1c-0.3,0-0.6,0-0.7,0.1c0.1,0.7,0.1,1.4,0.2,2.1
		c0.1,0.7,0.1,1.4,0.2,2.1c0.1,0,0.4,0,0.7-0.1c0.4,0,0.8-0.1,1.2-0.2c0.4-0.1,0.8-0.1,1.2-0.2c0.4-0.1,0.7-0.1,0.9-0.2
		c0,0.2,0,0.3,0,0.6c0,0.2,0,0.4,0,0.6c0,0.2,0,0.4,0.1,0.6c0,0.2,0.1,0.4,0.1,0.5l-2,0C331.6,272.1,331.3,272.2,330.9,272.2
		L330.9,272.2z"/>
	<path class="st1" d="M343.7,276.4c0.3-0.2,0.5-0.5,0.7-0.8c0.2-0.3,0.3-0.7,0.4-1.2c0.1-0.4,0.2-0.9,0.2-1.3c0-0.5,0.1-0.9,0-1.4
		c0-0.5,0-0.9,0-1.3c0-0.6-0.1-1.3-0.2-2c-0.1-0.7-0.3-1.3-0.5-1.9c-0.2-0.6-0.6-1.1-1-1.4c-0.4-0.4-1-0.5-1.6-0.5
		c-0.6,0-1.1,0.3-1.5,0.7c-0.4,0.4-0.6,0.9-0.8,1.5c-0.2,0.6-0.3,1.2-0.3,1.9c0,0.7,0,1.3,0,1.9c0,0.4,0.1,0.9,0.1,1.4
		c0,0.5,0.1,1,0.2,1.4c0.1,0.5,0.2,0.9,0.4,1.3c0.2,0.4,0.4,0.8,0.6,1.1c0.2,0.3,0.5,0.6,0.9,0.7c0.3,0.2,0.8,0.2,1.2,0.2
		C343,276.8,343.4,276.6,343.7,276.4L343.7,276.4z M344.4,263.2c0.9,0.3,1.7,0.7,2.4,1.3c0.7,0.6,1.3,1.4,1.7,2.3
		c0.4,0.9,0.7,2,0.8,3.3c0.1,1.3,0,2.5-0.3,3.5c-0.3,1-0.8,1.9-1.4,2.6c-0.6,0.7-1.3,1.2-2.2,1.6c-0.9,0.4-1.8,0.6-2.8,0.6
		c-1,0.1-1.9,0-2.8-0.3c-0.9-0.3-1.7-0.7-2.3-1.3c-0.7-0.6-1.2-1.4-1.7-2.4c-0.4-1-0.7-2-0.8-3.3c-0.1-1.3,0-2.4,0.3-3.4
		c0.3-1,0.7-1.9,1.3-2.6c0.6-0.7,1.3-1.3,2.2-1.6c0.8-0.4,1.8-0.6,2.8-0.7C342.5,262.8,343.5,262.9,344.4,263.2L344.4,263.2z"/>
	<path class="st1" d="M358.6,275.8c0.3-0.2,0.6-0.5,0.8-0.8c0.2-0.3,0.4-0.7,0.5-1.1c0.1-0.4,0.2-0.9,0.3-1.3
		c0.1-0.5,0.1-0.9,0.1-1.4c0-0.5,0-0.9,0-1.3c0-0.6-0.1-1.3-0.1-2c-0.1-0.7-0.2-1.4-0.4-2c-0.2-0.6-0.5-1.1-0.9-1.5
		c-0.4-0.4-0.9-0.6-1.6-0.6c-0.6,0-1.1,0.2-1.5,0.6c-0.4,0.4-0.7,0.9-0.9,1.4c-0.2,0.6-0.3,1.2-0.4,1.9c-0.1,0.7-0.1,1.3-0.1,1.9
		c0,0.4,0,0.9,0.1,1.4c0,0.5,0.1,1,0.2,1.5c0.1,0.5,0.2,0.9,0.3,1.4c0.1,0.4,0.3,0.8,0.6,1.1c0.2,0.3,0.5,0.6,0.9,0.8
		c0.3,0.2,0.7,0.3,1.2,0.3C358,276.1,358.3,276,358.6,275.8L358.6,275.8z M360,262.6c0.9,0.3,1.7,0.8,2.3,1.4
		c0.7,0.6,1.2,1.4,1.6,2.4c0.4,1,0.6,2.1,0.6,3.3c0,1.3-0.1,2.5-0.5,3.5c-0.4,1-0.9,1.8-1.5,2.5c-0.6,0.7-1.4,1.2-2.3,1.5
		c-0.9,0.3-1.8,0.5-2.8,0.5c-1,0-1.9-0.1-2.7-0.5c-0.9-0.3-1.6-0.8-2.3-1.5c-0.7-0.7-1.2-1.5-1.6-2.4c-0.4-1-0.6-2.1-0.6-3.3
		c0-1.3,0.1-2.4,0.5-3.4c0.3-1,0.8-1.8,1.5-2.5c0.6-0.7,1.4-1.2,2.2-1.5s1.8-0.5,2.8-0.6C358.2,262.1,359.1,262.3,360,262.6
		L360,262.6z"/>
	<path class="st1" d="M365.7,264.6c-0.5,0-1.1,0.1-1.6,0.1c0.1-0.4,0.1-0.8,0.1-1.2c0-0.2,0-0.4,0-0.6c0-0.2,0-0.4-0.1-0.7
		c0.9,0.1,1.7,0.2,2.6,0.2c0.9,0,1.7,0,2.6,0.1c0.8,0,1.7,0,2.6,0c0.9,0,1.8,0,2.7-0.1c0,0.2-0.1,0.4-0.1,0.6c0,0.2,0,0.5,0,0.7
		c0,0.2,0,0.4,0,0.6c0,0.2,0,0.4,0.1,0.5c-0.5-0.1-1.1-0.1-1.6-0.2c-0.5,0-1.1-0.1-1.6-0.1c0,0.5-0.1,1-0.1,1.6c0,0.6,0,1.2,0,1.8
		l0,1.2c0,0.8,0,1.6,0,2.3c0,0.7,0,1.4,0,2.1c0,0.7,0,1.4,0,2c0,0.7,0,1.3,0.1,2c-0.6-0.1-1.1-0.1-1.4-0.2c-0.3,0-0.6-0.1-0.8-0.1
		c-0.5,0-0.9,0-1.2,0.1c-0.3,0-0.6,0.1-0.8,0.1c0-0.4,0.1-0.8,0.1-1.3c0-0.5,0.1-1,0.1-1.6c0-0.6,0-1.1,0.1-1.7c0-0.6,0-1.1,0-1.6
		l0-1.9l0-0.9c0-0.5,0-1.2,0-1.9c0-0.7,0-1.4,0-2.1C366.8,264.5,366.3,264.6,365.7,264.6L365.7,264.6z"/>
	<path class="st1" d="M381.6,268.7c0.3-0.4,0.5-1,0.5-1.7c0-0.3,0-0.7,0-1c0-0.3-0.1-0.6-0.2-0.8c-0.1-0.2-0.3-0.4-0.5-0.5
		c-0.2-0.1-0.5-0.2-0.9-0.2l-0.3,0c0,0-0.1,0-0.1,0c0,0-0.1,0-0.1,0c0,0.2,0,0.4,0,0.6c0,0.2,0,0.5-0.1,0.8l-0.1,1.3l-0.1,2l0.7,0
		C380.9,269.3,381.3,269.1,381.6,268.7L381.6,268.7z M379.4,273.2l-0.1,1.5c0,0.4,0,0.7,0,0.9c0,0.2,0,0.5,0,0.7c0.4,0,0.7,0,1,0
		c0.3,0,0.6-0.1,0.8-0.3c0.2-0.2,0.4-0.4,0.5-0.8c0.1-0.4,0.2-0.9,0.3-1.6c0-0.8-0.1-1.5-0.3-1.9c-0.2-0.5-0.7-0.7-1.2-0.7l-0.7,0
		L379.4,273.2L379.4,273.2z M383.7,270.4c0.5,0.2,0.9,0.4,1.2,0.7c0.4,0.3,0.6,0.7,0.8,1.2c0.2,0.5,0.3,1.1,0.2,1.8
		c0,0.8-0.2,1.4-0.5,1.9c-0.3,0.5-0.7,0.9-1.2,1.2c-0.5,0.3-1,0.5-1.6,0.6c-0.6,0.1-1.1,0.2-1.7,0.1c-0.6,0-1.2-0.1-1.9-0.2
		c-0.7-0.1-1.4-0.2-2-0.2c-0.3,0-0.7,0-1,0c-0.3,0-0.7,0.1-1,0.1c0.1-0.7,0.1-1.3,0.2-1.7c0-0.4,0.1-0.9,0.1-1.2
		c0-0.4,0.1-0.8,0.1-1.2c0-0.4,0.1-0.9,0.1-1.5l0.1-1.7l0.1-2l0.1-1.3c0-0.4,0-0.7,0-0.9c0-0.3,0-0.5,0-0.8l0.1-3
		c0.8,0.2,1.6,0.3,2.4,0.3c0.6,0,1.1,0,1.6,0c0.5,0,1.1,0,1.6,0c0.5,0,1,0.1,1.5,0.2c0.5,0.1,1,0.3,1.5,0.6c0.5,0.3,0.8,0.7,1.1,1.2
		c0.3,0.5,0.4,1.1,0.4,1.9c0,0.3-0.1,0.6-0.2,0.9c-0.1,0.4-0.3,0.7-0.6,1.1c-0.3,0.3-0.7,0.6-1.2,0.9c-0.5,0.2-1.1,0.4-1.9,0.4
		l0,0.1C382.7,270.1,383.2,270.2,383.7,270.4L383.7,270.4z"/>
	<path class="st1" d="M389.7,273.7c0.1,0,0.3,0,0.4,0c0.1,0,0.3,0,0.4,0l0.8,0.1l0.8,0.1c0.1,0,0.3,0,0.4,0c0.1,0,0.3,0,0.4,0
		l-1-5.1L389.7,273.7L389.7,273.7z M387.9,278.6c-0.2-0.1-0.4-0.1-0.6-0.2c-0.2-0.1-0.4-0.1-0.6-0.1c-0.2,0-0.4,0-0.6,0
		c-0.2,0-0.4,0-0.5,0.1l1.3-2.7c0.2-0.4,0.4-0.9,0.7-1.4c0.3-0.5,0.5-1.1,0.8-1.7c0.3-0.6,0.6-1.3,0.9-1.9c0.3-0.7,0.6-1.4,0.9-2
		c0.2-0.4,0.4-0.8,0.6-1.3c0.2-0.5,0.4-1,0.6-1.5c0.2-0.5,0.4-0.9,0.6-1.3c0.2-0.4,0.3-0.7,0.4-0.8c0.2,0.1,0.4,0.1,0.6,0.2
		c0.2,0.1,0.4,0.1,0.6,0.1c0.2,0,0.4,0,0.6,0c0.2,0,0.4,0,0.6-0.1c0.1,0.5,0.2,1.1,0.3,1.9c0.1,0.7,0.3,1.5,0.4,2.2
		c0.2,0.8,0.3,1.6,0.5,2.4c0.2,0.8,0.3,1.5,0.5,2.2c0.2,0.8,0.3,1.5,0.5,2.1c0.1,0.6,0.3,1.2,0.4,1.7c0.1,0.5,0.3,1.1,0.4,1.6
		c0.1,0.5,0.3,1.1,0.5,1.8c-0.3-0.1-0.7-0.2-1.1-0.3c-0.4-0.1-0.8-0.1-1.1-0.1c-0.4,0-0.8-0.1-1.1-0.1c-0.4,0-0.8,0-1.1,0
		c-0.1-0.6-0.1-1.1-0.2-1.6c-0.1-0.5-0.2-1-0.3-1.5c-0.4,0-0.8-0.1-1.2-0.1c-0.4,0-0.8-0.1-1.2-0.1c-0.3,0-0.6,0-0.9-0.1
		c-0.3,0-0.6,0-0.9-0.1c-0.2,0.5-0.4,1-0.6,1.5C388.3,277.6,388.1,278.1,387.9,278.6L387.9,278.6z"/>
	<path class="st1" d="M403.9,278.1c0.4,0,0.7,0.1,1.2,0.1c0.4,0,0.9,0.1,1.3,0.1c0.4,0,0.8,0,1.1,0c0,0.2-0.1,0.3-0.1,0.5
		c0,0.2-0.1,0.4-0.1,0.7c0,0.2,0,0.4-0.1,0.6c0,0.2,0,0.4,0,0.6c-0.7-0.2-1.4-0.3-1.9-0.4c-0.6-0.1-1.1-0.2-1.7-0.3
		c-0.6-0.1-1.3-0.2-2.2-0.2c-0.8-0.1-1.7-0.1-2.5-0.2c0.2-0.6,0.3-1.3,0.5-1.9c0.1-0.7,0.2-1.3,0.3-1.9l0.1-1.1
		c0.1-0.7,0.2-1.3,0.2-1.9c0.1-0.6,0.1-1.1,0.2-1.6c0.1-0.5,0.1-1,0.2-1.4c0-0.5,0.1-0.9,0.2-1.4c0.1-0.7,0.1-1.3,0.2-2
		c0.1-0.7,0.1-1.3,0.1-1.9c0.7,0.2,1.4,0.4,2.2,0.5c0.4,0,0.7,0.1,1,0.1c0.3,0,0.7,0,1,0c-0.1,0.4-0.2,0.9-0.3,1.5
		c-0.1,0.6-0.2,1.3-0.3,2c-0.1,0.7-0.2,1.4-0.3,2.1c-0.1,0.7-0.2,1.3-0.2,1.8l-0.1,1c0,0.2-0.1,0.5-0.1,1c-0.1,0.5-0.1,0.9-0.2,1.5
		c-0.1,0.5-0.1,1-0.2,1.4c-0.1,0.5-0.1,0.8-0.1,0.9C403.3,278.1,403.5,278.1,403.9,278.1L403.9,278.1z"/>
	<path class="st1" d="M413.2,279.6c0.3,0.1,0.7,0.1,1.2,0.2c0.4,0,0.9,0.1,1.3,0.1c0.4,0,0.8,0.1,1.1,0.1c0,0.1-0.1,0.3-0.2,0.5
		c-0.1,0.2-0.1,0.4-0.1,0.7c0,0.2-0.1,0.4-0.1,0.6c0,0.2,0,0.4,0,0.6c-0.7-0.2-1.4-0.4-1.9-0.5c-0.6-0.1-1.1-0.2-1.7-0.3
		c-0.6-0.1-1.3-0.2-2.1-0.3c-0.8-0.1-1.7-0.2-2.5-0.3c0.2-0.6,0.4-1.2,0.6-1.9c0.2-0.7,0.3-1.3,0.4-1.9l0.2-1.1
		c0.1-0.7,0.2-1.3,0.3-1.9c0.1-0.6,0.2-1.1,0.3-1.6c0.1-0.5,0.2-1,0.2-1.4c0.1-0.5,0.1-0.9,0.2-1.4c0.1-0.7,0.2-1.3,0.3-2
		c0.1-0.7,0.2-1.3,0.2-1.9c0.7,0.3,1.4,0.4,2.2,0.6c0.4,0.1,0.7,0.1,1,0.1c0.3,0,0.7,0,1,0c-0.1,0.4-0.2,0.8-0.3,1.5
		c-0.1,0.6-0.3,1.3-0.4,1.9c-0.1,0.7-0.3,1.4-0.4,2c-0.1,0.7-0.2,1.3-0.3,1.8l-0.2,1c0,0.2-0.1,0.5-0.2,1c-0.1,0.5-0.2,0.9-0.2,1.4
		c-0.1,0.5-0.2,1-0.2,1.4c-0.1,0.5-0.1,0.8-0.2,0.9C412.6,279.5,412.9,279.6,413.2,279.6L413.2,279.6z"/>
	<path class="st1" d="M433.2,272.9c-0.4-0.5-0.9-0.8-1.5-1c-0.6-0.2-1.2-0.1-1.7,0.1c-0.5,0.2-0.9,0.6-1.3,1c-0.4,0.5-0.7,1-1,1.6
		c-0.3,0.6-0.5,1.3-0.7,1.9c-0.2,0.7-0.3,1.4-0.4,2.1c-0.1,0.7-0.1,1.4,0,2c0.1,0.6,0.3,1.2,0.7,1.6c0.3,0.5,0.9,0.8,1.6,1
		c0.4,0.1,0.8,0.1,1.1,0.1c0.3,0,0.7-0.1,1-0.2c0.3-0.1,0.6-0.3,0.9-0.4c0.3-0.2,0.5-0.3,0.8-0.5l0.4,0.5c-0.2,0.4-0.4,0.8-0.6,1.2
		c-0.2,0.4-0.4,0.8-0.6,1.2c-0.6,0.1-1.2,0.2-1.9,0.2c-0.7,0-1.5,0-2.3-0.2c-0.9-0.2-1.7-0.6-2.4-1.1c-0.7-0.5-1.3-1.2-1.7-2
		c-0.4-0.8-0.7-1.7-0.8-2.7c-0.1-1,0-2.1,0.3-3.3c0.3-1.3,0.8-2.3,1.4-3.2c0.6-0.9,1.3-1.6,2.1-2.1c0.8-0.5,1.7-0.8,2.6-1
		c0.9-0.1,1.9-0.1,2.9,0.1c0.7,0.2,1.3,0.4,2,0.8c0.7,0.4,1.3,0.8,1.8,1.2c-0.1,0.2-0.2,0.5-0.3,0.7c-0.1,0.2-0.2,0.4-0.3,0.7
		c-0.1,0.3-0.2,0.6-0.3,0.8c-0.1,0.3-0.2,0.6-0.3,0.8l-0.7-0.2C433.7,274,433.6,273.3,433.2,272.9L433.2,272.9z"/>
	<path class="st1" d="M438.6,285.7c0.3,0.1,0.7,0.2,1.1,0.3c0.4,0.1,0.8,0.2,1.3,0.3c0.4,0.1,0.8,0.2,1.1,0.2
		c-0.1,0.1-0.1,0.3-0.2,0.5c-0.1,0.2-0.2,0.4-0.2,0.7c-0.1,0.2-0.1,0.4-0.1,0.6c0,0.2-0.1,0.4-0.1,0.6c-0.7-0.3-1.3-0.5-1.8-0.7
		c-0.5-0.2-1.1-0.4-1.6-0.5c-0.6-0.2-1.3-0.4-2.1-0.6c-0.8-0.2-1.6-0.4-2.5-0.6c0.3-0.6,0.5-1.2,0.8-1.8c0.2-0.7,0.4-1.3,0.6-1.9
		l0.3-1.1c0.2-0.7,0.4-1.3,0.5-1.8c0.2-0.5,0.3-1.1,0.4-1.5c0.1-0.5,0.3-0.9,0.4-1.4c0.1-0.4,0.3-0.9,0.4-1.4c0.2-0.6,0.3-1.3,0.5-2
		c0.2-0.7,0.3-1.3,0.4-1.8c0.7,0.3,1.4,0.6,2.1,0.8c0.3,0.1,0.7,0.2,1,0.3c0.3,0.1,0.7,0.1,1,0.1c-0.1,0.3-0.3,0.8-0.5,1.4
		c-0.2,0.6-0.4,1.2-0.6,1.9c-0.2,0.7-0.4,1.3-0.6,2c-0.2,0.7-0.4,1.2-0.5,1.7l-0.3,0.9c-0.1,0.2-0.1,0.5-0.3,1
		c-0.1,0.4-0.3,0.9-0.4,1.4c-0.1,0.5-0.3,1-0.4,1.4c-0.1,0.4-0.2,0.7-0.3,0.9C438,285.5,438.3,285.6,438.6,285.7L438.6,285.7z"/>
	<path class="st1" d="M445.4,278.2c0.5-1.3,0.9-2.6,1.2-3.9c0.3,0.2,0.7,0.4,1,0.5c0.3,0.1,0.7,0.3,1,0.4c0.4,0.1,0.7,0.2,1,0.3
		c0.3,0.1,0.7,0.2,1.1,0.2c-0.2,0.3-0.3,0.7-0.5,1.1c-0.2,0.5-0.4,0.9-0.6,1.4c-0.2,0.5-0.4,1-0.6,1.5c-0.2,0.5-0.4,1-0.5,1.4
		l-0.5,1.4c-0.3,0.7-0.5,1.4-0.7,2.1c-0.2,0.6-0.3,1.2-0.3,1.8c0,0.5,0.1,1,0.3,1.4c0.3,0.4,0.7,0.7,1.3,0.9
		c0.4,0.1,0.8,0.2,1.3,0.1c0.5-0.1,0.9-0.3,1.2-0.7c0.3-0.3,0.5-0.6,0.7-1c0.2-0.3,0.3-0.7,0.5-1.2c0.1-0.2,0.2-0.5,0.3-0.7
		c0.1-0.2,0.2-0.5,0.3-0.7l0.5-1.5c0.3-0.8,0.6-1.7,0.9-2.7c0.3-0.9,0.6-1.9,0.9-3c0.2,0.1,0.4,0.2,0.6,0.4c0.2,0.1,0.4,0.2,0.6,0.3
		c0.2,0.1,0.4,0.1,0.6,0.2c0.2,0,0.4,0.1,0.6,0.1c-0.3,0.6-0.5,1.3-0.8,2c-0.3,0.7-0.6,1.4-0.8,2.1c-0.3,0.7-0.5,1.3-0.7,1.9
		c-0.2,0.6-0.4,1-0.5,1.4c-0.2,0.6-0.4,1.1-0.6,1.6c-0.2,0.5-0.4,0.9-0.6,1.3c-0.2,0.4-0.5,0.7-0.7,1c-0.3,0.3-0.6,0.6-1,0.8
		c-0.7,0.5-1.5,0.8-2.4,0.8c-0.8,0-1.7-0.1-2.5-0.4c-1.8-0.6-2.9-1.6-3.5-2.9c-0.5-1.3-0.4-3,0.4-5.2
		C444.4,281,444.9,279.5,445.4,278.2L445.4,278.2z"/>
	<path class="st1" d="M463.3,287.3c0.4-0.3,0.8-0.7,1.1-1.4c0.1-0.3,0.3-0.6,0.3-0.9c0.1-0.3,0.1-0.6,0.1-0.8c0-0.2-0.1-0.5-0.3-0.7
		c-0.2-0.2-0.4-0.4-0.8-0.5l-0.2-0.1c0,0-0.1,0-0.1-0.1c0,0-0.1,0-0.1,0c-0.1,0.2-0.2,0.3-0.3,0.5c-0.1,0.2-0.2,0.4-0.4,0.7
		l-0.6,1.2l-0.9,1.9l0.6,0.3C462.5,287.6,462.9,287.6,463.3,287.3L463.3,287.3z M459.7,290.7L459,292c-0.2,0.4-0.3,0.6-0.4,0.9
		c-0.1,0.2-0.2,0.4-0.3,0.6c0.3,0.1,0.6,0.3,0.9,0.4c0.3,0.1,0.5,0.1,0.8,0c0.3-0.1,0.5-0.3,0.8-0.6c0.3-0.3,0.6-0.8,0.8-1.4
		c0.3-0.8,0.5-1.4,0.4-1.9c-0.1-0.5-0.3-0.9-0.9-1.1l-0.7-0.3L459.7,290.7L459.7,290.7z M464.6,289.7c0.4,0.3,0.7,0.7,0.9,1.1
		c0.2,0.4,0.3,0.9,0.3,1.4c0,0.5-0.2,1.1-0.5,1.8c-0.3,0.7-0.7,1.2-1.2,1.6c-0.5,0.4-1,0.6-1.6,0.7c-0.6,0.1-1.1,0.1-1.7,0
		c-0.6-0.1-1.1-0.3-1.6-0.5c-0.5-0.2-1.1-0.5-1.7-0.9c-0.6-0.4-1.2-0.7-1.8-1c-0.3-0.1-0.6-0.3-0.9-0.4c-0.3-0.1-0.6-0.2-0.9-0.3
		c0.3-0.6,0.6-1.1,0.8-1.5c0.2-0.4,0.4-0.8,0.6-1.1c0.2-0.3,0.3-0.7,0.5-1c0.2-0.4,0.4-0.8,0.6-1.3l0.7-1.5l0.8-1.8l0.6-1.2
		c0.1-0.3,0.3-0.6,0.4-0.8c0.1-0.2,0.2-0.5,0.3-0.8l1.2-2.8c0.7,0.5,1.4,0.9,2.1,1.2c0.5,0.2,1,0.4,1.5,0.6c0.5,0.2,1,0.4,1.5,0.6
		c0.4,0.2,0.8,0.4,1.3,0.7c0.5,0.3,0.8,0.7,1.2,1.1c0.3,0.4,0.5,0.9,0.6,1.5c0.1,0.6,0,1.2-0.4,1.9c-0.1,0.2-0.3,0.5-0.5,0.8
		c-0.2,0.3-0.6,0.6-0.9,0.8c-0.4,0.2-0.9,0.3-1.4,0.4c-0.5,0-1.2-0.1-1.9-0.4l0,0.1C463.9,289,464.3,289.3,464.6,289.7L464.6,289.7z
		"/>
	<path class="st2" d="M298.3,196v4.4c0.5-0.1,0.8-0.2,1-0.3c0.4-0.2,0.8-0.4,1-0.7c0.3-0.3,0.5-0.8,0.6-1.4c0.2-0.9,0.3-1.9,0.3-3
		c0-1.9-0.3-2.8-0.4-3.1c-0.3-0.6-0.5-0.9-0.6-1c-0.3-0.2-0.6-0.4-1-0.5c-0.3-0.1-0.5-0.1-0.8-0.1L298.3,196L298.3,196z
		 M483.9,208.8c1.2-0.2,1.9-0.5,2.1-0.8c0.3-0.4,0.6-0.9,0.7-1.5c0.1-1.1,0.4-8.4,0.4-11.3c0-2-0.3-2.8-0.5-3
		c-0.4-0.7-0.7-1-0.9-1.1c-0.4-0.2-0.8-0.4-1.2-0.5l-0.7,0V208.8L483.9,208.8z M171.9,214.9c1.2-0.2,1.9-0.5,2.1-0.8
		c0.6-0.8,1-2,1.1-3.5c0-0.5,0-13.1,0-14.4c0-2-0.3-2.8-0.5-3c-0.4-0.7-0.7-1-0.9-1.1c-0.4-0.2-0.8-0.4-1.2-0.5l-0.7,0V214.9
		L171.9,214.9z M417.5,189.7c-2,0-3.6,0.4-4.7,1.2c-1.3,1-2.3,2.2-3,3.6c-0.8,1.7-1.4,3.5-1.7,5.6c-0.3,2.3-0.5,4.5-0.5,6.5
		c0,0,0.1,10.5,0.1,10.5c0.1,1.4,0.3,3.1,0.6,4.6c0.3,1.5,0.7,2.9,1.2,4.2c0.4,1.1,1,2,1.8,2.8c0.7,0.7,1.5,1.3,2.6,1.8
		c1.1,0.5,2.5,0.7,4.1,0.7c1.4,0,2.5-0.2,3.3-0.6c0.9-0.5,1.7-1.1,2.4-1.8c0.7-0.8,1.3-1.7,1.7-2.8c0.5-1.3,1-2.7,1.3-4.1
		c0.3-1.5,0.5-3,0.6-4.5c0.1-1.4,0.2-7.8,0.2-9.6c0-2.1-0.2-4.4-0.5-6.9c-0.3-2.2-0.8-4.2-1.6-6c-0.7-1.5-1.7-2.8-3-3.8
		C421.3,190.1,419.7,189.7,417.5,189.7L417.5,189.7z M507.8,220.7c6.5,8.1,19.6,23.6,24.8,29.8l0.5,0.5c1.2-0.1,2.6-0.1,4.2-0.1
		c5.8,0,15.6,0,16.2-3.9c0.1-0.5,0.1-0.9,0.1-1.4c0-7.1-9.7-12.1-19-17c-1.2-0.6-1.8-0.9-2.2-1.1l0,0c-7.4-3.5-12.9-9.5-15.7-16.4
		c-0.9,2.7-2.4,4.9-4.6,6.8C510.9,219,509.5,219.9,507.8,220.7L507.8,220.7z M146.1,271.3c-1.3,0-2.6-0.5-3.5-1.5
		c-1.1-1.1-1.6-2.5-1.4-4c0.2-2.9,0.4-82.3,0.2-86.7c-0.1-1.5,0.5-2.9,1.6-3.9c0.9-0.8,2.1-1.3,3.4-1.3l0.3,0l0.3,0
		c0.2,0,1.2,0.1,7.1,0.1c5.5,0,12.5-0.1,16.9-0.1l4.5,0c3.2,0,6.4,0.2,9.6,0.6c3.5,0.4,6.7,1.3,9.6,2.6c3.2,1.4,5.8,3.5,7.8,6.2
		c2.2,2.9,3.3,6.6,3.3,11c0,0.1,0,15-0.1,15.9c-0.4,4.6-2.3,8.4-5.5,11.2c-1,0.9-2.4,1.8-4.1,2.5c2.7,1.7,5.7,3.7,8.3,5.6l0,0
		c15-33.5,23.7-52.9,23.8-53.3c0.8-1.8,2.6-2.9,4.5-2.9c0.3,0,0.6,0,0.9,0.1c0.4,0,2.3,0.1,5.4,0.1c3.3,0,5.1-0.1,5.5-0.1
		c0.3,0,0.5-0.1,0.8-0.1c2.1,0,4,1.4,4.7,3.4c0.4,1.1,9.7,23.2,17.6,41.7c0.1-10.3,0.1-21.8,0.1-29.7c0-8.4,0-9.5-0.1-9.7l0-0.3
		c0-1.4,0.6-2.8,1.6-3.7c0.9-0.9,2.1-1.3,3.4-1.3h0.2l0.4,0c0.2,0,1.2,0.1,7.3,0.1c5.6,0,13-0.1,17.6-0.1l4.7,0
		c3.1,0,6.3,0.3,9.4,0.8c3.4,0.6,6.5,1.6,9.2,3c1.1,0.6,2.2,1.3,3.2,2c0,0,0,0,0-0.1c-0.2-1.5,0.3-3,1.3-4.1c0.9-1,2.2-1.5,3.6-1.5
		l0.2,0l0.2,0c1.6,0.1,11,0.3,26.2,0.3c13.4,0,24.5-0.1,26.4-0.3c0,0,0.3,0,0.3,0c1.4,0,2.7,0.6,3.7,1.6c1,1,1.5,2.6,1.3,4.1
		c0,0.2,0,1.4,0,3c0.3-0.3,0.6-0.5,0.9-0.7c3.7-2.9,8.1-5.1,13.1-6.5c4.8-1.4,10.1-2.1,15.6-2.1c5.5,0,10.8,0.7,15.7,2.1
		c5,1.4,9.5,3.6,13.3,6.4c2.8,2.1,5.1,4.5,7,7.3c0-5.4,0-8.8-0.1-9.9c-0.1-1.5,0.5-2.9,1.6-3.9c0.9-0.8,2.1-1.3,3.4-1.3l0.3,0l0.2,0
		c0.2,0,1.2,0.1,7.2,0.1c5.5,0,12.5-0.1,16.9-0.1l4.5,0c3.2,0,6.4,0.2,9.6,0.6c3.5,0.4,6.7,1.3,9.6,2.6c3.2,1.5,5.8,3.5,7.8,6.2
		c1.4,1.9,2.4,4.1,2.9,6.6c4.1-8.1,12.9-13.7,25.1-15.8c2.3-0.4,5.3-0.6,9-0.6c5.8,0,11.9,0.5,14.1,0.9l1.5,0.2c3,0.5,5.5,0.9,8.3,2
		c1.2,0.5,2.2,1.6,2.7,2.9c0.5,1.3,0.4,2.8-0.2,4l-2.5,5l-4.8,9.9c-0.8,1.7-2.6,2.8-4.5,2.8l-4.6-0.2c-2.7-0.1-4.8-2.4-4.7-5.1
		c0.1-1.8-0.3-2.6-0.5-2.8c-0.7-0.6-3.1-1.8-5.4-1.9l-1.8,0.1c-2,0.4-4.4,1.5-4.6,2.2c0.3,4.4,10.2,10.2,17.3,14.3
		c0.8,0.5,1.4,0.8,1.9,1.1l0,0l1.9,1.2c15,9.4,21.2,23,16.5,36.5c-4.5,12.9-17.6,21.2-33.5,21.2c-1.6,0-3.3-0.1-5-0.3
		c-2.1-0.2-6-1.1-9-1.8h0c-0.9-0.1-3.5-0.6-9.8-1.9l-0.2,0c-4.3-0.9-17.2-3.4-18.9-3.5c-0.1,0-0.1,0-0.2,0c-1.8,0-3.5-1-4.3-2.5
		c-0.9-1.6-6.1-8.3-10.8-14.3l1.5-1.4l-1.6,1.2c-1.8-2.3-3.6-4.6-5.3-6.8c0.1,6,0.3,12,0.4,13.9l0,0.2c0,1.4-0.6,2.8-1.6,3.7
		c-0.9,0.8-2.1,1.3-3.4,1.3h-0.3l-0.4,0l-3.6-0.5c-10.2-1.5-16.1-2.3-17.4-2.4c-0.1,0-0.3,0-0.4,0c-1.3,0-2.6-0.5-3.5-1.4
		c-1.1-1.1-1.6-2.5-1.4-4c0-0.5,0.1-6,0.1-15.5c-1.9,2.8-4.3,5.3-7,7.3c-3.8,2.9-8.3,5-13.5,6.3c-4.9,1.3-10.2,1.9-15.8,1.9
		c-5.3,0-10.4-0.7-15.2-2.1c-4.9-1.4-9.3-3.6-13-6.5c-3.8-3-6.9-6.7-9.1-11c-2.8-5.5-3.3-17.2-3.3-20c0-4.7,0.8-9,2.3-12.8
		c-1.3-0.5-3-1.1-4.9-1.8c-0.7-0.3-1.5-0.6-2.4-0.9c0.1,13.6,0.4,42.5,0.5,44.1l0,0.3c0,1.4-0.5,2.7-1.5,3.6
		c-0.9,0.9-2.2,1.4-3.5,1.4l-0.3,0c-0.5,0-2.2-0.1-8.4-0.1c-5.8,0-11.7,0.1-12.3,0.1c0,0-0.4,0-0.4,0c-1.4,0-2.7-0.5-3.6-1.5
		c-0.9-0.9-1.4-2.2-1.4-3.5l0-0.3l0-0.2c0.1-1.5,0.5-30.3,0.6-44c-0.9,0.3-1.7,0.7-2.4,0.9c-3.1,1.2-5.3,2-7,2.4
		c-0.1,3.8-1.1,7.1-2.8,9.8c-1.8,2.9-4.2,5.3-7.2,7.1c-2.8,1.6-5.9,2.8-9.4,3.5c-3.2,0.6-6.7,0.9-10.2,0.9l-3.7-0.1
		c0.2,8.4,0.6,20.9,0.7,21.9c0,0.1,0,0.3,0,0.6c0,1.3-0.5,2.5-1.4,3.4c-0.9,1-2.3,1.6-3.6,1.6l-0.3,0c-1,0-6.1,0.7-15.3,2.1
		l-5.3,0.8c-3.4,0.8-21.6,3.5-22.5,3.6l-0.3,0l-0.2,0c-2.3,0-4.2-1.5-4.8-3.6c-0.4-1.2-4.5-11.8-7-18.4c-2.1,0.4-4.6,0.9-6.8,1.3
		c-2.8,0.5-4.9,0.9-6.4,1.2c-2.3,6.3-7.6,21.3-8.1,22.8c-0.7,2-2.6,3.4-4.8,3.4l-0.1,0c-1.4,0.1-11.1,2.3-12.9,2.8l-0.5,0.1l-0.5,0
		c-0.3,0.1-0.6,0.1-1,0.1c-1.7,0-3.2-0.9-4.1-2.6c-0.7-1.1-7.1-7-21.3-18.6c0.2,8.5,0.4,18.9,0.5,21.4l0,0.2c0,1.4-0.5,2.7-1.5,3.6
		c-0.9,0.9-2.2,1.4-3.5,1.4l-0.1,0c-1.3,0.2-9.1,2.3-11.7,3c-5.9,1.6-7.9,2.1-9,2.3l-0.3,0L146.1,271.3L146.1,271.3L146.1,271.3z"/>
	<path class="st0" d="M296.2,196v6.6h0.4c1.4,0,2.6-0.2,3.4-0.6c0.8-0.3,1.4-0.8,1.8-1.3c0.4-0.6,0.8-1.3,1-2.2
		c0.2-1.1,0.4-2.2,0.4-3.5c0-2.1-0.3-3.3-0.6-3.9c-0.3-0.8-0.8-1.4-1.2-1.8c-0.5-0.4-1.2-0.7-1.9-0.8c-1-0.2-2-0.3-3.1-0.3
		c0,0-0.1,0-0.1,0L296.2,196L296.2,196z M481.8,211h0.4c1.9,0,4.3-0.3,5.4-1.7c0.5-0.6,0.9-1.4,1.1-2.3c0.2-1,0.4-9,0.4-11.7
		c0-2.2-0.4-3.4-0.7-4c-0.4-0.8-1-1.5-1.6-1.9c-0.6-0.4-1.3-0.7-2.1-0.8l-2.9-0.2V211L481.8,211z M229.3,214.9
		c2-0.4,4.1-0.8,5.4-1.1l0.1,0l-2.4-6.7L229.3,214.9L229.3,214.9z M169.8,217h0.4c1.9,0,4.3-0.3,5.4-1.7c0.9-1.1,1.4-2.7,1.5-4.6
		c0-0.6,0-13.5,0-14.6c0-2.2-0.4-3.4-0.7-4c-0.5-0.9-1-1.5-1.6-1.9c-0.6-0.4-1.3-0.7-2.1-0.8l-2.9-0.2V217L169.8,217z M405.8,217
		c0.1,1.6,0.3,3.3,0.6,5c0.3,1.6,0.8,3.2,1.4,4.6c0.5,1.3,1.2,2.4,2.2,3.4c0.9,1,2,1.7,3.3,2.3c1.3,0.6,3,0.9,4.9,0.9
		c1.7,0,3.1-0.3,4.2-0.8c1.2-0.6,2.2-1.3,3-2.3c0.8-1,1.5-2.1,2.1-3.4c0.6-1.4,1-2.9,1.4-4.5c0.3-1.5,0.5-3.1,0.7-4.7
		c0.1-1.6,0.2-8.2,0.2-9.8c0-2.2-0.2-4.6-0.5-7.1c-0.3-2.4-0.9-4.6-1.8-6.6c-0.8-1.8-2-3.4-3.6-4.6c-1.5-1.1-3.5-1.7-6.2-1.7
		c-2.5,0-4.5,0.5-5.9,1.6c-1.5,1.1-2.8,2.6-3.6,4.3c-0.9,1.9-1.5,3.9-1.9,6.2c-0.3,2.4-0.5,4.7-0.5,6.8l0,0
		C405.6,206.5,405.8,217,405.8,217L405.8,217z M146.1,269.3c-0.8,0-1.5-0.3-2.1-0.9c-0.6-0.6-0.9-1.5-0.8-2.4
		c0.2-2.9,0.4-82.6,0.2-87c0-0.9,0.3-1.7,0.9-2.3c0.5-0.5,1.3-0.8,2-0.8h0.1l0.3,0c0.2,0,1.4,0.1,7.3,0.1c5.5,0,12.6-0.1,16.9-0.1
		l4.5,0c3.1,0,6.2,0.2,9.3,0.6c3.3,0.4,6.3,1.2,9,2.5c2.8,1.3,5.2,3.2,7,5.6c1.9,2.5,2.9,5.8,2.9,9.8c0,0.1,0,14.9-0.1,15.7
		c-0.4,4.1-2,7.4-4.8,9.8c-1.5,1.3-4,2.5-7.2,3.6c4.1,2.6,9.6,6.1,13.7,9.2l1-2.3c12.5-27.9,23.6-52.9,23.8-53.3
		c0.5-1,1.5-1.7,2.7-1.7c0.2,0,0.4,0,0.6,0.1c0.4,0,2.5,0.1,5.7,0.1c3.2,0,5.3-0.1,5.7-0.1c0.1,0,0.3,0,0.5,0c1.3,0,2.4,0.8,2.8,2
		c0.5,1.3,13.4,32,21.5,50.7c0.1-12.2,0.2-29.2,0.2-39.4c0-8.1,0-9.6-0.1-9.8l0-0.2c0-0.8,0.3-1.6,0.9-2.1c0.5-0.5,1.3-0.8,2-0.8
		h0.1l0.3,0c0.2,0,1.4,0.1,7.5,0.1c5.7,0,13-0.1,17.6-0.1l4.7,0c3,0,6.1,0.3,9.1,0.8c3.2,0.5,6.1,1.5,8.6,2.8
		c2.5,1.3,4.6,3.1,6.3,5.3c0-2.4-0.1-4.8-0.2-5.4c-0.1-0.9,0.2-1.8,0.8-2.4c0.6-0.6,1.3-0.9,2.1-0.9h0.1l0.2,0
		c1.9,0.2,12.7,0.3,26.3,0.3c13.7,0,24.6-0.1,26.6-0.3l0.2,0c0.8,0,1.6,0.3,2.1,0.9c0.6,0.6,0.9,1.5,0.8,2.4c-0.1,0.6-0.1,4.9-0.1,8
		c1.3-1.4,2.7-2.8,4.2-3.9c3.5-2.7,7.7-4.8,12.4-6.2c4.6-1.3,9.7-2,15.1-2c5.4,0,10.5,0.7,15.1,2c4.8,1.4,9,3.4,12.6,6.1
		c3.6,2.7,6.5,6.2,8.6,10.2c0.7,1.3,1.2,2.7,1.7,4.1c0-9.4,0-16.8-0.1-18.6c0-0.9,0.3-1.7,1-2.3c0.5-0.5,1.2-0.8,2-0.8h0.1l0.2,0
		c0.2,0,1.4,0.1,7.3,0.1c5.5,0,12.6-0.1,16.9-0.1l4.5,0c3.1,0,6.2,0.2,9.3,0.6c3.3,0.4,6.3,1.2,9,2.5c2.8,1.3,5.2,3.2,7,5.6
		c1.9,2.5,2.9,5.8,2.9,9.8c0,0.1,0,11.8-0.1,12.7c-0.4,3.9-2,7.1-4.7,9.4c-1.4,1.2-3.4,2.3-6.1,3.3c5.6,7.1,20.5,24.8,26.5,32
		l1.1,1.3c1.3-0.1,2.9-0.1,5-0.1c7.3,0,17.4,0,18.2-5.6c0.1-0.6,0.1-1.1,0.1-1.6c0-8.3-10.2-13.6-20.1-18.8c-1.3-0.7-1.9-1-2.3-1.2
		l0,0c-11.2-5.3-17.9-16.7-16.4-27.7c1.5-11.3,10.9-19.3,25.8-21.9c2.2-0.4,5.1-0.6,8.6-0.6c5.7,0,11.7,0.5,13.8,0.8l1.5,0.2
		c2.8,0.4,5.3,0.8,7.8,1.9c0.7,0.3,1.3,0.9,1.6,1.7c0.3,0.8,0.2,1.6-0.1,2.4l-2.5,5l-1.5,3l-3.3,6.9c-0.5,1-1.5,1.7-2.7,1.7
		l-4.5-0.2c-1.6-0.1-2.9-1.4-2.8-3c0.1-1.5-0.1-3.4-1.2-4.4c-1-0.9-4-2.3-6.8-2.4c-1.2,0.1-1.7,0.1-2,0.2c-1.5,0.3-6.6,1.7-6.4,4.3
		c0.4,5.6,9.9,11.1,18.3,16c2.6,1.5,3.5,2,3.8,2.2l0,0c14.2,8.8,20,21.6,15.7,34.1c-4.2,12.1-16.6,19.9-31.6,19.9c0,0,0,0,0,0
		c-1.6,0-3.2-0.1-4.8-0.3c-2-0.2-5.9-1.1-9-1.9l0,0c-0.8-0.1-3.6-0.6-9.6-1.8l-0.2,0c-5.8-1.2-17.9-3.5-19.4-3.6c0,0-0.1,0-0.2,0
		c-1.1,0-2.1-0.6-2.6-1.5c-1-1.7-6.1-8.3-11-14.6c-3-3.9-6.3-8.1-9.1-11.7c0.1,7.6,0.4,17.6,0.5,20.2l0,0.2c0,0.8-0.3,1.6-0.9,2.2
		c-0.6,0.5-1.3,0.8-2,0.8H480l-0.3,0l-3.6-0.5c-4.3-0.7-15.8-2.4-17.8-2.4c-0.1,0-0.2,0-0.3,0c-0.8,0-1.5-0.3-2.1-0.9
		c-0.6-0.6-0.9-1.5-0.9-2.4c0.1-0.9,0.1-12.3,0.2-25.6c-0.4,2-1,3.9-1.7,5.2c-2.1,4.1-5,7.6-8.7,10.4c-3.6,2.7-7.9,4.7-12.7,6
		c-4.7,1.2-9.9,1.8-15.3,1.8c-5.1,0-10-0.7-14.6-2c-4.7-1.4-8.8-3.4-12.4-6.2c-3.6-2.8-6.5-6.2-8.5-10.3c-2.3-4.6-3.1-15.1-3.1-19.1
		c0-5.3,1-10,3-14.1c-1.6-0.4-3.8-1.2-7-2.4c-1.4-0.5-3.5-1.3-5.2-1.9c0,11.7,0.4,45.3,0.5,47.2l0,0.2c0,0.8-0.3,1.6-0.9,2.1
		c-0.6,0.5-1.3,0.8-2.1,0.8l-0.3,0c-1-0.1-4-0.1-8.5-0.1c-5.7,0-11.8,0.1-12.4,0.1l-0.3,0c-0.8,0-1.5-0.3-2.1-0.9
		c-0.5-0.5-0.9-1.3-0.9-2.1v-0.1l0-0.2c0.1-1.7,0.6-35.1,0.6-47c-1.7,0.6-3.8,1.4-5.2,1.9c-4,1.5-6.6,2.5-8.2,2.6l-0.1,0
		c0,0.2,0,0.4,0,0.6c0,3.8-0.8,7.1-2.5,9.8c-1.6,2.6-3.8,4.8-6.5,6.4c-2.6,1.5-5.5,2.6-8.8,3.2c-3.1,0.6-6.4,0.9-9.8,0.9l-5.3-0.1
		l-0.5,0c0.2,7.2,0.6,23,0.7,24.2c0,0.1,0,0.2,0,0.4c0,0.8-0.3,1.5-0.8,2c-0.6,0.6-1.3,0.9-2.1,0.9H294l-0.2,0
		c-1.4,0-11.4,1.5-15.7,2.1l-5.3,0.8c-2.9,0.7-21.4,3.5-22.3,3.6l-0.1,0l-0.2,0c-1.3,0-2.5-0.9-2.8-2.1c-0.4-1.5-5.5-14.5-7.7-20.1
		c-2.2,0.4-5.6,1-8.4,1.6c-3.7,0.7-6,1.2-7.5,1.4c-2,5.4-7.9,22.2-8.5,24c-0.4,1.2-1.6,2-2.9,2l-0.2,0c-1.3,0.1-11.8,2.5-13.3,2.8
		l-0.3,0.1l-0.4,0c0,0-0.1,0-0.1,0c-0.2,0.1-0.5,0.1-0.7,0.1c-1,0-1.8-0.5-2.4-1.6c-1-1.8-11.4-10.8-25.2-21.9
		c0.1,8.7,0.4,22.8,0.6,25.8l0,0.2c0,0.8-0.3,1.5-0.9,2.1c-0.5,0.5-1.3,0.8-2.1,0.8l-0.2,0c-1.1,0.1-8.6,2.1-12.2,3.1
		c-5.6,1.5-7.8,2.1-8.7,2.2l-0.1,0L146.1,269.3L146.1,269.3z"/>
	<path class="st1" d="M459,247.9L459,247.9C459,248,459,248,459,247.9C459,248,459,248,459,247.9L459,247.9z M479.8,212.9
		c0-1.5,0-24.9,0-26.4c0.3,0,0.6,0,0.6,0c0,0,1.4,0,1.4,0l3.3,0.2c1.1,0.1,2.1,0.5,2.9,1.1c0.9,0.6,1.6,1.5,2.2,2.6
		c0.6,1.2,0.9,2.8,0.9,4.9c0,2.2-0.2,11.3-0.5,12.3h0c-0.3,1.1-0.8,2.1-1.5,3c-1.3,1.6-3.6,2.4-7,2.4h-1.6L479.8,212.9L479.8,212.9
		L479.8,212.9z M563.1,213.6c0,0-3.7-2.2-3.7-2.2c-9.3-5.4-18.9-11-19.4-17.6c-0.3-4.9,8.1-6.4,8.1-6.4l2.2-0.2
		c3.1,0.1,6.7,1.6,8.2,2.9c1.3,1.2,2,3.2,1.9,6c0,0.5,0.4,0.9,0.9,1l4.4,0.2c0.4,0,0.7-0.2,0.9-0.5l3.3-6.9l1.5-3.1l2.5-5
		c0.1-0.2,0.1-0.5,0.1-0.8c-0.1-0.2-0.3-0.5-0.5-0.6c-2.3-1-4.6-1.3-7.3-1.7l-1.5-0.2c-3.1-0.5-15.3-1.4-21.8-0.3
		c-13.9,2.4-22.7,9.8-24.2,20.2c-1.4,10.2,4.9,20.7,15.3,25.6c0,0,2.3,1.2,2.3,1.2c10.4,5.4,21.2,11,21.2,20.6c0,0.6,0,1.3-0.1,1.9
		c-1.1,7.3-12.1,7.3-20.2,7.3c-2.4,0-4.4,0-5.9,0.3c-0.4-0.5-1.8-2.2-1.8-2.2c-7.8-9.2-25.1-29.8-28.3-34.3c3.8-1.2,6.5-2.4,8.1-3.8
		c2.3-2,3.7-4.8,4.1-8.1c0.1-0.7,0.1-12.4,0.1-12.5c0-3.5-0.8-6.4-2.5-8.6c-1.6-2.1-3.7-3.8-6.2-5c-2.5-1.1-5.3-1.9-8.4-2.3
		c-3-0.4-6.1-0.6-9.1-0.6l-4.5,0c-7.5,0.1-23,0.2-24.5,0c-0.3,0-0.5,0-0.7,0.2c-0.2,0.2-0.3,0.4-0.3,0.7c0.3,5.4,0,67.5-0.2,68.9
		c0,0.3,0.1,0.6,0.3,0.7c0.2,0.2,0.5,0.3,0.7,0.3c1.4-0.2,13.4,1.7,18.5,2.4l3.4,0.5c0.3,0,0.5,0,0.7-0.2c0.2-0.2,0.3-0.4,0.3-0.7
		c0,0,0,0,0-0.1c-0.2-3.4-0.6-20-0.6-26.5c2.9,4.1,7.9,10.5,12.7,16.7c5.2,6.7,10.2,13.1,11.2,14.9c0.2,0.3,0.5,0.5,0.9,0.5
		c1.2-0.1,13,2.2,20,3.6c5.5,1.1,8.7,1.7,9.5,1.8c0,0-0.1-0.1-0.2-0.1c3.2,0.8,7.2,1.7,9.2,1.9c15.8,1.8,29.9-5.8,34.2-18.3
		C582,233.8,576.4,221.9,563.1,213.6L563.1,213.6z M426.9,231.4c-1,1.1-2.2,2-3.6,2.7c-1.4,0.7-3.1,1-5.1,1c-2.2,0-4.2-0.3-5.7-1
		c-1.6-0.7-2.9-1.6-4-2.8c-1.1-1.2-1.9-2.5-2.5-4.1c-0.6-1.6-1.1-3.2-1.5-5c-0.3-1.7-0.6-3.6-0.7-5.4c0,0-0.1-10.5-0.1-10.5
		c0-2.2,0.2-4.5,0.5-7c0.3-2.5,1-4.7,2-6.8c1-2,2.4-3.7,4.2-5.1c1.8-1.3,4.1-2,7.1-2c3.1,0,5.6,0.7,7.4,2.1c1.9,1.4,3.3,3.2,4.3,5.4
		c1,2.2,1.7,4.6,2,7.2c0.3,2.6,0.5,5.1,0.5,7.4c0,1.4-0.1,8.2-0.2,9.9c-0.1,1.7-0.4,3.4-0.7,5c-0.3,1.7-0.8,3.3-1.5,4.8
		C428.7,228.9,427.8,230.3,426.9,231.4L426.9,231.4z M443.9,184.9c-3.4-2.5-7.4-4.5-11.9-5.8c-4.5-1.3-9.4-1.9-14.6-1.9
		c-5.2,0-10.1,0.7-14.5,1.9c-4.5,1.3-8.4,3.3-11.8,5.8c-3.3,2.6-6,5.8-7.9,9.6c-1.9,3.8-2.9,8.3-2.9,13.2c0,4.3,0.9,14.2,2.9,18.2
		c1.9,3.8,4.6,7,8,9.6c3.3,2.6,7.3,4.5,11.7,5.8c4.4,1.3,9.1,1.9,14.1,1.9c5.2,0,10.2-0.6,14.7-1.8c4.6-1.2,8.7-3.1,12-5.6
		c3.4-2.6,6.1-5.8,8.1-9.7c2.1-4.1,2.9-14.3,2.9-18.9c0-4.9-1-9.3-2.9-13.1C450,190.6,447.3,187.4,443.9,184.9L443.9,184.9z
		 M346.3,236.8C346.3,236.8,346.3,236.8,346.3,236.8C346.3,236.8,346.3,236.8,346.3,236.8L346.3,236.8L346.3,236.8z M382,178.7
		c0,0,0,0.1,0,0.2c0,0,0,0,0,0C381.9,178.8,381.9,178.8,382,178.7L382,178.7z M381.9,191C381.9,191,382,191,381.9,191
		c0,0,0,0.2,0,0.2C382,191.1,381.9,191.1,381.9,191L381.9,191z M375.1,189.4c3.4,1.3,6.3,2.4,7.7,2.5c0.3,0,0.5-0.1,0.7-0.3
		c0.2-0.2,0.3-0.5,0.2-0.8c-0.1-0.8-0.1-11,0-11.8c0-0.3-0.1-0.6-0.2-0.8c-0.2-0.2-0.5-0.3-0.7-0.3c-4.6,0.4-48.9,0.4-53.3,0
		c-0.3,0-0.6,0.1-0.7,0.3c-0.2,0.2-0.3,0.5-0.2,0.8c0.1,1.1,0.3,10.6,0,11.8c-0.1,0.3,0,0.6,0.2,0.8c0.2,0.2,0.5,0.3,0.8,0.3
		c1.4-0.1,4.3-1.2,7.6-2.5c2.8-1.1,6.1-2.3,7.9-2.7c0,0.2,0,0.5,0,0.8c0,9.2-0.5,47.7-0.6,49.1c0,0,0,0.1,0,0.1
		c0,0.2,0.1,0.5,0.3,0.7c0.2,0.2,0.5,0.3,0.7,0.3c1-0.1,18.3-0.3,21.3,0c0.3,0,0.5-0.1,0.7-0.3c0.2-0.2,0.3-0.4,0.3-0.7
		c0,0,0,0,0-0.1c-0.1-2.2-0.6-39.5-0.6-48.9c0-0.4,0-0.7,0-1.1C369,187.1,372.3,188.3,375.1,189.4L375.1,189.4z M293.2,239.4
		L293.2,239.4C293.2,239.4,293.2,239.4,293.2,239.4C293.2,239.4,293.2,239.4,293.2,239.4L293.2,239.4z M147,266.4
		C147,266.4,147,266.3,147,266.4C147,266.3,147,266.4,147,266.4L147,266.4z M179.1,196.1c0,0.7,0,14.1,0,14.7
		c-0.2,2.4-0.8,4.3-2,5.7c-1.3,1.6-3.6,2.4-7,2.4h-1.6c0,0-0.8,0-0.8,0c0-1.5,0-30.1,0-31.6c0.3,0,0.6,0,0.6,0c0,0,1.4,0,1.4,0
		l3.3,0.2c1.1,0.1,2.1,0.5,3,1.1c0.9,0.6,1.6,1.5,2.2,2.6C178.8,192.4,179.1,194,179.1,196.1L179.1,196.1z M237.5,215.3
		c-1,0.2-2.4,0.5-2.4,0.5c-2.6,0.5-6.8,1.4-9.1,1.8c0.9-2.2,5.2-12.9,6.5-16.2C233.6,204.6,236.9,213.8,237.5,215.3L237.5,215.3z
		 M305.2,195.1c0,1.4-0.1,2.7-0.4,3.9c-0.3,1.2-0.7,2.1-1.3,2.9c-0.6,0.8-1.5,1.4-2.5,1.9c-1.1,0.5-2.5,0.7-4.2,0.7h-1.8
		c0,0-0.7,0-0.7,0c0-1.1,0-8.6,0-8.6s0.1-8.1,0.1-9.6c0.3,0,0.6-0.1,0.6-0.1c0,0,1.5,0,1.5,0c1.2,0,2.4,0.1,3.5,0.3
		c1,0.2,1.9,0.6,2.7,1.2c0.8,0.6,1.4,1.5,1.9,2.6C305,191.5,305.2,193.1,305.2,195.1L305.2,195.1z M319.5,181.1
		c-2.3-1.2-5-2.1-8-2.6c-2.9-0.5-5.9-0.7-8.7-0.7l-4.6,0c-7.8,0.1-24.1,0.2-25.5,0c-0.3,0-0.6,0-0.8,0.2c-0.2,0.2-0.3,0.4-0.3,0.7
		c0,0,0,0,0,0.1c0,0.6,0.1,4.5,0.1,10c0,14-0.1,38.7-0.3,48.9c-6.4-14.7-24.9-58.3-25.4-59.7c-0.1-0.4-0.6-0.7-1.1-0.6
		c-1,0.2-11.2,0.2-12.2,0c-0.4-0.1-0.8,0.1-1,0.5c-0.2,0.5-16.7,37.3-25.9,57.9c-5.3-4.3-15.3-10.5-19.5-13.1
		c3.7-0.8,8.6-2.2,11-4.3c2.4-2.1,3.8-5,4.1-8.5c0.1-0.6,0.1-15.4,0.1-15.5c0-3.5-0.8-6.4-2.5-8.6c-1.6-2.1-3.7-3.8-6.2-5
		c-2.5-1.1-5.3-1.9-8.4-2.3c-3-0.4-6.1-0.6-9.1-0.6l-4.5,0c-7.5,0.1-23,0.2-24.5,0c-0.3,0-0.5,0-0.7,0.2c-0.2,0.2-0.3,0.4-0.3,0.7
		c0.2,4.4,0.1,85.2-0.2,87.3c0,0.3,0.1,0.6,0.3,0.7c0.2,0.2,0.5,0.3,0.7,0.3c0.9-0.1,3.7-0.9,8.4-2.1c4.7-1.3,11.9-3.2,12.9-3.2
		c0.3,0,0.5-0.1,0.7-0.3c0.2-0.2,0.3-0.4,0.3-0.7c0,0,0,0,0,0c-0.2-3.7-0.6-23.3-0.7-30.2c8.7,6.9,27.2,22,29,25.1
		c0.2,0.4,0.5,0.7,0.9,0.5c0,0,0.1-0.1,0.2-0.1c0.2,0,0.3,0.1,0.5,0.1c1.2-0.3,12.7-3,13.9-2.9c0.4,0,0.9-0.2,1-0.6
		c0.6-1.8,7.5-21.5,9-25.2c1.3-0.2,4.2-0.7,8.5-1.5c3.8-0.7,8.4-1.6,10.2-1.8c1.5,3.8,7.8,20,8.4,21.8c0.1,0.4,0.5,0.7,1,0.7
		c1.2-0.1,20.1-3,22.2-3.6c0.1,0,5.4-0.8,5.4-0.8c5.3-0.8,15.2-2.2,16.2-2.1c0.3,0,0.6-0.1,0.8-0.3c0.2-0.2,0.3-0.4,0.3-0.6
		c0,0,0-0.1,0-0.1c-0.2-1.1-0.7-21.7-0.8-26.6c1.1,0.1,2.6,0.2,2.6,0.2l5.3,0.1c3.2,0,6.4-0.3,9.4-0.9c3-0.6,5.8-1.6,8.1-3
		c2.4-1.4,4.4-3.3,5.8-5.7c1.4-2.4,2.2-5.3,2.2-8.8c0-3.4-0.8-6.2-2.3-8.4C323.8,184.1,321.8,182.3,319.5,181.1L319.5,181.1z"/>
	<path class="st3" d="M233.9,179.9c-0.9,1.9-12.9,28.9-14.8,33.1c2.6-0.3,4.9-0.7,6.1-0.8c0.6-1.6,7.5-18.6,7.5-18.6
		s5.3,14.8,6,16.9c2.5-0.3,13.8-1.6,17.1-2c-4.4-10.4-10.3-24.3-12.1-28.6C241.1,180,236.5,180,233.9,179.9L233.9,179.9z"/>
	<path class="st3" d="M331.4,180.5c0.1,1.6,0.1,3.9,0.1,6c0,0.8,0,1.6,0,2.3c1.4-0.5,3.1-1.1,4.5-1.7c5-1.9,8.1-3,10-3h1.8l0.1,1.5
		c0,0.3,0,1,0,1.9c0,3.6-0.1,11-0.1,15c5.2,0,10.7,0.1,16.7,0.3c0-4.4-0.1-11.5-0.1-15.1c0-1.2,0-2,0-2.3l0.1-1.5h1.8
		c1.8,0,5,1.2,10,3c1.5,0.6,3.2,1.2,4.6,1.7c0-1.2,0-2.6,0-4.1c0-1.6,0-3.1,0-4.2C371.8,180.8,340.5,180.8,331.4,180.5L331.4,180.5z
		"/>
	<path class="st3" d="M442.1,186.8c-3.1-2.3-6.8-4.1-11-5.3c-4.2-1.2-8.8-1.8-13.7-1.8c-4.9,0-9.4,0.6-13.6,1.8
		c-4.1,1.2-7.7,3-10.8,5.3c-3,2.3-5.4,5.3-7.2,8.8c-1.2,2.4-1.9,5.2-2.3,8.2c5.5,0.3,11.3,0.7,17.3,1.2c0.1-1.8,0.2-3.8,0.5-5.8
		c0.4-2.7,1.1-5.2,2.3-7.5c1.2-2.4,2.8-4.4,5-6c2.3-1.7,5.3-2.6,8.9-2.6c3.8,0,6.9,0.9,9.3,2.7c2.2,1.7,3.9,3.8,5,6.3
		c1.1,2.4,1.8,5,2.2,7.8c0.3,2.7,0.5,5.3,0.5,7.6c0,0,0,0.2,0,0.3c2.6,0.3,14.4,1.5,17.5,1.8c0-1.1,0.1-2.2,0.1-2.2
		c0-4.6-0.9-8.6-2.7-12.1C447.6,192,445.1,189.1,442.1,186.8L442.1,186.8z"/>
	<path class="st3" d="M561.5,215.6c-0.1,0-3.6-2.1-3.6-2.1c-10.3-6-20.1-11.7-20.6-19.5c0-0.2,0-0.3,0-0.4c0-5.5,6.8-8,10.5-8.6
		l2.7-0.2c4,0.1,8.2,1.9,10.2,3.7c1.6,1.4,2.4,3.6,2.6,6.3c0.6,0,0.7,0,1.2,0.1c1-2,2.9-6,2.9-6l1.5-3c0.6-1.2,1.2-2.4,1.8-3.6
		c-1.5-0.4-3-0.7-4.9-1l-1.6-0.2c-3.3-0.5-15.1-1.2-20.7-0.3c-11.4,2-19,7.5-21.3,15.4c-0.5,1.7-0.7,3.4-0.7,5.1
		c0,7,3.9,14.1,10.5,18.6c17.5,2.5,28.7,4.2,28.9,4.3l0.1,0c0,0,8.1,2.3,12.6,3.5C570.9,223.1,566.9,219,561.5,215.6L561.5,215.6z"
		/>
	<path class="st3" d="M503.5,183c-2.2-1-4.7-1.7-7.5-2c-2.9-0.4-5.8-0.5-8.7-0.5l-4.5,0c-11,0.1-19,0.1-22.7,0
		c0,2.9,0.1,8.6,0.1,15.4c0,4.6,0,9.7,0,14.7c5.5,0.6,11.1,1.3,16.8,2v-26.9l-0.1-1.4c0,0,3.3-0.3,3.3-0.3l1.6,0
		c1.2,0,2.4,0.1,3.7,0.3c1.5,0.2,3,0.7,4.2,1.6c1.2,0.8,2.3,2,3.1,3.5c0.8,1.5,1.2,3.5,1.2,6c0,0.1-0.1,11.3-0.6,12.9
		c-0.4,1.4-1,2.7-1.9,3.7c-0.7,0.9-1.5,1.6-2.5,2.1c4.5,0.6,8.9,1.1,13.5,1.7c2.2-0.8,3.9-1.7,4.8-2.5c1.9-1.6,2.9-3.8,3.3-6.6
		c0.1-0.7,0.1-10.9,0.1-12.3c0-3-0.7-5.5-2-7.2C507.3,185.4,505.6,184,503.5,183L503.5,183z"/>
	<path class="st3" d="M318,183.2c-2-1.1-4.4-1.8-7.1-2.3c-2.7-0.5-5.5-0.7-8.2-0.7l-4.6,0c-11.6,0.1-19.9,0.1-23.7,0
		c0,1.8,0,4.7,0,8.3c0,5.2,0,11.8,0,17.9c5.8-0.6,11.5-1.1,17-1.5v-9.1l0.1-10.5l-0.1-1.4c0,0,3.3-0.3,3.3-0.3l1.7,0
		c1.5,0,2.9,0.1,4.2,0.4c1.5,0.3,2.8,0.9,3.9,1.8c1.1,0.9,2,2.1,2.6,3.6c0.6,1.4,0.9,3.3,0.9,5.5c0,1.5-0.2,3-0.5,4.4h0
		c-0.3,1.5-0.9,2.8-1.8,3.9c-0.2,0.3-0.4,0.5-0.6,0.7c6-0.4,11.7-0.7,17.2-1c0.3-0.4,0.6-0.9,0.6-0.9c1.2-2,1.8-4.6,1.8-7.6
		c0-2.9-0.6-5.3-1.9-7.1C321.6,185.7,320,184.3,318,183.2L318,183.2z"/>
	<path class="st3" d="M191.5,183c-2.2-1-4.7-1.7-7.5-2c-2.9-0.4-5.8-0.5-8.7-0.5l-4.5,0c-11.1,0.1-19,0.1-22.7,0
		c0,4.1,0.1,14.7,0.1,27c0,5,0,10.4,0,15.6c3.8-0.6,9.5-1.6,16.8-2.8v-33.8l-0.1-1.4c0,0,3.3-0.3,3.3-0.3l1.6,0
		c1.2,0,2.4,0.1,3.7,0.3c1.5,0.2,3,0.7,4.2,1.6c1.2,0.8,2.3,2,3.1,3.5c0.8,1.5,1.2,3.5,1.2,6c0,0.1,0,14.4,0,14.8v0
		c-0.2,2.8-1,5.2-2.4,7c0,0-0.1,0.1-0.1,0.1c5.2-0.8,10.9-1.6,16.9-2.5c1.3-1.5,2.1-3.5,2.3-5.9c0-0.8,0.1-14.1,0.1-15.3
		c0-3-0.7-5.5-2-7.2C195.3,185.4,193.6,184,191.5,183L191.5,183z"/>
	<path class="st1" d="M260.3,307.1c-0.4-0.7-1.3-1.2-2.7-1.5c0.4-0.6,1-1.1,2-1.6l2.3-1l-2.4-0.7c-0.2,0-4.4-1.2-6.9,1.2
		c-0.6,0.5-1,1.2-1.2,2c-0.8,0.4-1.7,1-2.7,1.8l-0.3,0.2c-1.6,1.2-2.9,5.2-3.3,6.4c-0.6,0.6-2.8,3.3-2.8,6.4c0,0.7,0.1,1.5,0.4,2.2
		c1.5,3.5,4.3,4.1,7.1,4.7l1.5,0.3c3.6,0.9,5.7-4.3,7.3-8.4c0,0,0.4-1.1,0.5-1.2c1.4-2,2-4.6,2-6.8
		C261,309.4,260.7,307.9,260.3,307.1L260.3,307.1z"/>
	<path class="st1" d="M247.7,284.9c1.5,1.2,2.9,2.7,3.5,3.5l1,1.2l0.6-1.5c1-2.7-0.8-6.2-2.1-8.4c0.4-2,0.5-4,0.4-4.6
		c-0.1-0.9-1.1-1.9-6.2-4.6l-0.6-0.3l-6.4-4.1c-2.4-1.5-8.7,0.8-11.3,2.4c-1.5,0.9-1.9,2.5-1.9,4c0,1.9,0.7,3.7,0.8,3.9l0.1,0.1
		l0.1,0.1c2,2.3,5.6,3,6.7,3.2c1.2,1,7.3,6,9,6.8C242.7,287.4,244.8,286.8,247.7,284.9L247.7,284.9z"/>
	<path class="st1" d="M273.1,311c-0.5-2.2-1.6-3.9-2.9-4.6l-4.7-2.4l1.2,2.4c0.5,1,1.1,2.5,1.3,3.6c-0.7,0.1-1.2,0.2-1.5,0.3l0.2,0
		c-1.1,0-2.9,2.1-3,2.1c-0.6,0.7-0.7,1.5-0.8,2.2c-0.1,0.6-0.2,1.2-0.5,1.9c-0.8,1.7-1.5,5.8-1.6,6.3c-0.1,0.2-0.2,0.5-0.2,1.1
		c0,0.9,0.3,2.2,1.8,3.9c3,3.5,8.4-0.4,9-0.9c1.1-0.8,2.6-3.7,2.9-4.2l0.1-0.1l0.7-4.3c0.2-1-0.7-3.9-1.7-5.8
		C273.3,311.8,273.2,311.4,273.1,311L273.1,311z"/>
	<path class="st1" d="M461.9,317.5c-0.3-0.7-0.4-1.3-0.5-1.9c-0.1-0.8-0.2-1.6-0.8-2.2c0,0-1.8-2.1-3-2.1l0.2,0
		c-0.2-0.1-0.8-0.2-1.5-0.3c0.2-1.1,0.8-2.6,1.3-3.6l1.2-2.4l-2.4,1.2l-2.4,1.2c-1.3,0.6-2.4,2.4-2.9,4.6c-0.1,0.4-0.2,0.9-0.2,1.4
		c-1,1.9-1.9,4.8-1.7,5.8l0.7,4.3l0.1,0.1c0.3,0.6,1.8,3.4,2.9,4.2c0.6,0.5,6,4.3,9,0.9c1.4-1.7,1.8-3,1.8-3.9
		c0-0.5-0.1-0.9-0.2-1.1C463.5,323.3,462.7,319.2,461.9,317.5L461.9,317.5z"/>
	<path class="st1" d="M476.1,308.6l-0.3-0.2c-1-0.8-1.9-1.4-2.7-1.8c-0.3-0.8-0.7-1.5-1.2-2c-2.4-2.3-6.7-1.2-6.9-1.2l-2.4,0.7
		l2.3,1c0.9,0.4,1.6,1,2,1.6c-1.5,0.3-2.3,0.8-2.7,1.5c-0.4,0.8-0.7,2.3-0.7,4c0,2.2,0.5,4.8,2,6.8c0,0.1,0.5,1.2,0.5,1.2
		c1.6,4.1,3.7,9.3,7.3,8.4l1.5-0.3c2.8-0.6,5.6-1.1,7.1-4.7c0.3-0.7,0.4-1.5,0.4-2.2c0-3-2.2-5.7-2.8-6.4
		C479,313.8,477.7,309.8,476.1,308.6L476.1,308.6z"/>
	<path class="st1" d="M497.8,269.6c-2.6-1.6-8.9-4-11.3-2.4l-6.4,4.1c0,0-0.6,0.3-0.6,0.3c-5.1,2.7-6.1,3.7-6.2,4.6
		c-0.1,0.5,0,2.6,0.4,4.6c-1.4,2.2-3.2,5.7-2.1,8.4l0.6,1.5l1-1.2c0.6-0.8,2-2.3,3.5-3.5c2.8,1.9,4.9,2.5,6.3,1.8
		c1.7-0.9,7.8-5.8,9-6.8c1-0.2,4.7-0.9,6.7-3.2l0.1-0.1l0.1-0.1c0.1-0.1,0.8-1.9,0.8-3.9C499.7,272.1,499.2,270.6,497.8,269.6
		L497.8,269.6z"/>
	<path class="st0" d="M313.9,148.4c-0.6-0.4-1.4-0.6-2.4-0.6c-0.9,0-1.6,0.2-2.2,0.5c-0.6,0.4-1,0.8-1.4,1.4c-0.3,0.6-0.6,1.2-0.7,2
		c-0.1,0.7-0.2,1.5-0.2,2.2c0,2,0.3,3.5,0.9,4.5c0.6,1,1.6,1.5,3,1.5c0.2,0,0.5,0,0.6-0.1c0.2,0,0.4-0.1,0.6-0.1c0-0.9,0-1.7,0-2.5
		c0-0.8-0.1-1.7-0.1-2.5c0.4,0.1,0.9,0.1,1.3,0.1c0.4,0,0.8,0.1,1.2,0.1c0.4,0,0.8,0,1.2,0c0.4,0,0.8-0.1,1.2-0.2
		c0,0.9-0.1,1.8-0.1,2.6c0,0.8,0,1.5,0,2.2c0,0.2,0,0.4,0,0.7c0,0.3,0,0.5,0,0.6c-0.4,0.1-0.9,0.2-1.4,0.3c-0.5,0.1-1,0.2-1.6,0.3
		c-0.5,0.1-1.1,0.2-1.6,0.2c-0.5,0-1.1,0.1-1.5,0.1c-1.2,0-2.4-0.2-3.4-0.5c-1.1-0.3-2-0.8-2.9-1.5c-0.8-0.7-1.5-1.5-2-2.5
		c-0.5-1-0.7-2.1-0.7-3.4c0-1.2,0.2-2.3,0.7-3.3c0.5-1,1.1-1.8,1.9-2.5c0.8-0.7,1.8-1.2,2.9-1.6c1.1-0.4,2.3-0.6,3.6-0.6
		c1,0,2.1,0.1,3.1,0.3c1,0.2,2.1,0.5,3,0.9c-0.2,0.6-0.4,1.1-0.6,1.6c-0.2,0.5-0.3,1-0.4,1.6h-0.8
		C315,149.5,314.6,148.9,313.9,148.4L313.9,148.4z"/>
	<path class="st0" d="M326.4,159.4c0.4,0,0.9,0,1.4,0c0.5,0,1.1,0,1.6-0.1c0.5,0,1-0.1,1.3-0.1c0,0.2-0.1,0.3-0.1,0.6
		c0,0.2,0,0.4,0,0.7c0,0.2,0,0.4,0,0.6c0,0.2,0,0.4,0.1,0.6c-0.9-0.1-1.7-0.1-2.4-0.2c-0.7,0-1.4,0-2.1,0c-0.8,0-1.7,0-2.7,0
		c-1,0-2.1,0.1-3.1,0.2c0.1-0.6,0.2-1.3,0.3-2c0-0.7,0.1-1.4,0.1-2v-1.1c0-0.7,0-1.3,0-1.9c0-0.6,0-1.1,0-1.6c0-0.5,0-1,0-1.5
		c0-0.5,0-1,0-1.5c0-0.7-0.1-1.3-0.1-2c0-0.7-0.1-1.3-0.1-1.9c0.9,0.1,1.8,0.2,2.8,0.2c0.4,0,0.9,0,1.3,0c0.4,0,0.8-0.1,1.3-0.1
		c0,0.4-0.1,0.9-0.1,1.5c0,0.6,0,1.3-0.1,2c0,0.7,0,1.4,0,2.1c0,0.7,0,1.3,0,1.8v1c0,0.2,0,0.5,0,1c0,0.5,0,1,0,1.5c0,0.5,0,1,0,1.5
		c0,0.5,0,0.8,0,0.9C325.7,159.4,326,159.4,326.4,159.4L326.4,159.4z"/>
	<path class="st0" d="M339.9,159.4c0.2,0,0.5,0,0.8,0c0.4,0,0.7,0,1.1,0c0.4,0,0.8,0,1.1-0.1c0.4,0,0.7,0,0.9-0.1
		c0,0.2-0.1,0.4-0.1,0.6c0,0.2,0,0.4,0,0.6c0,0.2,0,0.4,0,0.6c0,0.2,0,0.4,0.1,0.5c-0.9-0.1-1.8-0.1-2.6-0.2c-0.9,0-1.7,0-2.6,0
		c-0.9,0-1.8,0-2.6,0c-0.9,0-1.8,0.1-2.6,0.2c0-0.3,0.1-0.6,0.1-0.9c0-0.3,0-0.6,0-1c0-0.4,0-0.8,0-1.3c0-0.5,0-1.2,0-2V154
		c0-1.1,0-2.1,0-2.8c0-0.7,0-1.4,0-2c0-0.6,0-1.1-0.1-1.6c0-0.5-0.1-1-0.1-1.6c0.7,0.1,1.5,0.1,2.2,0.1c0.7,0,1.5,0,2.2,0
		c0.4,0,0.9,0,1.4,0c0.5,0,1.1,0,1.6,0c0.6,0,1.1,0,1.6,0c0.5,0,1-0.1,1.4-0.1c0,0.2-0.1,0.4-0.1,0.6c0,0.2,0,0.4,0,0.6
		c0,0.2,0,0.4,0,0.6c0,0.2,0,0.4,0.1,0.6c-0.5,0-1.1-0.1-1.6-0.1c-0.5,0-1.1-0.1-1.6-0.1h-2.3v4.2c0.2,0,0.4,0,0.8,0
		c0.3,0,0.8,0,1.2,0c0.5,0,1,0,1.5-0.1c0.6,0,1.1-0.1,1.7-0.1c0,0.2-0.1,0.4-0.1,0.6c0,0.2,0,0.4,0,0.6c0,0.4,0,0.8,0.1,1.2
		c-0.4,0-0.8-0.1-1.2-0.1c-0.4,0-0.8,0-1.2-0.1c-0.4,0-0.8,0-1.3,0c-0.5,0-1,0-1.5,0v4.9H339.9L339.9,159.4z"/>
	<path class="st0" d="M350.3,153.2c-0.3-0.3-0.6-0.7-0.9-1v2.2c0,0.4,0,0.9,0,1.5c0,0.6,0,1.2,0.1,1.9c0,0.6,0.1,1.3,0.1,1.9
		c0,0.6,0.1,1.2,0.1,1.8c-0.2-0.1-0.4-0.1-0.6-0.1c-0.2,0-0.4-0.1-0.7-0.1c-0.2,0-0.5,0-0.7,0.1c-0.2,0-0.5,0.1-0.8,0.1
		c0.1-0.6,0.1-1.3,0.2-2c0.1-0.7,0.1-1.4,0.1-2.1c0-0.7,0.1-1.4,0.1-2.1c0-0.7,0-1.3,0-2c0-1.3,0-2.5,0-3.7c0-1.2-0.1-2.4-0.1-3.7
		c0.3,0.1,0.6,0.1,0.9,0.1c0.3,0,0.6,0.1,0.9,0.1c0.3,0,0.6,0,0.8-0.1c0.3,0,0.5-0.1,0.8-0.1c0.4,0.5,0.8,1.1,1.3,1.6
		c0.5,0.6,0.9,1.1,1.4,1.6c0.5,0.5,0.9,1,1.3,1.5c0.4,0.5,0.8,0.9,1.1,1.2c0.3,0.3,0.6,0.6,0.8,0.9c0.3,0.3,0.5,0.5,0.7,0.8
		c0.2,0.3,0.5,0.5,0.7,0.8c0.2,0.3,0.5,0.6,0.8,0.9c0-0.6,0-1.3,0-1.9c0-0.6,0-1.2-0.1-1.9c0-0.5,0-1,0-1.5c0-0.5,0-0.9-0.1-1.4
		c0-0.4,0-0.9-0.1-1.3c0-0.4,0-0.9-0.1-1.3c0.3,0.1,0.5,0.1,0.8,0.1c0.2,0,0.5,0,0.7,0c0.2,0,0.5,0,0.7,0c0.2,0,0.4-0.1,0.6-0.1
		c0,0.5-0.1,1.1-0.1,1.6c0,0.5-0.1,1.1-0.1,1.6c-0.1,1.5-0.1,2.9-0.1,4.4c0,1.4,0,2.9,0,4.4c0,0.6,0,1.2,0,1.7c0,0.6,0,1.2,0.1,1.7
		c-0.2-0.1-0.5-0.1-0.8-0.1c-0.3,0-0.6-0.1-1-0.1c-0.3,0-0.6,0-0.9,0.1c-0.3,0-0.5,0.1-0.8,0.1c-0.5-0.6-1-1.1-1.4-1.7
		c-0.4-0.5-0.9-1-1.3-1.5c-0.4-0.5-0.8-1-1.2-1.4c-0.4-0.5-0.8-0.9-1.2-1.4l-1.2-1.4C350.9,153.9,350.6,153.6,350.3,153.2
		L350.3,153.2z"/>
	<path class="st0" d="M374.5,150.6c-0.2-0.8-0.5-1.3-0.9-1.7c-0.4-0.4-0.8-0.7-1.3-0.8c-0.5-0.1-1-0.2-1.5-0.2c-0.3,0-0.7,0-1,0.1
		c0,0.6-0.1,1.2-0.1,1.8c0,0.6,0,1.2,0,1.8c0,0.6,0,1.2,0,1.9c0,0.7,0,1.4,0,2.2c0,0.7,0,1.5,0,2.2c0,0.7,0,1.3,0,1.9
		c0.1,0,0.2,0,0.3,0c0.1,0,0.2,0,0.3,0h0.7c0.7,0,1.3-0.1,1.8-0.4c0.5-0.3,0.9-0.6,1.1-1.1c0.3-0.5,0.5-1.1,0.6-1.9
		c0.1-0.8,0.2-1.7,0.2-2.7C374.8,152.4,374.7,151.3,374.5,150.6L374.5,150.6z M379.8,155.9c-0.2,0.7-0.4,1.4-0.8,2
		c-0.3,0.6-0.7,1.1-1.2,1.6c-0.5,0.5-1,0.8-1.6,1.1c-0.4,0.2-0.7,0.3-1,0.5c-0.3,0.1-0.6,0.2-0.9,0.3c-0.3,0.1-0.6,0.1-1,0.1
		c-0.3,0-0.7,0-1.1,0c-0.7,0-1.5,0-2.2-0.1c-0.7-0.1-1.5-0.1-2.2-0.1c-0.5,0-1,0-1.5,0.1c-0.5,0-1,0.1-1.5,0.1
		c0.1-1.2,0.1-2.3,0.2-3.4c0-1.1,0.1-2.2,0.1-3.4c0-1.4,0-2.8,0-4.3c0-1.4-0.1-2.9-0.1-4.5c0.4,0.1,0.9,0.1,1.3,0.1
		c0.4,0,0.9,0.1,1.3,0.1c0.7,0,1.4,0,2.1-0.1c0.7-0.1,1.4-0.1,2.1-0.1c1,0,1.9,0.1,2.8,0.3c0.9,0.2,1.7,0.5,2.5,1.1
		c0.5,0.3,1,0.7,1.4,1.2c0.4,0.5,0.7,1,1,1.5c0.3,0.5,0.4,1.1,0.6,1.7c0.1,0.6,0.2,1.2,0.2,1.8C380.1,154.4,380,155.2,379.8,155.9
		L379.8,155.9z"/>
	<path class="st0" d="M385,156.5c0.2,0,0.3,0,0.5,0c0.2,0,0.3,0,0.5,0h0.9h0.9c0.2,0,0.3,0,0.5,0c0.2,0,0.3,0,0.5,0l-1.9-5
		L385,156.5L385,156.5z M383.4,161.6c-0.2-0.1-0.5-0.1-0.7-0.1c-0.2,0-0.5-0.1-0.7-0.1c-0.2,0-0.5,0-0.7,0.1c-0.2,0-0.5,0.1-0.7,0.1
		l1.3-2.9c0.2-0.4,0.4-0.9,0.7-1.5c0.2-0.6,0.5-1.2,0.8-1.8c0.3-0.6,0.5-1.3,0.8-2c0.3-0.7,0.6-1.4,0.9-2.1c0.2-0.4,0.3-0.9,0.5-1.4
		c0.2-0.5,0.4-1,0.6-1.6c0.2-0.5,0.4-1,0.5-1.4c0.2-0.4,0.3-0.7,0.3-0.9c0.2,0.1,0.5,0.1,0.8,0.1c0.3,0,0.5,0.1,0.8,0.1
		c0.3,0,0.5,0,0.8-0.1c0.3,0,0.5-0.1,0.8-0.1c0.2,0.5,0.4,1.1,0.6,1.8c0.2,0.7,0.5,1.4,0.8,2.2c0.3,0.8,0.6,1.5,0.9,2.3
		c0.3,0.8,0.6,1.5,0.8,2.1c0.3,0.8,0.6,1.4,0.8,2c0.2,0.6,0.5,1.1,0.7,1.7c0.2,0.5,0.4,1.1,0.7,1.6c0.2,0.5,0.5,1.1,0.8,1.8
		c-0.4-0.1-0.9-0.1-1.4-0.2c-0.5,0-1,0-1.4,0c-0.5,0-0.9,0-1.4,0.1c-0.5,0-0.9,0.1-1.4,0.1c-0.1-0.5-0.3-1.1-0.4-1.6
		c-0.1-0.5-0.3-1-0.5-1.5c-0.5,0-0.9,0-1.4,0c-0.5,0-0.9,0-1.4,0c-0.4,0-0.8,0-1.1,0c-0.4,0-0.8,0-1.1,0c-0.2,0.5-0.4,1-0.5,1.5
		C383.7,160.5,383.6,161,383.4,161.6L383.4,161.6z"/>
	<path class="st0" d="M404.3,159.4c0.4,0,0.9,0,1.4,0c0.5,0,1.1,0,1.6-0.1c0.5,0,1-0.1,1.3-0.1c0,0.2-0.1,0.3-0.1,0.6
		c0,0.2,0,0.4,0,0.7c0,0.2,0,0.4,0,0.6c0,0.2,0,0.4,0.1,0.6c-0.9-0.1-1.7-0.1-2.4-0.2c-0.7,0-1.4,0-2.1,0c-0.8,0-1.7,0-2.7,0
		c-1,0-2,0.1-3.1,0.2c0.1-0.6,0.2-1.3,0.3-2c0-0.7,0.1-1.4,0.1-2v-1.1c0-0.7,0-1.3,0-1.9c0-0.6,0-1.1,0-1.6c0-0.5,0-1,0-1.5
		c0-0.5,0-1,0-1.5c0-0.7,0-1.3-0.1-2c0-0.7-0.1-1.3-0.1-1.9c0.9,0.1,1.8,0.2,2.8,0.2c0.4,0,0.9,0,1.3,0c0.4,0,0.8-0.1,1.3-0.1
		c0,0.4-0.1,0.9-0.1,1.5c0,0.6,0,1.3-0.1,2c0,0.7,0,1.4,0,2.1c0,0.7,0,1.3,0,1.8v1c0,0.2,0,0.5,0,1c0,0.5,0,1,0,1.5c0,0.5,0,1,0,1.5
		c0,0.5,0,0.8,0,0.9C403.5,159.4,403.8,159.4,404.3,159.4L404.3,159.4z"/>
	<path class="st0" d="M417.8,159.4c0.2,0,0.5,0,0.8,0c0.4,0,0.7,0,1.1,0c0.4,0,0.8,0,1.1-0.1c0.4,0,0.7,0,0.9-0.1
		c0,0.2-0.1,0.4-0.1,0.6c0,0.2,0,0.4,0,0.6c0,0.2,0,0.4,0,0.6c0,0.2,0,0.4,0.1,0.5c-0.9-0.1-1.8-0.1-2.6-0.2c-0.9,0-1.7,0-2.6,0
		c-0.9,0-1.8,0-2.6,0c-0.9,0-1.8,0.1-2.6,0.2c0-0.3,0.1-0.6,0.1-0.9c0-0.3,0-0.6,0-1c0-0.4,0-0.8,0-1.3c0-0.5,0-1.2,0-2V154
		c0-1.1,0-2.1,0-2.8c0-0.7,0-1.4,0-2c0-0.6,0-1.1-0.1-1.6c0-0.5-0.1-1-0.1-1.6c0.7,0.1,1.5,0.1,2.2,0.1c0.7,0,1.5,0,2.2,0
		c0.4,0,0.9,0,1.4,0c0.5,0,1.1,0,1.6,0c0.6,0,1.1,0,1.6,0c0.5,0,1-0.1,1.4-0.1c0,0.2-0.1,0.4-0.1,0.6c0,0.2,0,0.4,0,0.6
		c0,0.2,0,0.4,0,0.6c0,0.2,0,0.4,0.1,0.6c-0.5,0-1.1-0.1-1.6-0.1c-0.5,0-1.1-0.1-1.6-0.1h-2.3v4.2c0.2,0,0.4,0,0.8,0
		c0.3,0,0.8,0,1.2,0c0.5,0,1,0,1.5-0.1c0.6,0,1.1-0.1,1.7-0.1c0,0.2-0.1,0.4-0.1,0.6c0,0.2,0,0.4,0,0.6c0,0.4,0,0.8,0.1,1.2
		c-0.4,0-0.8-0.1-1.2-0.1c-0.4,0-0.8,0-1.2-0.1c-0.4,0-0.8,0-1.3,0c-0.5,0-1,0-1.5,0v4.9H417.8L417.8,159.4z"/>
	<g>
		<path class="st1" d="M521.5,278.8h-1.6v-4.5c0.3-0.1,0.8-0.1,1.6-0.1c1.7,0,2.9,0.7,2.9,2.3C524.3,277.9,523.2,278.8,521.5,278.8
			L521.5,278.8z M523.6,279.5L523.6,279.5c1.3-0.5,2.3-1.6,2.3-3.2c0-1-0.4-1.8-1-2.4c-0.8-0.7-1.9-1-3.6-1c-1.1,0-2.3,0.1-3.1,0.3
			v12.3h1.6v-5.4h1.5c1.5,0.1,2.1,0.7,2.5,2.4c0.3,1.5,0.6,2.6,0.8,3h1.7c-0.3-0.5-0.6-1.7-1-3.4
			C525.1,280.7,524.5,279.9,523.6,279.5L523.6,279.5z"/>
		<path class="st1" d="M521.4,288.7c-5.2,0-9.5-4.3-9.5-9.5c0-5.2,4.3-9.5,9.5-9.5c5.2,0,9.5,4.3,9.5,9.5
			C530.9,284.4,526.6,288.7,521.4,288.7L521.4,288.7z M521.4,267.9c-6.2,0-11.2,5-11.2,11.2c0,6.2,5,11.2,11.2,11.2
			c6.2,0,11.2-5,11.2-11.2C532.7,273,527.6,267.9,521.4,267.9L521.4,267.9z"/>
	</g>
</g>
</svg>
