<?xml version="1.0" encoding="utf-8"?>
<!-- Generator: Adobe Illustrator 22.1.0, SVG Export Plug-In . SVG Version: 6.00 Build 0)  -->
<svg version="1.1" id="Layer_1" xmlns="http://www.w3.org/2000/svg" xmlns:xlink="http://www.w3.org/1999/xlink" x="0px" y="0px"
	 viewBox="0 0 361 500" style="enable-background:new 0 0 361 500;" xml:space="preserve">
<style type="text/css">
	.st0{fill:#EA0029;}
</style>
<g>
	<g>
		<path class="st0" d="M180.4,500c-9.4,0-20-0.2-36.1-2.1l-0.8-0.1c-51.8-7.5-104.3-44.5-130.8-92.1l-0.5-0.9l-0.5-1
			c-9-18.5-11.7-30.1-11.7-49.7V81.3h361V354c0,19.6-2.7,31.3-11.7,49.7l-0.5,1l-0.5,0.9c-26.5,47.6-79,84.6-130.8,92.1l-0.8,0.1
			C200.4,499.8,189.9,500,180.4,500z M120.2,403.5c-11.3-7.8-21.4-17.3-29.9-27.9c-4.7-6.2-4.8-12.1-4.8-15.4l0-34.6L39.3,295
			c0,0,0,39.2,0,59.3c0,13.6,1.4,19.5,7.8,32.5c21.9,39.4,69.4,71.5,111.9,73.2l7.4,0.3V291.3l-80.9-53.7v-73.9h34.8v58.9l46.1,30.8
			V120.9h-127v136.5l80.9,53.7V403.5z M202,460c42.4-1.7,89.9-33.7,111.9-73.2c6.3-13,7.8-18.9,7.8-32.5c0-20.1,0-59.3,0-59.3V120.9
			H194.5v339.4L202,460z M240.7,403.5V163.7h34.8c0,0,0,193.4,0,196.6s-0.1,9.2-4.8,15.4C262.1,386.3,251.9,395.7,240.7,403.5z"/>
	</g>
	<g>
		<g>
			<path class="st0" d="M-0.1,1.1h17.9v32.1h19.6v10.3H-0.1V1.1z"/>
		</g>
		<g>
			<path class="st0" d="M54.9,1.1h40.7v8.9H72.2v7.8h21.9v8.9H72.2v7.8h23.6v8.9H54.9V1.1z"/>
		</g>
		<g>
			<path class="st0" d="M151.6,14.1c-0.2-1.1-0.9-2.4-2.2-3.4c-1.3-1-3.2-1.7-6.1-1.7c-7.6,0-11.9,5.1-11.9,12.8
				c0,8.2,3.8,14.1,12.6,14.1c3.9,0,6.7-0.6,8.3-1.5v-6.5H142v-8.9h28.2v22.4c-8.4,1.9-19.4,3.4-28.8,3.4
				c-21.3,0-27.9-9.3-27.9-21.8C113.6,6.9,124.8,0,143.5,0c15.4,0,26.5,3.4,26.8,14.1H151.6z"/>
		</g>
		<g>
			<path class="st0" d="M191.6,1.1h17.9v42.4h-17.9V1.1z"/>
		</g>
		<g>
			<path class="st0" d="M280.1,37.3c-4.6,4.4-11.9,7.3-22.9,7.3c-20.8,0-28.4-9.6-28.4-22.3c0-8.2,3.3-14.2,8.2-17.6
				c4.1-2.9,9.3-4.7,20.2-4.7c20.8,0,28.4,9.6,28.4,22.3C285.7,28.9,283.7,34,280.1,37.3z M257.3,9.6c-5.9,0-10.2,4-10.2,12.7
				c0,8.7,4.3,12.7,10.2,12.7c5.9,0,10.2-4,10.2-12.7C267.4,13.6,263.2,9.6,257.3,9.6z"/>
		</g>
		<g>
			<path class="st0" d="M304.8,1.1h26.2l14.3,28.5h0.2V1.1h15.5v42.4h-25.3l-15.2-30.2h-0.1v30.2h-15.5V1.1z"/>
		</g>
	</g>
</g>
</svg>
