<?xml version="1.0" encoding="utf-8"?>
<!-- Generator: Adobe Illustrator 22.1.0, SVG Export Plug-In . SVG Version: 6.00 Build 0)  -->
<svg version="1.1" id="Layer_1" xmlns="http://www.w3.org/2000/svg" xmlns:xlink="http://www.w3.org/1999/xlink" x="0px" y="0px"
	 viewBox="0 0 347 500" style="enable-background:new 0 0 347 500;" xml:space="preserve">
<style type="text/css">
	.st0{fill:#204390;}
	.st1{fill:none;}
	.st2{fill:#FFFFFF;}
</style>
<g>
	<g>
		<path class="st0" d="M296.2,72.8C263.6,25.9,219.9,0,173.2,0c-46.7,0-90.4,25.9-123,72.8C17.7,119.7-0.2,182.6-0.2,250
			s17.9,130.3,50.5,177.2c32.6,47,76.3,72.8,123,72.8c46.7,0,90.4-25.9,122.9-72.8c32.5-46.9,50.5-109.8,50.5-177.2
			S328.7,119.7,296.2,72.8z M291.4,423.9c-31.5,45.4-73.4,70.3-118.2,70.3c-44.7,0-86.7-25-118.2-70.3C23.2,377.9,5.6,316.2,5.6,250
			S23.2,122.1,55.1,76.1C86.5,30.8,128.5,5.8,173.2,5.8c44.7,0,86.7,25,118.2,70.3c31.9,45.9,49.4,107.7,49.4,173.9
			S323.3,377.9,291.4,423.9z"/>
		<path class="st0" d="M173.2,19.7C86.4,19.7,15.8,123,15.8,250s70.6,230.3,157.4,230.3S330.6,377,330.6,250S260,19.7,173.2,19.7z
			 M188.3,92.5V26.6c6.4,0.9,12.6,2.5,18.7,4.6v63.7C200.9,93.8,194.7,93,188.3,92.5z M212.8,33.3c6.4,2.6,12.6,5.7,18.7,9.5v58
			c-6-1.8-12.3-3.4-18.7-4.7V33.3z M237.3,46.6c6.5,4.5,12.7,9.7,18.7,15.4v47.2c-5.9-2.4-12.1-4.6-18.7-6.7V46.6z M261.8,68
			c6.6,7.1,12.9,15,18.7,23.6v28.8c-5.6-2.8-11.9-5.8-18.7-8.7V68z M286.3,100.8c5.9,9.9,11.3,20.5,16,31.8c-4-2.5-9.4-5.7-16-9.2
			V100.8z M182.5,26v66.1c-3.1-0.2-6.2-0.3-9.3-0.3c-3.1,0-6.3,0.1-9.4,0.3V26c3.1-0.3,6.2-0.5,9.4-0.5
			C176.3,25.5,179.4,25.7,182.5,26z M44.1,132.6c4.7-11.2,10-21.8,15.9-31.6v22.5C53.4,126.9,48.1,130.1,44.1,132.6z M65.8,91.8
			c5.8-8.6,12-16.5,18.7-23.6v43.5c-6.8,2.9-13.1,5.9-18.7,8.7V91.8z M90.3,62.2c6-5.8,12.2-11,18.7-15.5v55.8
			c-6.5,2.1-12.8,4.4-18.7,6.7V62.2z M114.8,42.9c6-3.7,12.3-6.9,18.7-9.5v62.7c-6.4,1.3-12.7,2.9-18.7,4.7V42.9z M139.3,31.2
			c6.1-2.1,12.3-3.7,18.7-4.6v65.8c-6.3,0.5-12.6,1.4-18.7,2.5V31.2z M40.4,141.9c7.9-5.4,67.1-44.2,132.8-44.2
			c65.4,0,124.7,38.7,132.8,44.2c12,32.1,18.8,69,18.8,108.2c0,37.9-6.4,73.7-17.7,105.1c-8.2,5.6-67.8,44.6-133.8,44.6
			c-66.2,0-126-39.2-134-44.6C28,323.7,21.6,287.9,21.6,250C21.6,210.8,28.4,174,40.4,141.9z M173.2,474.5
			c-55.4,0-104-44.3-130.4-110.3c19.4,12,72.5,41.3,130.5,41.3c58,0,110.9-29.2,130.3-41.2C277.2,430.2,228.6,474.5,173.2,474.5z"/>
	</g>
	<g>
		<polygon class="st1" points="189.9,286.1 214.6,286.1 189.9,235.8 		"/>
		<polygon class="st1" points="156.7,286.1 156.7,235.8 131.9,286.1 		"/>
		<path class="st0" d="M283.4,141.3H180l-6.7-13.7l-6.8,13.7H63v33.2h87.2L63.9,350.3l30,13.1l21.7-44.1h41.1v46h33.2v-46h41.1
			l21.7,44.1l30-13.1l-86.3-175.8h87.1V141.3z M75,157.9l-7.2-11.8h96.4l-5.8,11.8H75z M156.7,286.1h-24.7l24.7-50.3V286.1z
			 M173.3,353.4l-11.8,7.2V226.1l11.8-24V353.4z M235.5,290.9l5.8,11.8l2.5,5.1l18,36.7l-7.2,13.1l-18.8-38.2l-2.4-4.8l7.9-11.8
			h-51.4v-11.8h31.9l-48.5-98.7v-28.4L111,290.9h45.6v11.8H119l-7.9-11.8l-26.2,53.6l-14.9,3.3l103.4-210.5v26.4L235.5,290.9z
			 M189.9,286.1v-50.3l24.7,50.3H189.9z M271.5,157.9h-83.3l-5.8-11.8h96.3L271.5,157.9z"/>
		<polygon class="st2" points="161.5,360.5 173.3,353.4 173.3,202.1 161.5,226.1 		"/>
		<polygon class="st2" points="173.3,137.4 69.9,347.9 84.8,344.5 111,290.9 173.3,163.8 173.3,163.8 		"/>
		<polygon class="st2" points="254.5,357.6 261.7,344.5 241.3,302.7 233.3,314.5 		"/>
		<polygon class="st2" points="188.2,157.9 271.5,157.9 278.7,146.1 182.4,146.1 		"/>
		<polygon class="st2" points="164.2,146.1 67.8,146.1 75,157.9 158.4,157.9 		"/>
		<polygon class="st2" points="156.7,302.7 156.7,290.9 111,290.9 119,302.7 		"/>
		<polygon class="st2" points="173.3,163.8 173.3,192.2 221.7,290.9 189.9,290.9 189.9,302.7 241.3,302.7 235.5,290.9 173.3,163.8 
					"/>
	</g>
	<g>
		<g>
			<path class="st0" d="M108.3,415.4h8.4l7.3,17.3h-7.3l-0.7-2H109l-0.7,2H101L108.3,415.4z M112.5,420.6L112.5,420.6l-2.1,5.8h4.1
				L112.5,420.6z"/>
			<path class="st0" d="M125.4,415.4h14.4c2,0,3.1,0.2,4.1,0.6c1.3,0.6,2.3,2.3,2.3,4.2c0,1.6-0.7,3.4-2.7,3.9v0
				c1,0.3,1.8,1.2,2,2.7l0.3,3.8c0.1,0.8,0.4,1.5,0.8,2h-7.4c-0.2-0.5-0.2-1.3-0.4-3.3c-0.1-1.3-0.5-2.1-1.8-2.1h-4.8v5.3h-6.8
				V415.4z M132.2,423h4.8c1.3,0,1.9-0.5,1.9-1.6c0-1.3-0.8-1.6-2-1.6h-4.7V423z"/>
			<path class="st0" d="M148.6,415.4h14.4c2,0,3.1,0.2,4.1,0.6c1.3,0.6,2.3,2.3,2.3,4.2c0,1.6-0.7,3.4-2.7,3.9v0
				c1,0.3,1.8,1.2,2,2.7l0.3,3.8c0.1,0.8,0.4,1.5,0.8,2h-7.4c-0.2-0.5-0.2-1.3-0.4-3.3c-0.1-1.3-0.5-2.1-1.8-2.1h-4.8v5.3h-6.8
				V415.4z M155.4,423h4.8c1.3,0,1.9-0.5,1.9-1.6c0-1.3-0.8-1.6-2-1.6h-4.7V423z"/>
			<path class="st0" d="M182.7,414.8c4.1,0,11.8,0.3,11.8,9.2s-7.7,9.2-11.8,9.2s-11.8-0.3-11.8-9.2S178.5,414.8,182.7,414.8z
				 M182.7,428.9c2.8,0,4.5-1.4,4.5-4.9s-1.8-4.9-4.5-4.9c-2.8,0-4.5,1.4-4.5,4.9S179.9,428.9,182.7,428.9z"/>
			<path class="st0" d="M194.7,415.4h6.6l2.2,10.5h0l2.5-10.5h5.4l2.5,10.5h0.1l2.2-10.5h6.6l-5.1,17.3h-6.7l-2.3-9.6h0l-2.4,9.6
				h-6.7L194.7,415.4z"/>
			<path class="st0" d="M228.4,425.3c-3.3-0.5-4.7-2.4-4.7-4.9c0-4.5,4.4-5.7,10-5.7c7.7,0,10.9,2,11.1,5.7h-7.9
				c0-0.7-0.4-1.1-1-1.4c-0.6-0.3-1.4-0.4-2.1-0.4c-2,0-2.7,0.5-2.7,1.2c0,0.5,0.2,0.8,0.9,0.9l8.1,1.2c3.4,0.5,5.6,2.1,5.6,5
				c0,4.2-3.4,6.2-11.1,6.2c-5.2,0-11-0.7-11-5.8h8.2c0,0.6,0.2,1,0.7,1.2c0.5,0.2,1.3,0.4,2.3,0.4c2.1,0,2.7-0.6,2.7-1.4
				c0-0.5-0.3-1-1.2-1.2L228.4,425.3z"/>
		</g>
		<g>
			<path class="st0" d="M129.4,437.7h14.4c2,0,3.1,0.2,4.1,0.6c1.3,0.6,2.3,2.3,2.3,4.2c0,1.6-0.7,3.4-2.7,3.9v0.1
				c1,0.3,1.8,1.2,2,2.7l0.3,3.8c0.1,0.8,0.4,1.5,0.8,2h-7.4c-0.2-0.5-0.2-1.3-0.4-3.3c-0.1-1.3-0.5-2.1-1.8-2.1h-4.8v5.3h-6.8
				V437.7z M136.2,445.3h4.8c1.3,0,1.9-0.5,1.9-1.6c0-1.3-0.8-1.6-2-1.6h-4.7V445.3z"/>
			<path class="st0" d="M152.2,449.5h6.3v5.4h-6.3V449.5z"/>
			<path class="st0" d="M162,437.7h17.5v4.2h-10.7v2.6h9.8v4.2h-9.8v6.2H162V437.7z"/>
			<path class="st0" d="M179.1,449.5h6.3v5.4h-6.3V449.5z"/>
			<path class="st0" d="M210.6,448.2c-0.4,2.3-1.2,4.1-2.9,5.4c-1.7,1.3-4.3,2-8.4,2c-4.1,0-11.8-0.3-11.8-9.2s7.7-9.2,11.8-9.2
				c4.1,0,10.4,0.5,11.3,7.4h-7.7c-0.2-1.2-1-3-3.6-3c-2.8,0-4.5,1.4-4.5,4.9c0,3.5,1.7,4.9,4.2,4.9c2.2,0,3.4-0.9,4-3H210.6z"/>
			<path class="st0" d="M212.1,449.5h6.3v5.4h-6.3V449.5z"/>
		</g>
	</g>
</g>
</svg>
