<svg xmlns="http://www.w3.org/2000/svg" xmlns:xlink="http://www.w3.org/1999/xlink" width="28" height="28" viewBox="0 0 28 28">
    <defs>
        <path id="prefix__a" d="M0.003 0.026L23.461 0.026 23.461 23.432 0.003 23.432z"/>
    </defs>
    <g fill="none" fill-rule="evenodd">
        <mask id="prefix__b" fill="#fff">
            <use xlink:href="#prefix__a"/>
        </mask>
        <path fill="#2E81B7" d="M11.73 22.261c-5.82 0-10.557-4.724-10.557-10.532S5.91 1.197 11.731 1.197c5.82 0 10.557 4.724 10.557 10.532s-4.736 10.532-10.557 10.532zm0-22.235C5.263.026 0 5.276 0 11.73c0 6.453 5.262 11.703 11.73 11.703 6.469 0 11.731-5.25 11.731-11.703C23.461 5.276 18.2.026 11.731.026z" mask="url(#prefix__b)"/>
        <path fill="#2E81B7" d="M21.677 21.54L22.348 20.774 28 27.234 27.33 28 21.677 21.54"/>
    </g>
</svg>
