<svg xmlns="http://www.w3.org/2000/svg" width="50" height="40" viewBox="0 0 50 40">
    <path fill="#2E81B7" fill-rule="nonzero" d="M49.157 4.76a20.138 20.138 0 0 1-5.79 1.588A10.126 10.126 0 0 0 47.798.773 20.33 20.33 0 0 1 41.39 3.22a10.055 10.055 0 0 0-7.36-3.186c-5.569 0-10.084 4.516-10.084 10.082 0 .79.09 1.56.261 2.297-8.38-.42-15.81-4.435-20.783-10.536a10.007 10.007 0 0 0-1.364 5.069c0 3.498 1.782 6.586 4.485 8.392a10.085 10.085 0 0 1-4.568-1.266v.126c0 4.884 3.477 8.96 8.088 9.888-.845.227-1.735.353-2.657.353-.651 0-1.28-.064-1.898-.187 1.284 4.008 5.007 6.923 9.418 7.003a20.232 20.232 0 0 1-12.524 4.31c-.814 0-1.616-.05-2.405-.138a28.504 28.504 0 0 0 15.457 4.537c18.55 0 28.69-15.365 28.69-28.69l-.034-1.306a20.137 20.137 0 0 0 5.044-5.21z"/>
</svg>
