<?xml version="1.0" encoding="utf-8"?>
<!-- Generator: Adobe Illustrator 23.0.1, SVG Export Plug-In . SVG Version: 6.00 Build 0)  -->
<svg version="1.1" id="Layer_1" xmlns="http://www.w3.org/2000/svg" xmlns:xlink="http://www.w3.org/1999/xlink" x="0px" y="0px"
	 viewBox="0 0 317 159" style="enable-background:new 0 0 317 159;" xml:space="preserve">
<style type="text/css">
	.st0{stroke:#000000;stroke-width:0.8187;stroke-miterlimit:10;}
</style>
<g>
	<g>
		<g>
			<path class="st0" d="M50.8,87.1l3.5-0.9c3.9-1,5.4-2.1,9.2-11.5l27-73.1h13.4l28,73.6c3.4,9,5.2,10.2,8.9,11.3l3.1,0.7v5.2h-42.8
				v-5.2l3.7-0.9c3.5-0.9,4.8-2,4.8-4.5c0-2.2-0.9-4.7-2.4-8.5l-3-8.3H75.8l-2.9,8.3c-1.2,3.7-2.1,5.8-2.1,8c0,3.1,1.7,3.9,5.8,5
				l3.8,0.9v5.2H50.8V87.1z M78.3,57.8h23.4L90.2,25.4h-0.7L78.3,57.8z"/>
			<path class="st0" d="M123.2,104.5c0-5.6,3.4-9,9.6-9c6.9,0,9.7,3.1,11.4,12.7c0.5,2.8,1.2,3.5,2.9,3.5c4.1,0,5.6-2.1,5.6-10V17.2
				c0-8-1.2-8.4-5.2-9.4l-5-1V1.6h43.8v5.1l-4.7,1c-4.2,1-5.4,1.4-5.4,9.4v68.4c0,19-11.7,32.4-32.7,32.4
				C129.8,117.9,123.2,111.9,123.2,104.5z"/>
			<path class="st0" d="M187,47.7C187,13.8,210,0,236,0c10.3,0,19.6,1.4,25.4,3l1.4,27.1h-5.5c-4.1-8.3-6.9-14.1-10.5-18.5
				c-3.8-4.5-5.8-5-12.6-5c-16.2,0-22.5,9.7-22.5,38.4c0,33.9,7.2,42.2,22.4,42.2c8.4,0,11.4-2.5,15.2-7.7c3.4-5.1,5.9-9,9-17h5.4
				l-1.4,26.1c-6.4,2.6-16.5,5.4-28.2,5.4C206.4,93.9,187,78.9,187,47.7z"/>
		</g>
		<g>
			<path d="M0,155.3l0.9-0.2c1-0.3,1.3-0.5,2.3-2.9l6.7-18.1h3.3l6.9,18.2c0.8,2.2,1.3,2.5,2.2,2.8l0.8,0.2v1.3H12.5v-1.3l0.9-0.2
				c0.9-0.2,1.2-0.5,1.2-1.1c0-0.6-0.2-1.2-0.6-2.1l-0.7-2h-7l-0.7,2c-0.3,0.9-0.5,1.4-0.5,2c0,0.8,0.4,1,1.4,1.2l0.9,0.2v1.3H0
				V155.3z M6.8,148.1h5.8l-2.9-8H9.6L6.8,148.1z"/>
			<path d="M24.6,152.6v-10.5h-2.1v-1.2c2.6-0.9,4.1-2.8,5-5.5h2.2v4.4h4.5l-0.6,2.3h-4v10.1c0,1.6,0.6,2.2,2.2,2.2
				c0.8,0,1.8-0.2,2.4-0.4v1.3c-0.7,0.8-2.4,1.7-5.2,1.7C26.3,157,24.6,155.8,24.6,152.6z"/>
			<path d="M35.5,155.4l0.9-0.2c1.2-0.3,1.3-0.5,1.3-1.8v-17c0-1.5-0.1-1.7-1.1-2.1l-1.2-0.6v-1.1l7.3-0.6l0.5,0.3
				c0,0.3-0.1,0.6-0.1,1c-0.1,0.6-0.1,1.6-0.1,2.7v17.5c0,1.4,0.1,1.6,1.2,1.8l0.9,0.2v1.3h-9.5V155.4z"/>
			<path d="M46.4,152.7c0-2.8,1.7-4.4,6.8-5.6l2.6-0.6v-2.4c0-2.6-0.5-3.2-2.5-3.2c-1,0-1.2,0.3-1.3,1.2c-0.2,2.1-0.9,2.9-2.7,2.9
				c-1.5,0-2.2-0.7-2.2-2c0-2.2,2.8-3.6,7.3-3.6c4.2,0,6.5,1.3,6.5,4.4v8.7c0,1.2,0.1,1.6,0.8,2c0.4,0.2,1,0.3,1.6,0.3v1.2
				c-0.6,0.5-1.9,1.1-3.8,1.1c-1.9,0-3.1-0.7-3.4-2h-0.2c-0.8,1-2.3,2-4.5,2C48.3,157,46.4,155.4,46.4,152.7z M55.8,153.5v-5.1
				l-1.6,0.2c-2,0.1-2.9,1-2.9,3.3c0,2.1,1,2.6,2.3,2.6C54.8,154.5,55.5,154.1,55.8,153.5z"/>
			<path d="M64.4,155.4l0.9-0.2c1.1-0.3,1.2-0.5,1.2-1.8v-9.3c0-1.4-0.2-1.5-1.1-2.1l-1.1-0.7v-1l6.8-0.7l0.5,0.3l-0.2,2h0.2
				c1.8-1.2,4-2.3,6.5-2.3c3,0,4.4,1.4,4.4,4.3v9.6c0,1.4,0.2,1.6,1.2,1.8l0.9,0.2v1.3h-9.2v-1.3l0.9-0.2c1-0.3,1-0.4,1-1.9v-8.1
				c0-2-0.7-2.7-2.4-2.7c-1.3,0-2.5,0.4-3.2,0.6v10.3c0,1.6,0.1,1.6,1,1.9l0.9,0.2v1.3h-9.2V155.4z"/>
			<path d="M87.5,152.6v-10.5h-2.1v-1.2c2.6-0.9,4.1-2.8,5-5.5h2.2v4.4h4.5l-0.6,2.3h-4v10.1c0,1.6,0.6,2.2,2.2,2.2
				c0.8,0,1.8-0.2,2.4-0.4v1.3c-0.7,0.8-2.4,1.7-5.2,1.7C89.2,157,87.5,155.8,87.5,152.6z"/>
			<path d="M98.7,152.7c0-2.8,1.7-4.4,6.8-5.6l2.6-0.6v-2.4c0-2.6-0.5-3.2-2.5-3.2c-1,0-1.2,0.3-1.3,1.2c-0.2,2.1-0.9,2.9-2.7,2.9
				c-1.5,0-2.2-0.7-2.2-2c0-2.2,2.8-3.6,7.3-3.6c4.2,0,6.5,1.3,6.5,4.4v8.7c0,1.2,0.1,1.6,0.8,2c0.4,0.2,1,0.3,1.6,0.3v1.2
				c-0.6,0.5-1.9,1.1-3.8,1.1c-1.9,0-3.1-0.7-3.4-2h-0.2c-0.8,1-2.3,2-4.5,2C100.6,157,98.7,155.4,98.7,152.7z M108.2,153.5v-5.1
				l-1.6,0.2c-2,0.1-2.9,1-2.9,3.3c0,2.1,1,2.6,2.3,2.6C107.1,154.5,107.8,154.1,108.2,153.5z"/>
			<path d="M117.9,153.8c0-1.8,1.4-3.1,3.2-3.1c1.8,0,3.2,1.4,3.2,3.1c0,1.7-1.4,3.1-3.2,3.1C119.3,156.9,117.9,155.5,117.9,153.8z"
				/>
			<path d="M140.4,138h-0.1v14.3c0,2.4,0.2,2.6,1.6,2.8l1.2,0.2v1.3h-7.3v-1.3l1-0.2c1.1-0.3,1.4-0.4,1.4-2.7V138
				c0-2-0.3-2.1-1.3-2.3l-1.1-0.3v-1.3h8.9l8.8,13.2h0.1v-8.9c0-2.3-0.2-2.5-1.6-2.8l-1.3-0.3v-1.3h7.4v1.3l-1,0.2
				c-1.1,0.3-1.5,0.4-1.5,2.7v18.4H153L140.4,138z"/>
			<path d="M159.7,148.1c0-5.6,4.3-8.8,8.6-8.8c4.6,0,7.4,2.3,7.5,8.5h-11.1c0.3,4.8,2.2,6.3,5.6,6.3c2.2,0,3.7-0.6,5-1.2v1.5
				c-1.1,1.2-3.7,2.7-7,2.7C162.5,157,159.7,153.7,159.7,148.1z M164.8,146.2l5.9-0.3c0-3.9-0.5-4.9-2.6-4.9
				C166.3,141,164.9,142.4,164.8,146.2z"/>
			<path d="M178.9,143.8c-0.7-1.9-1.1-2.3-2-2.5l-0.6-0.2v-1.3h9.1v1.3l-0.7,0.2c-0.6,0.1-0.9,0.5-0.9,1c0,0.5,0.3,1.1,0.6,2
				l2.4,7.2h0.2l2.6-7.1l-0.2-0.6c-0.6-1.8-1-2.3-1.8-2.5l-0.6-0.2v-1.3h9v1.3l-0.9,0.2c-0.6,0.2-0.9,0.6-0.9,1.2
				c0,0.5,0.1,1,0.4,1.8l2.5,7.2h0.2l2.3-7.2c0.3-0.8,0.4-1.4,0.4-1.8c0-0.6-0.3-1-1-1.2l-0.9-0.2v-1.3h6.5v1.3l-0.6,0.2
				c-0.9,0.3-1.3,0.8-2,2.9l-4.6,12.5h-3.1l-3.4-9.8h-0.1l-3.6,9.8h-3.1L178.9,143.8z"/>
			<path d="M205.4,156.4l-0.3-5h1.3c0.6,1.2,1,1.9,1.9,2.8c0.6,0.6,1.5,1.1,3,1.1c1.8,0,2.8-0.7,2.8-2.1c0-1.5-1.2-2.1-4.1-3.2
				c-3-1.1-4.8-2.6-4.8-5.3c0-3.1,2.5-5.5,7-5.5c1.9,0,3.6,0.2,4.6,0.6l0.2,4.4h-1.2c-0.7-1.1-1.2-1.8-1.9-2.5
				c-0.5-0.5-0.9-0.8-2.2-0.8c-1.7,0-2.7,0.7-2.7,2.1c0,1.1,0.9,1.8,3.6,2.7c3.9,1.4,5.5,2.9,5.5,5.4c0,3.4-2.7,5.8-7.5,5.8
				C208.7,157,206.7,156.8,205.4,156.4z"/>
			<path d="M220.8,153.8c0-1.8,1.4-3.1,3.2-3.1c1.8,0,3.2,1.4,3.2,3.1c0,1.7-1.4,3.1-3.2,3.1C222.2,156.9,220.8,155.5,220.8,153.8z"
				/>
			<path d="M243.4,138h-0.1v14.3c0,2.4,0.2,2.6,1.6,2.8l1.2,0.2v1.3h-7.3v-1.3l1-0.2c1.1-0.3,1.4-0.4,1.4-2.7V138
				c0-2-0.3-2.1-1.3-2.3l-1.1-0.3v-1.3h8.9l8.8,13.2h0.1v-8.9c0-2.3-0.2-2.5-1.6-2.8l-1.3-0.3v-1.3h7.4v1.3l-1,0.2
				c-1.1,0.3-1.5,0.4-1.5,2.7v18.4h-2.7L243.4,138z"/>
			<path d="M262.6,148.2c0-6.2,4.4-8.9,9-8.9c4.8,0,9,2.8,9,8.8c0,6.2-4.4,8.9-9,8.9C266.8,157,262.6,154.2,262.6,148.2z
				 M275.2,148.2c0-6.1-1.3-7.2-3.7-7.2c-2.2,0-3.4,1.3-3.4,6.9c0,6.1,1.2,7.5,3.7,7.5C273.8,155.4,275.2,154.1,275.2,148.2z"/>
			<path d="M283.7,143.8c-0.7-1.9-1.1-2.3-2-2.5l-0.6-0.2v-1.3h9.1v1.3l-0.7,0.2c-0.6,0.1-0.9,0.5-0.9,1c0,0.5,0.3,1.1,0.6,2
				l2.4,7.2h0.2l2.6-7.1l-0.2-0.6c-0.6-1.8-1-2.3-1.8-2.5l-0.6-0.2v-1.3h9v1.3l-0.9,0.2c-0.6,0.2-0.9,0.6-0.9,1.2
				c0,0.5,0.1,1,0.4,1.8l2.5,7.2h0.2l2.3-7.2c0.3-0.8,0.4-1.4,0.4-1.8c0-0.6-0.3-1-1-1.2l-0.9-0.2v-1.3h6.5v1.3l-0.6,0.2
				c-0.9,0.3-1.3,0.8-2,2.9l-4.6,12.5h-3.1l-3.4-9.8h-0.1l-3.6,9.8h-3.1L283.7,143.8z"/>
			<path d="M308.2,153.8c0-1.8,1.4-3.1,3.2-3.1c1.8,0,3.2,1.4,3.2,3.1c0,1.7-1.4,3.1-3.2,3.1C309.6,156.9,308.2,155.5,308.2,153.8z"
				/>
		</g>
	</g>
</g>
</svg>
