<?xml version="1.0" encoding="utf-8"?>
<!-- Generator: Adobe Illustrator 23.0.1, SVG Export Plug-In . SVG Version: 6.00 Build 0)  -->
<svg version="1.1" id="Layer_1" xmlns="http://www.w3.org/2000/svg" xmlns:xlink="http://www.w3.org/1999/xlink" x="0px" y="0px"
	 viewBox="0 0 75 42" style="enable-background:new 0 0 75 42;" xml:space="preserve">
<style type="text/css">
	.st0{stroke:#000000;stroke-width:0.2844;stroke-miterlimit:10;}
</style>
<g>
	<path class="st0" d="M0.5,30.8l1.2-0.3c1.4-0.4,1.9-0.7,3.2-4l9.4-25.4h4.6l9.7,25.6c1.2,3.1,1.8,3.5,3.1,3.9l1.1,0.2v1.8H18v-1.8
		l1.3-0.3c1.2-0.3,1.7-0.7,1.7-1.5c0-0.8-0.3-1.6-0.8-3l-1-2.9H9.2l-1,2.9c-0.4,1.3-0.7,2-0.7,2.8c0,1.1,0.6,1.4,2,1.7l1.3,0.3v1.8
		H0.5V30.8z M10.1,20.6h8.1l-4-11.2H14L10.1,20.6z"/>
	<path class="st0" d="M25.7,36.8c0-2,1.2-3.1,3.3-3.1c2.4,0,3.4,1.1,4,4.4c0.2,1,0.4,1.2,1,1.2c1.4,0,2-0.7,2-3.5V6.5
		c0-2.8-0.4-2.9-1.8-3.3l-1.7-0.4V1.1h15.2v1.8l-1.6,0.4c-1.5,0.4-1.9,0.5-1.9,3.3v23.8c0,6.6-4.1,11.2-11.4,11.2
		C27.9,41.5,25.7,39.4,25.7,36.8z"/>
	<path class="st0" d="M47.8,17.1c0-11.8,8-16.6,17-16.6c3.6,0,6.8,0.5,8.8,1l0.5,9.4h-1.9c-1.4-2.9-2.4-4.9-3.6-6.4
		c-1.3-1.5-2-1.7-4.4-1.7c-5.6,0-7.8,3.4-7.8,13.3c0,11.8,2.5,14.7,7.8,14.7c2.9,0,4-0.9,5.3-2.7c1.2-1.8,2-3.1,3.1-5.9h1.9L74,31.3
		c-2.2,0.9-5.7,1.9-9.8,1.9C54.6,33.2,47.8,27.9,47.8,17.1z"/>
</g>
</svg>
