<?xml version="1.0" encoding="UTF-8"?>
<svg width="598px" height="337px" viewBox="0 0 598 337" version="1.1" xmlns="http://www.w3.org/2000/svg" xmlns:xlink="http://www.w3.org/1999/xlink">
    <!-- Generator: sketchtool 55.2 (78181) - https://sketchapp.com -->
    <title>19E37150-63F1-4DE7-BD61-F3E73382C79B</title>
    <desc>Created with sketchtool.</desc>
    <defs>
        <path d="M7.6916556,-3.10752092e-16 L590.308344,3.10752092e-16 C592.982901,-1.80555915e-16 593.952759,0.278476833 594.930537,0.801398111 C595.908315,1.32431939 596.675681,2.09168511 597.198602,3.06946289 C597.721523,4.04724067 598,5.01709938 598,7.6916556 L598,328.879465 C598,331.554021 597.721523,332.52388 597.198602,333.501658 C596.675681,334.479436 595.908315,335.246801 594.930537,335.769723 C593.952759,336.292644 592.982901,336.571121 590.308344,336.571121 L7.6916556,336.571121 C5.01709938,336.571121 4.04724067,336.292644 3.06946289,335.769723 C2.09168511,335.246801 1.32431939,334.479436 0.801398111,333.501658 C0.278476833,332.52388 1.2037061e-16,331.554021 -2.07168062e-16,328.879465 L2.07168062e-16,7.6916556 C-1.2037061e-16,5.01709938 0.278476833,4.04724067 0.801398111,3.06946289 C1.32431939,2.09168511 2.09168511,1.32431939 3.06946289,0.801398111 C4.04724067,0.278476833 5.01709938,1.80555915e-16 7.6916556,-3.10752092e-16 Z" id="path-1"></path>
        <polygon id="path-3" points="0 0 159 0 159 87 0 87"></polygon>
    </defs>
    <g id="Components" stroke="none" stroke-width="1" fill="none" fill-rule="evenodd">
        <g id="AJC-Placeholder-Image" transform="translate(-30.000000, -226.000000)">
            <g id="Bitmap" transform="translate(30.000000, 226.000000)">
                <mask id="mask-2" fill="white">
                    <use xlink:href="#path-1"></use>
                </mask>
                <use id="Mask" fill="#DEDEDE" fill-rule="nonzero" xlink:href="#path-1"></use>
                <g id="Logo" opacity="0.595540365" mask="url(#mask-2)">
                    <g transform="translate(220.000000, 125.000000)" id="AJC">
                        <g>
                            <mask id="mask-4" fill="white">
                                <use xlink:href="#path-3"></use>
                            </mask>
                            <g id="Clip-2"></g>
                            <path d="M18.7288057,43.3443774 L33.7661383,43.3443774 L26.4937119,21.6925285 L26.0121626,21.6925285 L18.7288057,43.3443774 Z M0,64.8075076 L2.13448388,64.1270313 C5.23753157,63.167106 6.11197163,62.1061678 8.92414655,54.4612433 L28.4326613,1 L40.4671425,1 L60.4675297,54.3717229 C63.1789011,61.61562 64.249483,63.4459501 67.2577996,64.3169598 L69,64.8075076 L69,68 L32.5164178,68 L32.5164178,64.8075076 L35.2223239,64.1270313 C37.7490913,63.4459501 38.8196731,62.1061678 38.8196731,59.9746136 C38.8196731,58.1327911 37.9513056,55.5215766 36.8758658,52.5305052 L35.4190729,48.1772714 L17.0819436,48.1772714 L15.6251507,52.6194208 C14.6505144,55.4326611 13.9782886,57.8430594 13.9782886,59.583869 C13.9782886,62.4860248 15.1436014,63.167106 18.5326639,64.1270313 L20.9586278,64.8075076 L20.9586278,68 L0,68 L0,64.8075076 L0,64.8075076 Z" id="Fill-1" fill="#FFFFFF" mask="url(#mask-4)"></path>
                            <path d="M53,77.037556 C53,72.3913613 56.0095326,69.7886206 60.5871389,69.7886206 C66.0346121,69.7886206 68.5614264,72.0112401 69.8251379,80.4320141 C70.122804,82.3538052 70.5166486,82.7442163 71.2909458,82.7442163 C73.3295633,82.7442163 74.4021354,81.2031517 74.4021354,76.1659406 L74.4021354,12.6148817 C74.4021354,6.03660588 73.425133,5.64619478 70.122804,4.86416199 L67.3993718,4.19410759 L67.3993718,1 L103,1 L103,4.19410759 L100.281438,4.86416199 C96.8725818,5.74667267 96.0021062,6.03660588 96.0021062,12.6148817 L96.0021062,61.5566965 C96.0021062,76.5569569 85.39813,87 68.758653,87 C58.149807,87 53,82.6437384 53,77.037556" id="Fill-3" fill="#FFFFFF" mask="url(#mask-4)"></path>
                            <path d="M102,35.0332149 C102,10.6889874 119.591283,0 138.963775,0 C146.630477,0 153.706723,1.06642987 157.837455,2.21053872 L159.114316,22.6112037 L155.669989,22.6112037 C152.03807,15.9777811 149.382248,12.0330142 146.925705,8.95536143 C144.07614,5.39959158 141.716161,4.3331617 137.874507,4.3331617 C127.756182,4.3331617 125.004411,12.6996082 125.004411,33.1111121 C125.004411,58.8999276 129.124072,64.6776772 138.663012,64.6776772 C142.793743,64.6776772 145.353616,63.2330893 148.587593,59.0998455 C151.153001,55.7223158 153.706723,51.2994319 156.657158,44.9448105 L160,44.9448105 L158.808017,65.2557533 C154.103436,66.9779382 147.016119,69 137.386151,69 C116.645769,69 102,57.0777837 102,35.0332149" id="Fill-4" fill="#FFFFFF" mask="url(#mask-4)"></path>
                        </g>
                    </g>
                </g>
            </g>
        </g>
    </g>
</svg>