<?xml version="1.0" standalone="no"?>
<!DOCTYPE svg PUBLIC "-//W3C//DTD SVG 1.1//EN" "http://www.w3.org/Graphics/SVG/1.1/DTD/svg11.dtd" >
<svg xmlns="http://www.w3.org/2000/svg">
<metadata>
<json>
<![CDATA[
{
	"fontFamily": "icons",
	"majorVersion": 1,
	"minorVersion": 0,
	"description": "Font generated by IcoMoon.",
	"version": "Version 1.0",
	"fontId": "icons",
	"psName": "icons",
	"subFamily": "Regular",
	"fullName": "icons"
}
]]>
</json>
</metadata>
<defs>
<font id="icons" horiz-adv-x="1024">
<font-face units-per-em="1024" ascent="960" descent="-64" />
<missing-glyph horiz-adv-x="1024" />
<glyph unicode="&#x20;" horiz-adv-x="512" d="" />
<glyph unicode="&#xe600;" glyph-name="play" data-tags="play" d="M240.64 81.92v732.16l542.72-366.080-542.72-366.080zM317.44 670.72v-442.88l327.68 220.16-327.68 222.72z" />
<glyph unicode="&#xe601;" glyph-name="caret_down" data-tags="caret_down" d="M512 253.44l320 322.56-66.56 66.56-253.44-261.12-253.44 261.12-66.56-66.56z" />
<glyph unicode="&#xe602;" glyph-name="caret_left" data-tags="caret_left" d="M317.44 448l322.56-320 66.56 66.56-261.12 253.44 261.12 253.44-66.56 66.56z" />
<glyph unicode="&#xe603;" glyph-name="caret_right" data-tags="caret_right" d="M706.56 448l-322.56 320-66.56-66.56 261.12-253.44-261.12-253.44 66.56-66.56z" />
<glyph unicode="&#xe604;" glyph-name="article" data-tags="article" d="M353.28 350.72h271.36v-48.64h-271.36v48.64zM353.28 473.6h271.36v-51.2h-271.36v51.2zM353.28 596.48h222.72v-48.64h-222.72v48.64zM814.080 128h-609.28v640h427.52l186.88-202.24v-437.76h-5.12zM253.44 176.64h517.12v368.64l-158.72 171.52h-358.4v-540.16z" />
<glyph unicode="&#xe605;" glyph-name="close" data-tags="close" d="M826.88 686.080l-81.92 81.92-238.080-238.080-227.84 227.84-81.92-81.92 227.84-227.84-227.84-227.84 81.92-81.92 227.84 227.84 238.080-238.080 81.92 81.92-238.080 238.080z" />
<glyph unicode="&#xe606;" glyph-name="comments" data-tags="comments" d="M209.92 768h604.16v-448h-304.64l-199.68-192v192h-99.84c0 0 0 448 0 448z" />
<glyph unicode="&#xe607;" glyph-name="email" data-tags="email" d="M506.88 453.12l-404.48 304.64c7.68 10.24 17.92 10.24 25.6 10.24h747.52c10.24 0 17.92 0 28.16-10.24l-396.8-304.64zM506.88 345.6l432.64 343.040v-504.32c0-28.16-28.16-53.76-53.76-53.76h-747.52c-28.16 0-53.76 28.16-53.76 53.76v501.76l422.4-340.48z" />
<glyph unicode="&#xe608;" glyph-name="facebook" data-tags="facebook" d="M358.4 555.52h66.56v64c0 28.16 0 71.68 20.48 99.84s51.2 48.64 102.4 48.64c84.48 0 117.76-12.8 117.76-12.8l-15.36-97.28c0 0-28.16 7.68-53.76 7.68s-48.64-10.24-48.64-35.84v-74.24h104.96l-7.68-94.72h-97.28v-332.8h-122.88v332.8h-66.56v94.72z" />
<glyph unicode="&#xe609;" glyph-name="gallery" data-tags="gallery" d="M686.080 622.080v145.92h-494.080v-494.080h145.92v-145.92h494.080v494.080h-145.92zM337.92 332.8h-87.040v376.32h378.88v-87.040h-291.84v-289.28zM773.12 186.88h-376.32v378.88h378.88v-378.88z" />
<glyph unicode="&#xe60a;" glyph-name="google_plus" data-tags="google_plus" d="M407.040 158.72c-76.8 0-130.56 48.64-130.56 104.96s69.12 104.96 143.36 102.4c17.92 0 33.28-2.56 48.64-7.68 40.96-28.16 71.68-46.080 79.36-76.8 2.56-7.68 2.56-12.8 2.56-20.48 0-56.32-38.4-102.4-143.36-102.4zM424.96 499.2c-51.2 2.56-99.84 56.32-107.52 125.44-7.68 66.56 25.6 117.76 76.8 117.76 51.2-2.56 99.84-56.32 107.52-122.88 10.24-69.12-25.6-122.88-76.8-120.32zM532.48 399.36c-17.92 12.8-51.2 43.52-51.2 61.44 0 20.48 5.12 30.72 38.4 56.32s56.32 61.44 56.32 102.4c0 48.64-23.040 97.28-64 115.2h64l43.52 33.28h-197.12c-89.6 0-171.52-66.56-171.52-145.92s61.44-143.36 151.040-143.36c5.12 0 12.8 0 17.92 0-5.12-10.24-10.24-23.040-10.24-35.84 0-23.040 12.8-40.96 28.16-53.76-10.24 0-23.040 0-33.28 0-115.2-2.56-199.68-71.68-199.68-145.92 0-71.68 92.16-115.2 202.24-115.2 125.44 0 194.56 71.68 194.56 143.36 0 56.32-17.92 92.16-69.12 128zM819.2 494.080h-76.8v76.8h-61.44v-76.8h-76.8v-61.44h76.8v-76.8h61.44v76.8h76.8v61.44z" />
<glyph unicode="&#xe60b;" glyph-name="instagram" data-tags="instagram" d="M832 168.96c0-23.040-17.92-40.96-40.96-40.96h-560.64c-23.040 0-40.96 17.92-40.96 40.96v558.080c0 23.040 17.92 40.96 40.96 40.96h560.64c23.040 0 40.96-17.92 40.96-40.96v-558.080zM512 527.36c-74.24 0-79.36-79.36-79.36-79.36s-2.56-79.36 79.36-79.36 79.36 79.36 79.36 79.36-5.12 79.36-79.36 79.36zM752.64 688.64h-120.32v-120.32h120.32v120.32zM752.64 488.96h-87.040c2.56-12.8 5.12-25.6 5.12-40.96v0 0 0c0-87.040-71.68-158.72-158.72-158.72s-161.28 71.68-161.28 158.72c0 12.8 2.56 28.16 5.12 40.96h-87.040v-279.040h481.28v279.040z" />
<glyph unicode="&#xe60c;" glyph-name="menu" data-tags="menu" d="M140.8 227.84h739.84v-99.84h-739.84v99.84zM140.8 499.2h739.84v-102.4h-739.84v102.4zM140.8 768h739.84v-99.84h-739.84v99.84z" />
<glyph unicode="&#xe60d;" glyph-name="pinterest" data-tags="pinterest" d="M363.52 133.12c0-7.68 7.68-7.68 7.68 0 7.68 7.68 48.64 64 71.68 120.32 7.68 15.36 28.16 99.84 28.16 99.84 15.36-20.48 48.64-43.52 92.16-43.52 120.32 0 204.8 104.96 204.8 245.76 0 104.96-92.16 212.48-240.64 212.48-176.64 0-268.8-128-268.8-225.28 0-64 20.48-120.32 76.8-140.8 7.68 0 15.36 0 20.48 7.68 0 7.68 7.68 20.48 7.68 28.16s0 15.36-7.68 20.48c-15.36 15.36-28.16 43.52-28.16 71.68 0 92.16 71.68 176.64 184.32 176.64 99.84 0 156.16-56.32 156.16-140.8 0-104.96-48.64-189.44-120.32-189.44-43.52 0-71.68 28.16-56.32 71.68 15.36 48.64 35.84 99.84 35.84 128s-15.36 51.2-51.2 51.2c-43.52 0-71.68-43.52-71.68-92.16 0-35.84 15.36-56.32 15.36-56.32s-43.52-168.96-48.64-197.12c-15.36-71.68-7.68-140.8-7.68-148.48z" />
<glyph unicode="&#xe60e;" glyph-name="search" data-tags="search" d="M811.52 181.76l-168.96 181.76c35.84 40.96 56.32 92.16 58.88 148.48 2.56 64-20.48 128-64 176.64s-104.96 76.8-168.96 79.36c-66.56 2.56-128-20.48-176.64-64s-76.8-104.96-79.36-168.96c-2.56-64 20.48-128 64-176.64s104.96-76.8 168.96-79.36c5.12 0 7.68 0 12.8 0 43.52 0 87.040 12.8 122.88 33.28l171.52-184.32 58.88 53.76zM450.56 358.4c-43.52 2.56-84.48 20.48-115.2 53.76s-46.080 74.24-43.52 120.32c2.56 43.52 20.48 84.48 53.76 115.2 30.72 28.16 69.12 43.52 110.080 43.52 2.56 0 5.12 0 7.68 0 43.52-2.56 84.48-20.48 115.2-53.76s46.080-74.24 43.52-120.32c-2.56-43.52-20.48-84.48-53.76-115.2-30.72-30.72-74.24-46.080-117.76-43.52z" />
<glyph unicode="&#xe60f;" glyph-name="share" data-tags="share" d="M688.64 593.92l-174.080 174.080-174.080-174.080h128v-217.6c0-25.6 20.48-46.080 46.080-46.080s46.080 20.48 46.080 46.080v217.6h128zM768 529.92v-309.76h-512v309.76h-89.6v-401.92h691.2v401.92z" />
<glyph unicode="&#xe610;" glyph-name="sign_in" data-tags="sign_in" d="M225.28 401.92v81.92h348.16l-145.92 138.24 64 53.76 238.080-227.84-220.16-227.84-74.24 46.080 138.24 138.24h-348.16zM803.84 128h-583.68v74.24h519.68v491.52h-519.68v74.24h583.68z" />
<glyph unicode="&#xe611;" glyph-name="clock" data-tags="clock" d="M512 128c-176.64 0-320 143.36-320 320s143.36 320 320 320 320-143.36 320-320-143.36-320-320-320zM512 696.32c-135.68 0-248.32-112.64-248.32-248.32s112.64-248.32 248.32-248.32 248.32 112.64 248.32 248.32-112.64 248.32-248.32 248.32zM640 455.68h-107.52v107.52c0 20.48-15.36 35.84-35.84 35.84s-35.84-15.36-35.84-35.84v-148.48c0-20.48 15.36-35.84 35.84-35.84h143.36c20.48 0 35.84 15.36 35.84 35.84 0 17.92-15.36 40.96-35.84 40.96z" />
<glyph unicode="&#xe612;" glyph-name="twitter" data-tags="twitter" d="M906.24 691.2c-28.16-12.8-58.88-20.48-92.16-25.6 33.28 20.48 58.88 51.2 71.68 89.6-30.72-17.92-66.56-30.72-102.4-38.4-28.16 30.72-71.68 51.2-117.76 51.2-89.6 0-161.28-71.68-161.28-161.28 0-12.8 2.56-25.6 5.12-35.84-133.12 7.68-253.44 71.68-332.8 168.96-12.8-23.040-23.040-51.2-23.040-81.92 0-56.32 28.16-104.96 71.68-135.68-25.6 0-51.2 7.68-74.24 20.48v-2.56c0-79.36 56.32-143.36 130.56-158.72-12.8-2.56-28.16-5.12-43.52-5.12-10.24 0-20.48 0-30.72 2.56 20.48-64 79.36-110.080 151.040-112.64-56.32-43.52-125.44-69.12-199.68-69.12-12.8 0-25.6 0-38.4 2.56 71.68-46.080 156.16-71.68 248.32-71.68 296.96 0 460.8 245.76 460.8 460.8 0 7.68 0 12.8 0 20.48 28.16 23.040 53.76 51.2 76.8 81.92z" />
<glyph unicode="&#xe613;" glyph-name="arrow_right" data-tags="arrow_right" d="M847.36 407.040c0 0 2.56 2.56 2.56 2.56s0 0 2.56 2.56c0 0 0 0 0 0 7.68 10.24 12.8 20.48 12.8 35.84 0 12.8-5.12 25.6-12.8 35.84 0 0 0 0 0 0s0 0-2.56 2.56c0 2.56-2.56 2.56-2.56 2.56l-261.12 261.12c-23.040 23.040-61.44 23.040-84.48 0s-23.040-61.44 0-81.92l161.28-161.28h-445.44c-33.28 0-58.88-25.6-58.88-58.88s25.6-58.88 58.88-58.88h445.44l-161.28-161.28c-23.040-23.040-23.040-61.44 0-84.48s61.44-23.040 84.48 0l261.12 263.68c0 0 0 0 0 0z" />
<glyph unicode="&#xe614;" glyph-name="caret_up" data-tags="caret_up" d="M512 642.56l-320-322.56 66.56-66.56 253.44 261.12 253.44-261.12 66.56 66.56z" />
<glyph unicode="&#xe615;" glyph-name="check_field" data-tags="check_field" d="M791.040 168.96h-558.080v558.080h558.080v-558.080zM312.32 248.32h399.36v399.36h-399.36v-399.36z" />
<glyph unicode="&#xe616;" glyph-name="checkmark" data-tags="checkmark" d="M839.68 757.76c-15.36 15.36-40.96 12.8-56.32-2.56l-327.68-373.76-84.48 107.52c-12.8 17.92-38.4 20.48-56.32 7.68s-20.48-38.4-7.68-56.32l115.2-145.92c7.68-10.24 17.92-15.36 30.72-15.36 0 0 0 0 0 0 10.24 0 23.040 5.12 30.72 12.8l360.96 409.6c12.8 17.92 12.8 40.96-5.12 56.32zM647.68 207.36h-399.36v399.36h256l69.12 79.36h-404.48v-558.080h558.080v243.2l-79.36-89.6z" />
<glyph unicode="&#xe617;" glyph-name="heart" data-tags="heart" d="M545.28 143.36c-17.92-17.92-46.080-17.92-66.56 0l-289.28 299.52c-74.24 74.24-74.24 194.56 0 268.8s194.56 74.24 266.24 0l53.76-66.56 53.76 66.56c74.24 74.24 194.56 74.24 266.24 0 74.24-74.24 74.24-194.56 0-268.8l-284.16-299.52z" />
<glyph unicode="&#xe618;" glyph-name="music_note" data-tags="music_note" d="M432.64 460.8c46.080 17.92 166.4 58.88 320 66.56v-204.8c-12.8 2.56-25.6 5.12-40.96 5.12-66.56 0-120.32-43.52-120.32-99.84s53.76-99.84 120.32-99.84c66.56 0 120.32 43.52 120.32 99.84v499.2c0 23.040-10.24 40.96-40.96 40.96v0c-240.64 0-391.68-76.8-399.36-79.36 0 0 5.12 2.56 0 0-17.92-10.24-40.96-20.48-40.96-53.76v-312.32c-12.8 2.56-25.6 5.12-40.96 5.12-66.56 0-120.32-43.52-120.32-99.84s53.76-99.84 120.32-99.84c66.56 0 120.32 43.52 120.32 99.84v232.96z" />
<glyph unicode="&#xe619;" glyph-name="plus" data-tags="plus" d="M832 512h-256v256h-128v-256h-256v-128h256v-256h128v256h256z" />
<glyph unicode="&#xe61a;" glyph-name="poll_check" data-tags="poll_check" d="M512 128c-176.64 0-320 143.36-320 320s143.36 320 320 320 320-143.36 320-320-143.36-320-320-320zM512 721.92c-151.040 0-273.92-122.88-273.92-273.92s122.88-273.92 273.92-273.92 273.92 122.88 273.92 273.92-122.88 273.92-273.92 273.92zM435.2 302.080l-102.4 148.48c-7.68 10.24-5.12 23.040 5.12 30.72s23.040 5.12 30.72-5.12l71.68-102.4 209.92 215.040c7.68 7.68 23.040 10.24 30.72 0 7.68-7.68 10.24-23.040 0-30.72l-245.76-256z" />
<glyph unicode="&#xe61b;" glyph-name="poll_circle" data-tags="poll_circle" d="M512 128c-176.64 0-320 143.36-320 320s143.36 320 320 320 320-143.36 320-320-143.36-320-320-320zM512 721.92c-151.040 0-273.92-122.88-273.92-273.92s122.88-273.92 273.92-273.92 273.92 122.88 273.92 273.92-122.88 273.92-273.92 273.92z" />
<glyph unicode="&#xe61c;" glyph-name="quote" data-tags="quote" d="M163.84 345.6l304.64 422.4-69.12-430.080v-209.92h-235.52zM555.52 345.6l304.64 422.4-71.68-430.080v-209.92h-232.96z" />
<glyph unicode="&#xe61d;" glyph-name="vine" data-tags="vine" d="M793.6 450.56c-15.36-2.56-33.28-5.12-46.080-5.12-81.92 0-143.36 56.32-143.36 153.6 0 48.64 17.92 74.24 46.080 74.24 25.6 0 40.96-23.040 40.96-69.12 0-25.6-7.68-53.76-12.8-71.68 0 0 25.6-43.52 92.16-30.72 15.36 33.28 23.040 74.24 23.040 110.080 0 97.28-51.2 156.16-140.8 156.16-94.72 0-148.48-71.68-148.48-168.96 0-94.72 43.52-176.64 117.76-212.48-30.72-61.44-69.12-115.2-110.080-156.16-74.24 89.6-140.8 207.36-168.96 440.32h-112.64c51.2-386.56 199.68-509.44 240.64-535.040 23.040-12.8 40.96-12.8 61.44 0 33.28 17.92 128 115.2 181.76 227.84 23.040 0 48.64 2.56 76.8 7.68v79.36z" />
<glyph unicode="&#xe61e;" glyph-name="wwe" data-tags="wwe" d="M481.28 281.6l-23.040-51.2c40.96 5.12 79.36 5.12 115.2 7.68l-23.040 53.76c-25.6-5.12-48.64-7.68-69.12-10.24zM688.64 299.52c-7.68-23.040-17.92-43.52-25.6-64 84.48-5.12 135.68-20.48 135.68-20.48l40.96 81.92c-56.32 2.56-104.96 2.56-151.040 2.56zM184.32 181.76c-17.92-12.8-23.040-17.92-23.040-17.92s38.4 15.36 99.84 30.72c56.32 15.36 87.040 20.48 117.76 25.6-5.12 12.8-10.24 25.6-15.36 38.4-97.28-28.16-153.6-58.88-179.2-76.8zM517.12 660.48l104.96-266.24 189.44 373.76-189.44-248.32-104.96 238.080-104.96-238.080-189.44 248.32 189.44-373.76zM688.64 299.52c20.48 51.2 40.96 102.4 51.2 128 35.84 92.16 125.44 340.48 125.44 340.48l-248.32-499.2c-28.16 69.12-99.84 248.32-99.84 248.32-5.12-12.8-74.24-181.76-99.84-248.32l-245.76 499.2c0 0 89.6-248.32 125.44-340.48 12.8-33.28 40.96-104.96 66.56-171.52 5.12-12.8 10.24-25.6 15.36-38.4 20.48-51.2 35.84-92.16 35.84-92.16l69.12 153.6 35.84 84.48 33.28-74.24 23.040-53.76 48.64-110.080c0 0 17.92 48.64 40.96 107.52 5.12 23.040 12.8 43.52 23.040 66.56z" />
<glyph unicode="&#xe61f;" glyph-name="arrow_up" data-tags="arrow_up" d="M552.96 757.76c0 0-2.56 2.56-2.56 2.56s0 0-2.56 2.56c0 0 0 0 0 0-10.24 7.68-23.040 12.8-35.84 12.8s-25.6-5.12-35.84-12.8c0 0 0 0 0 0s0 0-2.56-2.56c-2.56 0-2.56-2.56-2.56-2.56l-261.12-261.12c-23.040-23.040-23.040-61.44 0-84.48s61.44-23.040 81.92 0l161.28 161.28v-445.44c0-33.28 25.6-58.88 58.88-58.88s58.88 25.6 58.88 58.88v445.44l161.28-161.28c23.040-23.040 61.44-23.040 84.48 0s23.040 61.44 0 84.48l-263.68 261.12c0 0 0 0 0 0z" />
<glyph unicode="&#xe620;" glyph-name="arrow_left" data-tags="arrow_left" d="M176.64 463.36c0 0-2.56-2.56-2.56-2.56s0 0-2.56-2.56c0 0 0 0 0 0-7.68-10.24-12.8-23.040-12.8-35.84s5.12-25.6 12.8-35.84c0 0 0 0 0 0s0 0 2.56-2.56c0-2.56 2.56-2.56 2.56-2.56l261.12-261.12c23.040-23.040 61.44-23.040 84.48 0s23.040 61.44 0 81.92l-161.28 161.28h445.44c33.28 0 58.88 25.6 58.88 58.88s-25.6 58.88-58.88 58.88h-445.44l161.28 161.28c23.040 23.040 23.040 61.44 0 84.48s-61.44 23.040-84.48 0l-261.12-263.68c0 0 0 0 0 0z" />
<glyph unicode="&#xe621;" glyph-name="arrow_down" data-tags="arrow_down" d="M471.040 87.040c0 0 2.56-2.56 2.56-2.56s0 0 2.56-2.56c0 0 0 0 0 0 10.24-7.68 20.48-12.8 35.84-12.8 12.8 0 25.6 5.12 35.84 12.8 0 0 0 0 0 0s0 0 2.56 2.56c2.56 0 2.56 2.56 2.56 2.56l261.12 261.12c23.040 23.040 23.040 61.44 0 84.48s-61.44 23.040-81.92 0l-161.28-161.28v445.44c0 33.28-25.6 58.88-58.88 58.88s-58.88-25.6-58.88-58.88v-445.44l-161.28 161.28c-23.040 23.040-61.44 23.040-84.48 0s-23.040-61.44 0-84.48l263.68-261.12c0 0 0 0 0 0z" />
<glyph unicode="&#xe622;" glyph-name="tumblr" data-tags="tumblr" d="M535.040 732.16v-161.28h151.040v-99.84h-151.040v-163.84c0-38.4 2.56-61.44 5.12-71.68 5.12-10.24 10.24-17.92 23.040-25.6 15.36-7.68 30.72-12.8 48.64-12.8 33.28 0 64 10.24 97.28 30.72v-99.84c-28.16-12.8-51.2-23.040-74.24-28.16s-46.080-7.68-71.68-7.68c-28.16 0-56.32 2.56-76.8 10.24-23.040 7.68-40.96 17.92-56.32 30.72s-28.16 28.16-33.28 43.52c-7.68 17.92-12.8 40.96-12.8 69.12v225.28h-71.68v89.6c25.6 7.68 46.080 20.48 64 35.84s33.28 33.28 43.52 53.76c10.24 20.48 17.92 48.64 23.040 81.92h92.16z" />
<glyph unicode="&#xe623;" glyph-name="link" data-tags="link" d="M499.2 317.44c-10.24 2.56-15.36 5.12-20.48 0-2.56-2.56-38.4-38.4-38.4-38.4-25.6-25.6-69.12-25.6-97.28 0-25.6 25.6-25.6 69.12 0 97.28l97.28 97.28c25.6 25.6 69.12 25.6 97.28 0 12.8-12.8 35.84-12.8 48.64 0s12.8 35.84 0 48.64c-7.68 7.68-17.92 15.36-28.16 20.48-5.12 2.56-10.24 5.12-15.36 7.68 0 0 0 0 0 0-15.36 7.68-33.28 10.24-48.64 10.24 0 0 0 0-2.56 0-23.040 0-43.52-5.12-64-15.36-12.8-5.12-23.040-15.36-33.28-23.040l-97.28-97.28c-53.76-53.76-53.76-138.24 0-192s138.24-53.76 192 0l69.12 69.12c7.68 7.68 5.12 10.24-5.12 10.24-17.92 0-35.84 0-53.76 5.12zM535.040 663.040l-71.68-71.68c-7.68-7.68-5.12-10.24 5.12-10.24 17.92 0 35.84 0 53.76-5.12 10.24-2.56 15.36-5.12 20.48 0 2.56 2.56 40.96 40.96 40.96 40.96 25.6 25.6 69.12 25.6 97.28 0 25.6-25.6 25.6-69.12 0-97.28l-97.28-97.28c-25.6-25.6-69.12-25.6-97.28 0-12.8 12.8-35.84 12.8-48.64 0s-12.8-35.84 0-48.64c15.36-15.36 35.84-28.16 56.32-33.28 5.12 0 7.68-2.56 12.8-2.56s10.24-2.56 12.8-2.56c5.12 0 10.24 0 15.36 0s10.24 0 15.36 0c2.56 0 5.12 0 10.24 2.56 25.6 5.12 51.2 17.92 69.12 38.4l97.28 97.28c53.76 53.76 53.76 138.24 0 192-51.2 51.2-138.24 51.2-192-2.56z" />
<glyph unicode="&#xe624;" glyph-name="checkmark2" data-tags="checkmark2" d="M696.32 660.48l-33.28-35.84-232.96-248.32-71.68 69.12-33.28 33.28-69.12-66.56 174.080-174.080 33.28 35.84 268.8 284.16 33.28 35.84-69.12 66.56z" />
<glyph unicode="&#xe625;" glyph-name="location_pin" data-tags="location_pin" d="M512 801.28c-140.8 0-256-115.2-256-256 0-2.56 0-5.12 0-10.24 0-28.16 5.12-53.76 15.36-76.8 53.76-179.2 240.64-414.72 240.64-414.72s186.88 232.96 240.64 414.72c7.68 23.040 12.8 51.2 15.36 76.8 0 2.56 0 5.12 0 10.24 0 140.8-115.2 256-256 256zM512 419.84c-69.12 0-125.44 56.32-125.44 125.44s56.32 125.44 125.44 125.44c69.12 0 125.44-56.32 125.44-125.44s-56.32-125.44-125.44-125.44z" />
<glyph unicode="&#xe626;" glyph-name="youtube" data-tags="youtube" d="M1006.080 604.16c-10.24 69.12-17.92 117.76-46.080 138.24s-266.24 25.6-448 25.6-419.84-5.12-448-28.16c-28.16-17.92-35.84-69.12-46.080-138.24s-7.68-107.52-7.68-153.6c0-46.080 0-87.040 10.24-156.16s17.92-117.76 46.080-138.24c28.16-23.040 266.24-28.16 448-28.16s419.84 5.12 448 28.16c28.16 17.92 35.84 69.12 46.080 138.24s10.24 110.080 10.24 156.16c-5.12 46.080-5.12 87.040-12.8 156.16zM419.84 284.16v327.68l273.92-163.84-273.92-163.84z" />
<glyph unicode="&#xe627;" glyph-name="slideshow" data-tags="slideshow" d="M192 281.6h153.6v-153.6h-153.6v153.6zM435.2 281.6h153.6v-153.6h-153.6v153.6zM678.4 281.6h153.6v-153.6h-153.6v153.6zM192 768v-396.8h640v396.8h-640zM739.84 463.36h-455.68v212.48h458.24v-212.48z" />
<glyph unicode="&#xe628;" glyph-name="grid" data-tags="grid" d="M192 281.6h153.6v-153.6h-153.6v153.6zM435.2 281.6h153.6v-153.6h-153.6v153.6zM678.4 281.6h153.6v-153.6h-153.6v153.6zM192 524.8h153.6v-153.6h-153.6v153.6zM435.2 524.8h153.6v-153.6h-153.6v153.6zM678.4 524.8h153.6v-153.6h-153.6v153.6zM192 768h153.6v-153.6h-153.6v153.6zM435.2 768h153.6v-153.6h-153.6v153.6zM678.4 768h153.6v-153.6h-153.6v153.6z" />
<glyph unicode="&#xe629;" glyph-name="slideshow_dots" data-tags="slideshow_dots" d="M640 448c0-70.692-57.308-128-128-128s-128 57.308-128 128c0 70.692 57.308 128 128 128s128-57.308 128-128z" />
<glyph unicode="&#xe62a;" glyph-name="ring" data-tags="ring" d="M512 128c-176.64 0-320 143.36-320 320s143.36 320 320 320 320-143.36 320-320-143.36-320-320-320zM512 673.28c-125.44 0-225.28-99.84-225.28-225.28s99.84-225.28 225.28-225.28 225.28 99.84 225.28 225.28-99.84 225.28-225.28 225.28z" />
<glyph unicode="&#xe62b;" glyph-name="retweet" data-tags="retweet" horiz-adv-x="1239" d="M424.96 768c135.68 0 440.32 0 576 0 23.040 0 40.96-17.92 40.96-38.4 0-112.64 0-222.72 0-335.36 58.88 0 120.32 0 179.2 0-79.36-87.040-158.72-174.080-238.080-261.12-2.56-7.68-7.68 0-10.24 2.56-79.36 87.040-158.72 171.52-235.52 258.56 58.88 0 117.76 0 179.2 0 0 81.92 0 163.84 0 245.76-64 0-299.52 0-363.52 0-43.52 43.52-87.040 84.48-128 128zM256 765.44c5.12 7.68 7.68 0 12.8-5.12 76.8-87.040 156.16-171.52 235.52-258.56-58.88 0-117.76 0-179.2 0 0-81.92 0-163.84 0-245.76 64 0 307.2 0 371.2 0 40.96-43.52 84.48-84.48 125.44-128-135.68 0-448 0-583.68 0-23.040 0-40.96 20.48-40.96 40.96 0 110.080 0 222.72 0 332.8-58.88 0-120.32 0-179.2 0 79.36 89.6 158.72 176.64 238.080 263.68z" />
<glyph unicode="&#xe62c;" glyph-name="reply" data-tags="reply" d="M430.080 755.2l-296.96-294.4 296.96-294.4c10.24-10.24 20.48-12.8 33.28-12.8s23.040 5.12 33.28 12.8 12.8 20.48 12.8 33.28v117.76c130.56-2.56 273.92-25.6 378.88-189.44v48.64c0 220.16-166.4 399.36-378.88 424.96v117.76c0 12.8-5.12 23.040-12.8 33.28-10.24 10.24-20.48 12.8-33.28 12.8-10.24 2.56-23.040-2.56-33.28-10.24z" />
<glyph unicode="&#xe62d;" glyph-name="minus" data-tags="minus" d="M192 512h640v-128h-640v128z" />
<glyph unicode="&#xe62e;" glyph-name="favorite" data-tags="favorite" d="M199.68 473.6l128-117.76-35.84-163.84c-2.56-20.48 2.56-43.52 20.48-53.76 7.68-7.68 17.92-10.24 28.16-10.24 7.68 0 15.36 0 20.48 2.56 0 0 2.56 0 2.56 2.56l148.48 84.48 145.92-81.92c0 0 2.56 0 2.56-2.56 17.92-7.68 38.4-7.68 53.76 2.56 17.92 10.24 25.6 30.72 20.48 53.76l-35.84 163.84c15.36 10.24 35.84 30.72 56.32 53.76l66.56 61.44 2.56 2.56c15.36 15.36 17.92 35.84 10.24 53.76s-20.48 30.72-43.52 35.84h-2.56l-163.84 15.36-66.56 153.6c0 0 0 2.56-2.56 2.56-2.56 25.6-20.48 35.84-38.4 35.84s-35.84-10.24-46.080-28.16c0 0 0-2.56-2.56-2.56l-66.56-153.6-171.52-17.92h-2.56c-17.92-2.56-35.84-17.92-43.52-35.84-2.56-20.48 0-40.96 15.36-56.32z" />
<glyph unicode="&#xe62f;" glyph-name="download" data-tags="download" d="M340.48 504.32l174.080-174.080 174.080 174.080h-128v217.6c0 25.6-20.48 46.080-46.080 46.080s-46.080-20.48-46.080-46.080v-217.6h-128zM768 529.92v-309.76h-512v309.76h-89.6v-401.92h691.2v401.92z" />
<glyph unicode="&#xe630;" glyph-name="arrow2" data-tags="arrow2" d="M512 261.12l-320 373.76h640z" />
<glyph unicode="&#xe631;" glyph-name="arrow2_down" data-tags="arrow2_down" d="M512 634.88l320-373.76h-640z" />
<glyph unicode="&#xe900;" glyph-name="reddit-brands" data-tags="reddit-brands" d="M403 349c-27.6 0-49.8 22.2-49.8 49.2 0 27.6 22.2 49.8 49.8 49.8 27.2 0 49.2-22.2 49.2-49.8 0-27.2-22.2-49.2-49.2-49.2zM1008 448c0-274-222-496-496-496s-496 222-496 496 222 496 496 496 496-222 496-496zM743.4 530.4c-18.8 0-35.4-7.8-47.6-20-44.8 31-105.2 51-172.2 53.2l34.8 156.6 110.8-25c0-27.2 22.2-49.2 49.2-49.2 27.6 0 49.8 22.6 49.8 49.8s-22.2 49.8-49.8 49.8c-19.4 0-36-11.6-44.2-27.6l-122.4 27.2c-6 1.6-12.2-2.8-13.8-8.8l-38.2-172.8c-66.4-2.8-126.2-22.6-171-53.6-12.2 12.8-29.4 20.4-48.2 20.4-69.8 0-92.6-93.8-28.8-125.6-2.2-10-3.4-20.4-3.4-31 0-105.2 118.4-190.4 264-190.4 146.2 0 264.6 85.2 264.6 190.4 0 10.6-1.2 21.6-3.8 31.6 62.6 32 39.6 125-29.8 125zM605.6 298c-36.4-36.4-152.2-35.8-187.2 0-4.4 4.4-12.2 4.4-16.6 0-5-5-5-12.8 0-17.2 45.6-45.6 174.6-45.6 220.4 0 5 4.4 5 12.2 0 17.2-4.4 4.4-12.2 4.4-16.6 0zM621 448c-27.2 0-49.2-22.2-49.2-49.8 0-27.2 22.2-49.2 49.2-49.2 27.6 0 49.8 22.2 49.8 49.2 0 27.6-22 49.8-49.8 49.8z" />
<glyph unicode="&#xe901;" glyph-name="youtube_text" data-tags="youtube_text" horiz-adv-x="1664" d="M578.56 322.56c-12.8-17.92-23.040-28.16-33.28-28.16-7.68 0-10.24 2.56-12.8 12.8 0 2.56 0 7.68 0 20.48v230.4h-58.88v-245.76c0-20.48 2.56-35.84 7.68-46.080 5.12-15.36 17.92-23.040 35.84-23.040 20.48 0 38.4 12.8 61.44 38.4v-33.28h58.88v309.76h-58.88v-235.52zM350.72 560.64c-28.16 0-48.64-7.68-64-30.72-12.8-15.36-17.92-40.96-17.92-74.24v-110.080c0-33.28 5.12-56.32 17.92-71.68 15.36-20.48 40.96-33.28 64-33.28s51.2 10.24 66.56 33.28c12.8 15.36 17.92 38.4 17.92 71.68v110.080c0 33.28-7.68 58.88-17.92 74.24-17.92 23.040-43.52 30.72-66.56 30.72zM350.72 296.96c-17.92 0-28.16 15.36-25.6 46.080v122.88c-2.56 30.72 7.68 46.080 25.6 46.080s28.16-15.36 25.6-46.080v-122.88c0-30.72-7.68-46.080-25.6-46.080zM215.040 663.040l-43.52-161.28-43.52 161.28h-64c12.8-38.4 76.8-245.76 76.8-245.76v-168.96h61.44v168.96l76.8 245.76h-64zM1236.48 509.44c-10.24 0-20.48-5.12-28.16-12.8v-186.88c10.24-10.24 20.48-12.8 28.16-12.8 15.36 0 23.040 12.8 23.040 43.52v130.56c0 30.72-7.68 38.4-23.040 38.4zM1464.32 473.6c0 28.16-7.68 35.84-25.6 35.84s-25.6-7.68-25.6-35.84v-33.28h51.2v33.28zM1589.76 629.76c0 0-7.68 61.44-35.84 89.6-35.84 35.84-74.24 35.84-92.16 38.4-128 10.24-320 10.24-320 10.24v0c0 0-192 0-320-10.24-17.92-2.56-56.32-2.56-92.16-38.4-28.16-28.16-35.84-89.6-35.84-89.6s-10.24-74.24-10.24-148.48v-69.12c0-74.24 10.24-148.48 10.24-148.48s7.68-61.44 35.84-89.6c35.84-35.84 79.36-35.84 99.84-38.4 74.24-7.68 309.76-10.24 309.76-10.24s192 0 320 10.24c17.92 2.56 56.32 2.56 92.16 38.4 28.16 28.16 35.84 89.6 35.84 89.6s10.24 74.24 10.24 148.48v69.12c2.56 74.24-7.68 148.48-7.68 148.48zM885.76 250.88h-61.44v350.72h-64v58.88h192v-58.88h-66.56v-350.72zM1105.92 250.88h-58.88v33.28c-23.040-25.6-40.96-38.4-61.44-38.4-17.92 0-30.72 7.68-35.84 23.040-2.56 10.24-7.68 23.040-7.68 46.080v240.64h58.88v-225.28c0-12.8 0-17.92 0-20.48 2.56-7.68 5.12-12.8 12.8-12.8 10.24 0 20.48 10.24 33.28 28.16v232.96h58.88v-307.2zM1318.4 343.040c0-28.16-2.56-48.64-5.12-61.44-7.68-23.040-23.040-33.28-46.080-33.28-20.48 0-40.96 12.8-58.88 35.84v-30.72h-56.32v409.6h56.32v-133.12c17.92 23.040 38.4 35.84 58.88 35.84 23.040 0 35.84-12.8 43.52-35.84 2.56-12.8 7.68-33.28 7.68-61.44v-125.44zM1438.72 296.96c12.8 0 20.48 7.68 25.6 23.040 0 2.56 0 15.36 0 38.4h58.88v-7.68c0-17.92-2.56-30.72-2.56-35.84-2.56-12.8-5.12-23.040-12.8-33.28-15.36-23.040-38.4-33.28-66.56-33.28s-51.2 10.24-66.56 30.72c-12.8 15.36-20.48 38.4-20.48 71.68v107.52c0 33.28 7.68 58.88 17.92 74.24 15.36 20.48 38.4 33.28 66.56 33.28s48.64-10.24 66.56-33.28c12.8-15.36 17.92-38.4 17.92-71.68v-61.44h-110.080v-53.76c0-35.84 7.68-48.64 25.6-48.64z" />
<glyph unicode="&#xe902;" horiz-adv-x="1089" d="M551.485-52.706c-2.751 0-5.45 0.079-8.153 0.209h-0.006c-1.722-0.134-3.523-0.209-5.323-0.209-63.206 0-103.774 28.678-143.002 56.414-27.089 19.138-52.65 37.209-82.768 42.224-14.695 2.433-29.324 3.668-43.46 3.668-25.466 0-45.557-3.932-60.226-6.801-8.914-1.742-16.603-3.24-22.446-3.24-6.106 0-12.722 1.319-15.597 11.143-2.499 8.509-4.305 16.754-6.044 24.727-4.479 20.522-7.661 33.144-16.262 34.465-100.246 15.483-128.938 36.597-135.336 51.578-0.906 2.142-1.42 4.288-1.543 6.412-0.325 5.756 3.752 10.838 9.44 11.767 154.103 25.375 223.207 182.879 226.076 189.568 0.079 0.185 0.162 0.363 0.247 0.548 9.433 19.115 11.278 35.705 5.508 49.305-10.575 24.922-45.066 35.878-67.898 43.12-5.586 1.767-10.882 3.438-15.058 5.087-45.559 18.013-49.35 36.498-47.56 45.922 3.052 16.055 24.51 27.243 41.862 27.243 4.758 0 8.947-0.844 12.47-2.488 20.494-9.603 38.964-14.466 54.901-14.466 22.021 0 31.634 9.255 32.809 10.468-0.56 10.429-1.253 21.321-1.964 32.561-4.59 72.857-10.278 163.387 12.773 215.062 69.082 154.898 215.582 166.931 258.834 166.931 1.108 0 18.963 0.188 18.963 0.188l2.56 0.012c43.353 0 190.171-12.054 259.293-167.037 23.055-51.702 17.353-142.309 12.756-215.111l-0.191-3.166c-0.636-10.138-1.253-19.992-1.767-29.425 1.102-1.123 9.942-9.636 29.907-10.399h0.021c15.171 0.581 32.609 5.417 51.745 14.381 5.608 2.618 11.836 3.169 16.076 3.169 6.476 0 13.041-1.253 18.491-3.526l0.33-0.136c15.48-5.484 25.618-16.333 25.836-27.67 0.2-10.674-7.947-26.723-47.922-42.514-4.143-1.628-9.439-3.311-15.047-5.087-22.855-7.254-57.337-18.198-67.906-43.117-5.774-13.591-3.925-30.173 5.502-49.296 0.085-0.185 0.182-0.363 0.254-0.56 2.866-6.682 71.912-164.141 226.081-189.547 5.693-0.939 9.757-6.014 9.445-11.776-0.13-2.159-0.654-4.334-1.577-6.446-6.358-14.875-35.027-35.963-135.309-51.458-8.192-1.259-11.367-11.933-16.258-34.319-1.776-8.148-3.577-16.148-6.056-24.566-2.134-7.302-6.685-10.719-14.342-10.719h-1.247c-5.314 0-12.868 0.951-22.44 2.829-16.978 3.321-36.014 6.38-60.231 6.38-14.142 0-28.778-1.235-43.483-3.668-30.085-5.015-55.631-23.049-82.668-42.163-39.306-27.797-79.869-56.475-143.092-56.475z" />
<glyph unicode="&#xe903;" horiz-adv-x="1089" d="M555.283 960.006h-0.045c-0.938 0-1.822 0-2.66-0.018v0c0 0-17.465-0.173-18.851-0.173-44.945 0-197.261-12.52-269.125-173.635-24.168-54.205-18.375-146.264-13.727-220.24 0.547-8.722 1.129-17.777 1.627-26.529-3.718-2.058-10.507-4.618-21.194-4.618-14.264 0-31.124 4.5-50.104 13.398-5.037 2.361-10.848 3.541-17.267 3.541-22.228 0-48.818-14.623-52.956-36.422-2.986-15.695 4.037-38.595 54.499-58.524 4.551-1.801 10.027-3.535 15.809-5.363 20.846-6.622 52.357-16.621 60.907-36.761 4.43-10.435 2.662-23.866-5.239-39.906-0.174-0.363-0.347-0.72-0.504-1.096-2.773-6.452-69.463-158.482-217.527-182.856-11.386-1.878-19.521-12.036-18.89-23.554 0.196-3.429 1.007-6.84 2.41-10.15 11.111-25.978 57.994-45.015 143.344-58.261 2.851-3.859 5.815-17.487 7.632-25.79 1.785-8.193 3.625-16.643 6.247-25.555 2.572-8.765 9.255-19.239 26.433-19.239 6.939 0 15.127 1.601 24.604 3.462 14.221 2.778 33.692 6.582 58.067 6.582 13.516 0 27.529-1.175 41.638-3.513 27.54-4.592 50.943-21.13 78.035-40.285 38.81-27.439 82.756-58.502 149.557-58.502 1.834 0 3.68 0.054 5.505 0.19 2.167-0.093 4.981-0.19 7.977-0.19 66.819 0 110.762 31.069 149.542 58.494 27.153 19.177 50.54 35.713 78.080 40.293 14.085 2.338 28.1 3.513 41.622 3.513 23.255 0 41.655-2.96 58.067-6.165 10.284-2.012 18.558-3.036 24.604-3.036l0.633-0.008h0.614c12.687 0 21.642 6.703 25.191 18.872 2.572 8.728 4.418 16.959 6.24 25.291 1.807 8.282 4.763 21.847 7.605 25.684 85.374 13.253 132.246 32.258 143.335 58.128 1.425 3.311 2.243 6.749 2.436 10.205 0.645 11.524-7.499 21.668-18.878 23.542-148.131 24.417-214.766 176.41-217.532 182.859-0.157 0.369-0.324 0.738-0.508 1.096-7.908 16.037-9.657 29.459-5.236 39.894 8.546 20.14 40.045 30.14 60.89 36.749 5.832 1.852 11.313 3.595 15.822 5.375 36.928 14.584 55.455 32.494 55.065 53.237-0.321 16.288-13.010 30.82-33.172 38.023l-0.064 0.024c-6.782 2.811-14.835 4.349-22.719 4.349-5.39 0-13.389-0.732-20.858-4.228-17.565-8.232-33.351-12.705-46.963-13.313-9.025 0.418-14.929 2.693-18.297 4.552 0.427 7.502 0.908 15.232 1.416 23.306l0.191 3.138c4.67 74.025 10.468 166.165-13.725 220.407-71.888 161.187-224.532 173.725-269.603 173.725zM555.283 937.42c41.037-0.006 182.375-11.016 248.982-160.346 21.926-49.157 16.318-138.232 11.806-209.797-0.717-11.346-1.41-22.347-1.976-32.866l-0.245-4.512 3.023-3.359c1.211-1.359 12.617-13.271 37.966-14.254l0.424-0.012 0.415 0.012c16.76 0.633 35.651 5.826 56.166 15.444 3.008 1.416 7.030 2.103 11.279 2.103 4.854 0 9.999-0.911 14.248-2.7l0.636-0.26c10.75-3.762 18.355-10.874 18.482-17.296 0.064-3.65-2.666-16.73-40.78-31.783-3.725-1.477-8.634-3.032-14.315-4.827-24.801-7.884-62.273-19.762-74.887-49.466-7.109-16.763-5.175-36.516 5.768-58.721 4.509-10.508 75.29-170.002 234.628-196.256-0.045-0.739-0.224-1.577-0.654-2.549-2.706-6.365-19.874-28.324-126.668-44.808-16.721-2.578-20.818-21.303-25.573-43.087-1.695-7.79-3.456-15.646-5.853-23.79-0.723-2.461-0.863-2.605-3.508-2.605-0.363 0-0.772 0-1.247 0v0c-4.736 0-11.939 0.986-20.277 2.617-15.138 2.96-35.896 6.588-62.395 6.588-14.793 0-30.040-1.286-45.323-3.82-32.682-5.44-59.271-24.247-87.432-44.139-37.796-26.729-76.867-54.348-136.489-54.348-2.588 0-5.139 0.085-7.687 0.206l-0.672 0.037-0.678-0.064c-1.465-0.121-2.936-0.179-4.446-0.179-59.61 0-98.696 27.619-136.489 54.339-28.148 19.902-54.744 38.708-87.42 44.148-15.287 2.533-30.53 3.82-45.321 3.82-26.495 0-47.251-4.037-62.401-7.003-8.332-1.637-15.544-3.035-20.271-3.035-3.863 0-3.943 0.223-4.758 3.013-2.394 8.148-4.149 16.216-5.849 23.997-4.76 21.786-8.875 40.619-25.573 43.194-106.806 16.495-123.962 38.508-126.675 44.854-0.43 0.987-0.609 1.847-0.648 2.597 159.326 26.248 230.109 185.725 234.615 196.259 10.945 22.217 12.89 41.957 5.777 58.711-12.604 29.713-50.081 41.603-74.887 49.487-5.682 1.792-10.591 3.35-14.316 4.827-32.204 12.717-42.096 25.527-40.615 33.293 1.706 8.955 17.223 18.058 30.762 18.058 3.048 0 5.709-0.487 7.683-1.416 21.999-10.296 42.090-15.534 59.688-15.534 27.697 0 40.027 12.889 41.336 14.351l3.004 3.353-0.246 4.497c-0.565 10.501-1.253 21.496-1.974 32.836-4.507 71.564-10.111 160.579 11.815 209.748 66.35 148.779 206.994 160.243 248.519 160.243 1.023 0 19.069 0.179 19.069 0.179 0.778 0.012 1.586 0.018 2.454 0.018z" />
<glyph unicode="&#xeac6;" glyph-name="reddit" data-tags="reddit" d="M256 320c0 35.346 28.654 64 64 64s64-28.654 64-64c0-35.346-28.654-64-64-64s-64 28.654-64 64zM640 320c0 35.346 28.654 64 64 64s64-28.654 64-64c0-35.346-28.654-64-64-64s-64 28.654-64 64zM643.112 183.222c16.482 12.986 40.376 10.154 53.364-6.332s10.152-40.378-6.334-53.366c-45.896-36.158-115.822-59.524-178.142-59.524-62.322 0-132.248 23.366-178.144 59.522-16.486 12.99-19.32 36.882-6.332 53.368 12.99 16.482 36.882 19.318 53.366 6.332 26.422-20.818 78.722-43.222 131.11-43.222s104.688 22.404 131.112 43.222zM1024 448c0 70.692-57.308 128-128 128-48.116 0-89.992-26.57-111.852-65.82-65.792 35.994-145.952 59.246-233.28 64.608l76.382 171.526 146.194-42.2c13.152-37.342 48.718-64.114 90.556-64.114 53.020 0 96 42.98 96 96s-42.98 96-96 96c-36.56 0-68.342-20.442-84.554-50.514l-162.906 47.024c-18.224 5.258-37.538-3.722-45.252-21.052l-103.77-233.026c-85.138-5.996-163.262-29.022-227.636-64.236-21.864 39.25-63.766 65.804-111.882 65.804-70.692 0-128-57.308-128-128 0-52.312 31.402-97.254 76.372-117.102-8.070-24.028-12.372-49.104-12.372-74.898 0-176.73 200.576-320 448-320 247.422 0 448 143.27 448 320 0 25.792-4.3 50.862-12.368 74.886 44.97 19.85 76.368 64.802 76.368 117.114zM864 772c19.882 0 36-16.118 36-36s-16.118-36-36-36-36 16.118-36 36 16.118 36 36 36zM64 448c0 35.29 28.71 64 64 64 25.508 0 47.572-15.004 57.846-36.646-33.448-25.366-61.166-54.626-81.666-86.738-23.524 9.47-40.18 32.512-40.18 59.384zM512 12c-205.45 0-372 109.242-372 244s166.55 244 372 244c205.45 0 372-109.242 372-244s-166.55-244-372-244zM919.82 388.616c-20.5 32.112-48.218 61.372-81.666 86.738 10.276 21.642 32.338 36.646 57.846 36.646 35.29 0 64-28.71 64-64 0-26.872-16.656-49.914-40.18-59.384z" />
</font>
</defs>
</svg>
