<svg viewBox="0 0 26 24" xmlns="http://www.w3.org/2000/svg" data-reactid="27"><path fill="#FFFFFF" stroke-width="1" d="m16.2229458 17.2668c-3.6373109 2.6271457-8.76977578 2.4788634-12.25589763-.6066866-3.99049053-3.5319643-4.31267665-9.57511811-.71962284-13.49776186 3.59305381-3.92264374 9.74073117-4.23935201 13.73122167-.70738772 3.9670839 3.5112472 4.3087708 9.50431108.7824451 13.42851798l6.2389079 6.2389079-1.4607323 1.4607323zm.0302396-2.5931117c2.874443-3.138115 2.6166942-7.97263808-.5756983-10.79820952-3.1923924-2.82557144-8.11053427-2.57220482-10.98497732.56591018-2.87444304 3.138115-2.61669415 7.97263804.57569827 10.79820954 3.19239242 2.8255714 8.11053435 2.5722048 10.98497735-.5659102z" fill-rule="evenodd" transform="translate(24,0) scale(-1,1)" data-reactid="28"/></svg>