<?xml version="1.0" standalone="no"?>
<!DOCTYPE svg PUBLIC "-//W3C//DTD SVG 1.1//EN" "http://www.w3.org/Graphics/SVG/1.1/DTD/svg11.dtd">
<svg xmlns="http://www.w3.org/2000/svg">
<metadata>Copyright (C) 2019 by original authors @ fontello.com</metadata>
<defs>
<font id="bizj-icons" horiz-adv-x="1000" >
<font-face font-family="bizj-icons" font-weight="400" font-stretch="normal" units-per-em="1000" ascent="850" descent="-150" />
<missing-glyph horiz-adv-x="1000" />
<glyph glyph-name="facebook" unicode="&#xe800;" d="M748 641h-142c-16 0-35-21-35-52v-101h177v-147h-177v-437h-168v437h-151v147h151v86c0 123 86 222 203 222h142v-155 0z" horiz-adv-x="1000" />

<glyph glyph-name="linkedin" unicode="&#xe801;" d="M252 700c0-54-39-97-104-97-61 0-101 43-101 97 0 54 41 96 103 96s101-42 102-96z m-199-796v623h193v-623h-193z m308 424c0 78-2 142-5 199h168l10-87h4c26 41 88 100 192 100 127 0 223-84 223-268v-368h-194v344c0 81-28 136-98 136-54 0-85-37-99-73-5-13-6-30-6-48v-359h-195v424h0z" horiz-adv-x="1000" />

<glyph glyph-name="googleplus" unicode="&#xe802;" d="M546 772c0 0-196 0-262 0-117 0-227-89-227-191 0-106 80-191 199-191 9 0 17 1 24 1-7-15-12-31-12-49 0-29 15-52 35-72-15 0-30 0-46 0-145 0-257-93-257-189 0-94 123-153 269-153 165 0 256 94 256 189 0 75-22 121-91 170-24 16-69 56-69 81 0 28 8 42 50 75 43 33 74 81 74 136 0 66-29 129-85 151h83l59 42v0z m-91-640c2-9 3-17 3-26 0-76-49-137-190-137-101 0-173 65-173 141 0 74 90 137 190 136 24 0 45-4 65-11 54-38 93-59 105-103l0 0z m-161 285c-67 2-131 76-143 164-11 88 34 156 101 154 67-2 131-72 143-161 11-89-34-159-101-157z m519 167v188h-63v-188h-187v-62h187v-187h63v187h187v62h-187z" horiz-adv-x="1000" />

<glyph glyph-name="twitter" unicode="&#xe803;" d="M999 660c-27-41-62-78-101-107 0-8 0-17 0-26 0-271-207-582-583-582-116 0-223 33-314 92 16-2 32-3 49-3 96 0 184 32 254 88-89 1-165 60-192 141 13-2 26-3 39-3 19 0 38 2 54 7-94 19-164 102-164 201 0 0 0 1 0 2 27-14 60-24 93-25-55 37-91 99-91 171 0 37 10 72 27 102 101-124 252-205 422-214-3 15-5 31-5 47 0 114 92 204 205 204 59 0 113-24 150-64 47 10 90 26 130 50-16-48-48-88-90-114 41 5 81 16 117 33h0z" horiz-adv-x="1000" />

<glyph glyph-name="home" unicode="&#xe804;" d="M968 290h-93v-342c0-25-1-45-35-45h-227v344h-226v-344h-216c-45 0-46 20-46 45v342h-93c-33 0-42 20-18 43l445 446c22 24 60 24 82 0l445-446c24-23 15-43-18-43z" horiz-adv-x="1000" />

<glyph glyph-name="search" unicode="&#xe805;" d="M944 27l-229 230c32 55 52 118 52 187 0 199-161 360-361 360s-360-161-360-360 161-361 360-361c69 0 132 20 187 52l230-229c12-13 33-13 45 0l76 76c13 12 13 33 0 45z m-790 417c0 138 114 252 252 252s251-114 251-252-112-251-251-251-252 112-252 251z" horiz-adv-x="1000" />

<glyph glyph-name="unlocked" unicode="&#xe806;" d="M830 320v-378c0-18-15-32-31-32h-598c-16 0-31 14-31 32v378c0 17 15 31 31 31h35v159c0 5 0 10 0 16 0 145 119 264 264 264 136 0 247-102 262-234 2-10 2-20 2-30s0-21-2-31c-5-20-24-34-44-34h-36c-26 0-47 21-47 46v19c0 74-61 135-135 135-74 0-134-60-135-133 0-1 0-2 0-2 0-4 0-8 0-12v-163h434c16 0 31-14 31-31z" horiz-adv-x="1000" />

<glyph glyph-name="locked" unicode="&#xe807;" d="M798 351h-35c0 0 0 166 0 175 0 10 0 20-2 30-15 132-126 234-262 234-145 0-264-119-264-264 0-6 0-11 0-16v-159h-35c-16 0-31-14-31-31v-378c0-18 15-32 31-32h598c17 0 30 14 30 32v378c0 17-13 31-30 31z m-434 175c0 0 0 1 0 2 1 73 61 133 135 133 74 0 135-61 135-135v-175h-270v163c0 4 0 8 0 12z" horiz-adv-x="1000" />

<glyph glyph-name="key" unicode="&#xe808;" d="M72 536c98 96 255 96 352 0 11-12 20-23 29-36h427l105-105c20-20 20-70 0-90l-35-35-35 35-70-70-71 70-69-70-70 70-70-70h-92c-12-26-29-49-49-70-97-97-254-97-352 0s-96 273 0 371z m153-248c34 34 34 89 0 125-35 34-90 34-124 0-35-36-35-90 0-125 34-35 89-35 124 0z" horiz-adv-x="1000" />

<glyph glyph-name="print" unicode="&#xe809;" d="M966 563v-426c0-18-15-32-33-32h-114l-41 301h-556l-41-301h-114c-18 0-33 14-33 32v426c0 18 15 32 33 32h866c18 0 33-14 33-32z m-261-241h-410l-45-438h500l-45 438z m-53 494h-304l-18-140h340l-18 140z" horiz-adv-x="1000" />

<glyph glyph-name="email" unicode="&#xe80a;" d="M524 167l476 377c0-1 0-3 0-4v-488c0-19-16-35-35-35h-930c-19 0-35 16-35 35v488c0 1 0 3 0 4l476-377c13-13 35-13 48 0z m-7 104l483 383c-1 0-2 0-3 0h-994c-1 0-2 0-3 0l483-383c9-9 25-9 34 0z" horiz-adv-x="1000" />

<glyph glyph-name="playbutton" unicode="&#xe80b;" d="M807 367c8-10 8-24 0-34l-529-430c-9-9-24-9-33 0v894c9 9 24 9 33 0l529-430z" horiz-adv-x="1000" />

<glyph glyph-name="down-dir" unicode="&#xe80c;" d="M571 457q0-14-10-25l-250-250q-11-11-25-11t-25 11l-250 250q-11 11-11 25t11 25 25 11h500q14 0 25-11t10-25z" horiz-adv-x="571.4" />

<glyph glyph-name="up-dir" unicode="&#xe80d;" d="M571 171q0-14-10-25t-25-10h-500q-14 0-25 10t-11 25 11 26l250 250q11 10 25 10t25-10l250-250q10-11 10-26z" horiz-adv-x="571.4" />

<glyph glyph-name="left-dir" unicode="&#xe80e;" d="M357 600v-500q0-15-10-25t-26-11-25 11l-250 250q-10 10-10 25t10 25l250 250q11 11 25 11t26-11 10-25z" horiz-adv-x="357.1" />

<glyph glyph-name="right-dir" unicode="&#xe80f;" d="M321 350q0-15-10-25l-250-250q-11-11-25-11t-25 11-11 25v500q0 15 11 25t25 11 25-11l250-250q10-10 10-25z" horiz-adv-x="357.1" />

<glyph glyph-name="down-open" unicode="&#xe810;" d="M940 399l-415-413q-10-11-25-11t-25 11l-414 413q-11 11-11 25t11 26l92 92q11 10 26 10t25-10l296-296 296 296q11 10 25 10t26-10l93-92q10-11 10-26t-10-25z" horiz-adv-x="1000" />

<glyph glyph-name="left-open" unicode="&#xe811;" d="M653 682l-296-296 296-297q11-10 11-25t-11-24l-92-93q-11-11-25-11t-25 11l-414 414q-11 11-11 25t11 25l414 414q11 10 25 10t25-10l92-93q11-10 11-25t-11-25z" horiz-adv-x="714.3" />

<glyph glyph-name="credit-card" unicode="&#xe812;" d="M50 650c-28 0-50-22-50-50l0-500c0-28 22-50 50-50l850 0c28 0 50 22 50 50l0 500c0 28-22 50-50 50z m-25-100l900 0 0-100-900 0z m25-300l150 0 0-100-150 0z m450-50l350 0 0-50-350 0z" horiz-adv-x="950" />

<glyph glyph-name="right-open" unicode="&#xe813;" d="M618 361l-414-414q-11-11-25-11t-26 11l-92 93q-11 10-11 24t11 25l296 297-296 296q-11 11-11 25t11 25l92 93q11 10 26 10t25-10l414-414q10-11 10-25t-10-25z" horiz-adv-x="714.3" />

<glyph glyph-name="up-open" unicode="&#xe814;" d="M940 107l-93-92q-11-11-26-11t-25 11l-296 297-296-297q-11-11-25-11t-26 11l-92 92q-11 11-11 25t11 26l414 414q10 10 25 10t25-10l415-414q10-10 10-26t-10-25z" horiz-adv-x="1000" />

<glyph glyph-name="angle-left" unicode="&#xe815;" d="M350 546q0-6-5-12l-220-220 220-219q5-6 5-13t-5-12l-29-29q-5-5-12-5t-13 5l-261 260q-5 6-5 13t5 14l261 259q5 6 13 6t12-6l29-28q5-5 5-13z" horiz-adv-x="357.1" />

<glyph glyph-name="angle-right" unicode="&#xe816;" d="M332 314q0-7-6-13l-260-260q-5-5-12-5t-13 5l-28 29q-6 5-6 12t6 13l219 219-219 220q-6 6-6 12t6 13l28 28q5 6 13 6t12-6l260-259q6-6 6-14z" horiz-adv-x="357.1" />

<glyph glyph-name="angle-up" unicode="&#xe817;" d="M600 189q0-7-5-13l-29-27q-5-6-12-6t-13 6l-220 219-218-219q-6-6-14-6t-13 6l-27 27q-6 6-6 13t6 14l260 259q6 6 12 6t13-6l261-259q5-6 5-14z" horiz-adv-x="642.9" />

<glyph glyph-name="angle-down" unicode="&#xe818;" d="M600 439q0-7-5-13l-261-260q-5-5-13-5t-12 5l-260 260q-6 6-6 13t6 14l27 27q6 6 13 6t14-6l218-219 220 219q5 6 13 6t12-6l29-27q5-6 5-14z" horiz-adv-x="642.9" />

<glyph glyph-name="cancel" unicode="&#xe819;" d="M725 113q0-23-16-38l-76-77q-16-15-38-15t-38 15l-164 165-164-165q-16-15-39-15t-37 15l-76 77q-15 15-15 38t15 37l164 164-164 164q-15 16-15 38t15 38l76 76q16 16 37 16t39-16l164-164 164 164q15 16 38 16t38-16l76-76q16-15 16-38t-16-38l-164-164 164-164q16-16 16-37z" horiz-adv-x="785.7" />

<glyph glyph-name="calendar" unicode="&#xe81a;" d="M71-79h161v161h-161v-161z m197 0h178v161h-178v-161z m-197 197h161v178h-161v-178z m197 0h178v178h-178v-178z m-197 214h161v161h-161v-161z m411-411h179v161h-179v-161z m-214 411h178v161h-178v-161z m428-411h161v161h-161v-161z m-214 197h179v178h-179v-178z m-196 482v161q0 7-6 12t-12 6h-36q-7 0-12-6t-6-12v-161q0-7 6-13t12-5h36q7 0 12 5t6 13z m410-482h161v178h-161v-178z m-214 214h179v161h-179v-161z m214 0h161v161h-161v-161z m18 268v161q0 7-5 12t-13 6h-35q-8 0-13-6t-5-12v-161q0-7 5-13t13-5h35q8 0 13 5t5 13z m215 36v-715q0-29-22-50t-50-21h-786q-29 0-49 21t-22 50v715q0 29 22 50t49 21h72v54q0 36 26 63t63 26h36q37 0 63-26t26-63v-54h214v54q0 36 27 63t63 26h35q37 0 64-26t26-63v-54h71q29 0 50-21t22-50z" horiz-adv-x="928.6" />

<glyph glyph-name="calendar-empty" unicode="&#xe81b;" d="M71-79h786v572h-786v-572z m215 679v161q0 8-6 13t-12 5h-36q-7 0-12-5t-6-13v-161q0-8 6-13t12-5h36q7 0 12 5t6 13z m428 0v161q0 8-5 13t-13 5h-35q-8 0-13-5t-5-13v-161q0-8 5-13t13-5h35q8 0 13 5t5 13z m215 36v-715q0-29-22-50t-50-21h-786q-29 0-49 21t-22 50v715q0 29 22 50t49 21h72v54q0 36 26 63t63 26h36q37 0 63-26t26-63v-54h214v54q0 36 27 63t63 26h35q37 0 64-26t26-63v-54h71q29 0 50-21t22-50z" horiz-adv-x="928.6" />

<glyph glyph-name="ok" unicode="&#xe81c;" d="M933 535q0-23-16-38l-404-405-76-76q-16-16-38-16t-38 16l-76 76-202 202q-16 16-16 38t16 39l76 75q16 15 38 15t38-15l164-164 366 366q15 16 38 16t38-16l76-76q16-16 16-37z" horiz-adv-x="1000" />

<glyph glyph-name="user" unicode="&#xe81d;" d="M736 128q204-72 204-122l0-106-940 0 0 106q0 50 204 122 94 34 128 69t34 95q0 22-22 49t-32 74q-2 11-9 17t-14 8-14 17-9 43q0 16 6 26t8 13l4 3q-8 50-11 88-5 54 41 112t156 58 158-58 40-112l-12-88q18-8 18-42-2-28-9-43t-14-17-14-8-9-17q-8-49-31-75t-23-48q0-60 35-95t127-69z" horiz-adv-x="940" />

<glyph glyph-name="picture" unicode="&#xe81e;" d="M357 529q0-45-31-76t-76-32-76 32-31 76 31 76 76 31 76-31 31-76z m572-215v-250h-786v107l178 179 90-89 285 285z m53 393h-893q-7 0-12-5t-6-13v-678q0-8 6-13t12-5h893q7 0 13 5t5 13v678q0 8-5 13t-13 5z m89-18v-678q0-37-26-63t-63-27h-893q-36 0-63 27t-26 63v678q0 37 26 63t63 27h893q37 0 63-27t26-63z" horiz-adv-x="1071.4" />

<glyph glyph-name="pictures" unicode="&#xe81f;" d="M856 518l-99 0-124 150-215-150-180 0q-51 0-90-39t-38-91l0-160-108 296q-10 38 22 52l680 248q36 10 51-24z m106-90q17 0 27-12t11-28l0-472q0-16-11-28t-27-12l-724 0q-15 0-27 12t-11 28l0 472q0 16 11 28t27 12l724 0z m-56-452l0 162-72 160-166-60-130-132-138 170-91-214 0-86 597 0z" horiz-adv-x="1000" />

<glyph glyph-name="thumbs-up" unicode="&#xe820;" d="M812 470q37-14 57-51t15-78l-35-310q-6-39-32-71t-58-44q-5-1-26-9t-29-10-29-8-45-7-58-1q-82 0-174 26t-129 55q-1 2-3 3t-4 4-3 4q-46-40-103-40-65 0-110 45t-46 111l0 313q0 64 46 110t110 46q76 0 124-62 44 44 65 84t20 108q0 54 38 93t92 38 92-38 38-93q0-94-17-188 170-17 204-30z m-656-432q22 0 37 15t16 36l0 313q0 20-16 37t-37 15-37-15-15-37l0-313q0-21 15-36t37-15z m590 7l35 312q3 12-6 16-15 3-107 15t-119 14l-68-11 15 74q26 116 26 223 0 10-9 18t-18 8-18-8-8-18q0-54-11-98t-32-78-36-51-41-44q-36-36-36-68l0-260q0-30 18-44 25-17 99-39t142-21q27 0 46 2t35 4 24 5 22 9 24 9q6 2 14 13t9 18z" horiz-adv-x="885" />

<glyph glyph-name="thumbs-down" unicode="&#xe821;" d="M729 768q65 0 111-46t45-110l0-313q0-65-45-110t-111-46q-77 0-123 63-43-43-64-85t-20-110q0-54-39-92t-91-38-93 38-39 92q0 96 16 190-173 18-201 28-37 14-58 52t-16 78l35 311q7 37 32 70t58 44q6 2 26 9t30 11 29 8 45 6 57 1q83 0 174-26t131-55q2-1 5-5t3-5q47 40 103 40z m-313-755q0 54 11 97t33 79 36 51 40 43q36 36 36 69l0 260q0 11-6 24t-12 20q-24 16-99 38t-142 21q-27 0-46-1t-35-5-23-5-23-9-23-8q-7-3-15-13t-9-18l-33-312q-3-13 4-16 15-4 108-15t118-14l69 10-14-74q-26-122-26-222 0-11 8-19t18-7 17 7 8 19z m365 286l0 313q0 20-15 36t-37 15-37-15-14-36l0-313q0-21 14-37t37-15 37 15 15 37z" horiz-adv-x="885" />

<glyph glyph-name="star" unicode="&#xe822;" d="M929 489q0-12-15-27l-202-197 48-279q0-4 0-12 0-12-6-20t-17-7q-10 0-22 6l-251 132-250-132q-13-6-23-6-11 0-17 7t-6 20q0 4 1 12l48 279-203 197q-14 15-14 27 0 20 31 26l281 40 125 254q10 23 27 23t27-23l126-254 281-40q31-6 31-26z" horiz-adv-x="928.6" />

<glyph glyph-name="thumbs-up-1" unicode="&#xe823;" d="M582 480q2-6 58-13t108-24 52-47q0-72-61-284t-107-212q-144 0-288 42t-144 88l0 343q0 13 15 33t46 45 54 41 61 43 46 31q50 34 104 100t85 104 41 26q48-76 29-137t-59-119-40-60z m-432-4q14 0 0-14-50-50-50-104l0-318q0-50 52-104 10-10-2-10-26 0-55 8t-62 45-33 99l0 242q0 62 33 100t63 47 54 9z" horiz-adv-x="800" />

<glyph glyph-name="thumbs-down-1" unicode="&#xe824;" d="M218 218q-2 6-57 13t-108 24-53 47q0 72 62 285t106 213q144 0 288-43t144-89l0-342q0-10-8-24t-25-30-32-29-42-32-41-29-41-28l-33-22q-50-34-104-100t-84-104-42-26q-48 76-29 138t59 118 40 60z m432 4q-12 0 2 14 48 50 48 104l0 318q0 50-52 104-10 10 2 10 26 0 55-8t62-45 33-99l0-242q0-47-18-81t-45-48-47-21-40-6z" horiz-adv-x="800" />

<glyph glyph-name="comment" unicode="&#xe825;" d="M700 700q42 0 72-29t28-71l0-350q0-40-28-70t-72-30l-200 0 0-150-200 150-200 0q-40 0-70 30t-30 70l0 350q0 42 30 71t70 29l600 0z" horiz-adv-x="800" />

<glyph glyph-name="chat" unicode="&#xe826;" d="M290 240l350 0q2 0 7 2l3 0 0-92q0-40-29-69t-71-31l-250 0-150-150 0 150-50 0q-40 0-70 31t-30 69l0 300q0 42 30 71t70 29l190 0 0-310z m610 560q42 0 71-29t29-71l0-300q0-40-29-69t-71-31l-50 0 0-150-150 150-350 0 0 400q0 42 30 71t70 29l450 0z" horiz-adv-x="1000" />

<glyph glyph-name="thumbs-up-2" unicode="&#xe827;" d="M926 122c-5 23-16 43-28 53 29 31 29 71 29 94 0 43-17 78-53 99 14 49-2 86-29 99-44 23-96 16-155 2-47-11-104-22-150-14-33 5-40 14-42 17-5 11 11 38 25 65 25 43 55 103 55 168 1 90-55 145-108 145-34 0-69-22-69-74 0-87-42-138-183-278-59-60-83-105-99-133-22-41-48-51-100-51 0 0 0 0 0 0-10 0-19-8-19-19 0-8 8-17 19-17 0 0 0 0 0 0v0c71 0 106 19 132 69 16 29 38 69 93 125 146 145 195 201 195 304 0 24 10 38 31 38 31 0 74-34 74-109 0-55-27-112-50-151-22-39-40-69-26-98 12-24 44-33 67-36 54-9 116 3 165 15 54 12 100 22 126 4 40-28 14-89 14-89s53-9 53-81c0-26 3-52-28-77l-21-18 24-15c1 0 19-15 25-42 5-27-19-59-48-96l-8-9 6-11c0 0 27-24 12-49-16-26-78-67-269-67-188 0-260 12-329 37-59 22-115 34-236 34-1 0-1 0-2 0-10 0-18-7-18-17 0-10 8-18 17-18v-1c116 0 167-10 226-31 68-25 147-40 340-40 160 0 270 27 302 85 19 35-4 58-8 72 33 44 56 79 48 116" horiz-adv-x="928" />

<glyph glyph-name="docs" unicode="&#xe828;" d="M946 636q23 0 38-15t16-39v-678q0-23-16-38t-38-16h-535q-22 0-38 16t-16 38v160h-303q-23 0-38 16t-16 38v375q0 22 11 49t27 42l228 228q15 16 42 27t49 11h232q22 0 38-16t16-38v-182q38 22 71 22h232z m-303-119l-167-167h167v167z m-357 214l-167-167h167v167z m110-360l175 175v233h-214v-233q0-22-15-38t-38-15h-233v-357h286v143q0 22 11 49t28 43z m533-450v643h-215v-232q0-22-16-38t-37-15h-232v-358h500z" horiz-adv-x="1000" />

<glyph glyph-name="layout" unicode="&#xe829;" d="M170 650q80 0 80-80l0-90q0-80-80-80l-90 0q-80 0-80 80l0 90q0 80 80 80l90 0z m350 0q80 0 80-80l0-90q0-80-80-80l-90 0q-80 0-80 80l0 90q0 80 80 80l90 0z m-350-350q80 0 80-80l0-90q0-80-80-80l-90 0q-80 0-80 80l0 90q0 80 80 80l90 0z m350 0q80 0 80-80l0-90q0-80-80-80l-90 0q-80 0-80 80l0 90q0 80 80 80l90 0z" horiz-adv-x="600" />

<glyph glyph-name="resize-full" unicode="&#xe82a;" d="M476 747l316 0 0-317-100 124-146-152-100 100 152 146z m-230-445l100-100-152-146 122-100-316 0 0 316 100-122z" horiz-adv-x="792" />

<glyph glyph-name="resize-small" unicode="&#xe82b;" d="M156 146l-106 101 296 0 0-297-100 106-146-156-100 100z m744 554l-154-144 104-100-294 0 0 294 100-104 144 154z" horiz-adv-x="900" />

<glyph glyph-name="level-up" unicode="&#xe82c;" d="M200 350l0-90-200 160 200 170 0-100 550 0q40 0 70-29t30-71l0-280-140 0 0 240-510 0z" horiz-adv-x="850" />

<glyph glyph-name="attention" unicode="&#xe82d;" d="M956-24q11-16 0-34-10-16-29-16l-893 0q-17 0-27 16-13 18-2 34l445 782q9 18 31 18t30-18z m-420 50l0 100-109 0 0-100 109 0z m0 174l0 300-109 0 0-300 109 0z" horiz-adv-x="962" />

<glyph glyph-name="up" unicode="&#xe82e;" d="M660 336l-192 0 0-350-276 0 0 350-192 0 330 380z" horiz-adv-x="660" />

<glyph glyph-name="download" unicode="&#xe82f;" d="M968 198q18-10 27-32t3-40l-28-154q-4-20-22-33t-40-13l-816 0q-22 0-40 13t-22 33l-28 154q-10 48 32 72l158 108 98 0-170-130 178 0q8 0 12-8l40-110 299 0 41 110q8 8 12 8l178 0-170 130 98 0z m-208 322l-260-244-260 244 166 0 0 256 190 0 0-256 164 0z" horiz-adv-x="1000" />

<glyph glyph-name="phone" unicode="&#xe830;" d="M461 290q162 162 118 207l-8 7q-30 30-41 48t-4 54 49 88q20 24 37 39t36 16 29 1 29-13 25-18 25-25 21-22q48-48-5-194t-205-294q-150-150-294-205t-194-7q-2 2-23 22t-25 25-18 24-13 31 2 30 16 35 37 37q42 34 70 47t54 2 35-18 39-37q44-44 208 120z" horiz-adv-x="800" />

<glyph glyph-name="clock" unicode="&#xe831;" d="M460 810q190 0 325-135t135-325-135-325-325-135-325 135-135 325 135 325 325 135z m0-820q150 0 255 106t105 254q0 150-105 255t-255 105q-148 0-254-105t-106-255q0-148 106-254t254-106z m36 620l0-244 151-150-51-50-170 170 0 274 70 0z" horiz-adv-x="920" />

<glyph glyph-name="ok-circled" unicode="&#xe832;" d="M717 441q0 15-11 25l-51 50q-9 11-24 11t-25-11l-228-226-126 125q-11 11-25 11t-26-11l-51-50q-9-10-9-26 0-14 9-25l203-201q10-11 25-11 15 0 25 11l303 302q11 10 11 26z m140-91q0-116-57-215t-156-156-215-58-215 58-156 156-58 215 58 215 156 156 215 58 215-58 156-156 57-215z" horiz-adv-x="857.1" />

<glyph glyph-name="location" unicode="&#xe833;" d="M429 493q0 59-42 101t-101 42-101-42-42-101 42-101 101-42 101 42 42 101z m142 0q0-61-18-100l-203-432q-9-18-27-29t-37-11-38 11-26 29l-203 432q-19 39-19 100 0 118 84 202t202 84 201-84 84-202z" horiz-adv-x="571.4" />

<glyph glyph-name="hyperlink" unicode="&#xe834;" d="M895 781q17-16 17-39t-17-40l-114-115q55-80 45-180t-81-170l-167-167q-81-82-198-82-85 0-153 46l-114-114q-17-16-40-16-21 0-38 16-16 18-16 40t16 38l113 115q-56 80-45 180t81 171l166 166q78 82 198 82 86 0 154-46l113 115q15 15 39 15t41-15z m-180-346q0 37-17 71l-85-86q-17-15-38-15-23 0-40 15t-17 40 17 40l85 84q-36 17-72 17-73 0-121-49l-164-168q-49-49-49-118 0-37 17-70l83 83q15 15 39 15t37-15q16-18 16-40t-16-40l-80-82q36-18 70-18 70 0 119 50l167 167q49 49 49 119z" horiz-adv-x="928" />

<glyph glyph-name="plus" unicode="&#xe835;" d="M786 439v-107q0-22-15-38t-39-15h-232v-233q0-22-16-38t-38-15h-107q-22 0-37 15t-16 38v233h-232q-23 0-38 15t-16 38v107q0 22 16 38t38 16h232v232q0 23 16 38t37 16h107q23 0 38-16t16-38v-232h232q23 0 39-16t15-38z" horiz-adv-x="785.7" />

<glyph glyph-name="minus" unicode="&#xe836;" d="M786 439v-107q0-22-15-38t-39-15h-678q-23 0-38 15t-16 38v107q0 22 16 38t38 16h678q23 0 39-16t15-38z" horiz-adv-x="785.7" />

<glyph glyph-name="link" unicode="&#xe837;" d="M723 704q17-16 17-40t-17-41l-89-90 14-17q48-47 48-113t-48-114l-215-217q-48-48-116-48-66 0-113 48l-16 15-90-90q-18-17-40-17-24 0-41 17-17 18-17 42t17 40l89 88-16 17q-46 46-46 114 0 69 46 115l218 217q46 46 114 46t114-46l17-16 89 90q15 16 40 16t41-16z m-155-335q13 12 13 34 0 19-13 32l-15 17-38-38q-16-16-41-16-24 0-40 16t-16 40 16 41l38 38-17 15q-14 15-32 15-21 0-34-15l-218-217q-14-13-14-33 0-19 14-33l17-17 37 39q17 17 42 17 22 0 40-17 15-17 15-40t-15-41l-38-39 16-14q14-14 32-14 21 0 35 14z" horiz-adv-x="740" />

<glyph glyph-name="cw" unicode="&#xe838;" d="M857 707v-250q0-14-10-25t-26-11h-250q-23 0-33 23-9 21 8 38l77 77q-82 77-194 77-59 0-112-23t-90-61-62-92-22-110 22-110 62-92 90-61 112-23q66 0 125 29t100 82q4 6 13 7 8 0 14-5l76-77q6-5 6-12t-4-12q-62-74-148-114t-182-41q-87 0-166 34t-137 92-92 137-34 166 34 166 92 137 137 92 166 34q82 0 158-31t137-87l72 71q17 17 39 8 22-9 22-33z" horiz-adv-x="857.1" />

<glyph glyph-name="ccw" unicode="&#xe839;" d="M857 350q0-87-34-166t-92-137-136-92-166-34q-96 0-183 41t-147 114q-4 5-4 12t5 12l77 77q5 5 13 5 9-1 13-7 41-52 100-82t126-29q57 0 110 23t92 61 60 92 23 110-23 110-60 92-92 61-110 23q-55 0-106-20t-89-57l77-77q17-17 7-38-8-23-32-23h-250q-14 0-25 11t-11 25v250q0 24 23 33 21 9 38-8l73-71q59 55 136 87t159 31q87 0 166-34t136-92 92-137 34-166z" horiz-adv-x="857.1" />

<glyph glyph-name="arrows-cw" unicode="&#xe83a;" d="M843 261q0-3 0-4-36-150-150-243t-266-93q-82 0-158 31t-136 88l-72-72q-11-11-25-11t-25 11-11 25v250q0 14 11 25t25 11h250q14 0 25-11t10-25-10-25l-77-77q40-36 90-57t105-20q74 0 139 37t104 100q6 9 29 65 5 13 17 13h107q8 0 13-6t5-12z m14 446v-250q0-14-10-25t-26-11h-250q-14 0-25 11t-10 25 10 25l77 77q-82 77-194 77-75 0-140-37t-103-100q-7-9-31-65-4-13-16-13h-111q-7 0-12 6t-6 12v4q36 150 151 243t268 93q81 0 158-31t137-87l72 71q11 11 25 11t26-11 10-25z" horiz-adv-x="857.1" />

<glyph glyph-name="eye" unicode="&#xe83b;" d="M488 695c291 0 487-340 487-340s-196-339-487-339-488 339-488 339 196 340 488 340z m0-579c131 0 238 108 238 239s-107 239-238 239-239-108-239-239 107-239 239-239z m107 239c0-59-50-106-107-106-59 0-107 47-107 106 0 57 48 107 107 107 57 0 107-50 107-107z" horiz-adv-x="975" />

<glyph glyph-name="list-bullet" unicode="&#xf0ca;" d="M214 64q0-44-31-75t-76-32-76 32-31 75 31 76 76 31 76-31 31-76z m0 286q0-45-31-76t-76-31-76 31-31 76 31 76 76 31 76-31 31-76z m786-232v-107q0-8-5-13t-13-5h-678q-8 0-13 5t-5 13v107q0 7 5 12t13 6h678q7 0 13-6t5-12z m-786 518q0-45-31-76t-76-31-76 31-31 76 31 75 76 32 76-32 31-75z m786-232v-108q0-6-5-12t-13-5h-678q-8 0-13 5t-5 12v108q0 7 5 12t13 5h678q7 0 13-5t5-12z m0 285v-107q0-7-5-12t-13-6h-678q-8 0-13 6t-5 12v107q0 8 5 13t13 5h678q7 0 13-5t5-13z" horiz-adv-x="1000" />

<glyph glyph-name="sort" unicode="&#xf0dc;" d="M571 243q0-15-10-25l-250-250q-11-11-25-11t-25 11l-250 250q-11 10-11 25t11 25 25 11h500q14 0 25-11t10-25z m0 214q0-14-10-25t-25-11h-500q-15 0-25 11t-11 25 11 25l250 250q10 11 25 11t25-11l250-250q10-10 10-25z" horiz-adv-x="571.4" />

<glyph glyph-name="sort-down" unicode="&#xf0dd;" d="M571 243q0-15-10-25l-250-250q-11-11-25-11t-25 11l-250 250q-11 10-11 25t11 25 25 11h500q14 0 25-11t10-25z" horiz-adv-x="571.4" />

<glyph glyph-name="sort-up" unicode="&#xf0de;" d="M571 457q0-14-10-25t-25-11h-500q-15 0-25 11t-11 25 11 25l250 250q10 11 25 11t25-11l250-250q10-10 10-25z" horiz-adv-x="571.4" />

<glyph glyph-name="youtube-play" unicode="&#xf16a;" d="M397 220l270 140-270 141v-281z m103 482q94 0 181-3t129-5l40-2q1 0 9-1t13-2 14-2 15-5 16-7 18-11 15-15q4-3 9-10t17-33 14-56q4-36 7-76t3-63v-99q1-81-10-162-4-30-14-55t-18-35l-8-9q-8-9-15-14t-18-11-16-7-15-5-14-3-13-1-9-1q-140-11-350-11-115 1-200 4t-112 4l-28 2-20 3q-20 2-31 5t-28 12-31 23q-4 3-9 10t-17 33-14 56q-4 36-7 76t-3 64v98q-1 81 10 162 4 31 14 55t18 35l8 9q8 9 15 15t18 11 16 7 15 5 14 2 13 2 9 1q140 10 350 10z" horiz-adv-x="1000" />

<glyph glyph-name="trash" unicode="&#xf1f8;" d="M286 82v393q0 8-6 13t-12 5h-36q-7 0-12-5t-6-13v-393q0-7 6-12t12-6h36q7 0 12 6t6 12z m143 0v393q0 8-5 13t-13 5h-36q-8 0-13-5t-5-13v-393q0-7 5-12t13-6h36q8 0 13 6t5 12z m142 0v393q0 8-5 13t-12 5h-36q-8 0-13-5t-5-13v-393q0-7 5-12t13-6h36q8 0 12 6t5 12z m-303 554h250l-27 65q-4 5-10 6h-176q-6-1-10-6z m518-18v-36q0-7-6-12t-12-6h-54v-528q0-47-25-81t-64-34h-464q-37 0-63 33t-27 79v531h-53q-8 0-13 6t-5 12v36q0 7 5 12t13 6h172l40 93q7 20 30 35t44 15h178q23 0 44-15t31-35l39-93h172q7 0 12-6t6-12z" horiz-adv-x="785.7" />

<glyph glyph-name="map-o" unicode="&#xf278;" d="M1127 844q16-12 16-30v-785q0-12-6-21t-17-13l-356-142q-14-6-28 0l-343 137-344-137q-5-3-13-3-11 0-20 6-16 12-16 30v785q0 12 6 21t17 13l357 142q13 6 26 0l344-137 344 137q17 8 33-3z m-716-75v-709l321-129v709z m-340-121v-709l304 121v709z m1000-596v709l-303-121v-709z" horiz-adv-x="1142.9" />
</font>
</defs>
</svg>
