<?xml version="1.0" encoding="UTF-8" standalone="no"?>
<svg width="1000px" height="65px" viewBox="0 0 1000 65" version="1.1" xmlns="http://www.w3.org/2000/svg" xmlns:xlink="http://www.w3.org/1999/xlink">
    <!-- Generator: Sketch 39.1 (31720) - http://www.bohemiancoding.com/sketch -->
    <title>charlotte-logo</title>
    <desc>Created with Sketch.</desc>
    <defs></defs>
    <g id="Outlined-black-for-footer" stroke="none" stroke-width="1" fill="none" fill-rule="evenodd">
        <g id="charlotte-logo" transform="translate(-24.000000, -46.000000)" fill="#000000">
            <path d="M40.304,110.792 C49.104,110.792 55.528,106.128 55.528,94.688 L55.528,92.928 L49.456,92.928 L49.456,94.6 C49.456,102.08 45.672,105.248 40.304,105.248 C33.616,105.248 30.8,100.672 30.8,92.4 L30.8,64.68 C30.8,56.144 34.056,51.744 40.216,51.744 C45.672,51.744 48.752,54.648 48.752,61.688 L48.752,62.568 L55.176,62.568 L55.176,61.6 C55.176,50.6 48.664,46.288 40.128,46.288 C30.624,46.288 24.024,52.8 24.024,64.68 L24.024,92.488 C24.024,104.192 30.096,110.792 40.304,110.792 L40.304,110.792 Z M66.656,110 L73.256,110 L73.256,80.96 L89.8,80.96 L89.8,110 L96.488,110 L96.488,47.08 L89.8,47.08 L89.8,75.416 L73.256,75.416 L73.256,47.08 L66.656,47.08 L66.656,110 Z M132.52,110 L139.032,110 L127.944,47.08 L118,47.08 L106.824,110 L113.072,110 L115.712,94.16 L129.792,94.16 L132.52,110 Z M122.752,52.272 L128.912,89.056 L116.504,89.056 L122.752,52.272 Z M149.368,110 L155.968,110 L155.968,80.52 L161.512,80.52 L171.632,110 L178.848,110 L168.112,79.816 C174.008,78.232 177.44,74.536 177.44,66.264 L177.44,61.072 C177.44,51.392 171.984,47.08 162.216,47.08 L149.368,47.08 L149.368,110 Z M155.968,75.504 L155.968,52.272 L162.304,52.272 C168.024,52.272 170.752,54.56 170.752,61.072 L170.752,66.264 C170.752,72.776 168.376,75.504 162.392,75.504 L155.968,75.504 Z M189.536,110 L213.296,110 L213.296,104.72 L196.136,104.72 L196.136,47.08 L189.536,47.08 L189.536,110 Z M237.8,110.792 C247.832,110.792 254.256,104.192 254.256,92.488 L254.256,64.328 C254.256,52.8 247.832,46.288 237.8,46.288 C227.768,46.288 221.344,52.8 221.344,64.416 L221.344,92.664 C221.344,104.192 227.768,110.792 237.8,110.792 L237.8,110.792 Z M237.8,105.248 C231.112,105.248 228.032,100.76 228.032,92.576 L228.032,64.416 C228.032,56.232 231.2,51.744 237.8,51.744 C244.312,51.744 247.48,56.672 247.48,64.416 L247.48,92.488 C247.48,100.408 244.312,105.248 237.8,105.248 L237.8,105.248 Z M273.04,110 L279.552,110 L279.64,52.36 L290.552,52.36 L290.552,47.08 L262.216,47.08 L262.216,52.36 L273.04,52.36 L273.04,110 Z M308.984,110 L315.496,110 L315.584,52.36 L326.496,52.36 L326.496,47.08 L298.16,47.08 L298.16,52.36 L308.984,52.36 L308.984,110 Z M336.744,110 L362,110 L362,104.72 L343.344,104.72 L343.344,78.936 L357.6,78.936 L357.6,73.656 L343.344,73.656 L343.344,52.36 L360.856,52.36 L360.856,47.08 L336.744,47.08 L336.744,110 Z M387.6,110 L405.288,110 C417.08,110 423.328,105.776 423.328,94.16 L423.328,90.112 C423.328,82.104 419.192,78.232 412.504,76.912 C418.224,75.592 421.92,72.16 421.92,65.56 L421.92,61.16 C421.92,51.568 416.376,47.08 404.936,47.08 L387.6,47.08 L387.6,110 Z M400.888,100.408 L400.888,81.576 L403.792,81.576 C408.104,81.576 409.864,82.896 409.864,88.616 L409.864,93.104 C409.864,98.384 408.104,100.408 404.056,100.408 L400.888,100.408 Z M400.888,72.512 L400.888,56.672 L403.704,56.672 C407.224,56.672 409.072,57.64 409.072,62.392 L409.072,66.352 C409.072,71.016 407.576,72.512 403.704,72.512 L400.888,72.512 Z M455.488,47.08 L455.488,92.84 C455.488,98.12 454.08,99.968 450.736,99.968 C447.128,99.968 445.896,98.12 445.896,92.928 L445.896,47.08 L432.344,47.08 L432.344,93.192 C432.344,105.424 438.944,110.968 450.648,110.968 C462.264,110.968 469.128,105.512 469.128,93.28 L469.128,47.08 L455.488,47.08 Z M495.304,110.968 C506.48,110.968 512.728,105.248 512.728,93.808 L512.728,92.576 C512.728,80.256 506.304,76.472 498.824,71.72 C493.368,68.024 491.432,66.44 491.432,61.952 L491.432,61.6 C491.432,58.08 492.664,56.672 495.216,56.672 C497.592,56.672 499.264,57.816 499.264,62.304 L499.264,64.328 L512.024,64.328 L512.024,62.48 C511.936,51.392 505.864,46.2 495.216,46.2 C484.392,46.2 478.232,52.008 478.232,62.48 L478.232,62.832 C478.232,73.216 482.544,77.88 490.728,83.072 C496.36,86.768 499.44,88.528 499.44,94.16 L499.44,94.864 C499.44,98.912 498.12,100.672 495.304,100.672 C492.048,100.672 490.728,99 490.728,93.896 L490.728,91.432 L477.616,91.432 L477.616,93.456 C477.704,106.04 484.568,110.968 495.304,110.968 L495.304,110.968 Z M522.272,110 L535.912,110 L535.912,47.08 L522.272,47.08 L522.272,110 Z M546.6,110 L558.304,110 L558.304,70.928 L570.8,110 L583.648,110 L583.648,47.08 L571.856,47.08 L571.856,80.696 L561.208,47.08 L546.6,47.08 L546.6,110 Z M594.072,110 L623.464,110 L623.464,99.352 L607.624,99.352 L607.624,81.928 L619.416,81.928 L619.416,71.808 L607.624,71.808 L607.624,57.728 L622.584,57.728 L622.584,47.08 L594.072,47.08 L594.072,110 Z M648.76,110.968 C659.936,110.968 666.184,105.248 666.184,93.808 L666.184,92.576 C666.184,80.256 659.76,76.472 652.28,71.72 C646.824,68.024 644.888,66.44 644.888,61.952 L644.888,61.6 C644.888,58.08 646.12,56.672 648.672,56.672 C651.048,56.672 652.72,57.816 652.72,62.304 L652.72,64.328 L665.48,64.328 L665.48,62.48 C665.392,51.392 659.32,46.2 648.672,46.2 C637.848,46.2 631.688,52.008 631.688,62.48 L631.688,62.832 C631.688,73.216 636,77.88 644.184,83.072 C649.816,86.768 652.896,88.528 652.896,94.16 L652.896,94.864 C652.896,98.912 651.576,100.672 648.76,100.672 C645.504,100.672 644.184,99 644.184,93.896 L644.184,91.432 L631.072,91.432 L631.072,93.456 C631.16,106.04 638.024,110.968 648.76,110.968 L648.76,110.968 Z M691.48,110.968 C702.656,110.968 708.904,105.248 708.904,93.808 L708.904,92.576 C708.904,80.256 702.48,76.472 695,71.72 C689.544,68.024 687.608,66.44 687.608,61.952 L687.608,61.6 C687.608,58.08 688.84,56.672 691.392,56.672 C693.768,56.672 695.44,57.816 695.44,62.304 L695.44,64.328 L708.2,64.328 L708.2,62.48 C708.112,51.392 702.04,46.2 691.392,46.2 C680.568,46.2 674.408,52.008 674.408,62.48 L674.408,62.832 C674.408,73.216 678.72,77.88 686.904,83.072 C692.536,86.768 695.616,88.528 695.616,94.16 L695.616,94.864 C695.616,98.912 694.296,100.672 691.48,100.672 C688.224,100.672 686.904,99 686.904,93.896 L686.904,91.432 L673.792,91.432 L673.792,93.456 C673.88,106.04 680.744,110.968 691.48,110.968 L691.48,110.968 Z M737.76,110.528 C748.144,110.528 753.6,104.72 753.6,93.896 L753.6,47.08 L739.96,47.08 L739.96,93.28 C739.96,97.68 738.024,99.176 734.592,99.176 C732.744,99.176 731.512,98.912 730.456,98.648 L730.456,109.208 C732.04,109.912 734.152,110.528 737.76,110.528 L737.76,110.528 Z M782.328,110.968 C794.032,110.968 801.6,104.896 801.6,91.784 L801.6,65.032 C801.6,51.832 793.768,46.2 782.328,46.2 C771.24,46.2 763.144,52.184 763.144,65.12 L763.144,92.136 C763.144,105.072 770.624,110.968 782.328,110.968 L782.328,110.968 Z M782.328,100.056 C778.632,100.056 776.96,97.768 776.96,92.048 L776.96,65.032 C776.96,59.4 778.72,57.112 782.328,57.112 C786.024,57.112 787.784,59.576 787.784,65.032 L787.784,91.96 C787.784,97.68 786.024,100.056 782.328,100.056 L782.328,100.056 Z M834.552,47.08 L834.552,92.84 C834.552,98.12 833.144,99.968 829.8,99.968 C826.192,99.968 824.96,98.12 824.96,92.928 L824.96,47.08 L811.408,47.08 L811.408,93.192 C811.408,105.424 818.008,110.968 829.712,110.968 C841.328,110.968 848.192,105.512 848.192,93.28 L848.192,47.08 L834.552,47.08 Z M858.44,110 L871.992,110 L871.992,83.776 L874.456,83.776 L881.408,110 L895.488,110 L887.216,81.664 C891.352,79.64 893.728,76.296 893.728,69.168 L893.728,62.744 C893.728,52.272 888.8,47.08 875.6,47.08 L858.44,47.08 L858.44,110 Z M871.992,75.064 L871.992,57.464 L875.16,57.464 C878.944,57.464 880.528,58.96 880.528,63.184 L880.528,68.992 C880.528,73.48 878.856,75.064 875.16,75.064 L871.992,75.064 Z M903.712,110 L915.416,110 L915.416,70.928 L927.912,110 L940.76,110 L940.76,47.08 L928.968,47.08 L928.968,80.696 L918.32,47.08 L903.712,47.08 L903.712,110 Z M974.328,110 L988.056,110 L978.024,47.08 L958.576,47.08 L948.632,110 L961.04,110 L962.712,97.152 L972.568,97.152 L974.328,110 Z M967.64,59.136 L971.336,87.736 L963.944,87.736 L967.64,59.136 Z M995.928,110 L1023.648,110 L1023.648,99.176 L1009.48,99.176 L1009.48,47.08 L995.928,47.08 L995.928,110 Z" id="CHARLOTTE-BUSINESS-J"></path>
        </g>
    </g>
</svg>